%FSLAX45Y45*%
G04 Gerber Fmt 4.5, Leading zero omitted, Abs format (unit mm)*
G04 Created by KiCad (PCBNEW (6.0.6)) date 2024-09-14 01:32:14*
%MOMM*%
%LPD*%
G01*
G04 APERTURE LIST*
%TA.AperFunction,Profile*%
%ADD10C,0.100000*%
%TD*%
%ADD11C,0.200000*%
G04 APERTURE END LIST*
D10*
X29700000Y20890000D02*
X29700000Y310000D01*
X210000Y21100000D02*
X29490000Y21100000D01*
X0Y310000D02*
X0Y20890000D01*
X29490000Y100000D02*
X210000Y100000D01*
X29700000Y20890000D02*
G75*
G03*
X29490000Y21100000I-210000J0D01*
G01*
X210000Y21100000D02*
G75*
G03*
X0Y20890000I0J-210000D01*
G01*
X0Y310000D02*
G75*
G03*
X210000Y100000I210000J0D01*
G01*
X29490000Y100000D02*
G75*
G03*
X29700000Y310000I0J210000D01*
G01*
D11*
X252619Y-215476D02*
X252619Y-15476D01*
X300238Y-15476D01*
X328810Y-25000D01*
X347857Y-44048D01*
X357381Y-63095D01*
X366905Y-101190D01*
X366905Y-129762D01*
X357381Y-167857D01*
X347857Y-186905D01*
X328810Y-205952D01*
X300238Y-215476D01*
X252619Y-215476D01*
X452619Y-215476D02*
X452619Y-82143D01*
X452619Y-120238D02*
X462143Y-101190D01*
X471667Y-91667D01*
X490714Y-82143D01*
X509762Y-82143D01*
X576429Y-215476D02*
X576429Y-82143D01*
X576429Y-15476D02*
X566905Y-25000D01*
X576429Y-34524D01*
X585952Y-25000D01*
X576429Y-15476D01*
X576429Y-34524D01*
X700238Y-215476D02*
X681190Y-205952D01*
X671667Y-186905D01*
X671667Y-15476D01*
X805000Y-215476D02*
X785952Y-205952D01*
X776428Y-186905D01*
X776428Y-15476D01*
X1033571Y-215476D02*
X1033571Y-15476D01*
X1100238Y-158333D01*
X1166905Y-15476D01*
X1166905Y-215476D01*
X1347857Y-215476D02*
X1347857Y-110714D01*
X1338333Y-91667D01*
X1319286Y-82143D01*
X1281190Y-82143D01*
X1262143Y-91667D01*
X1347857Y-205952D02*
X1328810Y-215476D01*
X1281190Y-215476D01*
X1262143Y-205952D01*
X1252619Y-186905D01*
X1252619Y-167857D01*
X1262143Y-148810D01*
X1281190Y-139286D01*
X1328810Y-139286D01*
X1347857Y-129762D01*
X1443095Y-82143D02*
X1443095Y-282143D01*
X1443095Y-91667D02*
X1462143Y-82143D01*
X1500238Y-82143D01*
X1519286Y-91667D01*
X1528809Y-101190D01*
X1538333Y-120238D01*
X1538333Y-177381D01*
X1528809Y-196428D01*
X1519286Y-205952D01*
X1500238Y-215476D01*
X1462143Y-215476D01*
X1443095Y-205952D01*
X1624048Y-196428D02*
X1633571Y-205952D01*
X1624048Y-215476D01*
X1614524Y-205952D01*
X1624048Y-196428D01*
X1624048Y-215476D01*
X1624048Y-91667D02*
X1633571Y-101190D01*
X1624048Y-110714D01*
X1614524Y-101190D01*
X1624048Y-91667D01*
X1624048Y-110714D01*
M02*
