G04 #@! TF.GenerationSoftware,KiCad,Pcbnew,(6.0.6)*
G04 #@! TF.CreationDate,2024-09-14T01:35:41+08:00*
G04 #@! TF.ProjectId,PCB_2,5043425f-322e-46b6-9963-61645f706362,rev?*
G04 #@! TF.SameCoordinates,Original*
G04 #@! TF.FileFunction,Legend,Bot*
G04 #@! TF.FilePolarity,Positive*
%FSLAX46Y46*%
G04 Gerber Fmt 4.6, Leading zero omitted, Abs format (unit mm)*
G04 Created by KiCad (PCBNEW (6.0.6)) date 2024-09-14 01:35:41*
%MOMM*%
%LPD*%
G01*
G04 APERTURE LIST*
%ADD10C,8.000000*%
%ADD11C,1.600000*%
%ADD12O,1.600000X1.600000*%
%ADD13R,1.700000X1.700000*%
%ADD14O,1.700000X1.700000*%
%ADD15C,2.500000*%
%ADD16R,1.800000X1.800000*%
%ADD17C,1.800000*%
%ADD18C,1.524000*%
%ADD19C,2.400000*%
%ADD20O,2.400000X2.400000*%
%ADD21C,2.000000*%
G04 APERTURE END LIST*
%LPC*%
D10*
X10954000Y188570000D03*
X10954000Y173570000D03*
X51054000Y188570000D03*
X51054000Y173570000D03*
X187198000Y41028000D03*
X187198000Y26028000D03*
X246888000Y39822000D03*
X246888000Y24822000D03*
X70866000Y39758000D03*
X70866000Y24758000D03*
X124460000Y39504000D03*
X124460000Y24504000D03*
X246888000Y83034000D03*
X246888000Y68034000D03*
X246888000Y121848000D03*
X246888000Y106848000D03*
X246888000Y154820000D03*
X246888000Y139820000D03*
D11*
X70866000Y102210000D03*
D12*
X70866000Y112370000D03*
D11*
X186786375Y62557000D03*
D12*
X186786375Y72717000D03*
D11*
X135026625Y62557000D03*
D12*
X135026625Y72717000D03*
D11*
X170276375Y72717000D03*
D12*
X170276375Y62557000D03*
D11*
X176615250Y112370000D03*
D12*
X176615250Y102210000D03*
D11*
X112984875Y72717000D03*
D12*
X112984875Y62557000D03*
D11*
X180182375Y62557000D03*
D12*
X180182375Y72717000D03*
D11*
X131724625Y72717000D03*
D12*
X131724625Y62557000D03*
D13*
X291900000Y35800000D03*
D14*
X291900000Y38340000D03*
D11*
X138328625Y72717000D03*
D12*
X138328625Y62557000D03*
D11*
X163407250Y112370000D03*
D12*
X163407250Y102210000D03*
D11*
X173313250Y102210000D03*
D12*
X173313250Y112370000D03*
D15*
X206217125Y81788000D03*
X199147125Y94358000D03*
X196557125Y89878000D03*
X196557125Y84698000D03*
X199147125Y80218000D03*
X203627125Y77628000D03*
X208807125Y77628000D03*
X213287125Y80218000D03*
X215877125Y84698000D03*
X215877125Y89878000D03*
X213287125Y94358000D03*
D16*
X263070000Y52020000D03*
D17*
X265570000Y52020000D03*
X268070000Y52020000D03*
D11*
X173578375Y62557000D03*
D12*
X173578375Y72717000D03*
D11*
X64262000Y102210000D03*
D12*
X64262000Y112370000D03*
D10*
X10954000Y120280000D03*
X10954000Y105280000D03*
X10954000Y154024000D03*
X10954000Y139024000D03*
D13*
X200411000Y50038000D03*
D14*
X197871000Y50038000D03*
D11*
X262382000Y152654000D03*
D12*
X275082000Y152654000D03*
D11*
X131459500Y112370000D03*
D12*
X131459500Y102210000D03*
D11*
X283200000Y12380000D03*
D12*
X283200000Y25080000D03*
D11*
X205261000Y102210000D03*
D12*
X205261000Y112370000D03*
D11*
X67564000Y112370000D03*
D12*
X67564000Y102210000D03*
D11*
X84074000Y102210000D03*
D12*
X84074000Y112370000D03*
D15*
X110373875Y81788000D03*
X103303875Y94358000D03*
X100713875Y89878000D03*
X100713875Y84698000D03*
X103303875Y80218000D03*
X107783875Y77628000D03*
X112963875Y77628000D03*
X117443875Y80218000D03*
X120033875Y84698000D03*
X120033875Y89878000D03*
X117443875Y94358000D03*
D11*
X77735125Y62557000D03*
D12*
X77735125Y72717000D03*
D11*
X99776875Y72717000D03*
D12*
X99776875Y62557000D03*
D11*
X148234625Y62557000D03*
D12*
X148234625Y72717000D03*
D11*
X80772000Y112370000D03*
D12*
X80772000Y102210000D03*
D11*
X96474875Y62557000D03*
D12*
X96474875Y72717000D03*
D18*
X289306000Y152320000D03*
X289306000Y142320000D03*
D15*
X78426125Y81788000D03*
X71356125Y94358000D03*
X68766125Y89878000D03*
X68766125Y84698000D03*
X71356125Y80218000D03*
X75836125Y77628000D03*
X81016125Y77628000D03*
X85496125Y80218000D03*
X88086125Y84698000D03*
X88086125Y89878000D03*
X85496125Y94358000D03*
D11*
X77470000Y102210000D03*
D12*
X77470000Y112370000D03*
X79502000Y49022000D03*
D11*
X92202000Y49022000D03*
X112719750Y112370000D03*
D12*
X112719750Y102210000D03*
D13*
X232156000Y24892000D03*
D14*
X232156000Y27432000D03*
D11*
X282420000Y62140000D03*
D12*
X282420000Y74840000D03*
D15*
X142321625Y81788000D03*
X135251625Y94358000D03*
X132661625Y89878000D03*
X132661625Y84698000D03*
X135251625Y80218000D03*
X139731625Y77628000D03*
X144911625Y77628000D03*
X149391625Y80218000D03*
X151981625Y84698000D03*
X151981625Y89878000D03*
X149391625Y94358000D03*
D18*
X107696000Y14812000D03*
X107696000Y24812000D03*
D11*
X288500000Y187180000D03*
D12*
X288500000Y174480000D03*
D11*
X134761500Y102210000D03*
D12*
X134761500Y112370000D03*
D11*
X218469000Y102210000D03*
D12*
X218469000Y112370000D03*
D15*
X78161000Y121441000D03*
X71091000Y134011000D03*
X68501000Y129531000D03*
X68501000Y124351000D03*
X71091000Y119871000D03*
X75571000Y117281000D03*
X80751000Y117281000D03*
X85231000Y119871000D03*
X87821000Y124351000D03*
X87821000Y129531000D03*
X85231000Y134011000D03*
D11*
X262636000Y120142000D03*
D12*
X275336000Y120142000D03*
D11*
X201959000Y112370000D03*
D12*
X201959000Y102210000D03*
D11*
X144932625Y72717000D03*
D12*
X144932625Y62557000D03*
D11*
X211865000Y102210000D03*
D12*
X211865000Y112370000D03*
D10*
X228865125Y74901000D03*
X228865125Y89901000D03*
D11*
X215167000Y112370000D03*
D12*
X215167000Y102210000D03*
D11*
X195355000Y112370000D03*
D12*
X195355000Y102210000D03*
D11*
X208563000Y112370000D03*
D12*
X208563000Y102210000D03*
D15*
X205952000Y121441000D03*
X198882000Y134011000D03*
X196292000Y129531000D03*
X196292000Y124351000D03*
X198882000Y119871000D03*
X203362000Y117281000D03*
X208542000Y117281000D03*
X213022000Y119871000D03*
X215612000Y124351000D03*
X215612000Y129531000D03*
X213022000Y134011000D03*
D18*
X282440000Y78570000D03*
X282440000Y88570000D03*
D11*
X30734000Y85090000D03*
D12*
X30734000Y72390000D03*
D13*
X292070000Y82840000D03*
D14*
X292070000Y85380000D03*
D11*
X192318125Y62557000D03*
D12*
X192318125Y72717000D03*
D13*
X218948000Y47498000D03*
D14*
X218948000Y44958000D03*
X218948000Y42418000D03*
D16*
X262168000Y96920000D03*
D17*
X264668000Y96920000D03*
X267168000Y96920000D03*
D11*
X166974375Y62557000D03*
D12*
X166974375Y72717000D03*
D19*
X150840000Y40470000D03*
D20*
X150840000Y25230000D03*
D11*
X122890875Y62557000D03*
D12*
X122890875Y72717000D03*
D10*
X248158000Y189729000D03*
X248158000Y174729000D03*
D11*
X84339125Y62557000D03*
D12*
X84339125Y72717000D03*
D11*
X51054000Y29464000D03*
D12*
X51054000Y16764000D03*
D11*
X141630625Y62557000D03*
D12*
X141630625Y72717000D03*
D11*
X87641125Y72717000D03*
D12*
X87641125Y62557000D03*
D15*
X110108750Y121441000D03*
X103038750Y134011000D03*
X100448750Y129531000D03*
X100448750Y124351000D03*
X103038750Y119871000D03*
X107518750Y117281000D03*
X112698750Y117281000D03*
X117178750Y119871000D03*
X119768750Y124351000D03*
X119768750Y129531000D03*
X117178750Y134011000D03*
D11*
X119323750Y112370000D03*
D12*
X119323750Y102210000D03*
D11*
X52054000Y73278000D03*
D12*
X52054000Y60578000D03*
D11*
X138063500Y112370000D03*
D12*
X138063500Y102210000D03*
D15*
X142056500Y121441000D03*
X134986500Y134011000D03*
X132396500Y129531000D03*
X132396500Y124351000D03*
X134986500Y119871000D03*
X139466500Y117281000D03*
X144646500Y117281000D03*
X149126500Y119871000D03*
X151716500Y124351000D03*
X151716500Y129531000D03*
X149126500Y134011000D03*
D11*
X151271500Y112370000D03*
D12*
X151271500Y102210000D03*
D11*
X212130125Y62557000D03*
D12*
X212130125Y72717000D03*
D11*
X147574000Y49276000D03*
D12*
X134874000Y49276000D03*
D18*
X169672000Y37512000D03*
X169672000Y27512000D03*
D11*
X192053000Y102210000D03*
D12*
X192053000Y112370000D03*
D15*
X174004250Y121441000D03*
X166934250Y134011000D03*
X164344250Y129531000D03*
X164344250Y124351000D03*
X166934250Y119871000D03*
X171414250Y117281000D03*
X176594250Y117281000D03*
X181074250Y119871000D03*
X183664250Y124351000D03*
X183664250Y129531000D03*
X181074250Y134011000D03*
D11*
X154573500Y102210000D03*
D12*
X154573500Y112370000D03*
D11*
X186521250Y102210000D03*
D12*
X186521250Y112370000D03*
D11*
X176880375Y72717000D03*
D12*
X176880375Y62557000D03*
D11*
X99511750Y112370000D03*
D12*
X99511750Y102210000D03*
D19*
X289814000Y122428000D03*
D20*
X289814000Y107188000D03*
D11*
X160370375Y62557000D03*
D12*
X160370375Y72717000D03*
D11*
X81037125Y72717000D03*
D12*
X81037125Y62557000D03*
D11*
X29972000Y152654000D03*
D12*
X29972000Y139954000D03*
D11*
X215432125Y72717000D03*
D12*
X215432125Y62557000D03*
D10*
X228600000Y114554000D03*
X228600000Y129554000D03*
D21*
X52054000Y86684668D03*
X52054000Y79184668D03*
D11*
X31500000Y119140000D03*
D12*
X31500000Y106440000D03*
D11*
X195620125Y72717000D03*
D12*
X195620125Y62557000D03*
D19*
X262636000Y187198000D03*
D20*
X277876000Y187198000D03*
D11*
X166709250Y102210000D03*
D12*
X166709250Y112370000D03*
D11*
X160105250Y102210000D03*
D12*
X160105250Y112370000D03*
D11*
X30480000Y43942000D03*
D12*
X30480000Y31242000D03*
D11*
X64527125Y62557000D03*
D12*
X64527125Y72717000D03*
D11*
X144667500Y112370000D03*
D12*
X144667500Y102210000D03*
D11*
X116286875Y62557000D03*
D12*
X116286875Y72717000D03*
D15*
X174269375Y81788000D03*
X167199375Y94358000D03*
X164609375Y89878000D03*
X164609375Y84698000D03*
X167199375Y80218000D03*
X171679375Y77628000D03*
X176859375Y77628000D03*
X181339375Y80218000D03*
X183929375Y84698000D03*
X183929375Y89878000D03*
X181339375Y94358000D03*
D19*
X51054000Y48768000D03*
D20*
X51054000Y33528000D03*
D11*
X106380875Y72717000D03*
D12*
X106380875Y62557000D03*
D11*
X74433125Y72717000D03*
D12*
X74433125Y62557000D03*
D20*
X198610000Y15320000D03*
D19*
X229090000Y15320000D03*
D11*
X198657000Y102210000D03*
D12*
X198657000Y112370000D03*
D11*
X208828125Y72717000D03*
D12*
X208828125Y62557000D03*
D11*
X147969500Y102210000D03*
D12*
X147969500Y112370000D03*
D11*
X20828000Y59182000D03*
D12*
X33528000Y59182000D03*
D11*
X119588875Y72717000D03*
D12*
X119588875Y62557000D03*
D11*
X90678000Y102210000D03*
D12*
X90678000Y112370000D03*
D11*
X170011250Y112370000D03*
D12*
X170011250Y102210000D03*
D11*
X74168000Y112370000D03*
D12*
X74168000Y102210000D03*
D11*
X103078875Y62557000D03*
D12*
X103078875Y72717000D03*
D10*
X10954000Y82768000D03*
X10954000Y67768000D03*
D19*
X107696000Y50292000D03*
D20*
X107696000Y35052000D03*
D11*
X128157500Y102210000D03*
D12*
X128157500Y112370000D03*
D11*
X128422625Y62557000D03*
D12*
X128422625Y72717000D03*
D11*
X90943125Y62557000D03*
D12*
X90943125Y72717000D03*
D11*
X116021750Y102210000D03*
D12*
X116021750Y112370000D03*
D14*
X278050000Y31785000D03*
D13*
X278050000Y29245000D03*
D11*
X163672375Y72717000D03*
D12*
X163672375Y62557000D03*
D11*
X202224125Y72717000D03*
D12*
X202224125Y62557000D03*
D19*
X282940000Y44300000D03*
D20*
X282940000Y29060000D03*
D11*
X109417750Y102210000D03*
D12*
X109417750Y112370000D03*
D21*
X52054000Y142774000D03*
X52054000Y150274000D03*
D11*
X122625750Y102210000D03*
D12*
X122625750Y112370000D03*
D13*
X277620000Y79600000D03*
D14*
X277620000Y82140000D03*
D11*
X67829125Y72717000D03*
D12*
X67829125Y62557000D03*
D11*
X179917250Y102210000D03*
D12*
X179917250Y112370000D03*
D11*
X205526125Y62557000D03*
D12*
X205526125Y72717000D03*
D19*
X52054000Y120400000D03*
D20*
X52054000Y105160000D03*
D11*
X20828000Y17780000D03*
D12*
X33528000Y17780000D03*
D11*
X109682875Y62557000D03*
D12*
X109682875Y72717000D03*
D10*
X10954000Y41012000D03*
X10954000Y26012000D03*
D11*
X71131125Y62557000D03*
D12*
X71131125Y72717000D03*
D11*
X154838625Y62557000D03*
D12*
X154838625Y72717000D03*
D11*
X96209750Y102210000D03*
D12*
X96209750Y112370000D03*
D11*
X151536625Y72717000D03*
D12*
X151536625Y62557000D03*
D11*
X141365500Y102210000D03*
D12*
X141365500Y112370000D03*
D11*
X87376000Y112370000D03*
D12*
X87376000Y102210000D03*
D11*
X198922125Y62557000D03*
D12*
X198922125Y72717000D03*
D11*
X102813750Y102210000D03*
D12*
X102813750Y112370000D03*
D11*
X106115750Y112370000D03*
D12*
X106115750Y102210000D03*
D11*
X218734125Y62557000D03*
D12*
X218734125Y72717000D03*
D11*
X29004000Y188690000D03*
D12*
X29004000Y175990000D03*
D11*
X183484375Y72717000D03*
D12*
X183484375Y62557000D03*
D11*
X183219250Y112370000D03*
D12*
X183219250Y102210000D03*
M02*
