M48
; DRILL file {KiCad (6.0.6)} date Sat Sep 14 01:32:12 2024
; FORMAT={-:-/ absolute / metric / decimal}
; #@! TF.CreationDate,2024-09-14T01:32:12+08:00
; #@! TF.GenerationSoftware,Kicad,Pcbnew,(6.0.6)
; #@! TF.FileFunction,Plated,1,2,PTH
FMAT,2
METRIC
; #@! TA.AperFunction,Plated,PTH,ComponentDrill
T1C0.762
; #@! TA.AperFunction,Plated,PTH,ComponentDrill
T2C0.800
; #@! TA.AperFunction,Plated,PTH,ComponentDrill
T3C1.000
; #@! TA.AperFunction,Plated,PTH,ComponentDrill
T4C1.200
; #@! TA.AperFunction,Plated,PTH,ComponentDrill
T5C1.400
; #@! TA.AperFunction,Plated,PTH,ViaDrill
T6C3.000
; #@! TA.AperFunction,Plated,PTH,ComponentDrill
T7C4.000
%
G90
G05
T1
X107.696Y24.812
X107.696Y14.812
X169.672Y37.512
X169.672Y27.512
X282.44Y88.57
X282.44Y78.57
X289.306Y152.32
X289.306Y142.32
T2
X20.828Y59.182
X20.828Y17.78
X29.004Y188.69
X29.004Y175.99
X29.972Y152.654
X29.972Y139.954
X30.48Y43.942
X30.48Y31.242
X30.734Y85.09
X30.734Y72.39
X31.5Y119.14
X31.5Y106.44
X33.528Y59.182
X33.528Y17.78
X51.054Y29.464
X51.054Y16.764
X52.054Y73.278
X52.054Y60.578
X64.262Y112.37
X64.262Y102.21
X64.527Y72.717
X64.527Y62.557
X67.564Y112.37
X67.564Y102.21
X67.829Y72.717
X67.829Y62.557
X70.866Y112.37
X70.866Y102.21
X71.131Y72.717
X71.131Y62.557
X74.168Y112.37
X74.168Y102.21
X74.433Y72.717
X74.433Y62.557
X77.47Y112.37
X77.47Y102.21
X77.735Y72.717
X77.735Y62.557
X79.502Y49.022
X80.772Y112.37
X80.772Y102.21
X81.037Y72.717
X81.037Y62.557
X84.074Y112.37
X84.074Y102.21
X84.339Y72.717
X84.339Y62.557
X87.376Y112.37
X87.376Y102.21
X87.641Y72.717
X87.641Y62.557
X90.678Y112.37
X90.678Y102.21
X90.943Y72.717
X90.943Y62.557
X92.202Y49.022
X96.21Y112.37
X96.21Y102.21
X96.475Y72.717
X96.475Y62.557
X99.512Y112.37
X99.512Y102.21
X99.777Y72.717
X99.777Y62.557
X102.814Y112.37
X102.814Y102.21
X103.079Y72.717
X103.079Y62.557
X106.116Y112.37
X106.116Y102.21
X106.381Y72.717
X106.381Y62.557
X109.418Y112.37
X109.418Y102.21
X109.683Y72.717
X109.683Y62.557
X112.72Y112.37
X112.72Y102.21
X112.985Y72.717
X112.985Y62.557
X116.022Y112.37
X116.022Y102.21
X116.287Y72.717
X116.287Y62.557
X119.324Y112.37
X119.324Y102.21
X119.589Y72.717
X119.589Y62.557
X122.626Y112.37
X122.626Y102.21
X122.891Y72.717
X122.891Y62.557
X128.157Y112.37
X128.157Y102.21
X128.423Y72.717
X128.423Y62.557
X131.459Y112.37
X131.459Y102.21
X131.725Y72.717
X131.725Y62.557
X134.761Y112.37
X134.761Y102.21
X134.874Y49.276
X135.027Y72.717
X135.027Y62.557
X138.064Y112.37
X138.064Y102.21
X138.329Y72.717
X138.329Y62.557
X141.365Y112.37
X141.365Y102.21
X141.631Y72.717
X141.631Y62.557
X144.667Y112.37
X144.667Y102.21
X144.933Y72.717
X144.933Y62.557
X147.574Y49.276
X147.969Y112.37
X147.969Y102.21
X148.235Y72.717
X148.235Y62.557
X151.272Y112.37
X151.272Y102.21
X151.537Y72.717
X151.537Y62.557
X154.573Y112.37
X154.573Y102.21
X154.839Y72.717
X154.839Y62.557
X160.105Y112.37
X160.105Y102.21
X160.37Y72.717
X160.37Y62.557
X163.407Y112.37
X163.407Y102.21
X163.672Y72.717
X163.672Y62.557
X166.709Y112.37
X166.709Y102.21
X166.974Y72.717
X166.974Y62.557
X170.011Y112.37
X170.011Y102.21
X170.276Y72.717
X170.276Y62.557
X173.313Y112.37
X173.313Y102.21
X173.578Y72.717
X173.578Y62.557
X176.615Y112.37
X176.615Y102.21
X176.88Y72.717
X176.88Y62.557
X179.917Y112.37
X179.917Y102.21
X180.182Y72.717
X180.182Y62.557
X183.219Y112.37
X183.219Y102.21
X183.484Y72.717
X183.484Y62.557
X186.521Y112.37
X186.521Y102.21
X186.786Y72.717
X186.786Y62.557
X192.053Y112.37
X192.053Y102.21
X192.318Y72.717
X192.318Y62.557
X195.355Y112.37
X195.355Y102.21
X195.62Y72.717
X195.62Y62.557
X198.657Y112.37
X198.657Y102.21
X198.922Y72.717
X198.922Y62.557
X201.959Y112.37
X201.959Y102.21
X202.224Y72.717
X202.224Y62.557
X205.261Y112.37
X205.261Y102.21
X205.526Y72.717
X205.526Y62.557
X208.563Y112.37
X208.563Y102.21
X208.828Y72.717
X208.828Y62.557
X211.865Y112.37
X211.865Y102.21
X212.13Y72.717
X212.13Y62.557
X215.167Y112.37
X215.167Y102.21
X215.432Y72.717
X215.432Y62.557
X218.469Y112.37
X218.469Y102.21
X218.734Y72.717
X218.734Y62.557
X262.382Y152.654
X262.636Y120.142
X275.082Y152.654
X275.336Y120.142
X282.42Y74.84
X282.42Y62.14
X283.2Y25.08
X283.2Y12.38
X288.5Y187.18
X288.5Y174.48
T3
X52.054Y150.274
X52.054Y142.774
X52.054Y86.685
X52.054Y79.185
X197.871Y50.038
X200.411Y50.038
X218.948Y47.498
X218.948Y44.958
X218.948Y42.418
X232.156Y27.432
X232.156Y24.892
X262.168Y96.92
X263.07Y52.02
X264.668Y96.92
X265.57Y52.02
X267.168Y96.92
X268.07Y52.02
X277.62Y82.14
X277.62Y79.6
X278.05Y31.785
X278.05Y29.245
X291.9Y38.34
X291.9Y35.8
X292.07Y85.38
X292.07Y82.84
T4
X51.054Y48.768
X51.054Y33.528
X52.054Y120.4
X52.054Y105.16
X107.696Y50.292
X107.696Y35.052
X150.84Y40.47
X150.84Y25.23
X198.61Y15.32
X229.09Y15.32
X262.636Y187.198
X277.876Y187.198
X282.94Y44.3
X282.94Y29.06
X289.814Y122.428
X289.814Y107.188
T5
X68.501Y129.531
X68.501Y124.351
X68.766Y89.878
X68.766Y84.698
X71.091Y134.011
X71.091Y119.871
X71.356Y94.358
X71.356Y80.218
X75.571Y117.281
X75.836Y77.628
X78.161Y121.441
X78.426Y81.788
X80.751Y117.281
X81.016Y77.628
X85.231Y134.011
X85.231Y119.871
X85.496Y94.358
X85.496Y80.218
X87.821Y129.531
X87.821Y124.351
X88.086Y89.878
X88.086Y84.698
X100.449Y129.531
X100.449Y124.351
X100.714Y89.878
X100.714Y84.698
X103.039Y134.011
X103.039Y119.871
X103.304Y94.358
X103.304Y80.218
X107.519Y117.281
X107.784Y77.628
X110.109Y121.441
X110.374Y81.788
X112.699Y117.281
X112.964Y77.628
X117.179Y134.011
X117.179Y119.871
X117.444Y94.358
X117.444Y80.218
X119.769Y129.531
X119.769Y124.351
X120.034Y89.878
X120.034Y84.698
X132.397Y129.531
X132.397Y124.351
X132.662Y89.878
X132.662Y84.698
X134.987Y134.011
X134.987Y119.871
X135.252Y94.358
X135.252Y80.218
X139.466Y117.281
X139.732Y77.628
X142.056Y121.441
X142.322Y81.788
X144.647Y117.281
X144.912Y77.628
X149.126Y134.011
X149.126Y119.871
X149.392Y94.358
X149.392Y80.218
X151.716Y129.531
X151.716Y124.351
X151.982Y89.878
X151.982Y84.698
X164.344Y129.531
X164.344Y124.351
X164.609Y89.878
X164.609Y84.698
X166.934Y134.011
X166.934Y119.871
X167.199Y94.358
X167.199Y80.218
X171.414Y117.281
X171.679Y77.628
X174.004Y121.441
X174.269Y81.788
X176.594Y117.281
X176.859Y77.628
X181.074Y134.011
X181.074Y119.871
X181.339Y94.358
X181.339Y80.218
X183.664Y129.531
X183.664Y124.351
X183.929Y89.878
X183.929Y84.698
X196.292Y129.531
X196.292Y124.351
X196.557Y89.878
X196.557Y84.698
X198.882Y134.011
X198.882Y119.871
X199.147Y94.358
X199.147Y80.218
X203.362Y117.281
X203.627Y77.628
X205.952Y121.441
X206.217Y81.788
X208.542Y117.281
X208.807Y77.628
X213.022Y134.011
X213.022Y119.871
X213.287Y94.358
X213.287Y80.218
X215.612Y129.531
X215.612Y124.351
X215.877Y89.878
X215.877Y84.698
T6
X5.0Y205.0
X5.0Y6.0
X148.5Y205.0
X148.5Y6.0
X292.0Y205.0
X292.0Y6.0
T7
X10.954Y188.57
X10.954Y173.57
X10.954Y154.024
X10.954Y139.024
X10.954Y120.28
X10.954Y105.28
X10.954Y82.768
X10.954Y67.768
X10.954Y41.012
X10.954Y26.012
X51.054Y188.57
X51.054Y173.57
X70.866Y39.758
X70.866Y24.758
X124.46Y39.504
X124.46Y24.504
X187.198Y41.028
X187.198Y26.028
X228.6Y129.554
X228.6Y114.554
X228.865Y89.901
X228.865Y74.901
X246.888Y154.82
X246.888Y139.82
X246.888Y121.848
X246.888Y106.848
X246.888Y83.034
X246.888Y68.034
X246.888Y39.822
X246.888Y24.822
X248.158Y189.729
X248.158Y174.729
T0
M30
