G04 #@! TF.GenerationSoftware,KiCad,Pcbnew,(6.0.6)*
G04 #@! TF.CreationDate,2024-09-14T02:37:11+08:00*
G04 #@! TF.ProjectId,PCB_4,5043425f-342e-46b6-9963-61645f706362,rev?*
G04 #@! TF.SameCoordinates,Original*
G04 #@! TF.FileFunction,Paste,Bot*
G04 #@! TF.FilePolarity,Positive*
%FSLAX46Y46*%
G04 Gerber Fmt 4.6, Leading zero omitted, Abs format (unit mm)*
G04 Created by KiCad (PCBNEW (6.0.6)) date 2024-09-14 02:37:11*
%MOMM*%
%LPD*%
G01*
G04 APERTURE LIST*
G04 Aperture macros list*
%AMRoundRect*
0 Rectangle with rounded corners*
0 $1 Rounding radius*
0 $2 $3 $4 $5 $6 $7 $8 $9 X,Y pos of 4 corners*
0 Add a 4 corners polygon primitive as box body*
4,1,4,$2,$3,$4,$5,$6,$7,$8,$9,$2,$3,0*
0 Add four circle primitives for the rounded corners*
1,1,$1+$1,$2,$3*
1,1,$1+$1,$4,$5*
1,1,$1+$1,$6,$7*
1,1,$1+$1,$8,$9*
0 Add four rect primitives between the rounded corners*
20,1,$1+$1,$2,$3,$4,$5,0*
20,1,$1+$1,$4,$5,$6,$7,0*
20,1,$1+$1,$6,$7,$8,$9,0*
20,1,$1+$1,$8,$9,$2,$3,0*%
G04 Aperture macros list end*
%ADD10RoundRect,0.250000X0.350000X0.450000X-0.350000X0.450000X-0.350000X-0.450000X0.350000X-0.450000X0*%
%ADD11RoundRect,0.250000X-0.450000X0.350000X-0.450000X-0.350000X0.450000X-0.350000X0.450000X0.350000X0*%
%ADD12RoundRect,0.250000X-0.350000X-0.450000X0.350000X-0.450000X0.350000X0.450000X-0.350000X0.450000X0*%
%ADD13RoundRect,0.250000X0.450000X-0.350000X0.450000X0.350000X-0.450000X0.350000X-0.450000X-0.350000X0*%
G04 APERTURE END LIST*
D10*
X219694000Y34036000D03*
X217694000Y34036000D03*
D11*
X80772000Y136144000D03*
X80772000Y134144000D03*
D10*
X219694000Y18288000D03*
X217694000Y18288000D03*
X272526000Y67056000D03*
X270526000Y67056000D03*
D11*
X87291332Y124206000D03*
X87291332Y122206000D03*
D12*
X216400000Y87884000D03*
X218400000Y87884000D03*
D10*
X218400000Y109982000D03*
X216400000Y109982000D03*
X219694000Y21590000D03*
X217694000Y21590000D03*
D11*
X268986000Y166084000D03*
X268986000Y164084000D03*
X279908000Y166084000D03*
X279908000Y164084000D03*
X283210000Y166084000D03*
X283210000Y164084000D03*
D10*
X218400000Y99822000D03*
X216400000Y99822000D03*
D11*
X86868000Y136144000D03*
X86868000Y134144000D03*
D13*
X288036000Y128278000D03*
X288036000Y130278000D03*
D11*
X100838000Y136144000D03*
X100838000Y134144000D03*
D13*
X259905500Y128540000D03*
X259905500Y130540000D03*
D10*
X272526000Y70104000D03*
X270526000Y70104000D03*
D11*
X84158666Y124206000D03*
X84158666Y122206000D03*
X81026000Y124206000D03*
X81026000Y122206000D03*
D10*
X273542000Y23198668D03*
X271542000Y23198668D03*
X219186000Y51054000D03*
X217186000Y51054000D03*
D11*
X258577000Y144721500D03*
X258577000Y142721500D03*
D10*
X219694000Y14986000D03*
X217694000Y14986000D03*
X219186000Y44958000D03*
X217186000Y44958000D03*
X218889500Y60960000D03*
X216889500Y60960000D03*
D12*
X255286000Y46736000D03*
X257286000Y46736000D03*
D11*
X276606000Y166084000D03*
X276606000Y164084000D03*
D13*
X263144000Y128540000D03*
X263144000Y130540000D03*
D10*
X272542000Y50546000D03*
X270542000Y50546000D03*
D13*
X261874000Y96536000D03*
X261874000Y98536000D03*
D10*
X273542000Y29972000D03*
X271542000Y29972000D03*
X219710000Y27432000D03*
X217710000Y27432000D03*
D13*
X281305000Y128278000D03*
X281305000Y130278000D03*
X274701000Y128278000D03*
X274701000Y130278000D03*
X272542000Y96552000D03*
X272542000Y98552000D03*
X255001000Y96536000D03*
X255001000Y98536000D03*
X269225000Y96552000D03*
X269225000Y98552000D03*
D10*
X219186000Y57150000D03*
X217186000Y57150000D03*
D13*
X278003000Y128278000D03*
X278003000Y130278000D03*
D11*
X89916000Y136144000D03*
X89916000Y134144000D03*
D10*
X218889500Y64008000D03*
X216889500Y64008000D03*
D12*
X216400000Y82804000D03*
X218400000Y82804000D03*
D10*
X219694000Y37338000D03*
X217694000Y37338000D03*
X218889500Y67056000D03*
X216889500Y67056000D03*
D11*
X97790000Y136144000D03*
X97790000Y134144000D03*
D13*
X258437500Y96536000D03*
X258437500Y98536000D03*
D12*
X270526000Y46736000D03*
X272526000Y46736000D03*
D10*
X219186000Y54102000D03*
X217186000Y54102000D03*
D13*
X269621000Y128540000D03*
X269621000Y130540000D03*
D11*
X261879000Y144721500D03*
X261879000Y142721500D03*
D12*
X216400000Y90424000D03*
X218400000Y90424000D03*
D13*
X266382500Y128540000D03*
X266382500Y130540000D03*
D10*
X219694000Y30734000D03*
X217694000Y30734000D03*
X218889500Y70104000D03*
X216889500Y70104000D03*
X272526000Y53848000D03*
X270526000Y53848000D03*
X273542000Y26585334D03*
X271542000Y26585334D03*
X272526000Y57150000D03*
X270526000Y57150000D03*
X219186000Y48006000D03*
X217186000Y48006000D03*
X219694000Y11684000D03*
X217694000Y11684000D03*
D13*
X256667000Y128540000D03*
X256667000Y130540000D03*
X284607000Y128278000D03*
X284607000Y130278000D03*
D10*
X272526000Y60452000D03*
X270526000Y60452000D03*
D11*
X265684000Y166084000D03*
X265684000Y164084000D03*
X83820000Y136144000D03*
X83820000Y134144000D03*
X94742000Y136144000D03*
X94742000Y134144000D03*
D13*
X275844000Y96552000D03*
X275844000Y98552000D03*
D11*
X90424000Y124206000D03*
X90424000Y122206000D03*
X103886000Y136144000D03*
X103886000Y134144000D03*
D10*
X218889500Y73152000D03*
X216889500Y73152000D03*
D12*
X216400000Y85344000D03*
X218400000Y85344000D03*
D11*
X273304000Y166084000D03*
X273304000Y164084000D03*
D10*
X272526000Y63754000D03*
X270526000Y63754000D03*
X273542000Y19812000D03*
X271542000Y19812000D03*
X272526000Y73406000D03*
X270526000Y73406000D03*
D11*
X259080000Y166084000D03*
X259080000Y164084000D03*
X262382000Y166084000D03*
X262382000Y164084000D03*
D10*
X208010000Y88900000D03*
X206010000Y88900000D03*
M02*
