M48
; DRILL file {KiCad (6.0.6)} date Sat Sep 14 02:37:47 2024
; FORMAT={-:-/ absolute / metric / decimal}
; #@! TF.CreationDate,2024-09-14T02:37:47+08:00
; #@! TF.GenerationSoftware,Kicad,Pcbnew,(6.0.6)
; #@! TF.FileFunction,Plated,1,2,PTH
FMAT,2
METRIC
; #@! TA.AperFunction,Plated,PTH,ViaDrill
T1C0.300
; #@! TA.AperFunction,Plated,PTH,ViaDrill
T2C0.400
; #@! TA.AperFunction,Plated,PTH,ComponentDrill
T3C0.800
; #@! TA.AperFunction,Plated,PTH,ComponentDrill
T4C0.900
; #@! TA.AperFunction,Plated,PTH,ComponentDrill
T5C1.000
; #@! TA.AperFunction,Plated,PTH,ComponentDrill
T6C1.100
; #@! TA.AperFunction,Plated,PTH,ViaDrill
T7C3.000
; #@! TA.AperFunction,Plated,PTH,ComponentDrill
T8C4.000
%
G90
G05
T1
X10.46Y100.94
X17.58Y102.919
X33.31Y49.57
X36.41Y54.03
X43.98Y94.221
X43.98Y91.973
X44.99Y92.722
X45.1Y94.221
X63.789Y55.05
X64.005Y52.665
X66.54Y94.89
X68.84Y96.389
X71.41Y96.389
X71.41Y94.89
X76.92Y102.63
X90.195Y51.495
X90.235Y53.75
X96.48Y95.004
X96.48Y92.722
X97.43Y108.36
X118.17Y90.182
X118.21Y91.681
X122.94Y107.75
X149.17Y111.01
X197.83Y70.42
X202.71Y64.891
X208.24Y70.605
X209.32Y70.51
X264.668Y189.976
X267.694Y153.736
X267.97Y193.278
X268.404Y187.436
X271.018Y167.37
X274.933Y174.885
X285.75Y171.942
T2
X20.39Y105.49
X45.212Y103.886
X138.938Y123.952
X200.406Y129.032
X211.799Y55.63
X212.852Y125.222
X215.138Y44.958
X256.286Y69.342
X264.414Y51.308
X276.86Y73.406
X277.851Y70.104
X286.766Y65.532
X287.274Y72.898
T3
X3.174Y108.961
X3.174Y98.801
X5.714Y108.961
X5.714Y98.801
X8.254Y108.961
X8.254Y98.801
X10.794Y108.961
X10.794Y98.801
X13.334Y108.961
X13.334Y98.801
X15.874Y108.961
X15.874Y98.801
X18.414Y108.961
X18.414Y98.801
X21.636Y129.564
X21.636Y121.944
X24.176Y129.564
X24.176Y121.944
X26.716Y129.564
X26.716Y121.944
X28.791Y108.961
X28.791Y98.801
X29.256Y129.564
X29.256Y121.944
X31.331Y108.961
X31.331Y98.801
X31.796Y129.564
X31.796Y121.944
X33.871Y108.961
X33.871Y98.801
X34.336Y129.564
X34.336Y121.944
X36.411Y108.961
X36.411Y98.801
X38.951Y108.961
X38.951Y98.801
X41.491Y108.961
X41.491Y98.801
X44.031Y108.961
X44.031Y98.801
X54.408Y108.961
X54.408Y98.801
X56.948Y108.961
X56.948Y98.801
X59.488Y108.961
X59.488Y98.801
X62.028Y108.961
X62.028Y98.801
X64.568Y108.961
X64.568Y98.801
X67.108Y108.961
X67.108Y98.801
X69.648Y108.961
X69.648Y98.801
X80.025Y108.961
X80.025Y98.801
X81.524Y139.165
X81.524Y131.546
X81.542Y126.973
X81.542Y119.353
X82.565Y108.961
X82.565Y98.801
X84.064Y139.165
X84.064Y131.546
X84.082Y126.973
X84.082Y119.353
X85.105Y108.961
X85.105Y98.801
X86.604Y139.165
X86.604Y131.546
X86.622Y126.973
X86.622Y119.353
X87.645Y108.961
X87.645Y98.801
X89.144Y139.165
X89.144Y131.546
X89.162Y126.973
X89.162Y119.353
X90.185Y108.961
X90.185Y98.801
X92.725Y108.961
X92.725Y98.801
X95.24Y139.165
X95.24Y131.546
X95.265Y108.961
X95.265Y98.801
X97.78Y139.165
X97.78Y131.546
X98.049Y126.973
X98.049Y119.353
X100.32Y139.165
X100.32Y131.546
X100.589Y126.973
X100.589Y119.353
X102.86Y139.165
X102.86Y131.546
X105.643Y108.961
X105.643Y98.801
X108.183Y108.961
X108.183Y98.801
X108.458Y142.994
X108.458Y127.754
X110.723Y108.961
X110.723Y98.801
X110.998Y142.994
X110.998Y127.754
X113.263Y108.961
X113.263Y98.801
X113.538Y142.994
X113.538Y127.754
X115.803Y108.961
X115.803Y98.801
X116.078Y142.994
X116.078Y127.754
X118.343Y108.961
X118.343Y98.801
X118.618Y142.994
X118.618Y127.754
X120.883Y108.961
X120.883Y98.801
X121.158Y142.994
X121.158Y127.754
X123.698Y142.994
X123.698Y127.754
X126.238Y142.994
X126.238Y127.754
X128.778Y142.994
X128.778Y127.754
X131.26Y108.961
X131.26Y98.801
X131.318Y142.994
X131.318Y127.754
X133.8Y108.961
X133.8Y98.801
X133.858Y142.994
X133.858Y127.754
X136.34Y108.961
X136.34Y98.801
X136.398Y142.994
X136.398Y127.754
X138.88Y108.961
X138.88Y98.801
X141.42Y108.961
X141.42Y98.801
X141.478Y142.994
X141.478Y140.454
X141.478Y137.914
X141.478Y135.374
X141.478Y132.834
X141.478Y130.294
X141.478Y127.754
X143.96Y108.961
X143.96Y98.801
X146.5Y108.961
X146.5Y98.801
X151.638Y142.994
X151.638Y140.454
X151.638Y137.914
X151.638Y135.374
X151.638Y132.834
X151.638Y130.294
X151.638Y127.754
X156.877Y108.961
X156.877Y98.801
X159.417Y108.961
X159.417Y98.801
X161.957Y108.961
X161.957Y98.801
X164.497Y108.961
X164.497Y98.801
X167.037Y108.961
X167.037Y98.801
X169.577Y108.961
X169.577Y98.801
X171.45Y136.652
X171.45Y134.112
X171.45Y131.572
X171.45Y129.032
X171.45Y126.492
X171.45Y123.952
X171.45Y121.412
X172.117Y108.961
X172.117Y98.801
X179.07Y136.652
X179.07Y134.112
X179.07Y131.572
X179.07Y129.032
X179.07Y126.492
X179.07Y123.952
X179.07Y121.412
X196.872Y140.731
X196.872Y133.111
X197.593Y108.971
X197.593Y106.431
X197.593Y103.891
X197.593Y101.351
X197.593Y98.811
X197.593Y96.271
X197.593Y93.731
X197.593Y68.057
X197.593Y65.517
X197.593Y62.977
X197.593Y60.437
X197.593Y57.897
X197.593Y55.357
X197.593Y52.817
X197.593Y50.277
X197.593Y33.259
X197.593Y30.719
X197.593Y28.179
X197.593Y25.639
X197.593Y23.099
X197.593Y20.559
X197.593Y18.019
X197.593Y15.479
X199.412Y140.731
X199.412Y133.111
X201.952Y140.731
X201.952Y133.111
X204.492Y140.731
X204.492Y133.111
X207.753Y108.971
X207.753Y106.431
X207.753Y103.891
X207.753Y101.351
X207.753Y98.811
X207.753Y96.271
X207.753Y93.731
X207.753Y68.057
X207.753Y65.517
X207.753Y62.977
X207.753Y60.437
X207.753Y57.897
X207.753Y55.357
X207.753Y52.817
X207.753Y50.277
X207.753Y33.259
X207.753Y30.719
X207.753Y28.179
X207.753Y25.639
X207.753Y23.099
X207.753Y20.559
X207.753Y18.019
X207.753Y15.479
X213.632Y109.824
X213.632Y99.68
X213.632Y90.428
X213.632Y87.888
X213.632Y85.348
X213.632Y82.808
X214.122Y72.644
X214.122Y70.104
X214.122Y67.564
X214.122Y65.024
X214.122Y62.484
X214.122Y56.637
X214.122Y54.097
X214.122Y51.557
X214.122Y49.017
X214.122Y46.477
X214.892Y20.574
X214.892Y18.034
X214.892Y15.494
X214.892Y12.954
X214.934Y36.312
X214.934Y33.772
X214.934Y31.232
X214.934Y28.692
X221.252Y109.824
X221.252Y99.68
X221.252Y90.428
X221.252Y87.888
X221.252Y85.348
X221.252Y82.808
X221.742Y72.644
X221.742Y70.104
X221.742Y67.564
X221.742Y65.024
X221.742Y62.484
X221.742Y56.637
X221.742Y54.097
X221.742Y51.557
X221.742Y49.017
X221.742Y46.477
X222.512Y20.574
X222.512Y18.034
X222.512Y15.494
X222.512Y12.954
X222.554Y36.312
X222.554Y33.772
X222.554Y31.232
X222.554Y28.692
X250.703Y70.597
X250.703Y68.057
X250.703Y65.517
X250.703Y62.977
X250.703Y60.437
X250.703Y57.897
X250.703Y55.357
X250.703Y52.817
X251.973Y34.021
X251.973Y31.481
X251.973Y28.941
X251.973Y26.401
X251.973Y23.861
X251.973Y21.321
X251.973Y18.781
X251.973Y16.241
X252.232Y168.936
X252.232Y161.316
X252.264Y46.736
X252.491Y193.814
X252.491Y191.273
X252.491Y188.733
X252.491Y186.194
X252.491Y183.653
X252.491Y181.113
X252.491Y178.573
X252.491Y176.034
X256.54Y101.076
X256.54Y93.456
X258.186Y133.088
X258.186Y125.468
X258.323Y147.531
X258.323Y139.911
X259.08Y101.076
X259.08Y93.456
X259.885Y46.736
X260.106Y168.894
X260.106Y161.274
X260.726Y133.088
X260.726Y125.468
X260.863Y147.531
X260.863Y139.911
X260.863Y70.597
X260.863Y68.057
X260.863Y65.517
X260.863Y62.977
X260.863Y60.437
X260.863Y57.897
X260.863Y55.357
X260.863Y52.817
X261.62Y101.076
X261.62Y93.456
X262.133Y34.021
X262.133Y31.481
X262.133Y28.941
X262.133Y26.401
X262.133Y23.861
X262.133Y21.321
X262.133Y18.781
X262.133Y16.241
X262.646Y168.894
X262.646Y161.274
X262.651Y193.814
X262.651Y191.273
X262.651Y188.733
X262.651Y186.194
X262.651Y183.653
X262.651Y181.113
X262.651Y178.573
X262.651Y176.034
X263.266Y133.088
X263.266Y125.468
X265.186Y168.894
X265.186Y161.274
X265.806Y133.088
X265.806Y125.468
X267.505Y71.384
X267.505Y68.844
X267.505Y66.304
X267.505Y63.764
X267.505Y61.224
X267.505Y58.684
X267.505Y56.144
X267.505Y53.604
X267.505Y46.736
X267.726Y168.894
X267.726Y161.274
X268.346Y133.088
X268.346Y125.468
X268.478Y29.21
X268.478Y26.67
X268.478Y24.13
X268.478Y21.59
X270.51Y101.076
X270.51Y93.456
X271.541Y191.293
X271.541Y188.754
X271.541Y186.213
X271.541Y183.673
X271.541Y181.133
X271.541Y178.594
X271.541Y176.053
X272.303Y150.881
X272.303Y140.721
X273.05Y101.076
X273.05Y93.456
X274.574Y168.894
X274.574Y161.274
X274.843Y150.881
X274.843Y140.721
X275.125Y71.384
X275.125Y68.844
X275.125Y66.304
X275.125Y63.764
X275.125Y61.224
X275.125Y58.684
X275.125Y56.144
X275.125Y53.604
X275.125Y46.736
X275.59Y101.076
X275.59Y93.456
X276.098Y29.21
X276.098Y26.67
X276.098Y24.13
X276.098Y21.59
X276.352Y133.053
X276.352Y125.433
X277.114Y168.894
X277.114Y161.274
X277.383Y150.881
X277.383Y140.721
X278.892Y133.053
X278.892Y125.433
X279.654Y168.894
X279.654Y161.274
X279.923Y150.881
X279.923Y140.721
X281.178Y33.02
X281.178Y17.78
X281.432Y133.053
X281.432Y125.433
X281.701Y191.293
X281.701Y188.754
X281.701Y186.213
X281.701Y183.673
X281.701Y181.133
X281.701Y178.594
X281.701Y176.053
X282.194Y168.894
X282.194Y161.274
X282.453Y109.459
X282.453Y106.919
X282.453Y104.379
X282.453Y101.839
X282.453Y99.299
X282.453Y96.759
X282.453Y94.219
X282.453Y91.679
X282.463Y150.881
X282.463Y140.721
X283.718Y33.02
X283.718Y17.78
X283.972Y133.053
X283.972Y125.433
X285.003Y150.881
X285.003Y140.721
X286.258Y33.02
X286.258Y17.78
X286.512Y133.053
X286.512Y125.433
X287.543Y150.881
X287.543Y140.721
X288.798Y33.02
X288.798Y17.78
X290.083Y150.881
X290.083Y140.721
X291.338Y33.02
X291.338Y17.78
X292.613Y109.459
X292.613Y106.919
X292.613Y104.379
X292.613Y101.839
X292.613Y99.299
X292.613Y96.759
X292.613Y94.219
X292.613Y91.679
T4
X20.417Y138.719
X20.417Y136.179
X21.773Y103.886
X21.773Y85.947
X21.773Y63.947
X21.773Y41.947
X21.773Y19.947
X22.652Y179.333
X22.652Y176.793
X22.906Y191.769
X22.906Y189.229
X24.313Y103.886
X24.313Y85.947
X24.313Y63.947
X24.313Y41.947
X24.313Y19.947
X27.519Y138.719
X27.519Y136.179
X29.307Y179.333
X29.307Y176.793
X29.561Y191.769
X29.561Y189.229
X34.62Y138.719
X34.62Y136.179
X35.962Y179.333
X35.962Y176.793
X36.216Y191.769
X36.216Y189.229
X41.722Y138.719
X41.722Y136.179
X42.616Y179.333
X42.616Y176.793
X42.87Y191.769
X42.87Y189.229
X47.39Y103.886
X47.39Y85.947
X47.39Y63.947
X47.39Y41.947
X47.39Y19.947
X48.824Y138.719
X48.824Y136.179
X49.271Y179.333
X49.271Y176.793
X49.525Y191.769
X49.525Y189.229
X49.93Y103.886
X49.93Y85.947
X49.93Y63.947
X49.93Y41.947
X49.93Y19.947
X55.926Y179.333
X55.926Y176.793
X55.926Y138.719
X55.926Y136.179
X56.18Y191.769
X56.18Y189.229
X72.756Y103.886
X72.756Y90.932
X72.756Y75.732
X72.756Y60.532
X72.756Y45.332
X72.756Y30.132
X72.756Y14.932
X75.296Y103.886
X75.296Y90.932
X75.296Y75.732
X75.296Y60.532
X75.296Y45.332
X75.296Y30.132
X75.296Y14.932
X98.624Y103.886
X98.624Y85.947
X98.624Y63.947
X98.624Y41.947
X98.624Y19.947
X101.164Y103.886
X101.164Y85.947
X101.164Y63.947
X101.164Y41.947
X101.164Y19.947
X111.771Y120.238
X114.311Y120.238
X118.121Y120.238
X120.661Y120.238
X124.242Y103.886
X124.242Y85.947
X124.242Y63.947
X124.242Y41.947
X124.242Y19.947
X126.782Y103.886
X126.782Y85.947
X126.782Y63.947
X126.782Y41.947
X126.782Y19.947
X129.045Y120.238
X131.585Y120.238
X134.885Y120.238
X137.425Y120.238
X140.725Y120.238
X143.265Y120.238
X146.566Y120.238
X149.106Y120.238
X149.859Y103.886
X149.859Y85.947
X149.859Y63.947
X149.859Y41.947
X149.859Y19.947
X152.399Y103.886
X152.399Y85.947
X152.399Y63.947
X152.399Y41.947
X152.399Y19.947
X175.476Y103.886
X175.476Y85.947
X175.476Y63.947
X175.476Y41.947
X175.476Y19.947
X178.016Y103.886
X178.016Y85.947
X178.016Y63.947
X178.016Y41.947
X178.016Y19.947
X223.69Y130.79
X223.69Y128.25
X229.05Y71.139
X229.05Y68.599
X229.05Y63.81
X229.05Y61.27
X229.05Y56.217
X229.05Y53.677
X229.05Y48.883
X229.05Y46.343
X229.116Y109.801
X229.116Y107.261
X229.116Y102.383
X229.116Y99.843
X229.116Y94.964
X229.116Y92.424
X229.116Y87.545
X229.116Y85.005
X229.37Y37.846
X229.37Y26.924
X229.37Y15.748
X231.91Y37.846
X231.91Y26.924
X231.91Y15.748
X248.407Y81.788
X250.947Y81.788
X253.953Y81.788
X256.493Y81.788
X259.498Y81.788
X262.038Y81.788
X262.04Y120.329
X264.58Y120.329
X265.044Y81.788
X267.584Y81.788
X272.923Y81.788
X275.463Y81.788
X278.469Y81.788
X280.32Y120.329
X281.009Y81.788
X282.86Y120.329
X284.014Y81.788
X286.554Y81.788
X289.56Y81.788
X289.77Y70.668
X289.783Y63.368
X289.796Y56.068
X289.809Y48.768
X291.057Y195.288
X291.057Y192.748
X291.057Y187.605
X291.057Y185.065
X291.057Y179.921
X291.057Y177.381
X291.057Y172.238
X291.057Y169.698
X291.057Y164.554
X291.057Y162.014
X292.1Y81.788
X292.31Y70.668
X292.323Y63.368
X292.336Y56.068
X292.349Y48.768
T5
X4.296Y93.472
X4.296Y90.932
X4.296Y88.392
X4.296Y83.472
X4.296Y80.932
X4.296Y78.392
X4.296Y71.472
X4.296Y68.932
X4.296Y66.392
X4.296Y61.472
X4.296Y58.932
X4.296Y56.392
X4.296Y49.472
X4.296Y46.932
X4.296Y44.392
X4.296Y39.472
X4.296Y36.932
X4.296Y34.392
X4.296Y27.472
X4.296Y24.932
X4.296Y22.392
X4.296Y17.472
X4.296Y14.932
X4.296Y12.392
X14.495Y149.396
X17.035Y149.396
X18.222Y88.472
X18.222Y85.932
X18.222Y83.392
X18.247Y66.472
X18.247Y63.932
X18.247Y61.392
X18.247Y22.472
X18.247Y19.932
X18.247Y17.392
X18.476Y44.472
X18.476Y41.932
X18.476Y39.392
X19.575Y149.396
X29.913Y93.472
X29.913Y90.932
X29.913Y88.392
X29.913Y83.472
X29.913Y80.932
X29.913Y78.392
X29.913Y71.472
X29.913Y68.932
X29.913Y66.392
X29.913Y61.472
X29.913Y58.932
X29.913Y56.392
X29.913Y49.472
X29.913Y46.932
X29.913Y44.392
X29.913Y39.472
X29.913Y36.932
X29.913Y34.392
X29.913Y27.472
X29.913Y24.932
X29.913Y22.392
X29.913Y17.472
X29.913Y14.932
X29.913Y12.392
X32.05Y196.6
X33.32Y171.66
X34.59Y196.6
X35.86Y171.66
X37.13Y196.6
X38.4Y171.66
X39.67Y196.6
X40.94Y171.66
X42.21Y196.6
X43.48Y171.66
X43.734Y126.008
X43.734Y122.198
X43.839Y88.472
X43.839Y85.932
X43.839Y83.392
X43.864Y66.472
X43.864Y63.932
X43.864Y61.392
X43.864Y22.472
X43.864Y19.932
X43.864Y17.392
X44.093Y44.472
X44.093Y41.932
X44.093Y39.392
X44.367Y149.659
X44.75Y196.6
X46.02Y171.66
X46.274Y126.008
X46.274Y122.198
X46.907Y149.659
X48.814Y126.008
X48.814Y122.198
X49.447Y149.659
X51.354Y126.008
X51.354Y122.198
X53.894Y126.008
X53.894Y122.198
X55.262Y93.472
X55.262Y90.932
X55.262Y88.392
X55.262Y78.272
X55.262Y75.732
X55.262Y73.192
X55.262Y63.072
X55.262Y60.532
X55.262Y57.992
X55.262Y47.872
X55.262Y45.332
X55.262Y42.792
X55.262Y32.672
X55.262Y30.132
X55.262Y27.592
X55.262Y17.472
X55.262Y14.932
X55.262Y12.392
X56.434Y126.008
X56.434Y122.198
X69.188Y93.472
X69.188Y90.932
X69.188Y88.392
X69.188Y78.272
X69.188Y75.732
X69.188Y73.192
X69.188Y63.072
X69.188Y60.532
X69.188Y57.992
X69.188Y47.872
X69.188Y45.332
X69.188Y42.792
X69.188Y32.672
X69.188Y30.132
X69.188Y27.592
X69.188Y17.472
X69.188Y14.932
X69.188Y12.392
X81.147Y93.472
X81.147Y90.932
X81.147Y88.392
X81.147Y83.472
X81.147Y80.932
X81.147Y78.392
X81.147Y71.472
X81.147Y68.932
X81.147Y66.392
X81.147Y61.472
X81.147Y58.932
X81.147Y56.392
X81.147Y49.472
X81.147Y46.932
X81.147Y44.392
X81.147Y39.472
X81.147Y36.932
X81.147Y34.392
X81.147Y27.472
X81.147Y24.932
X81.147Y22.392
X81.147Y17.472
X81.147Y14.932
X81.147Y12.392
X95.073Y88.472
X95.073Y85.932
X95.073Y83.392
X95.098Y66.472
X95.098Y63.932
X95.098Y61.392
X95.098Y22.472
X95.098Y19.932
X95.098Y17.392
X95.327Y44.472
X95.327Y41.932
X95.327Y39.392
X106.765Y93.472
X106.765Y90.932
X106.765Y88.392
X106.765Y83.472
X106.765Y80.932
X106.765Y78.392
X106.765Y71.472
X106.765Y68.932
X106.765Y66.392
X106.765Y61.472
X106.765Y58.932
X106.765Y56.392
X106.765Y49.472
X106.765Y46.932
X106.765Y44.392
X106.765Y39.472
X106.765Y36.932
X106.765Y34.392
X106.765Y27.472
X106.765Y24.932
X106.765Y22.392
X106.765Y17.472
X106.765Y14.932
X106.765Y12.392
X120.691Y88.472
X120.691Y85.932
X120.691Y83.392
X120.716Y66.472
X120.716Y63.932
X120.716Y61.392
X120.716Y22.472
X120.716Y19.932
X120.716Y17.392
X120.945Y44.472
X120.945Y41.932
X120.945Y39.392
X132.382Y93.472
X132.382Y90.932
X132.382Y88.392
X132.382Y83.472
X132.382Y80.932
X132.382Y78.392
X132.382Y71.472
X132.382Y68.932
X132.382Y66.392
X132.382Y61.472
X132.382Y58.932
X132.382Y56.392
X132.382Y49.472
X132.382Y46.932
X132.382Y44.392
X132.382Y39.472
X132.382Y36.932
X132.382Y34.392
X132.382Y27.472
X132.382Y24.932
X132.382Y22.392
X132.382Y17.472
X132.382Y14.932
X132.382Y12.392
X146.308Y88.472
X146.308Y85.932
X146.308Y83.392
X146.333Y66.472
X146.333Y63.932
X146.333Y61.392
X146.333Y22.472
X146.333Y19.932
X146.333Y17.392
X146.562Y44.472
X146.562Y41.932
X146.562Y39.392
X157.999Y93.472
X157.999Y90.932
X157.999Y88.392
X157.999Y83.472
X157.999Y80.932
X157.999Y78.392
X157.999Y71.472
X157.999Y68.932
X157.999Y66.392
X157.999Y61.472
X157.999Y58.932
X157.999Y56.392
X157.999Y49.472
X157.999Y46.932
X157.999Y44.392
X157.999Y39.472
X157.999Y36.932
X157.999Y34.392
X157.999Y27.472
X157.999Y24.932
X157.999Y22.392
X157.999Y17.472
X157.999Y14.932
X157.999Y12.392
X171.925Y88.472
X171.925Y85.932
X171.925Y83.392
X171.95Y66.472
X171.95Y63.932
X171.95Y61.392
X171.95Y22.472
X171.95Y19.932
X171.95Y17.392
X172.179Y44.472
X172.179Y41.932
X172.179Y39.392
X205.72Y85.065
X208.26Y85.065
X213.71Y141.57
X216.14Y123.114
X216.14Y118.114
X216.21Y141.57
X218.18Y123.114
X218.18Y118.114
X218.71Y141.57
X220.22Y123.114
X220.22Y118.114
T6
X5.77Y162.242
X5.77Y155.742
X10.27Y162.242
X10.27Y155.742
X14.77Y162.242
X14.77Y155.742
X19.27Y162.242
X19.27Y155.742
X23.77Y162.242
X23.77Y155.742
X28.27Y162.242
X28.27Y155.742
X35.642Y162.242
X35.642Y155.742
X40.142Y162.242
X40.142Y155.742
X44.642Y162.242
X44.642Y155.742
X49.142Y162.242
X49.142Y155.742
X53.642Y162.242
X53.642Y155.742
X58.142Y162.242
X58.142Y155.742
X204.268Y122.864
X204.268Y118.364
X210.768Y122.864
X210.768Y118.364
T7
X5.0Y205.0
X5.0Y5.0
X148.5Y205.0
X148.5Y5.0
X292.0Y205.0
X292.0Y5.0
T8
X10.186Y189.11
X10.186Y174.11
X10.186Y137.576
X10.186Y122.576
X69.596Y137.294
X69.596Y122.294
X161.31Y136.77
X161.31Y121.77
X188.246Y137.04
X188.246Y122.04
X189.25Y103.258
X189.25Y88.258
X189.25Y67.19
X189.25Y52.19
X189.25Y31.884
X189.25Y16.884
X227.2Y137.04
X227.2Y122.04
X241.818Y186.343
X241.818Y171.343
X241.818Y143.094
X241.818Y128.094
X241.818Y105.424
X241.818Y90.424
X241.818Y64.904
X241.818Y49.904
X241.818Y30.732
X241.818Y15.732
T0
M30
