G04 #@! TF.GenerationSoftware,KiCad,Pcbnew,(6.0.6)*
G04 #@! TF.CreationDate,2024-09-14T02:37:40+08:00*
G04 #@! TF.ProjectId,PCB_4,5043425f-342e-46b6-9963-61645f706362,rev?*
G04 #@! TF.SameCoordinates,Original*
G04 #@! TF.FileFunction,Soldermask,Bot*
G04 #@! TF.FilePolarity,Negative*
%FSLAX46Y46*%
G04 Gerber Fmt 4.6, Leading zero omitted, Abs format (unit mm)*
G04 Created by KiCad (PCBNEW (6.0.6)) date 2024-09-14 02:37:40*
%MOMM*%
%LPD*%
G01*
G04 APERTURE LIST*
G04 Aperture macros list*
%AMRoundRect*
0 Rectangle with rounded corners*
0 $1 Rounding radius*
0 $2 $3 $4 $5 $6 $7 $8 $9 X,Y pos of 4 corners*
0 Add a 4 corners polygon primitive as box body*
4,1,4,$2,$3,$4,$5,$6,$7,$8,$9,$2,$3,0*
0 Add four circle primitives for the rounded corners*
1,1,$1+$1,$2,$3*
1,1,$1+$1,$4,$5*
1,1,$1+$1,$6,$7*
1,1,$1+$1,$8,$9*
0 Add four rect primitives between the rounded corners*
20,1,$1+$1,$2,$3,$4,$5,0*
20,1,$1+$1,$4,$5,$6,$7,0*
20,1,$1+$1,$6,$7,$8,$9,0*
20,1,$1+$1,$8,$9,$2,$3,0*%
G04 Aperture macros list end*
%ADD10R,1.800000X1.800000*%
%ADD11C,1.800000*%
%ADD12R,1.700000X1.700000*%
%ADD13O,1.700000X1.700000*%
%ADD14R,1.600000X2.400000*%
%ADD15O,1.600000X2.400000*%
%ADD16R,2.400000X1.600000*%
%ADD17O,2.400000X1.600000*%
%ADD18R,1.600000X1.600000*%
%ADD19O,1.600000X1.600000*%
%ADD20C,8.000000*%
%ADD21C,2.000000*%
%ADD22C,1.700000*%
%ADD23R,1.524000X2.524000*%
%ADD24O,1.524000X2.524000*%
%ADD25RoundRect,0.250000X0.350000X0.450000X-0.350000X0.450000X-0.350000X-0.450000X0.350000X-0.450000X0*%
%ADD26RoundRect,0.250000X-0.450000X0.350000X-0.450000X-0.350000X0.450000X-0.350000X0.450000X0.350000X0*%
%ADD27RoundRect,0.250000X-0.350000X-0.450000X0.350000X-0.450000X0.350000X0.450000X-0.350000X0.450000X0*%
%ADD28RoundRect,0.250000X0.450000X-0.350000X0.450000X0.350000X-0.450000X0.350000X-0.450000X-0.350000X0*%
G04 APERTURE END LIST*
D10*
X21773000Y41947000D03*
D11*
X24313000Y41947000D03*
D10*
X278468666Y81788000D03*
D11*
X281008666Y81788000D03*
D10*
X229116000Y87545332D03*
D11*
X229116000Y85005332D03*
D12*
X171949996Y66472000D03*
D13*
X171949996Y63932000D03*
X171949996Y61392000D03*
D12*
X29913166Y93472000D03*
D13*
X29913166Y90932000D03*
X29913166Y88392000D03*
D10*
X21773000Y85947000D03*
D11*
X24313000Y85947000D03*
D12*
X4296000Y83472000D03*
D13*
X4296000Y80932000D03*
X4296000Y78392000D03*
D10*
X229050000Y46343000D03*
D11*
X229050000Y48883000D03*
D10*
X22906000Y189229000D03*
D11*
X22906000Y191769000D03*
D10*
X175475996Y63947000D03*
D11*
X178015996Y63947000D03*
D10*
X124241664Y63947000D03*
D11*
X126781664Y63947000D03*
D10*
X36215600Y189229000D03*
D11*
X36215600Y191769000D03*
D10*
X35961600Y176793000D03*
D11*
X35961600Y179333000D03*
D10*
X29306800Y176793000D03*
D11*
X29306800Y179333000D03*
D14*
X272303000Y140721000D03*
D15*
X274843000Y140721000D03*
X277383000Y140721000D03*
X279923000Y140721000D03*
X282463000Y140721000D03*
X285003000Y140721000D03*
X287543000Y140721000D03*
X290083000Y140721000D03*
X290083000Y150881000D03*
X287543000Y150881000D03*
X285003000Y150881000D03*
X282463000Y150881000D03*
X279923000Y150881000D03*
X277383000Y150881000D03*
X274843000Y150881000D03*
X272303000Y150881000D03*
D10*
X291057000Y195288500D03*
D11*
X291057000Y192748500D03*
D14*
X18414000Y108961000D03*
D15*
X15874000Y108961000D03*
X13334000Y108961000D03*
X10794000Y108961000D03*
X8254000Y108961000D03*
X5714000Y108961000D03*
X3174000Y108961000D03*
X3174000Y98801000D03*
X5714000Y98801000D03*
X8254000Y98801000D03*
X10794000Y98801000D03*
X13334000Y98801000D03*
X15874000Y98801000D03*
X18414000Y98801000D03*
D16*
X282453000Y109459000D03*
D17*
X282453000Y106919000D03*
X282453000Y104379000D03*
X282453000Y101839000D03*
X282453000Y99299000D03*
X282453000Y96759000D03*
X282453000Y94219000D03*
X282453000Y91679000D03*
X292613000Y91679000D03*
X292613000Y94219000D03*
X292613000Y96759000D03*
X292613000Y99299000D03*
X292613000Y101839000D03*
X292613000Y104379000D03*
X292613000Y106919000D03*
X292613000Y109459000D03*
D14*
X69648332Y108961000D03*
D15*
X67108332Y108961000D03*
X64568332Y108961000D03*
X62028332Y108961000D03*
X59488332Y108961000D03*
X56948332Y108961000D03*
X54408332Y108961000D03*
X54408332Y98801000D03*
X56948332Y98801000D03*
X59488332Y98801000D03*
X62028332Y98801000D03*
X64568332Y98801000D03*
X67108332Y98801000D03*
X69648332Y98801000D03*
D12*
X4296000Y27472000D03*
D13*
X4296000Y24932000D03*
X4296000Y22392000D03*
D10*
X229116000Y109801332D03*
D11*
X229116000Y107261332D03*
D12*
X69187830Y47872000D03*
D13*
X69187830Y45332000D03*
X69187830Y42792000D03*
D10*
X98624498Y19947000D03*
D11*
X101164498Y19947000D03*
D14*
X44031166Y108961000D03*
D15*
X41491166Y108961000D03*
X38951166Y108961000D03*
X36411166Y108961000D03*
X33871166Y108961000D03*
X31331166Y108961000D03*
X28791166Y108961000D03*
X28791166Y98801000D03*
X31331166Y98801000D03*
X33871166Y98801000D03*
X36411166Y98801000D03*
X38951166Y98801000D03*
X41491166Y98801000D03*
X44031166Y98801000D03*
D12*
X43864166Y22472000D03*
D13*
X43864166Y19932000D03*
X43864166Y17392000D03*
D18*
X34336000Y129564000D03*
D19*
X31796000Y129564000D03*
X29256000Y129564000D03*
X26716000Y129564000D03*
X24176000Y129564000D03*
X21636000Y129564000D03*
X21636000Y121944000D03*
X24176000Y121944000D03*
X26716000Y121944000D03*
X29256000Y121944000D03*
X31796000Y121944000D03*
X34336000Y121944000D03*
D16*
X252491000Y193813500D03*
D17*
X252491000Y191273500D03*
X252491000Y188733500D03*
X252491000Y186193500D03*
X252491000Y183653500D03*
X252491000Y181113500D03*
X252491000Y178573500D03*
X252491000Y176033500D03*
X262651000Y176033500D03*
X262651000Y178573500D03*
X262651000Y181113500D03*
X262651000Y183653500D03*
X262651000Y186193500D03*
X262651000Y188733500D03*
X262651000Y191273500D03*
X262651000Y193813500D03*
D12*
X146332830Y22472000D03*
D13*
X146332830Y19932000D03*
X146332830Y17392000D03*
D12*
X29913166Y17472000D03*
D13*
X29913166Y14932000D03*
X29913166Y12392000D03*
D12*
X18247000Y66472000D03*
D13*
X18247000Y63932000D03*
X18247000Y61392000D03*
D12*
X55261830Y32672000D03*
D13*
X55261830Y30132000D03*
X55261830Y27592000D03*
D18*
X102860000Y139165500D03*
D19*
X100320000Y139165500D03*
X97780000Y139165500D03*
X95240000Y139165500D03*
X95240000Y131545500D03*
X97780000Y131545500D03*
X100320000Y131545500D03*
X102860000Y131545500D03*
D20*
X189250000Y67190000D03*
X189250000Y52190000D03*
D12*
X120944664Y44472000D03*
D13*
X120944664Y41932000D03*
X120944664Y39392000D03*
D10*
X253952665Y81788000D03*
D11*
X256492665Y81788000D03*
D20*
X10186000Y137576000D03*
X10186000Y122576000D03*
D10*
X175475996Y19947000D03*
D11*
X178015996Y19947000D03*
D12*
X132381830Y17472000D03*
D13*
X132381830Y14932000D03*
X132381830Y12392000D03*
D10*
X229050000Y68599000D03*
D11*
X229050000Y71139000D03*
D10*
X49271200Y176793000D03*
D11*
X49271200Y179333000D03*
D12*
X44093166Y44472000D03*
D13*
X44093166Y41932000D03*
X44093166Y39392000D03*
D18*
X214892000Y20574000D03*
D19*
X214892000Y18034000D03*
X214892000Y15494000D03*
X214892000Y12954000D03*
X222512000Y12954000D03*
X222512000Y15494000D03*
X222512000Y18034000D03*
X222512000Y20574000D03*
D12*
X81147498Y61472000D03*
D13*
X81147498Y58932000D03*
X81147498Y56392000D03*
D10*
X124241664Y41947000D03*
D11*
X126781664Y41947000D03*
D10*
X149858830Y41947000D03*
D11*
X152398830Y41947000D03*
D12*
X132381830Y27472000D03*
D13*
X132381830Y24932000D03*
X132381830Y22392000D03*
D20*
X241818000Y105424000D03*
X241818000Y90424000D03*
D12*
X29913166Y39472000D03*
D13*
X29913166Y36932000D03*
X29913166Y34392000D03*
D10*
X47390166Y19947000D03*
D11*
X49930166Y19947000D03*
D10*
X248407000Y81788000D03*
D11*
X250947000Y81788000D03*
D12*
X132381830Y93472000D03*
D13*
X132381830Y90932000D03*
X132381830Y88392000D03*
D21*
X14770000Y155742000D03*
X14770000Y162242000D03*
X19270000Y162242000D03*
X19270000Y155742000D03*
D12*
X157998996Y17472000D03*
D13*
X157998996Y14932000D03*
X157998996Y12392000D03*
D10*
X280320000Y120328750D03*
D11*
X282860000Y120328750D03*
D20*
X69596000Y137294000D03*
X69596000Y122294000D03*
X227200000Y137040000D03*
X227200000Y122040000D03*
D18*
X89144000Y139165500D03*
D19*
X86604000Y139165500D03*
X84064000Y139165500D03*
X81524000Y139165500D03*
X81524000Y131545500D03*
X84064000Y131545500D03*
X86604000Y131545500D03*
X89144000Y131545500D03*
D18*
X282194000Y168894000D03*
D19*
X279654000Y168894000D03*
X277114000Y168894000D03*
X274574000Y168894000D03*
X274574000Y161274000D03*
X277114000Y161274000D03*
X279654000Y161274000D03*
X282194000Y161274000D03*
D12*
X55261830Y63072000D03*
D13*
X55261830Y60532000D03*
X55261830Y57992000D03*
D12*
X14495000Y149396000D03*
D13*
X17035000Y149396000D03*
X19575000Y149396000D03*
D10*
X47390166Y103886000D03*
D11*
X49930166Y103886000D03*
D20*
X189250000Y103258000D03*
X189250000Y88258000D03*
D10*
X47390166Y41947000D03*
D11*
X49930166Y41947000D03*
D12*
X56434000Y126008000D03*
D13*
X53894000Y126008000D03*
X51354000Y126008000D03*
X48814000Y126008000D03*
X46274000Y126008000D03*
X43734000Y126008000D03*
D12*
X106764664Y27472000D03*
D13*
X106764664Y24932000D03*
X106764664Y22392000D03*
D12*
X157998996Y61472000D03*
D13*
X157998996Y58932000D03*
X157998996Y56392000D03*
D10*
X229116000Y102382666D03*
D11*
X229116000Y99842666D03*
D18*
X89162000Y126973500D03*
D19*
X86622000Y126973500D03*
X84082000Y126973500D03*
X81542000Y126973500D03*
X81542000Y119353500D03*
X84082000Y119353500D03*
X86622000Y119353500D03*
X89162000Y119353500D03*
D18*
X267504500Y46736000D03*
D19*
X275124500Y46736000D03*
D10*
X292336000Y56068000D03*
D11*
X289796000Y56068000D03*
D12*
X146332830Y66472000D03*
D13*
X146332830Y63932000D03*
X146332830Y61392000D03*
D18*
X214934500Y36312000D03*
D19*
X214934500Y33772000D03*
X214934500Y31232000D03*
X214934500Y28692000D03*
X222554500Y28692000D03*
X222554500Y31232000D03*
X222554500Y33772000D03*
X222554500Y36312000D03*
D10*
X292310000Y70668000D03*
D11*
X289770000Y70668000D03*
D10*
X229116000Y94964000D03*
D11*
X229116000Y92424000D03*
D18*
X267726000Y168894000D03*
D19*
X265186000Y168894000D03*
X262646000Y168894000D03*
X260106000Y168894000D03*
X260106000Y161274000D03*
X262646000Y161274000D03*
X265186000Y161274000D03*
X267726000Y161274000D03*
D12*
X157998996Y39472000D03*
D13*
X157998996Y36932000D03*
X157998996Y34392000D03*
D12*
X55261830Y93472000D03*
D13*
X55261830Y90932000D03*
X55261830Y88392000D03*
D12*
X146307830Y88472000D03*
D13*
X146307830Y85932000D03*
X146307830Y83392000D03*
D10*
X72755830Y75732000D03*
D11*
X75295830Y75732000D03*
D12*
X132381830Y83472000D03*
D13*
X132381830Y80932000D03*
X132381830Y78392000D03*
D21*
X35642000Y162242000D03*
X35642000Y155742000D03*
X40142000Y162242000D03*
X40142000Y155742000D03*
D16*
X250703000Y70597000D03*
D17*
X250703000Y68057000D03*
X250703000Y65517000D03*
X250703000Y62977000D03*
X250703000Y60437000D03*
X250703000Y57897000D03*
X250703000Y55357000D03*
X250703000Y52817000D03*
X260863000Y52817000D03*
X260863000Y55357000D03*
X260863000Y57897000D03*
X260863000Y60437000D03*
X260863000Y62977000D03*
X260863000Y65517000D03*
X260863000Y68057000D03*
X260863000Y70597000D03*
D10*
X265043997Y81788000D03*
D11*
X267583997Y81788000D03*
D10*
X49525200Y189229000D03*
D11*
X49525200Y191769000D03*
D10*
X291057000Y164554500D03*
D11*
X291057000Y162014500D03*
D10*
X42870400Y189229000D03*
D11*
X42870400Y191769000D03*
D20*
X241818000Y64904000D03*
X241818000Y49904000D03*
D10*
X134885000Y120238000D03*
D11*
X137425000Y120238000D03*
D12*
X29913166Y83472000D03*
D13*
X29913166Y80932000D03*
X29913166Y78392000D03*
D10*
X27518640Y138719000D03*
D11*
X27518640Y136179000D03*
D20*
X241818000Y143093500D03*
X241818000Y128093500D03*
D10*
X259498329Y81788000D03*
D11*
X262038329Y81788000D03*
D12*
X95073498Y88472000D03*
D13*
X95073498Y85932000D03*
X95073498Y83392000D03*
D12*
X208260000Y85065000D03*
D13*
X205720000Y85065000D03*
D12*
X18476000Y44472000D03*
D13*
X18476000Y41932000D03*
X18476000Y39392000D03*
D10*
X111771000Y120238000D03*
D11*
X114311000Y120238000D03*
D10*
X118121000Y120238000D03*
D11*
X120661000Y120238000D03*
D18*
X252264500Y46736000D03*
D19*
X259884500Y46736000D03*
D10*
X175475996Y85947000D03*
D11*
X178015996Y85947000D03*
D16*
X197593000Y33259000D03*
D17*
X197593000Y30719000D03*
X197593000Y28179000D03*
X197593000Y25639000D03*
X197593000Y23099000D03*
X197593000Y20559000D03*
X197593000Y18019000D03*
X197593000Y15479000D03*
X207753000Y15479000D03*
X207753000Y18019000D03*
X207753000Y20559000D03*
X207753000Y23099000D03*
X207753000Y25639000D03*
X207753000Y28179000D03*
X207753000Y30719000D03*
X207753000Y33259000D03*
D12*
X81147498Y27472000D03*
D13*
X81147498Y24932000D03*
X81147498Y22392000D03*
D12*
X81147498Y49472000D03*
D13*
X81147498Y46932000D03*
X81147498Y44392000D03*
D12*
X29913166Y71472000D03*
D13*
X29913166Y68932000D03*
X29913166Y66392000D03*
D10*
X72755830Y60532000D03*
D11*
X75295830Y60532000D03*
D12*
X81147498Y17472000D03*
D13*
X81147498Y14932000D03*
X81147498Y12392000D03*
D10*
X34620480Y138719000D03*
D11*
X34620480Y136179000D03*
D12*
X132381830Y71472000D03*
D13*
X132381830Y68932000D03*
X132381830Y66392000D03*
D10*
X47390166Y85947000D03*
D11*
X49930166Y85947000D03*
D12*
X120715664Y22472000D03*
D13*
X120715664Y19932000D03*
X120715664Y17392000D03*
D18*
X268346000Y133088000D03*
D19*
X265806000Y133088000D03*
X263266000Y133088000D03*
X260726000Y133088000D03*
X258186000Y133088000D03*
X258186000Y125468000D03*
X260726000Y125468000D03*
X263266000Y125468000D03*
X265806000Y125468000D03*
X268346000Y125468000D03*
D10*
X213710000Y141570000D03*
D11*
X216210000Y141570000D03*
X218710000Y141570000D03*
D12*
X120715664Y66472000D03*
D13*
X120715664Y63932000D03*
X120715664Y61392000D03*
D20*
X189250000Y31884000D03*
X189250000Y16884000D03*
D21*
X53642000Y155742000D03*
X53642000Y162242000D03*
X58142000Y155742000D03*
X58142000Y162242000D03*
D18*
X171450000Y136652000D03*
D19*
X171450000Y134112000D03*
X171450000Y131572000D03*
X171450000Y129032000D03*
X171450000Y126492000D03*
X171450000Y123952000D03*
X171450000Y121412000D03*
X179070000Y121412000D03*
X179070000Y123952000D03*
X179070000Y126492000D03*
X179070000Y129032000D03*
X179070000Y131572000D03*
X179070000Y134112000D03*
X179070000Y136652000D03*
D12*
X106764664Y49472000D03*
D13*
X106764664Y46932000D03*
X106764664Y44392000D03*
D16*
X271541000Y191293500D03*
D17*
X271541000Y188753500D03*
X271541000Y186213500D03*
X271541000Y183673500D03*
X271541000Y181133500D03*
X271541000Y178593500D03*
X271541000Y176053500D03*
X281701000Y176053500D03*
X281701000Y178593500D03*
X281701000Y181133500D03*
X281701000Y183673500D03*
X281701000Y186213500D03*
X281701000Y188753500D03*
X281701000Y191293500D03*
D10*
X21773000Y63947000D03*
D11*
X24313000Y63947000D03*
D10*
X42616400Y176793000D03*
D11*
X42616400Y179333000D03*
D10*
X284014332Y81788000D03*
D11*
X286554332Y81788000D03*
D12*
X146561830Y44472000D03*
D13*
X146561830Y41932000D03*
X146561830Y39392000D03*
D12*
X95098498Y22472000D03*
D13*
X95098498Y19932000D03*
X95098498Y17392000D03*
D10*
X223690000Y128250000D03*
D11*
X223690000Y130790000D03*
D12*
X69187830Y63072000D03*
D13*
X69187830Y60532000D03*
X69187830Y57992000D03*
D10*
X291057000Y187605000D03*
D11*
X291057000Y185065000D03*
D12*
X157998996Y27472000D03*
D13*
X157998996Y24932000D03*
X157998996Y22392000D03*
D12*
X95098498Y66472000D03*
D13*
X95098498Y63932000D03*
X95098498Y61392000D03*
D16*
X141478000Y142994000D03*
D17*
X141478000Y140454000D03*
X141478000Y137914000D03*
X141478000Y135374000D03*
X141478000Y132834000D03*
X141478000Y130294000D03*
X141478000Y127754000D03*
X151638000Y127754000D03*
X151638000Y130294000D03*
X151638000Y132834000D03*
X151638000Y135374000D03*
X151638000Y137914000D03*
X151638000Y140454000D03*
X151638000Y142994000D03*
D10*
X72755830Y30132000D03*
D11*
X75295830Y30132000D03*
D10*
X124241664Y103886000D03*
D11*
X126781664Y103886000D03*
D10*
X229050000Y53677000D03*
D11*
X229050000Y56217000D03*
D22*
X216140000Y123114000D03*
X220220000Y123114000D03*
X218180000Y123114000D03*
X216140000Y118114000D03*
X220220000Y118114000D03*
X218180000Y118114000D03*
D12*
X157998996Y93472000D03*
D13*
X157998996Y90932000D03*
X157998996Y88392000D03*
D18*
X100589000Y126973500D03*
D19*
X98049000Y126973500D03*
X98049000Y119353500D03*
X100589000Y119353500D03*
D10*
X20416800Y138719000D03*
D11*
X20416800Y136179000D03*
D12*
X55261830Y47872000D03*
D13*
X55261830Y45332000D03*
X55261830Y42792000D03*
D10*
X72755830Y14932000D03*
D11*
X75295830Y14932000D03*
D10*
X149858830Y85947000D03*
D11*
X152398830Y85947000D03*
D10*
X229370000Y26924000D03*
D11*
X231910000Y26924000D03*
D20*
X10186000Y189110000D03*
X10186000Y174110000D03*
D10*
X124241664Y85947000D03*
D11*
X126781664Y85947000D03*
D20*
X188246000Y137040000D03*
X188246000Y122040000D03*
D12*
X29913166Y49472000D03*
D13*
X29913166Y46932000D03*
X29913166Y44392000D03*
D10*
X98624498Y63947000D03*
D11*
X101164498Y63947000D03*
D12*
X4296000Y17472000D03*
D13*
X4296000Y14932000D03*
X4296000Y12392000D03*
D12*
X69187830Y78272000D03*
D13*
X69187830Y75732000D03*
X69187830Y73192000D03*
D18*
X214122000Y72644000D03*
D19*
X214122000Y70104000D03*
X214122000Y67564000D03*
X214122000Y65024000D03*
X214122000Y62484000D03*
X221742000Y62484000D03*
X221742000Y65024000D03*
X221742000Y67564000D03*
X221742000Y70104000D03*
X221742000Y72644000D03*
D12*
X81147498Y93472000D03*
D13*
X81147498Y90932000D03*
X81147498Y88392000D03*
D12*
X4296000Y49472000D03*
D13*
X4296000Y46932000D03*
X4296000Y44392000D03*
D20*
X241818000Y186342500D03*
X241818000Y171342500D03*
D10*
X47390166Y63947000D03*
D11*
X49930166Y63947000D03*
D12*
X106764664Y93472000D03*
D13*
X106764664Y90932000D03*
X106764664Y88392000D03*
D10*
X262040000Y120328750D03*
D11*
X264580000Y120328750D03*
D12*
X33320000Y171660000D03*
D13*
X35860000Y171660000D03*
X38400000Y171660000D03*
X40940000Y171660000D03*
X43480000Y171660000D03*
X46020000Y171660000D03*
D16*
X251973000Y34021000D03*
D17*
X251973000Y31481000D03*
X251973000Y28941000D03*
X251973000Y26401000D03*
X251973000Y23861000D03*
X251973000Y21321000D03*
X251973000Y18781000D03*
X251973000Y16241000D03*
X262133000Y16241000D03*
X262133000Y18781000D03*
X262133000Y21321000D03*
X262133000Y23861000D03*
X262133000Y26401000D03*
X262133000Y28941000D03*
X262133000Y31481000D03*
X262133000Y34021000D03*
D21*
X5770000Y155742000D03*
X5770000Y162242000D03*
X10270000Y162242000D03*
X10270000Y155742000D03*
D18*
X252232000Y168936500D03*
D19*
X252232000Y161316500D03*
D12*
X106764664Y61472000D03*
D13*
X106764664Y58932000D03*
X106764664Y56392000D03*
D12*
X157998996Y83472000D03*
D13*
X157998996Y80932000D03*
X157998996Y78392000D03*
D10*
X229370000Y15748000D03*
D11*
X231910000Y15748000D03*
D18*
X275590000Y101076000D03*
D19*
X273050000Y101076000D03*
X270510000Y101076000D03*
X270510000Y93456000D03*
X273050000Y93456000D03*
X275590000Y93456000D03*
D14*
X120882664Y108961000D03*
D15*
X118342664Y108961000D03*
X115802664Y108961000D03*
X113262664Y108961000D03*
X110722664Y108961000D03*
X108182664Y108961000D03*
X105642664Y108961000D03*
X105642664Y98801000D03*
X108182664Y98801000D03*
X110722664Y98801000D03*
X113262664Y98801000D03*
X115802664Y98801000D03*
X118342664Y98801000D03*
X120882664Y98801000D03*
D12*
X4296000Y93472000D03*
D13*
X4296000Y90932000D03*
X4296000Y88392000D03*
D12*
X69187830Y17472000D03*
D13*
X69187830Y14932000D03*
X69187830Y12392000D03*
D10*
X72755830Y103886000D03*
D11*
X75295830Y103886000D03*
D10*
X289560000Y81788000D03*
D11*
X292100000Y81788000D03*
D10*
X22652000Y176793000D03*
D11*
X22652000Y179333000D03*
D10*
X56180000Y189229000D03*
D11*
X56180000Y191769000D03*
D10*
X41722320Y138719000D03*
D11*
X41722320Y136179000D03*
D12*
X106764664Y39472000D03*
D13*
X106764664Y36932000D03*
X106764664Y34392000D03*
D12*
X120690664Y88472000D03*
D13*
X120690664Y85932000D03*
X120690664Y83392000D03*
D10*
X140725333Y120238000D03*
D11*
X143265333Y120238000D03*
D10*
X21773000Y19947000D03*
D11*
X24313000Y19947000D03*
D18*
X213632500Y99680191D03*
D19*
X221252500Y99680191D03*
D18*
X267504500Y71384000D03*
D19*
X267504500Y68844000D03*
X267504500Y66304000D03*
X267504500Y63764000D03*
X267504500Y61224000D03*
X267504500Y58684000D03*
X267504500Y56144000D03*
X267504500Y53604000D03*
X275124500Y53604000D03*
X275124500Y56144000D03*
X275124500Y58684000D03*
X275124500Y61224000D03*
X275124500Y63764000D03*
X275124500Y66304000D03*
X275124500Y68844000D03*
X275124500Y71384000D03*
D12*
X157998996Y71472000D03*
D13*
X157998996Y68932000D03*
X157998996Y66392000D03*
D20*
X161310000Y136770000D03*
X161310000Y121770000D03*
D10*
X175475996Y103886000D03*
D11*
X178015996Y103886000D03*
D12*
X18247000Y22472000D03*
D13*
X18247000Y19932000D03*
X18247000Y17392000D03*
D10*
X72755830Y45332000D03*
D11*
X75295830Y45332000D03*
D12*
X81147498Y83472000D03*
D13*
X81147498Y80932000D03*
X81147498Y78392000D03*
D10*
X272923000Y81788000D03*
D11*
X275463000Y81788000D03*
D12*
X43864166Y66472000D03*
D13*
X43864166Y63932000D03*
X43864166Y61392000D03*
D10*
X149858830Y63947000D03*
D11*
X152398830Y63947000D03*
D23*
X281178000Y17780000D03*
D24*
X283718000Y17780000D03*
X286258000Y17780000D03*
X288798000Y17780000D03*
X291338000Y17780000D03*
X291338000Y33020000D03*
X288798000Y33020000D03*
X286258000Y33020000D03*
X283718000Y33020000D03*
X281178000Y33020000D03*
D12*
X172178996Y44472000D03*
D13*
X172178996Y41932000D03*
X172178996Y39392000D03*
D21*
X210768000Y118364000D03*
X204268000Y118364000D03*
X204268000Y122864000D03*
X210768000Y122864000D03*
D12*
X44367000Y149659000D03*
D13*
X46907000Y149659000D03*
X49447000Y149659000D03*
D10*
X98624498Y103886000D03*
D11*
X101164498Y103886000D03*
D21*
X44642000Y155742000D03*
X44642000Y162242000D03*
X49142000Y155742000D03*
X49142000Y162242000D03*
X23770000Y155742000D03*
X23770000Y162242000D03*
X28270000Y155742000D03*
X28270000Y162242000D03*
D16*
X197593000Y108971000D03*
D17*
X197593000Y106431000D03*
X197593000Y103891000D03*
X197593000Y101351000D03*
X197593000Y98811000D03*
X197593000Y96271000D03*
X197593000Y93731000D03*
X207753000Y93731000D03*
X207753000Y96271000D03*
X207753000Y98811000D03*
X207753000Y101351000D03*
X207753000Y103891000D03*
X207753000Y106431000D03*
X207753000Y108971000D03*
D14*
X95265498Y108961000D03*
D15*
X92725498Y108961000D03*
X90185498Y108961000D03*
X87645498Y108961000D03*
X85105498Y108961000D03*
X82565498Y108961000D03*
X80025498Y108961000D03*
X80025498Y98801000D03*
X82565498Y98801000D03*
X85105498Y98801000D03*
X87645498Y98801000D03*
X90185498Y98801000D03*
X92725498Y98801000D03*
X95265498Y98801000D03*
D10*
X72755830Y90932000D03*
D11*
X75295830Y90932000D03*
D12*
X171924996Y88472000D03*
D13*
X171924996Y85932000D03*
X171924996Y83392000D03*
D18*
X213632500Y109824191D03*
D19*
X221252500Y109824191D03*
D12*
X29913166Y27472000D03*
D13*
X29913166Y24932000D03*
X29913166Y22392000D03*
D10*
X146565667Y120238000D03*
D11*
X149105667Y120238000D03*
D10*
X149858830Y103886000D03*
D11*
X152398830Y103886000D03*
D10*
X124241664Y19947000D03*
D11*
X126781664Y19947000D03*
D12*
X29913166Y61472000D03*
D13*
X29913166Y58932000D03*
X29913166Y56392000D03*
D18*
X260863000Y147531500D03*
D19*
X258323000Y147531500D03*
X258323000Y139911500D03*
X260863000Y139911500D03*
D10*
X149858830Y19947000D03*
D11*
X152398830Y19947000D03*
D18*
X213632500Y90428000D03*
D19*
X213632500Y87888000D03*
X213632500Y85348000D03*
X213632500Y82808000D03*
X221252500Y82808000D03*
X221252500Y85348000D03*
X221252500Y87888000D03*
X221252500Y90428000D03*
D12*
X157998996Y49472000D03*
D13*
X157998996Y46932000D03*
X157998996Y44392000D03*
D10*
X292349000Y48768000D03*
D11*
X289809000Y48768000D03*
D18*
X214122000Y56637000D03*
D19*
X214122000Y54097000D03*
X214122000Y51557000D03*
X214122000Y49017000D03*
X214122000Y46477000D03*
X221742000Y46477000D03*
X221742000Y49017000D03*
X221742000Y51557000D03*
X221742000Y54097000D03*
X221742000Y56637000D03*
D10*
X292323000Y63368000D03*
D11*
X289783000Y63368000D03*
D10*
X55926000Y176793000D03*
D11*
X55926000Y179333000D03*
D12*
X132381830Y61472000D03*
D13*
X132381830Y58932000D03*
X132381830Y56392000D03*
D10*
X48824160Y138719000D03*
D11*
X48824160Y136179000D03*
D10*
X129044667Y120238000D03*
D11*
X131584667Y120238000D03*
D14*
X172116996Y108961000D03*
D15*
X169576996Y108961000D03*
X167036996Y108961000D03*
X164496996Y108961000D03*
X161956996Y108961000D03*
X159416996Y108961000D03*
X156876996Y108961000D03*
X156876996Y98801000D03*
X159416996Y98801000D03*
X161956996Y98801000D03*
X164496996Y98801000D03*
X167036996Y98801000D03*
X169576996Y98801000D03*
X172116996Y98801000D03*
D12*
X43839166Y88472000D03*
D13*
X43839166Y85932000D03*
X43839166Y83392000D03*
D12*
X55261830Y78272000D03*
D13*
X55261830Y75732000D03*
X55261830Y73192000D03*
D12*
X56434000Y122198000D03*
D13*
X53894000Y122198000D03*
X51354000Y122198000D03*
X48814000Y122198000D03*
X46274000Y122198000D03*
X43734000Y122198000D03*
D12*
X4296000Y39472000D03*
D13*
X4296000Y36932000D03*
X4296000Y34392000D03*
D12*
X69187830Y32672000D03*
D13*
X69187830Y30132000D03*
X69187830Y27592000D03*
D12*
X106764664Y83472000D03*
D13*
X106764664Y80932000D03*
X106764664Y78392000D03*
D12*
X106764664Y17472000D03*
D13*
X106764664Y14932000D03*
X106764664Y12392000D03*
D14*
X204492000Y140731000D03*
D15*
X201952000Y140731000D03*
X199412000Y140731000D03*
X196872000Y140731000D03*
X196872000Y133111000D03*
X199412000Y133111000D03*
X201952000Y133111000D03*
X204492000Y133111000D03*
D10*
X175475996Y41947000D03*
D11*
X178015996Y41947000D03*
D10*
X229050000Y61270000D03*
D11*
X229050000Y63810000D03*
D12*
X81147498Y39472000D03*
D13*
X81147498Y36932000D03*
X81147498Y34392000D03*
D12*
X55261830Y17472000D03*
D13*
X55261830Y14932000D03*
X55261830Y12392000D03*
D14*
X146499830Y108961000D03*
D15*
X143959830Y108961000D03*
X141419830Y108961000D03*
X138879830Y108961000D03*
X136339830Y108961000D03*
X133799830Y108961000D03*
X131259830Y108961000D03*
X131259830Y98801000D03*
X133799830Y98801000D03*
X136339830Y98801000D03*
X138879830Y98801000D03*
X141419830Y98801000D03*
X143959830Y98801000D03*
X146499830Y98801000D03*
D16*
X197593000Y68057000D03*
D17*
X197593000Y65517000D03*
X197593000Y62977000D03*
X197593000Y60437000D03*
X197593000Y57897000D03*
X197593000Y55357000D03*
X197593000Y52817000D03*
X197593000Y50277000D03*
X207753000Y50277000D03*
X207753000Y52817000D03*
X207753000Y55357000D03*
X207753000Y57897000D03*
X207753000Y60437000D03*
X207753000Y62977000D03*
X207753000Y65517000D03*
X207753000Y68057000D03*
D10*
X291057000Y172238000D03*
D11*
X291057000Y169698000D03*
D12*
X18222000Y88472000D03*
D13*
X18222000Y85932000D03*
X18222000Y83392000D03*
D10*
X98624498Y85947000D03*
D11*
X101164498Y85947000D03*
D18*
X286512000Y133053500D03*
D19*
X283972000Y133053500D03*
X281432000Y133053500D03*
X278892000Y133053500D03*
X276352000Y133053500D03*
X276352000Y125433500D03*
X278892000Y125433500D03*
X281432000Y125433500D03*
X283972000Y125433500D03*
X286512000Y125433500D03*
D10*
X98624498Y41947000D03*
D11*
X101164498Y41947000D03*
D20*
X241818000Y30732000D03*
X241818000Y15732000D03*
D10*
X291057000Y179921500D03*
D11*
X291057000Y177381500D03*
D12*
X132381830Y49472000D03*
D13*
X132381830Y46932000D03*
X132381830Y44392000D03*
D18*
X261620000Y101076000D03*
D19*
X259080000Y101076000D03*
X256540000Y101076000D03*
X256540000Y93456000D03*
X259080000Y93456000D03*
X261620000Y93456000D03*
D14*
X136398000Y142994000D03*
D15*
X133858000Y142994000D03*
X131318000Y142994000D03*
X128778000Y142994000D03*
X126238000Y142994000D03*
X123698000Y142994000D03*
X121158000Y142994000D03*
X118618000Y142994000D03*
X116078000Y142994000D03*
X113538000Y142994000D03*
X110998000Y142994000D03*
X108458000Y142994000D03*
X108458000Y127754000D03*
X110998000Y127754000D03*
X113538000Y127754000D03*
X116078000Y127754000D03*
X118618000Y127754000D03*
X121158000Y127754000D03*
X123698000Y127754000D03*
X126238000Y127754000D03*
X128778000Y127754000D03*
X131318000Y127754000D03*
X133858000Y127754000D03*
X136398000Y127754000D03*
D12*
X106764664Y71472000D03*
D13*
X106764664Y68932000D03*
X106764664Y66392000D03*
D12*
X4296000Y71472000D03*
D13*
X4296000Y68932000D03*
X4296000Y66392000D03*
D10*
X21773000Y103886000D03*
D11*
X24313000Y103886000D03*
D18*
X268478000Y29210000D03*
D19*
X268478000Y26670000D03*
X268478000Y24130000D03*
X268478000Y21590000D03*
X276098000Y21590000D03*
X276098000Y24130000D03*
X276098000Y26670000D03*
X276098000Y29210000D03*
D10*
X229370000Y37846000D03*
D11*
X231910000Y37846000D03*
D10*
X55926000Y138719000D03*
D11*
X55926000Y136179000D03*
D12*
X95327498Y44472000D03*
D13*
X95327498Y41932000D03*
X95327498Y39392000D03*
D12*
X171949996Y22472000D03*
D13*
X171949996Y19932000D03*
X171949996Y17392000D03*
D12*
X69187830Y93472000D03*
D13*
X69187830Y90932000D03*
X69187830Y88392000D03*
D12*
X81147498Y71472000D03*
D13*
X81147498Y68932000D03*
X81147498Y66392000D03*
D10*
X29560800Y189229000D03*
D11*
X29560800Y191769000D03*
D12*
X44750000Y196600000D03*
D13*
X42210000Y196600000D03*
X39670000Y196600000D03*
X37130000Y196600000D03*
X34590000Y196600000D03*
X32050000Y196600000D03*
D12*
X4296000Y61472000D03*
D13*
X4296000Y58932000D03*
X4296000Y56392000D03*
D12*
X132381830Y39472000D03*
D13*
X132381830Y36932000D03*
X132381830Y34392000D03*
D25*
X219694000Y34036000D03*
X217694000Y34036000D03*
D26*
X80772000Y136144000D03*
X80772000Y134144000D03*
D25*
X219694000Y18288000D03*
X217694000Y18288000D03*
X272526000Y67056000D03*
X270526000Y67056000D03*
D26*
X87291332Y124206000D03*
X87291332Y122206000D03*
D27*
X216400000Y87884000D03*
X218400000Y87884000D03*
D25*
X218400000Y109982000D03*
X216400000Y109982000D03*
X219694000Y21590000D03*
X217694000Y21590000D03*
D26*
X268986000Y166084000D03*
X268986000Y164084000D03*
X279908000Y166084000D03*
X279908000Y164084000D03*
X283210000Y166084000D03*
X283210000Y164084000D03*
D25*
X218400000Y99822000D03*
X216400000Y99822000D03*
D26*
X86868000Y136144000D03*
X86868000Y134144000D03*
D28*
X288036000Y128278000D03*
X288036000Y130278000D03*
D26*
X100838000Y136144000D03*
X100838000Y134144000D03*
D28*
X259905500Y128540000D03*
X259905500Y130540000D03*
D25*
X272526000Y70104000D03*
X270526000Y70104000D03*
D26*
X84158666Y124206000D03*
X84158666Y122206000D03*
X81026000Y124206000D03*
X81026000Y122206000D03*
D25*
X273542000Y23198668D03*
X271542000Y23198668D03*
X219186000Y51054000D03*
X217186000Y51054000D03*
D26*
X258577000Y144721500D03*
X258577000Y142721500D03*
D25*
X219694000Y14986000D03*
X217694000Y14986000D03*
X219186000Y44958000D03*
X217186000Y44958000D03*
X218889500Y60960000D03*
X216889500Y60960000D03*
D27*
X255286000Y46736000D03*
X257286000Y46736000D03*
D26*
X276606000Y166084000D03*
X276606000Y164084000D03*
D28*
X263144000Y128540000D03*
X263144000Y130540000D03*
D25*
X272542000Y50546000D03*
X270542000Y50546000D03*
D28*
X261874000Y96536000D03*
X261874000Y98536000D03*
D25*
X273542000Y29972000D03*
X271542000Y29972000D03*
X219710000Y27432000D03*
X217710000Y27432000D03*
D28*
X281305000Y128278000D03*
X281305000Y130278000D03*
X274701000Y128278000D03*
X274701000Y130278000D03*
X272542000Y96552000D03*
X272542000Y98552000D03*
X255001000Y96536000D03*
X255001000Y98536000D03*
X269225000Y96552000D03*
X269225000Y98552000D03*
D25*
X219186000Y57150000D03*
X217186000Y57150000D03*
D28*
X278003000Y128278000D03*
X278003000Y130278000D03*
D26*
X89916000Y136144000D03*
X89916000Y134144000D03*
D25*
X218889500Y64008000D03*
X216889500Y64008000D03*
D27*
X216400000Y82804000D03*
X218400000Y82804000D03*
D25*
X219694000Y37338000D03*
X217694000Y37338000D03*
X218889500Y67056000D03*
X216889500Y67056000D03*
D26*
X97790000Y136144000D03*
X97790000Y134144000D03*
D28*
X258437500Y96536000D03*
X258437500Y98536000D03*
D27*
X270526000Y46736000D03*
X272526000Y46736000D03*
D25*
X219186000Y54102000D03*
X217186000Y54102000D03*
D28*
X269621000Y128540000D03*
X269621000Y130540000D03*
D26*
X261879000Y144721500D03*
X261879000Y142721500D03*
D27*
X216400000Y90424000D03*
X218400000Y90424000D03*
D28*
X266382500Y128540000D03*
X266382500Y130540000D03*
D25*
X219694000Y30734000D03*
X217694000Y30734000D03*
X218889500Y70104000D03*
X216889500Y70104000D03*
X272526000Y53848000D03*
X270526000Y53848000D03*
X273542000Y26585334D03*
X271542000Y26585334D03*
X272526000Y57150000D03*
X270526000Y57150000D03*
X219186000Y48006000D03*
X217186000Y48006000D03*
X219694000Y11684000D03*
X217694000Y11684000D03*
D28*
X256667000Y128540000D03*
X256667000Y130540000D03*
X284607000Y128278000D03*
X284607000Y130278000D03*
D25*
X272526000Y60452000D03*
X270526000Y60452000D03*
D26*
X265684000Y166084000D03*
X265684000Y164084000D03*
X83820000Y136144000D03*
X83820000Y134144000D03*
X94742000Y136144000D03*
X94742000Y134144000D03*
D28*
X275844000Y96552000D03*
X275844000Y98552000D03*
D26*
X90424000Y124206000D03*
X90424000Y122206000D03*
X103886000Y136144000D03*
X103886000Y134144000D03*
D25*
X218889500Y73152000D03*
X216889500Y73152000D03*
D27*
X216400000Y85344000D03*
X218400000Y85344000D03*
D26*
X273304000Y166084000D03*
X273304000Y164084000D03*
D25*
X272526000Y63754000D03*
X270526000Y63754000D03*
X273542000Y19812000D03*
X271542000Y19812000D03*
X272526000Y73406000D03*
X270526000Y73406000D03*
D26*
X259080000Y166084000D03*
X259080000Y164084000D03*
X262382000Y166084000D03*
X262382000Y164084000D03*
D25*
X208010000Y88900000D03*
X206010000Y88900000D03*
M02*
