G04 #@! TF.GenerationSoftware,KiCad,Pcbnew,(6.0.6)*
G04 #@! TF.CreationDate,2024-09-14T02:37:40+08:00*
G04 #@! TF.ProjectId,PCB_4,5043425f-342e-46b6-9963-61645f706362,rev?*
G04 #@! TF.SameCoordinates,Original*
G04 #@! TF.FileFunction,Legend,Bot*
G04 #@! TF.FilePolarity,Positive*
%FSLAX46Y46*%
G04 Gerber Fmt 4.6, Leading zero omitted, Abs format (unit mm)*
G04 Created by KiCad (PCBNEW (6.0.6)) date 2024-09-14 02:37:40*
%MOMM*%
%LPD*%
G01*
G04 APERTURE LIST*
G04 Aperture macros list*
%AMRoundRect*
0 Rectangle with rounded corners*
0 $1 Rounding radius*
0 $2 $3 $4 $5 $6 $7 $8 $9 X,Y pos of 4 corners*
0 Add a 4 corners polygon primitive as box body*
4,1,4,$2,$3,$4,$5,$6,$7,$8,$9,$2,$3,0*
0 Add four circle primitives for the rounded corners*
1,1,$1+$1,$2,$3*
1,1,$1+$1,$4,$5*
1,1,$1+$1,$6,$7*
1,1,$1+$1,$8,$9*
0 Add four rect primitives between the rounded corners*
20,1,$1+$1,$2,$3,$4,$5,0*
20,1,$1+$1,$4,$5,$6,$7,0*
20,1,$1+$1,$6,$7,$8,$9,0*
20,1,$1+$1,$8,$9,$2,$3,0*%
G04 Aperture macros list end*
%ADD10C,0.150000*%
%ADD11C,0.120000*%
%ADD12R,1.800000X1.800000*%
%ADD13C,1.800000*%
%ADD14R,1.700000X1.700000*%
%ADD15O,1.700000X1.700000*%
%ADD16R,1.600000X2.400000*%
%ADD17O,1.600000X2.400000*%
%ADD18R,2.400000X1.600000*%
%ADD19O,2.400000X1.600000*%
%ADD20R,1.600000X1.600000*%
%ADD21O,1.600000X1.600000*%
%ADD22C,8.000000*%
%ADD23C,2.000000*%
%ADD24C,1.700000*%
%ADD25R,1.524000X2.524000*%
%ADD26O,1.524000X2.524000*%
%ADD27RoundRect,0.250000X0.350000X0.450000X-0.350000X0.450000X-0.350000X-0.450000X0.350000X-0.450000X0*%
%ADD28RoundRect,0.250000X-0.450000X0.350000X-0.450000X-0.350000X0.450000X-0.350000X0.450000X0.350000X0*%
%ADD29RoundRect,0.250000X-0.350000X-0.450000X0.350000X-0.450000X0.350000X0.450000X-0.350000X0.450000X0*%
%ADD30RoundRect,0.250000X0.450000X-0.350000X0.450000X0.350000X-0.450000X0.350000X-0.450000X-0.350000X0*%
G04 APERTURE END LIST*
D10*
X80042761Y125227023D02*
X80090380Y125084166D01*
X80090380Y124846071D01*
X80042761Y124750833D01*
X79995142Y124703214D01*
X79899904Y124655595D01*
X79804666Y124655595D01*
X79709428Y124703214D01*
X79661809Y124750833D01*
X79614190Y124846071D01*
X79566571Y125036547D01*
X79518952Y125131785D01*
X79471333Y125179404D01*
X79376095Y125227023D01*
X79280857Y125227023D01*
X79185619Y125179404D01*
X79138000Y125131785D01*
X79090380Y125036547D01*
X79090380Y124798452D01*
X79138000Y124655595D01*
X79090380Y124322261D02*
X80090380Y124084166D01*
X79376095Y123893690D01*
X80090380Y123703214D01*
X79090380Y123465119D01*
X79185619Y123131785D02*
X79138000Y123084166D01*
X79090380Y122988928D01*
X79090380Y122750833D01*
X79138000Y122655595D01*
X79185619Y122607976D01*
X79280857Y122560357D01*
X79376095Y122560357D01*
X79518952Y122607976D01*
X80090380Y123179404D01*
X80090380Y122560357D01*
X79185619Y122179404D02*
X79138000Y122131785D01*
X79090380Y122036547D01*
X79090380Y121798452D01*
X79138000Y121703214D01*
X79185619Y121655595D01*
X79280857Y121607976D01*
X79376095Y121607976D01*
X79518952Y121655595D01*
X80090380Y122227023D01*
X80090380Y121607976D01*
X219813047Y35233619D02*
X220146380Y35709809D01*
X220384476Y35233619D02*
X220384476Y36233619D01*
X220003523Y36233619D01*
X219908285Y36186000D01*
X219860666Y36138380D01*
X219813047Y36043142D01*
X219813047Y35900285D01*
X219860666Y35805047D01*
X219908285Y35757428D01*
X220003523Y35709809D01*
X220384476Y35709809D01*
X218860666Y35233619D02*
X219432095Y35233619D01*
X219146380Y35233619D02*
X219146380Y36233619D01*
X219241619Y36090761D01*
X219336857Y35995523D01*
X219432095Y35947904D01*
X217955904Y36233619D02*
X218432095Y36233619D01*
X218479714Y35757428D01*
X218432095Y35805047D01*
X218336857Y35852666D01*
X218098761Y35852666D01*
X218003523Y35805047D01*
X217955904Y35757428D01*
X217908285Y35662190D01*
X217908285Y35424095D01*
X217955904Y35328857D01*
X218003523Y35281238D01*
X218098761Y35233619D01*
X218336857Y35233619D01*
X218432095Y35281238D01*
X218479714Y35328857D01*
X217574952Y36233619D02*
X216955904Y36233619D01*
X217289238Y35852666D01*
X217146380Y35852666D01*
X217051142Y35805047D01*
X217003523Y35757428D01*
X216955904Y35662190D01*
X216955904Y35424095D01*
X217003523Y35328857D01*
X217051142Y35281238D01*
X217146380Y35233619D01*
X217432095Y35233619D01*
X217527333Y35281238D01*
X217574952Y35328857D01*
X79574380Y136263047D02*
X79098190Y136596380D01*
X79574380Y136834476D02*
X78574380Y136834476D01*
X78574380Y136453523D01*
X78622000Y136358285D01*
X78669619Y136310666D01*
X78764857Y136263047D01*
X78907714Y136263047D01*
X79002952Y136310666D01*
X79050571Y136358285D01*
X79098190Y136453523D01*
X79098190Y136834476D01*
X79574380Y135310666D02*
X79574380Y135882095D01*
X79574380Y135596380D02*
X78574380Y135596380D01*
X78717238Y135691619D01*
X78812476Y135786857D01*
X78860095Y135882095D01*
X78574380Y134977333D02*
X78574380Y134310666D01*
X79574380Y134739238D01*
X79574380Y133882095D02*
X79574380Y133691619D01*
X79526761Y133596380D01*
X79479142Y133548761D01*
X79336285Y133453523D01*
X79145809Y133405904D01*
X78764857Y133405904D01*
X78669619Y133453523D01*
X78622000Y133501142D01*
X78574380Y133596380D01*
X78574380Y133786857D01*
X78622000Y133882095D01*
X78669619Y133929714D01*
X78764857Y133977333D01*
X79002952Y133977333D01*
X79098190Y133929714D01*
X79145809Y133882095D01*
X79193428Y133786857D01*
X79193428Y133596380D01*
X79145809Y133501142D01*
X79098190Y133453523D01*
X79002952Y133405904D01*
X219813047Y19485619D02*
X220146380Y19961809D01*
X220384476Y19485619D02*
X220384476Y20485619D01*
X220003523Y20485619D01*
X219908285Y20438000D01*
X219860666Y20390380D01*
X219813047Y20295142D01*
X219813047Y20152285D01*
X219860666Y20057047D01*
X219908285Y20009428D01*
X220003523Y19961809D01*
X220384476Y19961809D01*
X218860666Y19485619D02*
X219432095Y19485619D01*
X219146380Y19485619D02*
X219146380Y20485619D01*
X219241619Y20342761D01*
X219336857Y20247523D01*
X219432095Y20199904D01*
X218003523Y20152285D02*
X218003523Y19485619D01*
X218241619Y20533238D02*
X218479714Y19818952D01*
X217860666Y19818952D01*
X217432095Y19485619D02*
X217241619Y19485619D01*
X217146380Y19533238D01*
X217098761Y19580857D01*
X217003523Y19723714D01*
X216955904Y19914190D01*
X216955904Y20295142D01*
X217003523Y20390380D01*
X217051142Y20438000D01*
X217146380Y20485619D01*
X217336857Y20485619D01*
X217432095Y20438000D01*
X217479714Y20390380D01*
X217527333Y20295142D01*
X217527333Y20057047D01*
X217479714Y19961809D01*
X217432095Y19914190D01*
X217336857Y19866571D01*
X217146380Y19866571D01*
X217051142Y19914190D01*
X217003523Y19961809D01*
X216955904Y20057047D01*
X272645047Y68137619D02*
X272978380Y68613809D01*
X273216476Y68137619D02*
X273216476Y69137619D01*
X272835523Y69137619D01*
X272740285Y69090000D01*
X272692666Y69042380D01*
X272645047Y68947142D01*
X272645047Y68804285D01*
X272692666Y68709047D01*
X272740285Y68661428D01*
X272835523Y68613809D01*
X273216476Y68613809D01*
X271692666Y68137619D02*
X272264095Y68137619D01*
X271978380Y68137619D02*
X271978380Y69137619D01*
X272073619Y68994761D01*
X272168857Y68899523D01*
X272264095Y68851904D01*
X271359333Y69137619D02*
X270740285Y69137619D01*
X271073619Y68756666D01*
X270930761Y68756666D01*
X270835523Y68709047D01*
X270787904Y68661428D01*
X270740285Y68566190D01*
X270740285Y68328095D01*
X270787904Y68232857D01*
X270835523Y68185238D01*
X270930761Y68137619D01*
X271216476Y68137619D01*
X271311714Y68185238D01*
X271359333Y68232857D01*
X269883142Y69137619D02*
X270073619Y69137619D01*
X270168857Y69090000D01*
X270216476Y69042380D01*
X270311714Y68899523D01*
X270359333Y68709047D01*
X270359333Y68328095D01*
X270311714Y68232857D01*
X270264095Y68185238D01*
X270168857Y68137619D01*
X269978380Y68137619D01*
X269883142Y68185238D01*
X269835523Y68232857D01*
X269787904Y68328095D01*
X269787904Y68566190D01*
X269835523Y68661428D01*
X269883142Y68709047D01*
X269978380Y68756666D01*
X270168857Y68756666D01*
X270264095Y68709047D01*
X270311714Y68661428D01*
X270359333Y68566190D01*
X86093712Y124325047D02*
X85617522Y124658380D01*
X86093712Y124896476D02*
X85093712Y124896476D01*
X85093712Y124515523D01*
X85141332Y124420285D01*
X85188951Y124372666D01*
X85284189Y124325047D01*
X85427046Y124325047D01*
X85522284Y124372666D01*
X85569903Y124420285D01*
X85617522Y124515523D01*
X85617522Y124896476D01*
X86093712Y123372666D02*
X86093712Y123944095D01*
X86093712Y123658380D02*
X85093712Y123658380D01*
X85236570Y123753619D01*
X85331808Y123848857D01*
X85379427Y123944095D01*
X85522284Y122801238D02*
X85474665Y122896476D01*
X85427046Y122944095D01*
X85331808Y122991714D01*
X85284189Y122991714D01*
X85188951Y122944095D01*
X85141332Y122896476D01*
X85093712Y122801238D01*
X85093712Y122610761D01*
X85141332Y122515523D01*
X85188951Y122467904D01*
X85284189Y122420285D01*
X85331808Y122420285D01*
X85427046Y122467904D01*
X85474665Y122515523D01*
X85522284Y122610761D01*
X85522284Y122801238D01*
X85569903Y122896476D01*
X85617522Y122944095D01*
X85712760Y122991714D01*
X85903236Y122991714D01*
X85998474Y122944095D01*
X86046093Y122896476D01*
X86093712Y122801238D01*
X86093712Y122610761D01*
X86046093Y122515523D01*
X85998474Y122467904D01*
X85903236Y122420285D01*
X85712760Y122420285D01*
X85617522Y122467904D01*
X85569903Y122515523D01*
X85522284Y122610761D01*
X85188951Y122039333D02*
X85141332Y121991714D01*
X85093712Y121896476D01*
X85093712Y121658380D01*
X85141332Y121563142D01*
X85188951Y121515523D01*
X85284189Y121467904D01*
X85379427Y121467904D01*
X85522284Y121515523D01*
X86093712Y122086952D01*
X86093712Y121467904D01*
X219813047Y22787619D02*
X220146380Y23263809D01*
X220384476Y22787619D02*
X220384476Y23787619D01*
X220003523Y23787619D01*
X219908285Y23740000D01*
X219860666Y23692380D01*
X219813047Y23597142D01*
X219813047Y23454285D01*
X219860666Y23359047D01*
X219908285Y23311428D01*
X220003523Y23263809D01*
X220384476Y23263809D01*
X218860666Y22787619D02*
X219432095Y22787619D01*
X219146380Y22787619D02*
X219146380Y23787619D01*
X219241619Y23644761D01*
X219336857Y23549523D01*
X219432095Y23501904D01*
X218003523Y23454285D02*
X218003523Y22787619D01*
X218241619Y23835238D02*
X218479714Y23120952D01*
X217860666Y23120952D01*
X217336857Y23359047D02*
X217432095Y23406666D01*
X217479714Y23454285D01*
X217527333Y23549523D01*
X217527333Y23597142D01*
X217479714Y23692380D01*
X217432095Y23740000D01*
X217336857Y23787619D01*
X217146380Y23787619D01*
X217051142Y23740000D01*
X217003523Y23692380D01*
X216955904Y23597142D01*
X216955904Y23549523D01*
X217003523Y23454285D01*
X217051142Y23406666D01*
X217146380Y23359047D01*
X217336857Y23359047D01*
X217432095Y23311428D01*
X217479714Y23263809D01*
X217527333Y23168571D01*
X217527333Y22978095D01*
X217479714Y22882857D01*
X217432095Y22835238D01*
X217336857Y22787619D01*
X217146380Y22787619D01*
X217051142Y22835238D01*
X217003523Y22882857D01*
X216955904Y22978095D01*
X216955904Y23168571D01*
X217003523Y23263809D01*
X217051142Y23311428D01*
X217146380Y23359047D01*
X85670380Y136263047D02*
X85194190Y136596380D01*
X85670380Y136834476D02*
X84670380Y136834476D01*
X84670380Y136453523D01*
X84718000Y136358285D01*
X84765619Y136310666D01*
X84860857Y136263047D01*
X85003714Y136263047D01*
X85098952Y136310666D01*
X85146571Y136358285D01*
X85194190Y136453523D01*
X85194190Y136834476D01*
X85670380Y135310666D02*
X85670380Y135882095D01*
X85670380Y135596380D02*
X84670380Y135596380D01*
X84813238Y135691619D01*
X84908476Y135786857D01*
X84956095Y135882095D01*
X84670380Y134977333D02*
X84670380Y134310666D01*
X85670380Y134739238D01*
X84670380Y134024952D02*
X84670380Y133358285D01*
X85670380Y133786857D01*
X290138380Y130397047D02*
X289662190Y130730380D01*
X290138380Y130968476D02*
X289138380Y130968476D01*
X289138380Y130587523D01*
X289186000Y130492285D01*
X289233619Y130444666D01*
X289328857Y130397047D01*
X289471714Y130397047D01*
X289566952Y130444666D01*
X289614571Y130492285D01*
X289662190Y130587523D01*
X289662190Y130968476D01*
X290138380Y129444666D02*
X290138380Y130016095D01*
X290138380Y129730380D02*
X289138380Y129730380D01*
X289281238Y129825619D01*
X289376476Y129920857D01*
X289424095Y130016095D01*
X290138380Y128492285D02*
X290138380Y129063714D01*
X290138380Y128778000D02*
X289138380Y128778000D01*
X289281238Y128873238D01*
X289376476Y128968476D01*
X289424095Y129063714D01*
X290138380Y127539904D02*
X290138380Y128111333D01*
X290138380Y127825619D02*
X289138380Y127825619D01*
X289281238Y127920857D01*
X289376476Y128016095D01*
X289424095Y128111333D01*
X99640380Y136263047D02*
X99164190Y136596380D01*
X99640380Y136834476D02*
X98640380Y136834476D01*
X98640380Y136453523D01*
X98688000Y136358285D01*
X98735619Y136310666D01*
X98830857Y136263047D01*
X98973714Y136263047D01*
X99068952Y136310666D01*
X99116571Y136358285D01*
X99164190Y136453523D01*
X99164190Y136834476D01*
X99640380Y135310666D02*
X99640380Y135882095D01*
X99640380Y135596380D02*
X98640380Y135596380D01*
X98783238Y135691619D01*
X98878476Y135786857D01*
X98926095Y135882095D01*
X99068952Y134739238D02*
X99021333Y134834476D01*
X98973714Y134882095D01*
X98878476Y134929714D01*
X98830857Y134929714D01*
X98735619Y134882095D01*
X98688000Y134834476D01*
X98640380Y134739238D01*
X98640380Y134548761D01*
X98688000Y134453523D01*
X98735619Y134405904D01*
X98830857Y134358285D01*
X98878476Y134358285D01*
X98973714Y134405904D01*
X99021333Y134453523D01*
X99068952Y134548761D01*
X99068952Y134739238D01*
X99116571Y134834476D01*
X99164190Y134882095D01*
X99259428Y134929714D01*
X99449904Y134929714D01*
X99545142Y134882095D01*
X99592761Y134834476D01*
X99640380Y134739238D01*
X99640380Y134548761D01*
X99592761Y134453523D01*
X99545142Y134405904D01*
X99449904Y134358285D01*
X99259428Y134358285D01*
X99164190Y134405904D01*
X99116571Y134453523D01*
X99068952Y134548761D01*
X98640380Y134024952D02*
X98640380Y133405904D01*
X99021333Y133739238D01*
X99021333Y133596380D01*
X99068952Y133501142D01*
X99116571Y133453523D01*
X99211809Y133405904D01*
X99449904Y133405904D01*
X99545142Y133453523D01*
X99592761Y133501142D01*
X99640380Y133596380D01*
X99640380Y133882095D01*
X99592761Y133977333D01*
X99545142Y134024952D01*
X262007880Y130659047D02*
X261531690Y130992380D01*
X262007880Y131230476D02*
X261007880Y131230476D01*
X261007880Y130849523D01*
X261055500Y130754285D01*
X261103119Y130706666D01*
X261198357Y130659047D01*
X261341214Y130659047D01*
X261436452Y130706666D01*
X261484071Y130754285D01*
X261531690Y130849523D01*
X261531690Y131230476D01*
X262007880Y129706666D02*
X262007880Y130278095D01*
X262007880Y129992380D02*
X261007880Y129992380D01*
X261150738Y130087619D01*
X261245976Y130182857D01*
X261293595Y130278095D01*
X261007880Y129087619D02*
X261007880Y128992380D01*
X261055500Y128897142D01*
X261103119Y128849523D01*
X261198357Y128801904D01*
X261388833Y128754285D01*
X261626928Y128754285D01*
X261817404Y128801904D01*
X261912642Y128849523D01*
X261960261Y128897142D01*
X262007880Y128992380D01*
X262007880Y129087619D01*
X261960261Y129182857D01*
X261912642Y129230476D01*
X261817404Y129278095D01*
X261626928Y129325714D01*
X261388833Y129325714D01*
X261198357Y129278095D01*
X261103119Y129230476D01*
X261055500Y129182857D01*
X261007880Y129087619D01*
X261007880Y128420952D02*
X261007880Y127754285D01*
X262007880Y128182857D01*
X272645047Y71301619D02*
X272978380Y71777809D01*
X273216476Y71301619D02*
X273216476Y72301619D01*
X272835523Y72301619D01*
X272740285Y72254000D01*
X272692666Y72206380D01*
X272645047Y72111142D01*
X272645047Y71968285D01*
X272692666Y71873047D01*
X272740285Y71825428D01*
X272835523Y71777809D01*
X273216476Y71777809D01*
X271692666Y71301619D02*
X272264095Y71301619D01*
X271978380Y71301619D02*
X271978380Y72301619D01*
X272073619Y72158761D01*
X272168857Y72063523D01*
X272264095Y72015904D01*
X271359333Y72301619D02*
X270740285Y72301619D01*
X271073619Y71920666D01*
X270930761Y71920666D01*
X270835523Y71873047D01*
X270787904Y71825428D01*
X270740285Y71730190D01*
X270740285Y71492095D01*
X270787904Y71396857D01*
X270835523Y71349238D01*
X270930761Y71301619D01*
X271216476Y71301619D01*
X271311714Y71349238D01*
X271359333Y71396857D01*
X269835523Y72301619D02*
X270311714Y72301619D01*
X270359333Y71825428D01*
X270311714Y71873047D01*
X270216476Y71920666D01*
X269978380Y71920666D01*
X269883142Y71873047D01*
X269835523Y71825428D01*
X269787904Y71730190D01*
X269787904Y71492095D01*
X269835523Y71396857D01*
X269883142Y71349238D01*
X269978380Y71301619D01*
X270216476Y71301619D01*
X270311714Y71349238D01*
X270359333Y71396857D01*
X82961046Y124325047D02*
X82484856Y124658380D01*
X82961046Y124896476D02*
X81961046Y124896476D01*
X81961046Y124515523D01*
X82008666Y124420285D01*
X82056285Y124372666D01*
X82151523Y124325047D01*
X82294380Y124325047D01*
X82389618Y124372666D01*
X82437237Y124420285D01*
X82484856Y124515523D01*
X82484856Y124896476D01*
X82961046Y123372666D02*
X82961046Y123944095D01*
X82961046Y123658380D02*
X81961046Y123658380D01*
X82103904Y123753619D01*
X82199142Y123848857D01*
X82246761Y123944095D01*
X82389618Y122801238D02*
X82341999Y122896476D01*
X82294380Y122944095D01*
X82199142Y122991714D01*
X82151523Y122991714D01*
X82056285Y122944095D01*
X82008666Y122896476D01*
X81961046Y122801238D01*
X81961046Y122610761D01*
X82008666Y122515523D01*
X82056285Y122467904D01*
X82151523Y122420285D01*
X82199142Y122420285D01*
X82294380Y122467904D01*
X82341999Y122515523D01*
X82389618Y122610761D01*
X82389618Y122801238D01*
X82437237Y122896476D01*
X82484856Y122944095D01*
X82580094Y122991714D01*
X82770570Y122991714D01*
X82865808Y122944095D01*
X82913427Y122896476D01*
X82961046Y122801238D01*
X82961046Y122610761D01*
X82913427Y122515523D01*
X82865808Y122467904D01*
X82770570Y122420285D01*
X82580094Y122420285D01*
X82484856Y122467904D01*
X82437237Y122515523D01*
X82389618Y122610761D01*
X82294380Y121563142D02*
X82961046Y121563142D01*
X81913427Y121801238D02*
X82627713Y122039333D01*
X82627713Y121420285D01*
X79828380Y124325047D02*
X79352190Y124658380D01*
X79828380Y124896476D02*
X78828380Y124896476D01*
X78828380Y124515523D01*
X78876000Y124420285D01*
X78923619Y124372666D01*
X79018857Y124325047D01*
X79161714Y124325047D01*
X79256952Y124372666D01*
X79304571Y124420285D01*
X79352190Y124515523D01*
X79352190Y124896476D01*
X79828380Y123372666D02*
X79828380Y123944095D01*
X79828380Y123658380D02*
X78828380Y123658380D01*
X78971238Y123753619D01*
X79066476Y123848857D01*
X79114095Y123944095D01*
X79256952Y122801238D02*
X79209333Y122896476D01*
X79161714Y122944095D01*
X79066476Y122991714D01*
X79018857Y122991714D01*
X78923619Y122944095D01*
X78876000Y122896476D01*
X78828380Y122801238D01*
X78828380Y122610761D01*
X78876000Y122515523D01*
X78923619Y122467904D01*
X79018857Y122420285D01*
X79066476Y122420285D01*
X79161714Y122467904D01*
X79209333Y122515523D01*
X79256952Y122610761D01*
X79256952Y122801238D01*
X79304571Y122896476D01*
X79352190Y122944095D01*
X79447428Y122991714D01*
X79637904Y122991714D01*
X79733142Y122944095D01*
X79780761Y122896476D01*
X79828380Y122801238D01*
X79828380Y122610761D01*
X79780761Y122515523D01*
X79733142Y122467904D01*
X79637904Y122420285D01*
X79447428Y122420285D01*
X79352190Y122467904D01*
X79304571Y122515523D01*
X79256952Y122610761D01*
X78828380Y121563142D02*
X78828380Y121753619D01*
X78876000Y121848857D01*
X78923619Y121896476D01*
X79066476Y121991714D01*
X79256952Y122039333D01*
X79637904Y122039333D01*
X79733142Y121991714D01*
X79780761Y121944095D01*
X79828380Y121848857D01*
X79828380Y121658380D01*
X79780761Y121563142D01*
X79733142Y121515523D01*
X79637904Y121467904D01*
X79399809Y121467904D01*
X79304571Y121515523D01*
X79256952Y121563142D01*
X79209333Y121658380D01*
X79209333Y121848857D01*
X79256952Y121944095D01*
X79304571Y121991714D01*
X79399809Y122039333D01*
X273661047Y24396287D02*
X273994380Y24872477D01*
X274232476Y24396287D02*
X274232476Y25396287D01*
X273851523Y25396287D01*
X273756285Y25348668D01*
X273708666Y25301048D01*
X273661047Y25205810D01*
X273661047Y25062953D01*
X273708666Y24967715D01*
X273756285Y24920096D01*
X273851523Y24872477D01*
X274232476Y24872477D01*
X272708666Y24396287D02*
X273280095Y24396287D01*
X272994380Y24396287D02*
X272994380Y25396287D01*
X273089619Y25253429D01*
X273184857Y25158191D01*
X273280095Y25110572D01*
X271851523Y25396287D02*
X272042000Y25396287D01*
X272137238Y25348668D01*
X272184857Y25301048D01*
X272280095Y25158191D01*
X272327714Y24967715D01*
X272327714Y24586763D01*
X272280095Y24491525D01*
X272232476Y24443906D01*
X272137238Y24396287D01*
X271946761Y24396287D01*
X271851523Y24443906D01*
X271803904Y24491525D01*
X271756285Y24586763D01*
X271756285Y24824858D01*
X271803904Y24920096D01*
X271851523Y24967715D01*
X271946761Y25015334D01*
X272137238Y25015334D01*
X272232476Y24967715D01*
X272280095Y24920096D01*
X272327714Y24824858D01*
X271280095Y24396287D02*
X271089619Y24396287D01*
X270994380Y24443906D01*
X270946761Y24491525D01*
X270851523Y24634382D01*
X270803904Y24824858D01*
X270803904Y25205810D01*
X270851523Y25301048D01*
X270899142Y25348668D01*
X270994380Y25396287D01*
X271184857Y25396287D01*
X271280095Y25348668D01*
X271327714Y25301048D01*
X271375333Y25205810D01*
X271375333Y24967715D01*
X271327714Y24872477D01*
X271280095Y24824858D01*
X271184857Y24777239D01*
X270994380Y24777239D01*
X270899142Y24824858D01*
X270851523Y24872477D01*
X270803904Y24967715D01*
X219305047Y52251619D02*
X219638380Y52727809D01*
X219876476Y52251619D02*
X219876476Y53251619D01*
X219495523Y53251619D01*
X219400285Y53204000D01*
X219352666Y53156380D01*
X219305047Y53061142D01*
X219305047Y52918285D01*
X219352666Y52823047D01*
X219400285Y52775428D01*
X219495523Y52727809D01*
X219876476Y52727809D01*
X218352666Y52251619D02*
X218924095Y52251619D01*
X218638380Y52251619D02*
X218638380Y53251619D01*
X218733619Y53108761D01*
X218828857Y53013523D01*
X218924095Y52965904D01*
X217495523Y52918285D02*
X217495523Y52251619D01*
X217733619Y53299238D02*
X217971714Y52584952D01*
X217352666Y52584952D01*
X217019333Y53156380D02*
X216971714Y53204000D01*
X216876476Y53251619D01*
X216638380Y53251619D01*
X216543142Y53204000D01*
X216495523Y53156380D01*
X216447904Y53061142D01*
X216447904Y52965904D01*
X216495523Y52823047D01*
X217066952Y52251619D01*
X216447904Y52251619D01*
X257379380Y144840547D02*
X256903190Y145173880D01*
X257379380Y145411976D02*
X256379380Y145411976D01*
X256379380Y145031023D01*
X256427000Y144935785D01*
X256474619Y144888166D01*
X256569857Y144840547D01*
X256712714Y144840547D01*
X256807952Y144888166D01*
X256855571Y144935785D01*
X256903190Y145031023D01*
X256903190Y145411976D01*
X257379380Y143888166D02*
X257379380Y144459595D01*
X257379380Y144173880D02*
X256379380Y144173880D01*
X256522238Y144269119D01*
X256617476Y144364357D01*
X256665095Y144459595D01*
X256474619Y143507214D02*
X256427000Y143459595D01*
X256379380Y143364357D01*
X256379380Y143126261D01*
X256427000Y143031023D01*
X256474619Y142983404D01*
X256569857Y142935785D01*
X256665095Y142935785D01*
X256807952Y142983404D01*
X257379380Y143554833D01*
X257379380Y142935785D01*
X256712714Y142078642D02*
X257379380Y142078642D01*
X256331761Y142316738D02*
X257046047Y142554833D01*
X257046047Y141935785D01*
X219813047Y16183619D02*
X220146380Y16659809D01*
X220384476Y16183619D02*
X220384476Y17183619D01*
X220003523Y17183619D01*
X219908285Y17136000D01*
X219860666Y17088380D01*
X219813047Y16993142D01*
X219813047Y16850285D01*
X219860666Y16755047D01*
X219908285Y16707428D01*
X220003523Y16659809D01*
X220384476Y16659809D01*
X218860666Y16183619D02*
X219432095Y16183619D01*
X219146380Y16183619D02*
X219146380Y17183619D01*
X219241619Y17040761D01*
X219336857Y16945523D01*
X219432095Y16897904D01*
X217955904Y17183619D02*
X218432095Y17183619D01*
X218479714Y16707428D01*
X218432095Y16755047D01*
X218336857Y16802666D01*
X218098761Y16802666D01*
X218003523Y16755047D01*
X217955904Y16707428D01*
X217908285Y16612190D01*
X217908285Y16374095D01*
X217955904Y16278857D01*
X218003523Y16231238D01*
X218098761Y16183619D01*
X218336857Y16183619D01*
X218432095Y16231238D01*
X218479714Y16278857D01*
X217289238Y17183619D02*
X217194000Y17183619D01*
X217098761Y17136000D01*
X217051142Y17088380D01*
X217003523Y16993142D01*
X216955904Y16802666D01*
X216955904Y16564571D01*
X217003523Y16374095D01*
X217051142Y16278857D01*
X217098761Y16231238D01*
X217194000Y16183619D01*
X217289238Y16183619D01*
X217384476Y16231238D01*
X217432095Y16278857D01*
X217479714Y16374095D01*
X217527333Y16564571D01*
X217527333Y16802666D01*
X217479714Y16993142D01*
X217432095Y17088380D01*
X217384476Y17136000D01*
X217289238Y17183619D01*
X219305047Y45987619D02*
X219638380Y46463809D01*
X219876476Y45987619D02*
X219876476Y46987619D01*
X219495523Y46987619D01*
X219400285Y46940000D01*
X219352666Y46892380D01*
X219305047Y46797142D01*
X219305047Y46654285D01*
X219352666Y46559047D01*
X219400285Y46511428D01*
X219495523Y46463809D01*
X219876476Y46463809D01*
X218352666Y45987619D02*
X218924095Y45987619D01*
X218638380Y45987619D02*
X218638380Y46987619D01*
X218733619Y46844761D01*
X218828857Y46749523D01*
X218924095Y46701904D01*
X218019333Y46987619D02*
X217352666Y46987619D01*
X217781238Y45987619D01*
X216781238Y46987619D02*
X216686000Y46987619D01*
X216590761Y46940000D01*
X216543142Y46892380D01*
X216495523Y46797142D01*
X216447904Y46606666D01*
X216447904Y46368571D01*
X216495523Y46178095D01*
X216543142Y46082857D01*
X216590761Y46035238D01*
X216686000Y45987619D01*
X216781238Y45987619D01*
X216876476Y46035238D01*
X216924095Y46082857D01*
X216971714Y46178095D01*
X217019333Y46368571D01*
X217019333Y46606666D01*
X216971714Y46797142D01*
X216924095Y46892380D01*
X216876476Y46940000D01*
X216781238Y46987619D01*
X219049047Y61997619D02*
X219382380Y62473809D01*
X219620476Y61997619D02*
X219620476Y62997619D01*
X219239523Y62997619D01*
X219144285Y62950000D01*
X219096666Y62902380D01*
X219049047Y62807142D01*
X219049047Y62664285D01*
X219096666Y62569047D01*
X219144285Y62521428D01*
X219239523Y62473809D01*
X219620476Y62473809D01*
X218096666Y61997619D02*
X218668095Y61997619D01*
X218382380Y61997619D02*
X218382380Y62997619D01*
X218477619Y62854761D01*
X218572857Y62759523D01*
X218668095Y62711904D01*
X217763333Y62997619D02*
X217096666Y62997619D01*
X217525238Y61997619D01*
X216191904Y61997619D02*
X216763333Y61997619D01*
X216477619Y61997619D02*
X216477619Y62997619D01*
X216572857Y62854761D01*
X216668095Y62759523D01*
X216763333Y62711904D01*
X257405047Y44633619D02*
X257738380Y45109809D01*
X257976476Y44633619D02*
X257976476Y45633619D01*
X257595523Y45633619D01*
X257500285Y45586000D01*
X257452666Y45538380D01*
X257405047Y45443142D01*
X257405047Y45300285D01*
X257452666Y45205047D01*
X257500285Y45157428D01*
X257595523Y45109809D01*
X257976476Y45109809D01*
X256452666Y44633619D02*
X257024095Y44633619D01*
X256738380Y44633619D02*
X256738380Y45633619D01*
X256833619Y45490761D01*
X256928857Y45395523D01*
X257024095Y45347904D01*
X256119333Y45633619D02*
X255500285Y45633619D01*
X255833619Y45252666D01*
X255690761Y45252666D01*
X255595523Y45205047D01*
X255547904Y45157428D01*
X255500285Y45062190D01*
X255500285Y44824095D01*
X255547904Y44728857D01*
X255595523Y44681238D01*
X255690761Y44633619D01*
X255976476Y44633619D01*
X256071714Y44681238D01*
X256119333Y44728857D01*
X255166952Y45633619D02*
X254547904Y45633619D01*
X254881238Y45252666D01*
X254738380Y45252666D01*
X254643142Y45205047D01*
X254595523Y45157428D01*
X254547904Y45062190D01*
X254547904Y44824095D01*
X254595523Y44728857D01*
X254643142Y44681238D01*
X254738380Y44633619D01*
X255024095Y44633619D01*
X255119333Y44681238D01*
X255166952Y44728857D01*
X265246380Y130659047D02*
X264770190Y130992380D01*
X265246380Y131230476D02*
X264246380Y131230476D01*
X264246380Y130849523D01*
X264294000Y130754285D01*
X264341619Y130706666D01*
X264436857Y130659047D01*
X264579714Y130659047D01*
X264674952Y130706666D01*
X264722571Y130754285D01*
X264770190Y130849523D01*
X264770190Y131230476D01*
X265246380Y129706666D02*
X265246380Y130278095D01*
X265246380Y129992380D02*
X264246380Y129992380D01*
X264389238Y130087619D01*
X264484476Y130182857D01*
X264532095Y130278095D01*
X264246380Y129087619D02*
X264246380Y128992380D01*
X264294000Y128897142D01*
X264341619Y128849523D01*
X264436857Y128801904D01*
X264627333Y128754285D01*
X264865428Y128754285D01*
X265055904Y128801904D01*
X265151142Y128849523D01*
X265198761Y128897142D01*
X265246380Y128992380D01*
X265246380Y129087619D01*
X265198761Y129182857D01*
X265151142Y129230476D01*
X265055904Y129278095D01*
X264865428Y129325714D01*
X264627333Y129325714D01*
X264436857Y129278095D01*
X264341619Y129230476D01*
X264294000Y129182857D01*
X264246380Y129087619D01*
X264674952Y128182857D02*
X264627333Y128278095D01*
X264579714Y128325714D01*
X264484476Y128373333D01*
X264436857Y128373333D01*
X264341619Y128325714D01*
X264294000Y128278095D01*
X264246380Y128182857D01*
X264246380Y127992380D01*
X264294000Y127897142D01*
X264341619Y127849523D01*
X264436857Y127801904D01*
X264484476Y127801904D01*
X264579714Y127849523D01*
X264627333Y127897142D01*
X264674952Y127992380D01*
X264674952Y128182857D01*
X264722571Y128278095D01*
X264770190Y128325714D01*
X264865428Y128373333D01*
X265055904Y128373333D01*
X265151142Y128325714D01*
X265198761Y128278095D01*
X265246380Y128182857D01*
X265246380Y127992380D01*
X265198761Y127897142D01*
X265151142Y127849523D01*
X265055904Y127801904D01*
X264865428Y127801904D01*
X264770190Y127849523D01*
X264722571Y127897142D01*
X264674952Y127992380D01*
X272661047Y51743619D02*
X272994380Y52219809D01*
X273232476Y51743619D02*
X273232476Y52743619D01*
X272851523Y52743619D01*
X272756285Y52696000D01*
X272708666Y52648380D01*
X272661047Y52553142D01*
X272661047Y52410285D01*
X272708666Y52315047D01*
X272756285Y52267428D01*
X272851523Y52219809D01*
X273232476Y52219809D01*
X271708666Y51743619D02*
X272280095Y51743619D01*
X271994380Y51743619D02*
X271994380Y52743619D01*
X272089619Y52600761D01*
X272184857Y52505523D01*
X272280095Y52457904D01*
X270851523Y52410285D02*
X270851523Y51743619D01*
X271089619Y52791238D02*
X271327714Y52076952D01*
X270708666Y52076952D01*
X269803904Y51743619D02*
X270375333Y51743619D01*
X270089619Y51743619D02*
X270089619Y52743619D01*
X270184857Y52600761D01*
X270280095Y52505523D01*
X270375333Y52457904D01*
X263976380Y98655047D02*
X263500190Y98988380D01*
X263976380Y99226476D02*
X262976380Y99226476D01*
X262976380Y98845523D01*
X263024000Y98750285D01*
X263071619Y98702666D01*
X263166857Y98655047D01*
X263309714Y98655047D01*
X263404952Y98702666D01*
X263452571Y98750285D01*
X263500190Y98845523D01*
X263500190Y99226476D01*
X263976380Y97702666D02*
X263976380Y98274095D01*
X263976380Y97988380D02*
X262976380Y97988380D01*
X263119238Y98083619D01*
X263214476Y98178857D01*
X263262095Y98274095D01*
X263071619Y97321714D02*
X263024000Y97274095D01*
X262976380Y97178857D01*
X262976380Y96940761D01*
X263024000Y96845523D01*
X263071619Y96797904D01*
X263166857Y96750285D01*
X263262095Y96750285D01*
X263404952Y96797904D01*
X263976380Y97369333D01*
X263976380Y96750285D01*
X262976380Y96416952D02*
X262976380Y95750285D01*
X263976380Y96178857D01*
X273661047Y31169619D02*
X273994380Y31645809D01*
X274232476Y31169619D02*
X274232476Y32169619D01*
X273851523Y32169619D01*
X273756285Y32122000D01*
X273708666Y32074380D01*
X273661047Y31979142D01*
X273661047Y31836285D01*
X273708666Y31741047D01*
X273756285Y31693428D01*
X273851523Y31645809D01*
X274232476Y31645809D01*
X272708666Y31169619D02*
X273280095Y31169619D01*
X272994380Y31169619D02*
X272994380Y32169619D01*
X273089619Y32026761D01*
X273184857Y31931523D01*
X273280095Y31883904D01*
X271851523Y32169619D02*
X272042000Y32169619D01*
X272137238Y32122000D01*
X272184857Y32074380D01*
X272280095Y31931523D01*
X272327714Y31741047D01*
X272327714Y31360095D01*
X272280095Y31264857D01*
X272232476Y31217238D01*
X272137238Y31169619D01*
X271946761Y31169619D01*
X271851523Y31217238D01*
X271803904Y31264857D01*
X271756285Y31360095D01*
X271756285Y31598190D01*
X271803904Y31693428D01*
X271851523Y31741047D01*
X271946761Y31788666D01*
X272137238Y31788666D01*
X272232476Y31741047D01*
X272280095Y31693428D01*
X272327714Y31598190D01*
X271422952Y32169619D02*
X270756285Y32169619D01*
X271184857Y31169619D01*
X219829047Y28629619D02*
X220162380Y29105809D01*
X220400476Y28629619D02*
X220400476Y29629619D01*
X220019523Y29629619D01*
X219924285Y29582000D01*
X219876666Y29534380D01*
X219829047Y29439142D01*
X219829047Y29296285D01*
X219876666Y29201047D01*
X219924285Y29153428D01*
X220019523Y29105809D01*
X220400476Y29105809D01*
X218876666Y28629619D02*
X219448095Y28629619D01*
X219162380Y28629619D02*
X219162380Y29629619D01*
X219257619Y29486761D01*
X219352857Y29391523D01*
X219448095Y29343904D01*
X217971904Y29629619D02*
X218448095Y29629619D01*
X218495714Y29153428D01*
X218448095Y29201047D01*
X218352857Y29248666D01*
X218114761Y29248666D01*
X218019523Y29201047D01*
X217971904Y29153428D01*
X217924285Y29058190D01*
X217924285Y28820095D01*
X217971904Y28724857D01*
X218019523Y28677238D01*
X218114761Y28629619D01*
X218352857Y28629619D01*
X218448095Y28677238D01*
X218495714Y28724857D01*
X217019523Y29629619D02*
X217495714Y29629619D01*
X217543333Y29153428D01*
X217495714Y29201047D01*
X217400476Y29248666D01*
X217162380Y29248666D01*
X217067142Y29201047D01*
X217019523Y29153428D01*
X216971904Y29058190D01*
X216971904Y28820095D01*
X217019523Y28724857D01*
X217067142Y28677238D01*
X217162380Y28629619D01*
X217400476Y28629619D01*
X217495714Y28677238D01*
X217543333Y28724857D01*
X283407380Y130397047D02*
X282931190Y130730380D01*
X283407380Y130968476D02*
X282407380Y130968476D01*
X282407380Y130587523D01*
X282455000Y130492285D01*
X282502619Y130444666D01*
X282597857Y130397047D01*
X282740714Y130397047D01*
X282835952Y130444666D01*
X282883571Y130492285D01*
X282931190Y130587523D01*
X282931190Y130968476D01*
X283407380Y129444666D02*
X283407380Y130016095D01*
X283407380Y129730380D02*
X282407380Y129730380D01*
X282550238Y129825619D01*
X282645476Y129920857D01*
X282693095Y130016095D01*
X283407380Y128492285D02*
X283407380Y129063714D01*
X283407380Y128778000D02*
X282407380Y128778000D01*
X282550238Y128873238D01*
X282645476Y128968476D01*
X282693095Y129063714D01*
X282407380Y128158952D02*
X282407380Y127539904D01*
X282788333Y127873238D01*
X282788333Y127730380D01*
X282835952Y127635142D01*
X282883571Y127587523D01*
X282978809Y127539904D01*
X283216904Y127539904D01*
X283312142Y127587523D01*
X283359761Y127635142D01*
X283407380Y127730380D01*
X283407380Y128016095D01*
X283359761Y128111333D01*
X283312142Y128158952D01*
X276803380Y130397047D02*
X276327190Y130730380D01*
X276803380Y130968476D02*
X275803380Y130968476D01*
X275803380Y130587523D01*
X275851000Y130492285D01*
X275898619Y130444666D01*
X275993857Y130397047D01*
X276136714Y130397047D01*
X276231952Y130444666D01*
X276279571Y130492285D01*
X276327190Y130587523D01*
X276327190Y130968476D01*
X276803380Y129444666D02*
X276803380Y130016095D01*
X276803380Y129730380D02*
X275803380Y129730380D01*
X275946238Y129825619D01*
X276041476Y129920857D01*
X276089095Y130016095D01*
X276803380Y128492285D02*
X276803380Y129063714D01*
X276803380Y128778000D02*
X275803380Y128778000D01*
X275946238Y128873238D01*
X276041476Y128968476D01*
X276089095Y129063714D01*
X275803380Y127587523D02*
X275803380Y128063714D01*
X276279571Y128111333D01*
X276231952Y128063714D01*
X276184333Y127968476D01*
X276184333Y127730380D01*
X276231952Y127635142D01*
X276279571Y127587523D01*
X276374809Y127539904D01*
X276612904Y127539904D01*
X276708142Y127587523D01*
X276755761Y127635142D01*
X276803380Y127730380D01*
X276803380Y127968476D01*
X276755761Y128063714D01*
X276708142Y128111333D01*
X274644380Y98671047D02*
X274168190Y99004380D01*
X274644380Y99242476D02*
X273644380Y99242476D01*
X273644380Y98861523D01*
X273692000Y98766285D01*
X273739619Y98718666D01*
X273834857Y98671047D01*
X273977714Y98671047D01*
X274072952Y98718666D01*
X274120571Y98766285D01*
X274168190Y98861523D01*
X274168190Y99242476D01*
X274644380Y97718666D02*
X274644380Y98290095D01*
X274644380Y98004380D02*
X273644380Y98004380D01*
X273787238Y98099619D01*
X273882476Y98194857D01*
X273930095Y98290095D01*
X273739619Y97337714D02*
X273692000Y97290095D01*
X273644380Y97194857D01*
X273644380Y96956761D01*
X273692000Y96861523D01*
X273739619Y96813904D01*
X273834857Y96766285D01*
X273930095Y96766285D01*
X274072952Y96813904D01*
X274644380Y97385333D01*
X274644380Y96766285D01*
X274644380Y96290095D02*
X274644380Y96099619D01*
X274596761Y96004380D01*
X274549142Y95956761D01*
X274406285Y95861523D01*
X274215809Y95813904D01*
X273834857Y95813904D01*
X273739619Y95861523D01*
X273692000Y95909142D01*
X273644380Y96004380D01*
X273644380Y96194857D01*
X273692000Y96290095D01*
X273739619Y96337714D01*
X273834857Y96385333D01*
X274072952Y96385333D01*
X274168190Y96337714D01*
X274215809Y96290095D01*
X274263428Y96194857D01*
X274263428Y96004380D01*
X274215809Y95909142D01*
X274168190Y95861523D01*
X274072952Y95813904D01*
X257103380Y98655047D02*
X256627190Y98988380D01*
X257103380Y99226476D02*
X256103380Y99226476D01*
X256103380Y98845523D01*
X256151000Y98750285D01*
X256198619Y98702666D01*
X256293857Y98655047D01*
X256436714Y98655047D01*
X256531952Y98702666D01*
X256579571Y98750285D01*
X256627190Y98845523D01*
X256627190Y99226476D01*
X257103380Y97702666D02*
X257103380Y98274095D01*
X257103380Y97988380D02*
X256103380Y97988380D01*
X256246238Y98083619D01*
X256341476Y98178857D01*
X256389095Y98274095D01*
X256198619Y97321714D02*
X256151000Y97274095D01*
X256103380Y97178857D01*
X256103380Y96940761D01*
X256151000Y96845523D01*
X256198619Y96797904D01*
X256293857Y96750285D01*
X256389095Y96750285D01*
X256531952Y96797904D01*
X257103380Y97369333D01*
X257103380Y96750285D01*
X256103380Y95893142D02*
X256103380Y96083619D01*
X256151000Y96178857D01*
X256198619Y96226476D01*
X256341476Y96321714D01*
X256531952Y96369333D01*
X256912904Y96369333D01*
X257008142Y96321714D01*
X257055761Y96274095D01*
X257103380Y96178857D01*
X257103380Y95988380D01*
X257055761Y95893142D01*
X257008142Y95845523D01*
X256912904Y95797904D01*
X256674809Y95797904D01*
X256579571Y95845523D01*
X256531952Y95893142D01*
X256484333Y95988380D01*
X256484333Y96178857D01*
X256531952Y96274095D01*
X256579571Y96321714D01*
X256674809Y96369333D01*
X271327380Y98671047D02*
X270851190Y99004380D01*
X271327380Y99242476D02*
X270327380Y99242476D01*
X270327380Y98861523D01*
X270375000Y98766285D01*
X270422619Y98718666D01*
X270517857Y98671047D01*
X270660714Y98671047D01*
X270755952Y98718666D01*
X270803571Y98766285D01*
X270851190Y98861523D01*
X270851190Y99242476D01*
X271327380Y97718666D02*
X271327380Y98290095D01*
X271327380Y98004380D02*
X270327380Y98004380D01*
X270470238Y98099619D01*
X270565476Y98194857D01*
X270613095Y98290095D01*
X270327380Y97385333D02*
X270327380Y96766285D01*
X270708333Y97099619D01*
X270708333Y96956761D01*
X270755952Y96861523D01*
X270803571Y96813904D01*
X270898809Y96766285D01*
X271136904Y96766285D01*
X271232142Y96813904D01*
X271279761Y96861523D01*
X271327380Y96956761D01*
X271327380Y97242476D01*
X271279761Y97337714D01*
X271232142Y97385333D01*
X271327380Y95813904D02*
X271327380Y96385333D01*
X271327380Y96099619D02*
X270327380Y96099619D01*
X270470238Y96194857D01*
X270565476Y96290095D01*
X270613095Y96385333D01*
X219305047Y58347619D02*
X219638380Y58823809D01*
X219876476Y58347619D02*
X219876476Y59347619D01*
X219495523Y59347619D01*
X219400285Y59300000D01*
X219352666Y59252380D01*
X219305047Y59157142D01*
X219305047Y59014285D01*
X219352666Y58919047D01*
X219400285Y58871428D01*
X219495523Y58823809D01*
X219876476Y58823809D01*
X218352666Y58347619D02*
X218924095Y58347619D01*
X218638380Y58347619D02*
X218638380Y59347619D01*
X218733619Y59204761D01*
X218828857Y59109523D01*
X218924095Y59061904D01*
X217495523Y59014285D02*
X217495523Y58347619D01*
X217733619Y59395238D02*
X217971714Y58680952D01*
X217352666Y58680952D01*
X216543142Y59014285D02*
X216543142Y58347619D01*
X216781238Y59395238D02*
X217019333Y58680952D01*
X216400285Y58680952D01*
X280105380Y130397047D02*
X279629190Y130730380D01*
X280105380Y130968476D02*
X279105380Y130968476D01*
X279105380Y130587523D01*
X279153000Y130492285D01*
X279200619Y130444666D01*
X279295857Y130397047D01*
X279438714Y130397047D01*
X279533952Y130444666D01*
X279581571Y130492285D01*
X279629190Y130587523D01*
X279629190Y130968476D01*
X280105380Y129444666D02*
X280105380Y130016095D01*
X280105380Y129730380D02*
X279105380Y129730380D01*
X279248238Y129825619D01*
X279343476Y129920857D01*
X279391095Y130016095D01*
X280105380Y128492285D02*
X280105380Y129063714D01*
X280105380Y128778000D02*
X279105380Y128778000D01*
X279248238Y128873238D01*
X279343476Y128968476D01*
X279391095Y129063714D01*
X279438714Y127635142D02*
X280105380Y127635142D01*
X279057761Y127873238D02*
X279772047Y128111333D01*
X279772047Y127492285D01*
X88718380Y136263047D02*
X88242190Y136596380D01*
X88718380Y136834476D02*
X87718380Y136834476D01*
X87718380Y136453523D01*
X87766000Y136358285D01*
X87813619Y136310666D01*
X87908857Y136263047D01*
X88051714Y136263047D01*
X88146952Y136310666D01*
X88194571Y136358285D01*
X88242190Y136453523D01*
X88242190Y136834476D01*
X88718380Y135310666D02*
X88718380Y135882095D01*
X88718380Y135596380D02*
X87718380Y135596380D01*
X87861238Y135691619D01*
X87956476Y135786857D01*
X88004095Y135882095D01*
X87718380Y134977333D02*
X87718380Y134310666D01*
X88718380Y134739238D01*
X87718380Y133501142D02*
X87718380Y133691619D01*
X87766000Y133786857D01*
X87813619Y133834476D01*
X87956476Y133929714D01*
X88146952Y133977333D01*
X88527904Y133977333D01*
X88623142Y133929714D01*
X88670761Y133882095D01*
X88718380Y133786857D01*
X88718380Y133596380D01*
X88670761Y133501142D01*
X88623142Y133453523D01*
X88527904Y133405904D01*
X88289809Y133405904D01*
X88194571Y133453523D01*
X88146952Y133501142D01*
X88099333Y133596380D01*
X88099333Y133786857D01*
X88146952Y133882095D01*
X88194571Y133929714D01*
X88289809Y133977333D01*
X219019047Y65077619D02*
X219352380Y65553809D01*
X219590476Y65077619D02*
X219590476Y66077619D01*
X219209523Y66077619D01*
X219114285Y66030000D01*
X219066666Y65982380D01*
X219019047Y65887142D01*
X219019047Y65744285D01*
X219066666Y65649047D01*
X219114285Y65601428D01*
X219209523Y65553809D01*
X219590476Y65553809D01*
X218066666Y65077619D02*
X218638095Y65077619D01*
X218352380Y65077619D02*
X218352380Y66077619D01*
X218447619Y65934761D01*
X218542857Y65839523D01*
X218638095Y65791904D01*
X217733333Y66077619D02*
X217066666Y66077619D01*
X217495238Y65077619D01*
X216780952Y66077619D02*
X216161904Y66077619D01*
X216495238Y65696666D01*
X216352380Y65696666D01*
X216257142Y65649047D01*
X216209523Y65601428D01*
X216161904Y65506190D01*
X216161904Y65268095D01*
X216209523Y65172857D01*
X216257142Y65125238D01*
X216352380Y65077619D01*
X216638095Y65077619D01*
X216733333Y65125238D01*
X216780952Y65172857D01*
X219813047Y38535619D02*
X220146380Y39011809D01*
X220384476Y38535619D02*
X220384476Y39535619D01*
X220003523Y39535619D01*
X219908285Y39488000D01*
X219860666Y39440380D01*
X219813047Y39345142D01*
X219813047Y39202285D01*
X219860666Y39107047D01*
X219908285Y39059428D01*
X220003523Y39011809D01*
X220384476Y39011809D01*
X218860666Y38535619D02*
X219432095Y38535619D01*
X219146380Y38535619D02*
X219146380Y39535619D01*
X219241619Y39392761D01*
X219336857Y39297523D01*
X219432095Y39249904D01*
X217955904Y39535619D02*
X218432095Y39535619D01*
X218479714Y39059428D01*
X218432095Y39107047D01*
X218336857Y39154666D01*
X218098761Y39154666D01*
X218003523Y39107047D01*
X217955904Y39059428D01*
X217908285Y38964190D01*
X217908285Y38726095D01*
X217955904Y38630857D01*
X218003523Y38583238D01*
X218098761Y38535619D01*
X218336857Y38535619D01*
X218432095Y38583238D01*
X218479714Y38630857D01*
X217527333Y39440380D02*
X217479714Y39488000D01*
X217384476Y39535619D01*
X217146380Y39535619D01*
X217051142Y39488000D01*
X217003523Y39440380D01*
X216955904Y39345142D01*
X216955904Y39249904D01*
X217003523Y39107047D01*
X217574952Y38535619D01*
X216955904Y38535619D01*
X218999047Y68077619D02*
X219332380Y68553809D01*
X219570476Y68077619D02*
X219570476Y69077619D01*
X219189523Y69077619D01*
X219094285Y69030000D01*
X219046666Y68982380D01*
X218999047Y68887142D01*
X218999047Y68744285D01*
X219046666Y68649047D01*
X219094285Y68601428D01*
X219189523Y68553809D01*
X219570476Y68553809D01*
X218046666Y68077619D02*
X218618095Y68077619D01*
X218332380Y68077619D02*
X218332380Y69077619D01*
X218427619Y68934761D01*
X218522857Y68839523D01*
X218618095Y68791904D01*
X217189523Y68744285D02*
X217189523Y68077619D01*
X217427619Y69125238D02*
X217665714Y68410952D01*
X217046666Y68410952D01*
X216189523Y69077619D02*
X216665714Y69077619D01*
X216713333Y68601428D01*
X216665714Y68649047D01*
X216570476Y68696666D01*
X216332380Y68696666D01*
X216237142Y68649047D01*
X216189523Y68601428D01*
X216141904Y68506190D01*
X216141904Y68268095D01*
X216189523Y68172857D01*
X216237142Y68125238D01*
X216332380Y68077619D01*
X216570476Y68077619D01*
X216665714Y68125238D01*
X216713333Y68172857D01*
X96592380Y136263047D02*
X96116190Y136596380D01*
X96592380Y136834476D02*
X95592380Y136834476D01*
X95592380Y136453523D01*
X95640000Y136358285D01*
X95687619Y136310666D01*
X95782857Y136263047D01*
X95925714Y136263047D01*
X96020952Y136310666D01*
X96068571Y136358285D01*
X96116190Y136453523D01*
X96116190Y136834476D01*
X96592380Y135310666D02*
X96592380Y135882095D01*
X96592380Y135596380D02*
X95592380Y135596380D01*
X95735238Y135691619D01*
X95830476Y135786857D01*
X95878095Y135882095D01*
X96020952Y134739238D02*
X95973333Y134834476D01*
X95925714Y134882095D01*
X95830476Y134929714D01*
X95782857Y134929714D01*
X95687619Y134882095D01*
X95640000Y134834476D01*
X95592380Y134739238D01*
X95592380Y134548761D01*
X95640000Y134453523D01*
X95687619Y134405904D01*
X95782857Y134358285D01*
X95830476Y134358285D01*
X95925714Y134405904D01*
X95973333Y134453523D01*
X96020952Y134548761D01*
X96020952Y134739238D01*
X96068571Y134834476D01*
X96116190Y134882095D01*
X96211428Y134929714D01*
X96401904Y134929714D01*
X96497142Y134882095D01*
X96544761Y134834476D01*
X96592380Y134739238D01*
X96592380Y134548761D01*
X96544761Y134453523D01*
X96497142Y134405904D01*
X96401904Y134358285D01*
X96211428Y134358285D01*
X96116190Y134405904D01*
X96068571Y134453523D01*
X96020952Y134548761D01*
X95592380Y133453523D02*
X95592380Y133929714D01*
X96068571Y133977333D01*
X96020952Y133929714D01*
X95973333Y133834476D01*
X95973333Y133596380D01*
X96020952Y133501142D01*
X96068571Y133453523D01*
X96163809Y133405904D01*
X96401904Y133405904D01*
X96497142Y133453523D01*
X96544761Y133501142D01*
X96592380Y133596380D01*
X96592380Y133834476D01*
X96544761Y133929714D01*
X96497142Y133977333D01*
X260539880Y98655047D02*
X260063690Y98988380D01*
X260539880Y99226476D02*
X259539880Y99226476D01*
X259539880Y98845523D01*
X259587500Y98750285D01*
X259635119Y98702666D01*
X259730357Y98655047D01*
X259873214Y98655047D01*
X259968452Y98702666D01*
X260016071Y98750285D01*
X260063690Y98845523D01*
X260063690Y99226476D01*
X260539880Y97702666D02*
X260539880Y98274095D01*
X260539880Y97988380D02*
X259539880Y97988380D01*
X259682738Y98083619D01*
X259777976Y98178857D01*
X259825595Y98274095D01*
X259635119Y97321714D02*
X259587500Y97274095D01*
X259539880Y97178857D01*
X259539880Y96940761D01*
X259587500Y96845523D01*
X259635119Y96797904D01*
X259730357Y96750285D01*
X259825595Y96750285D01*
X259968452Y96797904D01*
X260539880Y97369333D01*
X260539880Y96750285D01*
X259968452Y96178857D02*
X259920833Y96274095D01*
X259873214Y96321714D01*
X259777976Y96369333D01*
X259730357Y96369333D01*
X259635119Y96321714D01*
X259587500Y96274095D01*
X259539880Y96178857D01*
X259539880Y95988380D01*
X259587500Y95893142D01*
X259635119Y95845523D01*
X259730357Y95797904D01*
X259777976Y95797904D01*
X259873214Y95845523D01*
X259920833Y95893142D01*
X259968452Y95988380D01*
X259968452Y96178857D01*
X260016071Y96274095D01*
X260063690Y96321714D01*
X260158928Y96369333D01*
X260349404Y96369333D01*
X260444642Y96321714D01*
X260492261Y96274095D01*
X260539880Y96178857D01*
X260539880Y95988380D01*
X260492261Y95893142D01*
X260444642Y95845523D01*
X260349404Y95797904D01*
X260158928Y95797904D01*
X260063690Y95845523D01*
X260016071Y95893142D01*
X259968452Y95988380D01*
X272645047Y44633619D02*
X272978380Y45109809D01*
X273216476Y44633619D02*
X273216476Y45633619D01*
X272835523Y45633619D01*
X272740285Y45586000D01*
X272692666Y45538380D01*
X272645047Y45443142D01*
X272645047Y45300285D01*
X272692666Y45205047D01*
X272740285Y45157428D01*
X272835523Y45109809D01*
X273216476Y45109809D01*
X271692666Y44633619D02*
X272264095Y44633619D01*
X271978380Y44633619D02*
X271978380Y45633619D01*
X272073619Y45490761D01*
X272168857Y45395523D01*
X272264095Y45347904D01*
X271359333Y45633619D02*
X270740285Y45633619D01*
X271073619Y45252666D01*
X270930761Y45252666D01*
X270835523Y45205047D01*
X270787904Y45157428D01*
X270740285Y45062190D01*
X270740285Y44824095D01*
X270787904Y44728857D01*
X270835523Y44681238D01*
X270930761Y44633619D01*
X271216476Y44633619D01*
X271311714Y44681238D01*
X271359333Y44728857D01*
X270359333Y45538380D02*
X270311714Y45586000D01*
X270216476Y45633619D01*
X269978380Y45633619D01*
X269883142Y45586000D01*
X269835523Y45538380D01*
X269787904Y45443142D01*
X269787904Y45347904D01*
X269835523Y45205047D01*
X270406952Y44633619D01*
X269787904Y44633619D01*
X219305047Y55299619D02*
X219638380Y55775809D01*
X219876476Y55299619D02*
X219876476Y56299619D01*
X219495523Y56299619D01*
X219400285Y56252000D01*
X219352666Y56204380D01*
X219305047Y56109142D01*
X219305047Y55966285D01*
X219352666Y55871047D01*
X219400285Y55823428D01*
X219495523Y55775809D01*
X219876476Y55775809D01*
X218352666Y55299619D02*
X218924095Y55299619D01*
X218638380Y55299619D02*
X218638380Y56299619D01*
X218733619Y56156761D01*
X218828857Y56061523D01*
X218924095Y56013904D01*
X217495523Y55966285D02*
X217495523Y55299619D01*
X217733619Y56347238D02*
X217971714Y55632952D01*
X217352666Y55632952D01*
X217066952Y56299619D02*
X216447904Y56299619D01*
X216781238Y55918666D01*
X216638380Y55918666D01*
X216543142Y55871047D01*
X216495523Y55823428D01*
X216447904Y55728190D01*
X216447904Y55490095D01*
X216495523Y55394857D01*
X216543142Y55347238D01*
X216638380Y55299619D01*
X216924095Y55299619D01*
X217019333Y55347238D01*
X217066952Y55394857D01*
X271723380Y130659047D02*
X271247190Y130992380D01*
X271723380Y131230476D02*
X270723380Y131230476D01*
X270723380Y130849523D01*
X270771000Y130754285D01*
X270818619Y130706666D01*
X270913857Y130659047D01*
X271056714Y130659047D01*
X271151952Y130706666D01*
X271199571Y130754285D01*
X271247190Y130849523D01*
X271247190Y131230476D01*
X271723380Y129706666D02*
X271723380Y130278095D01*
X271723380Y129992380D02*
X270723380Y129992380D01*
X270866238Y130087619D01*
X270961476Y130182857D01*
X271009095Y130278095D01*
X271723380Y128754285D02*
X271723380Y129325714D01*
X271723380Y129040000D02*
X270723380Y129040000D01*
X270866238Y129135238D01*
X270961476Y129230476D01*
X271009095Y129325714D01*
X270723380Y128135238D02*
X270723380Y128040000D01*
X270771000Y127944761D01*
X270818619Y127897142D01*
X270913857Y127849523D01*
X271104333Y127801904D01*
X271342428Y127801904D01*
X271532904Y127849523D01*
X271628142Y127897142D01*
X271675761Y127944761D01*
X271723380Y128040000D01*
X271723380Y128135238D01*
X271675761Y128230476D01*
X271628142Y128278095D01*
X271532904Y128325714D01*
X271342428Y128373333D01*
X271104333Y128373333D01*
X270913857Y128325714D01*
X270818619Y128278095D01*
X270771000Y128230476D01*
X270723380Y128135238D01*
X260681380Y144840547D02*
X260205190Y145173880D01*
X260681380Y145411976D02*
X259681380Y145411976D01*
X259681380Y145031023D01*
X259729000Y144935785D01*
X259776619Y144888166D01*
X259871857Y144840547D01*
X260014714Y144840547D01*
X260109952Y144888166D01*
X260157571Y144935785D01*
X260205190Y145031023D01*
X260205190Y145411976D01*
X260681380Y143888166D02*
X260681380Y144459595D01*
X260681380Y144173880D02*
X259681380Y144173880D01*
X259824238Y144269119D01*
X259919476Y144364357D01*
X259967095Y144459595D01*
X259776619Y143507214D02*
X259729000Y143459595D01*
X259681380Y143364357D01*
X259681380Y143126261D01*
X259729000Y143031023D01*
X259776619Y142983404D01*
X259871857Y142935785D01*
X259967095Y142935785D01*
X260109952Y142983404D01*
X260681380Y143554833D01*
X260681380Y142935785D01*
X259681380Y142031023D02*
X259681380Y142507214D01*
X260157571Y142554833D01*
X260109952Y142507214D01*
X260062333Y142411976D01*
X260062333Y142173880D01*
X260109952Y142078642D01*
X260157571Y142031023D01*
X260252809Y141983404D01*
X260490904Y141983404D01*
X260586142Y142031023D01*
X260633761Y142078642D01*
X260681380Y142173880D01*
X260681380Y142411976D01*
X260633761Y142507214D01*
X260586142Y142554833D01*
X268484880Y130659047D02*
X268008690Y130992380D01*
X268484880Y131230476D02*
X267484880Y131230476D01*
X267484880Y130849523D01*
X267532500Y130754285D01*
X267580119Y130706666D01*
X267675357Y130659047D01*
X267818214Y130659047D01*
X267913452Y130706666D01*
X267961071Y130754285D01*
X268008690Y130849523D01*
X268008690Y131230476D01*
X268484880Y129706666D02*
X268484880Y130278095D01*
X268484880Y129992380D02*
X267484880Y129992380D01*
X267627738Y130087619D01*
X267722976Y130182857D01*
X267770595Y130278095D01*
X267484880Y129087619D02*
X267484880Y128992380D01*
X267532500Y128897142D01*
X267580119Y128849523D01*
X267675357Y128801904D01*
X267865833Y128754285D01*
X268103928Y128754285D01*
X268294404Y128801904D01*
X268389642Y128849523D01*
X268437261Y128897142D01*
X268484880Y128992380D01*
X268484880Y129087619D01*
X268437261Y129182857D01*
X268389642Y129230476D01*
X268294404Y129278095D01*
X268103928Y129325714D01*
X267865833Y129325714D01*
X267675357Y129278095D01*
X267580119Y129230476D01*
X267532500Y129182857D01*
X267484880Y129087619D01*
X268484880Y128278095D02*
X268484880Y128087619D01*
X268437261Y127992380D01*
X268389642Y127944761D01*
X268246785Y127849523D01*
X268056309Y127801904D01*
X267675357Y127801904D01*
X267580119Y127849523D01*
X267532500Y127897142D01*
X267484880Y127992380D01*
X267484880Y128182857D01*
X267532500Y128278095D01*
X267580119Y128325714D01*
X267675357Y128373333D01*
X267913452Y128373333D01*
X268008690Y128325714D01*
X268056309Y128278095D01*
X268103928Y128182857D01*
X268103928Y127992380D01*
X268056309Y127897142D01*
X268008690Y127849523D01*
X267913452Y127801904D01*
X219813047Y31931619D02*
X220146380Y32407809D01*
X220384476Y31931619D02*
X220384476Y32931619D01*
X220003523Y32931619D01*
X219908285Y32884000D01*
X219860666Y32836380D01*
X219813047Y32741142D01*
X219813047Y32598285D01*
X219860666Y32503047D01*
X219908285Y32455428D01*
X220003523Y32407809D01*
X220384476Y32407809D01*
X218860666Y31931619D02*
X219432095Y31931619D01*
X219146380Y31931619D02*
X219146380Y32931619D01*
X219241619Y32788761D01*
X219336857Y32693523D01*
X219432095Y32645904D01*
X217955904Y32931619D02*
X218432095Y32931619D01*
X218479714Y32455428D01*
X218432095Y32503047D01*
X218336857Y32550666D01*
X218098761Y32550666D01*
X218003523Y32503047D01*
X217955904Y32455428D01*
X217908285Y32360190D01*
X217908285Y32122095D01*
X217955904Y32026857D01*
X218003523Y31979238D01*
X218098761Y31931619D01*
X218336857Y31931619D01*
X218432095Y31979238D01*
X218479714Y32026857D01*
X217051142Y32598285D02*
X217051142Y31931619D01*
X217289238Y32979238D02*
X217527333Y32264952D01*
X216908285Y32264952D01*
X219019047Y71157619D02*
X219352380Y71633809D01*
X219590476Y71157619D02*
X219590476Y72157619D01*
X219209523Y72157619D01*
X219114285Y72110000D01*
X219066666Y72062380D01*
X219019047Y71967142D01*
X219019047Y71824285D01*
X219066666Y71729047D01*
X219114285Y71681428D01*
X219209523Y71633809D01*
X219590476Y71633809D01*
X218066666Y71157619D02*
X218638095Y71157619D01*
X218352380Y71157619D02*
X218352380Y72157619D01*
X218447619Y72014761D01*
X218542857Y71919523D01*
X218638095Y71871904D01*
X217209523Y71824285D02*
X217209523Y71157619D01*
X217447619Y72205238D02*
X217685714Y71490952D01*
X217066666Y71490952D01*
X216257142Y72157619D02*
X216447619Y72157619D01*
X216542857Y72110000D01*
X216590476Y72062380D01*
X216685714Y71919523D01*
X216733333Y71729047D01*
X216733333Y71348095D01*
X216685714Y71252857D01*
X216638095Y71205238D01*
X216542857Y71157619D01*
X216352380Y71157619D01*
X216257142Y71205238D01*
X216209523Y71252857D01*
X216161904Y71348095D01*
X216161904Y71586190D01*
X216209523Y71681428D01*
X216257142Y71729047D01*
X216352380Y71776666D01*
X216542857Y71776666D01*
X216638095Y71729047D01*
X216685714Y71681428D01*
X216733333Y71586190D01*
X272645047Y55045619D02*
X272978380Y55521809D01*
X273216476Y55045619D02*
X273216476Y56045619D01*
X272835523Y56045619D01*
X272740285Y55998000D01*
X272692666Y55950380D01*
X272645047Y55855142D01*
X272645047Y55712285D01*
X272692666Y55617047D01*
X272740285Y55569428D01*
X272835523Y55521809D01*
X273216476Y55521809D01*
X271692666Y55045619D02*
X272264095Y55045619D01*
X271978380Y55045619D02*
X271978380Y56045619D01*
X272073619Y55902761D01*
X272168857Y55807523D01*
X272264095Y55759904D01*
X270835523Y55712285D02*
X270835523Y55045619D01*
X271073619Y56093238D02*
X271311714Y55378952D01*
X270692666Y55378952D01*
X270121238Y56045619D02*
X270026000Y56045619D01*
X269930761Y55998000D01*
X269883142Y55950380D01*
X269835523Y55855142D01*
X269787904Y55664666D01*
X269787904Y55426571D01*
X269835523Y55236095D01*
X269883142Y55140857D01*
X269930761Y55093238D01*
X270026000Y55045619D01*
X270121238Y55045619D01*
X270216476Y55093238D01*
X270264095Y55140857D01*
X270311714Y55236095D01*
X270359333Y55426571D01*
X270359333Y55664666D01*
X270311714Y55855142D01*
X270264095Y55950380D01*
X270216476Y55998000D01*
X270121238Y56045619D01*
X273661047Y27782953D02*
X273994380Y28259143D01*
X274232476Y27782953D02*
X274232476Y28782953D01*
X273851523Y28782953D01*
X273756285Y28735334D01*
X273708666Y28687714D01*
X273661047Y28592476D01*
X273661047Y28449619D01*
X273708666Y28354381D01*
X273756285Y28306762D01*
X273851523Y28259143D01*
X274232476Y28259143D01*
X272708666Y27782953D02*
X273280095Y27782953D01*
X272994380Y27782953D02*
X272994380Y28782953D01*
X273089619Y28640095D01*
X273184857Y28544857D01*
X273280095Y28497238D01*
X271851523Y28782953D02*
X272042000Y28782953D01*
X272137238Y28735334D01*
X272184857Y28687714D01*
X272280095Y28544857D01*
X272327714Y28354381D01*
X272327714Y27973429D01*
X272280095Y27878191D01*
X272232476Y27830572D01*
X272137238Y27782953D01*
X271946761Y27782953D01*
X271851523Y27830572D01*
X271803904Y27878191D01*
X271756285Y27973429D01*
X271756285Y28211524D01*
X271803904Y28306762D01*
X271851523Y28354381D01*
X271946761Y28402000D01*
X272137238Y28402000D01*
X272232476Y28354381D01*
X272280095Y28306762D01*
X272327714Y28211524D01*
X270899142Y28782953D02*
X271089619Y28782953D01*
X271184857Y28735334D01*
X271232476Y28687714D01*
X271327714Y28544857D01*
X271375333Y28354381D01*
X271375333Y27973429D01*
X271327714Y27878191D01*
X271280095Y27830572D01*
X271184857Y27782953D01*
X270994380Y27782953D01*
X270899142Y27830572D01*
X270851523Y27878191D01*
X270803904Y27973429D01*
X270803904Y28211524D01*
X270851523Y28306762D01*
X270899142Y28354381D01*
X270994380Y28402000D01*
X271184857Y28402000D01*
X271280095Y28354381D01*
X271327714Y28306762D01*
X271375333Y28211524D01*
X272645047Y58347619D02*
X272978380Y58823809D01*
X273216476Y58347619D02*
X273216476Y59347619D01*
X272835523Y59347619D01*
X272740285Y59300000D01*
X272692666Y59252380D01*
X272645047Y59157142D01*
X272645047Y59014285D01*
X272692666Y58919047D01*
X272740285Y58871428D01*
X272835523Y58823809D01*
X273216476Y58823809D01*
X271692666Y58347619D02*
X272264095Y58347619D01*
X271978380Y58347619D02*
X271978380Y59347619D01*
X272073619Y59204761D01*
X272168857Y59109523D01*
X272264095Y59061904D01*
X271359333Y59347619D02*
X270740285Y59347619D01*
X271073619Y58966666D01*
X270930761Y58966666D01*
X270835523Y58919047D01*
X270787904Y58871428D01*
X270740285Y58776190D01*
X270740285Y58538095D01*
X270787904Y58442857D01*
X270835523Y58395238D01*
X270930761Y58347619D01*
X271216476Y58347619D01*
X271311714Y58395238D01*
X271359333Y58442857D01*
X270264095Y58347619D02*
X270073619Y58347619D01*
X269978380Y58395238D01*
X269930761Y58442857D01*
X269835523Y58585714D01*
X269787904Y58776190D01*
X269787904Y59157142D01*
X269835523Y59252380D01*
X269883142Y59300000D01*
X269978380Y59347619D01*
X270168857Y59347619D01*
X270264095Y59300000D01*
X270311714Y59252380D01*
X270359333Y59157142D01*
X270359333Y58919047D01*
X270311714Y58823809D01*
X270264095Y58776190D01*
X270168857Y58728571D01*
X269978380Y58728571D01*
X269883142Y58776190D01*
X269835523Y58823809D01*
X269787904Y58919047D01*
X219305047Y49067619D02*
X219638380Y49543809D01*
X219876476Y49067619D02*
X219876476Y50067619D01*
X219495523Y50067619D01*
X219400285Y50020000D01*
X219352666Y49972380D01*
X219305047Y49877142D01*
X219305047Y49734285D01*
X219352666Y49639047D01*
X219400285Y49591428D01*
X219495523Y49543809D01*
X219876476Y49543809D01*
X218352666Y49067619D02*
X218924095Y49067619D01*
X218638380Y49067619D02*
X218638380Y50067619D01*
X218733619Y49924761D01*
X218828857Y49829523D01*
X218924095Y49781904D01*
X218019333Y50067619D02*
X217352666Y50067619D01*
X217781238Y49067619D01*
X217019333Y49972380D02*
X216971714Y50020000D01*
X216876476Y50067619D01*
X216638380Y50067619D01*
X216543142Y50020000D01*
X216495523Y49972380D01*
X216447904Y49877142D01*
X216447904Y49781904D01*
X216495523Y49639047D01*
X217066952Y49067619D01*
X216447904Y49067619D01*
X219813047Y12881619D02*
X220146380Y13357809D01*
X220384476Y12881619D02*
X220384476Y13881619D01*
X220003523Y13881619D01*
X219908285Y13834000D01*
X219860666Y13786380D01*
X219813047Y13691142D01*
X219813047Y13548285D01*
X219860666Y13453047D01*
X219908285Y13405428D01*
X220003523Y13357809D01*
X220384476Y13357809D01*
X218860666Y12881619D02*
X219432095Y12881619D01*
X219146380Y12881619D02*
X219146380Y13881619D01*
X219241619Y13738761D01*
X219336857Y13643523D01*
X219432095Y13595904D01*
X217955904Y13881619D02*
X218432095Y13881619D01*
X218479714Y13405428D01*
X218432095Y13453047D01*
X218336857Y13500666D01*
X218098761Y13500666D01*
X218003523Y13453047D01*
X217955904Y13405428D01*
X217908285Y13310190D01*
X217908285Y13072095D01*
X217955904Y12976857D01*
X218003523Y12929238D01*
X218098761Y12881619D01*
X218336857Y12881619D01*
X218432095Y12929238D01*
X218479714Y12976857D01*
X216955904Y12881619D02*
X217527333Y12881619D01*
X217241619Y12881619D02*
X217241619Y13881619D01*
X217336857Y13738761D01*
X217432095Y13643523D01*
X217527333Y13595904D01*
X258769380Y130659047D02*
X258293190Y130992380D01*
X258769380Y131230476D02*
X257769380Y131230476D01*
X257769380Y130849523D01*
X257817000Y130754285D01*
X257864619Y130706666D01*
X257959857Y130659047D01*
X258102714Y130659047D01*
X258197952Y130706666D01*
X258245571Y130754285D01*
X258293190Y130849523D01*
X258293190Y131230476D01*
X258769380Y129706666D02*
X258769380Y130278095D01*
X258769380Y129992380D02*
X257769380Y129992380D01*
X257912238Y130087619D01*
X258007476Y130182857D01*
X258055095Y130278095D01*
X257769380Y129087619D02*
X257769380Y128992380D01*
X257817000Y128897142D01*
X257864619Y128849523D01*
X257959857Y128801904D01*
X258150333Y128754285D01*
X258388428Y128754285D01*
X258578904Y128801904D01*
X258674142Y128849523D01*
X258721761Y128897142D01*
X258769380Y128992380D01*
X258769380Y129087619D01*
X258721761Y129182857D01*
X258674142Y129230476D01*
X258578904Y129278095D01*
X258388428Y129325714D01*
X258150333Y129325714D01*
X257959857Y129278095D01*
X257864619Y129230476D01*
X257817000Y129182857D01*
X257769380Y129087619D01*
X257769380Y127897142D02*
X257769380Y128087619D01*
X257817000Y128182857D01*
X257864619Y128230476D01*
X258007476Y128325714D01*
X258197952Y128373333D01*
X258578904Y128373333D01*
X258674142Y128325714D01*
X258721761Y128278095D01*
X258769380Y128182857D01*
X258769380Y127992380D01*
X258721761Y127897142D01*
X258674142Y127849523D01*
X258578904Y127801904D01*
X258340809Y127801904D01*
X258245571Y127849523D01*
X258197952Y127897142D01*
X258150333Y127992380D01*
X258150333Y128182857D01*
X258197952Y128278095D01*
X258245571Y128325714D01*
X258340809Y128373333D01*
X286709380Y130397047D02*
X286233190Y130730380D01*
X286709380Y130968476D02*
X285709380Y130968476D01*
X285709380Y130587523D01*
X285757000Y130492285D01*
X285804619Y130444666D01*
X285899857Y130397047D01*
X286042714Y130397047D01*
X286137952Y130444666D01*
X286185571Y130492285D01*
X286233190Y130587523D01*
X286233190Y130968476D01*
X286709380Y129444666D02*
X286709380Y130016095D01*
X286709380Y129730380D02*
X285709380Y129730380D01*
X285852238Y129825619D01*
X285947476Y129920857D01*
X285995095Y130016095D01*
X286709380Y128492285D02*
X286709380Y129063714D01*
X286709380Y128778000D02*
X285709380Y128778000D01*
X285852238Y128873238D01*
X285947476Y128968476D01*
X285995095Y129063714D01*
X285804619Y128111333D02*
X285757000Y128063714D01*
X285709380Y127968476D01*
X285709380Y127730380D01*
X285757000Y127635142D01*
X285804619Y127587523D01*
X285899857Y127539904D01*
X285995095Y127539904D01*
X286137952Y127587523D01*
X286709380Y128158952D01*
X286709380Y127539904D01*
X272645047Y61649619D02*
X272978380Y62125809D01*
X273216476Y61649619D02*
X273216476Y62649619D01*
X272835523Y62649619D01*
X272740285Y62602000D01*
X272692666Y62554380D01*
X272645047Y62459142D01*
X272645047Y62316285D01*
X272692666Y62221047D01*
X272740285Y62173428D01*
X272835523Y62125809D01*
X273216476Y62125809D01*
X271692666Y61649619D02*
X272264095Y61649619D01*
X271978380Y61649619D02*
X271978380Y62649619D01*
X272073619Y62506761D01*
X272168857Y62411523D01*
X272264095Y62363904D01*
X271359333Y62649619D02*
X270740285Y62649619D01*
X271073619Y62268666D01*
X270930761Y62268666D01*
X270835523Y62221047D01*
X270787904Y62173428D01*
X270740285Y62078190D01*
X270740285Y61840095D01*
X270787904Y61744857D01*
X270835523Y61697238D01*
X270930761Y61649619D01*
X271216476Y61649619D01*
X271311714Y61697238D01*
X271359333Y61744857D01*
X270168857Y62221047D02*
X270264095Y62268666D01*
X270311714Y62316285D01*
X270359333Y62411523D01*
X270359333Y62459142D01*
X270311714Y62554380D01*
X270264095Y62602000D01*
X270168857Y62649619D01*
X269978380Y62649619D01*
X269883142Y62602000D01*
X269835523Y62554380D01*
X269787904Y62459142D01*
X269787904Y62411523D01*
X269835523Y62316285D01*
X269883142Y62268666D01*
X269978380Y62221047D01*
X270168857Y62221047D01*
X270264095Y62173428D01*
X270311714Y62125809D01*
X270359333Y62030571D01*
X270359333Y61840095D01*
X270311714Y61744857D01*
X270264095Y61697238D01*
X270168857Y61649619D01*
X269978380Y61649619D01*
X269883142Y61697238D01*
X269835523Y61744857D01*
X269787904Y61840095D01*
X269787904Y62030571D01*
X269835523Y62125809D01*
X269883142Y62173428D01*
X269978380Y62221047D01*
X82622380Y136263047D02*
X82146190Y136596380D01*
X82622380Y136834476D02*
X81622380Y136834476D01*
X81622380Y136453523D01*
X81670000Y136358285D01*
X81717619Y136310666D01*
X81812857Y136263047D01*
X81955714Y136263047D01*
X82050952Y136310666D01*
X82098571Y136358285D01*
X82146190Y136453523D01*
X82146190Y136834476D01*
X82622380Y135310666D02*
X82622380Y135882095D01*
X82622380Y135596380D02*
X81622380Y135596380D01*
X81765238Y135691619D01*
X81860476Y135786857D01*
X81908095Y135882095D01*
X81622380Y134977333D02*
X81622380Y134310666D01*
X82622380Y134739238D01*
X82050952Y133786857D02*
X82003333Y133882095D01*
X81955714Y133929714D01*
X81860476Y133977333D01*
X81812857Y133977333D01*
X81717619Y133929714D01*
X81670000Y133882095D01*
X81622380Y133786857D01*
X81622380Y133596380D01*
X81670000Y133501142D01*
X81717619Y133453523D01*
X81812857Y133405904D01*
X81860476Y133405904D01*
X81955714Y133453523D01*
X82003333Y133501142D01*
X82050952Y133596380D01*
X82050952Y133786857D01*
X82098571Y133882095D01*
X82146190Y133929714D01*
X82241428Y133977333D01*
X82431904Y133977333D01*
X82527142Y133929714D01*
X82574761Y133882095D01*
X82622380Y133786857D01*
X82622380Y133596380D01*
X82574761Y133501142D01*
X82527142Y133453523D01*
X82431904Y133405904D01*
X82241428Y133405904D01*
X82146190Y133453523D01*
X82098571Y133501142D01*
X82050952Y133596380D01*
X93544380Y136263047D02*
X93068190Y136596380D01*
X93544380Y136834476D02*
X92544380Y136834476D01*
X92544380Y136453523D01*
X92592000Y136358285D01*
X92639619Y136310666D01*
X92734857Y136263047D01*
X92877714Y136263047D01*
X92972952Y136310666D01*
X93020571Y136358285D01*
X93068190Y136453523D01*
X93068190Y136834476D01*
X93544380Y135310666D02*
X93544380Y135882095D01*
X93544380Y135596380D02*
X92544380Y135596380D01*
X92687238Y135691619D01*
X92782476Y135786857D01*
X92830095Y135882095D01*
X92972952Y134739238D02*
X92925333Y134834476D01*
X92877714Y134882095D01*
X92782476Y134929714D01*
X92734857Y134929714D01*
X92639619Y134882095D01*
X92592000Y134834476D01*
X92544380Y134739238D01*
X92544380Y134548761D01*
X92592000Y134453523D01*
X92639619Y134405904D01*
X92734857Y134358285D01*
X92782476Y134358285D01*
X92877714Y134405904D01*
X92925333Y134453523D01*
X92972952Y134548761D01*
X92972952Y134739238D01*
X93020571Y134834476D01*
X93068190Y134882095D01*
X93163428Y134929714D01*
X93353904Y134929714D01*
X93449142Y134882095D01*
X93496761Y134834476D01*
X93544380Y134739238D01*
X93544380Y134548761D01*
X93496761Y134453523D01*
X93449142Y134405904D01*
X93353904Y134358285D01*
X93163428Y134358285D01*
X93068190Y134405904D01*
X93020571Y134453523D01*
X92972952Y134548761D01*
X92544380Y134024952D02*
X92544380Y133358285D01*
X93544380Y133786857D01*
X277946380Y98671047D02*
X277470190Y99004380D01*
X277946380Y99242476D02*
X276946380Y99242476D01*
X276946380Y98861523D01*
X276994000Y98766285D01*
X277041619Y98718666D01*
X277136857Y98671047D01*
X277279714Y98671047D01*
X277374952Y98718666D01*
X277422571Y98766285D01*
X277470190Y98861523D01*
X277470190Y99242476D01*
X277946380Y97718666D02*
X277946380Y98290095D01*
X277946380Y98004380D02*
X276946380Y98004380D01*
X277089238Y98099619D01*
X277184476Y98194857D01*
X277232095Y98290095D01*
X276946380Y97385333D02*
X276946380Y96766285D01*
X277327333Y97099619D01*
X277327333Y96956761D01*
X277374952Y96861523D01*
X277422571Y96813904D01*
X277517809Y96766285D01*
X277755904Y96766285D01*
X277851142Y96813904D01*
X277898761Y96861523D01*
X277946380Y96956761D01*
X277946380Y97242476D01*
X277898761Y97337714D01*
X277851142Y97385333D01*
X276946380Y96147238D02*
X276946380Y96052000D01*
X276994000Y95956761D01*
X277041619Y95909142D01*
X277136857Y95861523D01*
X277327333Y95813904D01*
X277565428Y95813904D01*
X277755904Y95861523D01*
X277851142Y95909142D01*
X277898761Y95956761D01*
X277946380Y96052000D01*
X277946380Y96147238D01*
X277898761Y96242476D01*
X277851142Y96290095D01*
X277755904Y96337714D01*
X277565428Y96385333D01*
X277327333Y96385333D01*
X277136857Y96337714D01*
X277041619Y96290095D01*
X276994000Y96242476D01*
X276946380Y96147238D01*
X89226380Y124325047D02*
X88750190Y124658380D01*
X89226380Y124896476D02*
X88226380Y124896476D01*
X88226380Y124515523D01*
X88274000Y124420285D01*
X88321619Y124372666D01*
X88416857Y124325047D01*
X88559714Y124325047D01*
X88654952Y124372666D01*
X88702571Y124420285D01*
X88750190Y124515523D01*
X88750190Y124896476D01*
X89226380Y123372666D02*
X89226380Y123944095D01*
X89226380Y123658380D02*
X88226380Y123658380D01*
X88369238Y123753619D01*
X88464476Y123848857D01*
X88512095Y123944095D01*
X88654952Y122801238D02*
X88607333Y122896476D01*
X88559714Y122944095D01*
X88464476Y122991714D01*
X88416857Y122991714D01*
X88321619Y122944095D01*
X88274000Y122896476D01*
X88226380Y122801238D01*
X88226380Y122610761D01*
X88274000Y122515523D01*
X88321619Y122467904D01*
X88416857Y122420285D01*
X88464476Y122420285D01*
X88559714Y122467904D01*
X88607333Y122515523D01*
X88654952Y122610761D01*
X88654952Y122801238D01*
X88702571Y122896476D01*
X88750190Y122944095D01*
X88845428Y122991714D01*
X89035904Y122991714D01*
X89131142Y122944095D01*
X89178761Y122896476D01*
X89226380Y122801238D01*
X89226380Y122610761D01*
X89178761Y122515523D01*
X89131142Y122467904D01*
X89035904Y122420285D01*
X88845428Y122420285D01*
X88750190Y122467904D01*
X88702571Y122515523D01*
X88654952Y122610761D01*
X88226380Y121801238D02*
X88226380Y121706000D01*
X88274000Y121610761D01*
X88321619Y121563142D01*
X88416857Y121515523D01*
X88607333Y121467904D01*
X88845428Y121467904D01*
X89035904Y121515523D01*
X89131142Y121563142D01*
X89178761Y121610761D01*
X89226380Y121706000D01*
X89226380Y121801238D01*
X89178761Y121896476D01*
X89131142Y121944095D01*
X89035904Y121991714D01*
X88845428Y122039333D01*
X88607333Y122039333D01*
X88416857Y121991714D01*
X88321619Y121944095D01*
X88274000Y121896476D01*
X88226380Y121801238D01*
X102688380Y136009046D02*
X102212190Y136342379D01*
X102688380Y136580475D02*
X101688380Y136580475D01*
X101688380Y136199522D01*
X101736000Y136104284D01*
X101783619Y136056665D01*
X101878857Y136009046D01*
X102021714Y136009046D01*
X102116952Y136056665D01*
X102164571Y136104284D01*
X102212190Y136199522D01*
X102212190Y136580475D01*
X102688380Y135056665D02*
X102688380Y135628094D01*
X102688380Y135342379D02*
X101688380Y135342379D01*
X101831238Y135437618D01*
X101926476Y135532856D01*
X101974095Y135628094D01*
X102116952Y134485237D02*
X102069333Y134580475D01*
X102021714Y134628094D01*
X101926476Y134675713D01*
X101878857Y134675713D01*
X101783619Y134628094D01*
X101736000Y134580475D01*
X101688380Y134485237D01*
X101688380Y134294760D01*
X101736000Y134199522D01*
X101783619Y134151903D01*
X101878857Y134104284D01*
X101926476Y134104284D01*
X102021714Y134151903D01*
X102069333Y134199522D01*
X102116952Y134294760D01*
X102116952Y134485237D01*
X102164571Y134580475D01*
X102212190Y134628094D01*
X102307428Y134675713D01*
X102497904Y134675713D01*
X102593142Y134628094D01*
X102640761Y134580475D01*
X102688380Y134485237D01*
X102688380Y134294760D01*
X102640761Y134199522D01*
X102593142Y134151903D01*
X102497904Y134104284D01*
X102307428Y134104284D01*
X102212190Y134151903D01*
X102164571Y134199522D01*
X102116952Y134294760D01*
X102688380Y133151903D02*
X102688380Y133723332D01*
X102688380Y133437618D02*
X101688380Y133437618D01*
X101831238Y133532856D01*
X101926476Y133628094D01*
X101974095Y133723332D01*
X219008547Y74349619D02*
X219341880Y74825809D01*
X219579976Y74349619D02*
X219579976Y75349619D01*
X219199023Y75349619D01*
X219103785Y75302000D01*
X219056166Y75254380D01*
X219008547Y75159142D01*
X219008547Y75016285D01*
X219056166Y74921047D01*
X219103785Y74873428D01*
X219199023Y74825809D01*
X219579976Y74825809D01*
X218056166Y74349619D02*
X218627595Y74349619D01*
X218341880Y74349619D02*
X218341880Y75349619D01*
X218437119Y75206761D01*
X218532357Y75111523D01*
X218627595Y75063904D01*
X217199023Y75016285D02*
X217199023Y74349619D01*
X217437119Y75397238D02*
X217675214Y74682952D01*
X217056166Y74682952D01*
X216770452Y75349619D02*
X216103785Y75349619D01*
X216532357Y74349619D01*
X272645047Y64951619D02*
X272978380Y65427809D01*
X273216476Y64951619D02*
X273216476Y65951619D01*
X272835523Y65951619D01*
X272740285Y65904000D01*
X272692666Y65856380D01*
X272645047Y65761142D01*
X272645047Y65618285D01*
X272692666Y65523047D01*
X272740285Y65475428D01*
X272835523Y65427809D01*
X273216476Y65427809D01*
X271692666Y64951619D02*
X272264095Y64951619D01*
X271978380Y64951619D02*
X271978380Y65951619D01*
X272073619Y65808761D01*
X272168857Y65713523D01*
X272264095Y65665904D01*
X271359333Y65951619D02*
X270740285Y65951619D01*
X271073619Y65570666D01*
X270930761Y65570666D01*
X270835523Y65523047D01*
X270787904Y65475428D01*
X270740285Y65380190D01*
X270740285Y65142095D01*
X270787904Y65046857D01*
X270835523Y64999238D01*
X270930761Y64951619D01*
X271216476Y64951619D01*
X271311714Y64999238D01*
X271359333Y65046857D01*
X270406952Y65951619D02*
X269740285Y65951619D01*
X270168857Y64951619D01*
X273661047Y21009619D02*
X273994380Y21485809D01*
X274232476Y21009619D02*
X274232476Y22009619D01*
X273851523Y22009619D01*
X273756285Y21962000D01*
X273708666Y21914380D01*
X273661047Y21819142D01*
X273661047Y21676285D01*
X273708666Y21581047D01*
X273756285Y21533428D01*
X273851523Y21485809D01*
X274232476Y21485809D01*
X272708666Y21009619D02*
X273280095Y21009619D01*
X272994380Y21009619D02*
X272994380Y22009619D01*
X273089619Y21866761D01*
X273184857Y21771523D01*
X273280095Y21723904D01*
X271851523Y22009619D02*
X272042000Y22009619D01*
X272137238Y21962000D01*
X272184857Y21914380D01*
X272280095Y21771523D01*
X272327714Y21581047D01*
X272327714Y21200095D01*
X272280095Y21104857D01*
X272232476Y21057238D01*
X272137238Y21009619D01*
X271946761Y21009619D01*
X271851523Y21057238D01*
X271803904Y21104857D01*
X271756285Y21200095D01*
X271756285Y21438190D01*
X271803904Y21533428D01*
X271851523Y21581047D01*
X271946761Y21628666D01*
X272137238Y21628666D01*
X272232476Y21581047D01*
X272280095Y21533428D01*
X272327714Y21438190D01*
X271184857Y21581047D02*
X271280095Y21628666D01*
X271327714Y21676285D01*
X271375333Y21771523D01*
X271375333Y21819142D01*
X271327714Y21914380D01*
X271280095Y21962000D01*
X271184857Y22009619D01*
X270994380Y22009619D01*
X270899142Y21962000D01*
X270851523Y21914380D01*
X270803904Y21819142D01*
X270803904Y21771523D01*
X270851523Y21676285D01*
X270899142Y21628666D01*
X270994380Y21581047D01*
X271184857Y21581047D01*
X271280095Y21533428D01*
X271327714Y21485809D01*
X271375333Y21390571D01*
X271375333Y21200095D01*
X271327714Y21104857D01*
X271280095Y21057238D01*
X271184857Y21009619D01*
X270994380Y21009619D01*
X270899142Y21057238D01*
X270851523Y21104857D01*
X270803904Y21200095D01*
X270803904Y21390571D01*
X270851523Y21485809D01*
X270899142Y21533428D01*
X270994380Y21581047D01*
X272645047Y74603619D02*
X272978380Y75079809D01*
X273216476Y74603619D02*
X273216476Y75603619D01*
X272835523Y75603619D01*
X272740285Y75556000D01*
X272692666Y75508380D01*
X272645047Y75413142D01*
X272645047Y75270285D01*
X272692666Y75175047D01*
X272740285Y75127428D01*
X272835523Y75079809D01*
X273216476Y75079809D01*
X271692666Y74603619D02*
X272264095Y74603619D01*
X271978380Y74603619D02*
X271978380Y75603619D01*
X272073619Y75460761D01*
X272168857Y75365523D01*
X272264095Y75317904D01*
X271359333Y75603619D02*
X270740285Y75603619D01*
X271073619Y75222666D01*
X270930761Y75222666D01*
X270835523Y75175047D01*
X270787904Y75127428D01*
X270740285Y75032190D01*
X270740285Y74794095D01*
X270787904Y74698857D01*
X270835523Y74651238D01*
X270930761Y74603619D01*
X271216476Y74603619D01*
X271311714Y74651238D01*
X271359333Y74698857D01*
X269883142Y75270285D02*
X269883142Y74603619D01*
X270121238Y75651238D02*
X270359333Y74936952D01*
X269740285Y74936952D01*
D11*
X218921064Y33301000D02*
X218466936Y33301000D01*
X218921064Y34771000D02*
X218466936Y34771000D01*
X81507000Y135371064D02*
X81507000Y134916936D01*
X80037000Y135371064D02*
X80037000Y134916936D01*
X218921064Y19023000D02*
X218466936Y19023000D01*
X218921064Y17553000D02*
X218466936Y17553000D01*
X271753064Y66321000D02*
X271298936Y66321000D01*
X271753064Y67791000D02*
X271298936Y67791000D01*
X88026332Y123433064D02*
X88026332Y122978936D01*
X86556332Y123433064D02*
X86556332Y122978936D01*
X217172936Y87149000D02*
X217627064Y87149000D01*
X217172936Y88619000D02*
X217627064Y88619000D01*
X217627064Y110717000D02*
X217172936Y110717000D01*
X217627064Y109247000D02*
X217172936Y109247000D01*
X218921064Y20855000D02*
X218466936Y20855000D01*
X218921064Y22325000D02*
X218466936Y22325000D01*
X268251000Y165311064D02*
X268251000Y164856936D01*
X269721000Y165311064D02*
X269721000Y164856936D01*
X279173000Y165311064D02*
X279173000Y164856936D01*
X280643000Y165311064D02*
X280643000Y164856936D01*
X282475000Y165311064D02*
X282475000Y164856936D01*
X283945000Y165311064D02*
X283945000Y164856936D01*
X217627064Y99087000D02*
X217172936Y99087000D01*
X217627064Y100557000D02*
X217172936Y100557000D01*
X87603000Y135371064D02*
X87603000Y134916936D01*
X86133000Y135371064D02*
X86133000Y134916936D01*
X288771000Y129050936D02*
X288771000Y129505064D01*
X287301000Y129050936D02*
X287301000Y129505064D01*
X101573000Y135371064D02*
X101573000Y134916936D01*
X100103000Y135371064D02*
X100103000Y134916936D01*
X260640500Y129312936D02*
X260640500Y129767064D01*
X259170500Y129312936D02*
X259170500Y129767064D01*
X271753064Y69369000D02*
X271298936Y69369000D01*
X271753064Y70839000D02*
X271298936Y70839000D01*
X83423666Y123433064D02*
X83423666Y122978936D01*
X84893666Y123433064D02*
X84893666Y122978936D01*
X80291000Y123433064D02*
X80291000Y122978936D01*
X81761000Y123433064D02*
X81761000Y122978936D01*
X272769064Y23933668D02*
X272314936Y23933668D01*
X272769064Y22463668D02*
X272314936Y22463668D01*
X218413064Y51789000D02*
X217958936Y51789000D01*
X218413064Y50319000D02*
X217958936Y50319000D01*
X257842000Y143948564D02*
X257842000Y143494436D01*
X259312000Y143948564D02*
X259312000Y143494436D01*
X218921064Y15721000D02*
X218466936Y15721000D01*
X218921064Y14251000D02*
X218466936Y14251000D01*
X218413064Y44223000D02*
X217958936Y44223000D01*
X218413064Y45693000D02*
X217958936Y45693000D01*
X218116564Y61695000D02*
X217662436Y61695000D01*
X218116564Y60225000D02*
X217662436Y60225000D01*
X256058936Y46001000D02*
X256513064Y46001000D01*
X256058936Y47471000D02*
X256513064Y47471000D01*
X275871000Y165311064D02*
X275871000Y164856936D01*
X277341000Y165311064D02*
X277341000Y164856936D01*
X263879000Y129312936D02*
X263879000Y129767064D01*
X262409000Y129312936D02*
X262409000Y129767064D01*
X271769064Y51281000D02*
X271314936Y51281000D01*
X271769064Y49811000D02*
X271314936Y49811000D01*
X262609000Y97308936D02*
X262609000Y97763064D01*
X261139000Y97308936D02*
X261139000Y97763064D01*
X272769064Y29237000D02*
X272314936Y29237000D01*
X272769064Y30707000D02*
X272314936Y30707000D01*
X218937064Y28167000D02*
X218482936Y28167000D01*
X218937064Y26697000D02*
X218482936Y26697000D01*
X280570000Y129050936D02*
X280570000Y129505064D01*
X282040000Y129050936D02*
X282040000Y129505064D01*
X275436000Y129050936D02*
X275436000Y129505064D01*
X273966000Y129050936D02*
X273966000Y129505064D01*
X271807000Y97324936D02*
X271807000Y97779064D01*
X273277000Y97324936D02*
X273277000Y97779064D01*
X255736000Y97308936D02*
X255736000Y97763064D01*
X254266000Y97308936D02*
X254266000Y97763064D01*
X269960000Y97324936D02*
X269960000Y97779064D01*
X268490000Y97324936D02*
X268490000Y97779064D01*
X218413064Y57885000D02*
X217958936Y57885000D01*
X218413064Y56415000D02*
X217958936Y56415000D01*
X277268000Y129050936D02*
X277268000Y129505064D01*
X278738000Y129050936D02*
X278738000Y129505064D01*
X89181000Y135371064D02*
X89181000Y134916936D01*
X90651000Y135371064D02*
X90651000Y134916936D01*
X218116564Y63273000D02*
X217662436Y63273000D01*
X218116564Y64743000D02*
X217662436Y64743000D01*
X217172936Y82069000D02*
X217627064Y82069000D01*
X217172936Y83539000D02*
X217627064Y83539000D01*
X218921064Y36603000D02*
X218466936Y36603000D01*
X218921064Y38073000D02*
X218466936Y38073000D01*
X218116564Y66321000D02*
X217662436Y66321000D01*
X218116564Y67791000D02*
X217662436Y67791000D01*
X97055000Y135371064D02*
X97055000Y134916936D01*
X98525000Y135371064D02*
X98525000Y134916936D01*
X257702500Y97308936D02*
X257702500Y97763064D01*
X259172500Y97308936D02*
X259172500Y97763064D01*
X271298936Y47471000D02*
X271753064Y47471000D01*
X271298936Y46001000D02*
X271753064Y46001000D01*
X218413064Y53367000D02*
X217958936Y53367000D01*
X218413064Y54837000D02*
X217958936Y54837000D01*
X268886000Y129312936D02*
X268886000Y129767064D01*
X270356000Y129312936D02*
X270356000Y129767064D01*
X261144000Y143948564D02*
X261144000Y143494436D01*
X262614000Y143948564D02*
X262614000Y143494436D01*
X217172936Y89689000D02*
X217627064Y89689000D01*
X217172936Y91159000D02*
X217627064Y91159000D01*
X265647500Y129312936D02*
X265647500Y129767064D01*
X267117500Y129312936D02*
X267117500Y129767064D01*
X218921064Y29999000D02*
X218466936Y29999000D01*
X218921064Y31469000D02*
X218466936Y31469000D01*
X218116564Y70839000D02*
X217662436Y70839000D01*
X218116564Y69369000D02*
X217662436Y69369000D01*
X271753064Y54583000D02*
X271298936Y54583000D01*
X271753064Y53113000D02*
X271298936Y53113000D01*
X272769064Y25850334D02*
X272314936Y25850334D01*
X272769064Y27320334D02*
X272314936Y27320334D01*
X271753064Y56415000D02*
X271298936Y56415000D01*
X271753064Y57885000D02*
X271298936Y57885000D01*
X218413064Y47271000D02*
X217958936Y47271000D01*
X218413064Y48741000D02*
X217958936Y48741000D01*
X218921064Y12419000D02*
X218466936Y12419000D01*
X218921064Y10949000D02*
X218466936Y10949000D01*
X255932000Y129312936D02*
X255932000Y129767064D01*
X257402000Y129312936D02*
X257402000Y129767064D01*
X285342000Y129050936D02*
X285342000Y129505064D01*
X283872000Y129050936D02*
X283872000Y129505064D01*
X271753064Y59717000D02*
X271298936Y59717000D01*
X271753064Y61187000D02*
X271298936Y61187000D01*
X264949000Y165311064D02*
X264949000Y164856936D01*
X266419000Y165311064D02*
X266419000Y164856936D01*
X83085000Y135371064D02*
X83085000Y134916936D01*
X84555000Y135371064D02*
X84555000Y134916936D01*
X94007000Y135371064D02*
X94007000Y134916936D01*
X95477000Y135371064D02*
X95477000Y134916936D01*
X275109000Y97324936D02*
X275109000Y97779064D01*
X276579000Y97324936D02*
X276579000Y97779064D01*
X91159000Y123433064D02*
X91159000Y122978936D01*
X89689000Y123433064D02*
X89689000Y122978936D01*
X104621000Y135371064D02*
X104621000Y134916936D01*
X103151000Y135371064D02*
X103151000Y134916936D01*
X218116564Y73887000D02*
X217662436Y73887000D01*
X218116564Y72417000D02*
X217662436Y72417000D01*
X217172936Y84609000D02*
X217627064Y84609000D01*
X217172936Y86079000D02*
X217627064Y86079000D01*
X274039000Y165311064D02*
X274039000Y164856936D01*
X272569000Y165311064D02*
X272569000Y164856936D01*
X271753064Y63019000D02*
X271298936Y63019000D01*
X271753064Y64489000D02*
X271298936Y64489000D01*
X272769064Y19077000D02*
X272314936Y19077000D01*
X272769064Y20547000D02*
X272314936Y20547000D01*
X271753064Y74141000D02*
X271298936Y74141000D01*
X271753064Y72671000D02*
X271298936Y72671000D01*
X259815000Y165311064D02*
X259815000Y164856936D01*
X258345000Y165311064D02*
X258345000Y164856936D01*
X263117000Y165311064D02*
X263117000Y164856936D01*
X261647000Y165311064D02*
X261647000Y164856936D01*
X207237064Y89635000D02*
X206782936Y89635000D01*
X207237064Y88165000D02*
X206782936Y88165000D01*
%LPC*%
D12*
X21773000Y41947000D03*
D13*
X24313000Y41947000D03*
D12*
X278468666Y81788000D03*
D13*
X281008666Y81788000D03*
D12*
X229116000Y87545332D03*
D13*
X229116000Y85005332D03*
D14*
X171949996Y66472000D03*
D15*
X171949996Y63932000D03*
X171949996Y61392000D03*
D14*
X29913166Y93472000D03*
D15*
X29913166Y90932000D03*
X29913166Y88392000D03*
D12*
X21773000Y85947000D03*
D13*
X24313000Y85947000D03*
D14*
X4296000Y83472000D03*
D15*
X4296000Y80932000D03*
X4296000Y78392000D03*
D12*
X229050000Y46343000D03*
D13*
X229050000Y48883000D03*
D12*
X22906000Y189229000D03*
D13*
X22906000Y191769000D03*
D12*
X175475996Y63947000D03*
D13*
X178015996Y63947000D03*
D12*
X124241664Y63947000D03*
D13*
X126781664Y63947000D03*
D12*
X36215600Y189229000D03*
D13*
X36215600Y191769000D03*
D12*
X35961600Y176793000D03*
D13*
X35961600Y179333000D03*
D12*
X29306800Y176793000D03*
D13*
X29306800Y179333000D03*
D16*
X272303000Y140721000D03*
D17*
X274843000Y140721000D03*
X277383000Y140721000D03*
X279923000Y140721000D03*
X282463000Y140721000D03*
X285003000Y140721000D03*
X287543000Y140721000D03*
X290083000Y140721000D03*
X290083000Y150881000D03*
X287543000Y150881000D03*
X285003000Y150881000D03*
X282463000Y150881000D03*
X279923000Y150881000D03*
X277383000Y150881000D03*
X274843000Y150881000D03*
X272303000Y150881000D03*
D12*
X291057000Y195288500D03*
D13*
X291057000Y192748500D03*
D16*
X18414000Y108961000D03*
D17*
X15874000Y108961000D03*
X13334000Y108961000D03*
X10794000Y108961000D03*
X8254000Y108961000D03*
X5714000Y108961000D03*
X3174000Y108961000D03*
X3174000Y98801000D03*
X5714000Y98801000D03*
X8254000Y98801000D03*
X10794000Y98801000D03*
X13334000Y98801000D03*
X15874000Y98801000D03*
X18414000Y98801000D03*
D18*
X282453000Y109459000D03*
D19*
X282453000Y106919000D03*
X282453000Y104379000D03*
X282453000Y101839000D03*
X282453000Y99299000D03*
X282453000Y96759000D03*
X282453000Y94219000D03*
X282453000Y91679000D03*
X292613000Y91679000D03*
X292613000Y94219000D03*
X292613000Y96759000D03*
X292613000Y99299000D03*
X292613000Y101839000D03*
X292613000Y104379000D03*
X292613000Y106919000D03*
X292613000Y109459000D03*
D16*
X69648332Y108961000D03*
D17*
X67108332Y108961000D03*
X64568332Y108961000D03*
X62028332Y108961000D03*
X59488332Y108961000D03*
X56948332Y108961000D03*
X54408332Y108961000D03*
X54408332Y98801000D03*
X56948332Y98801000D03*
X59488332Y98801000D03*
X62028332Y98801000D03*
X64568332Y98801000D03*
X67108332Y98801000D03*
X69648332Y98801000D03*
D14*
X4296000Y27472000D03*
D15*
X4296000Y24932000D03*
X4296000Y22392000D03*
D12*
X229116000Y109801332D03*
D13*
X229116000Y107261332D03*
D14*
X69187830Y47872000D03*
D15*
X69187830Y45332000D03*
X69187830Y42792000D03*
D12*
X98624498Y19947000D03*
D13*
X101164498Y19947000D03*
D16*
X44031166Y108961000D03*
D17*
X41491166Y108961000D03*
X38951166Y108961000D03*
X36411166Y108961000D03*
X33871166Y108961000D03*
X31331166Y108961000D03*
X28791166Y108961000D03*
X28791166Y98801000D03*
X31331166Y98801000D03*
X33871166Y98801000D03*
X36411166Y98801000D03*
X38951166Y98801000D03*
X41491166Y98801000D03*
X44031166Y98801000D03*
D14*
X43864166Y22472000D03*
D15*
X43864166Y19932000D03*
X43864166Y17392000D03*
D20*
X34336000Y129564000D03*
D21*
X31796000Y129564000D03*
X29256000Y129564000D03*
X26716000Y129564000D03*
X24176000Y129564000D03*
X21636000Y129564000D03*
X21636000Y121944000D03*
X24176000Y121944000D03*
X26716000Y121944000D03*
X29256000Y121944000D03*
X31796000Y121944000D03*
X34336000Y121944000D03*
D18*
X252491000Y193813500D03*
D19*
X252491000Y191273500D03*
X252491000Y188733500D03*
X252491000Y186193500D03*
X252491000Y183653500D03*
X252491000Y181113500D03*
X252491000Y178573500D03*
X252491000Y176033500D03*
X262651000Y176033500D03*
X262651000Y178573500D03*
X262651000Y181113500D03*
X262651000Y183653500D03*
X262651000Y186193500D03*
X262651000Y188733500D03*
X262651000Y191273500D03*
X262651000Y193813500D03*
D14*
X146332830Y22472000D03*
D15*
X146332830Y19932000D03*
X146332830Y17392000D03*
D14*
X29913166Y17472000D03*
D15*
X29913166Y14932000D03*
X29913166Y12392000D03*
D14*
X18247000Y66472000D03*
D15*
X18247000Y63932000D03*
X18247000Y61392000D03*
D14*
X55261830Y32672000D03*
D15*
X55261830Y30132000D03*
X55261830Y27592000D03*
D20*
X102860000Y139165500D03*
D21*
X100320000Y139165500D03*
X97780000Y139165500D03*
X95240000Y139165500D03*
X95240000Y131545500D03*
X97780000Y131545500D03*
X100320000Y131545500D03*
X102860000Y131545500D03*
D22*
X189250000Y67190000D03*
X189250000Y52190000D03*
D14*
X120944664Y44472000D03*
D15*
X120944664Y41932000D03*
X120944664Y39392000D03*
D12*
X253952665Y81788000D03*
D13*
X256492665Y81788000D03*
D22*
X10186000Y137576000D03*
X10186000Y122576000D03*
D12*
X175475996Y19947000D03*
D13*
X178015996Y19947000D03*
D14*
X132381830Y17472000D03*
D15*
X132381830Y14932000D03*
X132381830Y12392000D03*
D12*
X229050000Y68599000D03*
D13*
X229050000Y71139000D03*
D12*
X49271200Y176793000D03*
D13*
X49271200Y179333000D03*
D14*
X44093166Y44472000D03*
D15*
X44093166Y41932000D03*
X44093166Y39392000D03*
D20*
X214892000Y20574000D03*
D21*
X214892000Y18034000D03*
X214892000Y15494000D03*
X214892000Y12954000D03*
X222512000Y12954000D03*
X222512000Y15494000D03*
X222512000Y18034000D03*
X222512000Y20574000D03*
D14*
X81147498Y61472000D03*
D15*
X81147498Y58932000D03*
X81147498Y56392000D03*
D12*
X124241664Y41947000D03*
D13*
X126781664Y41947000D03*
D12*
X149858830Y41947000D03*
D13*
X152398830Y41947000D03*
D14*
X132381830Y27472000D03*
D15*
X132381830Y24932000D03*
X132381830Y22392000D03*
D22*
X241818000Y105424000D03*
X241818000Y90424000D03*
D14*
X29913166Y39472000D03*
D15*
X29913166Y36932000D03*
X29913166Y34392000D03*
D12*
X47390166Y19947000D03*
D13*
X49930166Y19947000D03*
D12*
X248407000Y81788000D03*
D13*
X250947000Y81788000D03*
D14*
X132381830Y93472000D03*
D15*
X132381830Y90932000D03*
X132381830Y88392000D03*
D23*
X14770000Y155742000D03*
X14770000Y162242000D03*
X19270000Y162242000D03*
X19270000Y155742000D03*
D14*
X157998996Y17472000D03*
D15*
X157998996Y14932000D03*
X157998996Y12392000D03*
D12*
X280320000Y120328750D03*
D13*
X282860000Y120328750D03*
D22*
X69596000Y137294000D03*
X69596000Y122294000D03*
X227200000Y137040000D03*
X227200000Y122040000D03*
D20*
X89144000Y139165500D03*
D21*
X86604000Y139165500D03*
X84064000Y139165500D03*
X81524000Y139165500D03*
X81524000Y131545500D03*
X84064000Y131545500D03*
X86604000Y131545500D03*
X89144000Y131545500D03*
D20*
X282194000Y168894000D03*
D21*
X279654000Y168894000D03*
X277114000Y168894000D03*
X274574000Y168894000D03*
X274574000Y161274000D03*
X277114000Y161274000D03*
X279654000Y161274000D03*
X282194000Y161274000D03*
D14*
X55261830Y63072000D03*
D15*
X55261830Y60532000D03*
X55261830Y57992000D03*
D14*
X14495000Y149396000D03*
D15*
X17035000Y149396000D03*
X19575000Y149396000D03*
D12*
X47390166Y103886000D03*
D13*
X49930166Y103886000D03*
D22*
X189250000Y103258000D03*
X189250000Y88258000D03*
D12*
X47390166Y41947000D03*
D13*
X49930166Y41947000D03*
D14*
X56434000Y126008000D03*
D15*
X53894000Y126008000D03*
X51354000Y126008000D03*
X48814000Y126008000D03*
X46274000Y126008000D03*
X43734000Y126008000D03*
D14*
X106764664Y27472000D03*
D15*
X106764664Y24932000D03*
X106764664Y22392000D03*
D14*
X157998996Y61472000D03*
D15*
X157998996Y58932000D03*
X157998996Y56392000D03*
D12*
X229116000Y102382666D03*
D13*
X229116000Y99842666D03*
D20*
X89162000Y126973500D03*
D21*
X86622000Y126973500D03*
X84082000Y126973500D03*
X81542000Y126973500D03*
X81542000Y119353500D03*
X84082000Y119353500D03*
X86622000Y119353500D03*
X89162000Y119353500D03*
D20*
X267504500Y46736000D03*
D21*
X275124500Y46736000D03*
D12*
X292336000Y56068000D03*
D13*
X289796000Y56068000D03*
D14*
X146332830Y66472000D03*
D15*
X146332830Y63932000D03*
X146332830Y61392000D03*
D20*
X214934500Y36312000D03*
D21*
X214934500Y33772000D03*
X214934500Y31232000D03*
X214934500Y28692000D03*
X222554500Y28692000D03*
X222554500Y31232000D03*
X222554500Y33772000D03*
X222554500Y36312000D03*
D12*
X292310000Y70668000D03*
D13*
X289770000Y70668000D03*
D12*
X229116000Y94964000D03*
D13*
X229116000Y92424000D03*
D20*
X267726000Y168894000D03*
D21*
X265186000Y168894000D03*
X262646000Y168894000D03*
X260106000Y168894000D03*
X260106000Y161274000D03*
X262646000Y161274000D03*
X265186000Y161274000D03*
X267726000Y161274000D03*
D14*
X157998996Y39472000D03*
D15*
X157998996Y36932000D03*
X157998996Y34392000D03*
D14*
X55261830Y93472000D03*
D15*
X55261830Y90932000D03*
X55261830Y88392000D03*
D14*
X146307830Y88472000D03*
D15*
X146307830Y85932000D03*
X146307830Y83392000D03*
D12*
X72755830Y75732000D03*
D13*
X75295830Y75732000D03*
D14*
X132381830Y83472000D03*
D15*
X132381830Y80932000D03*
X132381830Y78392000D03*
D23*
X35642000Y162242000D03*
X35642000Y155742000D03*
X40142000Y162242000D03*
X40142000Y155742000D03*
D18*
X250703000Y70597000D03*
D19*
X250703000Y68057000D03*
X250703000Y65517000D03*
X250703000Y62977000D03*
X250703000Y60437000D03*
X250703000Y57897000D03*
X250703000Y55357000D03*
X250703000Y52817000D03*
X260863000Y52817000D03*
X260863000Y55357000D03*
X260863000Y57897000D03*
X260863000Y60437000D03*
X260863000Y62977000D03*
X260863000Y65517000D03*
X260863000Y68057000D03*
X260863000Y70597000D03*
D12*
X265043997Y81788000D03*
D13*
X267583997Y81788000D03*
D12*
X49525200Y189229000D03*
D13*
X49525200Y191769000D03*
D12*
X291057000Y164554500D03*
D13*
X291057000Y162014500D03*
D12*
X42870400Y189229000D03*
D13*
X42870400Y191769000D03*
D22*
X241818000Y64904000D03*
X241818000Y49904000D03*
D12*
X134885000Y120238000D03*
D13*
X137425000Y120238000D03*
D14*
X29913166Y83472000D03*
D15*
X29913166Y80932000D03*
X29913166Y78392000D03*
D12*
X27518640Y138719000D03*
D13*
X27518640Y136179000D03*
D22*
X241818000Y143093500D03*
X241818000Y128093500D03*
D12*
X259498329Y81788000D03*
D13*
X262038329Y81788000D03*
D14*
X95073498Y88472000D03*
D15*
X95073498Y85932000D03*
X95073498Y83392000D03*
D14*
X208260000Y85065000D03*
D15*
X205720000Y85065000D03*
D14*
X18476000Y44472000D03*
D15*
X18476000Y41932000D03*
X18476000Y39392000D03*
D12*
X111771000Y120238000D03*
D13*
X114311000Y120238000D03*
D12*
X118121000Y120238000D03*
D13*
X120661000Y120238000D03*
D20*
X252264500Y46736000D03*
D21*
X259884500Y46736000D03*
D12*
X175475996Y85947000D03*
D13*
X178015996Y85947000D03*
D18*
X197593000Y33259000D03*
D19*
X197593000Y30719000D03*
X197593000Y28179000D03*
X197593000Y25639000D03*
X197593000Y23099000D03*
X197593000Y20559000D03*
X197593000Y18019000D03*
X197593000Y15479000D03*
X207753000Y15479000D03*
X207753000Y18019000D03*
X207753000Y20559000D03*
X207753000Y23099000D03*
X207753000Y25639000D03*
X207753000Y28179000D03*
X207753000Y30719000D03*
X207753000Y33259000D03*
D14*
X81147498Y27472000D03*
D15*
X81147498Y24932000D03*
X81147498Y22392000D03*
D14*
X81147498Y49472000D03*
D15*
X81147498Y46932000D03*
X81147498Y44392000D03*
D14*
X29913166Y71472000D03*
D15*
X29913166Y68932000D03*
X29913166Y66392000D03*
D12*
X72755830Y60532000D03*
D13*
X75295830Y60532000D03*
D14*
X81147498Y17472000D03*
D15*
X81147498Y14932000D03*
X81147498Y12392000D03*
D12*
X34620480Y138719000D03*
D13*
X34620480Y136179000D03*
D14*
X132381830Y71472000D03*
D15*
X132381830Y68932000D03*
X132381830Y66392000D03*
D12*
X47390166Y85947000D03*
D13*
X49930166Y85947000D03*
D14*
X120715664Y22472000D03*
D15*
X120715664Y19932000D03*
X120715664Y17392000D03*
D20*
X268346000Y133088000D03*
D21*
X265806000Y133088000D03*
X263266000Y133088000D03*
X260726000Y133088000D03*
X258186000Y133088000D03*
X258186000Y125468000D03*
X260726000Y125468000D03*
X263266000Y125468000D03*
X265806000Y125468000D03*
X268346000Y125468000D03*
D12*
X213710000Y141570000D03*
D13*
X216210000Y141570000D03*
X218710000Y141570000D03*
D14*
X120715664Y66472000D03*
D15*
X120715664Y63932000D03*
X120715664Y61392000D03*
D22*
X189250000Y31884000D03*
X189250000Y16884000D03*
D23*
X53642000Y155742000D03*
X53642000Y162242000D03*
X58142000Y155742000D03*
X58142000Y162242000D03*
D20*
X171450000Y136652000D03*
D21*
X171450000Y134112000D03*
X171450000Y131572000D03*
X171450000Y129032000D03*
X171450000Y126492000D03*
X171450000Y123952000D03*
X171450000Y121412000D03*
X179070000Y121412000D03*
X179070000Y123952000D03*
X179070000Y126492000D03*
X179070000Y129032000D03*
X179070000Y131572000D03*
X179070000Y134112000D03*
X179070000Y136652000D03*
D14*
X106764664Y49472000D03*
D15*
X106764664Y46932000D03*
X106764664Y44392000D03*
D18*
X271541000Y191293500D03*
D19*
X271541000Y188753500D03*
X271541000Y186213500D03*
X271541000Y183673500D03*
X271541000Y181133500D03*
X271541000Y178593500D03*
X271541000Y176053500D03*
X281701000Y176053500D03*
X281701000Y178593500D03*
X281701000Y181133500D03*
X281701000Y183673500D03*
X281701000Y186213500D03*
X281701000Y188753500D03*
X281701000Y191293500D03*
D12*
X21773000Y63947000D03*
D13*
X24313000Y63947000D03*
D12*
X42616400Y176793000D03*
D13*
X42616400Y179333000D03*
D12*
X284014332Y81788000D03*
D13*
X286554332Y81788000D03*
D14*
X146561830Y44472000D03*
D15*
X146561830Y41932000D03*
X146561830Y39392000D03*
D14*
X95098498Y22472000D03*
D15*
X95098498Y19932000D03*
X95098498Y17392000D03*
D12*
X223690000Y128250000D03*
D13*
X223690000Y130790000D03*
D14*
X69187830Y63072000D03*
D15*
X69187830Y60532000D03*
X69187830Y57992000D03*
D12*
X291057000Y187605000D03*
D13*
X291057000Y185065000D03*
D14*
X157998996Y27472000D03*
D15*
X157998996Y24932000D03*
X157998996Y22392000D03*
D14*
X95098498Y66472000D03*
D15*
X95098498Y63932000D03*
X95098498Y61392000D03*
D18*
X141478000Y142994000D03*
D19*
X141478000Y140454000D03*
X141478000Y137914000D03*
X141478000Y135374000D03*
X141478000Y132834000D03*
X141478000Y130294000D03*
X141478000Y127754000D03*
X151638000Y127754000D03*
X151638000Y130294000D03*
X151638000Y132834000D03*
X151638000Y135374000D03*
X151638000Y137914000D03*
X151638000Y140454000D03*
X151638000Y142994000D03*
D12*
X72755830Y30132000D03*
D13*
X75295830Y30132000D03*
D12*
X124241664Y103886000D03*
D13*
X126781664Y103886000D03*
D12*
X229050000Y53677000D03*
D13*
X229050000Y56217000D03*
D24*
X216140000Y123114000D03*
X220220000Y123114000D03*
X218180000Y123114000D03*
X216140000Y118114000D03*
X220220000Y118114000D03*
X218180000Y118114000D03*
D14*
X157998996Y93472000D03*
D15*
X157998996Y90932000D03*
X157998996Y88392000D03*
D20*
X100589000Y126973500D03*
D21*
X98049000Y126973500D03*
X98049000Y119353500D03*
X100589000Y119353500D03*
D12*
X20416800Y138719000D03*
D13*
X20416800Y136179000D03*
D14*
X55261830Y47872000D03*
D15*
X55261830Y45332000D03*
X55261830Y42792000D03*
D12*
X72755830Y14932000D03*
D13*
X75295830Y14932000D03*
D12*
X149858830Y85947000D03*
D13*
X152398830Y85947000D03*
D12*
X229370000Y26924000D03*
D13*
X231910000Y26924000D03*
D22*
X10186000Y189110000D03*
X10186000Y174110000D03*
D12*
X124241664Y85947000D03*
D13*
X126781664Y85947000D03*
D22*
X188246000Y137040000D03*
X188246000Y122040000D03*
D14*
X29913166Y49472000D03*
D15*
X29913166Y46932000D03*
X29913166Y44392000D03*
D12*
X98624498Y63947000D03*
D13*
X101164498Y63947000D03*
D14*
X4296000Y17472000D03*
D15*
X4296000Y14932000D03*
X4296000Y12392000D03*
D14*
X69187830Y78272000D03*
D15*
X69187830Y75732000D03*
X69187830Y73192000D03*
D20*
X214122000Y72644000D03*
D21*
X214122000Y70104000D03*
X214122000Y67564000D03*
X214122000Y65024000D03*
X214122000Y62484000D03*
X221742000Y62484000D03*
X221742000Y65024000D03*
X221742000Y67564000D03*
X221742000Y70104000D03*
X221742000Y72644000D03*
D14*
X81147498Y93472000D03*
D15*
X81147498Y90932000D03*
X81147498Y88392000D03*
D14*
X4296000Y49472000D03*
D15*
X4296000Y46932000D03*
X4296000Y44392000D03*
D22*
X241818000Y186342500D03*
X241818000Y171342500D03*
D12*
X47390166Y63947000D03*
D13*
X49930166Y63947000D03*
D14*
X106764664Y93472000D03*
D15*
X106764664Y90932000D03*
X106764664Y88392000D03*
D12*
X262040000Y120328750D03*
D13*
X264580000Y120328750D03*
D14*
X33320000Y171660000D03*
D15*
X35860000Y171660000D03*
X38400000Y171660000D03*
X40940000Y171660000D03*
X43480000Y171660000D03*
X46020000Y171660000D03*
D18*
X251973000Y34021000D03*
D19*
X251973000Y31481000D03*
X251973000Y28941000D03*
X251973000Y26401000D03*
X251973000Y23861000D03*
X251973000Y21321000D03*
X251973000Y18781000D03*
X251973000Y16241000D03*
X262133000Y16241000D03*
X262133000Y18781000D03*
X262133000Y21321000D03*
X262133000Y23861000D03*
X262133000Y26401000D03*
X262133000Y28941000D03*
X262133000Y31481000D03*
X262133000Y34021000D03*
D23*
X5770000Y155742000D03*
X5770000Y162242000D03*
X10270000Y162242000D03*
X10270000Y155742000D03*
D20*
X252232000Y168936500D03*
D21*
X252232000Y161316500D03*
D14*
X106764664Y61472000D03*
D15*
X106764664Y58932000D03*
X106764664Y56392000D03*
D14*
X157998996Y83472000D03*
D15*
X157998996Y80932000D03*
X157998996Y78392000D03*
D12*
X229370000Y15748000D03*
D13*
X231910000Y15748000D03*
D20*
X275590000Y101076000D03*
D21*
X273050000Y101076000D03*
X270510000Y101076000D03*
X270510000Y93456000D03*
X273050000Y93456000D03*
X275590000Y93456000D03*
D16*
X120882664Y108961000D03*
D17*
X118342664Y108961000D03*
X115802664Y108961000D03*
X113262664Y108961000D03*
X110722664Y108961000D03*
X108182664Y108961000D03*
X105642664Y108961000D03*
X105642664Y98801000D03*
X108182664Y98801000D03*
X110722664Y98801000D03*
X113262664Y98801000D03*
X115802664Y98801000D03*
X118342664Y98801000D03*
X120882664Y98801000D03*
D14*
X4296000Y93472000D03*
D15*
X4296000Y90932000D03*
X4296000Y88392000D03*
D14*
X69187830Y17472000D03*
D15*
X69187830Y14932000D03*
X69187830Y12392000D03*
D12*
X72755830Y103886000D03*
D13*
X75295830Y103886000D03*
D12*
X289560000Y81788000D03*
D13*
X292100000Y81788000D03*
D12*
X22652000Y176793000D03*
D13*
X22652000Y179333000D03*
D12*
X56180000Y189229000D03*
D13*
X56180000Y191769000D03*
D12*
X41722320Y138719000D03*
D13*
X41722320Y136179000D03*
D14*
X106764664Y39472000D03*
D15*
X106764664Y36932000D03*
X106764664Y34392000D03*
D14*
X120690664Y88472000D03*
D15*
X120690664Y85932000D03*
X120690664Y83392000D03*
D12*
X140725333Y120238000D03*
D13*
X143265333Y120238000D03*
D12*
X21773000Y19947000D03*
D13*
X24313000Y19947000D03*
D20*
X213632500Y99680191D03*
D21*
X221252500Y99680191D03*
D20*
X267504500Y71384000D03*
D21*
X267504500Y68844000D03*
X267504500Y66304000D03*
X267504500Y63764000D03*
X267504500Y61224000D03*
X267504500Y58684000D03*
X267504500Y56144000D03*
X267504500Y53604000D03*
X275124500Y53604000D03*
X275124500Y56144000D03*
X275124500Y58684000D03*
X275124500Y61224000D03*
X275124500Y63764000D03*
X275124500Y66304000D03*
X275124500Y68844000D03*
X275124500Y71384000D03*
D14*
X157998996Y71472000D03*
D15*
X157998996Y68932000D03*
X157998996Y66392000D03*
D22*
X161310000Y136770000D03*
X161310000Y121770000D03*
D12*
X175475996Y103886000D03*
D13*
X178015996Y103886000D03*
D14*
X18247000Y22472000D03*
D15*
X18247000Y19932000D03*
X18247000Y17392000D03*
D12*
X72755830Y45332000D03*
D13*
X75295830Y45332000D03*
D14*
X81147498Y83472000D03*
D15*
X81147498Y80932000D03*
X81147498Y78392000D03*
D12*
X272923000Y81788000D03*
D13*
X275463000Y81788000D03*
D14*
X43864166Y66472000D03*
D15*
X43864166Y63932000D03*
X43864166Y61392000D03*
D12*
X149858830Y63947000D03*
D13*
X152398830Y63947000D03*
D25*
X281178000Y17780000D03*
D26*
X283718000Y17780000D03*
X286258000Y17780000D03*
X288798000Y17780000D03*
X291338000Y17780000D03*
X291338000Y33020000D03*
X288798000Y33020000D03*
X286258000Y33020000D03*
X283718000Y33020000D03*
X281178000Y33020000D03*
D14*
X172178996Y44472000D03*
D15*
X172178996Y41932000D03*
X172178996Y39392000D03*
D23*
X210768000Y118364000D03*
X204268000Y118364000D03*
X204268000Y122864000D03*
X210768000Y122864000D03*
D14*
X44367000Y149659000D03*
D15*
X46907000Y149659000D03*
X49447000Y149659000D03*
D12*
X98624498Y103886000D03*
D13*
X101164498Y103886000D03*
D23*
X44642000Y155742000D03*
X44642000Y162242000D03*
X49142000Y155742000D03*
X49142000Y162242000D03*
X23770000Y155742000D03*
X23770000Y162242000D03*
X28270000Y155742000D03*
X28270000Y162242000D03*
D18*
X197593000Y108971000D03*
D19*
X197593000Y106431000D03*
X197593000Y103891000D03*
X197593000Y101351000D03*
X197593000Y98811000D03*
X197593000Y96271000D03*
X197593000Y93731000D03*
X207753000Y93731000D03*
X207753000Y96271000D03*
X207753000Y98811000D03*
X207753000Y101351000D03*
X207753000Y103891000D03*
X207753000Y106431000D03*
X207753000Y108971000D03*
D16*
X95265498Y108961000D03*
D17*
X92725498Y108961000D03*
X90185498Y108961000D03*
X87645498Y108961000D03*
X85105498Y108961000D03*
X82565498Y108961000D03*
X80025498Y108961000D03*
X80025498Y98801000D03*
X82565498Y98801000D03*
X85105498Y98801000D03*
X87645498Y98801000D03*
X90185498Y98801000D03*
X92725498Y98801000D03*
X95265498Y98801000D03*
D12*
X72755830Y90932000D03*
D13*
X75295830Y90932000D03*
D14*
X171924996Y88472000D03*
D15*
X171924996Y85932000D03*
X171924996Y83392000D03*
D20*
X213632500Y109824191D03*
D21*
X221252500Y109824191D03*
D14*
X29913166Y27472000D03*
D15*
X29913166Y24932000D03*
X29913166Y22392000D03*
D12*
X146565667Y120238000D03*
D13*
X149105667Y120238000D03*
D12*
X149858830Y103886000D03*
D13*
X152398830Y103886000D03*
D12*
X124241664Y19947000D03*
D13*
X126781664Y19947000D03*
D14*
X29913166Y61472000D03*
D15*
X29913166Y58932000D03*
X29913166Y56392000D03*
D20*
X260863000Y147531500D03*
D21*
X258323000Y147531500D03*
X258323000Y139911500D03*
X260863000Y139911500D03*
D12*
X149858830Y19947000D03*
D13*
X152398830Y19947000D03*
D20*
X213632500Y90428000D03*
D21*
X213632500Y87888000D03*
X213632500Y85348000D03*
X213632500Y82808000D03*
X221252500Y82808000D03*
X221252500Y85348000D03*
X221252500Y87888000D03*
X221252500Y90428000D03*
D14*
X157998996Y49472000D03*
D15*
X157998996Y46932000D03*
X157998996Y44392000D03*
D12*
X292349000Y48768000D03*
D13*
X289809000Y48768000D03*
D20*
X214122000Y56637000D03*
D21*
X214122000Y54097000D03*
X214122000Y51557000D03*
X214122000Y49017000D03*
X214122000Y46477000D03*
X221742000Y46477000D03*
X221742000Y49017000D03*
X221742000Y51557000D03*
X221742000Y54097000D03*
X221742000Y56637000D03*
D12*
X292323000Y63368000D03*
D13*
X289783000Y63368000D03*
D12*
X55926000Y176793000D03*
D13*
X55926000Y179333000D03*
D14*
X132381830Y61472000D03*
D15*
X132381830Y58932000D03*
X132381830Y56392000D03*
D12*
X48824160Y138719000D03*
D13*
X48824160Y136179000D03*
D12*
X129044667Y120238000D03*
D13*
X131584667Y120238000D03*
D16*
X172116996Y108961000D03*
D17*
X169576996Y108961000D03*
X167036996Y108961000D03*
X164496996Y108961000D03*
X161956996Y108961000D03*
X159416996Y108961000D03*
X156876996Y108961000D03*
X156876996Y98801000D03*
X159416996Y98801000D03*
X161956996Y98801000D03*
X164496996Y98801000D03*
X167036996Y98801000D03*
X169576996Y98801000D03*
X172116996Y98801000D03*
D14*
X43839166Y88472000D03*
D15*
X43839166Y85932000D03*
X43839166Y83392000D03*
D14*
X55261830Y78272000D03*
D15*
X55261830Y75732000D03*
X55261830Y73192000D03*
D14*
X56434000Y122198000D03*
D15*
X53894000Y122198000D03*
X51354000Y122198000D03*
X48814000Y122198000D03*
X46274000Y122198000D03*
X43734000Y122198000D03*
D14*
X4296000Y39472000D03*
D15*
X4296000Y36932000D03*
X4296000Y34392000D03*
D14*
X69187830Y32672000D03*
D15*
X69187830Y30132000D03*
X69187830Y27592000D03*
D14*
X106764664Y83472000D03*
D15*
X106764664Y80932000D03*
X106764664Y78392000D03*
D14*
X106764664Y17472000D03*
D15*
X106764664Y14932000D03*
X106764664Y12392000D03*
D16*
X204492000Y140731000D03*
D17*
X201952000Y140731000D03*
X199412000Y140731000D03*
X196872000Y140731000D03*
X196872000Y133111000D03*
X199412000Y133111000D03*
X201952000Y133111000D03*
X204492000Y133111000D03*
D12*
X175475996Y41947000D03*
D13*
X178015996Y41947000D03*
D12*
X229050000Y61270000D03*
D13*
X229050000Y63810000D03*
D14*
X81147498Y39472000D03*
D15*
X81147498Y36932000D03*
X81147498Y34392000D03*
D14*
X55261830Y17472000D03*
D15*
X55261830Y14932000D03*
X55261830Y12392000D03*
D16*
X146499830Y108961000D03*
D17*
X143959830Y108961000D03*
X141419830Y108961000D03*
X138879830Y108961000D03*
X136339830Y108961000D03*
X133799830Y108961000D03*
X131259830Y108961000D03*
X131259830Y98801000D03*
X133799830Y98801000D03*
X136339830Y98801000D03*
X138879830Y98801000D03*
X141419830Y98801000D03*
X143959830Y98801000D03*
X146499830Y98801000D03*
D18*
X197593000Y68057000D03*
D19*
X197593000Y65517000D03*
X197593000Y62977000D03*
X197593000Y60437000D03*
X197593000Y57897000D03*
X197593000Y55357000D03*
X197593000Y52817000D03*
X197593000Y50277000D03*
X207753000Y50277000D03*
X207753000Y52817000D03*
X207753000Y55357000D03*
X207753000Y57897000D03*
X207753000Y60437000D03*
X207753000Y62977000D03*
X207753000Y65517000D03*
X207753000Y68057000D03*
D12*
X291057000Y172238000D03*
D13*
X291057000Y169698000D03*
D14*
X18222000Y88472000D03*
D15*
X18222000Y85932000D03*
X18222000Y83392000D03*
D12*
X98624498Y85947000D03*
D13*
X101164498Y85947000D03*
D20*
X286512000Y133053500D03*
D21*
X283972000Y133053500D03*
X281432000Y133053500D03*
X278892000Y133053500D03*
X276352000Y133053500D03*
X276352000Y125433500D03*
X278892000Y125433500D03*
X281432000Y125433500D03*
X283972000Y125433500D03*
X286512000Y125433500D03*
D12*
X98624498Y41947000D03*
D13*
X101164498Y41947000D03*
D22*
X241818000Y30732000D03*
X241818000Y15732000D03*
D12*
X291057000Y179921500D03*
D13*
X291057000Y177381500D03*
D14*
X132381830Y49472000D03*
D15*
X132381830Y46932000D03*
X132381830Y44392000D03*
D20*
X261620000Y101076000D03*
D21*
X259080000Y101076000D03*
X256540000Y101076000D03*
X256540000Y93456000D03*
X259080000Y93456000D03*
X261620000Y93456000D03*
D16*
X136398000Y142994000D03*
D17*
X133858000Y142994000D03*
X131318000Y142994000D03*
X128778000Y142994000D03*
X126238000Y142994000D03*
X123698000Y142994000D03*
X121158000Y142994000D03*
X118618000Y142994000D03*
X116078000Y142994000D03*
X113538000Y142994000D03*
X110998000Y142994000D03*
X108458000Y142994000D03*
X108458000Y127754000D03*
X110998000Y127754000D03*
X113538000Y127754000D03*
X116078000Y127754000D03*
X118618000Y127754000D03*
X121158000Y127754000D03*
X123698000Y127754000D03*
X126238000Y127754000D03*
X128778000Y127754000D03*
X131318000Y127754000D03*
X133858000Y127754000D03*
X136398000Y127754000D03*
D14*
X106764664Y71472000D03*
D15*
X106764664Y68932000D03*
X106764664Y66392000D03*
D14*
X4296000Y71472000D03*
D15*
X4296000Y68932000D03*
X4296000Y66392000D03*
D12*
X21773000Y103886000D03*
D13*
X24313000Y103886000D03*
D20*
X268478000Y29210000D03*
D21*
X268478000Y26670000D03*
X268478000Y24130000D03*
X268478000Y21590000D03*
X276098000Y21590000D03*
X276098000Y24130000D03*
X276098000Y26670000D03*
X276098000Y29210000D03*
D12*
X229370000Y37846000D03*
D13*
X231910000Y37846000D03*
D12*
X55926000Y138719000D03*
D13*
X55926000Y136179000D03*
D14*
X95327498Y44472000D03*
D15*
X95327498Y41932000D03*
X95327498Y39392000D03*
D14*
X171949996Y22472000D03*
D15*
X171949996Y19932000D03*
X171949996Y17392000D03*
D14*
X69187830Y93472000D03*
D15*
X69187830Y90932000D03*
X69187830Y88392000D03*
D14*
X81147498Y71472000D03*
D15*
X81147498Y68932000D03*
X81147498Y66392000D03*
D12*
X29560800Y189229000D03*
D13*
X29560800Y191769000D03*
D14*
X44750000Y196600000D03*
D15*
X42210000Y196600000D03*
X39670000Y196600000D03*
X37130000Y196600000D03*
X34590000Y196600000D03*
X32050000Y196600000D03*
D14*
X4296000Y61472000D03*
D15*
X4296000Y58932000D03*
X4296000Y56392000D03*
D14*
X132381830Y39472000D03*
D15*
X132381830Y36932000D03*
X132381830Y34392000D03*
D27*
X219694000Y34036000D03*
X217694000Y34036000D03*
D28*
X80772000Y136144000D03*
X80772000Y134144000D03*
D27*
X219694000Y18288000D03*
X217694000Y18288000D03*
X272526000Y67056000D03*
X270526000Y67056000D03*
D28*
X87291332Y124206000D03*
X87291332Y122206000D03*
D29*
X216400000Y87884000D03*
X218400000Y87884000D03*
D27*
X218400000Y109982000D03*
X216400000Y109982000D03*
X219694000Y21590000D03*
X217694000Y21590000D03*
D28*
X268986000Y166084000D03*
X268986000Y164084000D03*
X279908000Y166084000D03*
X279908000Y164084000D03*
X283210000Y166084000D03*
X283210000Y164084000D03*
D27*
X218400000Y99822000D03*
X216400000Y99822000D03*
D28*
X86868000Y136144000D03*
X86868000Y134144000D03*
D30*
X288036000Y128278000D03*
X288036000Y130278000D03*
D28*
X100838000Y136144000D03*
X100838000Y134144000D03*
D30*
X259905500Y128540000D03*
X259905500Y130540000D03*
D27*
X272526000Y70104000D03*
X270526000Y70104000D03*
D28*
X84158666Y124206000D03*
X84158666Y122206000D03*
X81026000Y124206000D03*
X81026000Y122206000D03*
D27*
X273542000Y23198668D03*
X271542000Y23198668D03*
X219186000Y51054000D03*
X217186000Y51054000D03*
D28*
X258577000Y144721500D03*
X258577000Y142721500D03*
D27*
X219694000Y14986000D03*
X217694000Y14986000D03*
X219186000Y44958000D03*
X217186000Y44958000D03*
X218889500Y60960000D03*
X216889500Y60960000D03*
D29*
X255286000Y46736000D03*
X257286000Y46736000D03*
D28*
X276606000Y166084000D03*
X276606000Y164084000D03*
D30*
X263144000Y128540000D03*
X263144000Y130540000D03*
D27*
X272542000Y50546000D03*
X270542000Y50546000D03*
D30*
X261874000Y96536000D03*
X261874000Y98536000D03*
D27*
X273542000Y29972000D03*
X271542000Y29972000D03*
X219710000Y27432000D03*
X217710000Y27432000D03*
D30*
X281305000Y128278000D03*
X281305000Y130278000D03*
X274701000Y128278000D03*
X274701000Y130278000D03*
X272542000Y96552000D03*
X272542000Y98552000D03*
X255001000Y96536000D03*
X255001000Y98536000D03*
X269225000Y96552000D03*
X269225000Y98552000D03*
D27*
X219186000Y57150000D03*
X217186000Y57150000D03*
D30*
X278003000Y128278000D03*
X278003000Y130278000D03*
D28*
X89916000Y136144000D03*
X89916000Y134144000D03*
D27*
X218889500Y64008000D03*
X216889500Y64008000D03*
D29*
X216400000Y82804000D03*
X218400000Y82804000D03*
D27*
X219694000Y37338000D03*
X217694000Y37338000D03*
X218889500Y67056000D03*
X216889500Y67056000D03*
D28*
X97790000Y136144000D03*
X97790000Y134144000D03*
D30*
X258437500Y96536000D03*
X258437500Y98536000D03*
D29*
X270526000Y46736000D03*
X272526000Y46736000D03*
D27*
X219186000Y54102000D03*
X217186000Y54102000D03*
D30*
X269621000Y128540000D03*
X269621000Y130540000D03*
D28*
X261879000Y144721500D03*
X261879000Y142721500D03*
D29*
X216400000Y90424000D03*
X218400000Y90424000D03*
D30*
X266382500Y128540000D03*
X266382500Y130540000D03*
D27*
X219694000Y30734000D03*
X217694000Y30734000D03*
X218889500Y70104000D03*
X216889500Y70104000D03*
X272526000Y53848000D03*
X270526000Y53848000D03*
X273542000Y26585334D03*
X271542000Y26585334D03*
X272526000Y57150000D03*
X270526000Y57150000D03*
X219186000Y48006000D03*
X217186000Y48006000D03*
X219694000Y11684000D03*
X217694000Y11684000D03*
D30*
X256667000Y128540000D03*
X256667000Y130540000D03*
X284607000Y128278000D03*
X284607000Y130278000D03*
D27*
X272526000Y60452000D03*
X270526000Y60452000D03*
D28*
X265684000Y166084000D03*
X265684000Y164084000D03*
X83820000Y136144000D03*
X83820000Y134144000D03*
X94742000Y136144000D03*
X94742000Y134144000D03*
D30*
X275844000Y96552000D03*
X275844000Y98552000D03*
D28*
X90424000Y124206000D03*
X90424000Y122206000D03*
X103886000Y136144000D03*
X103886000Y134144000D03*
D27*
X218889500Y73152000D03*
X216889500Y73152000D03*
D29*
X216400000Y85344000D03*
X218400000Y85344000D03*
D28*
X273304000Y166084000D03*
X273304000Y164084000D03*
D27*
X272526000Y63754000D03*
X270526000Y63754000D03*
X273542000Y19812000D03*
X271542000Y19812000D03*
X272526000Y73406000D03*
X270526000Y73406000D03*
D28*
X259080000Y166084000D03*
X259080000Y164084000D03*
X262382000Y166084000D03*
X262382000Y164084000D03*
D27*
X208010000Y88900000D03*
X206010000Y88900000D03*
M02*
