G04 #@! TF.GenerationSoftware,KiCad,Pcbnew,(6.0.6)*
G04 #@! TF.CreationDate,2024-09-14T01:54:17+08:00*
G04 #@! TF.ProjectId,PCB_3,5043425f-332e-46b6-9963-61645f706362,rev?*
G04 #@! TF.SameCoordinates,Original*
G04 #@! TF.FileFunction,Legend,Bot*
G04 #@! TF.FilePolarity,Positive*
%FSLAX46Y46*%
G04 Gerber Fmt 4.6, Leading zero omitted, Abs format (unit mm)*
G04 Created by KiCad (PCBNEW (6.0.6)) date 2024-09-14 01:54:17*
%MOMM*%
%LPD*%
G01*
G04 APERTURE LIST*
G04 Aperture macros list*
%AMRoundRect*
0 Rectangle with rounded corners*
0 $1 Rounding radius*
0 $2 $3 $4 $5 $6 $7 $8 $9 X,Y pos of 4 corners*
0 Add a 4 corners polygon primitive as box body*
4,1,4,$2,$3,$4,$5,$6,$7,$8,$9,$2,$3,0*
0 Add four circle primitives for the rounded corners*
1,1,$1+$1,$2,$3*
1,1,$1+$1,$4,$5*
1,1,$1+$1,$6,$7*
1,1,$1+$1,$8,$9*
0 Add four rect primitives between the rounded corners*
20,1,$1+$1,$2,$3,$4,$5,0*
20,1,$1+$1,$4,$5,$6,$7,0*
20,1,$1+$1,$6,$7,$8,$9,0*
20,1,$1+$1,$8,$9,$2,$3,0*%
G04 Aperture macros list end*
%ADD10R,1.700000X1.700000*%
%ADD11O,1.700000X1.700000*%
%ADD12C,1.600000*%
%ADD13O,1.600000X1.600000*%
%ADD14C,8.000000*%
%ADD15R,2.400000X1.600000*%
%ADD16O,2.400000X1.600000*%
%ADD17R,1.600000X1.600000*%
%ADD18R,2.000000X2.000000*%
%ADD19C,2.000000*%
%ADD20C,1.524000*%
%ADD21R,1.600000X2.400000*%
%ADD22O,1.600000X2.400000*%
%ADD23RoundRect,0.625000X0.625000X-0.625000X0.625000X0.625000X-0.625000X0.625000X-0.625000X-0.625000X0*%
%ADD24RoundRect,0.625000X-0.625000X-0.625000X0.625000X-0.625000X0.625000X0.625000X-0.625000X0.625000X0*%
%ADD25R,1.500000X1.050000*%
%ADD26O,1.500000X1.050000*%
%ADD27R,2.200000X2.200000*%
%ADD28O,2.200000X2.200000*%
%ADD29R,1.800000X1.800000*%
%ADD30C,1.800000*%
G04 APERTURE END LIST*
%LPC*%
D10*
X207264000Y19797000D03*
D11*
X209804000Y19797000D03*
X212344000Y19797000D03*
D12*
X280416000Y191262000D03*
D13*
X290576000Y191262000D03*
D14*
X82195000Y126325000D03*
X82195000Y111325000D03*
D10*
X20574000Y34036000D03*
D11*
X20574000Y31496000D03*
D14*
X301498000Y19304000D03*
D12*
X45212000Y92456000D03*
D13*
X45212000Y82296000D03*
D10*
X282330000Y94520000D03*
D11*
X282330000Y91980000D03*
D12*
X274320000Y102108000D03*
D13*
X264160000Y102108000D03*
D12*
X55014000Y168439000D03*
D13*
X55014000Y158279000D03*
D10*
X149098000Y102865000D03*
D11*
X149098000Y105405000D03*
D10*
X119710000Y103050000D03*
D11*
X119710000Y105590000D03*
D15*
X54840000Y41620000D03*
D16*
X54840000Y39080000D03*
X54840000Y36540000D03*
X54840000Y34000000D03*
X65000000Y34000000D03*
X65000000Y36540000D03*
X65000000Y39080000D03*
X65000000Y41620000D03*
D12*
X89950000Y150470000D03*
D13*
X100110000Y150470000D03*
D12*
X264922000Y129032000D03*
D13*
X275082000Y129032000D03*
D10*
X25200000Y127220000D03*
D11*
X25200000Y129760000D03*
D17*
X154178000Y153670000D03*
D12*
X156678000Y153670000D03*
D10*
X262631000Y36068000D03*
D11*
X265171000Y36068000D03*
D12*
X118167000Y111030000D03*
D13*
X118167000Y121190000D03*
D10*
X143114000Y102828000D03*
D11*
X143114000Y105368000D03*
D10*
X280162000Y54102000D03*
D11*
X280162000Y56642000D03*
D14*
X309372000Y168295000D03*
D10*
X280416000Y98298000D03*
D11*
X277876000Y98298000D03*
D10*
X81534000Y34544000D03*
D11*
X81534000Y37084000D03*
X81534000Y39624000D03*
X25900000Y187770000D03*
D10*
X25900000Y190310000D03*
D18*
X173560000Y89600000D03*
D19*
X173560000Y84600000D03*
D17*
X115020000Y144330000D03*
D12*
X112520000Y144330000D03*
X60896000Y92710000D03*
D13*
X60896000Y82550000D03*
D10*
X39810000Y110030000D03*
D11*
X42350000Y110030000D03*
D14*
X251190000Y156448000D03*
X251190000Y142448000D03*
D10*
X265181000Y30226000D03*
D11*
X262641000Y30226000D03*
D12*
X22098000Y102362000D03*
D13*
X32258000Y102362000D03*
D20*
X297020000Y62370000D03*
X307020000Y62370000D03*
D14*
X294386000Y155194000D03*
D10*
X62830000Y178150000D03*
D11*
X62830000Y175610000D03*
D10*
X30990000Y127220000D03*
D11*
X30990000Y129760000D03*
D17*
X211900888Y153924000D03*
D12*
X214400888Y153924000D03*
X307830000Y72090000D03*
D13*
X297670000Y72090000D03*
D10*
X266954000Y150723000D03*
D11*
X266954000Y148183000D03*
D12*
X121666000Y167894000D03*
D13*
X121666000Y178054000D03*
D12*
X154773000Y77216000D03*
D13*
X154773000Y87376000D03*
D21*
X295250000Y112140000D03*
D22*
X292710000Y112140000D03*
X290170000Y112140000D03*
X287630000Y112140000D03*
X287630000Y101980000D03*
X290170000Y101980000D03*
X292710000Y101980000D03*
X295250000Y101980000D03*
D20*
X22432000Y108204000D03*
X32432000Y108204000D03*
D10*
X189230000Y45705000D03*
D11*
X189230000Y43165000D03*
X189230000Y40625000D03*
D10*
X51730000Y178040000D03*
D11*
X51730000Y175500000D03*
D12*
X184910000Y168220000D03*
D13*
X184910000Y178380000D03*
D10*
X145796000Y147574000D03*
D11*
X148336000Y147574000D03*
D10*
X114050000Y103055000D03*
D11*
X114050000Y105595000D03*
D12*
X271018000Y92964000D03*
D13*
X271018000Y82804000D03*
D12*
X111167000Y111030000D03*
D13*
X111167000Y121190000D03*
D14*
X294132000Y181610000D03*
D10*
X57280000Y178140000D03*
D11*
X57280000Y175600000D03*
D10*
X65039000Y25893000D03*
D11*
X67579000Y25893000D03*
X70119000Y25893000D03*
D23*
X20360000Y183190000D03*
D10*
X220218000Y45451000D03*
D11*
X220218000Y42911000D03*
X220218000Y40371000D03*
D12*
X275070000Y109410000D03*
D13*
X264910000Y109410000D03*
D23*
X26670000Y195326000D03*
D24*
X48260000Y149098000D03*
D12*
X204216000Y117348000D03*
D13*
X204216000Y127508000D03*
D10*
X171450000Y147574000D03*
D11*
X173990000Y147574000D03*
D25*
X43790000Y146558000D03*
D26*
X43790000Y147828000D03*
X43790000Y149098000D03*
D23*
X25400000Y134366000D03*
D25*
X201090000Y137150000D03*
D26*
X201090000Y138420000D03*
X201090000Y139690000D03*
D10*
X165100000Y139187000D03*
D11*
X165100000Y141727000D03*
D10*
X176220000Y78170000D03*
D11*
X173680000Y78170000D03*
D10*
X61756000Y75417000D03*
D11*
X61756000Y72877000D03*
D12*
X13320000Y167500000D03*
D13*
X13320000Y157340000D03*
D10*
X189230000Y34783000D03*
D11*
X189230000Y32243000D03*
X189230000Y29703000D03*
D14*
X273050000Y156448000D03*
X273050000Y142448000D03*
D18*
X220620000Y89380000D03*
D19*
X220620000Y84380000D03*
D10*
X151040000Y69845000D03*
D11*
X151040000Y72385000D03*
D14*
X8934000Y89218000D03*
X8934000Y74218000D03*
D12*
X89840000Y143520000D03*
D13*
X100000000Y143520000D03*
D10*
X115660000Y157800000D03*
D11*
X113120000Y157800000D03*
D21*
X295730000Y35730000D03*
D22*
X293190000Y35730000D03*
X290650000Y35730000D03*
X288110000Y35730000D03*
X288110000Y25570000D03*
X290650000Y25570000D03*
X293190000Y25570000D03*
X295730000Y25570000D03*
D10*
X154430000Y174660000D03*
D11*
X154430000Y172120000D03*
D21*
X289042000Y173116000D03*
D22*
X286502000Y173116000D03*
X283962000Y173116000D03*
X281422000Y173116000D03*
X281422000Y162956000D03*
X283962000Y162956000D03*
X286502000Y162956000D03*
X289042000Y162956000D03*
D10*
X46482000Y75437000D03*
D11*
X46482000Y72897000D03*
D12*
X139954000Y178816000D03*
D13*
X139954000Y168656000D03*
D14*
X258452000Y91218000D03*
X243452000Y91218000D03*
X54588000Y189970000D03*
D27*
X10200000Y27686000D03*
D28*
X10200000Y37846000D03*
D10*
X144870000Y69805000D03*
D11*
X144870000Y72345000D03*
D12*
X37186000Y124460000D03*
D13*
X37186000Y134620000D03*
D15*
X200899000Y40869000D03*
D16*
X200899000Y38329000D03*
X200899000Y35789000D03*
X200899000Y33249000D03*
X208519000Y33249000D03*
X208519000Y35789000D03*
X208519000Y38329000D03*
X208519000Y40869000D03*
D12*
X40386000Y92456000D03*
D13*
X40386000Y82296000D03*
D12*
X39260000Y188468000D03*
D13*
X39260000Y178308000D03*
D10*
X173730000Y72920000D03*
D11*
X176270000Y72920000D03*
D10*
X285750000Y49784000D03*
D11*
X283210000Y49784000D03*
D12*
X140773000Y77216000D03*
D13*
X140773000Y87376000D03*
D12*
X203257000Y168148000D03*
D13*
X203257000Y178308000D03*
D14*
X300500000Y118890000D03*
D12*
X180651000Y113792000D03*
D13*
X180651000Y123952000D03*
D12*
X248158000Y42164000D03*
D13*
X258318000Y42164000D03*
D14*
X185055000Y71358000D03*
D12*
X139503000Y111030000D03*
D13*
X139503000Y121190000D03*
D10*
X85080000Y150810000D03*
D11*
X82540000Y150810000D03*
D14*
X301498000Y43180000D03*
X241554000Y32138000D03*
X241554000Y17138000D03*
D10*
X85000000Y144230000D03*
D11*
X82460000Y144230000D03*
D10*
X115440000Y151630000D03*
D11*
X112900000Y151630000D03*
D12*
X269240000Y178054000D03*
D13*
X259080000Y178054000D03*
D12*
X147773000Y77216000D03*
D13*
X147773000Y87376000D03*
D14*
X258452000Y105696000D03*
X243452000Y105696000D03*
D12*
X203003000Y77470000D03*
D13*
X203003000Y87630000D03*
D10*
X85020000Y157820000D03*
D11*
X82480000Y157820000D03*
D10*
X156840000Y69710000D03*
D11*
X156840000Y72250000D03*
D14*
X184535000Y81668000D03*
D12*
X307000000Y51970000D03*
D13*
X296840000Y51970000D03*
D12*
X226080000Y125940000D03*
D13*
X226080000Y136100000D03*
D10*
X257810000Y150723000D03*
D11*
X257810000Y148183000D03*
D10*
X39960000Y103080000D03*
D11*
X42500000Y103080000D03*
D10*
X14300000Y178540000D03*
D11*
X14300000Y176000000D03*
D10*
X31860000Y190280000D03*
D11*
X31860000Y187740000D03*
D23*
X31242000Y122682000D03*
D14*
X127311000Y188722000D03*
D10*
X67614000Y75417000D03*
D11*
X67614000Y72877000D03*
D14*
X315468000Y30988000D03*
D10*
X65024000Y48245000D03*
D11*
X67564000Y48245000D03*
X70104000Y48245000D03*
D14*
X54588000Y127830000D03*
D10*
X20574000Y55880000D03*
D11*
X20574000Y53340000D03*
X20574000Y50800000D03*
D10*
X220218000Y35037000D03*
D11*
X220218000Y32497000D03*
X220218000Y29957000D03*
D10*
X196596000Y19797000D03*
D11*
X199136000Y19797000D03*
X201676000Y19797000D03*
D10*
X275336000Y121671000D03*
D11*
X275336000Y119131000D03*
D23*
X13930000Y183134000D03*
D14*
X300500000Y96940000D03*
D12*
X49426000Y168439000D03*
D13*
X49426000Y158279000D03*
D10*
X19812000Y17277000D03*
D11*
X19812000Y14737000D03*
D12*
X19910000Y167390000D03*
D13*
X19910000Y157230000D03*
D29*
X7700000Y56388000D03*
D30*
X10200000Y56388000D03*
X12700000Y56388000D03*
D25*
X137160000Y137160000D03*
D26*
X137160000Y138430000D03*
X137160000Y139700000D03*
D10*
X43942000Y34021000D03*
D11*
X43942000Y31481000D03*
X43942000Y28941000D03*
D10*
X43942000Y44943000D03*
D11*
X43942000Y42403000D03*
X43942000Y39863000D03*
D14*
X258452000Y118904000D03*
X243452000Y118904000D03*
D10*
X148718000Y174752000D03*
D11*
X148718000Y172212000D03*
D10*
X207264000Y54087000D03*
D11*
X209804000Y54087000D03*
X212344000Y54087000D03*
D20*
X265256000Y42418000D03*
X275256000Y42418000D03*
D12*
X298196000Y129540000D03*
D13*
X288036000Y129540000D03*
D10*
X196850000Y54087000D03*
D11*
X199390000Y54087000D03*
X201930000Y54087000D03*
D10*
X40116000Y75437000D03*
D11*
X40116000Y72897000D03*
D23*
X20470000Y153920000D03*
D10*
X20270000Y178540000D03*
D11*
X20270000Y176000000D03*
D14*
X314198000Y107696000D03*
D27*
X10200000Y11430000D03*
D28*
X10200000Y21590000D03*
D20*
X66294000Y92630000D03*
X66294000Y82630000D03*
D12*
X168459000Y122936000D03*
D13*
X168459000Y133096000D03*
M02*
