%FSLAX45Y45*%
G04 Gerber Fmt 4.5, Leading zero omitted, Abs format (unit mm)*
G04 Created by KiCad (PCBNEW (6.0.6)) date 2024-09-14 01:54:29*
%MOMM*%
%LPD*%
G01*
G04 APERTURE LIST*
%TA.AperFunction,Profile*%
%ADD10C,0.100000*%
%TD*%
%ADD11C,0.200000*%
G04 APERTURE END LIST*
D10*
X-508Y20791000D02*
X0Y210000D01*
X32028000Y21000000D02*
X209492Y21000000D01*
X32240000Y210000D02*
X32240000Y20790000D01*
X210000Y0D02*
X32030000Y0D01*
X0Y210000D02*
G75*
G03*
X210000Y0I210000J0D01*
G01*
X209492Y21000000D02*
G75*
G03*
X-508Y20790000I0J-210000D01*
G01*
X32240000Y20790000D02*
G75*
G03*
X32030000Y21000000I-210000J0D01*
G01*
X32030000Y0D02*
G75*
G03*
X32240000Y210000I0J210000D01*
G01*
D11*
X252111Y-315476D02*
X252111Y-115476D01*
X299730Y-115476D01*
X328302Y-125000D01*
X347350Y-144048D01*
X356873Y-163095D01*
X366397Y-201190D01*
X366397Y-229762D01*
X356873Y-267857D01*
X347350Y-286905D01*
X328302Y-305952D01*
X299730Y-315476D01*
X252111Y-315476D01*
X452111Y-315476D02*
X452111Y-182143D01*
X452111Y-220238D02*
X461635Y-201190D01*
X471159Y-191667D01*
X490207Y-182143D01*
X509254Y-182143D01*
X575921Y-315476D02*
X575921Y-182143D01*
X575921Y-115476D02*
X566397Y-125000D01*
X575921Y-134524D01*
X585445Y-125000D01*
X575921Y-115476D01*
X575921Y-134524D01*
X699730Y-315476D02*
X680683Y-305952D01*
X671159Y-286905D01*
X671159Y-115476D01*
X804492Y-315476D02*
X785445Y-305952D01*
X775921Y-286905D01*
X775921Y-115476D01*
X1033064Y-315476D02*
X1033064Y-115476D01*
X1099730Y-258333D01*
X1166397Y-115476D01*
X1166397Y-315476D01*
X1347350Y-315476D02*
X1347350Y-210714D01*
X1337826Y-191667D01*
X1318778Y-182143D01*
X1280683Y-182143D01*
X1261635Y-191667D01*
X1347350Y-305952D02*
X1328302Y-315476D01*
X1280683Y-315476D01*
X1261635Y-305952D01*
X1252111Y-286905D01*
X1252111Y-267857D01*
X1261635Y-248809D01*
X1280683Y-239286D01*
X1328302Y-239286D01*
X1347350Y-229762D01*
X1442588Y-182143D02*
X1442588Y-382143D01*
X1442588Y-191667D02*
X1461635Y-182143D01*
X1499730Y-182143D01*
X1518778Y-191667D01*
X1528302Y-201190D01*
X1537826Y-220238D01*
X1537826Y-277381D01*
X1528302Y-296429D01*
X1518778Y-305952D01*
X1499730Y-315476D01*
X1461635Y-315476D01*
X1442588Y-305952D01*
X1623540Y-296429D02*
X1633064Y-305952D01*
X1623540Y-315476D01*
X1614016Y-305952D01*
X1623540Y-296429D01*
X1623540Y-315476D01*
X1623540Y-191667D02*
X1633064Y-201190D01*
X1623540Y-210714D01*
X1614016Y-201190D01*
X1623540Y-191667D01*
X1623540Y-210714D01*
M02*
