M48
; DRILL file {KiCad (6.0.6)} date Sat Sep 14 01:54:27 2024
; FORMAT={-:-/ absolute / metric / decimal}
; #@! TF.CreationDate,2024-09-14T01:54:27+08:00
; #@! TF.GenerationSoftware,Kicad,Pcbnew,(6.0.6)
; #@! TF.FileFunction,Plated,1,2,PTH
FMAT,2
METRIC
; #@! TA.AperFunction,Plated,PTH,ViaDrill
T1C0.400
; #@! TA.AperFunction,Plated,PTH,ComponentDrill
T2C0.750
; #@! TA.AperFunction,Plated,PTH,ComponentDrill
T3C0.762
; #@! TA.AperFunction,Plated,PTH,ComponentDrill
T4C0.800
; #@! TA.AperFunction,Plated,PTH,ComponentDrill
T5C1.000
; #@! TA.AperFunction,Plated,PTH,ComponentDrill
T6C1.100
; #@! TA.AperFunction,Plated,PTH,ComponentDrill
T7C1.500
; #@! TA.AperFunction,Plated,PTH,ViaDrill
T8C3.000
; #@! TA.AperFunction,Plated,PTH,ComponentDrill
T9C4.000
%
G90
G05
T1
X32.512Y83.145
X32.512Y81.447
X33.528Y83.145
X33.528Y81.447
X40.64Y108.204
X43.688Y108.204
X190.246Y138.01
X190.5Y133.858
X203.428Y30.988
X204.804Y40.974
X206.502Y40.386
X206.528Y38.608
T2
X43.79Y149.098
X43.79Y147.828
X43.79Y146.558
X137.16Y139.7
X137.16Y138.43
X137.16Y137.16
X201.09Y139.69
X201.09Y138.42
X201.09Y137.15
T3
X22.432Y108.204
X32.432Y108.204
X66.294Y92.63
X66.294Y82.63
X265.256Y42.418
X275.256Y42.418
X297.02Y62.37
X307.02Y62.37
T4
X13.32Y167.5
X13.32Y157.34
X19.91Y167.39
X19.91Y157.23
X22.098Y102.362
X32.258Y102.362
X37.186Y134.62
X37.186Y124.46
X39.26Y188.468
X39.26Y178.308
X40.386Y92.456
X40.386Y82.296
X45.212Y92.456
X45.212Y82.296
X49.426Y168.439
X49.426Y158.279
X54.84Y41.62
X54.84Y39.08
X54.84Y36.54
X54.84Y34.0
X55.014Y168.439
X55.014Y158.279
X60.896Y92.71
X60.896Y82.55
X65.0Y41.62
X65.0Y39.08
X65.0Y36.54
X65.0Y34.0
X89.84Y143.52
X89.95Y150.47
X100.0Y143.52
X100.11Y150.47
X111.167Y121.19
X111.167Y111.03
X112.52Y144.33
X115.02Y144.33
X118.167Y121.19
X118.167Y111.03
X121.666Y178.054
X121.666Y167.894
X139.503Y121.19
X139.503Y111.03
X139.954Y178.816
X139.954Y168.656
X140.773Y87.376
X140.773Y77.216
X147.773Y87.376
X147.773Y77.216
X154.178Y153.67
X154.773Y87.376
X154.773Y77.216
X156.678Y153.67
X168.459Y133.096
X168.459Y122.936
X180.651Y123.952
X180.651Y113.792
X184.91Y178.38
X184.91Y168.22
X200.899Y40.869
X200.899Y38.329
X200.899Y35.789
X200.899Y33.249
X203.003Y87.63
X203.003Y77.47
X203.257Y178.308
X203.257Y168.148
X204.216Y127.508
X204.216Y117.348
X208.519Y40.869
X208.519Y38.329
X208.519Y35.789
X208.519Y33.249
X211.901Y153.924
X214.401Y153.924
X226.08Y136.1
X226.08Y125.94
X248.158Y42.164
X258.318Y42.164
X259.08Y178.054
X264.16Y102.108
X264.91Y109.41
X264.922Y129.032
X269.24Y178.054
X271.018Y92.964
X271.018Y82.804
X274.32Y102.108
X275.07Y109.41
X275.082Y129.032
X280.416Y191.262
X281.422Y173.116
X281.422Y162.956
X283.962Y173.116
X283.962Y162.956
X286.502Y173.116
X286.502Y162.956
X287.63Y112.14
X287.63Y101.98
X288.036Y129.54
X288.11Y35.73
X288.11Y25.57
X289.042Y173.116
X289.042Y162.956
X290.17Y112.14
X290.17Y101.98
X290.576Y191.262
X290.65Y35.73
X290.65Y25.57
X292.71Y112.14
X292.71Y101.98
X293.19Y35.73
X293.19Y25.57
X295.25Y112.14
X295.25Y101.98
X295.73Y35.73
X295.73Y25.57
X296.84Y51.97
X297.67Y72.09
X298.196Y129.54
X307.0Y51.97
X307.83Y72.09
T5
X7.7Y56.388
X10.2Y56.388
X12.7Y56.388
X14.3Y178.54
X14.3Y176.0
X19.812Y17.277
X19.812Y14.737
X20.27Y178.54
X20.27Y176.0
X20.574Y55.88
X20.574Y53.34
X20.574Y50.8
X20.574Y34.036
X20.574Y31.496
X25.2Y129.76
X25.2Y127.22
X25.9Y190.31
X25.9Y187.77
X30.99Y129.76
X30.99Y127.22
X31.86Y190.28
X31.86Y187.74
X39.81Y110.03
X39.96Y103.08
X40.116Y75.437
X40.116Y72.897
X42.35Y110.03
X42.5Y103.08
X43.942Y44.943
X43.942Y42.403
X43.942Y39.863
X43.942Y34.021
X43.942Y31.481
X43.942Y28.941
X46.482Y75.437
X46.482Y72.897
X51.73Y178.04
X51.73Y175.5
X57.28Y178.14
X57.28Y175.6
X61.756Y75.417
X61.756Y72.877
X62.83Y178.15
X62.83Y175.61
X65.024Y48.245
X65.039Y25.893
X67.564Y48.245
X67.579Y25.893
X67.614Y75.417
X67.614Y72.877
X70.104Y48.245
X70.119Y25.893
X81.534Y39.624
X81.534Y37.084
X81.534Y34.544
X82.46Y144.23
X82.48Y157.82
X82.54Y150.81
X85.0Y144.23
X85.02Y157.82
X85.08Y150.81
X112.9Y151.63
X113.12Y157.8
X114.05Y105.595
X114.05Y103.055
X115.44Y151.63
X115.66Y157.8
X119.71Y105.59
X119.71Y103.05
X143.114Y105.368
X143.114Y102.828
X144.87Y72.345
X144.87Y69.805
X145.796Y147.574
X148.336Y147.574
X148.718Y174.752
X148.718Y172.212
X149.098Y105.405
X149.098Y102.865
X151.04Y72.385
X151.04Y69.845
X154.43Y174.66
X154.43Y172.12
X156.84Y72.25
X156.84Y69.71
X165.1Y141.727
X165.1Y139.187
X171.45Y147.574
X173.56Y89.6
X173.56Y84.6
X173.68Y78.17
X173.73Y72.92
X173.99Y147.574
X176.22Y78.17
X176.27Y72.92
X189.23Y45.705
X189.23Y43.165
X189.23Y40.625
X189.23Y34.783
X189.23Y32.243
X189.23Y29.703
X196.596Y19.797
X196.85Y54.087
X199.136Y19.797
X199.39Y54.087
X201.676Y19.797
X201.93Y54.087
X207.264Y54.087
X207.264Y19.797
X209.804Y54.087
X209.804Y19.797
X212.344Y54.087
X212.344Y19.797
X220.218Y45.451
X220.218Y42.911
X220.218Y40.371
X220.218Y35.037
X220.218Y32.497
X220.218Y29.957
X220.62Y89.38
X220.62Y84.38
X257.81Y150.723
X257.81Y148.183
X262.631Y36.068
X262.641Y30.226
X265.171Y36.068
X265.181Y30.226
X266.954Y150.723
X266.954Y148.183
X275.336Y121.671
X275.336Y119.131
X277.876Y98.298
X280.162Y56.642
X280.162Y54.102
X280.416Y98.298
X282.33Y94.52
X282.33Y91.98
X283.21Y49.784
X285.75Y49.784
T6
X10.2Y37.846
X10.2Y27.686
X10.2Y21.59
X10.2Y11.43
T7
X13.93Y183.134
X20.36Y183.19
X20.47Y153.92
X25.4Y134.366
X26.67Y195.326
X31.242Y122.682
X48.26Y149.098
T8
X5.0Y205.0
X5.0Y5.0
X148.5Y205.0
X148.5Y5.0
X292.0Y205.0
X292.0Y5.0
T9
X8.934Y89.218
X8.934Y74.218
X54.588Y189.97
X54.588Y127.83
X82.195Y126.325
X82.195Y111.325
X127.311Y188.722
X184.535Y81.668
X185.055Y71.358
X241.554Y32.138
X241.554Y17.138
X243.452Y118.904
X243.452Y105.696
X243.452Y91.218
X251.19Y156.448
X251.19Y142.448
X258.452Y118.904
X258.452Y105.696
X258.452Y91.218
X273.05Y156.448
X273.05Y142.448
X294.132Y181.61
X294.386Y155.194
X300.5Y118.89
X300.5Y96.94
X301.498Y43.18
X301.498Y19.304
X309.372Y168.295
X314.198Y107.696
X315.468Y30.988
T0
M30
