%FSLAX45Y45*%
G04 Gerber Fmt 4.5, Leading zero omitted, Abs format (unit mm)*
G04 Created by KiCad (PCBNEW (6.0.6)) date 2024-09-14 01:54:29*
%MOMM*%
%LPD*%
G01*
G04 APERTURE LIST*
%TA.AperFunction,Profile*%
%ADD10C,0.100000*%
%TD*%
%ADD11C,0.200000*%
%ADD12C,0.040000*%
%ADD13C,0.075000*%
%ADD14C,0.076200*%
%ADD15C,0.080000*%
%ADD16C,0.100000*%
%ADD17C,0.110000*%
%ADD18C,0.150000*%
%ADD19C,0.300000*%
%ADD20C,0.400000*%
G04 APERTURE END LIST*
D10*
X-508Y20791000D02*
X0Y210000D01*
X32028000Y21000000D02*
X209492Y21000000D01*
X32240000Y210000D02*
X32240000Y20790000D01*
X210000Y0D02*
X32030000Y0D01*
X0Y210000D02*
G75*
G03*
X210000Y0I210000J0D01*
G01*
X209492Y21000000D02*
G75*
G03*
X-508Y20790000I0J-210000D01*
G01*
X32240000Y20790000D02*
G75*
G03*
X32030000Y21000000I-210000J0D01*
G01*
X32030000Y0D02*
G75*
G03*
X32240000Y210000I0J210000D01*
G01*
D11*
D12*
X3231200Y8334550D02*
X3271200Y8294550D01*
X3271200Y8334550D02*
X3231200Y8294550D01*
X3231200Y8164650D02*
X3271200Y8124650D01*
X3271200Y8164650D02*
X3231200Y8124650D01*
X3332800Y8334550D02*
X3372800Y8294550D01*
X3372800Y8334550D02*
X3332800Y8294550D01*
X3332800Y8164650D02*
X3372800Y8124650D01*
X3372800Y8164650D02*
X3332800Y8124650D01*
X4044000Y10840400D02*
X4084000Y10800400D01*
X4084000Y10840400D02*
X4044000Y10800400D01*
X4348800Y10840400D02*
X4388800Y10800400D01*
X4388800Y10840400D02*
X4348800Y10800400D01*
X19004600Y13820950D02*
X19044600Y13780950D01*
X19044600Y13820950D02*
X19004600Y13780950D01*
X19030000Y13405800D02*
X19070000Y13365800D01*
X19070000Y13405800D02*
X19030000Y13365800D01*
X20322850Y3118800D02*
X20362850Y3078800D01*
X20362850Y3118800D02*
X20322850Y3078800D01*
X20460366Y4117366D02*
X20500366Y4077366D01*
X20500366Y4117366D02*
X20460366Y4077366D01*
X20630200Y4058600D02*
X20670200Y4018600D01*
X20670200Y4058600D02*
X20630200Y4018600D01*
X20632750Y3880800D02*
X20672750Y3840800D01*
X20672750Y3880800D02*
X20632750Y3840800D01*
D13*
X4416500Y14909800D02*
G75*
G03*
X4416500Y14909800I-37500J0D01*
G01*
X4416500Y14782800D02*
G75*
G03*
X4416500Y14782800I-37500J0D01*
G01*
X4416500Y14655800D02*
G75*
G03*
X4416500Y14655800I-37500J0D01*
G01*
X13753500Y13970000D02*
G75*
G03*
X13753500Y13970000I-37500J0D01*
G01*
X13753500Y13843000D02*
G75*
G03*
X13753500Y13843000I-37500J0D01*
G01*
X13753500Y13716000D02*
G75*
G03*
X13753500Y13716000I-37500J0D01*
G01*
X20146500Y13969000D02*
G75*
G03*
X20146500Y13969000I-37500J0D01*
G01*
X20146500Y13842000D02*
G75*
G03*
X20146500Y13842000I-37500J0D01*
G01*
X20146500Y13715000D02*
G75*
G03*
X20146500Y13715000I-37500J0D01*
G01*
D14*
X2243200Y10858500D02*
X2243200Y10782300D01*
X2205100Y10820400D02*
X2281300Y10820400D01*
X3243200Y10858500D02*
X3243200Y10782300D01*
X3205100Y10820400D02*
X3281300Y10820400D01*
X6629400Y9301100D02*
X6629400Y9224900D01*
X6591300Y9263000D02*
X6667500Y9263000D01*
X6629400Y8301100D02*
X6629400Y8224900D01*
X6591300Y8263000D02*
X6667500Y8263000D01*
X26525600Y4279900D02*
X26525600Y4203700D01*
X26487500Y4241800D02*
X26563700Y4241800D01*
X27525600Y4279900D02*
X27525600Y4203700D01*
X27487500Y4241800D02*
X27563700Y4241800D01*
X29702000Y6275100D02*
X29702000Y6198900D01*
X29663900Y6237000D02*
X29740100Y6237000D01*
X30702000Y6275100D02*
X30702000Y6198900D01*
X30663900Y6237000D02*
X30740100Y6237000D01*
D15*
X1360285Y16721715D02*
X1360285Y16778285D01*
X1303716Y16778285D01*
X1303716Y16721715D01*
X1360285Y16721715D01*
X1360285Y15705715D02*
X1360285Y15762284D01*
X1303716Y15762284D01*
X1303716Y15705715D01*
X1360285Y15705715D01*
X2019284Y16710715D02*
X2019284Y16767284D01*
X1962715Y16767284D01*
X1962715Y16710715D01*
X2019284Y16710715D01*
X2019284Y15694715D02*
X2019284Y15751284D01*
X1962715Y15751284D01*
X1962715Y15694715D01*
X2019284Y15694715D01*
X2238085Y10207916D02*
X2238085Y10264485D01*
X2181516Y10264485D01*
X2181516Y10207916D01*
X2238085Y10207916D01*
X3254084Y10207916D02*
X3254084Y10264485D01*
X3197515Y10264485D01*
X3197515Y10207916D01*
X3254084Y10207916D01*
X3746884Y13433715D02*
X3746884Y13490284D01*
X3690315Y13490284D01*
X3690315Y13433715D01*
X3746884Y13433715D01*
X3746884Y12417715D02*
X3746884Y12474284D01*
X3690315Y12474284D01*
X3690315Y12417715D01*
X3746884Y12417715D01*
X3954284Y18818516D02*
X3954284Y18875085D01*
X3897715Y18875085D01*
X3897715Y18818516D01*
X3954284Y18818516D01*
X3954284Y17802516D02*
X3954284Y17859085D01*
X3897715Y17859085D01*
X3897715Y17802516D01*
X3954284Y17802516D01*
X4066884Y9217316D02*
X4066884Y9273885D01*
X4010315Y9273885D01*
X4010315Y9217316D01*
X4066884Y9217316D01*
X4066884Y8201315D02*
X4066884Y8257884D01*
X4010315Y8257884D01*
X4010315Y8201315D01*
X4066884Y8201315D01*
X4549485Y9217316D02*
X4549485Y9273885D01*
X4492916Y9273885D01*
X4492916Y9217316D01*
X4549485Y9217316D01*
X4549485Y8201315D02*
X4549485Y8257884D01*
X4492916Y8257884D01*
X4492916Y8201315D01*
X4549485Y8201315D01*
X4970885Y16815616D02*
X4970885Y16872185D01*
X4914316Y16872185D01*
X4914316Y16815616D01*
X4970885Y16815616D01*
X4970885Y15799615D02*
X4970885Y15856184D01*
X4914316Y15856184D01*
X4914316Y15799615D01*
X4970885Y15799615D01*
X5512285Y4133715D02*
X5512285Y4190284D01*
X5455716Y4190284D01*
X5455716Y4133715D01*
X5512285Y4133715D01*
X5512285Y3879715D02*
X5512285Y3936284D01*
X5455716Y3936284D01*
X5455716Y3879715D01*
X5512285Y3879715D01*
X5512285Y3625715D02*
X5512285Y3682284D01*
X5455716Y3682284D01*
X5455716Y3625715D01*
X5512285Y3625715D01*
X5512285Y3371715D02*
X5512285Y3428284D01*
X5455716Y3428284D01*
X5455716Y3371715D01*
X5512285Y3371715D01*
X5529685Y16815616D02*
X5529685Y16872185D01*
X5473116Y16872185D01*
X5473116Y16815616D01*
X5529685Y16815616D01*
X5529685Y15799615D02*
X5529685Y15856184D01*
X5473116Y15856184D01*
X5473116Y15799615D01*
X5529685Y15799615D01*
X6117884Y9242716D02*
X6117884Y9299285D01*
X6061315Y9299285D01*
X6061315Y9242716D01*
X6117884Y9242716D01*
X6117884Y8226715D02*
X6117884Y8283284D01*
X6061315Y8283284D01*
X6061315Y8226715D01*
X6117884Y8226715D01*
X6528284Y4133715D02*
X6528284Y4190284D01*
X6471715Y4190284D01*
X6471715Y4133715D01*
X6528284Y4133715D01*
X6528284Y3879715D02*
X6528284Y3936284D01*
X6471715Y3936284D01*
X6471715Y3879715D01*
X6528284Y3879715D01*
X6528284Y3625715D02*
X6528284Y3682284D01*
X6471715Y3682284D01*
X6471715Y3625715D01*
X6528284Y3625715D01*
X6528284Y3371715D02*
X6528284Y3428284D01*
X6471715Y3428284D01*
X6471715Y3371715D01*
X6528284Y3371715D01*
X9012285Y14323715D02*
X9012285Y14380284D01*
X8955716Y14380284D01*
X8955716Y14323715D01*
X9012285Y14323715D01*
X9023285Y15018715D02*
X9023285Y15075284D01*
X8966716Y15075284D01*
X8966716Y15018715D01*
X9023285Y15018715D01*
X10028285Y14323715D02*
X10028285Y14380284D01*
X9971716Y14380284D01*
X9971716Y14323715D01*
X10028285Y14323715D01*
X10039285Y15018715D02*
X10039285Y15075284D01*
X9982716Y15075284D01*
X9982716Y15018715D01*
X10039285Y15018715D01*
X11144985Y12090715D02*
X11144985Y12147284D01*
X11088416Y12147284D01*
X11088416Y12090715D01*
X11144985Y12090715D01*
X11144985Y11074716D02*
X11144985Y11131285D01*
X11088416Y11131285D01*
X11088416Y11074716D01*
X11144985Y11074716D01*
X11280284Y14404715D02*
X11280284Y14461284D01*
X11223715Y14461284D01*
X11223715Y14404715D01*
X11280284Y14404715D01*
X11530284Y14404715D02*
X11530284Y14461284D01*
X11473715Y14461284D01*
X11473715Y14404715D01*
X11530284Y14404715D01*
X11844984Y12090715D02*
X11844984Y12147284D01*
X11788415Y12147284D01*
X11788415Y12090715D01*
X11844984Y12090715D01*
X11844984Y11074716D02*
X11844984Y11131285D01*
X11788415Y11131285D01*
X11788415Y11074716D01*
X11844984Y11074716D01*
X12194884Y17777116D02*
X12194884Y17833685D01*
X12138315Y17833685D01*
X12138315Y17777116D01*
X12194884Y17777116D01*
X12194884Y16761115D02*
X12194884Y16817685D01*
X12138315Y16817685D01*
X12138315Y16761115D01*
X12194884Y16761115D01*
X13978584Y12090715D02*
X13978584Y12147284D01*
X13922015Y12147284D01*
X13922015Y12090715D01*
X13978584Y12090715D01*
X13978584Y11074716D02*
X13978584Y11131285D01*
X13922015Y11131285D01*
X13922015Y11074716D01*
X13978584Y11074716D01*
X14023684Y17853316D02*
X14023684Y17909885D01*
X13967115Y17909885D01*
X13967115Y17853316D01*
X14023684Y17853316D01*
X14023684Y16837316D02*
X14023684Y16893885D01*
X13967115Y16893885D01*
X13967115Y16837316D01*
X14023684Y16837316D01*
X14105584Y8709316D02*
X14105584Y8765885D01*
X14049015Y8765885D01*
X14049015Y8709316D01*
X14105584Y8709316D01*
X14105584Y7693315D02*
X14105584Y7749884D01*
X14049015Y7749884D01*
X14049015Y7693315D01*
X14105584Y7693315D01*
X14805584Y8709316D02*
X14805584Y8765885D01*
X14749015Y8765885D01*
X14749015Y8709316D01*
X14805584Y8709316D01*
X14805584Y7693315D02*
X14805584Y7749884D01*
X14749015Y7749884D01*
X14749015Y7693315D01*
X14805584Y7693315D01*
X15446084Y15338715D02*
X15446084Y15395284D01*
X15389515Y15395284D01*
X15389515Y15338715D01*
X15446084Y15338715D01*
X15505584Y8709316D02*
X15505584Y8765885D01*
X15449015Y8765885D01*
X15449015Y8709316D01*
X15505584Y8709316D01*
X15505584Y7693315D02*
X15505584Y7749884D01*
X15449015Y7749884D01*
X15449015Y7693315D01*
X15505584Y7693315D01*
X15696084Y15338715D02*
X15696084Y15395284D01*
X15639515Y15395284D01*
X15639515Y15338715D01*
X15696084Y15338715D01*
X16874185Y13281315D02*
X16874185Y13337884D01*
X16817616Y13337884D01*
X16817616Y13281315D01*
X16874185Y13281315D01*
X16874185Y12265315D02*
X16874185Y12321884D01*
X16817616Y12321884D01*
X16817616Y12265315D01*
X16874185Y12265315D01*
X18093385Y12366915D02*
X18093385Y12423484D01*
X18036816Y12423484D01*
X18036816Y12366915D01*
X18093385Y12366915D01*
X18093385Y11350915D02*
X18093385Y11407484D01*
X18036816Y11407484D01*
X18036816Y11350915D01*
X18093385Y11350915D01*
X18519285Y17809716D02*
X18519285Y17866285D01*
X18462716Y17866285D01*
X18462716Y17809716D01*
X18519285Y17809716D01*
X18519285Y16793716D02*
X18519285Y16850285D01*
X18462716Y16850285D01*
X18462716Y16793716D01*
X18519285Y16793716D01*
X20118185Y4058615D02*
X20118185Y4115184D01*
X20061616Y4115184D01*
X20061616Y4058615D01*
X20118185Y4058615D01*
X20118185Y3804615D02*
X20118185Y3861184D01*
X20061616Y3861184D01*
X20061616Y3804615D01*
X20118185Y3804615D01*
X20118185Y3550615D02*
X20118185Y3607184D01*
X20061616Y3607184D01*
X20061616Y3550615D01*
X20118185Y3550615D01*
X20118185Y3296615D02*
X20118185Y3353184D01*
X20061616Y3353184D01*
X20061616Y3296615D01*
X20118185Y3296615D01*
X20328585Y8734716D02*
X20328585Y8791285D01*
X20272016Y8791285D01*
X20272016Y8734716D01*
X20328585Y8734716D01*
X20328585Y7718715D02*
X20328585Y7775284D01*
X20272016Y7775284D01*
X20272016Y7718715D01*
X20328585Y7718715D01*
X20353985Y17802516D02*
X20353985Y17859085D01*
X20297416Y17859085D01*
X20297416Y17802516D01*
X20353985Y17802516D01*
X20353985Y16786516D02*
X20353985Y16843085D01*
X20297416Y16843085D01*
X20297416Y16786516D01*
X20353985Y16786516D01*
X20449885Y12722515D02*
X20449885Y12779084D01*
X20393316Y12779084D01*
X20393316Y12722515D01*
X20449885Y12722515D01*
X20449885Y11706515D02*
X20449885Y11763084D01*
X20393316Y11763084D01*
X20393316Y11706515D01*
X20449885Y11706515D01*
X20880185Y4058615D02*
X20880185Y4115184D01*
X20823616Y4115184D01*
X20823616Y4058615D01*
X20880185Y4058615D01*
X20880185Y3804615D02*
X20880185Y3861184D01*
X20823616Y3861184D01*
X20823616Y3804615D01*
X20880185Y3804615D01*
X20880185Y3550615D02*
X20880185Y3607184D01*
X20823616Y3607184D01*
X20823616Y3550615D01*
X20880185Y3550615D01*
X20880185Y3296615D02*
X20880185Y3353184D01*
X20823616Y3353184D01*
X20823616Y3296615D01*
X20880185Y3296615D01*
X21218373Y15364115D02*
X21218373Y15420684D01*
X21161804Y15420684D01*
X21161804Y15364115D01*
X21218373Y15364115D01*
X21468373Y15364115D02*
X21468373Y15420684D01*
X21411804Y15420684D01*
X21411804Y15364115D01*
X21468373Y15364115D01*
X22636284Y13581715D02*
X22636284Y13638284D01*
X22579715Y13638284D01*
X22579715Y13581715D01*
X22636284Y13581715D01*
X22636284Y12565715D02*
X22636284Y12622284D01*
X22579715Y12622284D01*
X22579715Y12565715D01*
X22636284Y12565715D01*
X24844084Y4188115D02*
X24844084Y4244685D01*
X24787515Y4244685D01*
X24787515Y4188115D01*
X24844084Y4188115D01*
X25860084Y4188115D02*
X25860084Y4244685D01*
X25803515Y4244685D01*
X25803515Y4188115D01*
X25860084Y4188115D01*
X25936284Y17777116D02*
X25936284Y17833685D01*
X25879715Y17833685D01*
X25879715Y17777116D01*
X25936284Y17777116D01*
X26444284Y10182516D02*
X26444284Y10239085D01*
X26387715Y10239085D01*
X26387715Y10182516D01*
X26444284Y10182516D01*
X26519284Y10912716D02*
X26519284Y10969285D01*
X26462715Y10969285D01*
X26462715Y10912716D01*
X26519284Y10912716D01*
X26520484Y12874915D02*
X26520484Y12931484D01*
X26463915Y12931484D01*
X26463915Y12874915D01*
X26520484Y12874915D01*
X26952284Y17777116D02*
X26952284Y17833685D01*
X26895715Y17833685D01*
X26895715Y17777116D01*
X26952284Y17777116D01*
X27130084Y9268116D02*
X27130084Y9324685D01*
X27073515Y9324685D01*
X27073515Y9268116D01*
X27130084Y9268116D01*
X27130084Y8252115D02*
X27130084Y8308684D01*
X27073515Y8308684D01*
X27073515Y8252115D01*
X27130084Y8252115D01*
X27460284Y10182516D02*
X27460284Y10239085D01*
X27403715Y10239085D01*
X27403715Y10182516D01*
X27460284Y10182516D01*
X27535284Y10912716D02*
X27535284Y10969285D01*
X27478715Y10969285D01*
X27478715Y10912716D01*
X27535284Y10912716D01*
X27536484Y12874915D02*
X27536484Y12931484D01*
X27479915Y12931484D01*
X27479915Y12874915D01*
X27536484Y12874915D01*
X28069884Y19097916D02*
X28069884Y19154485D01*
X28013315Y19154485D01*
X28013315Y19097916D01*
X28069884Y19097916D01*
X28170484Y17283316D02*
X28170484Y17339885D01*
X28113915Y17339885D01*
X28113915Y17283316D01*
X28170484Y17283316D01*
X28170484Y16267315D02*
X28170484Y16323884D01*
X28113915Y16323884D01*
X28113915Y16267315D01*
X28170484Y16267315D01*
X28424484Y17283316D02*
X28424484Y17339885D01*
X28367915Y17339885D01*
X28367915Y17283316D01*
X28424484Y17283316D01*
X28424484Y16267315D02*
X28424484Y16323884D01*
X28367915Y16323884D01*
X28367915Y16267315D01*
X28424484Y16267315D01*
X28678484Y17283316D02*
X28678484Y17339885D01*
X28621915Y17339885D01*
X28621915Y17283316D01*
X28678484Y17283316D01*
X28678484Y16267315D02*
X28678484Y16323884D01*
X28621915Y16323884D01*
X28621915Y16267315D01*
X28678484Y16267315D01*
X28791284Y11185715D02*
X28791284Y11242284D01*
X28734715Y11242284D01*
X28734715Y11185715D01*
X28791284Y11185715D01*
X28791284Y10169716D02*
X28791284Y10226285D01*
X28734715Y10226285D01*
X28734715Y10169716D01*
X28791284Y10169716D01*
X28831884Y12925715D02*
X28831884Y12982284D01*
X28775315Y12982284D01*
X28775315Y12925715D01*
X28831884Y12925715D01*
X28839284Y3544715D02*
X28839284Y3601284D01*
X28782715Y3601284D01*
X28782715Y3544715D01*
X28839284Y3544715D01*
X28839284Y2528716D02*
X28839284Y2585285D01*
X28782715Y2585285D01*
X28782715Y2528716D01*
X28839284Y2528716D01*
X28932484Y17283316D02*
X28932484Y17339885D01*
X28875915Y17339885D01*
X28875915Y17283316D01*
X28932484Y17283316D01*
X28932484Y16267315D02*
X28932484Y16323884D01*
X28875915Y16323884D01*
X28875915Y16267315D01*
X28932484Y16267315D01*
X29045284Y11185715D02*
X29045284Y11242284D01*
X28988715Y11242284D01*
X28988715Y11185715D01*
X29045284Y11185715D01*
X29045284Y10169716D02*
X29045284Y10226285D01*
X28988715Y10226285D01*
X28988715Y10169716D01*
X29045284Y10169716D01*
X29085884Y19097916D02*
X29085884Y19154485D01*
X29029315Y19154485D01*
X29029315Y19097916D01*
X29085884Y19097916D01*
X29093284Y3544715D02*
X29093284Y3601284D01*
X29036715Y3601284D01*
X29036715Y3544715D01*
X29093284Y3544715D01*
X29093284Y2528716D02*
X29093284Y2585285D01*
X29036715Y2585285D01*
X29036715Y2528716D01*
X29093284Y2528716D01*
X29299284Y11185715D02*
X29299284Y11242284D01*
X29242715Y11242284D01*
X29242715Y11185715D01*
X29299284Y11185715D01*
X29299284Y10169716D02*
X29299284Y10226285D01*
X29242715Y10226285D01*
X29242715Y10169716D01*
X29299284Y10169716D01*
X29347284Y3544715D02*
X29347284Y3601284D01*
X29290715Y3601284D01*
X29290715Y3544715D01*
X29347284Y3544715D01*
X29347284Y2528716D02*
X29347284Y2585285D01*
X29290715Y2585285D01*
X29290715Y2528716D01*
X29347284Y2528716D01*
X29553284Y11185715D02*
X29553284Y11242284D01*
X29496715Y11242284D01*
X29496715Y11185715D01*
X29553284Y11185715D01*
X29553284Y10169716D02*
X29553284Y10226285D01*
X29496715Y10226285D01*
X29496715Y10169716D01*
X29553284Y10169716D01*
X29601284Y3544715D02*
X29601284Y3601284D01*
X29544715Y3601284D01*
X29544715Y3544715D01*
X29601284Y3544715D01*
X29601284Y2528716D02*
X29601284Y2585285D01*
X29544715Y2585285D01*
X29544715Y2528716D01*
X29601284Y2528716D01*
X29712284Y5168716D02*
X29712284Y5225285D01*
X29655715Y5225285D01*
X29655715Y5168716D01*
X29712284Y5168716D01*
X29795284Y7180715D02*
X29795284Y7237284D01*
X29738715Y7237284D01*
X29738715Y7180715D01*
X29795284Y7180715D01*
X29847884Y12925715D02*
X29847884Y12982284D01*
X29791315Y12982284D01*
X29791315Y12925715D01*
X29847884Y12925715D01*
X30728284Y5168716D02*
X30728284Y5225285D01*
X30671715Y5225285D01*
X30671715Y5168716D01*
X30728284Y5168716D01*
X30811284Y7180715D02*
X30811284Y7237284D01*
X30754715Y7237284D01*
X30754715Y7180715D01*
X30811284Y7180715D01*
D16*
X770000Y5588800D02*
X820000Y5638800D01*
X770000Y5688800D01*
X720000Y5638800D01*
X770000Y5588800D01*
X1020000Y5588800D02*
X1070000Y5638800D01*
X1020000Y5688800D01*
X970000Y5638800D01*
X1020000Y5588800D01*
X1270000Y5588800D02*
X1320000Y5638800D01*
X1270000Y5688800D01*
X1220000Y5638800D01*
X1270000Y5588800D01*
X1430000Y17804000D02*
X1480000Y17854000D01*
X1430000Y17904000D01*
X1380000Y17854000D01*
X1430000Y17804000D01*
X1430000Y17550000D02*
X1480000Y17600000D01*
X1430000Y17650000D01*
X1380000Y17600000D01*
X1430000Y17550000D01*
X1981200Y1677700D02*
X2031200Y1727700D01*
X1981200Y1777700D01*
X1931200Y1727700D01*
X1981200Y1677700D01*
X1981200Y1423700D02*
X2031200Y1473700D01*
X1981200Y1523700D01*
X1931200Y1473700D01*
X1981200Y1423700D01*
X2027000Y17804000D02*
X2077000Y17854000D01*
X2027000Y17904000D01*
X1977000Y17854000D01*
X2027000Y17804000D01*
X2027000Y17550000D02*
X2077000Y17600000D01*
X2027000Y17650000D01*
X1977000Y17600000D01*
X2027000Y17550000D01*
X2057400Y5538000D02*
X2107400Y5588000D01*
X2057400Y5638000D01*
X2007400Y5588000D01*
X2057400Y5538000D01*
X2057400Y5284000D02*
X2107400Y5334000D01*
X2057400Y5384000D01*
X2007400Y5334000D01*
X2057400Y5284000D01*
X2057400Y5030000D02*
X2107400Y5080000D01*
X2057400Y5130000D01*
X2007400Y5080000D01*
X2057400Y5030000D01*
X2057400Y3353600D02*
X2107400Y3403600D01*
X2057400Y3453600D01*
X2007400Y3403600D01*
X2057400Y3353600D01*
X2057400Y3099600D02*
X2107400Y3149600D01*
X2057400Y3199600D01*
X2007400Y3149600D01*
X2057400Y3099600D01*
X2520000Y12926000D02*
X2570000Y12976000D01*
X2520000Y13026000D01*
X2470000Y12976000D01*
X2520000Y12926000D01*
X2520000Y12672000D02*
X2570000Y12722000D01*
X2520000Y12772000D01*
X2470000Y12722000D01*
X2520000Y12672000D01*
X2590000Y18981000D02*
X2640000Y19031000D01*
X2590000Y19081000D01*
X2540000Y19031000D01*
X2590000Y18981000D01*
X2590000Y18727000D02*
X2640000Y18777000D01*
X2590000Y18827000D01*
X2540000Y18777000D01*
X2590000Y18727000D01*
X3099000Y12926000D02*
X3149000Y12976000D01*
X3099000Y13026000D01*
X3049000Y12976000D01*
X3099000Y12926000D01*
X3099000Y12672000D02*
X3149000Y12722000D01*
X3099000Y12772000D01*
X3049000Y12722000D01*
X3099000Y12672000D01*
X3186000Y18978000D02*
X3236000Y19028000D01*
X3186000Y19078000D01*
X3136000Y19028000D01*
X3186000Y18978000D01*
X3186000Y18724000D02*
X3236000Y18774000D01*
X3186000Y18824000D01*
X3136000Y18774000D01*
X3186000Y18724000D01*
X3981000Y10953000D02*
X4031000Y11003000D01*
X3981000Y11053000D01*
X3931000Y11003000D01*
X3981000Y10953000D01*
X3996000Y10258000D02*
X4046000Y10308000D01*
X3996000Y10358000D01*
X3946000Y10308000D01*
X3996000Y10258000D01*
X4011600Y7493700D02*
X4061600Y7543700D01*
X4011600Y7593700D01*
X3961600Y7543700D01*
X4011600Y7493700D01*
X4011600Y7239700D02*
X4061600Y7289700D01*
X4011600Y7339700D01*
X3961600Y7289700D01*
X4011600Y7239700D01*
X4235000Y10953000D02*
X4285000Y11003000D01*
X4235000Y11053000D01*
X4185000Y11003000D01*
X4235000Y10953000D01*
X4250000Y10258000D02*
X4300000Y10308000D01*
X4250000Y10358000D01*
X4200000Y10308000D01*
X4250000Y10258000D01*
X4394200Y4444300D02*
X4444200Y4494300D01*
X4394200Y4544300D01*
X4344200Y4494300D01*
X4394200Y4444300D01*
X4394200Y4190300D02*
X4444200Y4240300D01*
X4394200Y4290300D01*
X4344200Y4240300D01*
X4394200Y4190300D01*
X4394200Y3936300D02*
X4444200Y3986300D01*
X4394200Y4036300D01*
X4344200Y3986300D01*
X4394200Y3936300D01*
X4394200Y3352100D02*
X4444200Y3402100D01*
X4394200Y3452100D01*
X4344200Y3402100D01*
X4394200Y3352100D01*
X4394200Y3098100D02*
X4444200Y3148100D01*
X4394200Y3198100D01*
X4344200Y3148100D01*
X4394200Y3098100D01*
X4394200Y2844100D02*
X4444200Y2894100D01*
X4394200Y2944100D01*
X4344200Y2894100D01*
X4394200Y2844100D01*
X4648200Y7493700D02*
X4698200Y7543700D01*
X4648200Y7593700D01*
X4598200Y7543700D01*
X4648200Y7493700D01*
X4648200Y7239700D02*
X4698200Y7289700D01*
X4648200Y7339700D01*
X4598200Y7289700D01*
X4648200Y7239700D01*
X5173000Y17754000D02*
X5223000Y17804000D01*
X5173000Y17854000D01*
X5123000Y17804000D01*
X5173000Y17754000D01*
X5173000Y17500000D02*
X5223000Y17550000D01*
X5173000Y17600000D01*
X5123000Y17550000D01*
X5173000Y17500000D01*
X5728000Y17764000D02*
X5778000Y17814000D01*
X5728000Y17864000D01*
X5678000Y17814000D01*
X5728000Y17764000D01*
X5728000Y17510000D02*
X5778000Y17560000D01*
X5728000Y17610000D01*
X5678000Y17560000D01*
X5728000Y17510000D01*
X6175600Y7491700D02*
X6225600Y7541700D01*
X6175600Y7591700D01*
X6125600Y7541700D01*
X6175600Y7491700D01*
X6175600Y7237700D02*
X6225600Y7287700D01*
X6175600Y7337700D01*
X6125600Y7287700D01*
X6175600Y7237700D01*
X6283000Y17765000D02*
X6333000Y17815000D01*
X6283000Y17865000D01*
X6233000Y17815000D01*
X6283000Y17765000D01*
X6283000Y17511000D02*
X6333000Y17561000D01*
X6283000Y17611000D01*
X6233000Y17561000D01*
X6283000Y17511000D01*
X6502400Y4774500D02*
X6552400Y4824500D01*
X6502400Y4874500D01*
X6452400Y4824500D01*
X6502400Y4774500D01*
X6503900Y2539300D02*
X6553900Y2589300D01*
X6503900Y2639300D01*
X6453900Y2589300D01*
X6503900Y2539300D01*
X6756400Y4774500D02*
X6806400Y4824500D01*
X6756400Y4874500D01*
X6706400Y4824500D01*
X6756400Y4774500D01*
X6757900Y2539300D02*
X6807900Y2589300D01*
X6757900Y2639300D01*
X6707900Y2589300D01*
X6757900Y2539300D01*
X6761400Y7491700D02*
X6811400Y7541700D01*
X6761400Y7591700D01*
X6711400Y7541700D01*
X6761400Y7491700D01*
X6761400Y7237700D02*
X6811400Y7287700D01*
X6761400Y7337700D01*
X6711400Y7287700D01*
X6761400Y7237700D01*
X7010400Y4774500D02*
X7060400Y4824500D01*
X7010400Y4874500D01*
X6960400Y4824500D01*
X7010400Y4774500D01*
X7011900Y2539300D02*
X7061900Y2589300D01*
X7011900Y2639300D01*
X6961900Y2589300D01*
X7011900Y2539300D01*
X8153400Y3912400D02*
X8203400Y3962400D01*
X8153400Y4012400D01*
X8103400Y3962400D01*
X8153400Y3912400D01*
X8153400Y3658400D02*
X8203400Y3708400D01*
X8153400Y3758400D01*
X8103400Y3708400D01*
X8153400Y3658400D01*
X8153400Y3404400D02*
X8203400Y3454400D01*
X8153400Y3504400D01*
X8103400Y3454400D01*
X8153400Y3404400D01*
X8246000Y14373000D02*
X8296000Y14423000D01*
X8246000Y14473000D01*
X8196000Y14423000D01*
X8246000Y14373000D01*
X8248000Y15732000D02*
X8298000Y15782000D01*
X8248000Y15832000D01*
X8198000Y15782000D01*
X8248000Y15732000D01*
X8254000Y15031000D02*
X8304000Y15081000D01*
X8254000Y15131000D01*
X8204000Y15081000D01*
X8254000Y15031000D01*
X8500000Y14373000D02*
X8550000Y14423000D01*
X8500000Y14473000D01*
X8450000Y14423000D01*
X8500000Y14373000D01*
X8502000Y15732000D02*
X8552000Y15782000D01*
X8502000Y15832000D01*
X8452000Y15782000D01*
X8502000Y15732000D01*
X8508000Y15031000D02*
X8558000Y15081000D01*
X8508000Y15131000D01*
X8458000Y15081000D01*
X8508000Y15031000D01*
X11290000Y15113000D02*
X11340000Y15163000D01*
X11290000Y15213000D01*
X11240000Y15163000D01*
X11290000Y15113000D01*
X11312000Y15730000D02*
X11362000Y15780000D01*
X11312000Y15830000D01*
X11262000Y15780000D01*
X11312000Y15730000D01*
X11405000Y10509500D02*
X11455000Y10559500D01*
X11405000Y10609500D01*
X11355000Y10559500D01*
X11405000Y10509500D01*
X11405000Y10255500D02*
X11455000Y10305500D01*
X11405000Y10355500D01*
X11355000Y10305500D01*
X11405000Y10255500D01*
X11544000Y15113000D02*
X11594000Y15163000D01*
X11544000Y15213000D01*
X11494000Y15163000D01*
X11544000Y15113000D01*
X11566000Y15730000D02*
X11616000Y15780000D01*
X11566000Y15830000D01*
X11516000Y15780000D01*
X11566000Y15730000D01*
X11971000Y10509000D02*
X12021000Y10559000D01*
X11971000Y10609000D01*
X11921000Y10559000D01*
X11971000Y10509000D01*
X11971000Y10255000D02*
X12021000Y10305000D01*
X11971000Y10355000D01*
X11921000Y10305000D01*
X11971000Y10255000D01*
X14311400Y10486800D02*
X14361400Y10536800D01*
X14311400Y10586800D01*
X14261400Y10536800D01*
X14311400Y10486800D01*
X14311400Y10232800D02*
X14361400Y10282800D01*
X14311400Y10332800D01*
X14261400Y10282800D01*
X14311400Y10232800D01*
X14487000Y7184500D02*
X14537000Y7234500D01*
X14487000Y7284500D01*
X14437000Y7234500D01*
X14487000Y7184500D01*
X14487000Y6930500D02*
X14537000Y6980500D01*
X14487000Y7030500D01*
X14437000Y6980500D01*
X14487000Y6930500D01*
X14579600Y14707400D02*
X14629600Y14757400D01*
X14579600Y14807400D01*
X14529600Y14757400D01*
X14579600Y14707400D01*
X14833600Y14707400D02*
X14883600Y14757400D01*
X14833600Y14807400D01*
X14783600Y14757400D01*
X14833600Y14707400D01*
X14871800Y17425200D02*
X14921800Y17475200D01*
X14871800Y17525200D01*
X14821800Y17475200D01*
X14871800Y17425200D01*
X14871800Y17171200D02*
X14921800Y17221200D01*
X14871800Y17271200D01*
X14821800Y17221200D01*
X14871800Y17171200D01*
X14909800Y10490500D02*
X14959800Y10540500D01*
X14909800Y10590500D01*
X14859800Y10540500D01*
X14909800Y10490500D01*
X14909800Y10236500D02*
X14959800Y10286500D01*
X14909800Y10336500D01*
X14859800Y10286500D01*
X14909800Y10236500D01*
X15104000Y7188500D02*
X15154000Y7238500D01*
X15104000Y7288500D01*
X15054000Y7238500D01*
X15104000Y7188500D01*
X15104000Y6934500D02*
X15154000Y6984500D01*
X15104000Y7034500D01*
X15054000Y6984500D01*
X15104000Y6934500D01*
X15443000Y17416000D02*
X15493000Y17466000D01*
X15443000Y17516000D01*
X15393000Y17466000D01*
X15443000Y17416000D01*
X15443000Y17162000D02*
X15493000Y17212000D01*
X15443000Y17262000D01*
X15393000Y17212000D01*
X15443000Y17162000D01*
X15684000Y7175000D02*
X15734000Y7225000D01*
X15684000Y7275000D01*
X15634000Y7225000D01*
X15684000Y7175000D01*
X15684000Y6921000D02*
X15734000Y6971000D01*
X15684000Y7021000D01*
X15634000Y6971000D01*
X15684000Y6921000D01*
X16510000Y14122700D02*
X16560000Y14172700D01*
X16510000Y14222700D01*
X16460000Y14172700D01*
X16510000Y14122700D01*
X16510000Y13868700D02*
X16560000Y13918700D01*
X16510000Y13968700D01*
X16460000Y13918700D01*
X16510000Y13868700D01*
X17145000Y14707400D02*
X17195000Y14757400D01*
X17145000Y14807400D01*
X17095000Y14757400D01*
X17145000Y14707400D01*
X17356000Y8910000D02*
X17406000Y8960000D01*
X17356000Y9010000D01*
X17306000Y8960000D01*
X17356000Y8910000D01*
X17356000Y8410000D02*
X17406000Y8460000D01*
X17356000Y8510000D01*
X17306000Y8460000D01*
X17356000Y8410000D01*
X17368000Y7767000D02*
X17418000Y7817000D01*
X17368000Y7867000D01*
X17318000Y7817000D01*
X17368000Y7767000D01*
X17373000Y7242000D02*
X17423000Y7292000D01*
X17373000Y7342000D01*
X17323000Y7292000D01*
X17373000Y7242000D01*
X17399000Y14707400D02*
X17449000Y14757400D01*
X17399000Y14807400D01*
X17349000Y14757400D01*
X17399000Y14707400D01*
X17622000Y7767000D02*
X17672000Y7817000D01*
X17622000Y7867000D01*
X17572000Y7817000D01*
X17622000Y7767000D01*
X17627000Y7242000D02*
X17677000Y7292000D01*
X17627000Y7342000D01*
X17577000Y7292000D01*
X17627000Y7242000D01*
X18923000Y4520500D02*
X18973000Y4570500D01*
X18923000Y4620500D01*
X18873000Y4570500D01*
X18923000Y4520500D01*
X18923000Y4266500D02*
X18973000Y4316500D01*
X18923000Y4366500D01*
X18873000Y4316500D01*
X18923000Y4266500D01*
X18923000Y4012500D02*
X18973000Y4062500D01*
X18923000Y4112500D01*
X18873000Y4062500D01*
X18923000Y4012500D01*
X18923000Y3428300D02*
X18973000Y3478300D01*
X18923000Y3528300D01*
X18873000Y3478300D01*
X18923000Y3428300D01*
X18923000Y3174300D02*
X18973000Y3224300D01*
X18923000Y3274300D01*
X18873000Y3224300D01*
X18923000Y3174300D01*
X18923000Y2920300D02*
X18973000Y2970300D01*
X18923000Y3020300D01*
X18873000Y2970300D01*
X18923000Y2920300D01*
X19659600Y1929700D02*
X19709600Y1979700D01*
X19659600Y2029700D01*
X19609600Y1979700D01*
X19659600Y1929700D01*
X19685000Y5358700D02*
X19735000Y5408700D01*
X19685000Y5458700D01*
X19635000Y5408700D01*
X19685000Y5358700D01*
X19913600Y1929700D02*
X19963600Y1979700D01*
X19913600Y2029700D01*
X19863600Y1979700D01*
X19913600Y1929700D01*
X19939000Y5358700D02*
X19989000Y5408700D01*
X19939000Y5458700D01*
X19889000Y5408700D01*
X19939000Y5358700D01*
X20167600Y1929700D02*
X20217600Y1979700D01*
X20167600Y2029700D01*
X20117600Y1979700D01*
X20167600Y1929700D01*
X20193000Y5358700D02*
X20243000Y5408700D01*
X20193000Y5458700D01*
X20143000Y5408700D01*
X20193000Y5358700D01*
X20726400Y5358700D02*
X20776400Y5408700D01*
X20726400Y5458700D01*
X20676400Y5408700D01*
X20726400Y5358700D01*
X20726400Y1929700D02*
X20776400Y1979700D01*
X20726400Y2029700D01*
X20676400Y1979700D01*
X20726400Y1929700D01*
X20980400Y5358700D02*
X21030400Y5408700D01*
X20980400Y5458700D01*
X20930400Y5408700D01*
X20980400Y5358700D01*
X20980400Y1929700D02*
X21030400Y1979700D01*
X20980400Y2029700D01*
X20930400Y1979700D01*
X20980400Y1929700D01*
X21234400Y5358700D02*
X21284400Y5408700D01*
X21234400Y5458700D01*
X21184400Y5408700D01*
X21234400Y5358700D01*
X21234400Y1929700D02*
X21284400Y1979700D01*
X21234400Y2029700D01*
X21184400Y1979700D01*
X21234400Y1929700D01*
X22021800Y4495100D02*
X22071800Y4545100D01*
X22021800Y4595100D01*
X21971800Y4545100D01*
X22021800Y4495100D01*
X22021800Y4241100D02*
X22071800Y4291100D01*
X22021800Y4341100D01*
X21971800Y4291100D01*
X22021800Y4241100D01*
X22021800Y3987100D02*
X22071800Y4037100D01*
X22021800Y4087100D01*
X21971800Y4037100D01*
X22021800Y3987100D01*
X22021800Y3453700D02*
X22071800Y3503700D01*
X22021800Y3553700D01*
X21971800Y3503700D01*
X22021800Y3453700D01*
X22021800Y3199700D02*
X22071800Y3249700D01*
X22021800Y3299700D01*
X21971800Y3249700D01*
X22021800Y3199700D01*
X22021800Y2945700D02*
X22071800Y2995700D01*
X22021800Y3045700D01*
X21971800Y2995700D01*
X22021800Y2945700D01*
X22062000Y8888000D02*
X22112000Y8938000D01*
X22062000Y8988000D01*
X22012000Y8938000D01*
X22062000Y8888000D01*
X22062000Y8388000D02*
X22112000Y8438000D01*
X22062000Y8488000D01*
X22012000Y8438000D01*
X22062000Y8388000D01*
X25781000Y15022300D02*
X25831000Y15072300D01*
X25781000Y15122300D01*
X25731000Y15072300D01*
X25781000Y15022300D01*
X25781000Y14768300D02*
X25831000Y14818300D01*
X25781000Y14868300D01*
X25731000Y14818300D01*
X25781000Y14768300D01*
X26263100Y3556800D02*
X26313100Y3606800D01*
X26263100Y3656800D01*
X26213100Y3606800D01*
X26263100Y3556800D01*
X26264100Y2972600D02*
X26314100Y3022600D01*
X26264100Y3072600D01*
X26214100Y3022600D01*
X26264100Y2972600D01*
X26517100Y3556800D02*
X26567100Y3606800D01*
X26517100Y3656800D01*
X26467100Y3606800D01*
X26517100Y3556800D01*
X26518100Y2972600D02*
X26568100Y3022600D01*
X26518100Y3072600D01*
X26468100Y3022600D01*
X26518100Y2972600D01*
X26695400Y15022300D02*
X26745400Y15072300D01*
X26695400Y15122300D01*
X26645400Y15072300D01*
X26695400Y15022300D01*
X26695400Y14768300D02*
X26745400Y14818300D01*
X26695400Y14868300D01*
X26645400Y14818300D01*
X26695400Y14768300D01*
X27533600Y12117100D02*
X27583600Y12167100D01*
X27533600Y12217100D01*
X27483600Y12167100D01*
X27533600Y12117100D01*
X27533600Y11863100D02*
X27583600Y11913100D01*
X27533600Y11963100D01*
X27483600Y11913100D01*
X27533600Y11863100D01*
X27787600Y9779800D02*
X27837600Y9829800D01*
X27787600Y9879800D01*
X27737600Y9829800D01*
X27787600Y9779800D01*
X28016200Y5614200D02*
X28066200Y5664200D01*
X28016200Y5714200D01*
X27966200Y5664200D01*
X28016200Y5614200D01*
X28016200Y5360200D02*
X28066200Y5410200D01*
X28016200Y5460200D01*
X27966200Y5410200D01*
X28016200Y5360200D01*
X28041600Y9779800D02*
X28091600Y9829800D01*
X28041600Y9879800D01*
X27991600Y9829800D01*
X28041600Y9779800D01*
X28233000Y9402000D02*
X28283000Y9452000D01*
X28233000Y9502000D01*
X28183000Y9452000D01*
X28233000Y9402000D01*
X28233000Y9148000D02*
X28283000Y9198000D01*
X28233000Y9248000D01*
X28183000Y9198000D01*
X28233000Y9148000D01*
X28321000Y4928400D02*
X28371000Y4978400D01*
X28321000Y5028400D01*
X28271000Y4978400D01*
X28321000Y4928400D01*
X28575000Y4928400D02*
X28625000Y4978400D01*
X28575000Y5028400D01*
X28525000Y4978400D01*
X28575000Y4928400D01*
D17*
X965000Y3839600D02*
X1075000Y3729600D01*
X1075000Y3839600D02*
X965000Y3729600D01*
X1075000Y3784600D02*
G75*
G03*
X1075000Y3784600I-55000J0D01*
G01*
X965000Y2823600D02*
X1075000Y2713600D01*
X1075000Y2823600D02*
X965000Y2713600D01*
X1075000Y2768600D02*
G75*
G03*
X1075000Y2768600I-55000J0D01*
G01*
X965000Y2214000D02*
X1075000Y2104000D01*
X1075000Y2214000D02*
X965000Y2104000D01*
X1075000Y2159000D02*
G75*
G03*
X1075000Y2159000I-55000J0D01*
G01*
X965000Y1198000D02*
X1075000Y1088000D01*
X1075000Y1198000D02*
X965000Y1088000D01*
X1075000Y1143000D02*
G75*
G03*
X1075000Y1143000I-55000J0D01*
G01*
D18*
X1318000Y18388400D02*
X1468000Y18238400D01*
X1468000Y18388400D02*
X1318000Y18238400D01*
X1393000Y18388400D02*
X1393000Y18238400D01*
X1318000Y18313400D02*
X1468000Y18313400D01*
X1961000Y18394000D02*
X2111000Y18244000D01*
X2111000Y18394000D02*
X1961000Y18244000D01*
X2036000Y18394000D02*
X2036000Y18244000D01*
X1961000Y18319000D02*
X2111000Y18319000D01*
X1972000Y15467000D02*
X2122000Y15317000D01*
X2122000Y15467000D02*
X1972000Y15317000D01*
X2047000Y15467000D02*
X2047000Y15317000D01*
X1972000Y15392000D02*
X2122000Y15392000D01*
X2465000Y13511600D02*
X2615000Y13361600D01*
X2615000Y13511600D02*
X2465000Y13361600D01*
X2540000Y13511600D02*
X2540000Y13361600D01*
X2465000Y13436600D02*
X2615000Y13436600D01*
X2592000Y19607600D02*
X2742000Y19457600D01*
X2742000Y19607600D02*
X2592000Y19457600D01*
X2667000Y19607600D02*
X2667000Y19457600D01*
X2592000Y19532600D02*
X2742000Y19532600D01*
X3049200Y12343200D02*
X3199200Y12193200D01*
X3199200Y12343200D02*
X3049200Y12193200D01*
X3124200Y12343200D02*
X3124200Y12193200D01*
X3049200Y12268200D02*
X3199200Y12268200D01*
X4751000Y14984800D02*
X4901000Y14834800D01*
X4901000Y14984800D02*
X4751000Y14834800D01*
X4826000Y14984800D02*
X4826000Y14834800D01*
X4751000Y14909800D02*
X4901000Y14909800D01*
D19*
X350000Y20650000D02*
X650000Y20350000D01*
X650000Y20650000D02*
X350000Y20350000D01*
X606067Y20393933D02*
X606067Y20606067D01*
X393933Y20606067D01*
X393933Y20393933D01*
X606067Y20393933D01*
X350000Y650000D02*
X650000Y350000D01*
X650000Y650000D02*
X350000Y350000D01*
X606067Y393933D02*
X606067Y606067D01*
X393933Y606067D01*
X393933Y393933D01*
X606067Y393933D01*
X14700000Y20650000D02*
X15000000Y20350000D01*
X15000000Y20650000D02*
X14700000Y20350000D01*
X14956067Y20393933D02*
X14956067Y20606067D01*
X14743933Y20606067D01*
X14743933Y20393933D01*
X14956067Y20393933D01*
X14700000Y650000D02*
X15000000Y350000D01*
X15000000Y650000D02*
X14700000Y350000D01*
X14956067Y393933D02*
X14956067Y606067D01*
X14743933Y606067D01*
X14743933Y393933D01*
X14956067Y393933D01*
X29050000Y20650000D02*
X29350000Y20350000D01*
X29350000Y20650000D02*
X29050000Y20350000D01*
X29306067Y20393933D02*
X29306067Y20606067D01*
X29093933Y20606067D01*
X29093933Y20393933D01*
X29306067Y20393933D01*
X29050000Y650000D02*
X29350000Y350000D01*
X29350000Y650000D02*
X29050000Y350000D01*
X29306067Y393933D02*
X29306067Y606067D01*
X29093933Y606067D01*
X29093933Y393933D01*
X29306067Y393933D01*
D20*
X693400Y9121800D02*
X1093400Y8721800D01*
X1093400Y9121800D02*
X693400Y8721800D01*
X893400Y8721800D02*
X1093400Y8921800D01*
X893400Y9121800D01*
X693400Y8921800D01*
X893400Y8721800D01*
X693400Y7621800D02*
X1093400Y7221800D01*
X1093400Y7621800D02*
X693400Y7221800D01*
X893400Y7221800D02*
X1093400Y7421800D01*
X893400Y7621800D01*
X693400Y7421800D01*
X893400Y7221800D01*
X5258800Y19197000D02*
X5658800Y18797000D01*
X5658800Y19197000D02*
X5258800Y18797000D01*
X5458800Y18797000D02*
X5658800Y18997000D01*
X5458800Y19197000D01*
X5258800Y18997000D01*
X5458800Y18797000D01*
X5258800Y12983000D02*
X5658800Y12583000D01*
X5658800Y12983000D02*
X5258800Y12583000D01*
X5458800Y12583000D02*
X5658800Y12783000D01*
X5458800Y12983000D01*
X5258800Y12783000D01*
X5458800Y12583000D01*
X8019500Y12832500D02*
X8419500Y12432500D01*
X8419500Y12832500D02*
X8019500Y12432500D01*
X8219500Y12432500D02*
X8419500Y12632500D01*
X8219500Y12832500D01*
X8019500Y12632500D01*
X8219500Y12432500D01*
X8019500Y11332500D02*
X8419500Y10932500D01*
X8419500Y11332500D02*
X8019500Y10932500D01*
X8219500Y10932500D02*
X8419500Y11132500D01*
X8219500Y11332500D01*
X8019500Y11132500D01*
X8219500Y10932500D01*
X12531100Y19072200D02*
X12931100Y18672200D01*
X12931100Y19072200D02*
X12531100Y18672200D01*
X12731100Y18672200D02*
X12931100Y18872200D01*
X12731100Y19072200D01*
X12531100Y18872200D01*
X12731100Y18672200D01*
X18253500Y8366800D02*
X18653500Y7966800D01*
X18653500Y8366800D02*
X18253500Y7966800D01*
X18453500Y7966800D02*
X18653500Y8166800D01*
X18453500Y8366800D01*
X18253500Y8166800D01*
X18453500Y7966800D01*
X18305500Y7335800D02*
X18705500Y6935800D01*
X18705500Y7335800D02*
X18305500Y6935800D01*
X18505500Y6935800D02*
X18705500Y7135800D01*
X18505500Y7335800D01*
X18305500Y7135800D01*
X18505500Y6935800D01*
X23955400Y3413800D02*
X24355400Y3013800D01*
X24355400Y3413800D02*
X23955400Y3013800D01*
X24155400Y3013800D02*
X24355400Y3213800D01*
X24155400Y3413800D01*
X23955400Y3213800D01*
X24155400Y3013800D01*
X23955400Y1913800D02*
X24355400Y1513800D01*
X24355400Y1913800D02*
X23955400Y1513800D01*
X24155400Y1513800D02*
X24355400Y1713800D01*
X24155400Y1913800D01*
X23955400Y1713800D01*
X24155400Y1513800D01*
X24145200Y12090400D02*
X24545200Y11690400D01*
X24545200Y12090400D02*
X24145200Y11690400D01*
X24345200Y11690400D02*
X24545200Y11890400D01*
X24345200Y12090400D01*
X24145200Y11890400D01*
X24345200Y11690400D01*
X24145200Y10769600D02*
X24545200Y10369600D01*
X24545200Y10769600D02*
X24145200Y10369600D01*
X24345200Y10369600D02*
X24545200Y10569600D01*
X24345200Y10769600D01*
X24145200Y10569600D01*
X24345200Y10369600D01*
X24145200Y9321800D02*
X24545200Y8921800D01*
X24545200Y9321800D02*
X24145200Y8921800D01*
X24345200Y8921800D02*
X24545200Y9121800D01*
X24345200Y9321800D01*
X24145200Y9121800D01*
X24345200Y8921800D01*
X24919000Y15844800D02*
X25319000Y15444800D01*
X25319000Y15844800D02*
X24919000Y15444800D01*
X25119000Y15444800D02*
X25319000Y15644800D01*
X25119000Y15844800D01*
X24919000Y15644800D01*
X25119000Y15444800D01*
X24919000Y14444800D02*
X25319000Y14044800D01*
X25319000Y14444800D02*
X24919000Y14044800D01*
X25119000Y14044800D02*
X25319000Y14244800D01*
X25119000Y14444800D01*
X24919000Y14244800D01*
X25119000Y14044800D01*
X25645200Y12090400D02*
X26045200Y11690400D01*
X26045200Y12090400D02*
X25645200Y11690400D01*
X25845200Y11690400D02*
X26045200Y11890400D01*
X25845200Y12090400D01*
X25645200Y11890400D01*
X25845200Y11690400D01*
X25645200Y10769600D02*
X26045200Y10369600D01*
X26045200Y10769600D02*
X25645200Y10369600D01*
X25845200Y10369600D02*
X26045200Y10569600D01*
X25845200Y10769600D01*
X25645200Y10569600D01*
X25845200Y10369600D01*
X25645200Y9321800D02*
X26045200Y8921800D01*
X26045200Y9321800D02*
X25645200Y8921800D01*
X25845200Y8921800D02*
X26045200Y9121800D01*
X25845200Y9321800D01*
X25645200Y9121800D01*
X25845200Y8921800D01*
X27105000Y15844800D02*
X27505000Y15444800D01*
X27505000Y15844800D02*
X27105000Y15444800D01*
X27305000Y15444800D02*
X27505000Y15644800D01*
X27305000Y15844800D01*
X27105000Y15644800D01*
X27305000Y15444800D01*
X27105000Y14444800D02*
X27505000Y14044800D01*
X27505000Y14444800D02*
X27105000Y14044800D01*
X27305000Y14044800D02*
X27505000Y14244800D01*
X27305000Y14444800D01*
X27105000Y14244800D01*
X27305000Y14044800D01*
X29213200Y18361000D02*
X29613200Y17961000D01*
X29613200Y18361000D02*
X29213200Y17961000D01*
X29413200Y17961000D02*
X29613200Y18161000D01*
X29413200Y18361000D01*
X29213200Y18161000D01*
X29413200Y17961000D01*
X29238600Y15719400D02*
X29638600Y15319400D01*
X29638600Y15719400D02*
X29238600Y15319400D01*
X29438600Y15319400D02*
X29638600Y15519400D01*
X29438600Y15719400D01*
X29238600Y15519400D01*
X29438600Y15319400D01*
X29850000Y12089000D02*
X30250000Y11689000D01*
X30250000Y12089000D02*
X29850000Y11689000D01*
X30050000Y11689000D02*
X30250000Y11889000D01*
X30050000Y12089000D01*
X29850000Y11889000D01*
X30050000Y11689000D01*
X29850000Y9894000D02*
X30250000Y9494000D01*
X30250000Y9894000D02*
X29850000Y9494000D01*
X30050000Y9494000D02*
X30250000Y9694000D01*
X30050000Y9894000D01*
X29850000Y9694000D01*
X30050000Y9494000D01*
X29949800Y4518000D02*
X30349800Y4118000D01*
X30349800Y4518000D02*
X29949800Y4118000D01*
X30149800Y4118000D02*
X30349800Y4318000D01*
X30149800Y4518000D01*
X29949800Y4318000D01*
X30149800Y4118000D01*
X29949800Y2130400D02*
X30349800Y1730400D01*
X30349800Y2130400D02*
X29949800Y1730400D01*
X30149800Y1730400D02*
X30349800Y1930400D01*
X30149800Y2130400D01*
X29949800Y1930400D01*
X30149800Y1730400D01*
X30737200Y17029500D02*
X31137200Y16629500D01*
X31137200Y17029500D02*
X30737200Y16629500D01*
X30937200Y16629500D02*
X31137200Y16829500D01*
X30937200Y17029500D01*
X30737200Y16829500D01*
X30937200Y16629500D01*
X31219800Y10969600D02*
X31619800Y10569600D01*
X31619800Y10969600D02*
X31219800Y10569600D01*
X31419800Y10569600D02*
X31619800Y10769600D01*
X31419800Y10969600D01*
X31219800Y10769600D01*
X31419800Y10569600D01*
X31346800Y3298800D02*
X31746800Y2898800D01*
X31746800Y3298800D02*
X31346800Y2898800D01*
X31546800Y2898800D02*
X31746800Y3098800D01*
X31546800Y3298800D01*
X31346800Y3098800D01*
X31546800Y2898800D01*
D11*
X252111Y-315476D02*
X252111Y-115476D01*
X299730Y-115476D01*
X328302Y-125000D01*
X347350Y-144048D01*
X356873Y-163095D01*
X366397Y-201190D01*
X366397Y-229762D01*
X356873Y-267857D01*
X347350Y-286905D01*
X328302Y-305952D01*
X299730Y-315476D01*
X252111Y-315476D01*
X452111Y-315476D02*
X452111Y-182143D01*
X452111Y-220238D02*
X461635Y-201190D01*
X471159Y-191667D01*
X490207Y-182143D01*
X509254Y-182143D01*
X575921Y-315476D02*
X575921Y-182143D01*
X575921Y-115476D02*
X566397Y-125000D01*
X575921Y-134524D01*
X585445Y-125000D01*
X575921Y-115476D01*
X575921Y-134524D01*
X699730Y-315476D02*
X680683Y-305952D01*
X671159Y-286905D01*
X671159Y-115476D01*
X804492Y-315476D02*
X785445Y-305952D01*
X775921Y-286905D01*
X775921Y-115476D01*
X1033064Y-315476D02*
X1033064Y-115476D01*
X1099730Y-258333D01*
X1166397Y-115476D01*
X1166397Y-315476D01*
X1347350Y-315476D02*
X1347350Y-210714D01*
X1337826Y-191667D01*
X1318778Y-182143D01*
X1280683Y-182143D01*
X1261635Y-191667D01*
X1347350Y-305952D02*
X1328302Y-315476D01*
X1280683Y-315476D01*
X1261635Y-305952D01*
X1252111Y-286905D01*
X1252111Y-267857D01*
X1261635Y-248809D01*
X1280683Y-239286D01*
X1328302Y-239286D01*
X1347350Y-229762D01*
X1442588Y-182143D02*
X1442588Y-382143D01*
X1442588Y-191667D02*
X1461635Y-182143D01*
X1499730Y-182143D01*
X1518778Y-191667D01*
X1528302Y-201190D01*
X1537826Y-220238D01*
X1537826Y-277381D01*
X1528302Y-296429D01*
X1518778Y-305952D01*
X1499730Y-315476D01*
X1461635Y-315476D01*
X1442588Y-305952D01*
X1623540Y-296429D02*
X1633064Y-305952D01*
X1623540Y-315476D01*
X1614016Y-305952D01*
X1623540Y-296429D01*
X1623540Y-315476D01*
X1623540Y-191667D02*
X1633064Y-201190D01*
X1623540Y-210714D01*
X1614016Y-201190D01*
X1623540Y-191667D01*
X1623540Y-210714D01*
D12*
X-45508Y-625000D02*
X-5508Y-665000D01*
X-5508Y-625000D02*
X-45508Y-665000D01*
D11*
X290207Y-535476D02*
X309254Y-535476D01*
X328302Y-545000D01*
X337826Y-554524D01*
X347350Y-573571D01*
X356873Y-611667D01*
X356873Y-659286D01*
X347350Y-697381D01*
X337826Y-716428D01*
X328302Y-725952D01*
X309254Y-735476D01*
X290207Y-735476D01*
X271159Y-725952D01*
X261635Y-716428D01*
X252111Y-697381D01*
X242588Y-659286D01*
X242588Y-611667D01*
X252111Y-573571D01*
X261635Y-554524D01*
X271159Y-545000D01*
X290207Y-535476D01*
X442588Y-716428D02*
X452111Y-725952D01*
X442588Y-735476D01*
X433064Y-725952D01*
X442588Y-716428D01*
X442588Y-735476D01*
X623540Y-602143D02*
X623540Y-735476D01*
X575921Y-525952D02*
X528302Y-668810D01*
X652111Y-668810D01*
X766397Y-535476D02*
X785445Y-535476D01*
X804492Y-545000D01*
X814016Y-554524D01*
X823540Y-573571D01*
X833064Y-611667D01*
X833064Y-659286D01*
X823540Y-697381D01*
X814016Y-716428D01*
X804492Y-725952D01*
X785445Y-735476D01*
X766397Y-735476D01*
X747349Y-725952D01*
X737826Y-716428D01*
X728302Y-697381D01*
X718778Y-659286D01*
X718778Y-611667D01*
X728302Y-573571D01*
X737826Y-554524D01*
X747349Y-545000D01*
X766397Y-535476D01*
X956873Y-535476D02*
X975921Y-535476D01*
X994968Y-545000D01*
X1004492Y-554524D01*
X1014016Y-573571D01*
X1023540Y-611667D01*
X1023540Y-659286D01*
X1014016Y-697381D01*
X1004492Y-716428D01*
X994968Y-725952D01*
X975921Y-735476D01*
X956873Y-735476D01*
X937826Y-725952D01*
X928302Y-716428D01*
X918778Y-697381D01*
X909254Y-659286D01*
X909254Y-611667D01*
X918778Y-573571D01*
X928302Y-554524D01*
X937826Y-545000D01*
X956873Y-535476D01*
X1109254Y-735476D02*
X1109254Y-602143D01*
X1109254Y-621190D02*
X1118778Y-611667D01*
X1137826Y-602143D01*
X1166397Y-602143D01*
X1185445Y-611667D01*
X1194969Y-630714D01*
X1194969Y-735476D01*
X1194969Y-630714D02*
X1204492Y-611667D01*
X1223540Y-602143D01*
X1252111Y-602143D01*
X1271159Y-611667D01*
X1280683Y-630714D01*
X1280683Y-735476D01*
X1375921Y-735476D02*
X1375921Y-602143D01*
X1375921Y-621190D02*
X1385445Y-611667D01*
X1404492Y-602143D01*
X1433064Y-602143D01*
X1452111Y-611667D01*
X1461635Y-630714D01*
X1461635Y-735476D01*
X1461635Y-630714D02*
X1471159Y-611667D01*
X1490207Y-602143D01*
X1518778Y-602143D01*
X1537826Y-611667D01*
X1547349Y-630714D01*
X1547349Y-735476D01*
X1937826Y-525952D02*
X1766397Y-783095D01*
X2194969Y-535476D02*
X2214016Y-535476D01*
X2233064Y-545000D01*
X2242588Y-554524D01*
X2252111Y-573571D01*
X2261635Y-611667D01*
X2261635Y-659286D01*
X2252111Y-697381D01*
X2242588Y-716428D01*
X2233064Y-725952D01*
X2214016Y-735476D01*
X2194969Y-735476D01*
X2175921Y-725952D01*
X2166397Y-716428D01*
X2156873Y-697381D01*
X2147350Y-659286D01*
X2147350Y-611667D01*
X2156873Y-573571D01*
X2166397Y-554524D01*
X2175921Y-545000D01*
X2194969Y-535476D01*
X2347350Y-716428D02*
X2356873Y-725952D01*
X2347350Y-735476D01*
X2337826Y-725952D01*
X2347350Y-716428D01*
X2347350Y-735476D01*
X2480683Y-535476D02*
X2499730Y-535476D01*
X2518778Y-545000D01*
X2528302Y-554524D01*
X2537826Y-573571D01*
X2547350Y-611667D01*
X2547350Y-659286D01*
X2537826Y-697381D01*
X2528302Y-716428D01*
X2518778Y-725952D01*
X2499730Y-735476D01*
X2480683Y-735476D01*
X2461635Y-725952D01*
X2452111Y-716428D01*
X2442588Y-697381D01*
X2433064Y-659286D01*
X2433064Y-611667D01*
X2442588Y-573571D01*
X2452111Y-554524D01*
X2461635Y-545000D01*
X2480683Y-535476D01*
X2737826Y-735476D02*
X2623540Y-735476D01*
X2680683Y-735476D02*
X2680683Y-535476D01*
X2661635Y-564048D01*
X2642588Y-583095D01*
X2623540Y-592619D01*
X2918778Y-535476D02*
X2823540Y-535476D01*
X2814016Y-630714D01*
X2823540Y-621190D01*
X2842588Y-611667D01*
X2890207Y-611667D01*
X2909254Y-621190D01*
X2918778Y-630714D01*
X2928302Y-649762D01*
X2928302Y-697381D01*
X2918778Y-716428D01*
X2909254Y-725952D01*
X2890207Y-735476D01*
X2842588Y-735476D01*
X2823540Y-725952D01*
X2814016Y-716428D01*
X2994968Y-535476D02*
X3128302Y-535476D01*
X3042588Y-735476D01*
X3194968Y-535476D02*
X3194968Y-573571D01*
X3271159Y-535476D02*
X3271159Y-573571D01*
X3566397Y-811667D02*
X3556873Y-802143D01*
X3537826Y-773571D01*
X3528302Y-754524D01*
X3518778Y-725952D01*
X3509254Y-678333D01*
X3509254Y-640238D01*
X3518778Y-592619D01*
X3528302Y-564048D01*
X3537826Y-545000D01*
X3556873Y-516428D01*
X3566397Y-506905D01*
X3747349Y-735476D02*
X3633064Y-735476D01*
X3690207Y-735476D02*
X3690207Y-535476D01*
X3671159Y-564048D01*
X3652111Y-583095D01*
X3633064Y-592619D01*
X3823540Y-554524D02*
X3833064Y-545000D01*
X3852111Y-535476D01*
X3899730Y-535476D01*
X3918778Y-545000D01*
X3928302Y-554524D01*
X3937826Y-573571D01*
X3937826Y-592619D01*
X3928302Y-621190D01*
X3814016Y-735476D01*
X3937826Y-735476D01*
X4175921Y-735476D02*
X4175921Y-535476D01*
X4261635Y-735476D02*
X4261635Y-630714D01*
X4252111Y-611667D01*
X4233064Y-602143D01*
X4204492Y-602143D01*
X4185445Y-611667D01*
X4175921Y-621190D01*
X4385445Y-735476D02*
X4366397Y-725952D01*
X4356873Y-716428D01*
X4347350Y-697381D01*
X4347350Y-640238D01*
X4356873Y-621190D01*
X4366397Y-611667D01*
X4385445Y-602143D01*
X4414016Y-602143D01*
X4433064Y-611667D01*
X4442588Y-621190D01*
X4452111Y-640238D01*
X4452111Y-697381D01*
X4442588Y-716428D01*
X4433064Y-725952D01*
X4414016Y-735476D01*
X4385445Y-735476D01*
X4566397Y-735476D02*
X4547350Y-725952D01*
X4537826Y-706905D01*
X4537826Y-535476D01*
X4718778Y-725952D02*
X4699730Y-735476D01*
X4661635Y-735476D01*
X4642588Y-725952D01*
X4633064Y-706905D01*
X4633064Y-630714D01*
X4642588Y-611667D01*
X4661635Y-602143D01*
X4699730Y-602143D01*
X4718778Y-611667D01*
X4728302Y-630714D01*
X4728302Y-649762D01*
X4633064Y-668810D01*
X4804492Y-725952D02*
X4823540Y-735476D01*
X4861635Y-735476D01*
X4880683Y-725952D01*
X4890207Y-706905D01*
X4890207Y-697381D01*
X4880683Y-678333D01*
X4861635Y-668810D01*
X4833064Y-668810D01*
X4814016Y-659286D01*
X4804492Y-640238D01*
X4804492Y-630714D01*
X4814016Y-611667D01*
X4833064Y-602143D01*
X4861635Y-602143D01*
X4880683Y-611667D01*
X4956873Y-811667D02*
X4966397Y-802143D01*
X4985445Y-773571D01*
X4994969Y-754524D01*
X5004492Y-725952D01*
X5014016Y-678333D01*
X5014016Y-640238D01*
X5004492Y-592619D01*
X4994969Y-564048D01*
X4985445Y-545000D01*
X4966397Y-516428D01*
X4956873Y-506905D01*
D13*
X-5508Y-909000D02*
G75*
G03*
X-5508Y-909000I-37500J0D01*
G01*
D11*
X290207Y-799476D02*
X309254Y-799476D01*
X328302Y-809000D01*
X337826Y-818524D01*
X347350Y-837571D01*
X356873Y-875667D01*
X356873Y-923286D01*
X347350Y-961381D01*
X337826Y-980428D01*
X328302Y-989952D01*
X309254Y-999476D01*
X290207Y-999476D01*
X271159Y-989952D01*
X261635Y-980428D01*
X252111Y-961381D01*
X242588Y-923286D01*
X242588Y-875667D01*
X252111Y-837571D01*
X261635Y-818524D01*
X271159Y-809000D01*
X290207Y-799476D01*
X442588Y-980428D02*
X452111Y-989952D01*
X442588Y-999476D01*
X433064Y-989952D01*
X442588Y-980428D01*
X442588Y-999476D01*
X518778Y-799476D02*
X652111Y-799476D01*
X566397Y-999476D01*
X823540Y-799476D02*
X728302Y-799476D01*
X718778Y-894714D01*
X728302Y-885190D01*
X747349Y-875667D01*
X794968Y-875667D01*
X814016Y-885190D01*
X823540Y-894714D01*
X833064Y-913762D01*
X833064Y-961381D01*
X823540Y-980428D01*
X814016Y-989952D01*
X794968Y-999476D01*
X747349Y-999476D01*
X728302Y-989952D01*
X718778Y-980428D01*
X956873Y-799476D02*
X975921Y-799476D01*
X994968Y-809000D01*
X1004492Y-818524D01*
X1014016Y-837571D01*
X1023540Y-875667D01*
X1023540Y-923286D01*
X1014016Y-961381D01*
X1004492Y-980428D01*
X994968Y-989952D01*
X975921Y-999476D01*
X956873Y-999476D01*
X937826Y-989952D01*
X928302Y-980428D01*
X918778Y-961381D01*
X909254Y-923286D01*
X909254Y-875667D01*
X918778Y-837571D01*
X928302Y-818524D01*
X937826Y-809000D01*
X956873Y-799476D01*
X1109254Y-999476D02*
X1109254Y-866143D01*
X1109254Y-885190D02*
X1118778Y-875667D01*
X1137826Y-866143D01*
X1166397Y-866143D01*
X1185445Y-875667D01*
X1194969Y-894714D01*
X1194969Y-999476D01*
X1194969Y-894714D02*
X1204492Y-875667D01*
X1223540Y-866143D01*
X1252111Y-866143D01*
X1271159Y-875667D01*
X1280683Y-894714D01*
X1280683Y-999476D01*
X1375921Y-999476D02*
X1375921Y-866143D01*
X1375921Y-885190D02*
X1385445Y-875667D01*
X1404492Y-866143D01*
X1433064Y-866143D01*
X1452111Y-875667D01*
X1461635Y-894714D01*
X1461635Y-999476D01*
X1461635Y-894714D02*
X1471159Y-875667D01*
X1490207Y-866143D01*
X1518778Y-866143D01*
X1537826Y-875667D01*
X1547349Y-894714D01*
X1547349Y-999476D01*
X1937826Y-789952D02*
X1766397Y-1047095D01*
X2194969Y-799476D02*
X2214016Y-799476D01*
X2233064Y-809000D01*
X2242588Y-818524D01*
X2252111Y-837571D01*
X2261635Y-875667D01*
X2261635Y-923286D01*
X2252111Y-961381D01*
X2242588Y-980428D01*
X2233064Y-989952D01*
X2214016Y-999476D01*
X2194969Y-999476D01*
X2175921Y-989952D01*
X2166397Y-980428D01*
X2156873Y-961381D01*
X2147350Y-923286D01*
X2147350Y-875667D01*
X2156873Y-837571D01*
X2166397Y-818524D01*
X2175921Y-809000D01*
X2194969Y-799476D01*
X2347350Y-980428D02*
X2356873Y-989952D01*
X2347350Y-999476D01*
X2337826Y-989952D01*
X2347350Y-980428D01*
X2347350Y-999476D01*
X2480683Y-799476D02*
X2499730Y-799476D01*
X2518778Y-809000D01*
X2528302Y-818524D01*
X2537826Y-837571D01*
X2547350Y-875667D01*
X2547350Y-923286D01*
X2537826Y-961381D01*
X2528302Y-980428D01*
X2518778Y-989952D01*
X2499730Y-999476D01*
X2480683Y-999476D01*
X2461635Y-989952D01*
X2452111Y-980428D01*
X2442588Y-961381D01*
X2433064Y-923286D01*
X2433064Y-875667D01*
X2442588Y-837571D01*
X2452111Y-818524D01*
X2461635Y-809000D01*
X2480683Y-799476D01*
X2623540Y-818524D02*
X2633064Y-809000D01*
X2652111Y-799476D01*
X2699730Y-799476D01*
X2718778Y-809000D01*
X2728302Y-818524D01*
X2737826Y-837571D01*
X2737826Y-856619D01*
X2728302Y-885190D01*
X2614016Y-999476D01*
X2737826Y-999476D01*
X2833064Y-999476D02*
X2871159Y-999476D01*
X2890207Y-989952D01*
X2899730Y-980428D01*
X2918778Y-951857D01*
X2928302Y-913762D01*
X2928302Y-837571D01*
X2918778Y-818524D01*
X2909254Y-809000D01*
X2890207Y-799476D01*
X2852111Y-799476D01*
X2833064Y-809000D01*
X2823540Y-818524D01*
X2814016Y-837571D01*
X2814016Y-885190D01*
X2823540Y-904238D01*
X2833064Y-913762D01*
X2852111Y-923286D01*
X2890207Y-923286D01*
X2909254Y-913762D01*
X2918778Y-904238D01*
X2928302Y-885190D01*
X3109254Y-799476D02*
X3014016Y-799476D01*
X3004492Y-894714D01*
X3014016Y-885190D01*
X3033064Y-875667D01*
X3080683Y-875667D01*
X3099730Y-885190D01*
X3109254Y-894714D01*
X3118778Y-913762D01*
X3118778Y-961381D01*
X3109254Y-980428D01*
X3099730Y-989952D01*
X3080683Y-999476D01*
X3033064Y-999476D01*
X3014016Y-989952D01*
X3004492Y-980428D01*
X3194968Y-799476D02*
X3194968Y-837571D01*
X3271159Y-799476D02*
X3271159Y-837571D01*
X3566397Y-1075667D02*
X3556873Y-1066143D01*
X3537826Y-1037571D01*
X3528302Y-1018524D01*
X3518778Y-989952D01*
X3509254Y-942333D01*
X3509254Y-904238D01*
X3518778Y-856619D01*
X3528302Y-828048D01*
X3537826Y-809000D01*
X3556873Y-780428D01*
X3566397Y-770905D01*
X3652111Y-999476D02*
X3690207Y-999476D01*
X3709254Y-989952D01*
X3718778Y-980428D01*
X3737826Y-951857D01*
X3747349Y-913762D01*
X3747349Y-837571D01*
X3737826Y-818524D01*
X3728302Y-809000D01*
X3709254Y-799476D01*
X3671159Y-799476D01*
X3652111Y-809000D01*
X3642588Y-818524D01*
X3633064Y-837571D01*
X3633064Y-885190D01*
X3642588Y-904238D01*
X3652111Y-913762D01*
X3671159Y-923286D01*
X3709254Y-923286D01*
X3728302Y-913762D01*
X3737826Y-904238D01*
X3747349Y-885190D01*
X3985445Y-999476D02*
X3985445Y-799476D01*
X4071159Y-999476D02*
X4071159Y-894714D01*
X4061635Y-875667D01*
X4042588Y-866143D01*
X4014016Y-866143D01*
X3994968Y-875667D01*
X3985445Y-885190D01*
X4194969Y-999476D02*
X4175921Y-989952D01*
X4166397Y-980428D01*
X4156873Y-961381D01*
X4156873Y-904238D01*
X4166397Y-885190D01*
X4175921Y-875667D01*
X4194969Y-866143D01*
X4223540Y-866143D01*
X4242588Y-875667D01*
X4252111Y-885190D01*
X4261635Y-904238D01*
X4261635Y-961381D01*
X4252111Y-980428D01*
X4242588Y-989952D01*
X4223540Y-999476D01*
X4194969Y-999476D01*
X4375921Y-999476D02*
X4356873Y-989952D01*
X4347350Y-970905D01*
X4347350Y-799476D01*
X4528302Y-989952D02*
X4509254Y-999476D01*
X4471159Y-999476D01*
X4452111Y-989952D01*
X4442588Y-970905D01*
X4442588Y-894714D01*
X4452111Y-875667D01*
X4471159Y-866143D01*
X4509254Y-866143D01*
X4528302Y-875667D01*
X4537826Y-894714D01*
X4537826Y-913762D01*
X4442588Y-932809D01*
X4614016Y-989952D02*
X4633064Y-999476D01*
X4671159Y-999476D01*
X4690207Y-989952D01*
X4699730Y-970905D01*
X4699730Y-961381D01*
X4690207Y-942333D01*
X4671159Y-932809D01*
X4642588Y-932809D01*
X4623540Y-923286D01*
X4614016Y-904238D01*
X4614016Y-894714D01*
X4623540Y-875667D01*
X4642588Y-866143D01*
X4671159Y-866143D01*
X4690207Y-875667D01*
X4766397Y-1075667D02*
X4775921Y-1066143D01*
X4794969Y-1037571D01*
X4804492Y-1018524D01*
X4814016Y-989952D01*
X4823540Y-942333D01*
X4823540Y-904238D01*
X4814016Y-856619D01*
X4804492Y-828048D01*
X4794969Y-809000D01*
X4775921Y-780428D01*
X4766397Y-770905D01*
D14*
X-43608Y-1134900D02*
X-43608Y-1211100D01*
X-81708Y-1173000D02*
X-5508Y-1173000D01*
D11*
X290207Y-1063476D02*
X309254Y-1063476D01*
X328302Y-1073000D01*
X337826Y-1082524D01*
X347350Y-1101571D01*
X356873Y-1139667D01*
X356873Y-1187286D01*
X347350Y-1225381D01*
X337826Y-1244429D01*
X328302Y-1253952D01*
X309254Y-1263476D01*
X290207Y-1263476D01*
X271159Y-1253952D01*
X261635Y-1244429D01*
X252111Y-1225381D01*
X242588Y-1187286D01*
X242588Y-1139667D01*
X252111Y-1101571D01*
X261635Y-1082524D01*
X271159Y-1073000D01*
X290207Y-1063476D01*
X442588Y-1244429D02*
X452111Y-1253952D01*
X442588Y-1263476D01*
X433064Y-1253952D01*
X442588Y-1244429D01*
X442588Y-1263476D01*
X518778Y-1063476D02*
X652111Y-1063476D01*
X566397Y-1263476D01*
X814016Y-1063476D02*
X775921Y-1063476D01*
X756873Y-1073000D01*
X747349Y-1082524D01*
X728302Y-1111095D01*
X718778Y-1149190D01*
X718778Y-1225381D01*
X728302Y-1244429D01*
X737826Y-1253952D01*
X756873Y-1263476D01*
X794968Y-1263476D01*
X814016Y-1253952D01*
X823540Y-1244429D01*
X833064Y-1225381D01*
X833064Y-1177762D01*
X823540Y-1158714D01*
X814016Y-1149190D01*
X794968Y-1139667D01*
X756873Y-1139667D01*
X737826Y-1149190D01*
X728302Y-1158714D01*
X718778Y-1177762D01*
X909254Y-1082524D02*
X918778Y-1073000D01*
X937826Y-1063476D01*
X985445Y-1063476D01*
X1004492Y-1073000D01*
X1014016Y-1082524D01*
X1023540Y-1101571D01*
X1023540Y-1120619D01*
X1014016Y-1149190D01*
X899730Y-1263476D01*
X1023540Y-1263476D01*
X1109254Y-1263476D02*
X1109254Y-1130143D01*
X1109254Y-1149190D02*
X1118778Y-1139667D01*
X1137826Y-1130143D01*
X1166397Y-1130143D01*
X1185445Y-1139667D01*
X1194969Y-1158714D01*
X1194969Y-1263476D01*
X1194969Y-1158714D02*
X1204492Y-1139667D01*
X1223540Y-1130143D01*
X1252111Y-1130143D01*
X1271159Y-1139667D01*
X1280683Y-1158714D01*
X1280683Y-1263476D01*
X1375921Y-1263476D02*
X1375921Y-1130143D01*
X1375921Y-1149190D02*
X1385445Y-1139667D01*
X1404492Y-1130143D01*
X1433064Y-1130143D01*
X1452111Y-1139667D01*
X1461635Y-1158714D01*
X1461635Y-1263476D01*
X1461635Y-1158714D02*
X1471159Y-1139667D01*
X1490207Y-1130143D01*
X1518778Y-1130143D01*
X1537826Y-1139667D01*
X1547349Y-1158714D01*
X1547349Y-1263476D01*
X1937826Y-1053952D02*
X1766397Y-1311095D01*
X2194969Y-1063476D02*
X2214016Y-1063476D01*
X2233064Y-1073000D01*
X2242588Y-1082524D01*
X2252111Y-1101571D01*
X2261635Y-1139667D01*
X2261635Y-1187286D01*
X2252111Y-1225381D01*
X2242588Y-1244429D01*
X2233064Y-1253952D01*
X2214016Y-1263476D01*
X2194969Y-1263476D01*
X2175921Y-1253952D01*
X2166397Y-1244429D01*
X2156873Y-1225381D01*
X2147350Y-1187286D01*
X2147350Y-1139667D01*
X2156873Y-1101571D01*
X2166397Y-1082524D01*
X2175921Y-1073000D01*
X2194969Y-1063476D01*
X2347350Y-1244429D02*
X2356873Y-1253952D01*
X2347350Y-1263476D01*
X2337826Y-1253952D01*
X2347350Y-1244429D01*
X2347350Y-1263476D01*
X2480683Y-1063476D02*
X2499730Y-1063476D01*
X2518778Y-1073000D01*
X2528302Y-1082524D01*
X2537826Y-1101571D01*
X2547350Y-1139667D01*
X2547350Y-1187286D01*
X2537826Y-1225381D01*
X2528302Y-1244429D01*
X2518778Y-1253952D01*
X2499730Y-1263476D01*
X2480683Y-1263476D01*
X2461635Y-1253952D01*
X2452111Y-1244429D01*
X2442588Y-1225381D01*
X2433064Y-1187286D01*
X2433064Y-1139667D01*
X2442588Y-1101571D01*
X2452111Y-1082524D01*
X2461635Y-1073000D01*
X2480683Y-1063476D01*
X2614016Y-1063476D02*
X2737826Y-1063476D01*
X2671159Y-1139667D01*
X2699730Y-1139667D01*
X2718778Y-1149190D01*
X2728302Y-1158714D01*
X2737826Y-1177762D01*
X2737826Y-1225381D01*
X2728302Y-1244429D01*
X2718778Y-1253952D01*
X2699730Y-1263476D01*
X2642588Y-1263476D01*
X2623540Y-1253952D01*
X2614016Y-1244429D01*
X2861635Y-1063476D02*
X2880683Y-1063476D01*
X2899730Y-1073000D01*
X2909254Y-1082524D01*
X2918778Y-1101571D01*
X2928302Y-1139667D01*
X2928302Y-1187286D01*
X2918778Y-1225381D01*
X2909254Y-1244429D01*
X2899730Y-1253952D01*
X2880683Y-1263476D01*
X2861635Y-1263476D01*
X2842588Y-1253952D01*
X2833064Y-1244429D01*
X2823540Y-1225381D01*
X2814016Y-1187286D01*
X2814016Y-1139667D01*
X2823540Y-1101571D01*
X2833064Y-1082524D01*
X2842588Y-1073000D01*
X2861635Y-1063476D01*
X3052111Y-1063476D02*
X3071159Y-1063476D01*
X3090207Y-1073000D01*
X3099730Y-1082524D01*
X3109254Y-1101571D01*
X3118778Y-1139667D01*
X3118778Y-1187286D01*
X3109254Y-1225381D01*
X3099730Y-1244429D01*
X3090207Y-1253952D01*
X3071159Y-1263476D01*
X3052111Y-1263476D01*
X3033064Y-1253952D01*
X3023540Y-1244429D01*
X3014016Y-1225381D01*
X3004492Y-1187286D01*
X3004492Y-1139667D01*
X3014016Y-1101571D01*
X3023540Y-1082524D01*
X3033064Y-1073000D01*
X3052111Y-1063476D01*
X3194968Y-1063476D02*
X3194968Y-1101571D01*
X3271159Y-1063476D02*
X3271159Y-1101571D01*
X3566397Y-1339667D02*
X3556873Y-1330143D01*
X3537826Y-1301571D01*
X3528302Y-1282524D01*
X3518778Y-1253952D01*
X3509254Y-1206333D01*
X3509254Y-1168238D01*
X3518778Y-1120619D01*
X3528302Y-1092048D01*
X3537826Y-1073000D01*
X3556873Y-1044428D01*
X3566397Y-1034905D01*
X3671159Y-1149190D02*
X3652111Y-1139667D01*
X3642588Y-1130143D01*
X3633064Y-1111095D01*
X3633064Y-1101571D01*
X3642588Y-1082524D01*
X3652111Y-1073000D01*
X3671159Y-1063476D01*
X3709254Y-1063476D01*
X3728302Y-1073000D01*
X3737826Y-1082524D01*
X3747349Y-1101571D01*
X3747349Y-1111095D01*
X3737826Y-1130143D01*
X3728302Y-1139667D01*
X3709254Y-1149190D01*
X3671159Y-1149190D01*
X3652111Y-1158714D01*
X3642588Y-1168238D01*
X3633064Y-1187286D01*
X3633064Y-1225381D01*
X3642588Y-1244429D01*
X3652111Y-1253952D01*
X3671159Y-1263476D01*
X3709254Y-1263476D01*
X3728302Y-1253952D01*
X3737826Y-1244429D01*
X3747349Y-1225381D01*
X3747349Y-1187286D01*
X3737826Y-1168238D01*
X3728302Y-1158714D01*
X3709254Y-1149190D01*
X3985445Y-1263476D02*
X3985445Y-1063476D01*
X4071159Y-1263476D02*
X4071159Y-1158714D01*
X4061635Y-1139667D01*
X4042588Y-1130143D01*
X4014016Y-1130143D01*
X3994968Y-1139667D01*
X3985445Y-1149190D01*
X4194969Y-1263476D02*
X4175921Y-1253952D01*
X4166397Y-1244429D01*
X4156873Y-1225381D01*
X4156873Y-1168238D01*
X4166397Y-1149190D01*
X4175921Y-1139667D01*
X4194969Y-1130143D01*
X4223540Y-1130143D01*
X4242588Y-1139667D01*
X4252111Y-1149190D01*
X4261635Y-1168238D01*
X4261635Y-1225381D01*
X4252111Y-1244429D01*
X4242588Y-1253952D01*
X4223540Y-1263476D01*
X4194969Y-1263476D01*
X4375921Y-1263476D02*
X4356873Y-1253952D01*
X4347350Y-1234905D01*
X4347350Y-1063476D01*
X4528302Y-1253952D02*
X4509254Y-1263476D01*
X4471159Y-1263476D01*
X4452111Y-1253952D01*
X4442588Y-1234905D01*
X4442588Y-1158714D01*
X4452111Y-1139667D01*
X4471159Y-1130143D01*
X4509254Y-1130143D01*
X4528302Y-1139667D01*
X4537826Y-1158714D01*
X4537826Y-1177762D01*
X4442588Y-1196810D01*
X4614016Y-1253952D02*
X4633064Y-1263476D01*
X4671159Y-1263476D01*
X4690207Y-1253952D01*
X4699730Y-1234905D01*
X4699730Y-1225381D01*
X4690207Y-1206333D01*
X4671159Y-1196810D01*
X4642588Y-1196810D01*
X4623540Y-1187286D01*
X4614016Y-1168238D01*
X4614016Y-1158714D01*
X4623540Y-1139667D01*
X4642588Y-1130143D01*
X4671159Y-1130143D01*
X4690207Y-1139667D01*
X4766397Y-1339667D02*
X4775921Y-1330143D01*
X4794969Y-1301571D01*
X4804492Y-1282524D01*
X4814016Y-1253952D01*
X4823540Y-1206333D01*
X4823540Y-1168238D01*
X4814016Y-1120619D01*
X4804492Y-1092048D01*
X4794969Y-1073000D01*
X4775921Y-1044428D01*
X4766397Y-1034905D01*
D15*
X-17223Y-1465284D02*
X-17223Y-1408715D01*
X-73792Y-1408715D01*
X-73792Y-1465284D01*
X-17223Y-1465284D01*
D11*
X290207Y-1327476D02*
X309254Y-1327476D01*
X328302Y-1337000D01*
X337826Y-1346524D01*
X347350Y-1365571D01*
X356873Y-1403667D01*
X356873Y-1451286D01*
X347350Y-1489381D01*
X337826Y-1508428D01*
X328302Y-1517952D01*
X309254Y-1527476D01*
X290207Y-1527476D01*
X271159Y-1517952D01*
X261635Y-1508428D01*
X252111Y-1489381D01*
X242588Y-1451286D01*
X242588Y-1403667D01*
X252111Y-1365571D01*
X261635Y-1346524D01*
X271159Y-1337000D01*
X290207Y-1327476D01*
X442588Y-1508428D02*
X452111Y-1517952D01*
X442588Y-1527476D01*
X433064Y-1517952D01*
X442588Y-1508428D01*
X442588Y-1527476D01*
X566397Y-1413190D02*
X547350Y-1403667D01*
X537826Y-1394143D01*
X528302Y-1375095D01*
X528302Y-1365571D01*
X537826Y-1346524D01*
X547350Y-1337000D01*
X566397Y-1327476D01*
X604492Y-1327476D01*
X623540Y-1337000D01*
X633064Y-1346524D01*
X642588Y-1365571D01*
X642588Y-1375095D01*
X633064Y-1394143D01*
X623540Y-1403667D01*
X604492Y-1413190D01*
X566397Y-1413190D01*
X547350Y-1422714D01*
X537826Y-1432238D01*
X528302Y-1451286D01*
X528302Y-1489381D01*
X537826Y-1508428D01*
X547350Y-1517952D01*
X566397Y-1527476D01*
X604492Y-1527476D01*
X623540Y-1517952D01*
X633064Y-1508428D01*
X642588Y-1489381D01*
X642588Y-1451286D01*
X633064Y-1432238D01*
X623540Y-1422714D01*
X604492Y-1413190D01*
X766397Y-1327476D02*
X785445Y-1327476D01*
X804492Y-1337000D01*
X814016Y-1346524D01*
X823540Y-1365571D01*
X833064Y-1403667D01*
X833064Y-1451286D01*
X823540Y-1489381D01*
X814016Y-1508428D01*
X804492Y-1517952D01*
X785445Y-1527476D01*
X766397Y-1527476D01*
X747349Y-1517952D01*
X737826Y-1508428D01*
X728302Y-1489381D01*
X718778Y-1451286D01*
X718778Y-1403667D01*
X728302Y-1365571D01*
X737826Y-1346524D01*
X747349Y-1337000D01*
X766397Y-1327476D01*
X956873Y-1327476D02*
X975921Y-1327476D01*
X994968Y-1337000D01*
X1004492Y-1346524D01*
X1014016Y-1365571D01*
X1023540Y-1403667D01*
X1023540Y-1451286D01*
X1014016Y-1489381D01*
X1004492Y-1508428D01*
X994968Y-1517952D01*
X975921Y-1527476D01*
X956873Y-1527476D01*
X937826Y-1517952D01*
X928302Y-1508428D01*
X918778Y-1489381D01*
X909254Y-1451286D01*
X909254Y-1403667D01*
X918778Y-1365571D01*
X928302Y-1346524D01*
X937826Y-1337000D01*
X956873Y-1327476D01*
X1109254Y-1527476D02*
X1109254Y-1394143D01*
X1109254Y-1413190D02*
X1118778Y-1403667D01*
X1137826Y-1394143D01*
X1166397Y-1394143D01*
X1185445Y-1403667D01*
X1194969Y-1422714D01*
X1194969Y-1527476D01*
X1194969Y-1422714D02*
X1204492Y-1403667D01*
X1223540Y-1394143D01*
X1252111Y-1394143D01*
X1271159Y-1403667D01*
X1280683Y-1422714D01*
X1280683Y-1527476D01*
X1375921Y-1527476D02*
X1375921Y-1394143D01*
X1375921Y-1413190D02*
X1385445Y-1403667D01*
X1404492Y-1394143D01*
X1433064Y-1394143D01*
X1452111Y-1403667D01*
X1461635Y-1422714D01*
X1461635Y-1527476D01*
X1461635Y-1422714D02*
X1471159Y-1403667D01*
X1490207Y-1394143D01*
X1518778Y-1394143D01*
X1537826Y-1403667D01*
X1547349Y-1422714D01*
X1547349Y-1527476D01*
X1937826Y-1317952D02*
X1766397Y-1575095D01*
X2194969Y-1327476D02*
X2214016Y-1327476D01*
X2233064Y-1337000D01*
X2242588Y-1346524D01*
X2252111Y-1365571D01*
X2261635Y-1403667D01*
X2261635Y-1451286D01*
X2252111Y-1489381D01*
X2242588Y-1508428D01*
X2233064Y-1517952D01*
X2214016Y-1527476D01*
X2194969Y-1527476D01*
X2175921Y-1517952D01*
X2166397Y-1508428D01*
X2156873Y-1489381D01*
X2147350Y-1451286D01*
X2147350Y-1403667D01*
X2156873Y-1365571D01*
X2166397Y-1346524D01*
X2175921Y-1337000D01*
X2194969Y-1327476D01*
X2347350Y-1508428D02*
X2356873Y-1517952D01*
X2347350Y-1527476D01*
X2337826Y-1517952D01*
X2347350Y-1508428D01*
X2347350Y-1527476D01*
X2480683Y-1327476D02*
X2499730Y-1327476D01*
X2518778Y-1337000D01*
X2528302Y-1346524D01*
X2537826Y-1365571D01*
X2547350Y-1403667D01*
X2547350Y-1451286D01*
X2537826Y-1489381D01*
X2528302Y-1508428D01*
X2518778Y-1517952D01*
X2499730Y-1527476D01*
X2480683Y-1527476D01*
X2461635Y-1517952D01*
X2452111Y-1508428D01*
X2442588Y-1489381D01*
X2433064Y-1451286D01*
X2433064Y-1403667D01*
X2442588Y-1365571D01*
X2452111Y-1346524D01*
X2461635Y-1337000D01*
X2480683Y-1327476D01*
X2614016Y-1327476D02*
X2737826Y-1327476D01*
X2671159Y-1403667D01*
X2699730Y-1403667D01*
X2718778Y-1413190D01*
X2728302Y-1422714D01*
X2737826Y-1441762D01*
X2737826Y-1489381D01*
X2728302Y-1508428D01*
X2718778Y-1517952D01*
X2699730Y-1527476D01*
X2642588Y-1527476D01*
X2623540Y-1517952D01*
X2614016Y-1508428D01*
X2928302Y-1527476D02*
X2814016Y-1527476D01*
X2871159Y-1527476D02*
X2871159Y-1327476D01*
X2852111Y-1356048D01*
X2833064Y-1375095D01*
X2814016Y-1384619D01*
X3109254Y-1327476D02*
X3014016Y-1327476D01*
X3004492Y-1422714D01*
X3014016Y-1413190D01*
X3033064Y-1403667D01*
X3080683Y-1403667D01*
X3099730Y-1413190D01*
X3109254Y-1422714D01*
X3118778Y-1441762D01*
X3118778Y-1489381D01*
X3109254Y-1508428D01*
X3099730Y-1517952D01*
X3080683Y-1527476D01*
X3033064Y-1527476D01*
X3014016Y-1517952D01*
X3004492Y-1508428D01*
X3194968Y-1327476D02*
X3194968Y-1365571D01*
X3271159Y-1327476D02*
X3271159Y-1365571D01*
X3566397Y-1603667D02*
X3556873Y-1594143D01*
X3537826Y-1565571D01*
X3528302Y-1546524D01*
X3518778Y-1517952D01*
X3509254Y-1470333D01*
X3509254Y-1432238D01*
X3518778Y-1384619D01*
X3528302Y-1356048D01*
X3537826Y-1337000D01*
X3556873Y-1308429D01*
X3566397Y-1298905D01*
X3747349Y-1527476D02*
X3633064Y-1527476D01*
X3690207Y-1527476D02*
X3690207Y-1327476D01*
X3671159Y-1356048D01*
X3652111Y-1375095D01*
X3633064Y-1384619D01*
X3823540Y-1346524D02*
X3833064Y-1337000D01*
X3852111Y-1327476D01*
X3899730Y-1327476D01*
X3918778Y-1337000D01*
X3928302Y-1346524D01*
X3937826Y-1365571D01*
X3937826Y-1384619D01*
X3928302Y-1413190D01*
X3814016Y-1527476D01*
X3937826Y-1527476D01*
X4061635Y-1327476D02*
X4080683Y-1327476D01*
X4099730Y-1337000D01*
X4109254Y-1346524D01*
X4118778Y-1365571D01*
X4128302Y-1403667D01*
X4128302Y-1451286D01*
X4118778Y-1489381D01*
X4109254Y-1508428D01*
X4099730Y-1517952D01*
X4080683Y-1527476D01*
X4061635Y-1527476D01*
X4042588Y-1517952D01*
X4033064Y-1508428D01*
X4023540Y-1489381D01*
X4014016Y-1451286D01*
X4014016Y-1403667D01*
X4023540Y-1365571D01*
X4033064Y-1346524D01*
X4042588Y-1337000D01*
X4061635Y-1327476D01*
X4366397Y-1527476D02*
X4366397Y-1327476D01*
X4452111Y-1527476D02*
X4452111Y-1422714D01*
X4442588Y-1403667D01*
X4423540Y-1394143D01*
X4394969Y-1394143D01*
X4375921Y-1403667D01*
X4366397Y-1413190D01*
X4575921Y-1527476D02*
X4556873Y-1517952D01*
X4547350Y-1508428D01*
X4537826Y-1489381D01*
X4537826Y-1432238D01*
X4547350Y-1413190D01*
X4556873Y-1403667D01*
X4575921Y-1394143D01*
X4604492Y-1394143D01*
X4623540Y-1403667D01*
X4633064Y-1413190D01*
X4642588Y-1432238D01*
X4642588Y-1489381D01*
X4633064Y-1508428D01*
X4623540Y-1517952D01*
X4604492Y-1527476D01*
X4575921Y-1527476D01*
X4756873Y-1527476D02*
X4737826Y-1517952D01*
X4728302Y-1498905D01*
X4728302Y-1327476D01*
X4909254Y-1517952D02*
X4890207Y-1527476D01*
X4852111Y-1527476D01*
X4833064Y-1517952D01*
X4823540Y-1498905D01*
X4823540Y-1422714D01*
X4833064Y-1403667D01*
X4852111Y-1394143D01*
X4890207Y-1394143D01*
X4909254Y-1403667D01*
X4918778Y-1422714D01*
X4918778Y-1441762D01*
X4823540Y-1460809D01*
X4994969Y-1517952D02*
X5014016Y-1527476D01*
X5052111Y-1527476D01*
X5071159Y-1517952D01*
X5080683Y-1498905D01*
X5080683Y-1489381D01*
X5071159Y-1470333D01*
X5052111Y-1460809D01*
X5023540Y-1460809D01*
X5004492Y-1451286D01*
X4994969Y-1432238D01*
X4994969Y-1422714D01*
X5004492Y-1403667D01*
X5023540Y-1394143D01*
X5052111Y-1394143D01*
X5071159Y-1403667D01*
X5147350Y-1603667D02*
X5156873Y-1594143D01*
X5175921Y-1565571D01*
X5185445Y-1546524D01*
X5194969Y-1517952D01*
X5204492Y-1470333D01*
X5204492Y-1432238D01*
X5194969Y-1384619D01*
X5185445Y-1356048D01*
X5175921Y-1337000D01*
X5156873Y-1308429D01*
X5147350Y-1298905D01*
D16*
X-55508Y-1751000D02*
X-5508Y-1701000D01*
X-55508Y-1651000D01*
X-105508Y-1701000D01*
X-55508Y-1751000D01*
D11*
X356873Y-1791476D02*
X242588Y-1791476D01*
X299730Y-1791476D02*
X299730Y-1591476D01*
X280683Y-1620048D01*
X261635Y-1639095D01*
X242588Y-1648619D01*
X442588Y-1772428D02*
X452111Y-1781952D01*
X442588Y-1791476D01*
X433064Y-1781952D01*
X442588Y-1772428D01*
X442588Y-1791476D01*
X575921Y-1591476D02*
X594969Y-1591476D01*
X614016Y-1601000D01*
X623540Y-1610524D01*
X633064Y-1629571D01*
X642588Y-1667667D01*
X642588Y-1715286D01*
X633064Y-1753381D01*
X623540Y-1772428D01*
X614016Y-1781952D01*
X594969Y-1791476D01*
X575921Y-1791476D01*
X556873Y-1781952D01*
X547350Y-1772428D01*
X537826Y-1753381D01*
X528302Y-1715286D01*
X528302Y-1667667D01*
X537826Y-1629571D01*
X547350Y-1610524D01*
X556873Y-1601000D01*
X575921Y-1591476D01*
X766397Y-1591476D02*
X785445Y-1591476D01*
X804492Y-1601000D01*
X814016Y-1610524D01*
X823540Y-1629571D01*
X833064Y-1667667D01*
X833064Y-1715286D01*
X823540Y-1753381D01*
X814016Y-1772428D01*
X804492Y-1781952D01*
X785445Y-1791476D01*
X766397Y-1791476D01*
X747349Y-1781952D01*
X737826Y-1772428D01*
X728302Y-1753381D01*
X718778Y-1715286D01*
X718778Y-1667667D01*
X728302Y-1629571D01*
X737826Y-1610524D01*
X747349Y-1601000D01*
X766397Y-1591476D01*
X956873Y-1591476D02*
X975921Y-1591476D01*
X994968Y-1601000D01*
X1004492Y-1610524D01*
X1014016Y-1629571D01*
X1023540Y-1667667D01*
X1023540Y-1715286D01*
X1014016Y-1753381D01*
X1004492Y-1772428D01*
X994968Y-1781952D01*
X975921Y-1791476D01*
X956873Y-1791476D01*
X937826Y-1781952D01*
X928302Y-1772428D01*
X918778Y-1753381D01*
X909254Y-1715286D01*
X909254Y-1667667D01*
X918778Y-1629571D01*
X928302Y-1610524D01*
X937826Y-1601000D01*
X956873Y-1591476D01*
X1109254Y-1791476D02*
X1109254Y-1658143D01*
X1109254Y-1677190D02*
X1118778Y-1667667D01*
X1137826Y-1658143D01*
X1166397Y-1658143D01*
X1185445Y-1667667D01*
X1194969Y-1686714D01*
X1194969Y-1791476D01*
X1194969Y-1686714D02*
X1204492Y-1667667D01*
X1223540Y-1658143D01*
X1252111Y-1658143D01*
X1271159Y-1667667D01*
X1280683Y-1686714D01*
X1280683Y-1791476D01*
X1375921Y-1791476D02*
X1375921Y-1658143D01*
X1375921Y-1677190D02*
X1385445Y-1667667D01*
X1404492Y-1658143D01*
X1433064Y-1658143D01*
X1452111Y-1667667D01*
X1461635Y-1686714D01*
X1461635Y-1791476D01*
X1461635Y-1686714D02*
X1471159Y-1667667D01*
X1490207Y-1658143D01*
X1518778Y-1658143D01*
X1537826Y-1667667D01*
X1547349Y-1686714D01*
X1547349Y-1791476D01*
X1937826Y-1581952D02*
X1766397Y-1839095D01*
X2194969Y-1591476D02*
X2214016Y-1591476D01*
X2233064Y-1601000D01*
X2242588Y-1610524D01*
X2252111Y-1629571D01*
X2261635Y-1667667D01*
X2261635Y-1715286D01*
X2252111Y-1753381D01*
X2242588Y-1772428D01*
X2233064Y-1781952D01*
X2214016Y-1791476D01*
X2194969Y-1791476D01*
X2175921Y-1781952D01*
X2166397Y-1772428D01*
X2156873Y-1753381D01*
X2147350Y-1715286D01*
X2147350Y-1667667D01*
X2156873Y-1629571D01*
X2166397Y-1610524D01*
X2175921Y-1601000D01*
X2194969Y-1591476D01*
X2347350Y-1772428D02*
X2356873Y-1781952D01*
X2347350Y-1791476D01*
X2337826Y-1781952D01*
X2347350Y-1772428D01*
X2347350Y-1791476D01*
X2480683Y-1591476D02*
X2499730Y-1591476D01*
X2518778Y-1601000D01*
X2528302Y-1610524D01*
X2537826Y-1629571D01*
X2547350Y-1667667D01*
X2547350Y-1715286D01*
X2537826Y-1753381D01*
X2528302Y-1772428D01*
X2518778Y-1781952D01*
X2499730Y-1791476D01*
X2480683Y-1791476D01*
X2461635Y-1781952D01*
X2452111Y-1772428D01*
X2442588Y-1753381D01*
X2433064Y-1715286D01*
X2433064Y-1667667D01*
X2442588Y-1629571D01*
X2452111Y-1610524D01*
X2461635Y-1601000D01*
X2480683Y-1591476D01*
X2614016Y-1591476D02*
X2737826Y-1591476D01*
X2671159Y-1667667D01*
X2699730Y-1667667D01*
X2718778Y-1677190D01*
X2728302Y-1686714D01*
X2737826Y-1705762D01*
X2737826Y-1753381D01*
X2728302Y-1772428D01*
X2718778Y-1781952D01*
X2699730Y-1791476D01*
X2642588Y-1791476D01*
X2623540Y-1781952D01*
X2614016Y-1772428D01*
X2833064Y-1791476D02*
X2871159Y-1791476D01*
X2890207Y-1781952D01*
X2899730Y-1772428D01*
X2918778Y-1743857D01*
X2928302Y-1705762D01*
X2928302Y-1629571D01*
X2918778Y-1610524D01*
X2909254Y-1601000D01*
X2890207Y-1591476D01*
X2852111Y-1591476D01*
X2833064Y-1601000D01*
X2823540Y-1610524D01*
X2814016Y-1629571D01*
X2814016Y-1677190D01*
X2823540Y-1696238D01*
X2833064Y-1705762D01*
X2852111Y-1715286D01*
X2890207Y-1715286D01*
X2909254Y-1705762D01*
X2918778Y-1696238D01*
X2928302Y-1677190D01*
X3099730Y-1658143D02*
X3099730Y-1791476D01*
X3052111Y-1581952D02*
X3004492Y-1724809D01*
X3128302Y-1724809D01*
X3194968Y-1591476D02*
X3194968Y-1629571D01*
X3271159Y-1591476D02*
X3271159Y-1629571D01*
X3566397Y-1867667D02*
X3556873Y-1858143D01*
X3537826Y-1829571D01*
X3528302Y-1810524D01*
X3518778Y-1781952D01*
X3509254Y-1734333D01*
X3509254Y-1696238D01*
X3518778Y-1648619D01*
X3528302Y-1620048D01*
X3537826Y-1601000D01*
X3556873Y-1572428D01*
X3566397Y-1562905D01*
X3747349Y-1791476D02*
X3633064Y-1791476D01*
X3690207Y-1791476D02*
X3690207Y-1591476D01*
X3671159Y-1620048D01*
X3652111Y-1639095D01*
X3633064Y-1648619D01*
X3814016Y-1591476D02*
X3937826Y-1591476D01*
X3871159Y-1667667D01*
X3899730Y-1667667D01*
X3918778Y-1677190D01*
X3928302Y-1686714D01*
X3937826Y-1705762D01*
X3937826Y-1753381D01*
X3928302Y-1772428D01*
X3918778Y-1781952D01*
X3899730Y-1791476D01*
X3842588Y-1791476D01*
X3823540Y-1781952D01*
X3814016Y-1772428D01*
X4033064Y-1791476D02*
X4071159Y-1791476D01*
X4090207Y-1781952D01*
X4099730Y-1772428D01*
X4118778Y-1743857D01*
X4128302Y-1705762D01*
X4128302Y-1629571D01*
X4118778Y-1610524D01*
X4109254Y-1601000D01*
X4090207Y-1591476D01*
X4052111Y-1591476D01*
X4033064Y-1601000D01*
X4023540Y-1610524D01*
X4014016Y-1629571D01*
X4014016Y-1677190D01*
X4023540Y-1696238D01*
X4033064Y-1705762D01*
X4052111Y-1715286D01*
X4090207Y-1715286D01*
X4109254Y-1705762D01*
X4118778Y-1696238D01*
X4128302Y-1677190D01*
X4366397Y-1791476D02*
X4366397Y-1591476D01*
X4452111Y-1791476D02*
X4452111Y-1686714D01*
X4442588Y-1667667D01*
X4423540Y-1658143D01*
X4394969Y-1658143D01*
X4375921Y-1667667D01*
X4366397Y-1677190D01*
X4575921Y-1791476D02*
X4556873Y-1781952D01*
X4547350Y-1772428D01*
X4537826Y-1753381D01*
X4537826Y-1696238D01*
X4547350Y-1677190D01*
X4556873Y-1667667D01*
X4575921Y-1658143D01*
X4604492Y-1658143D01*
X4623540Y-1667667D01*
X4633064Y-1677190D01*
X4642588Y-1696238D01*
X4642588Y-1753381D01*
X4633064Y-1772428D01*
X4623540Y-1781952D01*
X4604492Y-1791476D01*
X4575921Y-1791476D01*
X4756873Y-1791476D02*
X4737826Y-1781952D01*
X4728302Y-1762905D01*
X4728302Y-1591476D01*
X4909254Y-1781952D02*
X4890207Y-1791476D01*
X4852111Y-1791476D01*
X4833064Y-1781952D01*
X4823540Y-1762905D01*
X4823540Y-1686714D01*
X4833064Y-1667667D01*
X4852111Y-1658143D01*
X4890207Y-1658143D01*
X4909254Y-1667667D01*
X4918778Y-1686714D01*
X4918778Y-1705762D01*
X4823540Y-1724809D01*
X4994969Y-1781952D02*
X5014016Y-1791476D01*
X5052111Y-1791476D01*
X5071159Y-1781952D01*
X5080683Y-1762905D01*
X5080683Y-1753381D01*
X5071159Y-1734333D01*
X5052111Y-1724809D01*
X5023540Y-1724809D01*
X5004492Y-1715286D01*
X4994969Y-1696238D01*
X4994969Y-1686714D01*
X5004492Y-1667667D01*
X5023540Y-1658143D01*
X5052111Y-1658143D01*
X5071159Y-1667667D01*
X5147350Y-1867667D02*
X5156873Y-1858143D01*
X5175921Y-1829571D01*
X5185445Y-1810524D01*
X5194969Y-1781952D01*
X5204492Y-1734333D01*
X5204492Y-1696238D01*
X5194969Y-1648619D01*
X5185445Y-1620048D01*
X5175921Y-1601000D01*
X5156873Y-1572428D01*
X5147350Y-1562905D01*
D17*
X-115508Y-1910000D02*
X-5508Y-2020000D01*
X-5508Y-1910000D02*
X-115508Y-2020000D01*
X-5508Y-1965000D02*
G75*
G03*
X-5508Y-1965000I-55000J0D01*
G01*
D11*
X356873Y-2055476D02*
X242588Y-2055476D01*
X299730Y-2055476D02*
X299730Y-1855476D01*
X280683Y-1884048D01*
X261635Y-1903095D01*
X242588Y-1912619D01*
X442588Y-2036428D02*
X452111Y-2045952D01*
X442588Y-2055476D01*
X433064Y-2045952D01*
X442588Y-2036428D01*
X442588Y-2055476D01*
X642588Y-2055476D02*
X528302Y-2055476D01*
X585445Y-2055476D02*
X585445Y-1855476D01*
X566397Y-1884048D01*
X547350Y-1903095D01*
X528302Y-1912619D01*
X766397Y-1855476D02*
X785445Y-1855476D01*
X804492Y-1865000D01*
X814016Y-1874524D01*
X823540Y-1893571D01*
X833064Y-1931667D01*
X833064Y-1979286D01*
X823540Y-2017381D01*
X814016Y-2036428D01*
X804492Y-2045952D01*
X785445Y-2055476D01*
X766397Y-2055476D01*
X747349Y-2045952D01*
X737826Y-2036428D01*
X728302Y-2017381D01*
X718778Y-1979286D01*
X718778Y-1931667D01*
X728302Y-1893571D01*
X737826Y-1874524D01*
X747349Y-1865000D01*
X766397Y-1855476D01*
X956873Y-1855476D02*
X975921Y-1855476D01*
X994968Y-1865000D01*
X1004492Y-1874524D01*
X1014016Y-1893571D01*
X1023540Y-1931667D01*
X1023540Y-1979286D01*
X1014016Y-2017381D01*
X1004492Y-2036428D01*
X994968Y-2045952D01*
X975921Y-2055476D01*
X956873Y-2055476D01*
X937826Y-2045952D01*
X928302Y-2036428D01*
X918778Y-2017381D01*
X909254Y-1979286D01*
X909254Y-1931667D01*
X918778Y-1893571D01*
X928302Y-1874524D01*
X937826Y-1865000D01*
X956873Y-1855476D01*
X1109254Y-2055476D02*
X1109254Y-1922143D01*
X1109254Y-1941190D02*
X1118778Y-1931667D01*
X1137826Y-1922143D01*
X1166397Y-1922143D01*
X1185445Y-1931667D01*
X1194969Y-1950714D01*
X1194969Y-2055476D01*
X1194969Y-1950714D02*
X1204492Y-1931667D01*
X1223540Y-1922143D01*
X1252111Y-1922143D01*
X1271159Y-1931667D01*
X1280683Y-1950714D01*
X1280683Y-2055476D01*
X1375921Y-2055476D02*
X1375921Y-1922143D01*
X1375921Y-1941190D02*
X1385445Y-1931667D01*
X1404492Y-1922143D01*
X1433064Y-1922143D01*
X1452111Y-1931667D01*
X1461635Y-1950714D01*
X1461635Y-2055476D01*
X1461635Y-1950714D02*
X1471159Y-1931667D01*
X1490207Y-1922143D01*
X1518778Y-1922143D01*
X1537826Y-1931667D01*
X1547349Y-1950714D01*
X1547349Y-2055476D01*
X1937826Y-1845952D02*
X1766397Y-2103095D01*
X2194969Y-1855476D02*
X2214016Y-1855476D01*
X2233064Y-1865000D01*
X2242588Y-1874524D01*
X2252111Y-1893571D01*
X2261635Y-1931667D01*
X2261635Y-1979286D01*
X2252111Y-2017381D01*
X2242588Y-2036428D01*
X2233064Y-2045952D01*
X2214016Y-2055476D01*
X2194969Y-2055476D01*
X2175921Y-2045952D01*
X2166397Y-2036428D01*
X2156873Y-2017381D01*
X2147350Y-1979286D01*
X2147350Y-1931667D01*
X2156873Y-1893571D01*
X2166397Y-1874524D01*
X2175921Y-1865000D01*
X2194969Y-1855476D01*
X2347350Y-2036428D02*
X2356873Y-2045952D01*
X2347350Y-2055476D01*
X2337826Y-2045952D01*
X2347350Y-2036428D01*
X2347350Y-2055476D01*
X2480683Y-1855476D02*
X2499730Y-1855476D01*
X2518778Y-1865000D01*
X2528302Y-1874524D01*
X2537826Y-1893571D01*
X2547350Y-1931667D01*
X2547350Y-1979286D01*
X2537826Y-2017381D01*
X2528302Y-2036428D01*
X2518778Y-2045952D01*
X2499730Y-2055476D01*
X2480683Y-2055476D01*
X2461635Y-2045952D01*
X2452111Y-2036428D01*
X2442588Y-2017381D01*
X2433064Y-1979286D01*
X2433064Y-1931667D01*
X2442588Y-1893571D01*
X2452111Y-1874524D01*
X2461635Y-1865000D01*
X2480683Y-1855476D01*
X2718778Y-1922143D02*
X2718778Y-2055476D01*
X2671159Y-1845952D02*
X2623540Y-1988809D01*
X2747350Y-1988809D01*
X2804492Y-1855476D02*
X2928302Y-1855476D01*
X2861635Y-1931667D01*
X2890207Y-1931667D01*
X2909254Y-1941190D01*
X2918778Y-1950714D01*
X2928302Y-1969762D01*
X2928302Y-2017381D01*
X2918778Y-2036428D01*
X2909254Y-2045952D01*
X2890207Y-2055476D01*
X2833064Y-2055476D01*
X2814016Y-2045952D01*
X2804492Y-2036428D01*
X2994968Y-1855476D02*
X3118778Y-1855476D01*
X3052111Y-1931667D01*
X3080683Y-1931667D01*
X3099730Y-1941190D01*
X3109254Y-1950714D01*
X3118778Y-1969762D01*
X3118778Y-2017381D01*
X3109254Y-2036428D01*
X3099730Y-2045952D01*
X3080683Y-2055476D01*
X3023540Y-2055476D01*
X3004492Y-2045952D01*
X2994968Y-2036428D01*
X3194968Y-1855476D02*
X3194968Y-1893571D01*
X3271159Y-1855476D02*
X3271159Y-1893571D01*
X3566397Y-2131667D02*
X3556873Y-2122143D01*
X3537826Y-2093571D01*
X3528302Y-2074524D01*
X3518778Y-2045952D01*
X3509254Y-1998333D01*
X3509254Y-1960238D01*
X3518778Y-1912619D01*
X3528302Y-1884048D01*
X3537826Y-1865000D01*
X3556873Y-1836428D01*
X3566397Y-1826905D01*
X3728302Y-1922143D02*
X3728302Y-2055476D01*
X3680683Y-1845952D02*
X3633064Y-1988809D01*
X3756873Y-1988809D01*
X3985445Y-2055476D02*
X3985445Y-1855476D01*
X4071159Y-2055476D02*
X4071159Y-1950714D01*
X4061635Y-1931667D01*
X4042588Y-1922143D01*
X4014016Y-1922143D01*
X3994968Y-1931667D01*
X3985445Y-1941190D01*
X4194969Y-2055476D02*
X4175921Y-2045952D01*
X4166397Y-2036428D01*
X4156873Y-2017381D01*
X4156873Y-1960238D01*
X4166397Y-1941190D01*
X4175921Y-1931667D01*
X4194969Y-1922143D01*
X4223540Y-1922143D01*
X4242588Y-1931667D01*
X4252111Y-1941190D01*
X4261635Y-1960238D01*
X4261635Y-2017381D01*
X4252111Y-2036428D01*
X4242588Y-2045952D01*
X4223540Y-2055476D01*
X4194969Y-2055476D01*
X4375921Y-2055476D02*
X4356873Y-2045952D01*
X4347350Y-2026905D01*
X4347350Y-1855476D01*
X4528302Y-2045952D02*
X4509254Y-2055476D01*
X4471159Y-2055476D01*
X4452111Y-2045952D01*
X4442588Y-2026905D01*
X4442588Y-1950714D01*
X4452111Y-1931667D01*
X4471159Y-1922143D01*
X4509254Y-1922143D01*
X4528302Y-1931667D01*
X4537826Y-1950714D01*
X4537826Y-1969762D01*
X4442588Y-1988809D01*
X4614016Y-2045952D02*
X4633064Y-2055476D01*
X4671159Y-2055476D01*
X4690207Y-2045952D01*
X4699730Y-2026905D01*
X4699730Y-2017381D01*
X4690207Y-1998333D01*
X4671159Y-1988809D01*
X4642588Y-1988809D01*
X4623540Y-1979286D01*
X4614016Y-1960238D01*
X4614016Y-1950714D01*
X4623540Y-1931667D01*
X4642588Y-1922143D01*
X4671159Y-1922143D01*
X4690207Y-1931667D01*
X4766397Y-2131667D02*
X4775921Y-2122143D01*
X4794969Y-2093571D01*
X4804492Y-2074524D01*
X4814016Y-2045952D01*
X4823540Y-1998333D01*
X4823540Y-1960238D01*
X4814016Y-1912619D01*
X4804492Y-1884048D01*
X4794969Y-1865000D01*
X4775921Y-1836428D01*
X4766397Y-1826905D01*
D18*
X-155508Y-2154000D02*
X-5508Y-2304000D01*
X-5508Y-2154000D02*
X-155508Y-2304000D01*
X-80508Y-2154000D02*
X-80508Y-2304000D01*
X-155508Y-2229000D02*
X-5508Y-2229000D01*
D11*
X356873Y-2319476D02*
X242588Y-2319476D01*
X299730Y-2319476D02*
X299730Y-2119476D01*
X280683Y-2148048D01*
X261635Y-2167095D01*
X242588Y-2176619D01*
X442588Y-2300429D02*
X452111Y-2309952D01*
X442588Y-2319476D01*
X433064Y-2309952D01*
X442588Y-2300429D01*
X442588Y-2319476D01*
X633064Y-2119476D02*
X537826Y-2119476D01*
X528302Y-2214714D01*
X537826Y-2205190D01*
X556873Y-2195667D01*
X604492Y-2195667D01*
X623540Y-2205190D01*
X633064Y-2214714D01*
X642588Y-2233762D01*
X642588Y-2281381D01*
X633064Y-2300429D01*
X623540Y-2309952D01*
X604492Y-2319476D01*
X556873Y-2319476D01*
X537826Y-2309952D01*
X528302Y-2300429D01*
X766397Y-2119476D02*
X785445Y-2119476D01*
X804492Y-2129000D01*
X814016Y-2138524D01*
X823540Y-2157571D01*
X833064Y-2195667D01*
X833064Y-2243286D01*
X823540Y-2281381D01*
X814016Y-2300429D01*
X804492Y-2309952D01*
X785445Y-2319476D01*
X766397Y-2319476D01*
X747349Y-2309952D01*
X737826Y-2300429D01*
X728302Y-2281381D01*
X718778Y-2243286D01*
X718778Y-2195667D01*
X728302Y-2157571D01*
X737826Y-2138524D01*
X747349Y-2129000D01*
X766397Y-2119476D01*
X956873Y-2119476D02*
X975921Y-2119476D01*
X994968Y-2129000D01*
X1004492Y-2138524D01*
X1014016Y-2157571D01*
X1023540Y-2195667D01*
X1023540Y-2243286D01*
X1014016Y-2281381D01*
X1004492Y-2300429D01*
X994968Y-2309952D01*
X975921Y-2319476D01*
X956873Y-2319476D01*
X937826Y-2309952D01*
X928302Y-2300429D01*
X918778Y-2281381D01*
X909254Y-2243286D01*
X909254Y-2195667D01*
X918778Y-2157571D01*
X928302Y-2138524D01*
X937826Y-2129000D01*
X956873Y-2119476D01*
X1109254Y-2319476D02*
X1109254Y-2186143D01*
X1109254Y-2205190D02*
X1118778Y-2195667D01*
X1137826Y-2186143D01*
X1166397Y-2186143D01*
X1185445Y-2195667D01*
X1194969Y-2214714D01*
X1194969Y-2319476D01*
X1194969Y-2214714D02*
X1204492Y-2195667D01*
X1223540Y-2186143D01*
X1252111Y-2186143D01*
X1271159Y-2195667D01*
X1280683Y-2214714D01*
X1280683Y-2319476D01*
X1375921Y-2319476D02*
X1375921Y-2186143D01*
X1375921Y-2205190D02*
X1385445Y-2195667D01*
X1404492Y-2186143D01*
X1433064Y-2186143D01*
X1452111Y-2195667D01*
X1461635Y-2214714D01*
X1461635Y-2319476D01*
X1461635Y-2214714D02*
X1471159Y-2195667D01*
X1490207Y-2186143D01*
X1518778Y-2186143D01*
X1537826Y-2195667D01*
X1547349Y-2214714D01*
X1547349Y-2319476D01*
X1937826Y-2109952D02*
X1766397Y-2367095D01*
X2194969Y-2119476D02*
X2214016Y-2119476D01*
X2233064Y-2129000D01*
X2242588Y-2138524D01*
X2252111Y-2157571D01*
X2261635Y-2195667D01*
X2261635Y-2243286D01*
X2252111Y-2281381D01*
X2242588Y-2300429D01*
X2233064Y-2309952D01*
X2214016Y-2319476D01*
X2194969Y-2319476D01*
X2175921Y-2309952D01*
X2166397Y-2300429D01*
X2156873Y-2281381D01*
X2147350Y-2243286D01*
X2147350Y-2195667D01*
X2156873Y-2157571D01*
X2166397Y-2138524D01*
X2175921Y-2129000D01*
X2194969Y-2119476D01*
X2347350Y-2300429D02*
X2356873Y-2309952D01*
X2347350Y-2319476D01*
X2337826Y-2309952D01*
X2347350Y-2300429D01*
X2347350Y-2319476D01*
X2480683Y-2119476D02*
X2499730Y-2119476D01*
X2518778Y-2129000D01*
X2528302Y-2138524D01*
X2537826Y-2157571D01*
X2547350Y-2195667D01*
X2547350Y-2243286D01*
X2537826Y-2281381D01*
X2528302Y-2300429D01*
X2518778Y-2309952D01*
X2499730Y-2319476D01*
X2480683Y-2319476D01*
X2461635Y-2309952D01*
X2452111Y-2300429D01*
X2442588Y-2281381D01*
X2433064Y-2243286D01*
X2433064Y-2195667D01*
X2442588Y-2157571D01*
X2452111Y-2138524D01*
X2461635Y-2129000D01*
X2480683Y-2119476D01*
X2728302Y-2119476D02*
X2633064Y-2119476D01*
X2623540Y-2214714D01*
X2633064Y-2205190D01*
X2652111Y-2195667D01*
X2699730Y-2195667D01*
X2718778Y-2205190D01*
X2728302Y-2214714D01*
X2737826Y-2233762D01*
X2737826Y-2281381D01*
X2728302Y-2300429D01*
X2718778Y-2309952D01*
X2699730Y-2319476D01*
X2652111Y-2319476D01*
X2633064Y-2309952D01*
X2623540Y-2300429D01*
X2833064Y-2319476D02*
X2871159Y-2319476D01*
X2890207Y-2309952D01*
X2899730Y-2300429D01*
X2918778Y-2271857D01*
X2928302Y-2233762D01*
X2928302Y-2157571D01*
X2918778Y-2138524D01*
X2909254Y-2129000D01*
X2890207Y-2119476D01*
X2852111Y-2119476D01*
X2833064Y-2129000D01*
X2823540Y-2138524D01*
X2814016Y-2157571D01*
X2814016Y-2205190D01*
X2823540Y-2224238D01*
X2833064Y-2233762D01*
X2852111Y-2243286D01*
X2890207Y-2243286D01*
X2909254Y-2233762D01*
X2918778Y-2224238D01*
X2928302Y-2205190D01*
X3118778Y-2319476D02*
X3004492Y-2319476D01*
X3061635Y-2319476D02*
X3061635Y-2119476D01*
X3042588Y-2148048D01*
X3023540Y-2167095D01*
X3004492Y-2176619D01*
X3194968Y-2119476D02*
X3194968Y-2157571D01*
X3271159Y-2119476D02*
X3271159Y-2157571D01*
X3566397Y-2395667D02*
X3556873Y-2386143D01*
X3537826Y-2357571D01*
X3528302Y-2338524D01*
X3518778Y-2309952D01*
X3509254Y-2262333D01*
X3509254Y-2224238D01*
X3518778Y-2176619D01*
X3528302Y-2148048D01*
X3537826Y-2129000D01*
X3556873Y-2100429D01*
X3566397Y-2090905D01*
X3623540Y-2119476D02*
X3756873Y-2119476D01*
X3671159Y-2319476D01*
X3985445Y-2319476D02*
X3985445Y-2119476D01*
X4071159Y-2319476D02*
X4071159Y-2214714D01*
X4061635Y-2195667D01*
X4042588Y-2186143D01*
X4014016Y-2186143D01*
X3994968Y-2195667D01*
X3985445Y-2205190D01*
X4194969Y-2319476D02*
X4175921Y-2309952D01*
X4166397Y-2300429D01*
X4156873Y-2281381D01*
X4156873Y-2224238D01*
X4166397Y-2205190D01*
X4175921Y-2195667D01*
X4194969Y-2186143D01*
X4223540Y-2186143D01*
X4242588Y-2195667D01*
X4252111Y-2205190D01*
X4261635Y-2224238D01*
X4261635Y-2281381D01*
X4252111Y-2300429D01*
X4242588Y-2309952D01*
X4223540Y-2319476D01*
X4194969Y-2319476D01*
X4375921Y-2319476D02*
X4356873Y-2309952D01*
X4347350Y-2290905D01*
X4347350Y-2119476D01*
X4528302Y-2309952D02*
X4509254Y-2319476D01*
X4471159Y-2319476D01*
X4452111Y-2309952D01*
X4442588Y-2290905D01*
X4442588Y-2214714D01*
X4452111Y-2195667D01*
X4471159Y-2186143D01*
X4509254Y-2186143D01*
X4528302Y-2195667D01*
X4537826Y-2214714D01*
X4537826Y-2233762D01*
X4442588Y-2252810D01*
X4614016Y-2309952D02*
X4633064Y-2319476D01*
X4671159Y-2319476D01*
X4690207Y-2309952D01*
X4699730Y-2290905D01*
X4699730Y-2281381D01*
X4690207Y-2262333D01*
X4671159Y-2252810D01*
X4642588Y-2252810D01*
X4623540Y-2243286D01*
X4614016Y-2224238D01*
X4614016Y-2214714D01*
X4623540Y-2195667D01*
X4642588Y-2186143D01*
X4671159Y-2186143D01*
X4690207Y-2195667D01*
X4766397Y-2395667D02*
X4775921Y-2386143D01*
X4794969Y-2357571D01*
X4804492Y-2338524D01*
X4814016Y-2309952D01*
X4823540Y-2262333D01*
X4823540Y-2224238D01*
X4814016Y-2176619D01*
X4804492Y-2148048D01*
X4794969Y-2129000D01*
X4775921Y-2100429D01*
X4766397Y-2090905D01*
X-205508Y-2399000D02*
X-5508Y-2599000D01*
X-5508Y-2399000D02*
X-205508Y-2599000D01*
X-34796Y-2569711D02*
X-34796Y-2428289D01*
X-176219Y-2428289D01*
X-176219Y-2569711D01*
X-34796Y-2569711D01*
X233064Y-2389476D02*
X356873Y-2389476D01*
X290207Y-2465667D01*
X318778Y-2465667D01*
X337826Y-2475190D01*
X347350Y-2484714D01*
X356873Y-2503762D01*
X356873Y-2551381D01*
X347350Y-2570429D01*
X337826Y-2579952D01*
X318778Y-2589476D01*
X261635Y-2589476D01*
X242588Y-2579952D01*
X233064Y-2570429D01*
X442588Y-2570429D02*
X452111Y-2579952D01*
X442588Y-2589476D01*
X433064Y-2579952D01*
X442588Y-2570429D01*
X442588Y-2589476D01*
X575921Y-2389476D02*
X594969Y-2389476D01*
X614016Y-2399000D01*
X623540Y-2408524D01*
X633064Y-2427571D01*
X642588Y-2465667D01*
X642588Y-2513286D01*
X633064Y-2551381D01*
X623540Y-2570429D01*
X614016Y-2579952D01*
X594969Y-2589476D01*
X575921Y-2589476D01*
X556873Y-2579952D01*
X547350Y-2570429D01*
X537826Y-2551381D01*
X528302Y-2513286D01*
X528302Y-2465667D01*
X537826Y-2427571D01*
X547350Y-2408524D01*
X556873Y-2399000D01*
X575921Y-2389476D01*
X766397Y-2389476D02*
X785445Y-2389476D01*
X804492Y-2399000D01*
X814016Y-2408524D01*
X823540Y-2427571D01*
X833064Y-2465667D01*
X833064Y-2513286D01*
X823540Y-2551381D01*
X814016Y-2570429D01*
X804492Y-2579952D01*
X785445Y-2589476D01*
X766397Y-2589476D01*
X747349Y-2579952D01*
X737826Y-2570429D01*
X728302Y-2551381D01*
X718778Y-2513286D01*
X718778Y-2465667D01*
X728302Y-2427571D01*
X737826Y-2408524D01*
X747349Y-2399000D01*
X766397Y-2389476D01*
X956873Y-2389476D02*
X975921Y-2389476D01*
X994968Y-2399000D01*
X1004492Y-2408524D01*
X1014016Y-2427571D01*
X1023540Y-2465667D01*
X1023540Y-2513286D01*
X1014016Y-2551381D01*
X1004492Y-2570429D01*
X994968Y-2579952D01*
X975921Y-2589476D01*
X956873Y-2589476D01*
X937826Y-2579952D01*
X928302Y-2570429D01*
X918778Y-2551381D01*
X909254Y-2513286D01*
X909254Y-2465667D01*
X918778Y-2427571D01*
X928302Y-2408524D01*
X937826Y-2399000D01*
X956873Y-2389476D01*
X1109254Y-2589476D02*
X1109254Y-2456143D01*
X1109254Y-2475190D02*
X1118778Y-2465667D01*
X1137826Y-2456143D01*
X1166397Y-2456143D01*
X1185445Y-2465667D01*
X1194969Y-2484714D01*
X1194969Y-2589476D01*
X1194969Y-2484714D02*
X1204492Y-2465667D01*
X1223540Y-2456143D01*
X1252111Y-2456143D01*
X1271159Y-2465667D01*
X1280683Y-2484714D01*
X1280683Y-2589476D01*
X1375921Y-2589476D02*
X1375921Y-2456143D01*
X1375921Y-2475190D02*
X1385445Y-2465667D01*
X1404492Y-2456143D01*
X1433064Y-2456143D01*
X1452111Y-2465667D01*
X1461635Y-2484714D01*
X1461635Y-2589476D01*
X1461635Y-2484714D02*
X1471159Y-2465667D01*
X1490207Y-2456143D01*
X1518778Y-2456143D01*
X1537826Y-2465667D01*
X1547349Y-2484714D01*
X1547349Y-2589476D01*
X1937826Y-2379952D02*
X1766397Y-2637095D01*
X2194969Y-2389476D02*
X2214016Y-2389476D01*
X2233064Y-2399000D01*
X2242588Y-2408524D01*
X2252111Y-2427571D01*
X2261635Y-2465667D01*
X2261635Y-2513286D01*
X2252111Y-2551381D01*
X2242588Y-2570429D01*
X2233064Y-2579952D01*
X2214016Y-2589476D01*
X2194969Y-2589476D01*
X2175921Y-2579952D01*
X2166397Y-2570429D01*
X2156873Y-2551381D01*
X2147350Y-2513286D01*
X2147350Y-2465667D01*
X2156873Y-2427571D01*
X2166397Y-2408524D01*
X2175921Y-2399000D01*
X2194969Y-2389476D01*
X2347350Y-2570429D02*
X2356873Y-2579952D01*
X2347350Y-2589476D01*
X2337826Y-2579952D01*
X2347350Y-2570429D01*
X2347350Y-2589476D01*
X2547350Y-2589476D02*
X2433064Y-2589476D01*
X2490207Y-2589476D02*
X2490207Y-2389476D01*
X2471159Y-2418048D01*
X2452111Y-2437095D01*
X2433064Y-2446619D01*
X2737826Y-2589476D02*
X2623540Y-2589476D01*
X2680683Y-2589476D02*
X2680683Y-2389476D01*
X2661635Y-2418048D01*
X2642588Y-2437095D01*
X2623540Y-2446619D01*
X2852111Y-2475190D02*
X2833064Y-2465667D01*
X2823540Y-2456143D01*
X2814016Y-2437095D01*
X2814016Y-2427571D01*
X2823540Y-2408524D01*
X2833064Y-2399000D01*
X2852111Y-2389476D01*
X2890207Y-2389476D01*
X2909254Y-2399000D01*
X2918778Y-2408524D01*
X2928302Y-2427571D01*
X2928302Y-2437095D01*
X2918778Y-2456143D01*
X2909254Y-2465667D01*
X2890207Y-2475190D01*
X2852111Y-2475190D01*
X2833064Y-2484714D01*
X2823540Y-2494238D01*
X2814016Y-2513286D01*
X2814016Y-2551381D01*
X2823540Y-2570429D01*
X2833064Y-2579952D01*
X2852111Y-2589476D01*
X2890207Y-2589476D01*
X2909254Y-2579952D01*
X2918778Y-2570429D01*
X2928302Y-2551381D01*
X2928302Y-2513286D01*
X2918778Y-2494238D01*
X2909254Y-2484714D01*
X2890207Y-2475190D01*
X3118778Y-2589476D02*
X3004492Y-2589476D01*
X3061635Y-2589476D02*
X3061635Y-2389476D01*
X3042588Y-2418048D01*
X3023540Y-2437095D01*
X3004492Y-2446619D01*
X3194968Y-2389476D02*
X3194968Y-2427571D01*
X3271159Y-2389476D02*
X3271159Y-2427571D01*
X3566397Y-2665667D02*
X3556873Y-2656143D01*
X3537826Y-2627571D01*
X3528302Y-2608524D01*
X3518778Y-2579952D01*
X3509254Y-2532333D01*
X3509254Y-2494238D01*
X3518778Y-2446619D01*
X3528302Y-2418048D01*
X3537826Y-2399000D01*
X3556873Y-2370429D01*
X3566397Y-2360905D01*
X3728302Y-2389476D02*
X3690207Y-2389476D01*
X3671159Y-2399000D01*
X3661635Y-2408524D01*
X3642588Y-2437095D01*
X3633064Y-2475190D01*
X3633064Y-2551381D01*
X3642588Y-2570429D01*
X3652111Y-2579952D01*
X3671159Y-2589476D01*
X3709254Y-2589476D01*
X3728302Y-2579952D01*
X3737826Y-2570429D01*
X3747349Y-2551381D01*
X3747349Y-2503762D01*
X3737826Y-2484714D01*
X3728302Y-2475190D01*
X3709254Y-2465667D01*
X3671159Y-2465667D01*
X3652111Y-2475190D01*
X3642588Y-2484714D01*
X3633064Y-2503762D01*
X3985445Y-2589476D02*
X3985445Y-2389476D01*
X4071159Y-2589476D02*
X4071159Y-2484714D01*
X4061635Y-2465667D01*
X4042588Y-2456143D01*
X4014016Y-2456143D01*
X3994968Y-2465667D01*
X3985445Y-2475190D01*
X4194969Y-2589476D02*
X4175921Y-2579952D01*
X4166397Y-2570429D01*
X4156873Y-2551381D01*
X4156873Y-2494238D01*
X4166397Y-2475190D01*
X4175921Y-2465667D01*
X4194969Y-2456143D01*
X4223540Y-2456143D01*
X4242588Y-2465667D01*
X4252111Y-2475190D01*
X4261635Y-2494238D01*
X4261635Y-2551381D01*
X4252111Y-2570429D01*
X4242588Y-2579952D01*
X4223540Y-2589476D01*
X4194969Y-2589476D01*
X4375921Y-2589476D02*
X4356873Y-2579952D01*
X4347350Y-2560905D01*
X4347350Y-2389476D01*
X4528302Y-2579952D02*
X4509254Y-2589476D01*
X4471159Y-2589476D01*
X4452111Y-2579952D01*
X4442588Y-2560905D01*
X4442588Y-2484714D01*
X4452111Y-2465667D01*
X4471159Y-2456143D01*
X4509254Y-2456143D01*
X4528302Y-2465667D01*
X4537826Y-2484714D01*
X4537826Y-2503762D01*
X4442588Y-2522810D01*
X4614016Y-2579952D02*
X4633064Y-2589476D01*
X4671159Y-2589476D01*
X4690207Y-2579952D01*
X4699730Y-2560905D01*
X4699730Y-2551381D01*
X4690207Y-2532333D01*
X4671159Y-2522810D01*
X4642588Y-2522810D01*
X4623540Y-2513286D01*
X4614016Y-2494238D01*
X4614016Y-2484714D01*
X4623540Y-2465667D01*
X4642588Y-2456143D01*
X4671159Y-2456143D01*
X4690207Y-2465667D01*
X4766397Y-2665667D02*
X4775921Y-2656143D01*
X4794969Y-2627571D01*
X4804492Y-2608524D01*
X4814016Y-2579952D01*
X4823540Y-2532333D01*
X4823540Y-2494238D01*
X4814016Y-2446619D01*
X4804492Y-2418048D01*
X4794969Y-2399000D01*
X4775921Y-2370429D01*
X4766397Y-2360905D01*
X-205508Y-2719000D02*
X-5508Y-2919000D01*
X-5508Y-2719000D02*
X-205508Y-2919000D01*
X-105508Y-2919000D02*
X-5508Y-2819000D01*
X-105508Y-2719000D01*
X-205508Y-2819000D01*
X-105508Y-2919000D01*
X337826Y-2776143D02*
X337826Y-2909476D01*
X290207Y-2699952D02*
X242588Y-2842809D01*
X366397Y-2842809D01*
X442588Y-2890428D02*
X452111Y-2899952D01*
X442588Y-2909476D01*
X433064Y-2899952D01*
X442588Y-2890428D01*
X442588Y-2909476D01*
X575921Y-2709476D02*
X594969Y-2709476D01*
X614016Y-2719000D01*
X623540Y-2728524D01*
X633064Y-2747571D01*
X642588Y-2785667D01*
X642588Y-2833286D01*
X633064Y-2871381D01*
X623540Y-2890428D01*
X614016Y-2899952D01*
X594969Y-2909476D01*
X575921Y-2909476D01*
X556873Y-2899952D01*
X547350Y-2890428D01*
X537826Y-2871381D01*
X528302Y-2833286D01*
X528302Y-2785667D01*
X537826Y-2747571D01*
X547350Y-2728524D01*
X556873Y-2719000D01*
X575921Y-2709476D01*
X766397Y-2709476D02*
X785445Y-2709476D01*
X804492Y-2719000D01*
X814016Y-2728524D01*
X823540Y-2747571D01*
X833064Y-2785667D01*
X833064Y-2833286D01*
X823540Y-2871381D01*
X814016Y-2890428D01*
X804492Y-2899952D01*
X785445Y-2909476D01*
X766397Y-2909476D01*
X747349Y-2899952D01*
X737826Y-2890428D01*
X728302Y-2871381D01*
X718778Y-2833286D01*
X718778Y-2785667D01*
X728302Y-2747571D01*
X737826Y-2728524D01*
X747349Y-2719000D01*
X766397Y-2709476D01*
X956873Y-2709476D02*
X975921Y-2709476D01*
X994968Y-2719000D01*
X1004492Y-2728524D01*
X1014016Y-2747571D01*
X1023540Y-2785667D01*
X1023540Y-2833286D01*
X1014016Y-2871381D01*
X1004492Y-2890428D01*
X994968Y-2899952D01*
X975921Y-2909476D01*
X956873Y-2909476D01*
X937826Y-2899952D01*
X928302Y-2890428D01*
X918778Y-2871381D01*
X909254Y-2833286D01*
X909254Y-2785667D01*
X918778Y-2747571D01*
X928302Y-2728524D01*
X937826Y-2719000D01*
X956873Y-2709476D01*
X1109254Y-2909476D02*
X1109254Y-2776143D01*
X1109254Y-2795190D02*
X1118778Y-2785667D01*
X1137826Y-2776143D01*
X1166397Y-2776143D01*
X1185445Y-2785667D01*
X1194969Y-2804714D01*
X1194969Y-2909476D01*
X1194969Y-2804714D02*
X1204492Y-2785667D01*
X1223540Y-2776143D01*
X1252111Y-2776143D01*
X1271159Y-2785667D01*
X1280683Y-2804714D01*
X1280683Y-2909476D01*
X1375921Y-2909476D02*
X1375921Y-2776143D01*
X1375921Y-2795190D02*
X1385445Y-2785667D01*
X1404492Y-2776143D01*
X1433064Y-2776143D01*
X1452111Y-2785667D01*
X1461635Y-2804714D01*
X1461635Y-2909476D01*
X1461635Y-2804714D02*
X1471159Y-2785667D01*
X1490207Y-2776143D01*
X1518778Y-2776143D01*
X1537826Y-2785667D01*
X1547349Y-2804714D01*
X1547349Y-2909476D01*
X1937826Y-2699952D02*
X1766397Y-2957095D01*
X2194969Y-2709476D02*
X2214016Y-2709476D01*
X2233064Y-2719000D01*
X2242588Y-2728524D01*
X2252111Y-2747571D01*
X2261635Y-2785667D01*
X2261635Y-2833286D01*
X2252111Y-2871381D01*
X2242588Y-2890428D01*
X2233064Y-2899952D01*
X2214016Y-2909476D01*
X2194969Y-2909476D01*
X2175921Y-2899952D01*
X2166397Y-2890428D01*
X2156873Y-2871381D01*
X2147350Y-2833286D01*
X2147350Y-2785667D01*
X2156873Y-2747571D01*
X2166397Y-2728524D01*
X2175921Y-2719000D01*
X2194969Y-2709476D01*
X2347350Y-2890428D02*
X2356873Y-2899952D01*
X2347350Y-2909476D01*
X2337826Y-2899952D01*
X2347350Y-2890428D01*
X2347350Y-2909476D01*
X2547350Y-2909476D02*
X2433064Y-2909476D01*
X2490207Y-2909476D02*
X2490207Y-2709476D01*
X2471159Y-2738048D01*
X2452111Y-2757095D01*
X2433064Y-2766619D01*
X2728302Y-2709476D02*
X2633064Y-2709476D01*
X2623540Y-2804714D01*
X2633064Y-2795190D01*
X2652111Y-2785667D01*
X2699730Y-2785667D01*
X2718778Y-2795190D01*
X2728302Y-2804714D01*
X2737826Y-2823762D01*
X2737826Y-2871381D01*
X2728302Y-2890428D01*
X2718778Y-2899952D01*
X2699730Y-2909476D01*
X2652111Y-2909476D01*
X2633064Y-2899952D01*
X2623540Y-2890428D01*
X2804492Y-2709476D02*
X2937826Y-2709476D01*
X2852111Y-2909476D01*
X3109254Y-2709476D02*
X3014016Y-2709476D01*
X3004492Y-2804714D01*
X3014016Y-2795190D01*
X3033064Y-2785667D01*
X3080683Y-2785667D01*
X3099730Y-2795190D01*
X3109254Y-2804714D01*
X3118778Y-2823762D01*
X3118778Y-2871381D01*
X3109254Y-2890428D01*
X3099730Y-2899952D01*
X3080683Y-2909476D01*
X3033064Y-2909476D01*
X3014016Y-2899952D01*
X3004492Y-2890428D01*
X3194968Y-2709476D02*
X3194968Y-2747571D01*
X3271159Y-2709476D02*
X3271159Y-2747571D01*
X3566397Y-2985667D02*
X3556873Y-2976143D01*
X3537826Y-2947571D01*
X3528302Y-2928524D01*
X3518778Y-2899952D01*
X3509254Y-2852333D01*
X3509254Y-2814238D01*
X3518778Y-2766619D01*
X3528302Y-2738048D01*
X3537826Y-2719000D01*
X3556873Y-2690429D01*
X3566397Y-2680905D01*
X3623540Y-2709476D02*
X3747349Y-2709476D01*
X3680683Y-2785667D01*
X3709254Y-2785667D01*
X3728302Y-2795190D01*
X3737826Y-2804714D01*
X3747349Y-2823762D01*
X3747349Y-2871381D01*
X3737826Y-2890428D01*
X3728302Y-2899952D01*
X3709254Y-2909476D01*
X3652111Y-2909476D01*
X3633064Y-2899952D01*
X3623540Y-2890428D01*
X3871159Y-2709476D02*
X3890207Y-2709476D01*
X3909254Y-2719000D01*
X3918778Y-2728524D01*
X3928302Y-2747571D01*
X3937826Y-2785667D01*
X3937826Y-2833286D01*
X3928302Y-2871381D01*
X3918778Y-2890428D01*
X3909254Y-2899952D01*
X3890207Y-2909476D01*
X3871159Y-2909476D01*
X3852111Y-2899952D01*
X3842588Y-2890428D01*
X3833064Y-2871381D01*
X3823540Y-2833286D01*
X3823540Y-2785667D01*
X3833064Y-2747571D01*
X3842588Y-2728524D01*
X3852111Y-2719000D01*
X3871159Y-2709476D01*
X4175921Y-2909476D02*
X4175921Y-2709476D01*
X4261635Y-2909476D02*
X4261635Y-2804714D01*
X4252111Y-2785667D01*
X4233064Y-2776143D01*
X4204492Y-2776143D01*
X4185445Y-2785667D01*
X4175921Y-2795190D01*
X4385445Y-2909476D02*
X4366397Y-2899952D01*
X4356873Y-2890428D01*
X4347350Y-2871381D01*
X4347350Y-2814238D01*
X4356873Y-2795190D01*
X4366397Y-2785667D01*
X4385445Y-2776143D01*
X4414016Y-2776143D01*
X4433064Y-2785667D01*
X4442588Y-2795190D01*
X4452111Y-2814238D01*
X4452111Y-2871381D01*
X4442588Y-2890428D01*
X4433064Y-2899952D01*
X4414016Y-2909476D01*
X4385445Y-2909476D01*
X4566397Y-2909476D02*
X4547350Y-2899952D01*
X4537826Y-2880905D01*
X4537826Y-2709476D01*
X4718778Y-2899952D02*
X4699730Y-2909476D01*
X4661635Y-2909476D01*
X4642588Y-2899952D01*
X4633064Y-2880905D01*
X4633064Y-2804714D01*
X4642588Y-2785667D01*
X4661635Y-2776143D01*
X4699730Y-2776143D01*
X4718778Y-2785667D01*
X4728302Y-2804714D01*
X4728302Y-2823762D01*
X4633064Y-2842809D01*
X4804492Y-2899952D02*
X4823540Y-2909476D01*
X4861635Y-2909476D01*
X4880683Y-2899952D01*
X4890207Y-2880905D01*
X4890207Y-2871381D01*
X4880683Y-2852333D01*
X4861635Y-2842809D01*
X4833064Y-2842809D01*
X4814016Y-2833286D01*
X4804492Y-2814238D01*
X4804492Y-2804714D01*
X4814016Y-2785667D01*
X4833064Y-2776143D01*
X4861635Y-2776143D01*
X4880683Y-2785667D01*
X4956873Y-2985667D02*
X4966397Y-2976143D01*
X4985445Y-2947571D01*
X4994969Y-2928524D01*
X5004492Y-2899952D01*
X5014016Y-2852333D01*
X5014016Y-2814238D01*
X5004492Y-2766619D01*
X4994969Y-2738048D01*
X4985445Y-2719000D01*
X4966397Y-2690429D01*
X4956873Y-2680905D01*
M02*
