%TF.GenerationSoftware,KiCad,Pcbnew,(6.0.6)*%
%TF.CreationDate,2024-09-13T12:56:46+08:00*%
%TF.ProjectId,PCB_3,5043425f-332e-46b6-9963-61645f706362,rev?*%
%TF.SameCoordinates,Original*%
%TF.FileFunction,Soldermask,Top*%
%TF.FilePolarity,Negative*%
%FSLAX46Y46*%
G04 Gerber Fmt 4.6, Leading zero omitted, Abs format (unit mm)*
G04 Created by KiCad (PCBNEW (6.0.6)) date 2024-09-13 12:56:46*
%MOMM*%
%LPD*%
G01*
G04 APERTURE LIST*
G04 Aperture macros list*
%AMRoundRect*
0 Rectangle with rounded corners*
0 $1 Rounding radius*
0 $2 $3 $4 $5 $6 $7 $8 $9 X,Y pos of 4 corners*
0 Add a 4 corners polygon primitive as box body*
4,1,4,$2,$3,$4,$5,$6,$7,$8,$9,$2,$3,0*
0 Add four circle primitives for the rounded corners*
1,1,$1+$1,$2,$3*
1,1,$1+$1,$4,$5*
1,1,$1+$1,$6,$7*
1,1,$1+$1,$8,$9*
0 Add four rect primitives between the rounded corners*
20,1,$1+$1,$2,$3,$4,$5,0*
20,1,$1+$1,$4,$5,$6,$7,0*
20,1,$1+$1,$6,$7,$8,$9,0*
20,1,$1+$1,$8,$9,$2,$3,0*%
G04 Aperture macros list end*
%ADD10R,1.700000X1.700000*%
%ADD11O,1.700000X1.700000*%
%ADD12C,1.600000*%
%ADD13O,1.600000X1.600000*%
%ADD14C,8.000000*%
%ADD15R,2.400000X1.600000*%
%ADD16O,2.400000X1.600000*%
%ADD17R,1.600000X1.600000*%
%ADD18R,2.000000X2.000000*%
%ADD19C,2.000000*%
%ADD20C,1.524000*%
%ADD21R,1.600000X2.400000*%
%ADD22O,1.600000X2.400000*%
%ADD23RoundRect,0.625000X0.625000X-0.625000X0.625000X0.625000X-0.625000X0.625000X-0.625000X-0.625000X0*%
%ADD24RoundRect,0.625000X-0.625000X-0.625000X0.625000X-0.625000X0.625000X0.625000X-0.625000X0.625000X0*%
%ADD25R,1.500000X1.050000*%
%ADD26O,1.500000X1.050000*%
%ADD27R,2.200000X2.200000*%
%ADD28O,2.200000X2.200000*%
%ADD29R,1.800000X1.800000*%
%ADD30C,1.800000*%
G04 APERTURE END LIST*
D10*
%TO.C,J55*%
X207264000Y19797000D03*
D11*
X209804000Y19797000D03*
X212344000Y19797000D03*
%TD*%
D12*
%TO.C,R28*%
X280416000Y191262000D03*
D13*
X290576000Y191262000D03*
%TD*%
D14*
%TO.C,TP9*%
X82195000Y126325000D03*
X82195000Y111325000D03*
%TD*%
D10*
%TO.C,J46*%
X20574000Y34036000D03*
D11*
X20574000Y31496000D03*
%TD*%
D14*
%TO.C,TP30*%
X301498000Y19304000D03*
%TD*%
D12*
%TO.C,R19*%
X45212000Y92456000D03*
D13*
X45212000Y82296000D03*
%TD*%
D10*
%TO.C,J39*%
X282956000Y93980000D03*
D11*
X282956000Y91440000D03*
%TD*%
D12*
%TO.C,R34*%
X274320000Y102108000D03*
D13*
X264160000Y102108000D03*
%TD*%
D12*
%TO.C,R6*%
X55014000Y168439000D03*
D13*
X55014000Y158279000D03*
%TD*%
D10*
%TO.C,J19*%
X149098000Y102865000D03*
D11*
X149098000Y105405000D03*
%TD*%
D10*
%TO.C,J16*%
X118167000Y103070000D03*
D11*
X118167000Y105610000D03*
%TD*%
D15*
%TO.C,U4*%
X55123000Y40450000D03*
D16*
X55123000Y37910000D03*
X55123000Y35370000D03*
X55123000Y32830000D03*
X65283000Y32830000D03*
X65283000Y35370000D03*
X65283000Y37910000D03*
X65283000Y40450000D03*
%TD*%
D12*
%TO.C,R8*%
X88449000Y150510000D03*
D13*
X98609000Y150510000D03*
%TD*%
D12*
%TO.C,R31*%
X264922000Y129032000D03*
D13*
X275082000Y129032000D03*
%TD*%
D10*
%TO.C,J5*%
X25248000Y126741000D03*
D11*
X25248000Y129281000D03*
%TD*%
D17*
%TO.C,C4*%
X154178000Y153670000D03*
D12*
X156678000Y153670000D03*
%TD*%
D10*
%TO.C,J42*%
X262631000Y36068000D03*
D11*
X265171000Y36068000D03*
%TD*%
D12*
%TO.C,R11*%
X118167000Y111030000D03*
D13*
X118167000Y121190000D03*
%TD*%
D10*
%TO.C,J17*%
X143114000Y102828000D03*
D11*
X143114000Y105368000D03*
%TD*%
D10*
%TO.C,J40*%
X280162000Y54102000D03*
D11*
X280162000Y56642000D03*
%TD*%
D14*
%TO.C,TP20*%
X309372000Y168295000D03*
%TD*%
D10*
%TO.C,J38*%
X280416000Y98298000D03*
D11*
X277876000Y98298000D03*
%TD*%
D10*
%TO.C,J47*%
X81534000Y34544000D03*
D11*
X81534000Y37084000D03*
X81534000Y39624000D03*
%TD*%
D10*
%TO.C,J3*%
X26772000Y190251000D03*
D11*
X26772000Y187711000D03*
%TD*%
D18*
%TO.C,C3*%
X173031000Y93807677D03*
D19*
X173031000Y88807677D03*
%TD*%
D17*
%TO.C,C1*%
X112768113Y144018000D03*
D12*
X110268113Y144018000D03*
%TD*%
%TO.C,R21*%
X60896000Y92710000D03*
D13*
X60896000Y82550000D03*
%TD*%
D10*
%TO.C,J23*%
X40381000Y110124000D03*
D11*
X42921000Y110124000D03*
%TD*%
D14*
%TO.C,TP11*%
X251190000Y156448000D03*
X251190000Y142448000D03*
%TD*%
D10*
%TO.C,J43*%
X265181000Y30226000D03*
D11*
X262641000Y30226000D03*
%TD*%
D12*
%TO.C,R17*%
X22098000Y102362000D03*
D13*
X32258000Y102362000D03*
%TD*%
D20*
%TO.C,C8*%
X298276000Y62484000D03*
X308276000Y62484000D03*
%TD*%
D14*
%TO.C,TP19*%
X294386000Y155194000D03*
%TD*%
D10*
%TO.C,J9*%
X62830000Y178150000D03*
D11*
X62830000Y175610000D03*
%TD*%
D10*
%TO.C,J6*%
X31344000Y126741000D03*
D11*
X31344000Y129281000D03*
%TD*%
D17*
%TO.C,C7*%
X211900888Y153924000D03*
D12*
X214400888Y153924000D03*
%TD*%
%TO.C,R35*%
X308610000Y71882000D03*
D13*
X298450000Y71882000D03*
%TD*%
D10*
%TO.C,J36*%
X266954000Y150723000D03*
D11*
X266954000Y148183000D03*
%TD*%
D12*
%TO.C,R10*%
X121666000Y167894000D03*
D13*
X121666000Y178054000D03*
%TD*%
D12*
%TO.C,R16*%
X154773000Y77216000D03*
D13*
X154773000Y87376000D03*
%TD*%
D21*
%TO.C,U2*%
X294630000Y112263000D03*
D22*
X292090000Y112263000D03*
X289550000Y112263000D03*
X287010000Y112263000D03*
X287010000Y102103000D03*
X289550000Y102103000D03*
X292090000Y102103000D03*
X294630000Y102103000D03*
%TD*%
D20*
%TO.C,C2*%
X22432000Y108204000D03*
X32432000Y108204000D03*
%TD*%
D10*
%TO.C,J52*%
X189230000Y45705000D03*
D11*
X189230000Y43165000D03*
X189230000Y40625000D03*
%TD*%
D10*
%TO.C,J4*%
X51730000Y178040000D03*
D11*
X51730000Y175500000D03*
%TD*%
D12*
%TO.C,R22*%
X185674000Y168148000D03*
D13*
X185674000Y178308000D03*
%TD*%
D10*
%TO.C,J26*%
X145796000Y147574000D03*
D11*
X148336000Y147574000D03*
%TD*%
D10*
%TO.C,J13*%
X112071000Y102865000D03*
D11*
X112071000Y105405000D03*
%TD*%
D12*
%TO.C,R33*%
X271018000Y92964000D03*
D13*
X271018000Y82804000D03*
%TD*%
D12*
%TO.C,R9*%
X111167000Y111030000D03*
D13*
X111167000Y121190000D03*
%TD*%
D14*
%TO.C,TP18*%
X294132000Y181610000D03*
%TD*%
D10*
%TO.C,J8*%
X57280000Y178140000D03*
D11*
X57280000Y175600000D03*
%TD*%
D10*
%TO.C,J59*%
X65039000Y25893000D03*
D11*
X67579000Y25893000D03*
X70119000Y25893000D03*
%TD*%
D23*
%TO.C,TP4*%
X20828000Y183388000D03*
%TD*%
D10*
%TO.C,J50*%
X220218000Y45451000D03*
D11*
X220218000Y42911000D03*
X220218000Y40371000D03*
%TD*%
D12*
%TO.C,R32*%
X275082000Y109982000D03*
D13*
X264922000Y109982000D03*
%TD*%
D23*
%TO.C,TP3*%
X26670000Y195326000D03*
%TD*%
D24*
%TO.C,TP8*%
X48260000Y149098000D03*
%TD*%
D12*
%TO.C,R25*%
X204216000Y117348000D03*
D13*
X204216000Y127508000D03*
%TD*%
D10*
%TO.C,J30*%
X171450000Y147574000D03*
D11*
X173990000Y147574000D03*
%TD*%
D25*
%TO.C,Q1*%
X43790000Y146558000D03*
D26*
X43790000Y147828000D03*
X43790000Y149098000D03*
%TD*%
D23*
%TO.C,TP6*%
X25400000Y134366000D03*
%TD*%
D25*
%TO.C,Q3*%
X199553000Y135890000D03*
D26*
X199553000Y137160000D03*
X199553000Y138430000D03*
%TD*%
D10*
%TO.C,J28*%
X165100000Y139187000D03*
D11*
X165100000Y141727000D03*
%TD*%
D10*
%TO.C,J34*%
X173580000Y81538000D03*
D11*
X171040000Y81538000D03*
%TD*%
D10*
%TO.C,J31*%
X61756000Y75417000D03*
D11*
X61756000Y72877000D03*
%TD*%
D12*
%TO.C,R1*%
X13236000Y168439000D03*
D13*
X13236000Y158279000D03*
%TD*%
D10*
%TO.C,J54*%
X189230000Y34783000D03*
D11*
X189230000Y32243000D03*
X189230000Y29703000D03*
%TD*%
D14*
%TO.C,TP12*%
X273050000Y156448000D03*
X273050000Y142448000D03*
%TD*%
D18*
%TO.C,C6*%
X221996000Y88981677D03*
D19*
X221996000Y83981677D03*
%TD*%
D10*
%TO.C,J20*%
X151511000Y69845000D03*
D11*
X151511000Y72385000D03*
%TD*%
D14*
%TO.C,TP10*%
X8934000Y89218000D03*
X8934000Y74218000D03*
%TD*%
D12*
%TO.C,R7*%
X88449000Y143510000D03*
D13*
X98609000Y143510000D03*
%TD*%
D10*
%TO.C,J15*%
X113854000Y157226000D03*
D11*
X111314000Y157226000D03*
%TD*%
D21*
%TO.C,U3*%
X296154000Y35555000D03*
D22*
X293614000Y35555000D03*
X291074000Y35555000D03*
X288534000Y35555000D03*
X288534000Y25395000D03*
X291074000Y25395000D03*
X293614000Y25395000D03*
X296154000Y25395000D03*
%TD*%
D10*
%TO.C,J22*%
X155194000Y174752000D03*
D11*
X155194000Y172212000D03*
%TD*%
D21*
%TO.C,U1*%
X289042000Y173116000D03*
D22*
X286502000Y173116000D03*
X283962000Y173116000D03*
X281422000Y173116000D03*
X281422000Y162956000D03*
X283962000Y162956000D03*
X286502000Y162956000D03*
X289042000Y162956000D03*
%TD*%
D10*
%TO.C,J29*%
X46482000Y75437000D03*
D11*
X46482000Y72897000D03*
%TD*%
D12*
%TO.C,R12*%
X139954000Y178816000D03*
D13*
X139954000Y168656000D03*
%TD*%
D14*
%TO.C,TP26*%
X258452000Y91218000D03*
X243452000Y91218000D03*
%TD*%
%TO.C,TP13*%
X54588000Y189970000D03*
%TD*%
D27*
%TO.C,D2*%
X10200000Y27686000D03*
D28*
X10200000Y37846000D03*
%TD*%
D10*
%TO.C,J18*%
X145542000Y69845000D03*
D11*
X145542000Y72385000D03*
%TD*%
D12*
%TO.C,R5*%
X37186000Y124460000D03*
D13*
X37186000Y134620000D03*
%TD*%
D15*
%TO.C,U5*%
X200899000Y40869000D03*
D16*
X200899000Y38329000D03*
X200899000Y35789000D03*
X200899000Y33249000D03*
X208519000Y33249000D03*
X208519000Y35789000D03*
X208519000Y38329000D03*
X208519000Y40869000D03*
%TD*%
D12*
%TO.C,R18*%
X40386000Y92456000D03*
D13*
X40386000Y82296000D03*
%TD*%
D12*
%TO.C,R3*%
X39260000Y188468000D03*
D13*
X39260000Y178308000D03*
%TD*%
D10*
%TO.C,J25*%
X173580000Y70978000D03*
D11*
X176120000Y70978000D03*
%TD*%
D10*
%TO.C,J41*%
X285750000Y49784000D03*
D11*
X283210000Y49784000D03*
%TD*%
D12*
%TO.C,R14*%
X140773000Y77216000D03*
D13*
X140773000Y87376000D03*
%TD*%
D12*
%TO.C,R24*%
X203257000Y168148000D03*
D13*
X203257000Y178308000D03*
%TD*%
D14*
%TO.C,TP22*%
X299974000Y119634000D03*
%TD*%
D12*
%TO.C,R23*%
X180651000Y113792000D03*
D13*
X180651000Y123952000D03*
%TD*%
D12*
%TO.C,R37*%
X247142000Y40132000D03*
D13*
X257302000Y40132000D03*
%TD*%
D14*
%TO.C,TP16*%
X185055000Y71358000D03*
%TD*%
D12*
%TO.C,R13*%
X139503000Y111030000D03*
D13*
X139503000Y121190000D03*
%TD*%
D10*
%TO.C,J12*%
X83115000Y150241000D03*
D11*
X80575000Y150241000D03*
%TD*%
D14*
%TO.C,TP27*%
X301498000Y43180000D03*
%TD*%
%TO.C,TP28*%
X241554000Y32138000D03*
X241554000Y17138000D03*
%TD*%
D10*
%TO.C,J10*%
X83115000Y143510000D03*
D11*
X80575000Y143510000D03*
%TD*%
D10*
%TO.C,J14*%
X113854000Y151638000D03*
D11*
X111314000Y151638000D03*
%TD*%
D12*
%TO.C,R27*%
X269240000Y178054000D03*
D13*
X259080000Y178054000D03*
%TD*%
D12*
%TO.C,R15*%
X147773000Y77216000D03*
D13*
X147773000Y87376000D03*
%TD*%
D14*
%TO.C,TP23*%
X258452000Y105696000D03*
X243452000Y105696000D03*
%TD*%
D12*
%TO.C,R26*%
X203003000Y77470000D03*
D13*
X203003000Y87630000D03*
%TD*%
D10*
%TO.C,J11*%
X83115000Y157226000D03*
D11*
X80575000Y157226000D03*
%TD*%
D10*
%TO.C,J21*%
X157480000Y69845000D03*
D11*
X157480000Y72385000D03*
%TD*%
D14*
%TO.C,TP17*%
X184535000Y81668000D03*
%TD*%
D12*
%TO.C,R36*%
X308864000Y51816000D03*
D13*
X298704000Y51816000D03*
%TD*%
D12*
%TO.C,R30*%
X226822000Y125984000D03*
D13*
X226822000Y136144000D03*
%TD*%
D10*
%TO.C,J35*%
X257810000Y150723000D03*
D11*
X257810000Y148183000D03*
%TD*%
D10*
%TO.C,J24*%
X40381000Y103124000D03*
D11*
X42921000Y103124000D03*
%TD*%
D10*
%TO.C,J1*%
X14300000Y178540000D03*
D11*
X14300000Y176000000D03*
%TD*%
D10*
%TO.C,J7*%
X32360000Y190251000D03*
D11*
X32360000Y187711000D03*
%TD*%
D23*
%TO.C,TP5*%
X31242000Y122682000D03*
%TD*%
D14*
%TO.C,TP15*%
X127311000Y188722000D03*
%TD*%
D10*
%TO.C,J32*%
X67614000Y75417000D03*
D11*
X67614000Y72877000D03*
%TD*%
D14*
%TO.C,TP29*%
X315468000Y30988000D03*
%TD*%
D10*
%TO.C,J56*%
X65024000Y48245000D03*
D11*
X67564000Y48245000D03*
X70104000Y48245000D03*
%TD*%
D14*
%TO.C,TP14*%
X54588000Y127830000D03*
%TD*%
D10*
%TO.C,J44*%
X20574000Y55880000D03*
D11*
X20574000Y53340000D03*
X20574000Y50800000D03*
%TD*%
D10*
%TO.C,J51*%
X220218000Y35037000D03*
D11*
X220218000Y32497000D03*
X220218000Y29957000D03*
%TD*%
D10*
%TO.C,J49*%
X196596000Y19797000D03*
D11*
X199136000Y19797000D03*
X201676000Y19797000D03*
%TD*%
D10*
%TO.C,J37*%
X275336000Y121671000D03*
D11*
X275336000Y119131000D03*
%TD*%
D23*
%TO.C,TP1*%
X13930000Y183134000D03*
%TD*%
D14*
%TO.C,TP25*%
X299974000Y95758000D03*
%TD*%
D12*
%TO.C,R4*%
X49426000Y168439000D03*
D13*
X49426000Y158279000D03*
%TD*%
D10*
%TO.C,J45*%
X19812000Y17277000D03*
D11*
X19812000Y14737000D03*
%TD*%
D12*
%TO.C,R2*%
X20490000Y168439000D03*
D13*
X20490000Y158279000D03*
%TD*%
D29*
%TO.C,RV1*%
X7700000Y56388000D03*
D30*
X10200000Y56388000D03*
X12700000Y56388000D03*
%TD*%
D25*
%TO.C,Q2*%
X135291000Y135589000D03*
D26*
X135291000Y136859000D03*
X135291000Y138129000D03*
%TD*%
D10*
%TO.C,J58*%
X43942000Y34021000D03*
D11*
X43942000Y31481000D03*
X43942000Y28941000D03*
%TD*%
D10*
%TO.C,J57*%
X43942000Y44943000D03*
D11*
X43942000Y42403000D03*
X43942000Y39863000D03*
%TD*%
D14*
%TO.C,TP21*%
X258452000Y118904000D03*
X243452000Y118904000D03*
%TD*%
D10*
%TO.C,J33*%
X148718000Y174752000D03*
D11*
X148718000Y172212000D03*
%TD*%
D10*
%TO.C,J53*%
X207264000Y54087000D03*
D11*
X209804000Y54087000D03*
X212344000Y54087000D03*
%TD*%
D20*
%TO.C,C9*%
X266018000Y41402000D03*
X276018000Y41402000D03*
%TD*%
D12*
%TO.C,R29*%
X298196000Y129540000D03*
D13*
X288036000Y129540000D03*
%TD*%
D10*
%TO.C,J48*%
X196850000Y54087000D03*
D11*
X199390000Y54087000D03*
X201930000Y54087000D03*
%TD*%
D10*
%TO.C,J27*%
X40116000Y75437000D03*
D11*
X40116000Y72897000D03*
%TD*%
D23*
%TO.C,TP2*%
X20320000Y155448000D03*
%TD*%
D10*
%TO.C,J2*%
X20270000Y178540000D03*
D11*
X20270000Y176000000D03*
%TD*%
D14*
%TO.C,TP24*%
X314198000Y107696000D03*
%TD*%
D27*
%TO.C,D1*%
X10200000Y11430000D03*
D28*
X10200000Y21590000D03*
%TD*%
D20*
%TO.C,C5*%
X66294000Y92630000D03*
X66294000Y82630000D03*
%TD*%
D12*
%TO.C,R20*%
X168459000Y122936000D03*
D13*
X168459000Y133096000D03*
%TD*%
M02*
