%TF.GenerationSoftware,KiCad,Pcbnew,(6.0.6)*%
%TF.CreationDate,2024-09-13T12:56:46+08:00*%
%TF.ProjectId,PCB_3,5043425f-332e-46b6-9963-61645f706362,rev?*%
%TF.SameCoordinates,Original*%
%TF.FileFunction,Copper,L1,Top*%
%TF.FilePolarity,Positive*%
%FSLAX46Y46*%
G04 Gerber Fmt 4.6, Leading zero omitted, Abs format (unit mm)*
G04 Created by KiCad (PCBNEW (6.0.6)) date 2024-09-13 12:56:46*
%MOMM*%
%LPD*%
G01*
G04 APERTURE LIST*
G04 Aperture macros list*
%AMRoundRect*
0 Rectangle with rounded corners*
0 $1 Rounding radius*
0 $2 $3 $4 $5 $6 $7 $8 $9 X,Y pos of 4 corners*
0 Add a 4 corners polygon primitive as box body*
4,1,4,$2,$3,$4,$5,$6,$7,$8,$9,$2,$3,0*
0 Add four circle primitives for the rounded corners*
1,1,$1+$1,$2,$3*
1,1,$1+$1,$4,$5*
1,1,$1+$1,$6,$7*
1,1,$1+$1,$8,$9*
0 Add four rect primitives between the rounded corners*
20,1,$1+$1,$2,$3,$4,$5,0*
20,1,$1+$1,$4,$5,$6,$7,0*
20,1,$1+$1,$6,$7,$8,$9,0*
20,1,$1+$1,$8,$9,$2,$3,0*%
G04 Aperture macros list end*
%TA.AperFunction,ComponentPad*%
%ADD10R,1.700000X1.700000*%
%TD*%
%TA.AperFunction,ComponentPad*%
%ADD11O,1.700000X1.700000*%
%TD*%
%TA.AperFunction,ComponentPad*%
%ADD12C,1.600000*%
%TD*%
%TA.AperFunction,ComponentPad*%
%ADD13O,1.600000X1.600000*%
%TD*%
%TA.AperFunction,ComponentPad*%
%ADD14C,8.000000*%
%TD*%
%TA.AperFunction,ComponentPad*%
%ADD15R,2.400000X1.600000*%
%TD*%
%TA.AperFunction,ComponentPad*%
%ADD16O,2.400000X1.600000*%
%TD*%
%TA.AperFunction,ComponentPad*%
%ADD17R,1.600000X1.600000*%
%TD*%
%TA.AperFunction,ComponentPad*%
%ADD18R,2.000000X2.000000*%
%TD*%
%TA.AperFunction,ComponentPad*%
%ADD19C,2.000000*%
%TD*%
%TA.AperFunction,ComponentPad*%
%ADD20C,1.524000*%
%TD*%
%TA.AperFunction,ComponentPad*%
%ADD21R,1.600000X2.400000*%
%TD*%
%TA.AperFunction,ComponentPad*%
%ADD22O,1.600000X2.400000*%
%TD*%
%TA.AperFunction,ComponentPad*%
%ADD23RoundRect,0.625000X0.625000X-0.625000X0.625000X0.625000X-0.625000X0.625000X-0.625000X-0.625000X0*%
%TD*%
%TA.AperFunction,ComponentPad*%
%ADD24RoundRect,0.625000X-0.625000X-0.625000X0.625000X-0.625000X0.625000X0.625000X-0.625000X0.625000X0*%
%TD*%
%TA.AperFunction,ComponentPad*%
%ADD25R,1.500000X1.050000*%
%TD*%
%TA.AperFunction,ComponentPad*%
%ADD26O,1.500000X1.050000*%
%TD*%
%TA.AperFunction,ComponentPad*%
%ADD27R,2.200000X2.200000*%
%TD*%
%TA.AperFunction,ComponentPad*%
%ADD28O,2.200000X2.200000*%
%TD*%
%TA.AperFunction,ComponentPad*%
%ADD29R,1.800000X1.800000*%
%TD*%
%TA.AperFunction,ComponentPad*%
%ADD30C,1.800000*%
%TD*%
%TA.AperFunction,ViaPad*%
%ADD31C,6.000000*%
%TD*%
%TA.AperFunction,ViaPad*%
%ADD32C,0.800000*%
%TD*%
%TA.AperFunction,Conductor*%
%ADD33C,0.500000*%
%TD*%
G04 APERTURE END LIST*
D10*
%TO.P,J55,1,Pin_1*%
%TO.N,Net-(U5-Pad1)*%
X207264000Y19797000D03*
D11*
%TO.P,J55,2,Pin_2*%
X209804000Y19797000D03*
%TO.P,J55,3,Pin_3*%
X212344000Y19797000D03*
%TD*%
D12*
%TO.P,R28,1*%
%TO.N,Net-(R28-Pad1)*%
X280416000Y191262000D03*
D13*
%TO.P,R28,2*%
%TO.N,Net-(R27-Pad1)*%
X290576000Y191262000D03*
%TD*%
D14*
%TO.P,TP9,1,1*%
%TO.N,Net-(J10-Pad1)*%
X82195000Y126325000D03*
%TO.P,TP9,2,2*%
%TO.N,GND_AMP*%
X82195000Y111325000D03*
%TD*%
D10*
%TO.P,J46,1,Pin_1*%
%TO.N,Net-(D2-Pad2)*%
X20574000Y34036000D03*
D11*
%TO.P,J46,2,Pin_2*%
%TO.N,Net-(J46-Pad2)*%
X20574000Y31496000D03*
%TD*%
D14*
%TO.P,TP30,1,1*%
%TO.N,Net-(TP30-Pad1)*%
X301498000Y19304000D03*
%TD*%
D12*
%TO.P,R19,1*%
%TO.N,Net-(J29-Pad2)*%
X45212000Y92456000D03*
D13*
%TO.P,R19,2*%
%TO.N,GND*%
X45212000Y82296000D03*
%TD*%
D10*
%TO.P,J39,1,Pin_1*%
%TO.N,Net-(J38-Pad2)*%
X282956000Y93980000D03*
D11*
%TO.P,J39,2,Pin_2*%
%TO.N,GND_SUM*%
X282956000Y91440000D03*
%TD*%
D12*
%TO.P,R34,1*%
%TO.N,Net-(J38-Pad1)*%
X274320000Y102108000D03*
D13*
%TO.P,R34,2*%
%TO.N,Net-(R34-Pad2)*%
X264160000Y102108000D03*
%TD*%
D12*
%TO.P,R6,1*%
%TO.N,Net-(J8-Pad2)*%
X55014000Y168439000D03*
D13*
%TO.P,R6,2*%
%TO.N,Net-(J9-Pad2)*%
X55014000Y158279000D03*
%TD*%
D10*
%TO.P,J19,1,Pin_1*%
%TO.N,Net-(C3-Pad1)*%
X149098000Y102865000D03*
D11*
%TO.P,J19,2,Pin_2*%
%TO.N,Net-(J17-Pad2)*%
X149098000Y105405000D03*
%TD*%
D10*
%TO.P,J16,1,Pin_1*%
%TO.N,Net-(J16-Pad1)*%
X118167000Y103070000D03*
D11*
%TO.P,J16,2,Pin_2*%
%TO.N,Net-(C1-Pad2)*%
X118167000Y105610000D03*
%TD*%
D15*
%TO.P,U4,1,NULL*%
%TO.N,unconnected-(U4-Pad1)*%
X55123000Y40450000D03*
D16*
%TO.P,U4,2,-*%
%TO.N,Net-(U4-Pad2)*%
X55123000Y37910000D03*
%TO.P,U4,3,+*%
%TO.N,Net-(U4-Pad3)*%
X55123000Y35370000D03*
%TO.P,U4,4,V-*%
%TO.N,Net-(U4-Pad4)*%
X55123000Y32830000D03*
%TO.P,U4,5,NULL*%
%TO.N,unconnected-(U4-Pad5)*%
X65283000Y32830000D03*
%TO.P,U4,6*%
%TO.N,Net-(J47-Pad1)*%
X65283000Y35370000D03*
%TO.P,U4,7,V+*%
%TO.N,Net-(U4-Pad7)*%
X65283000Y37910000D03*
%TO.P,U4,8,NC*%
%TO.N,unconnected-(U4-Pad8)*%
X65283000Y40450000D03*
%TD*%
D12*
%TO.P,R8,1*%
%TO.N,Net-(J11-Pad2)*%
X88449000Y150510000D03*
D13*
%TO.P,R8,2*%
%TO.N,Net-(J12-Pad2)*%
X98609000Y150510000D03*
%TD*%
D12*
%TO.P,R31,1*%
%TO.N,Net-(R31-Pad1)*%
X264922000Y129032000D03*
D13*
%TO.P,R31,2*%
%TO.N,Net-(J37-Pad1)*%
X275082000Y129032000D03*
%TD*%
D10*
%TO.P,J5,1,Pin_1*%
%TO.N,Net-(J5-Pad1)*%
X25248000Y126741000D03*
D11*
%TO.P,J5,2,Pin_2*%
%TO.N,Net-(J5-Pad2)*%
X25248000Y129281000D03*
%TD*%
D17*
%TO.P,C4,1*%
%TO.N,Net-(C4-Pad1)*%
X154178000Y153670000D03*
D12*
%TO.P,C4,2*%
%TO.N,Net-(C4-Pad2)*%
X156678000Y153670000D03*
%TD*%
D10*
%TO.P,J42,1,Pin_1*%
%TO.N,Net-(J42-Pad1)*%
X262631000Y36068000D03*
D11*
%TO.P,J42,2,Pin_2*%
%TO.N,Net-(C9-Pad1)*%
X265171000Y36068000D03*
%TD*%
D12*
%TO.P,R11,1*%
%TO.N,GND_AMP*%
X118167000Y111030000D03*
D13*
%TO.P,R11,2*%
%TO.N,Net-(J16-Pad1)*%
X118167000Y121190000D03*
%TD*%
D10*
%TO.P,J17,1,Pin_1*%
%TO.N,Net-(J17-Pad1)*%
X143114000Y102828000D03*
D11*
%TO.P,J17,2,Pin_2*%
%TO.N,Net-(J17-Pad2)*%
X143114000Y105368000D03*
%TD*%
D10*
%TO.P,J40,1,Pin_1*%
%TO.N,Net-(C9-Pad2)*%
X280162000Y54102000D03*
D11*
%TO.P,J40,2,Pin_2*%
%TO.N,Net-(C8-Pad1)*%
X280162000Y56642000D03*
%TD*%
D14*
%TO.P,TP20,1,1*%
%TO.N,Net-(R28-Pad1)*%
X309372000Y168295000D03*
%TD*%
D10*
%TO.P,J38,1,Pin_1*%
%TO.N,Net-(J38-Pad1)*%
X280416000Y98298000D03*
D11*
%TO.P,J38,2,Pin_2*%
%TO.N,Net-(J38-Pad2)*%
X277876000Y98298000D03*
%TD*%
D10*
%TO.P,J47,1,Pin_1*%
%TO.N,Net-(J47-Pad1)*%
X81534000Y34544000D03*
D11*
%TO.P,J47,2,Pin_2*%
X81534000Y37084000D03*
%TO.P,J47,3,Pin_3*%
X81534000Y39624000D03*
%TD*%
D10*
%TO.P,J3,1,Pin_1*%
%TO.N,Net-(J3-Pad1)*%
X26772000Y190251000D03*
D11*
%TO.P,J3,2,Pin_2*%
%TO.N,Net-(J3-Pad2)*%
X26772000Y187711000D03*
%TD*%
D18*
%TO.P,C3,1*%
%TO.N,Net-(C3-Pad1)*%
X173031000Y93807677D03*
D19*
%TO.P,C3,2*%
%TO.N,Net-(C3-Pad2)*%
X173031000Y88807677D03*
%TD*%
D17*
%TO.P,C1,1*%
%TO.N,Net-(C1-Pad1)*%
X112768113Y144018000D03*
D12*
%TO.P,C1,2*%
%TO.N,Net-(C1-Pad2)*%
X110268113Y144018000D03*
%TD*%
%TO.P,R21,1*%
%TO.N,Net-(J31-Pad2)*%
X60896000Y92710000D03*
D13*
%TO.P,R21,2*%
%TO.N,GND*%
X60896000Y82550000D03*
%TD*%
D10*
%TO.P,J23,1,Pin_1*%
%TO.N,Net-(J23-Pad1)*%
X40381000Y110124000D03*
D11*
%TO.P,J23,2,Pin_2*%
%TO.N,Net-(C2-Pad1)*%
X42921000Y110124000D03*
%TD*%
D14*
%TO.P,TP11,1,1*%
%TO.N,Net-(J35-Pad1)*%
X251190000Y156448000D03*
%TO.P,TP11,2,2*%
%TO.N,GND_INV*%
X251190000Y142448000D03*
%TD*%
D10*
%TO.P,J43,1,Pin_1*%
%TO.N,Net-(C9-Pad2)*%
X265181000Y30226000D03*
D11*
%TO.P,J43,2,Pin_2*%
%TO.N,Net-(J42-Pad1)*%
X262641000Y30226000D03*
%TD*%
D12*
%TO.P,R17,1*%
%TO.N,Net-(J24-Pad2)*%
X22098000Y102362000D03*
D13*
%TO.P,R17,2*%
%TO.N,Net-(C2-Pad2)*%
X32258000Y102362000D03*
%TD*%
D20*
%TO.P,C8,1*%
%TO.N,Net-(C8-Pad1)*%
X298276000Y62484000D03*
%TO.P,C8,2*%
%TO.N,Net-(C8-Pad2)*%
X308276000Y62484000D03*
%TD*%
D14*
%TO.P,TP19,1,1*%
%TO.N,Net-(TP19-Pad1)*%
X294386000Y155194000D03*
%TD*%
D10*
%TO.P,J9,1,Pin_1*%
%TO.N,Net-(J1-Pad1)*%
X62830000Y178150000D03*
D11*
%TO.P,J9,2,Pin_2*%
%TO.N,Net-(J9-Pad2)*%
X62830000Y175610000D03*
%TD*%
D10*
%TO.P,J6,1,Pin_1*%
%TO.N,Net-(J6-Pad1)*%
X31344000Y126741000D03*
D11*
%TO.P,J6,2,Pin_2*%
%TO.N,Net-(J5-Pad2)*%
X31344000Y129281000D03*
%TD*%
D17*
%TO.P,C7,1*%
%TO.N,Net-(C7-Pad1)*%
X211900888Y153924000D03*
D12*
%TO.P,C7,2*%
%TO.N,Net-(C7-Pad2)*%
X214400888Y153924000D03*
%TD*%
%TO.P,R35,1*%
%TO.N,Net-(C8-Pad2)*%
X308610000Y71882000D03*
D13*
%TO.P,R35,2*%
%TO.N,Net-(C8-Pad1)*%
X298450000Y71882000D03*
%TD*%
D10*
%TO.P,J36,1,Pin_1*%
%TO.N,Net-(J36-Pad1)*%
X266954000Y150723000D03*
D11*
%TO.P,J36,2,Pin_2*%
%TO.N,GND_INV*%
X266954000Y148183000D03*
%TD*%
D12*
%TO.P,R10,1*%
%TO.N,Net-(C1-Pad2)*%
X121666000Y167894000D03*
D13*
%TO.P,R10,2*%
%TO.N,15V*%
X121666000Y178054000D03*
%TD*%
D12*
%TO.P,R16,1*%
%TO.N,GND_AMP*%
X154773000Y77216000D03*
D13*
%TO.P,R16,2*%
%TO.N,Net-(J21-Pad1)*%
X154773000Y87376000D03*
%TD*%
D21*
%TO.P,U2,1,NULL*%
%TO.N,unconnected-(U2-Pad1)*%
X294630000Y112263000D03*
D22*
%TO.P,U2,2,-*%
%TO.N,Net-(J37-Pad2)*%
X292090000Y112263000D03*
%TO.P,U2,3,+*%
%TO.N,Net-(J38-Pad2)*%
X289550000Y112263000D03*
%TO.P,U2,4,V-*%
%TO.N,Net-(TP25-Pad1)*%
X287010000Y112263000D03*
%TO.P,U2,5,NULL*%
%TO.N,unconnected-(U2-Pad5)*%
X287010000Y102103000D03*
%TO.P,U2,6*%
%TO.N,Net-(R29-Pad1)*%
X289550000Y102103000D03*
%TO.P,U2,7,V+*%
%TO.N,Net-(TP22-Pad1)*%
X292090000Y102103000D03*
%TO.P,U2,8,NC*%
%TO.N,unconnected-(U2-Pad8)*%
X294630000Y102103000D03*
%TD*%
D20*
%TO.P,C2,1*%
%TO.N,Net-(C2-Pad1)*%
X22432000Y108204000D03*
%TO.P,C2,2*%
%TO.N,Net-(C2-Pad2)*%
X32432000Y108204000D03*
%TD*%
D10*
%TO.P,J52,1,Pin_1*%
%TO.N,Net-(U5-Pad7)*%
X189230000Y45705000D03*
D11*
%TO.P,J52,2,Pin_2*%
X189230000Y43165000D03*
%TO.P,J52,3,Pin_3*%
X189230000Y40625000D03*
%TD*%
D10*
%TO.P,J4,1,Pin_1*%
%TO.N,Net-(J1-Pad1)*%
X51730000Y178040000D03*
D11*
%TO.P,J4,2,Pin_2*%
%TO.N,Net-(J4-Pad2)*%
X51730000Y175500000D03*
%TD*%
D12*
%TO.P,R22,1*%
%TO.N,Net-(J30-Pad2)*%
X185674000Y168148000D03*
D13*
%TO.P,R22,2*%
%TO.N,15V*%
X185674000Y178308000D03*
%TD*%
D10*
%TO.P,J26,1,Pin_1*%
%TO.N,Net-(J22-Pad2)*%
X145796000Y147574000D03*
D11*
%TO.P,J26,2,Pin_2*%
%TO.N,Net-(C4-Pad1)*%
X148336000Y147574000D03*
%TD*%
D10*
%TO.P,J13,1,Pin_1*%
%TO.N,Net-(J13-Pad1)*%
X112071000Y102865000D03*
D11*
%TO.P,J13,2,Pin_2*%
%TO.N,Net-(C1-Pad2)*%
X112071000Y105405000D03*
%TD*%
D12*
%TO.P,R33,1*%
%TO.N,Net-(J38-Pad1)*%
X271018000Y92964000D03*
D13*
%TO.P,R33,2*%
%TO.N,GND_SUM*%
X271018000Y82804000D03*
%TD*%
D12*
%TO.P,R9,1*%
%TO.N,GND_AMP*%
X111167000Y111030000D03*
D13*
%TO.P,R9,2*%
%TO.N,Net-(J13-Pad1)*%
X111167000Y121190000D03*
%TD*%
D14*
%TO.P,TP18,1,1*%
%TO.N,Net-(TP18-Pad1)*%
X294132000Y181610000D03*
%TD*%
D10*
%TO.P,J8,1,Pin_1*%
%TO.N,Net-(J1-Pad1)*%
X57280000Y178140000D03*
D11*
%TO.P,J8,2,Pin_2*%
%TO.N,Net-(J8-Pad2)*%
X57280000Y175600000D03*
%TD*%
D10*
%TO.P,J59,1,Pin_1*%
%TO.N,Net-(U4-Pad4)*%
X65039000Y25893000D03*
D11*
%TO.P,J59,2,Pin_2*%
X67579000Y25893000D03*
%TO.P,J59,3,Pin_3*%
X70119000Y25893000D03*
%TD*%
D23*
%TO.P,TP4,1,1*%
%TO.N,Net-(J1-Pad1)*%
X20828000Y183388000D03*
%TD*%
D10*
%TO.P,J50,1,Pin_1*%
%TO.N,Net-(U5-Pad3)*%
X220218000Y45451000D03*
D11*
%TO.P,J50,2,Pin_2*%
X220218000Y42911000D03*
%TO.P,J50,3,Pin_3*%
X220218000Y40371000D03*
%TD*%
D12*
%TO.P,R32,1*%
%TO.N,Net-(R32-Pad1)*%
X275082000Y109982000D03*
D13*
%TO.P,R32,2*%
%TO.N,Net-(J37-Pad2)*%
X264922000Y109982000D03*
%TD*%
D23*
%TO.P,TP3,1,1*%
%TO.N,Net-(J3-Pad1)*%
X26670000Y195326000D03*
%TD*%
D24*
%TO.P,TP8,1,1*%
%TO.N,Net-(J9-Pad2)*%
X48260000Y149098000D03*
%TD*%
D12*
%TO.P,R25,1*%
%TO.N,Net-(C6-Pad1)*%
X204216000Y117348000D03*
D13*
%TO.P,R25,2*%
%TO.N,Net-(Q3-Pad1)*%
X204216000Y127508000D03*
%TD*%
D10*
%TO.P,J30,1,Pin_1*%
%TO.N,Net-(C4-Pad2)*%
X171450000Y147574000D03*
D11*
%TO.P,J30,2,Pin_2*%
%TO.N,Net-(J30-Pad2)*%
X173990000Y147574000D03*
%TD*%
D25*
%TO.P,Q1,1,E*%
%TO.N,Net-(J6-Pad1)*%
X43790000Y146558000D03*
D26*
%TO.P,Q1,2,B*%
%TO.N,Net-(Q1-Pad2)*%
X43790000Y147828000D03*
%TO.P,Q1,3,C*%
%TO.N,Net-(J9-Pad2)*%
X43790000Y149098000D03*
%TD*%
D23*
%TO.P,TP6,1,1*%
%TO.N,Net-(J5-Pad2)*%
X25400000Y134366000D03*
%TD*%
D25*
%TO.P,Q3,1,E*%
%TO.N,Net-(Q3-Pad1)*%
X199553000Y135890000D03*
D26*
%TO.P,Q3,2,B*%
%TO.N,Net-(J30-Pad2)*%
X199553000Y137160000D03*
%TO.P,Q3,3,C*%
%TO.N,Net-(C7-Pad1)*%
X199553000Y138430000D03*
%TD*%
D10*
%TO.P,J28,1,Pin_1*%
%TO.N,Net-(J28-Pad1)*%
X165100000Y139187000D03*
D11*
%TO.P,J28,2,Pin_2*%
%TO.N,Net-(C4-Pad2)*%
X165100000Y141727000D03*
%TD*%
D10*
%TO.P,J34,1,Pin_1*%
%TO.N,15V*%
X173580000Y81538000D03*
D11*
%TO.P,J34,2,Pin_2*%
%TO.N,Net-(C3-Pad2)*%
X171040000Y81538000D03*
%TD*%
D10*
%TO.P,J31,1,Pin_1*%
%TO.N,Net-(C2-Pad2)*%
X61756000Y75417000D03*
D11*
%TO.P,J31,2,Pin_2*%
%TO.N,Net-(J31-Pad2)*%
X61756000Y72877000D03*
%TD*%
D12*
%TO.P,R1,1*%
%TO.N,Net-(J1-Pad2)*%
X13236000Y168439000D03*
D13*
%TO.P,R1,2*%
%TO.N,Net-(Q1-Pad2)*%
X13236000Y158279000D03*
%TD*%
D10*
%TO.P,J54,1,Pin_1*%
%TO.N,Net-(U5-Pad6)*%
X189230000Y34783000D03*
D11*
%TO.P,J54,2,Pin_2*%
X189230000Y32243000D03*
%TO.P,J54,3,Pin_3*%
X189230000Y29703000D03*
%TD*%
D14*
%TO.P,TP12,1,1*%
%TO.N,Net-(J36-Pad1)*%
X273050000Y156448000D03*
%TO.P,TP12,2,2*%
%TO.N,GND_INV*%
X273050000Y142448000D03*
%TD*%
D18*
%TO.P,C6,1*%
%TO.N,Net-(C6-Pad1)*%
X221996000Y88981677D03*
D19*
%TO.P,C6,2*%
%TO.N,GND_AMP*%
X221996000Y83981677D03*
%TD*%
D10*
%TO.P,J20,1,Pin_1*%
%TO.N,Net-(J20-Pad1)*%
X151511000Y69845000D03*
D11*
%TO.P,J20,2,Pin_2*%
%TO.N,Net-(C3-Pad1)*%
X151511000Y72385000D03*
%TD*%
D14*
%TO.P,TP10,1,1*%
%TO.N,Net-(J23-Pad1)*%
X8934000Y89218000D03*
%TO.P,TP10,2,2*%
%TO.N,GND*%
X8934000Y74218000D03*
%TD*%
D12*
%TO.P,R7,1*%
%TO.N,Net-(J11-Pad2)*%
X88449000Y143510000D03*
D13*
%TO.P,R7,2*%
%TO.N,Net-(J10-Pad2)*%
X98609000Y143510000D03*
%TD*%
D10*
%TO.P,J15,1,Pin_1*%
%TO.N,Net-(J11-Pad2)*%
X113854000Y157226000D03*
D11*
%TO.P,J15,2,Pin_2*%
%TO.N,Net-(C1-Pad2)*%
X111314000Y157226000D03*
%TD*%
D21*
%TO.P,U3,1,NULL*%
%TO.N,unconnected-(U3-Pad1)*%
X296154000Y35555000D03*
D22*
%TO.P,U3,2,-*%
%TO.N,Net-(C9-Pad2)*%
X293614000Y35555000D03*
%TO.P,U3,3,+*%
%TO.N,GND_INT*%
X291074000Y35555000D03*
%TO.P,U3,4,V-*%
%TO.N,Net-(TP30-Pad1)*%
X288534000Y35555000D03*
%TO.P,U3,5,NULL*%
%TO.N,unconnected-(U3-Pad5)*%
X288534000Y25395000D03*
%TO.P,U3,6*%
%TO.N,Net-(C8-Pad2)*%
X291074000Y25395000D03*
%TO.P,U3,7,V+*%
%TO.N,Net-(TP27-Pad1)*%
X293614000Y25395000D03*
%TO.P,U3,8,NC*%
%TO.N,unconnected-(U3-Pad8)*%
X296154000Y25395000D03*
%TD*%
D10*
%TO.P,J22,1,Pin_1*%
%TO.N,15V*%
X155194000Y174752000D03*
D11*
%TO.P,J22,2,Pin_2*%
%TO.N,Net-(J22-Pad2)*%
X155194000Y172212000D03*
%TD*%
D21*
%TO.P,U1,1,NULL*%
%TO.N,unconnected-(U1-Pad1)*%
X289042000Y173116000D03*
D22*
%TO.P,U1,2,-*%
%TO.N,Net-(R27-Pad1)*%
X286502000Y173116000D03*
%TO.P,U1,3,+*%
%TO.N,Net-(J36-Pad1)*%
X283962000Y173116000D03*
%TO.P,U1,4,V-*%
%TO.N,Net-(TP19-Pad1)*%
X281422000Y173116000D03*
%TO.P,U1,5,NULL*%
%TO.N,unconnected-(U1-Pad5)*%
X281422000Y162956000D03*
%TO.P,U1,6*%
%TO.N,Net-(R28-Pad1)*%
X283962000Y162956000D03*
%TO.P,U1,7,V+*%
%TO.N,Net-(TP18-Pad1)*%
X286502000Y162956000D03*
%TO.P,U1,8,NC*%
%TO.N,unconnected-(U1-Pad8)*%
X289042000Y162956000D03*
%TD*%
D10*
%TO.P,J29,1,Pin_1*%
%TO.N,Net-(C2-Pad2)*%
X46482000Y75437000D03*
D11*
%TO.P,J29,2,Pin_2*%
%TO.N,Net-(J29-Pad2)*%
X46482000Y72897000D03*
%TD*%
D12*
%TO.P,R12,1*%
%TO.N,Net-(J22-Pad2)*%
X139954000Y178816000D03*
D13*
%TO.P,R12,2*%
%TO.N,Net-(J33-Pad2)*%
X139954000Y168656000D03*
%TD*%
D14*
%TO.P,TP26,1,1*%
%TO.N,Net-(R34-Pad2)*%
X258452000Y91218000D03*
%TO.P,TP26,2,2*%
%TO.N,GND_SUM*%
X243452000Y91218000D03*
%TD*%
%TO.P,TP13,1,1*%
%TO.N,Net-(J3-Pad1)*%
X54588000Y189970000D03*
%TD*%
D27*
%TO.P,D2,1,K*%
%TO.N,Net-(J46-Pad2)*%
X10200000Y27686000D03*
D28*
%TO.P,D2,2,A*%
%TO.N,Net-(D2-Pad2)*%
X10200000Y37846000D03*
%TD*%
D10*
%TO.P,J18,1,Pin_1*%
%TO.N,Net-(J18-Pad1)*%
X145542000Y69845000D03*
D11*
%TO.P,J18,2,Pin_2*%
%TO.N,Net-(C3-Pad1)*%
X145542000Y72385000D03*
%TD*%
D12*
%TO.P,R5,1*%
%TO.N,Net-(J6-Pad1)*%
X37186000Y124460000D03*
D13*
%TO.P,R5,2*%
%TO.N,Net-(J5-Pad1)*%
X37186000Y134620000D03*
%TD*%
D15*
%TO.P,U5,1,GND*%
%TO.N,Net-(U5-Pad1)*%
X200899000Y40869000D03*
D16*
%TO.P,U5,2,TR*%
%TO.N,Net-(U5-Pad2)*%
X200899000Y38329000D03*
%TO.P,U5,3,Q*%
%TO.N,Net-(U5-Pad3)*%
X200899000Y35789000D03*
%TO.P,U5,4,R*%
%TO.N,Net-(U5-Pad4)*%
X200899000Y33249000D03*
%TO.P,U5,5,CV*%
%TO.N,Net-(U5-Pad5)*%
X208519000Y33249000D03*
%TO.P,U5,6,THR*%
%TO.N,Net-(U5-Pad6)*%
X208519000Y35789000D03*
%TO.P,U5,7,DIS*%
%TO.N,Net-(U5-Pad7)*%
X208519000Y38329000D03*
%TO.P,U5,8,VCC*%
%TO.N,Net-(U5-Pad8)*%
X208519000Y40869000D03*
%TD*%
D12*
%TO.P,R18,1*%
%TO.N,Net-(J27-Pad2)*%
X40386000Y92456000D03*
D13*
%TO.P,R18,2*%
%TO.N,GND*%
X40386000Y82296000D03*
%TD*%
D12*
%TO.P,R3,1*%
%TO.N,Net-(J3-Pad2)*%
X39260000Y188468000D03*
D13*
%TO.P,R3,2*%
%TO.N,Net-(J1-Pad1)*%
X39260000Y178308000D03*
%TD*%
D10*
%TO.P,J25,1,Pin_1*%
%TO.N,GND_AMP*%
X173580000Y70978000D03*
D11*
%TO.P,J25,2,Pin_2*%
%TO.N,Net-(C3-Pad2)*%
X176120000Y70978000D03*
%TD*%
D10*
%TO.P,J41,1,Pin_1*%
%TO.N,Net-(J41-Pad1)*%
X285750000Y49784000D03*
D11*
%TO.P,J41,2,Pin_2*%
%TO.N,Net-(C9-Pad2)*%
X283210000Y49784000D03*
%TD*%
D12*
%TO.P,R14,1*%
%TO.N,GND_AMP*%
X140773000Y77216000D03*
D13*
%TO.P,R14,2*%
%TO.N,Net-(J18-Pad1)*%
X140773000Y87376000D03*
%TD*%
D12*
%TO.P,R24,1*%
%TO.N,Net-(C7-Pad1)*%
X203257000Y168148000D03*
D13*
%TO.P,R24,2*%
%TO.N,15V*%
X203257000Y178308000D03*
%TD*%
D14*
%TO.P,TP22,1,1*%
%TO.N,Net-(TP22-Pad1)*%
X299974000Y119634000D03*
%TD*%
D12*
%TO.P,R23,1*%
%TO.N,GND_AMP*%
X180651000Y113792000D03*
D13*
%TO.P,R23,2*%
%TO.N,Net-(J30-Pad2)*%
X180651000Y123952000D03*
%TD*%
D12*
%TO.P,R37,1*%
%TO.N,Net-(R37-Pad1)*%
X247142000Y40132000D03*
D13*
%TO.P,R37,2*%
%TO.N,Net-(J42-Pad1)*%
X257302000Y40132000D03*
%TD*%
D14*
%TO.P,TP16,1,1*%
%TO.N,GND_AMP*%
X185055000Y71358000D03*
%TD*%
D12*
%TO.P,R13,1*%
%TO.N,Net-(C3-Pad1)*%
X139503000Y111030000D03*
D13*
%TO.P,R13,2*%
%TO.N,Net-(J17-Pad1)*%
X139503000Y121190000D03*
%TD*%
D10*
%TO.P,J12,1,Pin_1*%
%TO.N,Net-(J10-Pad1)*%
X83115000Y150241000D03*
D11*
%TO.P,J12,2,Pin_2*%
%TO.N,Net-(J12-Pad2)*%
X80575000Y150241000D03*
%TD*%
D14*
%TO.P,TP27,1,1*%
%TO.N,Net-(TP27-Pad1)*%
X301498000Y43180000D03*
%TD*%
%TO.P,TP28,1,1*%
%TO.N,Net-(R37-Pad1)*%
X241554000Y32138000D03*
%TO.P,TP28,2,2*%
%TO.N,GND_INT*%
X241554000Y17138000D03*
%TD*%
D10*
%TO.P,J10,1,Pin_1*%
%TO.N,Net-(J10-Pad1)*%
X83115000Y143510000D03*
D11*
%TO.P,J10,2,Pin_2*%
%TO.N,Net-(J10-Pad2)*%
X80575000Y143510000D03*
%TD*%
D10*
%TO.P,J14,1,Pin_1*%
%TO.N,Net-(J11-Pad2)*%
X113854000Y151638000D03*
D11*
%TO.P,J14,2,Pin_2*%
%TO.N,Net-(C1-Pad1)*%
X111314000Y151638000D03*
%TD*%
D12*
%TO.P,R27,1*%
%TO.N,Net-(R27-Pad1)*%
X269240000Y178054000D03*
D13*
%TO.P,R27,2*%
%TO.N,Net-(J35-Pad1)*%
X259080000Y178054000D03*
%TD*%
D12*
%TO.P,R15,1*%
%TO.N,GND_AMP*%
X147773000Y77216000D03*
D13*
%TO.P,R15,2*%
%TO.N,Net-(J20-Pad1)*%
X147773000Y87376000D03*
%TD*%
D14*
%TO.P,TP23,1,1*%
%TO.N,Net-(R32-Pad1)*%
X258452000Y105696000D03*
%TO.P,TP23,2,2*%
%TO.N,GND_SUM*%
X243452000Y105696000D03*
%TD*%
D12*
%TO.P,R26,1*%
%TO.N,GND_AMP*%
X203003000Y77470000D03*
D13*
%TO.P,R26,2*%
%TO.N,Net-(C6-Pad1)*%
X203003000Y87630000D03*
%TD*%
D10*
%TO.P,J11,1,Pin_1*%
%TO.N,Net-(J10-Pad1)*%
X83115000Y157226000D03*
D11*
%TO.P,J11,2,Pin_2*%
%TO.N,Net-(J11-Pad2)*%
X80575000Y157226000D03*
%TD*%
D10*
%TO.P,J21,1,Pin_1*%
%TO.N,Net-(J21-Pad1)*%
X157480000Y69845000D03*
D11*
%TO.P,J21,2,Pin_2*%
%TO.N,Net-(C3-Pad1)*%
X157480000Y72385000D03*
%TD*%
D14*
%TO.P,TP17,1,1*%
%TO.N,15V*%
X184535000Y81668000D03*
%TD*%
D12*
%TO.P,R36,1*%
%TO.N,Net-(C8-Pad2)*%
X308864000Y51816000D03*
D13*
%TO.P,R36,2*%
%TO.N,Net-(J41-Pad1)*%
X298704000Y51816000D03*
%TD*%
D12*
%TO.P,R30,1*%
%TO.N,GND_AMP*%
X226822000Y125984000D03*
D13*
%TO.P,R30,2*%
%TO.N,Net-(C7-Pad2)*%
X226822000Y136144000D03*
%TD*%
D10*
%TO.P,J35,1,Pin_1*%
%TO.N,Net-(J35-Pad1)*%
X257810000Y150723000D03*
D11*
%TO.P,J35,2,Pin_2*%
%TO.N,GND_INV*%
X257810000Y148183000D03*
%TD*%
D10*
%TO.P,J24,1,Pin_1*%
%TO.N,Net-(J23-Pad1)*%
X40381000Y103124000D03*
D11*
%TO.P,J24,2,Pin_2*%
%TO.N,Net-(J24-Pad2)*%
X42921000Y103124000D03*
%TD*%
D10*
%TO.P,J1,1,Pin_1*%
%TO.N,Net-(J1-Pad1)*%
X14300000Y178540000D03*
D11*
%TO.P,J1,2,Pin_2*%
%TO.N,Net-(J1-Pad2)*%
X14300000Y176000000D03*
%TD*%
D10*
%TO.P,J7,1,Pin_1*%
%TO.N,Net-(J3-Pad1)*%
X32360000Y190251000D03*
D11*
%TO.P,J7,2,Pin_2*%
%TO.N,Net-(J1-Pad1)*%
X32360000Y187711000D03*
%TD*%
D23*
%TO.P,TP5,1,1*%
%TO.N,Net-(J6-Pad1)*%
X31242000Y122682000D03*
%TD*%
D14*
%TO.P,TP15,1,1*%
%TO.N,15V*%
X127311000Y188722000D03*
%TD*%
D10*
%TO.P,J32,1,Pin_1*%
%TO.N,Net-(C2-Pad2)*%
X67614000Y75417000D03*
D11*
%TO.P,J32,2,Pin_2*%
%TO.N,Net-(C5-Pad1)*%
X67614000Y72877000D03*
%TD*%
D14*
%TO.P,TP29,1,1*%
%TO.N,Net-(C8-Pad2)*%
X315468000Y30988000D03*
%TD*%
D10*
%TO.P,J56,1,Pin_1*%
%TO.N,Net-(U4-Pad7)*%
X65024000Y48245000D03*
D11*
%TO.P,J56,2,Pin_2*%
X67564000Y48245000D03*
%TO.P,J56,3,Pin_3*%
X70104000Y48245000D03*
%TD*%
D14*
%TO.P,TP14,1,1*%
%TO.N,Net-(J5-Pad2)*%
X54588000Y127830000D03*
%TD*%
D10*
%TO.P,J44,1,Pin_1*%
%TO.N,Net-(RV1-Pad1)*%
X20574000Y55880000D03*
D11*
%TO.P,J44,2,Pin_2*%
%TO.N,Net-(RV1-Pad2)*%
X20574000Y53340000D03*
%TO.P,J44,3,Pin_3*%
%TO.N,Net-(RV1-Pad3)*%
X20574000Y50800000D03*
%TD*%
D10*
%TO.P,J51,1,Pin_1*%
%TO.N,Net-(U5-Pad5)*%
X220218000Y35037000D03*
D11*
%TO.P,J51,2,Pin_2*%
X220218000Y32497000D03*
%TO.P,J51,3,Pin_3*%
X220218000Y29957000D03*
%TD*%
D10*
%TO.P,J49,1,Pin_1*%
%TO.N,Net-(U5-Pad2)*%
X196596000Y19797000D03*
D11*
%TO.P,J49,2,Pin_2*%
X199136000Y19797000D03*
%TO.P,J49,3,Pin_3*%
X201676000Y19797000D03*
%TD*%
D10*
%TO.P,J37,1,Pin_1*%
%TO.N,Net-(J37-Pad1)*%
X275336000Y121671000D03*
D11*
%TO.P,J37,2,Pin_2*%
%TO.N,Net-(J37-Pad2)*%
X275336000Y119131000D03*
%TD*%
D23*
%TO.P,TP1,1,1*%
%TO.N,Net-(J1-Pad1)*%
X13930000Y183134000D03*
%TD*%
D14*
%TO.P,TP25,1,1*%
%TO.N,Net-(TP25-Pad1)*%
X299974000Y95758000D03*
%TD*%
D12*
%TO.P,R4,1*%
%TO.N,Net-(J4-Pad2)*%
X49426000Y168439000D03*
D13*
%TO.P,R4,2*%
%TO.N,Net-(J9-Pad2)*%
X49426000Y158279000D03*
%TD*%
D10*
%TO.P,J45,1,Pin_1*%
%TO.N,Net-(D1-Pad2)*%
X19812000Y17277000D03*
D11*
%TO.P,J45,2,Pin_2*%
%TO.N,Net-(D1-Pad1)*%
X19812000Y14737000D03*
%TD*%
D12*
%TO.P,R2,1*%
%TO.N,Net-(J2-Pad2)*%
X20490000Y168439000D03*
D13*
%TO.P,R2,2*%
%TO.N,Net-(Q1-Pad2)*%
X20490000Y158279000D03*
%TD*%
D29*
%TO.P,RV1,1,1*%
%TO.N,Net-(RV1-Pad1)*%
X7700000Y56388000D03*
D30*
%TO.P,RV1,2,2*%
%TO.N,Net-(RV1-Pad2)*%
X10200000Y56388000D03*
%TO.P,RV1,3,3*%
%TO.N,Net-(RV1-Pad3)*%
X12700000Y56388000D03*
%TD*%
D25*
%TO.P,Q2,1,E*%
%TO.N,Net-(J17-Pad2)*%
X135291000Y135589000D03*
D26*
%TO.P,Q2,2,B*%
%TO.N,Net-(C1-Pad2)*%
X135291000Y136859000D03*
%TO.P,Q2,3,C*%
%TO.N,Net-(J22-Pad2)*%
X135291000Y138129000D03*
%TD*%
D10*
%TO.P,J58,1,Pin_1*%
%TO.N,Net-(U4-Pad3)*%
X43942000Y34021000D03*
D11*
%TO.P,J58,2,Pin_2*%
X43942000Y31481000D03*
%TO.P,J58,3,Pin_3*%
X43942000Y28941000D03*
%TD*%
D10*
%TO.P,J57,1,Pin_1*%
%TO.N,Net-(U4-Pad2)*%
X43942000Y44943000D03*
D11*
%TO.P,J57,2,Pin_2*%
X43942000Y42403000D03*
%TO.P,J57,3,Pin_3*%
X43942000Y39863000D03*
%TD*%
D14*
%TO.P,TP21,1,1*%
%TO.N,Net-(R31-Pad1)*%
X258452000Y118904000D03*
%TO.P,TP21,2,2*%
%TO.N,GND_SUM*%
X243452000Y118904000D03*
%TD*%
D10*
%TO.P,J33,1,Pin_1*%
%TO.N,15V*%
X148718000Y174752000D03*
D11*
%TO.P,J33,2,Pin_2*%
%TO.N,Net-(J33-Pad2)*%
X148718000Y172212000D03*
%TD*%
D10*
%TO.P,J53,1,Pin_1*%
%TO.N,Net-(U5-Pad4)*%
X207264000Y54087000D03*
D11*
%TO.P,J53,2,Pin_2*%
X209804000Y54087000D03*
%TO.P,J53,3,Pin_3*%
X212344000Y54087000D03*
%TD*%
D20*
%TO.P,C9,1*%
%TO.N,Net-(C9-Pad1)*%
X266018000Y41402000D03*
%TO.P,C9,2*%
%TO.N,Net-(C9-Pad2)*%
X276018000Y41402000D03*
%TD*%
D12*
%TO.P,R29,1*%
%TO.N,Net-(R29-Pad1)*%
X298196000Y129540000D03*
D13*
%TO.P,R29,2*%
%TO.N,Net-(J37-Pad2)*%
X288036000Y129540000D03*
%TD*%
D10*
%TO.P,J48,1,Pin_1*%
%TO.N,Net-(U5-Pad8)*%
X196850000Y54087000D03*
D11*
%TO.P,J48,2,Pin_2*%
X199390000Y54087000D03*
%TO.P,J48,3,Pin_3*%
X201930000Y54087000D03*
%TD*%
D10*
%TO.P,J27,1,Pin_1*%
%TO.N,Net-(C2-Pad2)*%
X40116000Y75437000D03*
D11*
%TO.P,J27,2,Pin_2*%
%TO.N,Net-(J27-Pad2)*%
X40116000Y72897000D03*
%TD*%
D23*
%TO.P,TP2,1,1*%
%TO.N,Net-(Q1-Pad2)*%
X20320000Y155448000D03*
%TD*%
D10*
%TO.P,J2,1,Pin_1*%
%TO.N,Net-(J1-Pad1)*%
X20270000Y178540000D03*
D11*
%TO.P,J2,2,Pin_2*%
%TO.N,Net-(J2-Pad2)*%
X20270000Y176000000D03*
%TD*%
D14*
%TO.P,TP24,1,1*%
%TO.N,Net-(R29-Pad1)*%
X314198000Y107696000D03*
%TD*%
D27*
%TO.P,D1,1,K*%
%TO.N,Net-(D1-Pad1)*%
X10200000Y11430000D03*
D28*
%TO.P,D1,2,A*%
%TO.N,Net-(D1-Pad2)*%
X10200000Y21590000D03*
%TD*%
D20*
%TO.P,C5,1*%
%TO.N,Net-(C5-Pad1)*%
X66294000Y92630000D03*
%TO.P,C5,2*%
%TO.N,GND*%
X66294000Y82630000D03*
%TD*%
D12*
%TO.P,R20,1*%
%TO.N,GND_AMP*%
X168459000Y122936000D03*
D13*
%TO.P,R20,2*%
%TO.N,Net-(J28-Pad1)*%
X168459000Y133096000D03*
%TD*%
D31*
%TO.N,*%
X148500000Y205000000D03*
X148500000Y5000000D03*
X5000000Y5000000D03*
X5000000Y205000000D03*
X292000000Y5000000D03*
X292000000Y205000000D03*
D32*
%TO.N,15V*%
X190246000Y138009500D03*
X190500000Y133858000D03*
%TO.N,Net-(C2-Pad2)*%
X40640000Y108204000D03*
X43688000Y108204000D03*
%TO.N,Net-(J27-Pad2)*%
X33528000Y81446500D03*
X33528000Y83145500D03*
%TO.N,Net-(J29-Pad2)*%
X32512000Y81446500D03*
X32512000Y83145500D03*
%TO.N,Net-(U5-Pad8)*%
X204803662Y40973662D03*
%TO.N,Net-(U5-Pad3)*%
X206502000Y40386000D03*
%TO.N,Net-(U5-Pad4)*%
X206527500Y38608000D03*
%TO.N,Net-(U5-Pad6)*%
X203428500Y30988000D03*
%TD*%
D33*
%TO.N,15V*%
X190500000Y133858000D02*
X190246000Y134112000D01*
X190246000Y134112000D02*
X190246000Y138009500D01*
%TO.N,Net-(C2-Pad2)*%
X43688000Y108204000D02*
X40640000Y108204000D01*
%TO.N,Net-(J27-Pad2)*%
X33528000Y81446500D02*
X33528000Y83145500D01*
%TO.N,Net-(J29-Pad2)*%
X32512000Y81446500D02*
X32512000Y83145500D01*
%TO.N,Net-(D1-Pad1)*%
X15499000Y14737000D02*
X12192000Y11430000D01*
X12192000Y11430000D02*
X10200000Y11430000D01*
X19812000Y14737000D02*
X15499000Y14737000D01*
%TO.N,Net-(D1-Pad2)*%
X10200000Y21590000D02*
X11938000Y21590000D01*
X16251000Y17277000D02*
X19812000Y17277000D01*
X11938000Y21590000D02*
X16251000Y17277000D01*
%TO.N,Net-(D2-Pad2)*%
X16510000Y34036000D02*
X20574000Y34036000D01*
X12700000Y37846000D02*
X16510000Y34036000D01*
X10200000Y37846000D02*
X12700000Y37846000D01*
%TO.N,Net-(RV1-Pad1)*%
X11430000Y58674000D02*
X14197950Y58674000D01*
X7700000Y56388000D02*
X9050000Y57738000D01*
X16991950Y55880000D02*
X20574000Y55880000D01*
X14197950Y58674000D02*
X16991950Y55880000D01*
X10494000Y57738000D02*
X11430000Y58674000D01*
X9050000Y57738000D02*
X10494000Y57738000D01*
%TO.N,Net-(RV1-Pad2)*%
X13970000Y57912000D02*
X11724000Y57912000D01*
X16510000Y53848000D02*
X16510000Y55372000D01*
X11724000Y57912000D02*
X10200000Y56388000D01*
X20574000Y53340000D02*
X17018000Y53340000D01*
X16510000Y55372000D02*
X13970000Y57912000D01*
X17018000Y53340000D02*
X16510000Y53848000D01*
%TO.N,Net-(RV1-Pad3)*%
X14224000Y56388000D02*
X15810000Y54802000D01*
X15810000Y53532000D02*
X18542000Y50800000D01*
X15810000Y54802000D02*
X15810000Y53532000D01*
X12700000Y56388000D02*
X14224000Y56388000D01*
X18542000Y50800000D02*
X20574000Y50800000D01*
%TO.N,Net-(J47-Pad1)*%
X71120000Y37084000D02*
X69406000Y35370000D01*
X81534000Y39624000D02*
X81534000Y37084000D01*
X81534000Y34544000D02*
X81534000Y37084000D01*
X69406000Y35370000D02*
X65283000Y35370000D01*
X81534000Y37084000D02*
X71120000Y37084000D01*
%TO.N,Net-(U5-Pad8)*%
X199390000Y54087000D02*
X201930000Y54087000D01*
X199390000Y44958000D02*
X199390000Y54087000D01*
X200483000Y43865000D02*
X199390000Y44958000D01*
X201912324Y43865000D02*
X200483000Y43865000D01*
X204803662Y40973662D02*
X201912324Y43865000D01*
X196850000Y54087000D02*
X199390000Y54087000D01*
%TO.N,Net-(U5-Pad2)*%
X209104000Y27396050D02*
X208052050Y28448000D01*
X208052050Y28448000D02*
X205994000Y28448000D01*
X199136000Y19797000D02*
X199136000Y21082000D01*
X204278000Y37022000D02*
X202971000Y38329000D01*
X205994000Y28448000D02*
X204278000Y30164001D01*
X199136000Y21082000D02*
X200152000Y22098000D01*
X204278000Y30164001D02*
X204278000Y37022000D01*
X207010000Y22098000D02*
X209104000Y24192000D01*
X202971000Y38329000D02*
X200899000Y38329000D01*
X200152000Y22098000D02*
X207010000Y22098000D01*
X199136000Y19797000D02*
X196596000Y19797000D01*
X209104000Y24192000D02*
X209104000Y27396050D01*
X201676000Y19797000D02*
X199136000Y19797000D01*
%TO.N,Net-(U5-Pad3)*%
X220218000Y45451000D02*
X220218000Y42911000D01*
X208393233Y42911000D02*
X220218000Y42911000D01*
X220218000Y40371000D02*
X220218000Y42911000D01*
X206502000Y40386000D02*
X206502000Y41019767D01*
X206502000Y41019767D02*
X208393233Y42911000D01*
%TO.N,Net-(U5-Pad5)*%
X217409000Y32497000D02*
X215900000Y30988000D01*
X220218000Y32497000D02*
X217409000Y32497000D01*
X214630000Y28194000D02*
X210285950Y28194000D01*
X208519000Y29960950D02*
X208519000Y33249000D01*
X220218000Y32497000D02*
X220218000Y29957000D01*
X210285950Y28194000D02*
X208519000Y29960950D01*
X215900000Y30988000D02*
X215900000Y29464000D01*
X215900000Y29464000D02*
X214630000Y28194000D01*
X220218000Y35037000D02*
X220218000Y32497000D01*
%TO.N,Net-(U5-Pad7)*%
X207010000Y36576000D02*
X208519000Y38085000D01*
X189230000Y40625000D02*
X189230000Y43165000D01*
X208519000Y38085000D02*
X208519000Y38329000D01*
X206502000Y36576000D02*
X207010000Y36576000D01*
X205678000Y37400000D02*
X206502000Y36576000D01*
X189230000Y43165000D02*
X201410949Y43165000D01*
X189230000Y43165000D02*
X189230000Y45705000D01*
X201410949Y43165000D02*
X205678000Y38897949D01*
X205678000Y38897949D02*
X205678000Y37400000D01*
%TO.N,Net-(U5-Pad4)*%
X207264000Y54087000D02*
X209804000Y54087000D01*
X206527500Y38608000D02*
X206527500Y39158418D01*
X205653662Y46395662D02*
X209804000Y50546000D01*
X206527500Y39158418D02*
X205652000Y40033918D01*
X209804000Y54087000D02*
X212344000Y54087000D01*
X205652000Y40619918D02*
X205653662Y40621580D01*
X205652000Y40033918D02*
X205652000Y40619918D01*
X209804000Y50546000D02*
X209804000Y54087000D01*
X205653662Y40621580D02*
X205653662Y46395662D01*
%TO.N,Net-(U5-Pad6)*%
X189230000Y34783000D02*
X189230000Y32243000D01*
X199644000Y30988000D02*
X203428500Y30988000D01*
X198389000Y32243000D02*
X199644000Y30988000D01*
X189230000Y29703000D02*
X189230000Y32243000D01*
X189230000Y32243000D02*
X198389000Y32243000D01*
%TO.N,Net-(U5-Pad1)*%
X206283950Y29148000D02*
X204978000Y30453950D01*
X204978000Y30453950D02*
X204978000Y38608000D01*
X212344000Y19797000D02*
X209804000Y19797000D01*
X208342000Y29148000D02*
X206283950Y29148000D01*
X209804000Y19797000D02*
X209804000Y27686000D01*
X204978000Y38608000D02*
X202717000Y40869000D01*
X207264000Y19797000D02*
X209804000Y19797000D01*
X202717000Y40869000D02*
X200899000Y40869000D01*
X209804000Y27686000D02*
X208342000Y29148000D01*
%TO.N,Net-(J46-Pad2)*%
X12700000Y27686000D02*
X16510000Y31496000D01*
X10200000Y27686000D02*
X12700000Y27686000D01*
X16510000Y31496000D02*
X20574000Y31496000D01*
%TO.N,Net-(U4-Pad7)*%
X65283000Y37910000D02*
X65214000Y37910000D01*
X65024000Y48245000D02*
X67564000Y48245000D01*
X63246000Y39878000D02*
X63246000Y40640000D01*
X67564000Y48245000D02*
X70104000Y48245000D01*
X63246000Y40640000D02*
X67564000Y44958000D01*
X65214000Y37910000D02*
X63246000Y39878000D01*
X67564000Y44958000D02*
X67564000Y48245000D01*
%TO.N,Net-(U4-Pad2)*%
X50990000Y37910000D02*
X46497000Y42403000D01*
X43942000Y39863000D02*
X43942000Y42403000D01*
X55123000Y37910000D02*
X50990000Y37910000D01*
X46497000Y42403000D02*
X43942000Y42403000D01*
X43942000Y42403000D02*
X43942000Y44943000D01*
%TO.N,Net-(U4-Pad3)*%
X43942000Y28941000D02*
X43942000Y31481000D01*
X55123000Y35370000D02*
X51118000Y35370000D01*
X51118000Y35370000D02*
X47229000Y31481000D01*
X47229000Y31481000D02*
X43942000Y31481000D01*
X43942000Y34021000D02*
X43942000Y31481000D01*
%TO.N,Net-(U4-Pad4)*%
X55123000Y32830000D02*
X55123000Y30475000D01*
X67579000Y25893000D02*
X65039000Y25893000D01*
X66548000Y28702000D02*
X67579000Y27671000D01*
X70119000Y25893000D02*
X67579000Y25893000D01*
X67579000Y27671000D02*
X67579000Y25893000D01*
X55123000Y30475000D02*
X56896000Y28702000D01*
X56896000Y28702000D02*
X66548000Y28702000D01*
%TD*%
M02*
