%FSLAX45Y45*%
G04 Gerber Fmt 4.5, Leading zero omitted, Abs format (unit mm)*
G04 Created by KiCad (PCBNEW (6.0.6)) date 2024-09-14 08:36:47*
%MOMM*%
%LPD*%
G01*
G04 APERTURE LIST*
%TA.AperFunction,Profile*%
%ADD10C,0.100000*%
%TD*%
%ADD11C,0.200000*%
%ADD12C,0.040000*%
%ADD13C,0.070000*%
%ADD14C,0.075000*%
%ADD15C,0.080000*%
%ADD16C,0.090000*%
%ADD17C,0.100000*%
%ADD18C,0.110000*%
%ADD19C,0.130000*%
%ADD20C,0.152000*%
%ADD21C,0.300000*%
G04 APERTURE END LIST*
D10*
X14977700Y3130900D02*
X12577700Y3130900D01*
X12577700Y3130900D02*
X12577700Y1830900D01*
X12577700Y1830900D02*
X14977700Y1830900D01*
X14977700Y1830900D02*
X14977700Y3130900D01*
X210000Y21100000D02*
G75*
G03*
X0Y20890000I0J-210000D01*
G01*
X29490000Y100000D02*
G75*
G03*
X29700000Y310000I0J210000D01*
G01*
X0Y310000D02*
G75*
G03*
X210000Y100000I210000J0D01*
G01*
X29700000Y20890000D02*
G75*
G03*
X29490000Y21100000I-210000J0D01*
G01*
X1096085Y9317915D02*
G75*
G03*
X1096085Y9317915I-334085J0D01*
G01*
X29700000Y20890000D02*
X29700000Y310000D01*
X210000Y21100000D02*
X29490000Y21100000D01*
X0Y310000D02*
X0Y20890000D01*
X10591800Y4106800D02*
X8923600Y4106800D01*
X8923600Y4106800D02*
X8923600Y3733800D01*
X8923600Y3733800D02*
X10591800Y3733800D01*
X10591800Y3733800D02*
X10591800Y4106800D01*
X14954200Y3110100D02*
X12604800Y3110100D01*
X12604800Y3110100D02*
X12604800Y1853900D01*
X12604800Y1853900D02*
X14954200Y1853900D01*
X14954200Y1853900D02*
X14954200Y3110100D01*
X29490000Y100000D02*
X210000Y100000D01*
D11*
D12*
X2799400Y5074600D02*
X2839400Y5034600D01*
X2839400Y5074600D02*
X2799400Y5034600D01*
X4848050Y5354000D02*
X4888050Y5314000D01*
X4888050Y5354000D02*
X4848050Y5314000D01*
X6380800Y5065850D02*
X6420800Y5025850D01*
X6420800Y5065850D02*
X6380800Y5025850D01*
D13*
X18754800Y5257800D02*
G75*
G03*
X18754800Y5257800I-35000J0D01*
G01*
X19008800Y5511800D02*
G75*
G03*
X19008800Y5511800I-35000J0D01*
G01*
X19262800Y5257800D02*
G75*
G03*
X19262800Y5257800I-35000J0D01*
G01*
D14*
X1159933Y4954500D02*
X1159933Y4879500D01*
X1122433Y4917000D02*
X1197433Y4917000D01*
X1286933Y4954500D02*
X1286933Y4879500D01*
X1249433Y4917000D02*
X1324433Y4917000D01*
X1413933Y4954500D02*
X1413933Y4879500D01*
X1376433Y4917000D02*
X1451433Y4917000D01*
X2980267Y4954500D02*
X2980267Y4879500D01*
X2942767Y4917000D02*
X3017767Y4917000D01*
X3107267Y4954500D02*
X3107267Y4879500D01*
X3069767Y4917000D02*
X3144767Y4917000D01*
X3234267Y4954500D02*
X3234267Y4879500D01*
X3196767Y4917000D02*
X3271767Y4917000D01*
X4800600Y4954500D02*
X4800600Y4879500D01*
X4763100Y4917000D02*
X4838100Y4917000D01*
X4927600Y4954500D02*
X4927600Y4879500D01*
X4890100Y4917000D02*
X4965100Y4917000D01*
X5054600Y4954500D02*
X5054600Y4879500D01*
X5017100Y4917000D02*
X5092100Y4917000D01*
X6620933Y4954500D02*
X6620933Y4879500D01*
X6583433Y4917000D02*
X6658433Y4917000D01*
X6747933Y4954500D02*
X6747933Y4879500D01*
X6710433Y4917000D02*
X6785433Y4917000D01*
X6874933Y4954500D02*
X6874933Y4879500D01*
X6837433Y4917000D02*
X6912433Y4917000D01*
X19735800Y9664100D02*
X19735800Y9589100D01*
X19698300Y9626600D02*
X19773300Y9626600D01*
X19862800Y9664100D02*
X19862800Y9589100D01*
X19825300Y9626600D02*
X19900300Y9626600D01*
X19989800Y9664100D02*
X19989800Y9589100D01*
X19952300Y9626600D02*
X20027300Y9626600D01*
D15*
X968084Y7743115D02*
X968084Y7799684D01*
X911515Y7799684D01*
X911515Y7743115D01*
X968084Y7743115D01*
X968084Y6983115D02*
X968084Y7039684D01*
X911515Y7039684D01*
X911515Y6983115D01*
X968084Y6983115D01*
X3203284Y9629450D02*
X3203284Y9686019D01*
X3146715Y9686019D01*
X3146715Y9629450D01*
X3203284Y9629450D01*
X3203284Y9129450D02*
X3203284Y9186019D01*
X3146715Y9186019D01*
X3146715Y9129450D01*
X3203284Y9129450D01*
X16770884Y8379115D02*
X16770884Y8435685D01*
X16714315Y8435685D01*
X16714315Y8379115D01*
X16770884Y8379115D01*
X17020885Y8379115D02*
X17020885Y8435685D01*
X16964316Y8435685D01*
X16964316Y8379115D01*
X17020885Y8379115D01*
D16*
X2286000Y7524200D02*
X2331000Y7569200D01*
X2286000Y7614200D01*
X2241000Y7569200D01*
X2286000Y7524200D01*
X2286000Y7270200D02*
X2331000Y7315200D01*
X2286000Y7360200D01*
X2241000Y7315200D01*
X2286000Y7270200D01*
X3581400Y5924000D02*
X3626400Y5969000D01*
X3581400Y6014000D01*
X3536400Y5969000D01*
X3581400Y5924000D01*
X3835400Y5924000D02*
X3880400Y5969000D01*
X3835400Y6014000D01*
X3790400Y5969000D01*
X3835400Y5924000D01*
X4148667Y5924000D02*
X4193667Y5969000D01*
X4148667Y6014000D01*
X4103667Y5969000D01*
X4148667Y5924000D01*
X4402667Y5924000D02*
X4447667Y5969000D01*
X4402667Y6014000D01*
X4357667Y5969000D01*
X4402667Y5924000D01*
X4715933Y5924000D02*
X4760933Y5969000D01*
X4715933Y6014000D01*
X4670933Y5969000D01*
X4715933Y5924000D01*
X4969933Y5924000D02*
X5014933Y5969000D01*
X4969933Y6014000D01*
X4924933Y5969000D01*
X4969933Y5924000D01*
X5283200Y5924000D02*
X5328200Y5969000D01*
X5283200Y6014000D01*
X5238200Y5969000D01*
X5283200Y5924000D01*
X5537200Y5924000D02*
X5582200Y5969000D01*
X5537200Y6014000D01*
X5492200Y5969000D01*
X5537200Y5924000D01*
X8420500Y12870982D02*
X8465500Y12915982D01*
X8420500Y12960982D01*
X8375500Y12915982D01*
X8420500Y12870982D01*
X8674500Y12870982D02*
X8719500Y12915982D01*
X8674500Y12960982D01*
X8629500Y12915982D01*
X8674500Y12870982D01*
X9638400Y12870982D02*
X9683400Y12915982D01*
X9638400Y12960982D01*
X9593400Y12915982D01*
X9638400Y12870982D01*
X9892400Y12870982D02*
X9937400Y12915982D01*
X9892400Y12960982D01*
X9847400Y12915982D01*
X9892400Y12870982D01*
X10856300Y12870982D02*
X10901300Y12915982D01*
X10856300Y12960982D01*
X10811300Y12915982D01*
X10856300Y12870982D01*
X11110300Y12870982D02*
X11155300Y12915982D01*
X11110300Y12960982D01*
X11065300Y12915982D01*
X11110300Y12870982D01*
X12075200Y12870982D02*
X12120200Y12915982D01*
X12075200Y12960982D01*
X12030200Y12915982D01*
X12075200Y12870982D01*
X12329200Y12870982D02*
X12374200Y12915982D01*
X12329200Y12960982D01*
X12284200Y12915982D01*
X12329200Y12870982D01*
X13293100Y12870982D02*
X13338100Y12915982D01*
X13293100Y12960982D01*
X13248100Y12915982D01*
X13293100Y12870982D01*
X13547100Y12870982D02*
X13592100Y12915982D01*
X13547100Y12960982D01*
X13502100Y12915982D01*
X13547100Y12870982D01*
X18490700Y8413200D02*
X18535700Y8458200D01*
X18490700Y8503200D01*
X18445700Y8458200D01*
X18490700Y8413200D01*
X18744700Y8413200D02*
X18789700Y8458200D01*
X18744700Y8503200D01*
X18699700Y8458200D01*
X18744700Y8413200D01*
D17*
X1143300Y10362400D02*
X1243300Y10262400D01*
X1243300Y10362400D02*
X1143300Y10262400D01*
X1243300Y10312400D02*
G75*
G03*
X1243300Y10312400I-50000J0D01*
G01*
X1397300Y10362400D02*
X1497300Y10262400D01*
X1497300Y10362400D02*
X1397300Y10262400D01*
X1497300Y10312400D02*
G75*
G03*
X1497300Y10312400I-50000J0D01*
G01*
X1622350Y9321000D02*
X1722350Y9221000D01*
X1722350Y9321000D02*
X1622350Y9221000D01*
X1722350Y9271000D02*
G75*
G03*
X1722350Y9271000I-50000J0D01*
G01*
X1651300Y10362400D02*
X1751300Y10262400D01*
X1751300Y10362400D02*
X1651300Y10262400D01*
X1751300Y10312400D02*
G75*
G03*
X1751300Y10312400I-50000J0D01*
G01*
X1876350Y9321000D02*
X1976350Y9221000D01*
X1976350Y9321000D02*
X1876350Y9221000D01*
X1976350Y9271000D02*
G75*
G03*
X1976350Y9271000I-50000J0D01*
G01*
X1905300Y10362400D02*
X2005300Y10262400D01*
X2005300Y10362400D02*
X1905300Y10262400D01*
X2005300Y10312400D02*
G75*
G03*
X2005300Y10312400I-50000J0D01*
G01*
X2130350Y9321000D02*
X2230350Y9221000D01*
X2230350Y9321000D02*
X2130350Y9221000D01*
X2230350Y9271000D02*
G75*
G03*
X2230350Y9271000I-50000J0D01*
G01*
X2159300Y10362400D02*
X2259300Y10262400D01*
X2259300Y10362400D02*
X2159300Y10262400D01*
X2259300Y10312400D02*
G75*
G03*
X2259300Y10312400I-50000J0D01*
G01*
X2384350Y9321000D02*
X2484350Y9221000D01*
X2484350Y9321000D02*
X2384350Y9221000D01*
X2484350Y9271000D02*
G75*
G03*
X2484350Y9271000I-50000J0D01*
G01*
X2413300Y10362400D02*
X2513300Y10262400D01*
X2513300Y10362400D02*
X2413300Y10262400D01*
X2513300Y10312400D02*
G75*
G03*
X2513300Y10312400I-50000J0D01*
G01*
X2667300Y10362400D02*
X2767300Y10262400D01*
X2767300Y10362400D02*
X2667300Y10262400D01*
X2767300Y10312400D02*
G75*
G03*
X2767300Y10312400I-50000J0D01*
G01*
X2794800Y8254200D02*
X2894800Y8154200D01*
X2894800Y8254200D02*
X2794800Y8154200D01*
X2894800Y8204200D02*
G75*
G03*
X2894800Y8204200I-50000J0D01*
G01*
X3048800Y8254200D02*
X3148800Y8154200D01*
X3148800Y8254200D02*
X3048800Y8154200D01*
X3148800Y8204200D02*
G75*
G03*
X3148800Y8204200I-50000J0D01*
G01*
X3201200Y7314400D02*
X3301200Y7214400D01*
X3301200Y7314400D02*
X3201200Y7214400D01*
X3301200Y7264400D02*
G75*
G03*
X3301200Y7264400I-50000J0D01*
G01*
X3201200Y7060400D02*
X3301200Y6960400D01*
X3301200Y7060400D02*
X3201200Y6960400D01*
X3301200Y7010400D02*
G75*
G03*
X3301200Y7010400I-50000J0D01*
G01*
X3685000Y7839000D02*
X3785000Y7739000D01*
X3785000Y7839000D02*
X3685000Y7739000D01*
X3785000Y7789000D02*
G75*
G03*
X3785000Y7789000I-50000J0D01*
G01*
X3685000Y7585000D02*
X3785000Y7485000D01*
X3785000Y7585000D02*
X3685000Y7485000D01*
X3785000Y7535000D02*
G75*
G03*
X3785000Y7535000I-50000J0D01*
G01*
X3685000Y7331000D02*
X3785000Y7231000D01*
X3785000Y7331000D02*
X3685000Y7231000D01*
X3785000Y7281000D02*
G75*
G03*
X3785000Y7281000I-50000J0D01*
G01*
X5443050Y9270200D02*
X5543050Y9170200D01*
X5543050Y9270200D02*
X5443050Y9170200D01*
X5543050Y9220200D02*
G75*
G03*
X5543050Y9220200I-50000J0D01*
G01*
X5445050Y10686200D02*
X5545050Y10586200D01*
X5545050Y10686200D02*
X5445050Y10586200D01*
X5545050Y10636200D02*
G75*
G03*
X5545050Y10636200I-50000J0D01*
G01*
X5697050Y9270200D02*
X5797050Y9170200D01*
X5797050Y9270200D02*
X5697050Y9170200D01*
X5797050Y9220200D02*
G75*
G03*
X5797050Y9220200I-50000J0D01*
G01*
X5699050Y10686200D02*
X5799050Y10586200D01*
X5799050Y10686200D02*
X5699050Y10586200D01*
X5799050Y10636200D02*
G75*
G03*
X5799050Y10636200I-50000J0D01*
G01*
X5951050Y9270200D02*
X6051050Y9170200D01*
X6051050Y9270200D02*
X5951050Y9170200D01*
X6051050Y9220200D02*
G75*
G03*
X6051050Y9220200I-50000J0D01*
G01*
X5953050Y10686200D02*
X6053050Y10586200D01*
X6053050Y10686200D02*
X5953050Y10586200D01*
X6053050Y10636200D02*
G75*
G03*
X6053050Y10636200I-50000J0D01*
G01*
X6046000Y6044400D02*
X6146000Y5944400D01*
X6146000Y6044400D02*
X6046000Y5944400D01*
X6146000Y5994400D02*
G75*
G03*
X6146000Y5994400I-50000J0D01*
G01*
X6205050Y9270200D02*
X6305050Y9170200D01*
X6305050Y9270200D02*
X6205050Y9170200D01*
X6305050Y9220200D02*
G75*
G03*
X6305050Y9220200I-50000J0D01*
G01*
X6207050Y10686200D02*
X6307050Y10586200D01*
X6307050Y10686200D02*
X6207050Y10586200D01*
X6307050Y10636200D02*
G75*
G03*
X6307050Y10636200I-50000J0D01*
G01*
X6300000Y6044400D02*
X6400000Y5944400D01*
X6400000Y6044400D02*
X6300000Y5944400D01*
X6400000Y5994400D02*
G75*
G03*
X6400000Y5994400I-50000J0D01*
G01*
X6554000Y6044400D02*
X6654000Y5944400D01*
X6654000Y6044400D02*
X6554000Y5944400D01*
X6654000Y5994400D02*
G75*
G03*
X6654000Y5994400I-50000J0D01*
G01*
X6601800Y7698000D02*
X6701800Y7598000D01*
X6701800Y7698000D02*
X6601800Y7598000D01*
X6701800Y7648000D02*
G75*
G03*
X6701800Y7648000I-50000J0D01*
G01*
X6604800Y7060400D02*
X6704800Y6960400D01*
X6704800Y7060400D02*
X6604800Y6960400D01*
X6704800Y7010400D02*
G75*
G03*
X6704800Y7010400I-50000J0D01*
G01*
X6808000Y6044400D02*
X6908000Y5944400D01*
X6908000Y6044400D02*
X6808000Y5944400D01*
X6908000Y5994400D02*
G75*
G03*
X6908000Y5994400I-50000J0D01*
G01*
X6855800Y7698000D02*
X6955800Y7598000D01*
X6955800Y7698000D02*
X6855800Y7598000D01*
X6955800Y7648000D02*
G75*
G03*
X6955800Y7648000I-50000J0D01*
G01*
X6858800Y7060400D02*
X6958800Y6960400D01*
X6958800Y7060400D02*
X6858800Y6960400D01*
X6958800Y7010400D02*
G75*
G03*
X6958800Y7010400I-50000J0D01*
G01*
X7062000Y6044400D02*
X7162000Y5944400D01*
X7162000Y6044400D02*
X7062000Y5944400D01*
X7162000Y5994400D02*
G75*
G03*
X7162000Y5994400I-50000J0D01*
G01*
X7109800Y7698000D02*
X7209800Y7598000D01*
X7209800Y7698000D02*
X7109800Y7598000D01*
X7209800Y7648000D02*
G75*
G03*
X7209800Y7648000I-50000J0D01*
G01*
X7112800Y7060400D02*
X7212800Y6960400D01*
X7212800Y7060400D02*
X7112800Y6960400D01*
X7212800Y7010400D02*
G75*
G03*
X7212800Y7010400I-50000J0D01*
G01*
X7316000Y6044400D02*
X7416000Y5944400D01*
X7416000Y6044400D02*
X7316000Y5944400D01*
X7416000Y5994400D02*
G75*
G03*
X7416000Y5994400I-50000J0D01*
G01*
X8328000Y8553900D02*
X8428000Y8453900D01*
X8428000Y8553900D02*
X8328000Y8453900D01*
X8428000Y8503900D02*
G75*
G03*
X8428000Y8503900I-50000J0D01*
G01*
X8328000Y8053900D02*
X8428000Y7953900D01*
X8428000Y8053900D02*
X8328000Y7953900D01*
X8428000Y8003900D02*
G75*
G03*
X8428000Y8003900I-50000J0D01*
G01*
X8369500Y13726382D02*
X8469500Y13626382D01*
X8469500Y13726382D02*
X8369500Y13626382D01*
X8469500Y13676382D02*
G75*
G03*
X8469500Y13676382I-50000J0D01*
G01*
X8404500Y11408600D02*
X8504500Y11308600D01*
X8504500Y11408600D02*
X8404500Y11308600D01*
X8504500Y11358600D02*
G75*
G03*
X8504500Y11358600I-50000J0D01*
G01*
X8404500Y9089200D02*
X8504500Y8989200D01*
X8504500Y9089200D02*
X8404500Y8989200D01*
X8504500Y9039200D02*
G75*
G03*
X8504500Y9039200I-50000J0D01*
G01*
X8532000Y8553900D02*
X8632000Y8453900D01*
X8632000Y8553900D02*
X8532000Y8453900D01*
X8632000Y8503900D02*
G75*
G03*
X8632000Y8503900I-50000J0D01*
G01*
X8532000Y8053900D02*
X8632000Y7953900D01*
X8632000Y8053900D02*
X8532000Y7953900D01*
X8632000Y8003900D02*
G75*
G03*
X8632000Y8003900I-50000J0D01*
G01*
X8623500Y13726382D02*
X8723500Y13626382D01*
X8723500Y13726382D02*
X8623500Y13626382D01*
X8723500Y13676382D02*
G75*
G03*
X8723500Y13676382I-50000J0D01*
G01*
X8658500Y11408600D02*
X8758500Y11308600D01*
X8758500Y11408600D02*
X8658500Y11308600D01*
X8758500Y11358600D02*
G75*
G03*
X8758500Y11358600I-50000J0D01*
G01*
X8658500Y9089200D02*
X8758500Y8989200D01*
X8758500Y9089200D02*
X8658500Y8989200D01*
X8758500Y9039200D02*
G75*
G03*
X8758500Y9039200I-50000J0D01*
G01*
X8736000Y8553900D02*
X8836000Y8453900D01*
X8836000Y8553900D02*
X8736000Y8453900D01*
X8836000Y8503900D02*
G75*
G03*
X8836000Y8503900I-50000J0D01*
G01*
X8736000Y8053900D02*
X8836000Y7953900D01*
X8836000Y8053900D02*
X8736000Y7953900D01*
X8836000Y8003900D02*
G75*
G03*
X8836000Y8003900I-50000J0D01*
G01*
X9500400Y6527000D02*
X9600400Y6427000D01*
X9600400Y6527000D02*
X9500400Y6427000D01*
X9600400Y6477000D02*
G75*
G03*
X9600400Y6477000I-50000J0D01*
G01*
X9545900Y8553900D02*
X9645900Y8453900D01*
X9645900Y8553900D02*
X9545900Y8453900D01*
X9645900Y8503900D02*
G75*
G03*
X9645900Y8503900I-50000J0D01*
G01*
X9545900Y8053900D02*
X9645900Y7953900D01*
X9645900Y8053900D02*
X9545900Y7953900D01*
X9645900Y8003900D02*
G75*
G03*
X9645900Y8003900I-50000J0D01*
G01*
X9587400Y13726382D02*
X9687400Y13626382D01*
X9687400Y13726382D02*
X9587400Y13626382D01*
X9687400Y13676382D02*
G75*
G03*
X9687400Y13676382I-50000J0D01*
G01*
X9622400Y11408600D02*
X9722400Y11308600D01*
X9722400Y11408600D02*
X9622400Y11308600D01*
X9722400Y11358600D02*
G75*
G03*
X9722400Y11358600I-50000J0D01*
G01*
X9622400Y9089200D02*
X9722400Y8989200D01*
X9722400Y9089200D02*
X9622400Y8989200D01*
X9722400Y9039200D02*
G75*
G03*
X9722400Y9039200I-50000J0D01*
G01*
X9749900Y8553900D02*
X9849900Y8453900D01*
X9849900Y8553900D02*
X9749900Y8453900D01*
X9849900Y8503900D02*
G75*
G03*
X9849900Y8503900I-50000J0D01*
G01*
X9749900Y8053900D02*
X9849900Y7953900D01*
X9849900Y8053900D02*
X9749900Y7953900D01*
X9849900Y8003900D02*
G75*
G03*
X9849900Y8003900I-50000J0D01*
G01*
X9754400Y6527000D02*
X9854400Y6427000D01*
X9854400Y6527000D02*
X9754400Y6427000D01*
X9854400Y6477000D02*
G75*
G03*
X9854400Y6477000I-50000J0D01*
G01*
X9841400Y13726382D02*
X9941400Y13626382D01*
X9941400Y13726382D02*
X9841400Y13626382D01*
X9941400Y13676382D02*
G75*
G03*
X9941400Y13676382I-50000J0D01*
G01*
X9876400Y11408600D02*
X9976400Y11308600D01*
X9976400Y11408600D02*
X9876400Y11308600D01*
X9976400Y11358600D02*
G75*
G03*
X9976400Y11358600I-50000J0D01*
G01*
X9876400Y9089200D02*
X9976400Y8989200D01*
X9976400Y9089200D02*
X9876400Y8989200D01*
X9976400Y9039200D02*
G75*
G03*
X9976400Y9039200I-50000J0D01*
G01*
X9953900Y8553900D02*
X10053900Y8453900D01*
X10053900Y8553900D02*
X9953900Y8453900D01*
X10053900Y8503900D02*
G75*
G03*
X10053900Y8503900I-50000J0D01*
G01*
X9953900Y8053900D02*
X10053900Y7953900D01*
X10053900Y8053900D02*
X9953900Y7953900D01*
X10053900Y8003900D02*
G75*
G03*
X10053900Y8003900I-50000J0D01*
G01*
X10008400Y6527000D02*
X10108400Y6427000D01*
X10108400Y6527000D02*
X10008400Y6427000D01*
X10108400Y6477000D02*
G75*
G03*
X10108400Y6477000I-50000J0D01*
G01*
X10791800Y8553900D02*
X10891800Y8453900D01*
X10891800Y8553900D02*
X10791800Y8453900D01*
X10891800Y8503900D02*
G75*
G03*
X10891800Y8503900I-50000J0D01*
G01*
X10791800Y8053900D02*
X10891800Y7953900D01*
X10891800Y8053900D02*
X10791800Y7953900D01*
X10891800Y8003900D02*
G75*
G03*
X10891800Y8003900I-50000J0D01*
G01*
X10805300Y13726382D02*
X10905300Y13626382D01*
X10905300Y13726382D02*
X10805300Y13626382D01*
X10905300Y13676382D02*
G75*
G03*
X10905300Y13676382I-50000J0D01*
G01*
X10840300Y11408600D02*
X10940300Y11308600D01*
X10940300Y11408600D02*
X10840300Y11308600D01*
X10940300Y11358600D02*
G75*
G03*
X10940300Y11358600I-50000J0D01*
G01*
X10840300Y9089200D02*
X10940300Y8989200D01*
X10940300Y9089200D02*
X10840300Y8989200D01*
X10940300Y9039200D02*
G75*
G03*
X10940300Y9039200I-50000J0D01*
G01*
X10995800Y8553900D02*
X11095800Y8453900D01*
X11095800Y8553900D02*
X10995800Y8453900D01*
X11095800Y8503900D02*
G75*
G03*
X11095800Y8503900I-50000J0D01*
G01*
X10995800Y8053900D02*
X11095800Y7953900D01*
X11095800Y8053900D02*
X10995800Y7953900D01*
X11095800Y8003900D02*
G75*
G03*
X11095800Y8003900I-50000J0D01*
G01*
X11059300Y13726382D02*
X11159300Y13626382D01*
X11159300Y13726382D02*
X11059300Y13626382D01*
X11159300Y13676382D02*
G75*
G03*
X11159300Y13676382I-50000J0D01*
G01*
X11094300Y11408600D02*
X11194300Y11308600D01*
X11194300Y11408600D02*
X11094300Y11308600D01*
X11194300Y11358600D02*
G75*
G03*
X11194300Y11358600I-50000J0D01*
G01*
X11094300Y9089200D02*
X11194300Y8989200D01*
X11194300Y9089200D02*
X11094300Y8989200D01*
X11194300Y9039200D02*
G75*
G03*
X11194300Y9039200I-50000J0D01*
G01*
X11199800Y8553900D02*
X11299800Y8453900D01*
X11299800Y8553900D02*
X11199800Y8453900D01*
X11299800Y8503900D02*
G75*
G03*
X11299800Y8503900I-50000J0D01*
G01*
X11199800Y8053900D02*
X11299800Y7953900D01*
X11299800Y8053900D02*
X11199800Y7953900D01*
X11299800Y8003900D02*
G75*
G03*
X11299800Y8003900I-50000J0D01*
G01*
X11995700Y8553900D02*
X12095700Y8453900D01*
X12095700Y8553900D02*
X11995700Y8453900D01*
X12095700Y8503900D02*
G75*
G03*
X12095700Y8503900I-50000J0D01*
G01*
X11995700Y8053900D02*
X12095700Y7953900D01*
X12095700Y8053900D02*
X11995700Y7953900D01*
X12095700Y8003900D02*
G75*
G03*
X12095700Y8003900I-50000J0D01*
G01*
X12023200Y13726382D02*
X12123200Y13626382D01*
X12123200Y13726382D02*
X12023200Y13626382D01*
X12123200Y13676382D02*
G75*
G03*
X12123200Y13676382I-50000J0D01*
G01*
X12058200Y11408600D02*
X12158200Y11308600D01*
X12158200Y11408600D02*
X12058200Y11308600D01*
X12158200Y11358600D02*
G75*
G03*
X12158200Y11358600I-50000J0D01*
G01*
X12058200Y9089200D02*
X12158200Y8989200D01*
X12158200Y9089200D02*
X12058200Y8989200D01*
X12158200Y9039200D02*
G75*
G03*
X12158200Y9039200I-50000J0D01*
G01*
X12199700Y8553900D02*
X12299700Y8453900D01*
X12299700Y8553900D02*
X12199700Y8453900D01*
X12299700Y8503900D02*
G75*
G03*
X12299700Y8503900I-50000J0D01*
G01*
X12199700Y8053900D02*
X12299700Y7953900D01*
X12299700Y8053900D02*
X12199700Y7953900D01*
X12299700Y8003900D02*
G75*
G03*
X12299700Y8003900I-50000J0D01*
G01*
X12277200Y13726382D02*
X12377200Y13626382D01*
X12377200Y13726382D02*
X12277200Y13626382D01*
X12377200Y13676382D02*
G75*
G03*
X12377200Y13676382I-50000J0D01*
G01*
X12312200Y11408600D02*
X12412200Y11308600D01*
X12412200Y11408600D02*
X12312200Y11308600D01*
X12412200Y11358600D02*
G75*
G03*
X12412200Y11358600I-50000J0D01*
G01*
X12312200Y9089200D02*
X12412200Y8989200D01*
X12412200Y9089200D02*
X12312200Y8989200D01*
X12412200Y9039200D02*
G75*
G03*
X12412200Y9039200I-50000J0D01*
G01*
X12403700Y8553900D02*
X12503700Y8453900D01*
X12503700Y8553900D02*
X12403700Y8453900D01*
X12503700Y8503900D02*
G75*
G03*
X12503700Y8503900I-50000J0D01*
G01*
X12403700Y8053900D02*
X12503700Y7953900D01*
X12503700Y8053900D02*
X12403700Y7953900D01*
X12503700Y8003900D02*
G75*
G03*
X12503700Y8003900I-50000J0D01*
G01*
X13199600Y8553900D02*
X13299600Y8453900D01*
X13299600Y8553900D02*
X13199600Y8453900D01*
X13299600Y8503900D02*
G75*
G03*
X13299600Y8503900I-50000J0D01*
G01*
X13199600Y8053900D02*
X13299600Y7953900D01*
X13299600Y8053900D02*
X13199600Y7953900D01*
X13299600Y8003900D02*
G75*
G03*
X13299600Y8003900I-50000J0D01*
G01*
X13241100Y13726382D02*
X13341100Y13626382D01*
X13341100Y13726382D02*
X13241100Y13626382D01*
X13341100Y13676382D02*
G75*
G03*
X13341100Y13676382I-50000J0D01*
G01*
X13276100Y11408600D02*
X13376100Y11308600D01*
X13376100Y11408600D02*
X13276100Y11308600D01*
X13376100Y11358600D02*
G75*
G03*
X13376100Y11358600I-50000J0D01*
G01*
X13276100Y9089200D02*
X13376100Y8989200D01*
X13376100Y9089200D02*
X13276100Y8989200D01*
X13376100Y9039200D02*
G75*
G03*
X13376100Y9039200I-50000J0D01*
G01*
X13351000Y2927900D02*
X13451000Y2827900D01*
X13451000Y2927900D02*
X13351000Y2827900D01*
X13451000Y2877900D02*
G75*
G03*
X13451000Y2877900I-50000J0D01*
G01*
X13351000Y2140500D02*
X13451000Y2040500D01*
X13451000Y2140500D02*
X13351000Y2040500D01*
X13451000Y2090500D02*
G75*
G03*
X13451000Y2090500I-50000J0D01*
G01*
X13403600Y8553900D02*
X13503600Y8453900D01*
X13503600Y8553900D02*
X13403600Y8453900D01*
X13503600Y8503900D02*
G75*
G03*
X13503600Y8503900I-50000J0D01*
G01*
X13403600Y8053900D02*
X13503600Y7953900D01*
X13503600Y8053900D02*
X13403600Y7953900D01*
X13503600Y8003900D02*
G75*
G03*
X13503600Y8003900I-50000J0D01*
G01*
X13495100Y13726382D02*
X13595100Y13626382D01*
X13595100Y13726382D02*
X13495100Y13626382D01*
X13595100Y13676382D02*
G75*
G03*
X13595100Y13676382I-50000J0D01*
G01*
X13530100Y11408600D02*
X13630100Y11308600D01*
X13630100Y11408600D02*
X13530100Y11308600D01*
X13630100Y11358600D02*
G75*
G03*
X13630100Y11358600I-50000J0D01*
G01*
X13530100Y9089200D02*
X13630100Y8989200D01*
X13630100Y9089200D02*
X13530100Y8989200D01*
X13630100Y9039200D02*
G75*
G03*
X13630100Y9039200I-50000J0D01*
G01*
X13605000Y2927900D02*
X13705000Y2827900D01*
X13705000Y2927900D02*
X13605000Y2827900D01*
X13705000Y2877900D02*
G75*
G03*
X13705000Y2877900I-50000J0D01*
G01*
X13605000Y2140500D02*
X13705000Y2040500D01*
X13705000Y2140500D02*
X13605000Y2040500D01*
X13705000Y2090500D02*
G75*
G03*
X13705000Y2090500I-50000J0D01*
G01*
X13607600Y8553900D02*
X13707600Y8453900D01*
X13707600Y8553900D02*
X13607600Y8453900D01*
X13707600Y8503900D02*
G75*
G03*
X13707600Y8503900I-50000J0D01*
G01*
X13607600Y8053900D02*
X13707600Y7953900D01*
X13707600Y8053900D02*
X13607600Y7953900D01*
X13707600Y8003900D02*
G75*
G03*
X13707600Y8003900I-50000J0D01*
G01*
X13859000Y2927900D02*
X13959000Y2827900D01*
X13959000Y2927900D02*
X13859000Y2827900D01*
X13959000Y2877900D02*
G75*
G03*
X13959000Y2877900I-50000J0D01*
G01*
X13859000Y2140500D02*
X13959000Y2040500D01*
X13959000Y2140500D02*
X13859000Y2040500D01*
X13959000Y2090500D02*
G75*
G03*
X13959000Y2090500I-50000J0D01*
G01*
X14113000Y2927900D02*
X14213000Y2827900D01*
X14213000Y2927900D02*
X14113000Y2827900D01*
X14213000Y2877900D02*
G75*
G03*
X14213000Y2877900I-50000J0D01*
G01*
X14113000Y2140500D02*
X14213000Y2040500D01*
X14213000Y2140500D02*
X14113000Y2040500D01*
X14213000Y2090500D02*
G75*
G03*
X14213000Y2090500I-50000J0D01*
G01*
X14982600Y9273400D02*
X15082600Y9173400D01*
X15082600Y9273400D02*
X14982600Y9173400D01*
X15082600Y9223400D02*
G75*
G03*
X15082600Y9223400I-50000J0D01*
G01*
X14984600Y8519400D02*
X15084600Y8419400D01*
X15084600Y8519400D02*
X14984600Y8419400D01*
X15084600Y8469400D02*
G75*
G03*
X15084600Y8469400I-50000J0D01*
G01*
X15236600Y9273400D02*
X15336600Y9173400D01*
X15336600Y9273400D02*
X15236600Y9173400D01*
X15336600Y9223400D02*
G75*
G03*
X15336600Y9223400I-50000J0D01*
G01*
X15238600Y8519400D02*
X15338600Y8419400D01*
X15338600Y8519400D02*
X15238600Y8419400D01*
X15338600Y8469400D02*
G75*
G03*
X15338600Y8469400I-50000J0D01*
G01*
X15490600Y9273400D02*
X15590600Y9173400D01*
X15590600Y9273400D02*
X15490600Y9173400D01*
X15590600Y9223400D02*
G75*
G03*
X15590600Y9223400I-50000J0D01*
G01*
X15492600Y8519400D02*
X15592600Y8419400D01*
X15592600Y8519400D02*
X15492600Y8419400D01*
X15592600Y8469400D02*
G75*
G03*
X15592600Y8469400I-50000J0D01*
G01*
X15744600Y9273400D02*
X15844600Y9173400D01*
X15844600Y9273400D02*
X15744600Y9173400D01*
X15844600Y9223400D02*
G75*
G03*
X15844600Y9223400I-50000J0D01*
G01*
X15746600Y8519400D02*
X15846600Y8419400D01*
X15846600Y8519400D02*
X15746600Y8419400D01*
X15846600Y8469400D02*
G75*
G03*
X15846600Y8469400I-50000J0D01*
G01*
X16002800Y2640800D02*
X16102800Y2540800D01*
X16102800Y2640800D02*
X16002800Y2540800D01*
X16102800Y2590800D02*
G75*
G03*
X16102800Y2590800I-50000J0D01*
G01*
X16002800Y2386800D02*
X16102800Y2286800D01*
X16102800Y2386800D02*
X16002800Y2286800D01*
X16102800Y2336800D02*
G75*
G03*
X16102800Y2336800I-50000J0D01*
G01*
X16002800Y2132800D02*
X16102800Y2032800D01*
X16102800Y2132800D02*
X16002800Y2032800D01*
X16102800Y2082800D02*
G75*
G03*
X16102800Y2082800I-50000J0D01*
G01*
X16966200Y13462700D02*
X17066200Y13362700D01*
X17066200Y13462700D02*
X16966200Y13362700D01*
X17066200Y13412700D02*
G75*
G03*
X17066200Y13412700I-50000J0D01*
G01*
X16966200Y13208700D02*
X17066200Y13108700D01*
X17066200Y13208700D02*
X16966200Y13108700D01*
X17066200Y13158700D02*
G75*
G03*
X17066200Y13158700I-50000J0D01*
G01*
X16966200Y12954700D02*
X17066200Y12854700D01*
X17066200Y12954700D02*
X16966200Y12854700D01*
X17066200Y12904700D02*
G75*
G03*
X17066200Y12904700I-50000J0D01*
G01*
X17323600Y9019400D02*
X17423600Y8919400D01*
X17423600Y9019400D02*
X17323600Y8919400D01*
X17423600Y8969400D02*
G75*
G03*
X17423600Y8969400I-50000J0D01*
G01*
X17334600Y8519400D02*
X17434600Y8419400D01*
X17434600Y8519400D02*
X17334600Y8419400D01*
X17434600Y8469400D02*
G75*
G03*
X17434600Y8469400I-50000J0D01*
G01*
X17374400Y5560300D02*
X17474400Y5460300D01*
X17474400Y5560300D02*
X17374400Y5460300D01*
X17474400Y5510300D02*
G75*
G03*
X17474400Y5510300I-50000J0D01*
G01*
X17374400Y5306300D02*
X17474400Y5206300D01*
X17474400Y5306300D02*
X17374400Y5206300D01*
X17474400Y5256300D02*
G75*
G03*
X17474400Y5256300I-50000J0D01*
G01*
X17374400Y5052300D02*
X17474400Y4952300D01*
X17474400Y5052300D02*
X17374400Y4952300D01*
X17474400Y5002300D02*
G75*
G03*
X17474400Y5002300I-50000J0D01*
G01*
X17399800Y6679900D02*
X17499800Y6579900D01*
X17499800Y6679900D02*
X17399800Y6579900D01*
X17499800Y6629900D02*
G75*
G03*
X17499800Y6629900I-50000J0D01*
G01*
X17399800Y6425900D02*
X17499800Y6325900D01*
X17499800Y6425900D02*
X17399800Y6325900D01*
X17499800Y6375900D02*
G75*
G03*
X17499800Y6375900I-50000J0D01*
G01*
X17577600Y9019400D02*
X17677600Y8919400D01*
X17677600Y9019400D02*
X17577600Y8919400D01*
X17677600Y8969400D02*
G75*
G03*
X17677600Y8969400I-50000J0D01*
G01*
X17588600Y8519400D02*
X17688600Y8419400D01*
X17688600Y8519400D02*
X17588600Y8419400D01*
X17688600Y8469400D02*
G75*
G03*
X17688600Y8469400I-50000J0D01*
G01*
X17741000Y19406400D02*
X17841000Y19306400D01*
X17841000Y19406400D02*
X17741000Y19306400D01*
X17841000Y19356400D02*
G75*
G03*
X17841000Y19356400I-50000J0D01*
G01*
X17741000Y18898400D02*
X17841000Y18798400D01*
X17841000Y18898400D02*
X17741000Y18798400D01*
X17841000Y18848400D02*
G75*
G03*
X17841000Y18848400I-50000J0D01*
G01*
X17831600Y9019400D02*
X17931600Y8919400D01*
X17931600Y9019400D02*
X17831600Y8919400D01*
X17931600Y8969400D02*
G75*
G03*
X17931600Y8969400I-50000J0D01*
G01*
X17842600Y8519400D02*
X17942600Y8419400D01*
X17942600Y8519400D02*
X17842600Y8419400D01*
X17942600Y8469400D02*
G75*
G03*
X17942600Y8469400I-50000J0D01*
G01*
X17995000Y19406400D02*
X18095000Y19306400D01*
X18095000Y19406400D02*
X17995000Y19306400D01*
X18095000Y19356400D02*
G75*
G03*
X18095000Y19356400I-50000J0D01*
G01*
X17995000Y18898400D02*
X18095000Y18798400D01*
X18095000Y18898400D02*
X17995000Y18798400D01*
X18095000Y18848400D02*
G75*
G03*
X18095000Y18848400I-50000J0D01*
G01*
X18085600Y9019400D02*
X18185600Y8919400D01*
X18185600Y9019400D02*
X18085600Y8919400D01*
X18185600Y8969400D02*
G75*
G03*
X18185600Y8969400I-50000J0D01*
G01*
X18249000Y19406400D02*
X18349000Y19306400D01*
X18349000Y19406400D02*
X18249000Y19306400D01*
X18349000Y19356400D02*
G75*
G03*
X18349000Y19356400I-50000J0D01*
G01*
X18249000Y18898400D02*
X18349000Y18798400D01*
X18349000Y18898400D02*
X18249000Y18798400D01*
X18349000Y18848400D02*
G75*
G03*
X18349000Y18848400I-50000J0D01*
G01*
X18503000Y19406400D02*
X18603000Y19306400D01*
X18603000Y19406400D02*
X18503000Y19306400D01*
X18603000Y19356400D02*
G75*
G03*
X18603000Y19356400I-50000J0D01*
G01*
X18503000Y18898400D02*
X18603000Y18798400D01*
X18603000Y18898400D02*
X18503000Y18798400D01*
X18603000Y18848400D02*
G75*
G03*
X18603000Y18848400I-50000J0D01*
G01*
X18757000Y19406400D02*
X18857000Y19306400D01*
X18857000Y19406400D02*
X18757000Y19306400D01*
X18857000Y19356400D02*
G75*
G03*
X18857000Y19356400I-50000J0D01*
G01*
X18757000Y18898400D02*
X18857000Y18798400D01*
X18857000Y18898400D02*
X18757000Y18798400D01*
X18857000Y18848400D02*
G75*
G03*
X18857000Y18848400I-50000J0D01*
G01*
X18898400Y6932400D02*
X18998400Y6832400D01*
X18998400Y6932400D02*
X18898400Y6832400D01*
X18998400Y6882400D02*
G75*
G03*
X18998400Y6882400I-50000J0D01*
G01*
X18898400Y6172400D02*
X18998400Y6072400D01*
X18998400Y6172400D02*
X18898400Y6072400D01*
X18998400Y6122400D02*
G75*
G03*
X18998400Y6122400I-50000J0D01*
G01*
X19011000Y19406400D02*
X19111000Y19306400D01*
X19111000Y19406400D02*
X19011000Y19306400D01*
X19111000Y19356400D02*
G75*
G03*
X19111000Y19356400I-50000J0D01*
G01*
X19011000Y18898400D02*
X19111000Y18798400D01*
X19111000Y18898400D02*
X19011000Y18798400D01*
X19111000Y18848400D02*
G75*
G03*
X19111000Y18848400I-50000J0D01*
G01*
X19265000Y19406400D02*
X19365000Y19306400D01*
X19365000Y19406400D02*
X19265000Y19306400D01*
X19365000Y19356400D02*
G75*
G03*
X19365000Y19356400I-50000J0D01*
G01*
X19265000Y18898400D02*
X19365000Y18798400D01*
X19365000Y18898400D02*
X19265000Y18798400D01*
X19365000Y18848400D02*
G75*
G03*
X19365000Y18848400I-50000J0D01*
G01*
X19519000Y19406400D02*
X19619000Y19306400D01*
X19619000Y19406400D02*
X19519000Y19306400D01*
X19619000Y19356400D02*
G75*
G03*
X19619000Y19356400I-50000J0D01*
G01*
X19519000Y18898400D02*
X19619000Y18798400D01*
X19619000Y18898400D02*
X19519000Y18798400D01*
X19619000Y18848400D02*
G75*
G03*
X19619000Y18848400I-50000J0D01*
G01*
X19557100Y8519400D02*
X19657100Y8419400D01*
X19657100Y8519400D02*
X19557100Y8419400D01*
X19657100Y8469400D02*
G75*
G03*
X19657100Y8469400I-50000J0D01*
G01*
X19773000Y19406400D02*
X19873000Y19306400D01*
X19873000Y19406400D02*
X19773000Y19306400D01*
X19873000Y19356400D02*
G75*
G03*
X19873000Y19356400I-50000J0D01*
G01*
X19773000Y18898400D02*
X19873000Y18798400D01*
X19873000Y18898400D02*
X19773000Y18798400D01*
X19873000Y18848400D02*
G75*
G03*
X19873000Y18848400I-50000J0D01*
G01*
X19811100Y8519400D02*
X19911100Y8419400D01*
X19911100Y8519400D02*
X19811100Y8419400D01*
X19911100Y8469400D02*
G75*
G03*
X19911100Y8469400I-50000J0D01*
G01*
X20027000Y19406400D02*
X20127000Y19306400D01*
X20127000Y19406400D02*
X20027000Y19306400D01*
X20127000Y19356400D02*
G75*
G03*
X20127000Y19356400I-50000J0D01*
G01*
X20027000Y18898400D02*
X20127000Y18798400D01*
X20127000Y18898400D02*
X20027000Y18798400D01*
X20127000Y18848400D02*
G75*
G03*
X20127000Y18848400I-50000J0D01*
G01*
X20065100Y8519400D02*
X20165100Y8419400D01*
X20165100Y8519400D02*
X20065100Y8419400D01*
X20165100Y8469400D02*
G75*
G03*
X20165100Y8469400I-50000J0D01*
G01*
X20281000Y19406400D02*
X20381000Y19306400D01*
X20381000Y19406400D02*
X20281000Y19306400D01*
X20381000Y19356400D02*
G75*
G03*
X20381000Y19356400I-50000J0D01*
G01*
X20281000Y18898400D02*
X20381000Y18798400D01*
X20381000Y18898400D02*
X20281000Y18798400D01*
X20381000Y18848400D02*
G75*
G03*
X20381000Y18848400I-50000J0D01*
G01*
X20320800Y5687800D02*
X20420800Y5587800D01*
X20420800Y5687800D02*
X20320800Y5587800D01*
X20420800Y5637800D02*
G75*
G03*
X20420800Y5637800I-50000J0D01*
G01*
X20320800Y4927800D02*
X20420800Y4827800D01*
X20420800Y4927800D02*
X20320800Y4827800D01*
X20420800Y4877800D02*
G75*
G03*
X20420800Y4877800I-50000J0D01*
G01*
X20525400Y13462700D02*
X20625400Y13362700D01*
X20625400Y13462700D02*
X20525400Y13362700D01*
X20625400Y13412700D02*
G75*
G03*
X20625400Y13412700I-50000J0D01*
G01*
X20525400Y13208700D02*
X20625400Y13108700D01*
X20625400Y13208700D02*
X20525400Y13108700D01*
X20625400Y13158700D02*
G75*
G03*
X20625400Y13158700I-50000J0D01*
G01*
X20525400Y12954700D02*
X20625400Y12854700D01*
X20625400Y12954700D02*
X20525400Y12854700D01*
X20625400Y12904700D02*
G75*
G03*
X20625400Y12904700I-50000J0D01*
G01*
X20535000Y19406400D02*
X20635000Y19306400D01*
X20635000Y19406400D02*
X20535000Y19306400D01*
X20635000Y19356400D02*
G75*
G03*
X20635000Y19356400I-50000J0D01*
G01*
X20535000Y18898400D02*
X20635000Y18798400D01*
X20635000Y18898400D02*
X20535000Y18798400D01*
X20635000Y18848400D02*
G75*
G03*
X20635000Y18848400I-50000J0D01*
G01*
X20789000Y19406400D02*
X20889000Y19306400D01*
X20889000Y19406400D02*
X20789000Y19306400D01*
X20889000Y19356400D02*
G75*
G03*
X20889000Y19356400I-50000J0D01*
G01*
X20789000Y18898400D02*
X20889000Y18798400D01*
X20889000Y18898400D02*
X20789000Y18798400D01*
X20889000Y18848400D02*
G75*
G03*
X20889000Y18848400I-50000J0D01*
G01*
X21043000Y19406400D02*
X21143000Y19306400D01*
X21143000Y19406400D02*
X21043000Y19306400D01*
X21143000Y19356400D02*
G75*
G03*
X21143000Y19356400I-50000J0D01*
G01*
X21043000Y18898400D02*
X21143000Y18798400D01*
X21143000Y18898400D02*
X21043000Y18798400D01*
X21143000Y18848400D02*
G75*
G03*
X21143000Y18848400I-50000J0D01*
G01*
X21297000Y19406400D02*
X21397000Y19306400D01*
X21397000Y19406400D02*
X21297000Y19306400D01*
X21397000Y19356400D02*
G75*
G03*
X21397000Y19356400I-50000J0D01*
G01*
X21297000Y18898400D02*
X21397000Y18798400D01*
X21397000Y18898400D02*
X21297000Y18798400D01*
X21397000Y18848400D02*
G75*
G03*
X21397000Y18848400I-50000J0D01*
G01*
X21551000Y19406400D02*
X21651000Y19306400D01*
X21651000Y19406400D02*
X21551000Y19306400D01*
X21651000Y19356400D02*
G75*
G03*
X21651000Y19356400I-50000J0D01*
G01*
X21551000Y18898400D02*
X21651000Y18798400D01*
X21651000Y18898400D02*
X21551000Y18798400D01*
X21651000Y18848400D02*
G75*
G03*
X21651000Y18848400I-50000J0D01*
G01*
X21895600Y4417300D02*
X21995600Y4317300D01*
X21995600Y4417300D02*
X21895600Y4317300D01*
X21995600Y4367300D02*
G75*
G03*
X21995600Y4367300I-50000J0D01*
G01*
X21895600Y4163300D02*
X21995600Y4063300D01*
X21995600Y4163300D02*
X21895600Y4063300D01*
X21995600Y4113300D02*
G75*
G03*
X21995600Y4113300I-50000J0D01*
G01*
X21895600Y3909300D02*
X21995600Y3809300D01*
X21995600Y3909300D02*
X21895600Y3809300D01*
X21995600Y3859300D02*
G75*
G03*
X21995600Y3859300I-50000J0D01*
G01*
X21895600Y3655300D02*
X21995600Y3555300D01*
X21995600Y3655300D02*
X21895600Y3555300D01*
X21995600Y3605300D02*
G75*
G03*
X21995600Y3605300I-50000J0D01*
G01*
X21895600Y3401300D02*
X21995600Y3301300D01*
X21995600Y3401300D02*
X21895600Y3301300D01*
X21995600Y3351300D02*
G75*
G03*
X21995600Y3351300I-50000J0D01*
G01*
X21895600Y3147300D02*
X21995600Y3047300D01*
X21995600Y3147300D02*
X21895600Y3047300D01*
X21995600Y3097300D02*
G75*
G03*
X21995600Y3097300I-50000J0D01*
G01*
X21895600Y2893300D02*
X21995600Y2793300D01*
X21995600Y2893300D02*
X21895600Y2793300D01*
X21995600Y2843300D02*
G75*
G03*
X21995600Y2843300I-50000J0D01*
G01*
X21895600Y2639300D02*
X21995600Y2539300D01*
X21995600Y2639300D02*
X21895600Y2539300D01*
X21995600Y2589300D02*
G75*
G03*
X21995600Y2589300I-50000J0D01*
G01*
X22251100Y13743100D02*
X22351100Y13643100D01*
X22351100Y13743100D02*
X22251100Y13643100D01*
X22351100Y13693100D02*
G75*
G03*
X22351100Y13693100I-50000J0D01*
G01*
X22505100Y13743100D02*
X22605100Y13643100D01*
X22605100Y13743100D02*
X22505100Y13643100D01*
X22605100Y13693100D02*
G75*
G03*
X22605100Y13693100I-50000J0D01*
G01*
X22759100Y13743100D02*
X22859100Y13643100D01*
X22859100Y13743100D02*
X22759100Y13643100D01*
X22859100Y13693100D02*
G75*
G03*
X22859100Y13693100I-50000J0D01*
G01*
X23013100Y13743100D02*
X23113100Y13643100D01*
X23113100Y13743100D02*
X23013100Y13643100D01*
X23113100Y13693100D02*
G75*
G03*
X23113100Y13693100I-50000J0D01*
G01*
X23267100Y13743100D02*
X23367100Y13643100D01*
X23367100Y13743100D02*
X23267100Y13643100D01*
X23367100Y13693100D02*
G75*
G03*
X23367100Y13693100I-50000J0D01*
G01*
X23521100Y13743100D02*
X23621100Y13643100D01*
X23621100Y13743100D02*
X23521100Y13643100D01*
X23621100Y13693100D02*
G75*
G03*
X23621100Y13693100I-50000J0D01*
G01*
X23775100Y13743100D02*
X23875100Y13643100D01*
X23875100Y13743100D02*
X23775100Y13643100D01*
X23875100Y13693100D02*
G75*
G03*
X23875100Y13693100I-50000J0D01*
G01*
X24029100Y13743100D02*
X24129100Y13643100D01*
X24129100Y13743100D02*
X24029100Y13643100D01*
X24129100Y13693100D02*
G75*
G03*
X24129100Y13693100I-50000J0D01*
G01*
X28222500Y4420300D02*
X28322500Y4320300D01*
X28322500Y4420300D02*
X28222500Y4320300D01*
X28322500Y4370300D02*
G75*
G03*
X28322500Y4370300I-50000J0D01*
G01*
X28222500Y4166300D02*
X28322500Y4066300D01*
X28322500Y4166300D02*
X28222500Y4066300D01*
X28322500Y4116300D02*
G75*
G03*
X28322500Y4116300I-50000J0D01*
G01*
X28222500Y3912300D02*
X28322500Y3812300D01*
X28322500Y3912300D02*
X28222500Y3812300D01*
X28322500Y3862300D02*
G75*
G03*
X28322500Y3862300I-50000J0D01*
G01*
X28222500Y3658300D02*
X28322500Y3558300D01*
X28322500Y3658300D02*
X28222500Y3558300D01*
X28322500Y3608300D02*
G75*
G03*
X28322500Y3608300I-50000J0D01*
G01*
X28222500Y3404300D02*
X28322500Y3304300D01*
X28322500Y3404300D02*
X28222500Y3304300D01*
X28322500Y3354300D02*
G75*
G03*
X28322500Y3354300I-50000J0D01*
G01*
X28222500Y3150300D02*
X28322500Y3050300D01*
X28322500Y3150300D02*
X28222500Y3050300D01*
X28322500Y3100300D02*
G75*
G03*
X28322500Y3100300I-50000J0D01*
G01*
X28222500Y2896300D02*
X28322500Y2796300D01*
X28322500Y2896300D02*
X28222500Y2796300D01*
X28322500Y2846300D02*
G75*
G03*
X28322500Y2846300I-50000J0D01*
G01*
X28222500Y2642300D02*
X28322500Y2542300D01*
X28322500Y2642300D02*
X28222500Y2542300D01*
X28322500Y2592300D02*
G75*
G03*
X28322500Y2592300I-50000J0D01*
G01*
D18*
X723933Y4374600D02*
X833933Y4264600D01*
X833933Y4374600D02*
X723933Y4264600D01*
X778933Y4374600D02*
X778933Y4264600D01*
X723933Y4319600D02*
X833933Y4319600D01*
X1739933Y4374600D02*
X1849933Y4264600D01*
X1849933Y4374600D02*
X1739933Y4264600D01*
X1794933Y4374600D02*
X1794933Y4264600D01*
X1739933Y4319600D02*
X1849933Y4319600D01*
X2544267Y4374600D02*
X2654267Y4264600D01*
X2654267Y4374600D02*
X2544267Y4264600D01*
X2599267Y4374600D02*
X2599267Y4264600D01*
X2544267Y4319600D02*
X2654267Y4319600D01*
X3560267Y4374600D02*
X3670267Y4264600D01*
X3670267Y4374600D02*
X3560267Y4264600D01*
X3615267Y4374600D02*
X3615267Y4264600D01*
X3560267Y4319600D02*
X3670267Y4319600D01*
X4364600Y4374600D02*
X4474600Y4264600D01*
X4474600Y4374600D02*
X4364600Y4264600D01*
X4419600Y4374600D02*
X4419600Y4264600D01*
X4364600Y4319600D02*
X4474600Y4319600D01*
X5380600Y4374600D02*
X5490600Y4264600D01*
X5490600Y4374600D02*
X5380600Y4264600D01*
X5435600Y4374600D02*
X5435600Y4264600D01*
X5380600Y4319600D02*
X5490600Y4319600D01*
X6184933Y4374600D02*
X6294933Y4264600D01*
X6294933Y4374600D02*
X6184933Y4264600D01*
X6239933Y4374600D02*
X6239933Y4264600D01*
X6184933Y4319600D02*
X6294933Y4319600D01*
X7200933Y4374600D02*
X7310933Y4264600D01*
X7310933Y4374600D02*
X7200933Y4264600D01*
X7255933Y4374600D02*
X7255933Y4264600D01*
X7200933Y4319600D02*
X7310933Y4319600D01*
X8202000Y10713600D02*
X8312000Y10603600D01*
X8312000Y10713600D02*
X8202000Y10603600D01*
X8257000Y10713600D02*
X8257000Y10603600D01*
X8202000Y10658600D02*
X8312000Y10658600D01*
X8202000Y10263600D02*
X8312000Y10153600D01*
X8312000Y10263600D02*
X8202000Y10153600D01*
X8257000Y10263600D02*
X8257000Y10153600D01*
X8202000Y10208600D02*
X8312000Y10208600D01*
X8852000Y10713600D02*
X8962000Y10603600D01*
X8962000Y10713600D02*
X8852000Y10603600D01*
X8907000Y10713600D02*
X8907000Y10603600D01*
X8852000Y10658600D02*
X8962000Y10658600D01*
X8852000Y10263600D02*
X8962000Y10153600D01*
X8962000Y10263600D02*
X8852000Y10153600D01*
X8907000Y10263600D02*
X8907000Y10153600D01*
X8852000Y10208600D02*
X8962000Y10208600D01*
X9419900Y10713600D02*
X9529900Y10603600D01*
X9529900Y10713600D02*
X9419900Y10603600D01*
X9474900Y10713600D02*
X9474900Y10603600D01*
X9419900Y10658600D02*
X9529900Y10658600D01*
X9419900Y10263600D02*
X9529900Y10153600D01*
X9529900Y10263600D02*
X9419900Y10153600D01*
X9474900Y10263600D02*
X9474900Y10153600D01*
X9419900Y10208600D02*
X9529900Y10208600D01*
X10069900Y10713600D02*
X10179900Y10603600D01*
X10179900Y10713600D02*
X10069900Y10603600D01*
X10124900Y10713600D02*
X10124900Y10603600D01*
X10069900Y10658600D02*
X10179900Y10658600D01*
X10069900Y10263600D02*
X10179900Y10153600D01*
X10179900Y10263600D02*
X10069900Y10153600D01*
X10124900Y10263600D02*
X10124900Y10153600D01*
X10069900Y10208600D02*
X10179900Y10208600D01*
X10637800Y10713600D02*
X10747800Y10603600D01*
X10747800Y10713600D02*
X10637800Y10603600D01*
X10692800Y10713600D02*
X10692800Y10603600D01*
X10637800Y10658600D02*
X10747800Y10658600D01*
X10637800Y10263600D02*
X10747800Y10153600D01*
X10747800Y10263600D02*
X10637800Y10153600D01*
X10692800Y10263600D02*
X10692800Y10153600D01*
X10637800Y10208600D02*
X10747800Y10208600D01*
X11287800Y10713600D02*
X11397800Y10603600D01*
X11397800Y10713600D02*
X11287800Y10603600D01*
X11342800Y10713600D02*
X11342800Y10603600D01*
X11287800Y10658600D02*
X11397800Y10658600D01*
X11287800Y10263600D02*
X11397800Y10153600D01*
X11397800Y10263600D02*
X11287800Y10153600D01*
X11342800Y10263600D02*
X11342800Y10153600D01*
X11287800Y10208600D02*
X11397800Y10208600D01*
X11855700Y10713600D02*
X11965700Y10603600D01*
X11965700Y10713600D02*
X11855700Y10603600D01*
X11910700Y10713600D02*
X11910700Y10603600D01*
X11855700Y10658600D02*
X11965700Y10658600D01*
X11855700Y10263600D02*
X11965700Y10153600D01*
X11965700Y10263600D02*
X11855700Y10153600D01*
X11910700Y10263600D02*
X11910700Y10153600D01*
X11855700Y10208600D02*
X11965700Y10208600D01*
X12505700Y10713600D02*
X12615700Y10603600D01*
X12615700Y10713600D02*
X12505700Y10603600D01*
X12560700Y10713600D02*
X12560700Y10603600D01*
X12505700Y10658600D02*
X12615700Y10658600D01*
X12505700Y10263600D02*
X12615700Y10153600D01*
X12615700Y10263600D02*
X12505700Y10153600D01*
X12560700Y10263600D02*
X12560700Y10153600D01*
X12505700Y10208600D02*
X12615700Y10208600D01*
X13073600Y10713600D02*
X13183600Y10603600D01*
X13183600Y10713600D02*
X13073600Y10603600D01*
X13128600Y10713600D02*
X13128600Y10603600D01*
X13073600Y10658600D02*
X13183600Y10658600D01*
X13073600Y10263600D02*
X13183600Y10153600D01*
X13183600Y10263600D02*
X13073600Y10153600D01*
X13128600Y10263600D02*
X13128600Y10153600D01*
X13073600Y10208600D02*
X13183600Y10208600D01*
X13723600Y10713600D02*
X13833600Y10603600D01*
X13833600Y10713600D02*
X13723600Y10603600D01*
X13778600Y10713600D02*
X13778600Y10603600D01*
X13723600Y10658600D02*
X13833600Y10658600D01*
X13723600Y10263600D02*
X13833600Y10153600D01*
X13833600Y10263600D02*
X13723600Y10153600D01*
X13778600Y10263600D02*
X13778600Y10153600D01*
X13723600Y10208600D02*
X13833600Y10208600D01*
X22318350Y12599000D02*
X22428350Y12489000D01*
X22428350Y12599000D02*
X22318350Y12489000D01*
X22373350Y12599000D02*
X22373350Y12489000D01*
X22318350Y12544000D02*
X22428350Y12544000D01*
X22318350Y12149000D02*
X22428350Y12039000D01*
X22428350Y12149000D02*
X22318350Y12039000D01*
X22373350Y12149000D02*
X22373350Y12039000D01*
X22318350Y12094000D02*
X22428350Y12094000D01*
X22318350Y10826267D02*
X22428350Y10716267D01*
X22428350Y10826267D02*
X22318350Y10716267D01*
X22373350Y10826267D02*
X22373350Y10716267D01*
X22318350Y10771267D02*
X22428350Y10771267D01*
X22318350Y10376267D02*
X22428350Y10266267D01*
X22428350Y10376267D02*
X22318350Y10266267D01*
X22373350Y10376267D02*
X22373350Y10266267D01*
X22318350Y10321267D02*
X22428350Y10321267D01*
X22318350Y8953533D02*
X22428350Y8843533D01*
X22428350Y8953533D02*
X22318350Y8843533D01*
X22373350Y8953533D02*
X22373350Y8843533D01*
X22318350Y8898533D02*
X22428350Y8898533D01*
X22318350Y8503533D02*
X22428350Y8393533D01*
X22428350Y8503533D02*
X22318350Y8393533D01*
X22373350Y8503533D02*
X22373350Y8393533D01*
X22318350Y8448533D02*
X22428350Y8448533D01*
X22318350Y7080800D02*
X22428350Y6970800D01*
X22428350Y7080800D02*
X22318350Y6970800D01*
X22373350Y7080800D02*
X22373350Y6970800D01*
X22318350Y7025800D02*
X22428350Y7025800D01*
X22318350Y6630800D02*
X22428350Y6520800D01*
X22428350Y6630800D02*
X22318350Y6520800D01*
X22373350Y6630800D02*
X22373350Y6520800D01*
X22318350Y6575800D02*
X22428350Y6575800D01*
X22968350Y12599000D02*
X23078350Y12489000D01*
X23078350Y12599000D02*
X22968350Y12489000D01*
X23023350Y12599000D02*
X23023350Y12489000D01*
X22968350Y12544000D02*
X23078350Y12544000D01*
X22968350Y12149000D02*
X23078350Y12039000D01*
X23078350Y12149000D02*
X22968350Y12039000D01*
X23023350Y12149000D02*
X23023350Y12039000D01*
X22968350Y12094000D02*
X23078350Y12094000D01*
X22968350Y10826267D02*
X23078350Y10716267D01*
X23078350Y10826267D02*
X22968350Y10716267D01*
X23023350Y10826267D02*
X23023350Y10716267D01*
X22968350Y10771267D02*
X23078350Y10771267D01*
X22968350Y10376267D02*
X23078350Y10266267D01*
X23078350Y10376267D02*
X22968350Y10266267D01*
X23023350Y10376267D02*
X23023350Y10266267D01*
X22968350Y10321267D02*
X23078350Y10321267D01*
X22968350Y8953533D02*
X23078350Y8843533D01*
X23078350Y8953533D02*
X22968350Y8843533D01*
X23023350Y8953533D02*
X23023350Y8843533D01*
X22968350Y8898533D02*
X23078350Y8898533D01*
X22968350Y8503533D02*
X23078350Y8393533D01*
X23078350Y8503533D02*
X22968350Y8393533D01*
X23023350Y8503533D02*
X23023350Y8393533D01*
X22968350Y8448533D02*
X23078350Y8448533D01*
X22968350Y7080800D02*
X23078350Y6970800D01*
X23078350Y7080800D02*
X22968350Y6970800D01*
X23023350Y7080800D02*
X23023350Y6970800D01*
X22968350Y7025800D02*
X23078350Y7025800D01*
X22968350Y6630800D02*
X23078350Y6520800D01*
X23078350Y6630800D02*
X22968350Y6520800D01*
X23023350Y6630800D02*
X23023350Y6520800D01*
X22968350Y6575800D02*
X23078350Y6575800D01*
X24398700Y12599000D02*
X24508700Y12489000D01*
X24508700Y12599000D02*
X24398700Y12489000D01*
X24453700Y12599000D02*
X24453700Y12489000D01*
X24398700Y12544000D02*
X24508700Y12544000D01*
X24398700Y12149000D02*
X24508700Y12039000D01*
X24508700Y12149000D02*
X24398700Y12039000D01*
X24453700Y12149000D02*
X24453700Y12039000D01*
X24398700Y12094000D02*
X24508700Y12094000D01*
X24398700Y10826267D02*
X24508700Y10716267D01*
X24508700Y10826267D02*
X24398700Y10716267D01*
X24453700Y10826267D02*
X24453700Y10716267D01*
X24398700Y10771267D02*
X24508700Y10771267D01*
X24398700Y10376267D02*
X24508700Y10266267D01*
X24508700Y10376267D02*
X24398700Y10266267D01*
X24453700Y10376267D02*
X24453700Y10266267D01*
X24398700Y10321267D02*
X24508700Y10321267D01*
X24398700Y8953533D02*
X24508700Y8843533D01*
X24508700Y8953533D02*
X24398700Y8843533D01*
X24453700Y8953533D02*
X24453700Y8843533D01*
X24398700Y8898533D02*
X24508700Y8898533D01*
X24398700Y8503533D02*
X24508700Y8393533D01*
X24508700Y8503533D02*
X24398700Y8393533D01*
X24453700Y8503533D02*
X24453700Y8393533D01*
X24398700Y8448533D02*
X24508700Y8448533D01*
X24398700Y7080800D02*
X24508700Y6970800D01*
X24508700Y7080800D02*
X24398700Y6970800D01*
X24453700Y7080800D02*
X24453700Y6970800D01*
X24398700Y7025800D02*
X24508700Y7025800D01*
X24398700Y6630800D02*
X24508700Y6520800D01*
X24508700Y6630800D02*
X24398700Y6520800D01*
X24453700Y6630800D02*
X24453700Y6520800D01*
X24398700Y6575800D02*
X24508700Y6575800D01*
X25048700Y12599000D02*
X25158700Y12489000D01*
X25158700Y12599000D02*
X25048700Y12489000D01*
X25103700Y12599000D02*
X25103700Y12489000D01*
X25048700Y12544000D02*
X25158700Y12544000D01*
X25048700Y12149000D02*
X25158700Y12039000D01*
X25158700Y12149000D02*
X25048700Y12039000D01*
X25103700Y12149000D02*
X25103700Y12039000D01*
X25048700Y12094000D02*
X25158700Y12094000D01*
X25048700Y10826267D02*
X25158700Y10716267D01*
X25158700Y10826267D02*
X25048700Y10716267D01*
X25103700Y10826267D02*
X25103700Y10716267D01*
X25048700Y10771267D02*
X25158700Y10771267D01*
X25048700Y10376267D02*
X25158700Y10266267D01*
X25158700Y10376267D02*
X25048700Y10266267D01*
X25103700Y10376267D02*
X25103700Y10266267D01*
X25048700Y10321267D02*
X25158700Y10321267D01*
X25048700Y8953533D02*
X25158700Y8843533D01*
X25158700Y8953533D02*
X25048700Y8843533D01*
X25103700Y8953533D02*
X25103700Y8843533D01*
X25048700Y8898533D02*
X25158700Y8898533D01*
X25048700Y8503533D02*
X25158700Y8393533D01*
X25158700Y8503533D02*
X25048700Y8393533D01*
X25103700Y8503533D02*
X25103700Y8393533D01*
X25048700Y8448533D02*
X25158700Y8448533D01*
X25048700Y7080800D02*
X25158700Y6970800D01*
X25158700Y7080800D02*
X25048700Y6970800D01*
X25103700Y7080800D02*
X25103700Y6970800D01*
X25048700Y7025800D02*
X25158700Y7025800D01*
X25048700Y6630800D02*
X25158700Y6520800D01*
X25158700Y6630800D02*
X25048700Y6520800D01*
X25103700Y6630800D02*
X25103700Y6520800D01*
X25048700Y6575800D02*
X25158700Y6575800D01*
X26346850Y12599000D02*
X26456850Y12489000D01*
X26456850Y12599000D02*
X26346850Y12489000D01*
X26401850Y12599000D02*
X26401850Y12489000D01*
X26346850Y12544000D02*
X26456850Y12544000D01*
X26346850Y12149000D02*
X26456850Y12039000D01*
X26456850Y12149000D02*
X26346850Y12039000D01*
X26401850Y12149000D02*
X26401850Y12039000D01*
X26346850Y12094000D02*
X26456850Y12094000D01*
X26346850Y10826267D02*
X26456850Y10716267D01*
X26456850Y10826267D02*
X26346850Y10716267D01*
X26401850Y10826267D02*
X26401850Y10716267D01*
X26346850Y10771267D02*
X26456850Y10771267D01*
X26346850Y10376267D02*
X26456850Y10266267D01*
X26456850Y10376267D02*
X26346850Y10266267D01*
X26401850Y10376267D02*
X26401850Y10266267D01*
X26346850Y10321267D02*
X26456850Y10321267D01*
X26346850Y8953533D02*
X26456850Y8843533D01*
X26456850Y8953533D02*
X26346850Y8843533D01*
X26401850Y8953533D02*
X26401850Y8843533D01*
X26346850Y8898533D02*
X26456850Y8898533D01*
X26346850Y8503533D02*
X26456850Y8393533D01*
X26456850Y8503533D02*
X26346850Y8393533D01*
X26401850Y8503533D02*
X26401850Y8393533D01*
X26346850Y8448533D02*
X26456850Y8448533D01*
X26346850Y7080800D02*
X26456850Y6970800D01*
X26456850Y7080800D02*
X26346850Y6970800D01*
X26401850Y7080800D02*
X26401850Y6970800D01*
X26346850Y7025800D02*
X26456850Y7025800D01*
X26346850Y6630800D02*
X26456850Y6520800D01*
X26456850Y6630800D02*
X26346850Y6520800D01*
X26401850Y6630800D02*
X26401850Y6520800D01*
X26346850Y6575800D02*
X26456850Y6575800D01*
X26996850Y12599000D02*
X27106850Y12489000D01*
X27106850Y12599000D02*
X26996850Y12489000D01*
X27051850Y12599000D02*
X27051850Y12489000D01*
X26996850Y12544000D02*
X27106850Y12544000D01*
X26996850Y12149000D02*
X27106850Y12039000D01*
X27106850Y12149000D02*
X26996850Y12039000D01*
X27051850Y12149000D02*
X27051850Y12039000D01*
X26996850Y12094000D02*
X27106850Y12094000D01*
X26996850Y10826267D02*
X27106850Y10716267D01*
X27106850Y10826267D02*
X26996850Y10716267D01*
X27051850Y10826267D02*
X27051850Y10716267D01*
X26996850Y10771267D02*
X27106850Y10771267D01*
X26996850Y10376267D02*
X27106850Y10266267D01*
X27106850Y10376267D02*
X26996850Y10266267D01*
X27051850Y10376267D02*
X27051850Y10266267D01*
X26996850Y10321267D02*
X27106850Y10321267D01*
X26996850Y8953533D02*
X27106850Y8843533D01*
X27106850Y8953533D02*
X26996850Y8843533D01*
X27051850Y8953533D02*
X27051850Y8843533D01*
X26996850Y8898533D02*
X27106850Y8898533D01*
X26996850Y8503533D02*
X27106850Y8393533D01*
X27106850Y8503533D02*
X26996850Y8393533D01*
X27051850Y8503533D02*
X27051850Y8393533D01*
X26996850Y8448533D02*
X27106850Y8448533D01*
X26996850Y7080800D02*
X27106850Y6970800D01*
X27106850Y7080800D02*
X26996850Y6970800D01*
X27051850Y7080800D02*
X27051850Y6970800D01*
X26996850Y7025800D02*
X27106850Y7025800D01*
X26996850Y6630800D02*
X27106850Y6520800D01*
X27106850Y6630800D02*
X26996850Y6520800D01*
X27051850Y6630800D02*
X27051850Y6520800D01*
X26996850Y6575800D02*
X27106850Y6575800D01*
X28295000Y12599000D02*
X28405000Y12489000D01*
X28405000Y12599000D02*
X28295000Y12489000D01*
X28350000Y12599000D02*
X28350000Y12489000D01*
X28295000Y12544000D02*
X28405000Y12544000D01*
X28295000Y12149000D02*
X28405000Y12039000D01*
X28405000Y12149000D02*
X28295000Y12039000D01*
X28350000Y12149000D02*
X28350000Y12039000D01*
X28295000Y12094000D02*
X28405000Y12094000D01*
X28295000Y10826267D02*
X28405000Y10716267D01*
X28405000Y10826267D02*
X28295000Y10716267D01*
X28350000Y10826267D02*
X28350000Y10716267D01*
X28295000Y10771267D02*
X28405000Y10771267D01*
X28295000Y10376267D02*
X28405000Y10266267D01*
X28405000Y10376267D02*
X28295000Y10266267D01*
X28350000Y10376267D02*
X28350000Y10266267D01*
X28295000Y10321267D02*
X28405000Y10321267D01*
X28295000Y8953533D02*
X28405000Y8843533D01*
X28405000Y8953533D02*
X28295000Y8843533D01*
X28350000Y8953533D02*
X28350000Y8843533D01*
X28295000Y8898533D02*
X28405000Y8898533D01*
X28295000Y8503533D02*
X28405000Y8393533D01*
X28405000Y8503533D02*
X28295000Y8393533D01*
X28350000Y8503533D02*
X28350000Y8393533D01*
X28295000Y8448533D02*
X28405000Y8448533D01*
X28295000Y7080800D02*
X28405000Y6970800D01*
X28405000Y7080800D02*
X28295000Y6970800D01*
X28350000Y7080800D02*
X28350000Y6970800D01*
X28295000Y7025800D02*
X28405000Y7025800D01*
X28295000Y6630800D02*
X28405000Y6520800D01*
X28405000Y6630800D02*
X28295000Y6520800D01*
X28350000Y6630800D02*
X28350000Y6520800D01*
X28295000Y6575800D02*
X28405000Y6575800D01*
X28945000Y12599000D02*
X29055000Y12489000D01*
X29055000Y12599000D02*
X28945000Y12489000D01*
X29000000Y12599000D02*
X29000000Y12489000D01*
X28945000Y12544000D02*
X29055000Y12544000D01*
X28945000Y12149000D02*
X29055000Y12039000D01*
X29055000Y12149000D02*
X28945000Y12039000D01*
X29000000Y12149000D02*
X29000000Y12039000D01*
X28945000Y12094000D02*
X29055000Y12094000D01*
X28945000Y10826267D02*
X29055000Y10716267D01*
X29055000Y10826267D02*
X28945000Y10716267D01*
X29000000Y10826267D02*
X29000000Y10716267D01*
X28945000Y10771267D02*
X29055000Y10771267D01*
X28945000Y10376267D02*
X29055000Y10266267D01*
X29055000Y10376267D02*
X28945000Y10266267D01*
X29000000Y10376267D02*
X29000000Y10266267D01*
X28945000Y10321267D02*
X29055000Y10321267D01*
X28945000Y8953533D02*
X29055000Y8843533D01*
X29055000Y8953533D02*
X28945000Y8843533D01*
X29000000Y8953533D02*
X29000000Y8843533D01*
X28945000Y8898533D02*
X29055000Y8898533D01*
X28945000Y8503533D02*
X29055000Y8393533D01*
X29055000Y8503533D02*
X28945000Y8393533D01*
X29000000Y8503533D02*
X29000000Y8393533D01*
X28945000Y8448533D02*
X29055000Y8448533D01*
X28945000Y7080800D02*
X29055000Y6970800D01*
X29055000Y7080800D02*
X28945000Y6970800D01*
X29000000Y7080800D02*
X29000000Y6970800D01*
X28945000Y7025800D02*
X29055000Y7025800D01*
X28945000Y6630800D02*
X29055000Y6520800D01*
X29055000Y6630800D02*
X28945000Y6520800D01*
X29000000Y6630800D02*
X29000000Y6520800D01*
X28945000Y6575800D02*
X29055000Y6575800D01*
D19*
X621933Y3686800D02*
X751933Y3556800D01*
X751933Y3686800D02*
X621933Y3556800D01*
X732896Y3575838D02*
X732896Y3667762D01*
X640971Y3667762D01*
X640971Y3575838D01*
X732896Y3575838D01*
X621933Y2466800D02*
X751933Y2336800D01*
X751933Y2466800D02*
X621933Y2336800D01*
X732896Y2355838D02*
X732896Y2447762D01*
X640971Y2447762D01*
X640971Y2355838D01*
X732896Y2355838D01*
X1221933Y2266800D02*
X1351933Y2136800D01*
X1351933Y2266800D02*
X1221933Y2136800D01*
X1332896Y2155838D02*
X1332896Y2247762D01*
X1240971Y2247762D01*
X1240971Y2155838D01*
X1332896Y2155838D01*
X1821933Y3686800D02*
X1951933Y3556800D01*
X1951933Y3686800D02*
X1821933Y3556800D01*
X1932896Y3575838D02*
X1932896Y3667762D01*
X1840971Y3667762D01*
X1840971Y3575838D01*
X1932896Y3575838D01*
X1821933Y2466800D02*
X1951933Y2336800D01*
X1951933Y2466800D02*
X1821933Y2336800D01*
X1932896Y2355838D02*
X1932896Y2447762D01*
X1840971Y2447762D01*
X1840971Y2355838D01*
X1932896Y2355838D01*
X2442267Y3686800D02*
X2572267Y3556800D01*
X2572267Y3686800D02*
X2442267Y3556800D01*
X2553229Y3575838D02*
X2553229Y3667762D01*
X2461304Y3667762D01*
X2461304Y3575838D01*
X2553229Y3575838D01*
X2442267Y2466800D02*
X2572267Y2336800D01*
X2572267Y2466800D02*
X2442267Y2336800D01*
X2553229Y2355838D02*
X2553229Y2447762D01*
X2461304Y2447762D01*
X2461304Y2355838D01*
X2553229Y2355838D01*
X3042267Y2266800D02*
X3172267Y2136800D01*
X3172267Y2266800D02*
X3042267Y2136800D01*
X3153229Y2155838D02*
X3153229Y2247762D01*
X3061304Y2247762D01*
X3061304Y2155838D01*
X3153229Y2155838D01*
X3642267Y3686800D02*
X3772267Y3556800D01*
X3772267Y3686800D02*
X3642267Y3556800D01*
X3753229Y3575838D02*
X3753229Y3667762D01*
X3661304Y3667762D01*
X3661304Y3575838D01*
X3753229Y3575838D01*
X3642267Y2466800D02*
X3772267Y2336800D01*
X3772267Y2466800D02*
X3642267Y2336800D01*
X3753229Y2355838D02*
X3753229Y2447762D01*
X3661304Y2447762D01*
X3661304Y2355838D01*
X3753229Y2355838D01*
X4043000Y8107000D02*
X4173000Y7977000D01*
X4173000Y8107000D02*
X4043000Y7977000D01*
X4153962Y7996038D02*
X4153962Y8087962D01*
X4062038Y8087962D01*
X4062038Y7996038D01*
X4153962Y7996038D01*
X4043000Y7607000D02*
X4173000Y7477000D01*
X4173000Y7607000D02*
X4043000Y7477000D01*
X4153962Y7496038D02*
X4153962Y7587962D01*
X4062038Y7587962D01*
X4062038Y7496038D01*
X4153962Y7496038D01*
X4043000Y7107000D02*
X4173000Y6977000D01*
X4173000Y7107000D02*
X4043000Y6977000D01*
X4153962Y6996038D02*
X4153962Y7087962D01*
X4062038Y7087962D01*
X4062038Y6996038D01*
X4153962Y6996038D01*
X4262600Y3686800D02*
X4392600Y3556800D01*
X4392600Y3686800D02*
X4262600Y3556800D01*
X4373562Y3575838D02*
X4373562Y3667762D01*
X4281638Y3667762D01*
X4281638Y3575838D01*
X4373562Y3575838D01*
X4262600Y2466800D02*
X4392600Y2336800D01*
X4392600Y2466800D02*
X4262600Y2336800D01*
X4373562Y2355838D02*
X4373562Y2447762D01*
X4281638Y2447762D01*
X4281638Y2355838D01*
X4373562Y2355838D01*
X4862600Y2266800D02*
X4992600Y2136800D01*
X4992600Y2266800D02*
X4862600Y2136800D01*
X4973562Y2155838D02*
X4973562Y2247762D01*
X4881638Y2247762D01*
X4881638Y2155838D01*
X4973562Y2155838D01*
X5462600Y3686800D02*
X5592600Y3556800D01*
X5592600Y3686800D02*
X5462600Y3556800D01*
X5573562Y3575838D02*
X5573562Y3667762D01*
X5481638Y3667762D01*
X5481638Y3575838D01*
X5573562Y3575838D01*
X5462600Y2466800D02*
X5592600Y2336800D01*
X5592600Y2466800D02*
X5462600Y2336800D01*
X5573562Y2355838D02*
X5573562Y2447762D01*
X5481638Y2447762D01*
X5481638Y2355838D01*
X5573562Y2355838D01*
X6082933Y3686800D02*
X6212933Y3556800D01*
X6212933Y3686800D02*
X6082933Y3556800D01*
X6193896Y3575838D02*
X6193896Y3667762D01*
X6101971Y3667762D01*
X6101971Y3575838D01*
X6193896Y3575838D01*
X6082933Y2466800D02*
X6212933Y2336800D01*
X6212933Y2466800D02*
X6082933Y2336800D01*
X6193896Y2355838D02*
X6193896Y2447762D01*
X6101971Y2447762D01*
X6101971Y2355838D01*
X6193896Y2355838D01*
X6682933Y2266800D02*
X6812933Y2136800D01*
X6812933Y2266800D02*
X6682933Y2136800D01*
X6793896Y2155838D02*
X6793896Y2247762D01*
X6701971Y2247762D01*
X6701971Y2155838D01*
X6793896Y2155838D01*
X7282933Y3686800D02*
X7412933Y3556800D01*
X7412933Y3686800D02*
X7282933Y3556800D01*
X7393896Y3575838D02*
X7393896Y3667762D01*
X7301971Y3667762D01*
X7301971Y3575838D01*
X7393896Y3575838D01*
X7282933Y2466800D02*
X7412933Y2336800D01*
X7412933Y2466800D02*
X7282933Y2336800D01*
X7393896Y2355838D02*
X7393896Y2447762D01*
X7301971Y2447762D01*
X7301971Y2355838D01*
X7393896Y2355838D01*
X16291200Y13722200D02*
X16421200Y13592200D01*
X16421200Y13722200D02*
X16291200Y13592200D01*
X16402162Y13611238D02*
X16402162Y13703162D01*
X16310238Y13703162D01*
X16310238Y13611238D01*
X16402162Y13611238D01*
X16291200Y13222200D02*
X16421200Y13092200D01*
X16421200Y13222200D02*
X16291200Y13092200D01*
X16402162Y13111238D02*
X16402162Y13203162D01*
X16310238Y13203162D01*
X16310238Y13111238D01*
X16402162Y13111238D01*
X16291200Y12722200D02*
X16421200Y12592200D01*
X16421200Y12722200D02*
X16291200Y12592200D01*
X16402162Y12611238D02*
X16402162Y12703162D01*
X16310238Y12703162D01*
X16310238Y12611238D01*
X16402162Y12611238D01*
X19850400Y13722200D02*
X19980400Y13592200D01*
X19980400Y13722200D02*
X19850400Y13592200D01*
X19961362Y13611238D02*
X19961362Y13703162D01*
X19869438Y13703162D01*
X19869438Y13611238D01*
X19961362Y13611238D01*
X19850400Y13222200D02*
X19980400Y13092200D01*
X19980400Y13222200D02*
X19850400Y13092200D01*
X19961362Y13111238D02*
X19961362Y13203162D01*
X19869438Y13203162D01*
X19869438Y13111238D01*
X19961362Y13111238D01*
X19850400Y12722200D02*
X19980400Y12592200D01*
X19980400Y12722200D02*
X19850400Y12592200D01*
X19961362Y12611238D02*
X19961362Y12703162D01*
X19869438Y12703162D01*
X19869438Y12611238D01*
X19961362Y12611238D01*
D20*
X702933Y1496800D02*
X854933Y1344800D01*
X854933Y1496800D02*
X702933Y1344800D01*
X778933Y1344800D02*
X854933Y1420800D01*
X778933Y1496800D01*
X702933Y1420800D01*
X778933Y1344800D01*
X1210933Y1496800D02*
X1362933Y1344800D01*
X1362933Y1496800D02*
X1210933Y1344800D01*
X1286933Y1344800D02*
X1362933Y1420800D01*
X1286933Y1496800D01*
X1210933Y1420800D01*
X1286933Y1344800D01*
X1718933Y1496800D02*
X1870933Y1344800D01*
X1870933Y1496800D02*
X1718933Y1344800D01*
X1794933Y1344800D02*
X1870933Y1420800D01*
X1794933Y1496800D01*
X1718933Y1420800D01*
X1794933Y1344800D01*
X2523267Y1496800D02*
X2675267Y1344800D01*
X2675267Y1496800D02*
X2523267Y1344800D01*
X2599267Y1344800D02*
X2675267Y1420800D01*
X2599267Y1496800D01*
X2523267Y1420800D01*
X2599267Y1344800D01*
X3031267Y1496800D02*
X3183267Y1344800D01*
X3183267Y1496800D02*
X3031267Y1344800D01*
X3107267Y1344800D02*
X3183267Y1420800D01*
X3107267Y1496800D01*
X3031267Y1420800D01*
X3107267Y1344800D01*
X3539267Y1496800D02*
X3691267Y1344800D01*
X3691267Y1496800D02*
X3539267Y1344800D01*
X3615267Y1344800D02*
X3691267Y1420800D01*
X3615267Y1496800D01*
X3539267Y1420800D01*
X3615267Y1344800D01*
X4343600Y1496800D02*
X4495600Y1344800D01*
X4495600Y1496800D02*
X4343600Y1344800D01*
X4419600Y1344800D02*
X4495600Y1420800D01*
X4419600Y1496800D01*
X4343600Y1420800D01*
X4419600Y1344800D01*
X4851600Y1496800D02*
X5003600Y1344800D01*
X5003600Y1496800D02*
X4851600Y1344800D01*
X4927600Y1344800D02*
X5003600Y1420800D01*
X4927600Y1496800D01*
X4851600Y1420800D01*
X4927600Y1344800D01*
X5359600Y1496800D02*
X5511600Y1344800D01*
X5511600Y1496800D02*
X5359600Y1344800D01*
X5435600Y1344800D02*
X5511600Y1420800D01*
X5435600Y1496800D01*
X5359600Y1420800D01*
X5435600Y1344800D01*
X6163933Y1496800D02*
X6315933Y1344800D01*
X6315933Y1496800D02*
X6163933Y1344800D01*
X6239933Y1344800D02*
X6315933Y1420800D01*
X6239933Y1496800D01*
X6163933Y1420800D01*
X6239933Y1344800D01*
X6671933Y1496800D02*
X6823933Y1344800D01*
X6823933Y1496800D02*
X6671933Y1344800D01*
X6747933Y1344800D02*
X6823933Y1420800D01*
X6747933Y1496800D01*
X6671933Y1420800D01*
X6747933Y1344800D01*
X7179933Y1496800D02*
X7331933Y1344800D01*
X7331933Y1496800D02*
X7179933Y1344800D01*
X7255933Y1344800D02*
X7331933Y1420800D01*
X7255933Y1496800D01*
X7179933Y1420800D01*
X7255933Y1344800D01*
D21*
X500000Y20650000D02*
X500000Y20350000D01*
X350000Y20500000D02*
X650000Y20500000D01*
X650000Y20500000D02*
G75*
G03*
X650000Y20500000I-150000J0D01*
G01*
X500000Y650000D02*
X500000Y350000D01*
X350000Y500000D02*
X650000Y500000D01*
X650000Y500000D02*
G75*
G03*
X650000Y500000I-150000J0D01*
G01*
X14850000Y20650000D02*
X14850000Y20350000D01*
X14700000Y20500000D02*
X15000000Y20500000D01*
X15000000Y20500000D02*
G75*
G03*
X15000000Y20500000I-150000J0D01*
G01*
X14850000Y650000D02*
X14850000Y350000D01*
X14700000Y500000D02*
X15000000Y500000D01*
X15000000Y500000D02*
G75*
G03*
X15000000Y500000I-150000J0D01*
G01*
X21727000Y5868000D02*
X21727000Y5568000D01*
X21577000Y5718000D02*
X21877000Y5718000D01*
X21877000Y5718000D02*
G75*
G03*
X21877000Y5718000I-150000J0D01*
G01*
X21727000Y1417000D02*
X21727000Y1117000D01*
X21577000Y1267000D02*
X21877000Y1267000D01*
X21877000Y1267000D02*
G75*
G03*
X21877000Y1267000I-150000J0D01*
G01*
X29123528Y5868000D02*
X29123528Y5568000D01*
X28973528Y5718000D02*
X29273528Y5718000D01*
X29273528Y5718000D02*
G75*
G03*
X29273528Y5718000I-150000J0D01*
G01*
X29123528Y1417000D02*
X29123528Y1117000D01*
X28973528Y1267000D02*
X29273528Y1267000D01*
X29273528Y1267000D02*
G75*
G03*
X29273528Y1267000I-150000J0D01*
G01*
X29200000Y20650000D02*
X29200000Y20350000D01*
X29050000Y20500000D02*
X29350000Y20500000D01*
X29350000Y20500000D02*
G75*
G03*
X29350000Y20500000I-150000J0D01*
G01*
X29200000Y650000D02*
X29200000Y350000D01*
X29050000Y500000D02*
X29350000Y500000D01*
X29350000Y500000D02*
G75*
G03*
X29350000Y500000I-150000J0D01*
G01*
D11*
X252619Y-215476D02*
X252619Y-15476D01*
X300238Y-15476D01*
X328810Y-25000D01*
X347857Y-44048D01*
X357381Y-63095D01*
X366905Y-101190D01*
X366905Y-129762D01*
X357381Y-167857D01*
X347857Y-186905D01*
X328810Y-205952D01*
X300238Y-215476D01*
X252619Y-215476D01*
X452619Y-215476D02*
X452619Y-82143D01*
X452619Y-120238D02*
X462143Y-101190D01*
X471667Y-91667D01*
X490714Y-82143D01*
X509762Y-82143D01*
X576429Y-215476D02*
X576429Y-82143D01*
X576429Y-15476D02*
X566905Y-25000D01*
X576429Y-34524D01*
X585952Y-25000D01*
X576429Y-15476D01*
X576429Y-34524D01*
X700238Y-215476D02*
X681190Y-205952D01*
X671667Y-186905D01*
X671667Y-15476D01*
X805000Y-215476D02*
X785952Y-205952D01*
X776428Y-186905D01*
X776428Y-15476D01*
X1033571Y-215476D02*
X1033571Y-15476D01*
X1100238Y-158333D01*
X1166905Y-15476D01*
X1166905Y-215476D01*
X1347857Y-215476D02*
X1347857Y-110714D01*
X1338333Y-91667D01*
X1319286Y-82143D01*
X1281190Y-82143D01*
X1262143Y-91667D01*
X1347857Y-205952D02*
X1328810Y-215476D01*
X1281190Y-215476D01*
X1262143Y-205952D01*
X1252619Y-186905D01*
X1252619Y-167857D01*
X1262143Y-148810D01*
X1281190Y-139286D01*
X1328810Y-139286D01*
X1347857Y-129762D01*
X1443095Y-82143D02*
X1443095Y-282143D01*
X1443095Y-91667D02*
X1462143Y-82143D01*
X1500238Y-82143D01*
X1519286Y-91667D01*
X1528809Y-101190D01*
X1538333Y-120238D01*
X1538333Y-177381D01*
X1528809Y-196428D01*
X1519286Y-205952D01*
X1500238Y-215476D01*
X1462143Y-215476D01*
X1443095Y-205952D01*
X1624048Y-196428D02*
X1633571Y-205952D01*
X1624048Y-215476D01*
X1614524Y-205952D01*
X1624048Y-196428D01*
X1624048Y-215476D01*
X1624048Y-91667D02*
X1633571Y-101190D01*
X1624048Y-110714D01*
X1614524Y-101190D01*
X1624048Y-91667D01*
X1624048Y-110714D01*
D12*
X-45000Y-525000D02*
X-5000Y-565000D01*
X-5000Y-525000D02*
X-45000Y-565000D01*
D11*
X290714Y-435476D02*
X309762Y-435476D01*
X328810Y-445000D01*
X338333Y-454524D01*
X347857Y-473571D01*
X357381Y-511667D01*
X357381Y-559286D01*
X347857Y-597381D01*
X338333Y-616429D01*
X328810Y-625952D01*
X309762Y-635476D01*
X290714Y-635476D01*
X271667Y-625952D01*
X262143Y-616429D01*
X252619Y-597381D01*
X243095Y-559286D01*
X243095Y-511667D01*
X252619Y-473571D01*
X262143Y-454524D01*
X271667Y-445000D01*
X290714Y-435476D01*
X443095Y-616429D02*
X452619Y-625952D01*
X443095Y-635476D01*
X433571Y-625952D01*
X443095Y-616429D01*
X443095Y-635476D01*
X624048Y-502143D02*
X624048Y-635476D01*
X576429Y-425952D02*
X528810Y-568810D01*
X652619Y-568810D01*
X766905Y-435476D02*
X785952Y-435476D01*
X805000Y-445000D01*
X814524Y-454524D01*
X824048Y-473571D01*
X833571Y-511667D01*
X833571Y-559286D01*
X824048Y-597381D01*
X814524Y-616429D01*
X805000Y-625952D01*
X785952Y-635476D01*
X766905Y-635476D01*
X747857Y-625952D01*
X738333Y-616429D01*
X728809Y-597381D01*
X719286Y-559286D01*
X719286Y-511667D01*
X728809Y-473571D01*
X738333Y-454524D01*
X747857Y-445000D01*
X766905Y-435476D01*
X957381Y-435476D02*
X976428Y-435476D01*
X995476Y-445000D01*
X1005000Y-454524D01*
X1014524Y-473571D01*
X1024048Y-511667D01*
X1024048Y-559286D01*
X1014524Y-597381D01*
X1005000Y-616429D01*
X995476Y-625952D01*
X976428Y-635476D01*
X957381Y-635476D01*
X938333Y-625952D01*
X928809Y-616429D01*
X919286Y-597381D01*
X909762Y-559286D01*
X909762Y-511667D01*
X919286Y-473571D01*
X928809Y-454524D01*
X938333Y-445000D01*
X957381Y-435476D01*
X1109762Y-635476D02*
X1109762Y-502143D01*
X1109762Y-521190D02*
X1119286Y-511667D01*
X1138333Y-502143D01*
X1166905Y-502143D01*
X1185952Y-511667D01*
X1195476Y-530714D01*
X1195476Y-635476D01*
X1195476Y-530714D02*
X1205000Y-511667D01*
X1224048Y-502143D01*
X1252619Y-502143D01*
X1271667Y-511667D01*
X1281190Y-530714D01*
X1281190Y-635476D01*
X1376429Y-635476D02*
X1376429Y-502143D01*
X1376429Y-521190D02*
X1385952Y-511667D01*
X1405000Y-502143D01*
X1433571Y-502143D01*
X1452619Y-511667D01*
X1462143Y-530714D01*
X1462143Y-635476D01*
X1462143Y-530714D02*
X1471667Y-511667D01*
X1490714Y-502143D01*
X1519286Y-502143D01*
X1538333Y-511667D01*
X1547857Y-530714D01*
X1547857Y-635476D01*
X1938333Y-425952D02*
X1766905Y-683095D01*
X2195476Y-435476D02*
X2214524Y-435476D01*
X2233571Y-445000D01*
X2243095Y-454524D01*
X2252619Y-473571D01*
X2262143Y-511667D01*
X2262143Y-559286D01*
X2252619Y-597381D01*
X2243095Y-616429D01*
X2233571Y-625952D01*
X2214524Y-635476D01*
X2195476Y-635476D01*
X2176429Y-625952D01*
X2166905Y-616429D01*
X2157381Y-597381D01*
X2147857Y-559286D01*
X2147857Y-511667D01*
X2157381Y-473571D01*
X2166905Y-454524D01*
X2176429Y-445000D01*
X2195476Y-435476D01*
X2347857Y-616429D02*
X2357381Y-625952D01*
X2347857Y-635476D01*
X2338333Y-625952D01*
X2347857Y-616429D01*
X2347857Y-635476D01*
X2481190Y-435476D02*
X2500238Y-435476D01*
X2519286Y-445000D01*
X2528810Y-454524D01*
X2538333Y-473571D01*
X2547857Y-511667D01*
X2547857Y-559286D01*
X2538333Y-597381D01*
X2528810Y-616429D01*
X2519286Y-625952D01*
X2500238Y-635476D01*
X2481190Y-635476D01*
X2462143Y-625952D01*
X2452619Y-616429D01*
X2443095Y-597381D01*
X2433571Y-559286D01*
X2433571Y-511667D01*
X2443095Y-473571D01*
X2452619Y-454524D01*
X2462143Y-445000D01*
X2481190Y-435476D01*
X2738333Y-635476D02*
X2624048Y-635476D01*
X2681190Y-635476D02*
X2681190Y-435476D01*
X2662143Y-464048D01*
X2643095Y-483095D01*
X2624048Y-492619D01*
X2919286Y-435476D02*
X2824048Y-435476D01*
X2814524Y-530714D01*
X2824048Y-521190D01*
X2843095Y-511667D01*
X2890714Y-511667D01*
X2909762Y-521190D01*
X2919286Y-530714D01*
X2928809Y-549762D01*
X2928809Y-597381D01*
X2919286Y-616429D01*
X2909762Y-625952D01*
X2890714Y-635476D01*
X2843095Y-635476D01*
X2824048Y-625952D01*
X2814524Y-616429D01*
X2995476Y-435476D02*
X3128809Y-435476D01*
X3043095Y-635476D01*
X3195476Y-435476D02*
X3195476Y-473571D01*
X3271667Y-435476D02*
X3271667Y-473571D01*
X3566905Y-711667D02*
X3557381Y-702143D01*
X3538333Y-673571D01*
X3528809Y-654524D01*
X3519286Y-625952D01*
X3509762Y-578333D01*
X3509762Y-540238D01*
X3519286Y-492619D01*
X3528809Y-464048D01*
X3538333Y-445000D01*
X3557381Y-416428D01*
X3566905Y-406905D01*
X3624048Y-435476D02*
X3747857Y-435476D01*
X3681190Y-511667D01*
X3709762Y-511667D01*
X3728809Y-521190D01*
X3738333Y-530714D01*
X3747857Y-549762D01*
X3747857Y-597381D01*
X3738333Y-616429D01*
X3728809Y-625952D01*
X3709762Y-635476D01*
X3652619Y-635476D01*
X3633571Y-625952D01*
X3624048Y-616429D01*
X3985952Y-635476D02*
X3985952Y-435476D01*
X4071667Y-635476D02*
X4071667Y-530714D01*
X4062143Y-511667D01*
X4043095Y-502143D01*
X4014524Y-502143D01*
X3995476Y-511667D01*
X3985952Y-521190D01*
X4195476Y-635476D02*
X4176428Y-625952D01*
X4166905Y-616429D01*
X4157381Y-597381D01*
X4157381Y-540238D01*
X4166905Y-521190D01*
X4176428Y-511667D01*
X4195476Y-502143D01*
X4224048Y-502143D01*
X4243095Y-511667D01*
X4252619Y-521190D01*
X4262143Y-540238D01*
X4262143Y-597381D01*
X4252619Y-616429D01*
X4243095Y-625952D01*
X4224048Y-635476D01*
X4195476Y-635476D01*
X4376429Y-635476D02*
X4357381Y-625952D01*
X4347857Y-606905D01*
X4347857Y-435476D01*
X4528810Y-625952D02*
X4509762Y-635476D01*
X4471667Y-635476D01*
X4452619Y-625952D01*
X4443095Y-606905D01*
X4443095Y-530714D01*
X4452619Y-511667D01*
X4471667Y-502143D01*
X4509762Y-502143D01*
X4528810Y-511667D01*
X4538333Y-530714D01*
X4538333Y-549762D01*
X4443095Y-568810D01*
X4614524Y-625952D02*
X4633571Y-635476D01*
X4671667Y-635476D01*
X4690714Y-625952D01*
X4700238Y-606905D01*
X4700238Y-597381D01*
X4690714Y-578333D01*
X4671667Y-568810D01*
X4643095Y-568810D01*
X4624048Y-559286D01*
X4614524Y-540238D01*
X4614524Y-530714D01*
X4624048Y-511667D01*
X4643095Y-502143D01*
X4671667Y-502143D01*
X4690714Y-511667D01*
X4766905Y-711667D02*
X4776429Y-702143D01*
X4795476Y-673571D01*
X4805000Y-654524D01*
X4814524Y-625952D01*
X4824048Y-578333D01*
X4824048Y-540238D01*
X4814524Y-492619D01*
X4805000Y-464048D01*
X4795476Y-445000D01*
X4776429Y-416428D01*
X4766905Y-406905D01*
D13*
X-5000Y-809000D02*
G75*
G03*
X-5000Y-809000I-35000J0D01*
G01*
D11*
X290714Y-699476D02*
X309762Y-699476D01*
X328810Y-709000D01*
X338333Y-718524D01*
X347857Y-737571D01*
X357381Y-775667D01*
X357381Y-823286D01*
X347857Y-861381D01*
X338333Y-880428D01*
X328810Y-889952D01*
X309762Y-899476D01*
X290714Y-899476D01*
X271667Y-889952D01*
X262143Y-880428D01*
X252619Y-861381D01*
X243095Y-823286D01*
X243095Y-775667D01*
X252619Y-737571D01*
X262143Y-718524D01*
X271667Y-709000D01*
X290714Y-699476D01*
X443095Y-880428D02*
X452619Y-889952D01*
X443095Y-899476D01*
X433571Y-889952D01*
X443095Y-880428D01*
X443095Y-899476D01*
X519286Y-699476D02*
X652619Y-699476D01*
X566905Y-899476D01*
X766905Y-699476D02*
X785952Y-699476D01*
X805000Y-709000D01*
X814524Y-718524D01*
X824048Y-737571D01*
X833571Y-775667D01*
X833571Y-823286D01*
X824048Y-861381D01*
X814524Y-880428D01*
X805000Y-889952D01*
X785952Y-899476D01*
X766905Y-899476D01*
X747857Y-889952D01*
X738333Y-880428D01*
X728809Y-861381D01*
X719286Y-823286D01*
X719286Y-775667D01*
X728809Y-737571D01*
X738333Y-718524D01*
X747857Y-709000D01*
X766905Y-699476D01*
X957381Y-699476D02*
X976428Y-699476D01*
X995476Y-709000D01*
X1005000Y-718524D01*
X1014524Y-737571D01*
X1024048Y-775667D01*
X1024048Y-823286D01*
X1014524Y-861381D01*
X1005000Y-880428D01*
X995476Y-889952D01*
X976428Y-899476D01*
X957381Y-899476D01*
X938333Y-889952D01*
X928809Y-880428D01*
X919286Y-861381D01*
X909762Y-823286D01*
X909762Y-775667D01*
X919286Y-737571D01*
X928809Y-718524D01*
X938333Y-709000D01*
X957381Y-699476D01*
X1109762Y-899476D02*
X1109762Y-766143D01*
X1109762Y-785190D02*
X1119286Y-775667D01*
X1138333Y-766143D01*
X1166905Y-766143D01*
X1185952Y-775667D01*
X1195476Y-794714D01*
X1195476Y-899476D01*
X1195476Y-794714D02*
X1205000Y-775667D01*
X1224048Y-766143D01*
X1252619Y-766143D01*
X1271667Y-775667D01*
X1281190Y-794714D01*
X1281190Y-899476D01*
X1376429Y-899476D02*
X1376429Y-766143D01*
X1376429Y-785190D02*
X1385952Y-775667D01*
X1405000Y-766143D01*
X1433571Y-766143D01*
X1452619Y-775667D01*
X1462143Y-794714D01*
X1462143Y-899476D01*
X1462143Y-794714D02*
X1471667Y-775667D01*
X1490714Y-766143D01*
X1519286Y-766143D01*
X1538333Y-775667D01*
X1547857Y-794714D01*
X1547857Y-899476D01*
X1938333Y-689952D02*
X1766905Y-947095D01*
X2195476Y-699476D02*
X2214524Y-699476D01*
X2233571Y-709000D01*
X2243095Y-718524D01*
X2252619Y-737571D01*
X2262143Y-775667D01*
X2262143Y-823286D01*
X2252619Y-861381D01*
X2243095Y-880428D01*
X2233571Y-889952D01*
X2214524Y-899476D01*
X2195476Y-899476D01*
X2176429Y-889952D01*
X2166905Y-880428D01*
X2157381Y-861381D01*
X2147857Y-823286D01*
X2147857Y-775667D01*
X2157381Y-737571D01*
X2166905Y-718524D01*
X2176429Y-709000D01*
X2195476Y-699476D01*
X2347857Y-880428D02*
X2357381Y-889952D01*
X2347857Y-899476D01*
X2338333Y-889952D01*
X2347857Y-880428D01*
X2347857Y-899476D01*
X2481190Y-699476D02*
X2500238Y-699476D01*
X2519286Y-709000D01*
X2528810Y-718524D01*
X2538333Y-737571D01*
X2547857Y-775667D01*
X2547857Y-823286D01*
X2538333Y-861381D01*
X2528810Y-880428D01*
X2519286Y-889952D01*
X2500238Y-899476D01*
X2481190Y-899476D01*
X2462143Y-889952D01*
X2452619Y-880428D01*
X2443095Y-861381D01*
X2433571Y-823286D01*
X2433571Y-775667D01*
X2443095Y-737571D01*
X2452619Y-718524D01*
X2462143Y-709000D01*
X2481190Y-699476D01*
X2624048Y-718524D02*
X2633571Y-709000D01*
X2652619Y-699476D01*
X2700238Y-699476D01*
X2719286Y-709000D01*
X2728810Y-718524D01*
X2738333Y-737571D01*
X2738333Y-756619D01*
X2728810Y-785190D01*
X2614524Y-899476D01*
X2738333Y-899476D01*
X2805000Y-699476D02*
X2938333Y-699476D01*
X2852619Y-899476D01*
X3100238Y-699476D02*
X3062143Y-699476D01*
X3043095Y-709000D01*
X3033571Y-718524D01*
X3014524Y-747095D01*
X3005000Y-785190D01*
X3005000Y-861381D01*
X3014524Y-880428D01*
X3024048Y-889952D01*
X3043095Y-899476D01*
X3081190Y-899476D01*
X3100238Y-889952D01*
X3109762Y-880428D01*
X3119286Y-861381D01*
X3119286Y-813762D01*
X3109762Y-794714D01*
X3100238Y-785190D01*
X3081190Y-775667D01*
X3043095Y-775667D01*
X3024048Y-785190D01*
X3014524Y-794714D01*
X3005000Y-813762D01*
X3195476Y-699476D02*
X3195476Y-737571D01*
X3271667Y-699476D02*
X3271667Y-737571D01*
X3566905Y-975667D02*
X3557381Y-966143D01*
X3538333Y-937571D01*
X3528809Y-918524D01*
X3519286Y-889952D01*
X3509762Y-842333D01*
X3509762Y-804238D01*
X3519286Y-756619D01*
X3528809Y-728048D01*
X3538333Y-709000D01*
X3557381Y-680429D01*
X3566905Y-670905D01*
X3624048Y-699476D02*
X3747857Y-699476D01*
X3681190Y-775667D01*
X3709762Y-775667D01*
X3728809Y-785190D01*
X3738333Y-794714D01*
X3747857Y-813762D01*
X3747857Y-861381D01*
X3738333Y-880428D01*
X3728809Y-889952D01*
X3709762Y-899476D01*
X3652619Y-899476D01*
X3633571Y-889952D01*
X3624048Y-880428D01*
X3985952Y-899476D02*
X3985952Y-699476D01*
X4071667Y-899476D02*
X4071667Y-794714D01*
X4062143Y-775667D01*
X4043095Y-766143D01*
X4014524Y-766143D01*
X3995476Y-775667D01*
X3985952Y-785190D01*
X4195476Y-899476D02*
X4176428Y-889952D01*
X4166905Y-880428D01*
X4157381Y-861381D01*
X4157381Y-804238D01*
X4166905Y-785190D01*
X4176428Y-775667D01*
X4195476Y-766143D01*
X4224048Y-766143D01*
X4243095Y-775667D01*
X4252619Y-785190D01*
X4262143Y-804238D01*
X4262143Y-861381D01*
X4252619Y-880428D01*
X4243095Y-889952D01*
X4224048Y-899476D01*
X4195476Y-899476D01*
X4376429Y-899476D02*
X4357381Y-889952D01*
X4347857Y-870905D01*
X4347857Y-699476D01*
X4528810Y-889952D02*
X4509762Y-899476D01*
X4471667Y-899476D01*
X4452619Y-889952D01*
X4443095Y-870905D01*
X4443095Y-794714D01*
X4452619Y-775667D01*
X4471667Y-766143D01*
X4509762Y-766143D01*
X4528810Y-775667D01*
X4538333Y-794714D01*
X4538333Y-813762D01*
X4443095Y-832809D01*
X4614524Y-889952D02*
X4633571Y-899476D01*
X4671667Y-899476D01*
X4690714Y-889952D01*
X4700238Y-870905D01*
X4700238Y-861381D01*
X4690714Y-842333D01*
X4671667Y-832809D01*
X4643095Y-832809D01*
X4624048Y-823286D01*
X4614524Y-804238D01*
X4614524Y-794714D01*
X4624048Y-775667D01*
X4643095Y-766143D01*
X4671667Y-766143D01*
X4690714Y-775667D01*
X4766905Y-975667D02*
X4776429Y-966143D01*
X4795476Y-937571D01*
X4805000Y-918524D01*
X4814524Y-889952D01*
X4824048Y-842333D01*
X4824048Y-804238D01*
X4814524Y-756619D01*
X4805000Y-728048D01*
X4795476Y-709000D01*
X4776429Y-680429D01*
X4766905Y-670905D01*
D14*
X-42500Y-1035500D02*
X-42500Y-1110500D01*
X-80000Y-1073000D02*
X-5000Y-1073000D01*
D11*
X290714Y-963476D02*
X309762Y-963476D01*
X328810Y-973000D01*
X338333Y-982524D01*
X347857Y-1001571D01*
X357381Y-1039667D01*
X357381Y-1087286D01*
X347857Y-1125381D01*
X338333Y-1144429D01*
X328810Y-1153952D01*
X309762Y-1163476D01*
X290714Y-1163476D01*
X271667Y-1153952D01*
X262143Y-1144429D01*
X252619Y-1125381D01*
X243095Y-1087286D01*
X243095Y-1039667D01*
X252619Y-1001571D01*
X262143Y-982524D01*
X271667Y-973000D01*
X290714Y-963476D01*
X443095Y-1144429D02*
X452619Y-1153952D01*
X443095Y-1163476D01*
X433571Y-1153952D01*
X443095Y-1144429D01*
X443095Y-1163476D01*
X519286Y-963476D02*
X652619Y-963476D01*
X566905Y-1163476D01*
X824048Y-963476D02*
X728809Y-963476D01*
X719286Y-1058714D01*
X728809Y-1049190D01*
X747857Y-1039667D01*
X795476Y-1039667D01*
X814524Y-1049190D01*
X824048Y-1058714D01*
X833571Y-1077762D01*
X833571Y-1125381D01*
X824048Y-1144429D01*
X814524Y-1153952D01*
X795476Y-1163476D01*
X747857Y-1163476D01*
X728809Y-1153952D01*
X719286Y-1144429D01*
X957381Y-963476D02*
X976428Y-963476D01*
X995476Y-973000D01*
X1005000Y-982524D01*
X1014524Y-1001571D01*
X1024048Y-1039667D01*
X1024048Y-1087286D01*
X1014524Y-1125381D01*
X1005000Y-1144429D01*
X995476Y-1153952D01*
X976428Y-1163476D01*
X957381Y-1163476D01*
X938333Y-1153952D01*
X928809Y-1144429D01*
X919286Y-1125381D01*
X909762Y-1087286D01*
X909762Y-1039667D01*
X919286Y-1001571D01*
X928809Y-982524D01*
X938333Y-973000D01*
X957381Y-963476D01*
X1109762Y-1163476D02*
X1109762Y-1030143D01*
X1109762Y-1049190D02*
X1119286Y-1039667D01*
X1138333Y-1030143D01*
X1166905Y-1030143D01*
X1185952Y-1039667D01*
X1195476Y-1058714D01*
X1195476Y-1163476D01*
X1195476Y-1058714D02*
X1205000Y-1039667D01*
X1224048Y-1030143D01*
X1252619Y-1030143D01*
X1271667Y-1039667D01*
X1281190Y-1058714D01*
X1281190Y-1163476D01*
X1376429Y-1163476D02*
X1376429Y-1030143D01*
X1376429Y-1049190D02*
X1385952Y-1039667D01*
X1405000Y-1030143D01*
X1433571Y-1030143D01*
X1452619Y-1039667D01*
X1462143Y-1058714D01*
X1462143Y-1163476D01*
X1462143Y-1058714D02*
X1471667Y-1039667D01*
X1490714Y-1030143D01*
X1519286Y-1030143D01*
X1538333Y-1039667D01*
X1547857Y-1058714D01*
X1547857Y-1163476D01*
X1938333Y-953952D02*
X1766905Y-1211095D01*
X2195476Y-963476D02*
X2214524Y-963476D01*
X2233571Y-973000D01*
X2243095Y-982524D01*
X2252619Y-1001571D01*
X2262143Y-1039667D01*
X2262143Y-1087286D01*
X2252619Y-1125381D01*
X2243095Y-1144429D01*
X2233571Y-1153952D01*
X2214524Y-1163476D01*
X2195476Y-1163476D01*
X2176429Y-1153952D01*
X2166905Y-1144429D01*
X2157381Y-1125381D01*
X2147857Y-1087286D01*
X2147857Y-1039667D01*
X2157381Y-1001571D01*
X2166905Y-982524D01*
X2176429Y-973000D01*
X2195476Y-963476D01*
X2347857Y-1144429D02*
X2357381Y-1153952D01*
X2347857Y-1163476D01*
X2338333Y-1153952D01*
X2347857Y-1144429D01*
X2347857Y-1163476D01*
X2481190Y-963476D02*
X2500238Y-963476D01*
X2519286Y-973000D01*
X2528810Y-982524D01*
X2538333Y-1001571D01*
X2547857Y-1039667D01*
X2547857Y-1087286D01*
X2538333Y-1125381D01*
X2528810Y-1144429D01*
X2519286Y-1153952D01*
X2500238Y-1163476D01*
X2481190Y-1163476D01*
X2462143Y-1153952D01*
X2452619Y-1144429D01*
X2443095Y-1125381D01*
X2433571Y-1087286D01*
X2433571Y-1039667D01*
X2443095Y-1001571D01*
X2452619Y-982524D01*
X2462143Y-973000D01*
X2481190Y-963476D01*
X2624048Y-982524D02*
X2633571Y-973000D01*
X2652619Y-963476D01*
X2700238Y-963476D01*
X2719286Y-973000D01*
X2728810Y-982524D01*
X2738333Y-1001571D01*
X2738333Y-1020619D01*
X2728810Y-1049190D01*
X2614524Y-1163476D01*
X2738333Y-1163476D01*
X2833571Y-1163476D02*
X2871667Y-1163476D01*
X2890714Y-1153952D01*
X2900238Y-1144429D01*
X2919286Y-1115857D01*
X2928809Y-1077762D01*
X2928809Y-1001571D01*
X2919286Y-982524D01*
X2909762Y-973000D01*
X2890714Y-963476D01*
X2852619Y-963476D01*
X2833571Y-973000D01*
X2824048Y-982524D01*
X2814524Y-1001571D01*
X2814524Y-1049190D01*
X2824048Y-1068238D01*
X2833571Y-1077762D01*
X2852619Y-1087286D01*
X2890714Y-1087286D01*
X2909762Y-1077762D01*
X2919286Y-1068238D01*
X2928809Y-1049190D01*
X3109762Y-963476D02*
X3014524Y-963476D01*
X3005000Y-1058714D01*
X3014524Y-1049190D01*
X3033571Y-1039667D01*
X3081190Y-1039667D01*
X3100238Y-1049190D01*
X3109762Y-1058714D01*
X3119286Y-1077762D01*
X3119286Y-1125381D01*
X3109762Y-1144429D01*
X3100238Y-1153952D01*
X3081190Y-1163476D01*
X3033571Y-1163476D01*
X3014524Y-1153952D01*
X3005000Y-1144429D01*
X3195476Y-963476D02*
X3195476Y-1001571D01*
X3271667Y-963476D02*
X3271667Y-1001571D01*
X3566905Y-1239667D02*
X3557381Y-1230143D01*
X3538333Y-1201571D01*
X3528809Y-1182524D01*
X3519286Y-1153952D01*
X3509762Y-1106333D01*
X3509762Y-1068238D01*
X3519286Y-1020619D01*
X3528809Y-992048D01*
X3538333Y-973000D01*
X3557381Y-944428D01*
X3566905Y-934905D01*
X3747857Y-1163476D02*
X3633571Y-1163476D01*
X3690714Y-1163476D02*
X3690714Y-963476D01*
X3671667Y-992048D01*
X3652619Y-1011095D01*
X3633571Y-1020619D01*
X3928809Y-963476D02*
X3833571Y-963476D01*
X3824048Y-1058714D01*
X3833571Y-1049190D01*
X3852619Y-1039667D01*
X3900238Y-1039667D01*
X3919286Y-1049190D01*
X3928809Y-1058714D01*
X3938333Y-1077762D01*
X3938333Y-1125381D01*
X3928809Y-1144429D01*
X3919286Y-1153952D01*
X3900238Y-1163476D01*
X3852619Y-1163476D01*
X3833571Y-1153952D01*
X3824048Y-1144429D01*
X4176428Y-1163476D02*
X4176428Y-963476D01*
X4262143Y-1163476D02*
X4262143Y-1058714D01*
X4252619Y-1039667D01*
X4233571Y-1030143D01*
X4205000Y-1030143D01*
X4185952Y-1039667D01*
X4176428Y-1049190D01*
X4385952Y-1163476D02*
X4366905Y-1153952D01*
X4357381Y-1144429D01*
X4347857Y-1125381D01*
X4347857Y-1068238D01*
X4357381Y-1049190D01*
X4366905Y-1039667D01*
X4385952Y-1030143D01*
X4414524Y-1030143D01*
X4433571Y-1039667D01*
X4443095Y-1049190D01*
X4452619Y-1068238D01*
X4452619Y-1125381D01*
X4443095Y-1144429D01*
X4433571Y-1153952D01*
X4414524Y-1163476D01*
X4385952Y-1163476D01*
X4566905Y-1163476D02*
X4547857Y-1153952D01*
X4538333Y-1134905D01*
X4538333Y-963476D01*
X4719286Y-1153952D02*
X4700238Y-1163476D01*
X4662143Y-1163476D01*
X4643095Y-1153952D01*
X4633571Y-1134905D01*
X4633571Y-1058714D01*
X4643095Y-1039667D01*
X4662143Y-1030143D01*
X4700238Y-1030143D01*
X4719286Y-1039667D01*
X4728810Y-1058714D01*
X4728810Y-1077762D01*
X4633571Y-1096810D01*
X4805000Y-1153952D02*
X4824048Y-1163476D01*
X4862143Y-1163476D01*
X4881190Y-1153952D01*
X4890714Y-1134905D01*
X4890714Y-1125381D01*
X4881190Y-1106333D01*
X4862143Y-1096810D01*
X4833571Y-1096810D01*
X4814524Y-1087286D01*
X4805000Y-1068238D01*
X4805000Y-1058714D01*
X4814524Y-1039667D01*
X4833571Y-1030143D01*
X4862143Y-1030143D01*
X4881190Y-1039667D01*
X4957381Y-1239667D02*
X4966905Y-1230143D01*
X4985952Y-1201571D01*
X4995476Y-1182524D01*
X5005000Y-1153952D01*
X5014524Y-1106333D01*
X5014524Y-1068238D01*
X5005000Y-1020619D01*
X4995476Y-992048D01*
X4985952Y-973000D01*
X4966905Y-944428D01*
X4957381Y-934905D01*
D15*
X-16716Y-1365285D02*
X-16716Y-1308716D01*
X-73285Y-1308716D01*
X-73285Y-1365285D01*
X-16716Y-1365285D01*
D11*
X290714Y-1227476D02*
X309762Y-1227476D01*
X328810Y-1237000D01*
X338333Y-1246524D01*
X347857Y-1265571D01*
X357381Y-1303667D01*
X357381Y-1351286D01*
X347857Y-1389381D01*
X338333Y-1408428D01*
X328810Y-1417952D01*
X309762Y-1427476D01*
X290714Y-1427476D01*
X271667Y-1417952D01*
X262143Y-1408428D01*
X252619Y-1389381D01*
X243095Y-1351286D01*
X243095Y-1303667D01*
X252619Y-1265571D01*
X262143Y-1246524D01*
X271667Y-1237000D01*
X290714Y-1227476D01*
X443095Y-1408428D02*
X452619Y-1417952D01*
X443095Y-1427476D01*
X433571Y-1417952D01*
X443095Y-1408428D01*
X443095Y-1427476D01*
X566905Y-1313190D02*
X547857Y-1303667D01*
X538333Y-1294143D01*
X528810Y-1275095D01*
X528810Y-1265571D01*
X538333Y-1246524D01*
X547857Y-1237000D01*
X566905Y-1227476D01*
X605000Y-1227476D01*
X624048Y-1237000D01*
X633571Y-1246524D01*
X643095Y-1265571D01*
X643095Y-1275095D01*
X633571Y-1294143D01*
X624048Y-1303667D01*
X605000Y-1313190D01*
X566905Y-1313190D01*
X547857Y-1322714D01*
X538333Y-1332238D01*
X528810Y-1351286D01*
X528810Y-1389381D01*
X538333Y-1408428D01*
X547857Y-1417952D01*
X566905Y-1427476D01*
X605000Y-1427476D01*
X624048Y-1417952D01*
X633571Y-1408428D01*
X643095Y-1389381D01*
X643095Y-1351286D01*
X633571Y-1332238D01*
X624048Y-1322714D01*
X605000Y-1313190D01*
X766905Y-1227476D02*
X785952Y-1227476D01*
X805000Y-1237000D01*
X814524Y-1246524D01*
X824048Y-1265571D01*
X833571Y-1303667D01*
X833571Y-1351286D01*
X824048Y-1389381D01*
X814524Y-1408428D01*
X805000Y-1417952D01*
X785952Y-1427476D01*
X766905Y-1427476D01*
X747857Y-1417952D01*
X738333Y-1408428D01*
X728809Y-1389381D01*
X719286Y-1351286D01*
X719286Y-1303667D01*
X728809Y-1265571D01*
X738333Y-1246524D01*
X747857Y-1237000D01*
X766905Y-1227476D01*
X957381Y-1227476D02*
X976428Y-1227476D01*
X995476Y-1237000D01*
X1005000Y-1246524D01*
X1014524Y-1265571D01*
X1024048Y-1303667D01*
X1024048Y-1351286D01*
X1014524Y-1389381D01*
X1005000Y-1408428D01*
X995476Y-1417952D01*
X976428Y-1427476D01*
X957381Y-1427476D01*
X938333Y-1417952D01*
X928809Y-1408428D01*
X919286Y-1389381D01*
X909762Y-1351286D01*
X909762Y-1303667D01*
X919286Y-1265571D01*
X928809Y-1246524D01*
X938333Y-1237000D01*
X957381Y-1227476D01*
X1109762Y-1427476D02*
X1109762Y-1294143D01*
X1109762Y-1313190D02*
X1119286Y-1303667D01*
X1138333Y-1294143D01*
X1166905Y-1294143D01*
X1185952Y-1303667D01*
X1195476Y-1322714D01*
X1195476Y-1427476D01*
X1195476Y-1322714D02*
X1205000Y-1303667D01*
X1224048Y-1294143D01*
X1252619Y-1294143D01*
X1271667Y-1303667D01*
X1281190Y-1322714D01*
X1281190Y-1427476D01*
X1376429Y-1427476D02*
X1376429Y-1294143D01*
X1376429Y-1313190D02*
X1385952Y-1303667D01*
X1405000Y-1294143D01*
X1433571Y-1294143D01*
X1452619Y-1303667D01*
X1462143Y-1322714D01*
X1462143Y-1427476D01*
X1462143Y-1322714D02*
X1471667Y-1303667D01*
X1490714Y-1294143D01*
X1519286Y-1294143D01*
X1538333Y-1303667D01*
X1547857Y-1322714D01*
X1547857Y-1427476D01*
X1938333Y-1217952D02*
X1766905Y-1475095D01*
X2195476Y-1227476D02*
X2214524Y-1227476D01*
X2233571Y-1237000D01*
X2243095Y-1246524D01*
X2252619Y-1265571D01*
X2262143Y-1303667D01*
X2262143Y-1351286D01*
X2252619Y-1389381D01*
X2243095Y-1408428D01*
X2233571Y-1417952D01*
X2214524Y-1427476D01*
X2195476Y-1427476D01*
X2176429Y-1417952D01*
X2166905Y-1408428D01*
X2157381Y-1389381D01*
X2147857Y-1351286D01*
X2147857Y-1303667D01*
X2157381Y-1265571D01*
X2166905Y-1246524D01*
X2176429Y-1237000D01*
X2195476Y-1227476D01*
X2347857Y-1408428D02*
X2357381Y-1417952D01*
X2347857Y-1427476D01*
X2338333Y-1417952D01*
X2347857Y-1408428D01*
X2347857Y-1427476D01*
X2481190Y-1227476D02*
X2500238Y-1227476D01*
X2519286Y-1237000D01*
X2528810Y-1246524D01*
X2538333Y-1265571D01*
X2547857Y-1303667D01*
X2547857Y-1351286D01*
X2538333Y-1389381D01*
X2528810Y-1408428D01*
X2519286Y-1417952D01*
X2500238Y-1427476D01*
X2481190Y-1427476D01*
X2462143Y-1417952D01*
X2452619Y-1408428D01*
X2443095Y-1389381D01*
X2433571Y-1351286D01*
X2433571Y-1303667D01*
X2443095Y-1265571D01*
X2452619Y-1246524D01*
X2462143Y-1237000D01*
X2481190Y-1227476D01*
X2614524Y-1227476D02*
X2738333Y-1227476D01*
X2671667Y-1303667D01*
X2700238Y-1303667D01*
X2719286Y-1313190D01*
X2728810Y-1322714D01*
X2738333Y-1341762D01*
X2738333Y-1389381D01*
X2728810Y-1408428D01*
X2719286Y-1417952D01*
X2700238Y-1427476D01*
X2643095Y-1427476D01*
X2624048Y-1417952D01*
X2614524Y-1408428D01*
X2928809Y-1427476D02*
X2814524Y-1427476D01*
X2871667Y-1427476D02*
X2871667Y-1227476D01*
X2852619Y-1256048D01*
X2833571Y-1275095D01*
X2814524Y-1284619D01*
X3109762Y-1227476D02*
X3014524Y-1227476D01*
X3005000Y-1322714D01*
X3014524Y-1313190D01*
X3033571Y-1303667D01*
X3081190Y-1303667D01*
X3100238Y-1313190D01*
X3109762Y-1322714D01*
X3119286Y-1341762D01*
X3119286Y-1389381D01*
X3109762Y-1408428D01*
X3100238Y-1417952D01*
X3081190Y-1427476D01*
X3033571Y-1427476D01*
X3014524Y-1417952D01*
X3005000Y-1408428D01*
X3195476Y-1227476D02*
X3195476Y-1265571D01*
X3271667Y-1227476D02*
X3271667Y-1265571D01*
X3566905Y-1503667D02*
X3557381Y-1494143D01*
X3538333Y-1465571D01*
X3528809Y-1446524D01*
X3519286Y-1417952D01*
X3509762Y-1370333D01*
X3509762Y-1332238D01*
X3519286Y-1284619D01*
X3528809Y-1256048D01*
X3538333Y-1237000D01*
X3557381Y-1208429D01*
X3566905Y-1198905D01*
X3728809Y-1227476D02*
X3690714Y-1227476D01*
X3671667Y-1237000D01*
X3662143Y-1246524D01*
X3643095Y-1275095D01*
X3633571Y-1313190D01*
X3633571Y-1389381D01*
X3643095Y-1408428D01*
X3652619Y-1417952D01*
X3671667Y-1427476D01*
X3709762Y-1427476D01*
X3728809Y-1417952D01*
X3738333Y-1408428D01*
X3747857Y-1389381D01*
X3747857Y-1341762D01*
X3738333Y-1322714D01*
X3728809Y-1313190D01*
X3709762Y-1303667D01*
X3671667Y-1303667D01*
X3652619Y-1313190D01*
X3643095Y-1322714D01*
X3633571Y-1341762D01*
X3985952Y-1427476D02*
X3985952Y-1227476D01*
X4071667Y-1427476D02*
X4071667Y-1322714D01*
X4062143Y-1303667D01*
X4043095Y-1294143D01*
X4014524Y-1294143D01*
X3995476Y-1303667D01*
X3985952Y-1313190D01*
X4195476Y-1427476D02*
X4176428Y-1417952D01*
X4166905Y-1408428D01*
X4157381Y-1389381D01*
X4157381Y-1332238D01*
X4166905Y-1313190D01*
X4176428Y-1303667D01*
X4195476Y-1294143D01*
X4224048Y-1294143D01*
X4243095Y-1303667D01*
X4252619Y-1313190D01*
X4262143Y-1332238D01*
X4262143Y-1389381D01*
X4252619Y-1408428D01*
X4243095Y-1417952D01*
X4224048Y-1427476D01*
X4195476Y-1427476D01*
X4376429Y-1427476D02*
X4357381Y-1417952D01*
X4347857Y-1398905D01*
X4347857Y-1227476D01*
X4528810Y-1417952D02*
X4509762Y-1427476D01*
X4471667Y-1427476D01*
X4452619Y-1417952D01*
X4443095Y-1398905D01*
X4443095Y-1322714D01*
X4452619Y-1303667D01*
X4471667Y-1294143D01*
X4509762Y-1294143D01*
X4528810Y-1303667D01*
X4538333Y-1322714D01*
X4538333Y-1341762D01*
X4443095Y-1360810D01*
X4614524Y-1417952D02*
X4633571Y-1427476D01*
X4671667Y-1427476D01*
X4690714Y-1417952D01*
X4700238Y-1398905D01*
X4700238Y-1389381D01*
X4690714Y-1370333D01*
X4671667Y-1360810D01*
X4643095Y-1360810D01*
X4624048Y-1351286D01*
X4614524Y-1332238D01*
X4614524Y-1322714D01*
X4624048Y-1303667D01*
X4643095Y-1294143D01*
X4671667Y-1294143D01*
X4690714Y-1303667D01*
X4766905Y-1503667D02*
X4776429Y-1494143D01*
X4795476Y-1465571D01*
X4805000Y-1446524D01*
X4814524Y-1417952D01*
X4824048Y-1370333D01*
X4824048Y-1332238D01*
X4814524Y-1284619D01*
X4805000Y-1256048D01*
X4795476Y-1237000D01*
X4776429Y-1208429D01*
X4766905Y-1198905D01*
D16*
X-50000Y-1646000D02*
X-5000Y-1601000D01*
X-50000Y-1556000D01*
X-95000Y-1601000D01*
X-50000Y-1646000D01*
D11*
X290714Y-1491476D02*
X309762Y-1491476D01*
X328810Y-1501000D01*
X338333Y-1510524D01*
X347857Y-1529571D01*
X357381Y-1567667D01*
X357381Y-1615286D01*
X347857Y-1653381D01*
X338333Y-1672428D01*
X328810Y-1681952D01*
X309762Y-1691476D01*
X290714Y-1691476D01*
X271667Y-1681952D01*
X262143Y-1672428D01*
X252619Y-1653381D01*
X243095Y-1615286D01*
X243095Y-1567667D01*
X252619Y-1529571D01*
X262143Y-1510524D01*
X271667Y-1501000D01*
X290714Y-1491476D01*
X443095Y-1672428D02*
X452619Y-1681952D01*
X443095Y-1691476D01*
X433571Y-1681952D01*
X443095Y-1672428D01*
X443095Y-1691476D01*
X547857Y-1691476D02*
X585952Y-1691476D01*
X605000Y-1681952D01*
X614524Y-1672428D01*
X633571Y-1643857D01*
X643095Y-1605762D01*
X643095Y-1529571D01*
X633571Y-1510524D01*
X624048Y-1501000D01*
X605000Y-1491476D01*
X566905Y-1491476D01*
X547857Y-1501000D01*
X538333Y-1510524D01*
X528810Y-1529571D01*
X528810Y-1577190D01*
X538333Y-1596238D01*
X547857Y-1605762D01*
X566905Y-1615286D01*
X605000Y-1615286D01*
X624048Y-1605762D01*
X633571Y-1596238D01*
X643095Y-1577190D01*
X766905Y-1491476D02*
X785952Y-1491476D01*
X805000Y-1501000D01*
X814524Y-1510524D01*
X824048Y-1529571D01*
X833571Y-1567667D01*
X833571Y-1615286D01*
X824048Y-1653381D01*
X814524Y-1672428D01*
X805000Y-1681952D01*
X785952Y-1691476D01*
X766905Y-1691476D01*
X747857Y-1681952D01*
X738333Y-1672428D01*
X728809Y-1653381D01*
X719286Y-1615286D01*
X719286Y-1567667D01*
X728809Y-1529571D01*
X738333Y-1510524D01*
X747857Y-1501000D01*
X766905Y-1491476D01*
X957381Y-1491476D02*
X976428Y-1491476D01*
X995476Y-1501000D01*
X1005000Y-1510524D01*
X1014524Y-1529571D01*
X1024048Y-1567667D01*
X1024048Y-1615286D01*
X1014524Y-1653381D01*
X1005000Y-1672428D01*
X995476Y-1681952D01*
X976428Y-1691476D01*
X957381Y-1691476D01*
X938333Y-1681952D01*
X928809Y-1672428D01*
X919286Y-1653381D01*
X909762Y-1615286D01*
X909762Y-1567667D01*
X919286Y-1529571D01*
X928809Y-1510524D01*
X938333Y-1501000D01*
X957381Y-1491476D01*
X1109762Y-1691476D02*
X1109762Y-1558143D01*
X1109762Y-1577190D02*
X1119286Y-1567667D01*
X1138333Y-1558143D01*
X1166905Y-1558143D01*
X1185952Y-1567667D01*
X1195476Y-1586714D01*
X1195476Y-1691476D01*
X1195476Y-1586714D02*
X1205000Y-1567667D01*
X1224048Y-1558143D01*
X1252619Y-1558143D01*
X1271667Y-1567667D01*
X1281190Y-1586714D01*
X1281190Y-1691476D01*
X1376429Y-1691476D02*
X1376429Y-1558143D01*
X1376429Y-1577190D02*
X1385952Y-1567667D01*
X1405000Y-1558143D01*
X1433571Y-1558143D01*
X1452619Y-1567667D01*
X1462143Y-1586714D01*
X1462143Y-1691476D01*
X1462143Y-1586714D02*
X1471667Y-1567667D01*
X1490714Y-1558143D01*
X1519286Y-1558143D01*
X1538333Y-1567667D01*
X1547857Y-1586714D01*
X1547857Y-1691476D01*
X1938333Y-1481952D02*
X1766905Y-1739095D01*
X2195476Y-1491476D02*
X2214524Y-1491476D01*
X2233571Y-1501000D01*
X2243095Y-1510524D01*
X2252619Y-1529571D01*
X2262143Y-1567667D01*
X2262143Y-1615286D01*
X2252619Y-1653381D01*
X2243095Y-1672428D01*
X2233571Y-1681952D01*
X2214524Y-1691476D01*
X2195476Y-1691476D01*
X2176429Y-1681952D01*
X2166905Y-1672428D01*
X2157381Y-1653381D01*
X2147857Y-1615286D01*
X2147857Y-1567667D01*
X2157381Y-1529571D01*
X2166905Y-1510524D01*
X2176429Y-1501000D01*
X2195476Y-1491476D01*
X2347857Y-1672428D02*
X2357381Y-1681952D01*
X2347857Y-1691476D01*
X2338333Y-1681952D01*
X2347857Y-1672428D01*
X2347857Y-1691476D01*
X2481190Y-1491476D02*
X2500238Y-1491476D01*
X2519286Y-1501000D01*
X2528810Y-1510524D01*
X2538333Y-1529571D01*
X2547857Y-1567667D01*
X2547857Y-1615286D01*
X2538333Y-1653381D01*
X2528810Y-1672428D01*
X2519286Y-1681952D01*
X2500238Y-1691476D01*
X2481190Y-1691476D01*
X2462143Y-1681952D01*
X2452619Y-1672428D01*
X2443095Y-1653381D01*
X2433571Y-1615286D01*
X2433571Y-1567667D01*
X2443095Y-1529571D01*
X2452619Y-1510524D01*
X2462143Y-1501000D01*
X2481190Y-1491476D01*
X2614524Y-1491476D02*
X2738333Y-1491476D01*
X2671667Y-1567667D01*
X2700238Y-1567667D01*
X2719286Y-1577190D01*
X2728810Y-1586714D01*
X2738333Y-1605762D01*
X2738333Y-1653381D01*
X2728810Y-1672428D01*
X2719286Y-1681952D01*
X2700238Y-1691476D01*
X2643095Y-1691476D01*
X2624048Y-1681952D01*
X2614524Y-1672428D01*
X2919286Y-1491476D02*
X2824048Y-1491476D01*
X2814524Y-1586714D01*
X2824048Y-1577190D01*
X2843095Y-1567667D01*
X2890714Y-1567667D01*
X2909762Y-1577190D01*
X2919286Y-1586714D01*
X2928809Y-1605762D01*
X2928809Y-1653381D01*
X2919286Y-1672428D01*
X2909762Y-1681952D01*
X2890714Y-1691476D01*
X2843095Y-1691476D01*
X2824048Y-1681952D01*
X2814524Y-1672428D01*
X3100238Y-1558143D02*
X3100238Y-1691476D01*
X3052619Y-1481952D02*
X3005000Y-1624809D01*
X3128809Y-1624809D01*
X3195476Y-1491476D02*
X3195476Y-1529571D01*
X3271667Y-1491476D02*
X3271667Y-1529571D01*
X3566905Y-1767667D02*
X3557381Y-1758143D01*
X3538333Y-1729571D01*
X3528809Y-1710524D01*
X3519286Y-1681952D01*
X3509762Y-1634333D01*
X3509762Y-1596238D01*
X3519286Y-1548619D01*
X3528809Y-1520048D01*
X3538333Y-1501000D01*
X3557381Y-1472428D01*
X3566905Y-1462905D01*
X3633571Y-1510524D02*
X3643095Y-1501000D01*
X3662143Y-1491476D01*
X3709762Y-1491476D01*
X3728809Y-1501000D01*
X3738333Y-1510524D01*
X3747857Y-1529571D01*
X3747857Y-1548619D01*
X3738333Y-1577190D01*
X3624048Y-1691476D01*
X3747857Y-1691476D01*
X3824048Y-1510524D02*
X3833571Y-1501000D01*
X3852619Y-1491476D01*
X3900238Y-1491476D01*
X3919286Y-1501000D01*
X3928809Y-1510524D01*
X3938333Y-1529571D01*
X3938333Y-1548619D01*
X3928809Y-1577190D01*
X3814524Y-1691476D01*
X3938333Y-1691476D01*
X4176428Y-1691476D02*
X4176428Y-1491476D01*
X4262143Y-1691476D02*
X4262143Y-1586714D01*
X4252619Y-1567667D01*
X4233571Y-1558143D01*
X4205000Y-1558143D01*
X4185952Y-1567667D01*
X4176428Y-1577190D01*
X4385952Y-1691476D02*
X4366905Y-1681952D01*
X4357381Y-1672428D01*
X4347857Y-1653381D01*
X4347857Y-1596238D01*
X4357381Y-1577190D01*
X4366905Y-1567667D01*
X4385952Y-1558143D01*
X4414524Y-1558143D01*
X4433571Y-1567667D01*
X4443095Y-1577190D01*
X4452619Y-1596238D01*
X4452619Y-1653381D01*
X4443095Y-1672428D01*
X4433571Y-1681952D01*
X4414524Y-1691476D01*
X4385952Y-1691476D01*
X4566905Y-1691476D02*
X4547857Y-1681952D01*
X4538333Y-1662905D01*
X4538333Y-1491476D01*
X4719286Y-1681952D02*
X4700238Y-1691476D01*
X4662143Y-1691476D01*
X4643095Y-1681952D01*
X4633571Y-1662905D01*
X4633571Y-1586714D01*
X4643095Y-1567667D01*
X4662143Y-1558143D01*
X4700238Y-1558143D01*
X4719286Y-1567667D01*
X4728810Y-1586714D01*
X4728810Y-1605762D01*
X4633571Y-1624809D01*
X4805000Y-1681952D02*
X4824048Y-1691476D01*
X4862143Y-1691476D01*
X4881190Y-1681952D01*
X4890714Y-1662905D01*
X4890714Y-1653381D01*
X4881190Y-1634333D01*
X4862143Y-1624809D01*
X4833571Y-1624809D01*
X4814524Y-1615286D01*
X4805000Y-1596238D01*
X4805000Y-1586714D01*
X4814524Y-1567667D01*
X4833571Y-1558143D01*
X4862143Y-1558143D01*
X4881190Y-1567667D01*
X4957381Y-1767667D02*
X4966905Y-1758143D01*
X4985952Y-1729571D01*
X4995476Y-1710524D01*
X5005000Y-1681952D01*
X5014524Y-1634333D01*
X5014524Y-1596238D01*
X5005000Y-1548619D01*
X4995476Y-1520048D01*
X4985952Y-1501000D01*
X4966905Y-1472428D01*
X4957381Y-1462905D01*
D17*
X-105000Y-1815000D02*
X-5000Y-1915000D01*
X-5000Y-1815000D02*
X-105000Y-1915000D01*
X-5000Y-1865000D02*
G75*
G03*
X-5000Y-1865000I-50000J0D01*
G01*
D11*
X357381Y-1955476D02*
X243095Y-1955476D01*
X300238Y-1955476D02*
X300238Y-1755476D01*
X281190Y-1784048D01*
X262143Y-1803095D01*
X243095Y-1812619D01*
X443095Y-1936428D02*
X452619Y-1945952D01*
X443095Y-1955476D01*
X433571Y-1945952D01*
X443095Y-1936428D01*
X443095Y-1955476D01*
X576429Y-1755476D02*
X595476Y-1755476D01*
X614524Y-1765000D01*
X624048Y-1774524D01*
X633571Y-1793571D01*
X643095Y-1831667D01*
X643095Y-1879286D01*
X633571Y-1917381D01*
X624048Y-1936428D01*
X614524Y-1945952D01*
X595476Y-1955476D01*
X576429Y-1955476D01*
X557381Y-1945952D01*
X547857Y-1936428D01*
X538333Y-1917381D01*
X528810Y-1879286D01*
X528810Y-1831667D01*
X538333Y-1793571D01*
X547857Y-1774524D01*
X557381Y-1765000D01*
X576429Y-1755476D01*
X766905Y-1755476D02*
X785952Y-1755476D01*
X805000Y-1765000D01*
X814524Y-1774524D01*
X824048Y-1793571D01*
X833571Y-1831667D01*
X833571Y-1879286D01*
X824048Y-1917381D01*
X814524Y-1936428D01*
X805000Y-1945952D01*
X785952Y-1955476D01*
X766905Y-1955476D01*
X747857Y-1945952D01*
X738333Y-1936428D01*
X728809Y-1917381D01*
X719286Y-1879286D01*
X719286Y-1831667D01*
X728809Y-1793571D01*
X738333Y-1774524D01*
X747857Y-1765000D01*
X766905Y-1755476D01*
X957381Y-1755476D02*
X976428Y-1755476D01*
X995476Y-1765000D01*
X1005000Y-1774524D01*
X1014524Y-1793571D01*
X1024048Y-1831667D01*
X1024048Y-1879286D01*
X1014524Y-1917381D01*
X1005000Y-1936428D01*
X995476Y-1945952D01*
X976428Y-1955476D01*
X957381Y-1955476D01*
X938333Y-1945952D01*
X928809Y-1936428D01*
X919286Y-1917381D01*
X909762Y-1879286D01*
X909762Y-1831667D01*
X919286Y-1793571D01*
X928809Y-1774524D01*
X938333Y-1765000D01*
X957381Y-1755476D01*
X1109762Y-1955476D02*
X1109762Y-1822143D01*
X1109762Y-1841190D02*
X1119286Y-1831667D01*
X1138333Y-1822143D01*
X1166905Y-1822143D01*
X1185952Y-1831667D01*
X1195476Y-1850714D01*
X1195476Y-1955476D01*
X1195476Y-1850714D02*
X1205000Y-1831667D01*
X1224048Y-1822143D01*
X1252619Y-1822143D01*
X1271667Y-1831667D01*
X1281190Y-1850714D01*
X1281190Y-1955476D01*
X1376429Y-1955476D02*
X1376429Y-1822143D01*
X1376429Y-1841190D02*
X1385952Y-1831667D01*
X1405000Y-1822143D01*
X1433571Y-1822143D01*
X1452619Y-1831667D01*
X1462143Y-1850714D01*
X1462143Y-1955476D01*
X1462143Y-1850714D02*
X1471667Y-1831667D01*
X1490714Y-1822143D01*
X1519286Y-1822143D01*
X1538333Y-1831667D01*
X1547857Y-1850714D01*
X1547857Y-1955476D01*
X1938333Y-1745952D02*
X1766905Y-2003095D01*
X2195476Y-1755476D02*
X2214524Y-1755476D01*
X2233571Y-1765000D01*
X2243095Y-1774524D01*
X2252619Y-1793571D01*
X2262143Y-1831667D01*
X2262143Y-1879286D01*
X2252619Y-1917381D01*
X2243095Y-1936428D01*
X2233571Y-1945952D01*
X2214524Y-1955476D01*
X2195476Y-1955476D01*
X2176429Y-1945952D01*
X2166905Y-1936428D01*
X2157381Y-1917381D01*
X2147857Y-1879286D01*
X2147857Y-1831667D01*
X2157381Y-1793571D01*
X2166905Y-1774524D01*
X2176429Y-1765000D01*
X2195476Y-1755476D01*
X2347857Y-1936428D02*
X2357381Y-1945952D01*
X2347857Y-1955476D01*
X2338333Y-1945952D01*
X2347857Y-1936428D01*
X2347857Y-1955476D01*
X2481190Y-1755476D02*
X2500238Y-1755476D01*
X2519286Y-1765000D01*
X2528810Y-1774524D01*
X2538333Y-1793571D01*
X2547857Y-1831667D01*
X2547857Y-1879286D01*
X2538333Y-1917381D01*
X2528810Y-1936428D01*
X2519286Y-1945952D01*
X2500238Y-1955476D01*
X2481190Y-1955476D01*
X2462143Y-1945952D01*
X2452619Y-1936428D01*
X2443095Y-1917381D01*
X2433571Y-1879286D01*
X2433571Y-1831667D01*
X2443095Y-1793571D01*
X2452619Y-1774524D01*
X2462143Y-1765000D01*
X2481190Y-1755476D01*
X2614524Y-1755476D02*
X2738333Y-1755476D01*
X2671667Y-1831667D01*
X2700238Y-1831667D01*
X2719286Y-1841190D01*
X2728810Y-1850714D01*
X2738333Y-1869762D01*
X2738333Y-1917381D01*
X2728810Y-1936428D01*
X2719286Y-1945952D01*
X2700238Y-1955476D01*
X2643095Y-1955476D01*
X2624048Y-1945952D01*
X2614524Y-1936428D01*
X2833571Y-1955476D02*
X2871667Y-1955476D01*
X2890714Y-1945952D01*
X2900238Y-1936428D01*
X2919286Y-1907857D01*
X2928809Y-1869762D01*
X2928809Y-1793571D01*
X2919286Y-1774524D01*
X2909762Y-1765000D01*
X2890714Y-1755476D01*
X2852619Y-1755476D01*
X2833571Y-1765000D01*
X2824048Y-1774524D01*
X2814524Y-1793571D01*
X2814524Y-1841190D01*
X2824048Y-1860238D01*
X2833571Y-1869762D01*
X2852619Y-1879286D01*
X2890714Y-1879286D01*
X2909762Y-1869762D01*
X2919286Y-1860238D01*
X2928809Y-1841190D01*
X3100238Y-1822143D02*
X3100238Y-1955476D01*
X3052619Y-1745952D02*
X3005000Y-1888809D01*
X3128809Y-1888809D01*
X3195476Y-1755476D02*
X3195476Y-1793571D01*
X3271667Y-1755476D02*
X3271667Y-1793571D01*
X3566905Y-2031667D02*
X3557381Y-2022143D01*
X3538333Y-1993571D01*
X3528809Y-1974524D01*
X3519286Y-1945952D01*
X3509762Y-1898333D01*
X3509762Y-1860238D01*
X3519286Y-1812619D01*
X3528809Y-1784048D01*
X3538333Y-1765000D01*
X3557381Y-1736428D01*
X3566905Y-1726905D01*
X3633571Y-1774524D02*
X3643095Y-1765000D01*
X3662143Y-1755476D01*
X3709762Y-1755476D01*
X3728809Y-1765000D01*
X3738333Y-1774524D01*
X3747857Y-1793571D01*
X3747857Y-1812619D01*
X3738333Y-1841190D01*
X3624048Y-1955476D01*
X3747857Y-1955476D01*
X3871667Y-1755476D02*
X3890714Y-1755476D01*
X3909762Y-1765000D01*
X3919286Y-1774524D01*
X3928809Y-1793571D01*
X3938333Y-1831667D01*
X3938333Y-1879286D01*
X3928809Y-1917381D01*
X3919286Y-1936428D01*
X3909762Y-1945952D01*
X3890714Y-1955476D01*
X3871667Y-1955476D01*
X3852619Y-1945952D01*
X3843095Y-1936428D01*
X3833571Y-1917381D01*
X3824048Y-1879286D01*
X3824048Y-1831667D01*
X3833571Y-1793571D01*
X3843095Y-1774524D01*
X3852619Y-1765000D01*
X3871667Y-1755476D01*
X4128809Y-1955476D02*
X4014524Y-1955476D01*
X4071667Y-1955476D02*
X4071667Y-1755476D01*
X4052619Y-1784048D01*
X4033571Y-1803095D01*
X4014524Y-1812619D01*
X4366905Y-1955476D02*
X4366905Y-1755476D01*
X4452619Y-1955476D02*
X4452619Y-1850714D01*
X4443095Y-1831667D01*
X4424048Y-1822143D01*
X4395476Y-1822143D01*
X4376429Y-1831667D01*
X4366905Y-1841190D01*
X4576429Y-1955476D02*
X4557381Y-1945952D01*
X4547857Y-1936428D01*
X4538333Y-1917381D01*
X4538333Y-1860238D01*
X4547857Y-1841190D01*
X4557381Y-1831667D01*
X4576429Y-1822143D01*
X4605000Y-1822143D01*
X4624048Y-1831667D01*
X4633571Y-1841190D01*
X4643095Y-1860238D01*
X4643095Y-1917381D01*
X4633571Y-1936428D01*
X4624048Y-1945952D01*
X4605000Y-1955476D01*
X4576429Y-1955476D01*
X4757381Y-1955476D02*
X4738333Y-1945952D01*
X4728810Y-1926905D01*
X4728810Y-1755476D01*
X4909762Y-1945952D02*
X4890714Y-1955476D01*
X4852619Y-1955476D01*
X4833571Y-1945952D01*
X4824048Y-1926905D01*
X4824048Y-1850714D01*
X4833571Y-1831667D01*
X4852619Y-1822143D01*
X4890714Y-1822143D01*
X4909762Y-1831667D01*
X4919286Y-1850714D01*
X4919286Y-1869762D01*
X4824048Y-1888809D01*
X4995476Y-1945952D02*
X5014524Y-1955476D01*
X5052619Y-1955476D01*
X5071667Y-1945952D01*
X5081190Y-1926905D01*
X5081190Y-1917381D01*
X5071667Y-1898333D01*
X5052619Y-1888809D01*
X5024048Y-1888809D01*
X5005000Y-1879286D01*
X4995476Y-1860238D01*
X4995476Y-1850714D01*
X5005000Y-1831667D01*
X5024048Y-1822143D01*
X5052619Y-1822143D01*
X5071667Y-1831667D01*
X5147857Y-2031667D02*
X5157381Y-2022143D01*
X5176429Y-1993571D01*
X5185952Y-1974524D01*
X5195476Y-1945952D01*
X5205000Y-1898333D01*
X5205000Y-1860238D01*
X5195476Y-1812619D01*
X5185952Y-1784048D01*
X5176429Y-1765000D01*
X5157381Y-1736428D01*
X5147857Y-1726905D01*
D18*
X-115000Y-2074000D02*
X-5000Y-2184000D01*
X-5000Y-2074000D02*
X-115000Y-2184000D01*
X-60000Y-2074000D02*
X-60000Y-2184000D01*
X-115000Y-2129000D02*
X-5000Y-2129000D01*
D11*
X357381Y-2219476D02*
X243095Y-2219476D01*
X300238Y-2219476D02*
X300238Y-2019476D01*
X281190Y-2048048D01*
X262143Y-2067095D01*
X243095Y-2076619D01*
X443095Y-2200429D02*
X452619Y-2209952D01*
X443095Y-2219476D01*
X433571Y-2209952D01*
X443095Y-2200429D01*
X443095Y-2219476D01*
X643095Y-2219476D02*
X528810Y-2219476D01*
X585952Y-2219476D02*
X585952Y-2019476D01*
X566905Y-2048048D01*
X547857Y-2067095D01*
X528810Y-2076619D01*
X766905Y-2019476D02*
X785952Y-2019476D01*
X805000Y-2029000D01*
X814524Y-2038524D01*
X824048Y-2057571D01*
X833571Y-2095667D01*
X833571Y-2143286D01*
X824048Y-2181381D01*
X814524Y-2200429D01*
X805000Y-2209952D01*
X785952Y-2219476D01*
X766905Y-2219476D01*
X747857Y-2209952D01*
X738333Y-2200429D01*
X728809Y-2181381D01*
X719286Y-2143286D01*
X719286Y-2095667D01*
X728809Y-2057571D01*
X738333Y-2038524D01*
X747857Y-2029000D01*
X766905Y-2019476D01*
X957381Y-2019476D02*
X976428Y-2019476D01*
X995476Y-2029000D01*
X1005000Y-2038524D01*
X1014524Y-2057571D01*
X1024048Y-2095667D01*
X1024048Y-2143286D01*
X1014524Y-2181381D01*
X1005000Y-2200429D01*
X995476Y-2209952D01*
X976428Y-2219476D01*
X957381Y-2219476D01*
X938333Y-2209952D01*
X928809Y-2200429D01*
X919286Y-2181381D01*
X909762Y-2143286D01*
X909762Y-2095667D01*
X919286Y-2057571D01*
X928809Y-2038524D01*
X938333Y-2029000D01*
X957381Y-2019476D01*
X1109762Y-2219476D02*
X1109762Y-2086143D01*
X1109762Y-2105190D02*
X1119286Y-2095667D01*
X1138333Y-2086143D01*
X1166905Y-2086143D01*
X1185952Y-2095667D01*
X1195476Y-2114714D01*
X1195476Y-2219476D01*
X1195476Y-2114714D02*
X1205000Y-2095667D01*
X1224048Y-2086143D01*
X1252619Y-2086143D01*
X1271667Y-2095667D01*
X1281190Y-2114714D01*
X1281190Y-2219476D01*
X1376429Y-2219476D02*
X1376429Y-2086143D01*
X1376429Y-2105190D02*
X1385952Y-2095667D01*
X1405000Y-2086143D01*
X1433571Y-2086143D01*
X1452619Y-2095667D01*
X1462143Y-2114714D01*
X1462143Y-2219476D01*
X1462143Y-2114714D02*
X1471667Y-2095667D01*
X1490714Y-2086143D01*
X1519286Y-2086143D01*
X1538333Y-2095667D01*
X1547857Y-2114714D01*
X1547857Y-2219476D01*
X1938333Y-2009952D02*
X1766905Y-2267095D01*
X2195476Y-2019476D02*
X2214524Y-2019476D01*
X2233571Y-2029000D01*
X2243095Y-2038524D01*
X2252619Y-2057571D01*
X2262143Y-2095667D01*
X2262143Y-2143286D01*
X2252619Y-2181381D01*
X2243095Y-2200429D01*
X2233571Y-2209952D01*
X2214524Y-2219476D01*
X2195476Y-2219476D01*
X2176429Y-2209952D01*
X2166905Y-2200429D01*
X2157381Y-2181381D01*
X2147857Y-2143286D01*
X2147857Y-2095667D01*
X2157381Y-2057571D01*
X2166905Y-2038524D01*
X2176429Y-2029000D01*
X2195476Y-2019476D01*
X2347857Y-2200429D02*
X2357381Y-2209952D01*
X2347857Y-2219476D01*
X2338333Y-2209952D01*
X2347857Y-2200429D01*
X2347857Y-2219476D01*
X2481190Y-2019476D02*
X2500238Y-2019476D01*
X2519286Y-2029000D01*
X2528810Y-2038524D01*
X2538333Y-2057571D01*
X2547857Y-2095667D01*
X2547857Y-2143286D01*
X2538333Y-2181381D01*
X2528810Y-2200429D01*
X2519286Y-2209952D01*
X2500238Y-2219476D01*
X2481190Y-2219476D01*
X2462143Y-2209952D01*
X2452619Y-2200429D01*
X2443095Y-2181381D01*
X2433571Y-2143286D01*
X2433571Y-2095667D01*
X2443095Y-2057571D01*
X2452619Y-2038524D01*
X2462143Y-2029000D01*
X2481190Y-2019476D01*
X2719286Y-2086143D02*
X2719286Y-2219476D01*
X2671667Y-2009952D02*
X2624048Y-2152810D01*
X2747857Y-2152810D01*
X2805000Y-2019476D02*
X2928809Y-2019476D01*
X2862143Y-2095667D01*
X2890714Y-2095667D01*
X2909762Y-2105190D01*
X2919286Y-2114714D01*
X2928809Y-2133762D01*
X2928809Y-2181381D01*
X2919286Y-2200429D01*
X2909762Y-2209952D01*
X2890714Y-2219476D01*
X2833571Y-2219476D01*
X2814524Y-2209952D01*
X2805000Y-2200429D01*
X2995476Y-2019476D02*
X3119286Y-2019476D01*
X3052619Y-2095667D01*
X3081190Y-2095667D01*
X3100238Y-2105190D01*
X3109762Y-2114714D01*
X3119286Y-2133762D01*
X3119286Y-2181381D01*
X3109762Y-2200429D01*
X3100238Y-2209952D01*
X3081190Y-2219476D01*
X3024048Y-2219476D01*
X3005000Y-2209952D01*
X2995476Y-2200429D01*
X3195476Y-2019476D02*
X3195476Y-2057571D01*
X3271667Y-2019476D02*
X3271667Y-2057571D01*
X3566905Y-2295667D02*
X3557381Y-2286143D01*
X3538333Y-2257571D01*
X3528809Y-2238524D01*
X3519286Y-2209952D01*
X3509762Y-2162333D01*
X3509762Y-2124238D01*
X3519286Y-2076619D01*
X3528809Y-2048048D01*
X3538333Y-2029000D01*
X3557381Y-2000428D01*
X3566905Y-1990905D01*
X3652619Y-2219476D02*
X3690714Y-2219476D01*
X3709762Y-2209952D01*
X3719286Y-2200429D01*
X3738333Y-2171857D01*
X3747857Y-2133762D01*
X3747857Y-2057571D01*
X3738333Y-2038524D01*
X3728809Y-2029000D01*
X3709762Y-2019476D01*
X3671667Y-2019476D01*
X3652619Y-2029000D01*
X3643095Y-2038524D01*
X3633571Y-2057571D01*
X3633571Y-2105190D01*
X3643095Y-2124238D01*
X3652619Y-2133762D01*
X3671667Y-2143286D01*
X3709762Y-2143286D01*
X3728809Y-2133762D01*
X3738333Y-2124238D01*
X3747857Y-2105190D01*
X3824048Y-2038524D02*
X3833571Y-2029000D01*
X3852619Y-2019476D01*
X3900238Y-2019476D01*
X3919286Y-2029000D01*
X3928809Y-2038524D01*
X3938333Y-2057571D01*
X3938333Y-2076619D01*
X3928809Y-2105190D01*
X3814524Y-2219476D01*
X3938333Y-2219476D01*
X4176428Y-2219476D02*
X4176428Y-2019476D01*
X4262143Y-2219476D02*
X4262143Y-2114714D01*
X4252619Y-2095667D01*
X4233571Y-2086143D01*
X4205000Y-2086143D01*
X4185952Y-2095667D01*
X4176428Y-2105190D01*
X4385952Y-2219476D02*
X4366905Y-2209952D01*
X4357381Y-2200429D01*
X4347857Y-2181381D01*
X4347857Y-2124238D01*
X4357381Y-2105190D01*
X4366905Y-2095667D01*
X4385952Y-2086143D01*
X4414524Y-2086143D01*
X4433571Y-2095667D01*
X4443095Y-2105190D01*
X4452619Y-2124238D01*
X4452619Y-2181381D01*
X4443095Y-2200429D01*
X4433571Y-2209952D01*
X4414524Y-2219476D01*
X4385952Y-2219476D01*
X4566905Y-2219476D02*
X4547857Y-2209952D01*
X4538333Y-2190905D01*
X4538333Y-2019476D01*
X4719286Y-2209952D02*
X4700238Y-2219476D01*
X4662143Y-2219476D01*
X4643095Y-2209952D01*
X4633571Y-2190905D01*
X4633571Y-2114714D01*
X4643095Y-2095667D01*
X4662143Y-2086143D01*
X4700238Y-2086143D01*
X4719286Y-2095667D01*
X4728810Y-2114714D01*
X4728810Y-2133762D01*
X4633571Y-2152810D01*
X4805000Y-2209952D02*
X4824048Y-2219476D01*
X4862143Y-2219476D01*
X4881190Y-2209952D01*
X4890714Y-2190905D01*
X4890714Y-2181381D01*
X4881190Y-2162333D01*
X4862143Y-2152810D01*
X4833571Y-2152810D01*
X4814524Y-2143286D01*
X4805000Y-2124238D01*
X4805000Y-2114714D01*
X4814524Y-2095667D01*
X4833571Y-2086143D01*
X4862143Y-2086143D01*
X4881190Y-2095667D01*
X4957381Y-2295667D02*
X4966905Y-2286143D01*
X4985952Y-2257571D01*
X4995476Y-2238524D01*
X5005000Y-2209952D01*
X5014524Y-2162333D01*
X5014524Y-2124238D01*
X5005000Y-2076619D01*
X4995476Y-2048048D01*
X4985952Y-2029000D01*
X4966905Y-2000428D01*
X4957381Y-1990905D01*
D19*
X-135000Y-2328000D02*
X-5000Y-2458000D01*
X-5000Y-2328000D02*
X-135000Y-2458000D01*
X-24038Y-2438962D02*
X-24038Y-2347038D01*
X-115962Y-2347038D01*
X-115962Y-2438962D01*
X-24038Y-2438962D01*
D11*
X357381Y-2483476D02*
X243095Y-2483476D01*
X300238Y-2483476D02*
X300238Y-2283476D01*
X281190Y-2312048D01*
X262143Y-2331095D01*
X243095Y-2340619D01*
X443095Y-2464429D02*
X452619Y-2473952D01*
X443095Y-2483476D01*
X433571Y-2473952D01*
X443095Y-2464429D01*
X443095Y-2483476D01*
X519286Y-2283476D02*
X643095Y-2283476D01*
X576429Y-2359667D01*
X605000Y-2359667D01*
X624048Y-2369190D01*
X633571Y-2378714D01*
X643095Y-2397762D01*
X643095Y-2445381D01*
X633571Y-2464429D01*
X624048Y-2473952D01*
X605000Y-2483476D01*
X547857Y-2483476D01*
X528810Y-2473952D01*
X519286Y-2464429D01*
X766905Y-2283476D02*
X785952Y-2283476D01*
X805000Y-2293000D01*
X814524Y-2302524D01*
X824048Y-2321571D01*
X833571Y-2359667D01*
X833571Y-2407286D01*
X824048Y-2445381D01*
X814524Y-2464429D01*
X805000Y-2473952D01*
X785952Y-2483476D01*
X766905Y-2483476D01*
X747857Y-2473952D01*
X738333Y-2464429D01*
X728809Y-2445381D01*
X719286Y-2407286D01*
X719286Y-2359667D01*
X728809Y-2321571D01*
X738333Y-2302524D01*
X747857Y-2293000D01*
X766905Y-2283476D01*
X957381Y-2283476D02*
X976428Y-2283476D01*
X995476Y-2293000D01*
X1005000Y-2302524D01*
X1014524Y-2321571D01*
X1024048Y-2359667D01*
X1024048Y-2407286D01*
X1014524Y-2445381D01*
X1005000Y-2464429D01*
X995476Y-2473952D01*
X976428Y-2483476D01*
X957381Y-2483476D01*
X938333Y-2473952D01*
X928809Y-2464429D01*
X919286Y-2445381D01*
X909762Y-2407286D01*
X909762Y-2359667D01*
X919286Y-2321571D01*
X928809Y-2302524D01*
X938333Y-2293000D01*
X957381Y-2283476D01*
X1109762Y-2483476D02*
X1109762Y-2350143D01*
X1109762Y-2369190D02*
X1119286Y-2359667D01*
X1138333Y-2350143D01*
X1166905Y-2350143D01*
X1185952Y-2359667D01*
X1195476Y-2378714D01*
X1195476Y-2483476D01*
X1195476Y-2378714D02*
X1205000Y-2359667D01*
X1224048Y-2350143D01*
X1252619Y-2350143D01*
X1271667Y-2359667D01*
X1281190Y-2378714D01*
X1281190Y-2483476D01*
X1376429Y-2483476D02*
X1376429Y-2350143D01*
X1376429Y-2369190D02*
X1385952Y-2359667D01*
X1405000Y-2350143D01*
X1433571Y-2350143D01*
X1452619Y-2359667D01*
X1462143Y-2378714D01*
X1462143Y-2483476D01*
X1462143Y-2378714D02*
X1471667Y-2359667D01*
X1490714Y-2350143D01*
X1519286Y-2350143D01*
X1538333Y-2359667D01*
X1547857Y-2378714D01*
X1547857Y-2483476D01*
X1938333Y-2273952D02*
X1766905Y-2531095D01*
X2195476Y-2283476D02*
X2214524Y-2283476D01*
X2233571Y-2293000D01*
X2243095Y-2302524D01*
X2252619Y-2321571D01*
X2262143Y-2359667D01*
X2262143Y-2407286D01*
X2252619Y-2445381D01*
X2243095Y-2464429D01*
X2233571Y-2473952D01*
X2214524Y-2483476D01*
X2195476Y-2483476D01*
X2176429Y-2473952D01*
X2166905Y-2464429D01*
X2157381Y-2445381D01*
X2147857Y-2407286D01*
X2147857Y-2359667D01*
X2157381Y-2321571D01*
X2166905Y-2302524D01*
X2176429Y-2293000D01*
X2195476Y-2283476D01*
X2347857Y-2464429D02*
X2357381Y-2473952D01*
X2347857Y-2483476D01*
X2338333Y-2473952D01*
X2347857Y-2464429D01*
X2347857Y-2483476D01*
X2481190Y-2283476D02*
X2500238Y-2283476D01*
X2519286Y-2293000D01*
X2528810Y-2302524D01*
X2538333Y-2321571D01*
X2547857Y-2359667D01*
X2547857Y-2407286D01*
X2538333Y-2445381D01*
X2528810Y-2464429D01*
X2519286Y-2473952D01*
X2500238Y-2483476D01*
X2481190Y-2483476D01*
X2462143Y-2473952D01*
X2452619Y-2464429D01*
X2443095Y-2445381D01*
X2433571Y-2407286D01*
X2433571Y-2359667D01*
X2443095Y-2321571D01*
X2452619Y-2302524D01*
X2462143Y-2293000D01*
X2481190Y-2283476D01*
X2728810Y-2283476D02*
X2633571Y-2283476D01*
X2624048Y-2378714D01*
X2633571Y-2369190D01*
X2652619Y-2359667D01*
X2700238Y-2359667D01*
X2719286Y-2369190D01*
X2728810Y-2378714D01*
X2738333Y-2397762D01*
X2738333Y-2445381D01*
X2728810Y-2464429D01*
X2719286Y-2473952D01*
X2700238Y-2483476D01*
X2652619Y-2483476D01*
X2633571Y-2473952D01*
X2624048Y-2464429D01*
X2928809Y-2483476D02*
X2814524Y-2483476D01*
X2871667Y-2483476D02*
X2871667Y-2283476D01*
X2852619Y-2312048D01*
X2833571Y-2331095D01*
X2814524Y-2340619D01*
X3005000Y-2302524D02*
X3014524Y-2293000D01*
X3033571Y-2283476D01*
X3081190Y-2283476D01*
X3100238Y-2293000D01*
X3109762Y-2302524D01*
X3119286Y-2321571D01*
X3119286Y-2340619D01*
X3109762Y-2369190D01*
X2995476Y-2483476D01*
X3119286Y-2483476D01*
X3195476Y-2283476D02*
X3195476Y-2321571D01*
X3271667Y-2283476D02*
X3271667Y-2321571D01*
X3566905Y-2559667D02*
X3557381Y-2550143D01*
X3538333Y-2521571D01*
X3528809Y-2502524D01*
X3519286Y-2473952D01*
X3509762Y-2426333D01*
X3509762Y-2388238D01*
X3519286Y-2340619D01*
X3528809Y-2312048D01*
X3538333Y-2293000D01*
X3557381Y-2264429D01*
X3566905Y-2254905D01*
X3633571Y-2302524D02*
X3643095Y-2293000D01*
X3662143Y-2283476D01*
X3709762Y-2283476D01*
X3728809Y-2293000D01*
X3738333Y-2302524D01*
X3747857Y-2321571D01*
X3747857Y-2340619D01*
X3738333Y-2369190D01*
X3624048Y-2483476D01*
X3747857Y-2483476D01*
X3843095Y-2483476D02*
X3881190Y-2483476D01*
X3900238Y-2473952D01*
X3909762Y-2464429D01*
X3928809Y-2435857D01*
X3938333Y-2397762D01*
X3938333Y-2321571D01*
X3928809Y-2302524D01*
X3919286Y-2293000D01*
X3900238Y-2283476D01*
X3862143Y-2283476D01*
X3843095Y-2293000D01*
X3833571Y-2302524D01*
X3824048Y-2321571D01*
X3824048Y-2369190D01*
X3833571Y-2388238D01*
X3843095Y-2397762D01*
X3862143Y-2407286D01*
X3900238Y-2407286D01*
X3919286Y-2397762D01*
X3928809Y-2388238D01*
X3938333Y-2369190D01*
X4176428Y-2483476D02*
X4176428Y-2283476D01*
X4262143Y-2483476D02*
X4262143Y-2378714D01*
X4252619Y-2359667D01*
X4233571Y-2350143D01*
X4205000Y-2350143D01*
X4185952Y-2359667D01*
X4176428Y-2369190D01*
X4385952Y-2483476D02*
X4366905Y-2473952D01*
X4357381Y-2464429D01*
X4347857Y-2445381D01*
X4347857Y-2388238D01*
X4357381Y-2369190D01*
X4366905Y-2359667D01*
X4385952Y-2350143D01*
X4414524Y-2350143D01*
X4433571Y-2359667D01*
X4443095Y-2369190D01*
X4452619Y-2388238D01*
X4452619Y-2445381D01*
X4443095Y-2464429D01*
X4433571Y-2473952D01*
X4414524Y-2483476D01*
X4385952Y-2483476D01*
X4566905Y-2483476D02*
X4547857Y-2473952D01*
X4538333Y-2454905D01*
X4538333Y-2283476D01*
X4719286Y-2473952D02*
X4700238Y-2483476D01*
X4662143Y-2483476D01*
X4643095Y-2473952D01*
X4633571Y-2454905D01*
X4633571Y-2378714D01*
X4643095Y-2359667D01*
X4662143Y-2350143D01*
X4700238Y-2350143D01*
X4719286Y-2359667D01*
X4728810Y-2378714D01*
X4728810Y-2397762D01*
X4633571Y-2416810D01*
X4805000Y-2473952D02*
X4824048Y-2483476D01*
X4862143Y-2483476D01*
X4881190Y-2473952D01*
X4890714Y-2454905D01*
X4890714Y-2445381D01*
X4881190Y-2426333D01*
X4862143Y-2416810D01*
X4833571Y-2416810D01*
X4814524Y-2407286D01*
X4805000Y-2388238D01*
X4805000Y-2378714D01*
X4814524Y-2359667D01*
X4833571Y-2350143D01*
X4862143Y-2350143D01*
X4881190Y-2359667D01*
X4957381Y-2559667D02*
X4966905Y-2550143D01*
X4985952Y-2521571D01*
X4995476Y-2502524D01*
X5005000Y-2473952D01*
X5014524Y-2426333D01*
X5014524Y-2388238D01*
X5005000Y-2340619D01*
X4995476Y-2312048D01*
X4985952Y-2293000D01*
X4966905Y-2264429D01*
X4957381Y-2254905D01*
D20*
X-157000Y-2581000D02*
X-5000Y-2733000D01*
X-5000Y-2581000D02*
X-157000Y-2733000D01*
X-81000Y-2733000D02*
X-5000Y-2657000D01*
X-81000Y-2581000D01*
X-157000Y-2657000D01*
X-81000Y-2733000D01*
D11*
X357381Y-2747476D02*
X243095Y-2747476D01*
X300238Y-2747476D02*
X300238Y-2547476D01*
X281190Y-2576048D01*
X262143Y-2595095D01*
X243095Y-2604619D01*
X443095Y-2728429D02*
X452619Y-2737952D01*
X443095Y-2747476D01*
X433571Y-2737952D01*
X443095Y-2728429D01*
X443095Y-2747476D01*
X633571Y-2547476D02*
X538333Y-2547476D01*
X528810Y-2642714D01*
X538333Y-2633190D01*
X557381Y-2623667D01*
X605000Y-2623667D01*
X624048Y-2633190D01*
X633571Y-2642714D01*
X643095Y-2661762D01*
X643095Y-2709381D01*
X633571Y-2728429D01*
X624048Y-2737952D01*
X605000Y-2747476D01*
X557381Y-2747476D01*
X538333Y-2737952D01*
X528810Y-2728429D01*
X719286Y-2566524D02*
X728809Y-2557000D01*
X747857Y-2547476D01*
X795476Y-2547476D01*
X814524Y-2557000D01*
X824048Y-2566524D01*
X833571Y-2585571D01*
X833571Y-2604619D01*
X824048Y-2633190D01*
X709762Y-2747476D01*
X833571Y-2747476D01*
X957381Y-2547476D02*
X976428Y-2547476D01*
X995476Y-2557000D01*
X1005000Y-2566524D01*
X1014524Y-2585571D01*
X1024048Y-2623667D01*
X1024048Y-2671286D01*
X1014524Y-2709381D01*
X1005000Y-2728429D01*
X995476Y-2737952D01*
X976428Y-2747476D01*
X957381Y-2747476D01*
X938333Y-2737952D01*
X928809Y-2728429D01*
X919286Y-2709381D01*
X909762Y-2671286D01*
X909762Y-2623667D01*
X919286Y-2585571D01*
X928809Y-2566524D01*
X938333Y-2557000D01*
X957381Y-2547476D01*
X1109762Y-2747476D02*
X1109762Y-2614143D01*
X1109762Y-2633190D02*
X1119286Y-2623667D01*
X1138333Y-2614143D01*
X1166905Y-2614143D01*
X1185952Y-2623667D01*
X1195476Y-2642714D01*
X1195476Y-2747476D01*
X1195476Y-2642714D02*
X1205000Y-2623667D01*
X1224048Y-2614143D01*
X1252619Y-2614143D01*
X1271667Y-2623667D01*
X1281190Y-2642714D01*
X1281190Y-2747476D01*
X1376429Y-2747476D02*
X1376429Y-2614143D01*
X1376429Y-2633190D02*
X1385952Y-2623667D01*
X1405000Y-2614143D01*
X1433571Y-2614143D01*
X1452619Y-2623667D01*
X1462143Y-2642714D01*
X1462143Y-2747476D01*
X1462143Y-2642714D02*
X1471667Y-2623667D01*
X1490714Y-2614143D01*
X1519286Y-2614143D01*
X1538333Y-2623667D01*
X1547857Y-2642714D01*
X1547857Y-2747476D01*
X1938333Y-2537952D02*
X1766905Y-2795095D01*
X2195476Y-2547476D02*
X2214524Y-2547476D01*
X2233571Y-2557000D01*
X2243095Y-2566524D01*
X2252619Y-2585571D01*
X2262143Y-2623667D01*
X2262143Y-2671286D01*
X2252619Y-2709381D01*
X2243095Y-2728429D01*
X2233571Y-2737952D01*
X2214524Y-2747476D01*
X2195476Y-2747476D01*
X2176429Y-2737952D01*
X2166905Y-2728429D01*
X2157381Y-2709381D01*
X2147857Y-2671286D01*
X2147857Y-2623667D01*
X2157381Y-2585571D01*
X2166905Y-2566524D01*
X2176429Y-2557000D01*
X2195476Y-2547476D01*
X2347857Y-2728429D02*
X2357381Y-2737952D01*
X2347857Y-2747476D01*
X2338333Y-2737952D01*
X2347857Y-2728429D01*
X2347857Y-2747476D01*
X2481190Y-2547476D02*
X2500238Y-2547476D01*
X2519286Y-2557000D01*
X2528810Y-2566524D01*
X2538333Y-2585571D01*
X2547857Y-2623667D01*
X2547857Y-2671286D01*
X2538333Y-2709381D01*
X2528810Y-2728429D01*
X2519286Y-2737952D01*
X2500238Y-2747476D01*
X2481190Y-2747476D01*
X2462143Y-2737952D01*
X2452619Y-2728429D01*
X2443095Y-2709381D01*
X2433571Y-2671286D01*
X2433571Y-2623667D01*
X2443095Y-2585571D01*
X2452619Y-2566524D01*
X2462143Y-2557000D01*
X2481190Y-2547476D01*
X2728810Y-2547476D02*
X2633571Y-2547476D01*
X2624048Y-2642714D01*
X2633571Y-2633190D01*
X2652619Y-2623667D01*
X2700238Y-2623667D01*
X2719286Y-2633190D01*
X2728810Y-2642714D01*
X2738333Y-2661762D01*
X2738333Y-2709381D01*
X2728810Y-2728429D01*
X2719286Y-2737952D01*
X2700238Y-2747476D01*
X2652619Y-2747476D01*
X2633571Y-2737952D01*
X2624048Y-2728429D01*
X2833571Y-2747476D02*
X2871667Y-2747476D01*
X2890714Y-2737952D01*
X2900238Y-2728429D01*
X2919286Y-2699857D01*
X2928809Y-2661762D01*
X2928809Y-2585571D01*
X2919286Y-2566524D01*
X2909762Y-2557000D01*
X2890714Y-2547476D01*
X2852619Y-2547476D01*
X2833571Y-2557000D01*
X2824048Y-2566524D01*
X2814524Y-2585571D01*
X2814524Y-2633190D01*
X2824048Y-2652238D01*
X2833571Y-2661762D01*
X2852619Y-2671286D01*
X2890714Y-2671286D01*
X2909762Y-2661762D01*
X2919286Y-2652238D01*
X2928809Y-2633190D01*
X3043095Y-2633190D02*
X3024048Y-2623667D01*
X3014524Y-2614143D01*
X3005000Y-2595095D01*
X3005000Y-2585571D01*
X3014524Y-2566524D01*
X3024048Y-2557000D01*
X3043095Y-2547476D01*
X3081190Y-2547476D01*
X3100238Y-2557000D01*
X3109762Y-2566524D01*
X3119286Y-2585571D01*
X3119286Y-2595095D01*
X3109762Y-2614143D01*
X3100238Y-2623667D01*
X3081190Y-2633190D01*
X3043095Y-2633190D01*
X3024048Y-2642714D01*
X3014524Y-2652238D01*
X3005000Y-2671286D01*
X3005000Y-2709381D01*
X3014524Y-2728429D01*
X3024048Y-2737952D01*
X3043095Y-2747476D01*
X3081190Y-2747476D01*
X3100238Y-2737952D01*
X3109762Y-2728429D01*
X3119286Y-2709381D01*
X3119286Y-2671286D01*
X3109762Y-2652238D01*
X3100238Y-2642714D01*
X3081190Y-2633190D01*
X3195476Y-2547476D02*
X3195476Y-2585571D01*
X3271667Y-2547476D02*
X3271667Y-2585571D01*
X3566905Y-2823667D02*
X3557381Y-2814143D01*
X3538333Y-2785571D01*
X3528809Y-2766524D01*
X3519286Y-2737952D01*
X3509762Y-2690333D01*
X3509762Y-2652238D01*
X3519286Y-2604619D01*
X3528809Y-2576048D01*
X3538333Y-2557000D01*
X3557381Y-2528429D01*
X3566905Y-2518905D01*
X3747857Y-2747476D02*
X3633571Y-2747476D01*
X3690714Y-2747476D02*
X3690714Y-2547476D01*
X3671667Y-2576048D01*
X3652619Y-2595095D01*
X3633571Y-2604619D01*
X3824048Y-2566524D02*
X3833571Y-2557000D01*
X3852619Y-2547476D01*
X3900238Y-2547476D01*
X3919286Y-2557000D01*
X3928809Y-2566524D01*
X3938333Y-2585571D01*
X3938333Y-2604619D01*
X3928809Y-2633190D01*
X3814524Y-2747476D01*
X3938333Y-2747476D01*
X4176428Y-2747476D02*
X4176428Y-2547476D01*
X4262143Y-2747476D02*
X4262143Y-2642714D01*
X4252619Y-2623667D01*
X4233571Y-2614143D01*
X4205000Y-2614143D01*
X4185952Y-2623667D01*
X4176428Y-2633190D01*
X4385952Y-2747476D02*
X4366905Y-2737952D01*
X4357381Y-2728429D01*
X4347857Y-2709381D01*
X4347857Y-2652238D01*
X4357381Y-2633190D01*
X4366905Y-2623667D01*
X4385952Y-2614143D01*
X4414524Y-2614143D01*
X4433571Y-2623667D01*
X4443095Y-2633190D01*
X4452619Y-2652238D01*
X4452619Y-2709381D01*
X4443095Y-2728429D01*
X4433571Y-2737952D01*
X4414524Y-2747476D01*
X4385952Y-2747476D01*
X4566905Y-2747476D02*
X4547857Y-2737952D01*
X4538333Y-2718905D01*
X4538333Y-2547476D01*
X4719286Y-2737952D02*
X4700238Y-2747476D01*
X4662143Y-2747476D01*
X4643095Y-2737952D01*
X4633571Y-2718905D01*
X4633571Y-2642714D01*
X4643095Y-2623667D01*
X4662143Y-2614143D01*
X4700238Y-2614143D01*
X4719286Y-2623667D01*
X4728810Y-2642714D01*
X4728810Y-2661762D01*
X4633571Y-2680810D01*
X4805000Y-2737952D02*
X4824048Y-2747476D01*
X4862143Y-2747476D01*
X4881190Y-2737952D01*
X4890714Y-2718905D01*
X4890714Y-2709381D01*
X4881190Y-2690333D01*
X4862143Y-2680810D01*
X4833571Y-2680810D01*
X4814524Y-2671286D01*
X4805000Y-2652238D01*
X4805000Y-2642714D01*
X4814524Y-2623667D01*
X4833571Y-2614143D01*
X4862143Y-2614143D01*
X4881190Y-2623667D01*
X4957381Y-2823667D02*
X4966905Y-2814143D01*
X4985952Y-2785571D01*
X4995476Y-2766524D01*
X5005000Y-2737952D01*
X5014524Y-2690333D01*
X5014524Y-2652238D01*
X5005000Y-2604619D01*
X4995476Y-2576048D01*
X4985952Y-2557000D01*
X4966905Y-2528429D01*
X4957381Y-2518905D01*
X-105000Y-2829000D02*
X-105000Y-3029000D01*
X-205000Y-2929000D02*
X-5000Y-2929000D01*
X-5000Y-2929000D02*
G75*
G03*
X-5000Y-2929000I-100000J0D01*
G01*
X233571Y-2819476D02*
X357381Y-2819476D01*
X290714Y-2895667D01*
X319286Y-2895667D01*
X338333Y-2905190D01*
X347857Y-2914714D01*
X357381Y-2933762D01*
X357381Y-2981381D01*
X347857Y-3000428D01*
X338333Y-3009952D01*
X319286Y-3019476D01*
X262143Y-3019476D01*
X243095Y-3009952D01*
X233571Y-3000428D01*
X443095Y-3000428D02*
X452619Y-3009952D01*
X443095Y-3019476D01*
X433571Y-3009952D01*
X443095Y-3000428D01*
X443095Y-3019476D01*
X576429Y-2819476D02*
X595476Y-2819476D01*
X614524Y-2829000D01*
X624048Y-2838524D01*
X633571Y-2857571D01*
X643095Y-2895667D01*
X643095Y-2943286D01*
X633571Y-2981381D01*
X624048Y-3000428D01*
X614524Y-3009952D01*
X595476Y-3019476D01*
X576429Y-3019476D01*
X557381Y-3009952D01*
X547857Y-3000428D01*
X538333Y-2981381D01*
X528810Y-2943286D01*
X528810Y-2895667D01*
X538333Y-2857571D01*
X547857Y-2838524D01*
X557381Y-2829000D01*
X576429Y-2819476D01*
X766905Y-2819476D02*
X785952Y-2819476D01*
X805000Y-2829000D01*
X814524Y-2838524D01*
X824048Y-2857571D01*
X833571Y-2895667D01*
X833571Y-2943286D01*
X824048Y-2981381D01*
X814524Y-3000428D01*
X805000Y-3009952D01*
X785952Y-3019476D01*
X766905Y-3019476D01*
X747857Y-3009952D01*
X738333Y-3000428D01*
X728809Y-2981381D01*
X719286Y-2943286D01*
X719286Y-2895667D01*
X728809Y-2857571D01*
X738333Y-2838524D01*
X747857Y-2829000D01*
X766905Y-2819476D01*
X957381Y-2819476D02*
X976428Y-2819476D01*
X995476Y-2829000D01*
X1005000Y-2838524D01*
X1014524Y-2857571D01*
X1024048Y-2895667D01*
X1024048Y-2943286D01*
X1014524Y-2981381D01*
X1005000Y-3000428D01*
X995476Y-3009952D01*
X976428Y-3019476D01*
X957381Y-3019476D01*
X938333Y-3009952D01*
X928809Y-3000428D01*
X919286Y-2981381D01*
X909762Y-2943286D01*
X909762Y-2895667D01*
X919286Y-2857571D01*
X928809Y-2838524D01*
X938333Y-2829000D01*
X957381Y-2819476D01*
X1109762Y-3019476D02*
X1109762Y-2886143D01*
X1109762Y-2905190D02*
X1119286Y-2895667D01*
X1138333Y-2886143D01*
X1166905Y-2886143D01*
X1185952Y-2895667D01*
X1195476Y-2914714D01*
X1195476Y-3019476D01*
X1195476Y-2914714D02*
X1205000Y-2895667D01*
X1224048Y-2886143D01*
X1252619Y-2886143D01*
X1271667Y-2895667D01*
X1281190Y-2914714D01*
X1281190Y-3019476D01*
X1376429Y-3019476D02*
X1376429Y-2886143D01*
X1376429Y-2905190D02*
X1385952Y-2895667D01*
X1405000Y-2886143D01*
X1433571Y-2886143D01*
X1452619Y-2895667D01*
X1462143Y-2914714D01*
X1462143Y-3019476D01*
X1462143Y-2914714D02*
X1471667Y-2895667D01*
X1490714Y-2886143D01*
X1519286Y-2886143D01*
X1538333Y-2895667D01*
X1547857Y-2914714D01*
X1547857Y-3019476D01*
X1938333Y-2809952D02*
X1766905Y-3067095D01*
X2195476Y-2819476D02*
X2214524Y-2819476D01*
X2233571Y-2829000D01*
X2243095Y-2838524D01*
X2252619Y-2857571D01*
X2262143Y-2895667D01*
X2262143Y-2943286D01*
X2252619Y-2981381D01*
X2243095Y-3000428D01*
X2233571Y-3009952D01*
X2214524Y-3019476D01*
X2195476Y-3019476D01*
X2176429Y-3009952D01*
X2166905Y-3000428D01*
X2157381Y-2981381D01*
X2147857Y-2943286D01*
X2147857Y-2895667D01*
X2157381Y-2857571D01*
X2166905Y-2838524D01*
X2176429Y-2829000D01*
X2195476Y-2819476D01*
X2347857Y-3000428D02*
X2357381Y-3009952D01*
X2347857Y-3019476D01*
X2338333Y-3009952D01*
X2347857Y-3000428D01*
X2347857Y-3019476D01*
X2547857Y-3019476D02*
X2433571Y-3019476D01*
X2490714Y-3019476D02*
X2490714Y-2819476D01*
X2471667Y-2848048D01*
X2452619Y-2867095D01*
X2433571Y-2876619D01*
X2738333Y-3019476D02*
X2624048Y-3019476D01*
X2681190Y-3019476D02*
X2681190Y-2819476D01*
X2662143Y-2848048D01*
X2643095Y-2867095D01*
X2624048Y-2876619D01*
X2852619Y-2905190D02*
X2833571Y-2895667D01*
X2824048Y-2886143D01*
X2814524Y-2867095D01*
X2814524Y-2857571D01*
X2824048Y-2838524D01*
X2833571Y-2829000D01*
X2852619Y-2819476D01*
X2890714Y-2819476D01*
X2909762Y-2829000D01*
X2919286Y-2838524D01*
X2928809Y-2857571D01*
X2928809Y-2867095D01*
X2919286Y-2886143D01*
X2909762Y-2895667D01*
X2890714Y-2905190D01*
X2852619Y-2905190D01*
X2833571Y-2914714D01*
X2824048Y-2924238D01*
X2814524Y-2943286D01*
X2814524Y-2981381D01*
X2824048Y-3000428D01*
X2833571Y-3009952D01*
X2852619Y-3019476D01*
X2890714Y-3019476D01*
X2909762Y-3009952D01*
X2919286Y-3000428D01*
X2928809Y-2981381D01*
X2928809Y-2943286D01*
X2919286Y-2924238D01*
X2909762Y-2914714D01*
X2890714Y-2905190D01*
X3119286Y-3019476D02*
X3005000Y-3019476D01*
X3062143Y-3019476D02*
X3062143Y-2819476D01*
X3043095Y-2848048D01*
X3024048Y-2867095D01*
X3005000Y-2876619D01*
X3195476Y-2819476D02*
X3195476Y-2857571D01*
X3271667Y-2819476D02*
X3271667Y-2857571D01*
X3566905Y-3095667D02*
X3557381Y-3086143D01*
X3538333Y-3057571D01*
X3528809Y-3038524D01*
X3519286Y-3009952D01*
X3509762Y-2962333D01*
X3509762Y-2924238D01*
X3519286Y-2876619D01*
X3528809Y-2848048D01*
X3538333Y-2829000D01*
X3557381Y-2800428D01*
X3566905Y-2790905D01*
X3747857Y-3019476D02*
X3633571Y-3019476D01*
X3690714Y-3019476D02*
X3690714Y-2819476D01*
X3671667Y-2848048D01*
X3652619Y-2867095D01*
X3633571Y-2876619D01*
X3871667Y-2819476D02*
X3890714Y-2819476D01*
X3909762Y-2829000D01*
X3919286Y-2838524D01*
X3928809Y-2857571D01*
X3938333Y-2895667D01*
X3938333Y-2943286D01*
X3928809Y-2981381D01*
X3919286Y-3000428D01*
X3909762Y-3009952D01*
X3890714Y-3019476D01*
X3871667Y-3019476D01*
X3852619Y-3009952D01*
X3843095Y-3000428D01*
X3833571Y-2981381D01*
X3824048Y-2943286D01*
X3824048Y-2895667D01*
X3833571Y-2857571D01*
X3843095Y-2838524D01*
X3852619Y-2829000D01*
X3871667Y-2819476D01*
X4176428Y-3019476D02*
X4176428Y-2819476D01*
X4262143Y-3019476D02*
X4262143Y-2914714D01*
X4252619Y-2895667D01*
X4233571Y-2886143D01*
X4205000Y-2886143D01*
X4185952Y-2895667D01*
X4176428Y-2905190D01*
X4385952Y-3019476D02*
X4366905Y-3009952D01*
X4357381Y-3000428D01*
X4347857Y-2981381D01*
X4347857Y-2924238D01*
X4357381Y-2905190D01*
X4366905Y-2895667D01*
X4385952Y-2886143D01*
X4414524Y-2886143D01*
X4433571Y-2895667D01*
X4443095Y-2905190D01*
X4452619Y-2924238D01*
X4452619Y-2981381D01*
X4443095Y-3000428D01*
X4433571Y-3009952D01*
X4414524Y-3019476D01*
X4385952Y-3019476D01*
X4566905Y-3019476D02*
X4547857Y-3009952D01*
X4538333Y-2990905D01*
X4538333Y-2819476D01*
X4719286Y-3009952D02*
X4700238Y-3019476D01*
X4662143Y-3019476D01*
X4643095Y-3009952D01*
X4633571Y-2990905D01*
X4633571Y-2914714D01*
X4643095Y-2895667D01*
X4662143Y-2886143D01*
X4700238Y-2886143D01*
X4719286Y-2895667D01*
X4728810Y-2914714D01*
X4728810Y-2933762D01*
X4633571Y-2952809D01*
X4805000Y-3009952D02*
X4824048Y-3019476D01*
X4862143Y-3019476D01*
X4881190Y-3009952D01*
X4890714Y-2990905D01*
X4890714Y-2981381D01*
X4881190Y-2962333D01*
X4862143Y-2952809D01*
X4833571Y-2952809D01*
X4814524Y-2943286D01*
X4805000Y-2924238D01*
X4805000Y-2914714D01*
X4814524Y-2895667D01*
X4833571Y-2886143D01*
X4862143Y-2886143D01*
X4881190Y-2895667D01*
X4957381Y-3095667D02*
X4966905Y-3086143D01*
X4985952Y-3057571D01*
X4995476Y-3038524D01*
X5005000Y-3009952D01*
X5014524Y-2962333D01*
X5014524Y-2924238D01*
X5005000Y-2876619D01*
X4995476Y-2848048D01*
X4985952Y-2829000D01*
X4966905Y-2800428D01*
X4957381Y-2790905D01*
M02*
