M48
; DRILL file {KiCad (6.0.6)} date Sat Sep 14 08:36:46 2024
; FORMAT={-:-/ absolute / metric / decimal}
; #@! TF.CreationDate,2024-09-14T08:36:46+08:00
; #@! TF.GenerationSoftware,Kicad,Pcbnew,(6.0.6)
; #@! TF.FileFunction,Plated,1,2,PTH
FMAT,2
METRIC
; #@! TA.AperFunction,Plated,PTH,ViaDrill
T1C0.400
; #@! TA.AperFunction,Plated,PTH,ComponentDrill
T2C0.700
; #@! TA.AperFunction,Plated,PTH,ComponentDrill
T3C0.750
; #@! TA.AperFunction,Plated,PTH,ComponentDrill
T4C0.800
; #@! TA.AperFunction,Plated,PTH,ComponentDrill
T5C0.900
; #@! TA.AperFunction,Plated,PTH,ComponentDrill
T6C1.000
; #@! TA.AperFunction,Plated,PTH,ComponentDrill
T7C1.100
; #@! TA.AperFunction,Plated,PTH,ComponentDrill
T8C1.300
; #@! TA.AperFunction,Plated,PTH,ComponentDrill
T9C1.520
; #@! TA.AperFunction,Plated,PTH,ViaDrill
T10C3.000
%
G90
G05
T1
X28.194Y50.546
X48.68Y53.34
X64.008Y50.459
T2
X187.198Y52.578
X189.738Y55.118
X192.278Y52.578
T3
X11.599Y49.17
X12.869Y49.17
X14.139Y49.17
X29.803Y49.17
X31.073Y49.17
X32.343Y49.17
X48.006Y49.17
X49.276Y49.17
X50.546Y49.17
X66.209Y49.17
X67.479Y49.17
X68.749Y49.17
X197.358Y96.266
X198.628Y96.266
X199.898Y96.266
T4
X9.398Y77.714
X9.398Y70.114
X31.75Y96.577
X31.75Y91.577
X167.426Y84.074
X169.926Y84.074
T5
X22.86Y75.692
X22.86Y73.152
X35.814Y59.69
X38.354Y59.69
X41.487Y59.69
X44.027Y59.69
X47.159Y59.69
X49.699Y59.69
X52.832Y59.69
X55.372Y59.69
X84.205Y129.16
X86.745Y129.16
X96.384Y129.16
X98.924Y129.16
X108.563Y129.16
X111.103Y129.16
X120.752Y129.16
X123.292Y129.16
X132.931Y129.16
X135.471Y129.16
X184.907Y84.582
X187.447Y84.582
T6
X11.933Y103.124
X14.473Y103.124
X16.723Y92.71
X17.013Y103.124
X19.264Y92.71
X19.553Y103.124
X21.803Y92.71
X22.093Y103.124
X24.343Y92.71
X24.633Y103.124
X27.173Y103.124
X28.448Y82.042
X30.988Y82.042
X32.512Y72.644
X32.512Y70.104
X37.35Y77.89
X37.35Y75.35
X37.35Y72.81
X54.93Y92.202
X54.95Y106.362
X57.47Y92.202
X57.49Y106.362
X60.011Y92.202
X60.03Y106.362
X60.96Y59.944
X62.55Y92.202
X62.57Y106.362
X63.5Y59.944
X66.04Y59.944
X66.518Y76.48
X66.548Y70.104
X68.58Y59.944
X69.058Y76.48
X69.088Y70.104
X71.12Y59.944
X71.598Y76.48
X71.628Y70.104
X73.66Y59.944
X83.78Y85.039
X83.78Y80.039
X84.195Y136.764
X84.545Y113.586
X84.545Y90.392
X85.82Y85.039
X85.82Y80.039
X86.735Y136.764
X87.085Y113.586
X87.085Y90.392
X87.86Y85.039
X87.86Y80.039
X95.504Y64.77
X95.959Y85.039
X95.959Y80.039
X96.374Y136.764
X96.724Y113.586
X96.724Y90.392
X97.999Y85.039
X97.999Y80.039
X98.044Y64.77
X98.914Y136.764
X99.264Y113.586
X99.264Y90.392
X100.039Y85.039
X100.039Y80.039
X100.584Y64.77
X108.418Y85.039
X108.418Y80.039
X108.553Y136.764
X108.903Y113.586
X108.903Y90.392
X110.458Y85.039
X110.458Y80.039
X111.093Y136.764
X111.443Y113.586
X111.443Y90.392
X112.498Y85.039
X112.498Y80.039
X120.457Y85.039
X120.457Y80.039
X120.732Y136.764
X121.082Y113.586
X121.082Y90.392
X122.497Y85.039
X122.497Y80.039
X123.272Y136.764
X123.622Y113.586
X123.622Y90.392
X124.537Y85.039
X124.537Y80.039
X132.496Y85.039
X132.496Y80.039
X132.911Y136.764
X133.261Y113.586
X133.261Y90.392
X134.01Y28.779
X134.01Y20.905
X134.536Y85.039
X134.536Y80.039
X135.451Y136.764
X135.801Y113.586
X135.801Y90.392
X136.55Y28.779
X136.55Y20.905
X136.576Y85.039
X136.576Y80.039
X139.09Y28.779
X139.09Y20.905
X141.63Y28.779
X141.63Y20.905
X150.326Y92.234
X150.346Y84.694
X152.866Y92.234
X152.886Y84.694
X155.406Y92.234
X155.426Y84.694
X157.946Y92.234
X157.966Y84.694
X160.528Y25.908
X160.528Y23.368
X160.528Y20.828
X170.162Y134.127
X170.162Y131.587
X170.162Y129.047
X173.736Y89.694
X173.846Y84.694
X174.244Y55.103
X174.244Y52.563
X174.244Y50.023
X174.498Y66.299
X174.498Y63.759
X176.276Y89.694
X176.386Y84.694
X177.91Y193.564
X177.91Y188.484
X178.816Y89.694
X178.926Y84.694
X180.45Y193.564
X180.45Y188.484
X181.356Y89.694
X182.99Y193.564
X182.99Y188.484
X185.53Y193.564
X185.53Y188.484
X188.07Y193.564
X188.07Y188.484
X189.484Y68.824
X189.484Y61.224
X190.61Y193.564
X190.61Y188.484
X193.15Y193.564
X193.15Y188.484
X195.69Y193.564
X195.69Y188.484
X196.071Y84.694
X198.23Y193.564
X198.23Y188.484
X198.611Y84.694
X200.77Y193.564
X200.77Y188.484
X201.151Y84.694
X203.31Y193.564
X203.31Y188.484
X203.708Y56.378
X203.708Y48.778
X205.754Y134.127
X205.754Y131.587
X205.754Y129.047
X205.85Y193.564
X205.85Y188.484
X208.39Y193.564
X208.39Y188.484
X210.93Y193.564
X210.93Y188.484
X213.47Y193.564
X213.47Y188.484
X216.01Y193.564
X216.01Y188.484
X219.456Y43.673
X219.456Y41.133
X219.456Y38.593
X219.456Y36.053
X219.456Y33.513
X219.456Y30.973
X219.456Y28.433
X219.456Y25.893
X223.011Y136.931
X225.551Y136.931
X228.091Y136.931
X230.631Y136.931
X233.171Y136.931
X235.711Y136.931
X238.251Y136.931
X240.791Y136.931
X282.725Y43.703
X282.725Y41.163
X282.725Y38.623
X282.725Y36.083
X282.725Y33.543
X282.725Y31.003
X282.725Y28.463
X282.725Y25.923
T7
X7.789Y43.196
X17.949Y43.196
X25.993Y43.196
X36.153Y43.196
X44.196Y43.196
X54.356Y43.196
X62.399Y43.196
X72.559Y43.196
X82.57Y106.586
X82.57Y102.086
X89.07Y106.586
X89.07Y102.086
X94.749Y106.586
X94.749Y102.086
X101.249Y106.586
X101.249Y102.086
X106.928Y106.586
X106.928Y102.086
X113.428Y106.586
X113.428Y102.086
X119.107Y106.586
X119.107Y102.086
X125.607Y106.586
X125.607Y102.086
X131.286Y106.586
X131.286Y102.086
X137.786Y106.586
X137.786Y102.086
X223.733Y125.44
X223.733Y120.94
X223.733Y107.713
X223.733Y103.213
X223.733Y88.985
X223.733Y84.485
X223.733Y70.258
X223.733Y65.758
X230.233Y125.44
X230.233Y120.94
X230.233Y107.713
X230.233Y103.213
X230.233Y88.985
X230.233Y84.485
X230.233Y70.258
X230.233Y65.758
X244.537Y125.44
X244.537Y120.94
X244.537Y107.713
X244.537Y103.213
X244.537Y88.985
X244.537Y84.485
X244.537Y70.258
X244.537Y65.758
X251.037Y125.44
X251.037Y120.94
X251.037Y107.713
X251.037Y103.213
X251.037Y88.985
X251.037Y84.485
X251.037Y70.258
X251.037Y65.758
X264.018Y125.44
X264.018Y120.94
X264.018Y107.713
X264.018Y103.213
X264.018Y88.985
X264.018Y84.485
X264.018Y70.258
X264.018Y65.758
X270.518Y125.44
X270.518Y120.94
X270.518Y107.713
X270.518Y103.213
X270.518Y88.985
X270.518Y84.485
X270.518Y70.258
X270.518Y65.758
X283.5Y125.44
X283.5Y120.94
X283.5Y107.713
X283.5Y103.213
X283.5Y88.985
X283.5Y84.485
X283.5Y70.258
X283.5Y65.758
X290.0Y125.44
X290.0Y120.94
X290.0Y107.713
X290.0Y103.213
X290.0Y88.985
X290.0Y84.485
X290.0Y70.258
X290.0Y65.758
T8
X6.869Y36.218
X6.869Y24.018
X12.869Y22.018
X18.869Y36.218
X18.869Y24.018
X25.073Y36.218
X25.073Y24.018
X31.073Y22.018
X37.073Y36.218
X37.073Y24.018
X41.08Y80.42
X41.08Y75.42
X41.08Y70.42
X43.276Y36.218
X43.276Y24.018
X49.276Y22.018
X55.276Y36.218
X55.276Y24.018
X61.479Y36.218
X61.479Y24.018
X67.479Y22.018
X73.479Y36.218
X73.479Y24.018
X163.562Y136.572
X163.562Y131.572
X163.562Y126.572
X199.154Y136.572
X199.154Y131.572
X199.154Y126.572
T9
X7.789Y14.208
X12.869Y14.208
X17.949Y14.208
X25.993Y14.208
X31.073Y14.208
X36.153Y14.208
X44.196Y14.208
X49.276Y14.208
X54.356Y14.208
X62.399Y14.208
X67.479Y14.208
X72.559Y14.208
T10
X5.0Y205.0
X5.0Y5.0
X148.5Y205.0
X148.5Y5.0
X217.27Y57.18
X217.27Y12.67
X291.235Y57.18
X291.235Y12.67
X292.0Y205.0
X292.0Y5.0
T0
M30
