%FSLAX45Y45*%
G04 Gerber Fmt 4.5, Leading zero omitted, Abs format (unit mm)*
G04 Created by KiCad (PCBNEW (6.0.6)) date 2024-09-14 08:36:47*
%MOMM*%
%LPD*%
G01*
G04 APERTURE LIST*
%TA.AperFunction,Profile*%
%ADD10C,0.100000*%
%TD*%
%ADD11C,0.200000*%
%ADD12C,0.750000*%
G04 APERTURE END LIST*
D10*
X14977700Y3130900D02*
X12577700Y3130900D01*
X12577700Y3130900D02*
X12577700Y1830900D01*
X12577700Y1830900D02*
X14977700Y1830900D01*
X14977700Y1830900D02*
X14977700Y3130900D01*
X210000Y21100000D02*
G75*
G03*
X0Y20890000I0J-210000D01*
G01*
X29490000Y100000D02*
G75*
G03*
X29700000Y310000I0J210000D01*
G01*
X0Y310000D02*
G75*
G03*
X210000Y100000I210000J0D01*
G01*
X29700000Y20890000D02*
G75*
G03*
X29490000Y21100000I-210000J0D01*
G01*
X1096085Y9317915D02*
G75*
G03*
X1096085Y9317915I-334085J0D01*
G01*
X29700000Y20890000D02*
X29700000Y310000D01*
X210000Y21100000D02*
X29490000Y21100000D01*
X0Y310000D02*
X0Y20890000D01*
X10591800Y4106800D02*
X8923600Y4106800D01*
X8923600Y4106800D02*
X8923600Y3733800D01*
X8923600Y3733800D02*
X10591800Y3733800D01*
X10591800Y3733800D02*
X10591800Y4106800D01*
X14954200Y3110100D02*
X12604800Y3110100D01*
X12604800Y3110100D02*
X12604800Y1853900D01*
X12604800Y1853900D02*
X14954200Y1853900D01*
X14954200Y1853900D02*
X14954200Y3110100D01*
X29490000Y100000D02*
X210000Y100000D01*
D11*
D12*
X4733000Y7917000D02*
X5483000Y7167000D01*
X5483000Y7917000D02*
X4733000Y7167000D01*
X14981200Y13532200D02*
X15731200Y12782200D01*
X15731200Y13532200D02*
X14981200Y12782200D01*
X18540400Y13532200D02*
X19290400Y12782200D01*
X19290400Y13532200D02*
X18540400Y12782200D01*
D11*
X252619Y-215476D02*
X252619Y-15476D01*
X300238Y-15476D01*
X328810Y-25000D01*
X347857Y-44048D01*
X357381Y-63095D01*
X366905Y-101190D01*
X366905Y-129762D01*
X357381Y-167857D01*
X347857Y-186905D01*
X328810Y-205952D01*
X300238Y-215476D01*
X252619Y-215476D01*
X452619Y-215476D02*
X452619Y-82143D01*
X452619Y-120238D02*
X462143Y-101190D01*
X471667Y-91667D01*
X490714Y-82143D01*
X509762Y-82143D01*
X576429Y-215476D02*
X576429Y-82143D01*
X576429Y-15476D02*
X566905Y-25000D01*
X576429Y-34524D01*
X585952Y-25000D01*
X576429Y-15476D01*
X576429Y-34524D01*
X700238Y-215476D02*
X681190Y-205952D01*
X671667Y-186905D01*
X671667Y-15476D01*
X805000Y-215476D02*
X785952Y-205952D01*
X776428Y-186905D01*
X776428Y-15476D01*
X1033571Y-215476D02*
X1033571Y-15476D01*
X1100238Y-158333D01*
X1166905Y-15476D01*
X1166905Y-215476D01*
X1347857Y-215476D02*
X1347857Y-110714D01*
X1338333Y-91667D01*
X1319286Y-82143D01*
X1281190Y-82143D01*
X1262143Y-91667D01*
X1347857Y-205952D02*
X1328810Y-215476D01*
X1281190Y-215476D01*
X1262143Y-205952D01*
X1252619Y-186905D01*
X1252619Y-167857D01*
X1262143Y-148810D01*
X1281190Y-139286D01*
X1328810Y-139286D01*
X1347857Y-129762D01*
X1443095Y-82143D02*
X1443095Y-282143D01*
X1443095Y-91667D02*
X1462143Y-82143D01*
X1500238Y-82143D01*
X1519286Y-91667D01*
X1528809Y-101190D01*
X1538333Y-120238D01*
X1538333Y-177381D01*
X1528809Y-196428D01*
X1519286Y-205952D01*
X1500238Y-215476D01*
X1462143Y-215476D01*
X1443095Y-205952D01*
X1624048Y-196428D02*
X1633571Y-205952D01*
X1624048Y-215476D01*
X1614524Y-205952D01*
X1624048Y-196428D01*
X1624048Y-215476D01*
X1624048Y-91667D02*
X1633571Y-101190D01*
X1624048Y-110714D01*
X1614524Y-101190D01*
X1624048Y-91667D01*
X1624048Y-110714D01*
X-205000Y-445000D02*
X-5000Y-645000D01*
X-5000Y-445000D02*
X-205000Y-645000D01*
X233571Y-435476D02*
X366905Y-435476D01*
X281190Y-635476D01*
X443095Y-616429D02*
X452619Y-625952D01*
X443095Y-635476D01*
X433571Y-625952D01*
X443095Y-616429D01*
X443095Y-635476D01*
X633571Y-435476D02*
X538333Y-435476D01*
X528810Y-530714D01*
X538333Y-521190D01*
X557381Y-511667D01*
X605000Y-511667D01*
X624048Y-521190D01*
X633571Y-530714D01*
X643095Y-549762D01*
X643095Y-597381D01*
X633571Y-616429D01*
X624048Y-625952D01*
X605000Y-635476D01*
X557381Y-635476D01*
X538333Y-625952D01*
X528810Y-616429D01*
X766905Y-435476D02*
X785952Y-435476D01*
X805000Y-445000D01*
X814524Y-454524D01*
X824048Y-473571D01*
X833571Y-511667D01*
X833571Y-559286D01*
X824048Y-597381D01*
X814524Y-616429D01*
X805000Y-625952D01*
X785952Y-635476D01*
X766905Y-635476D01*
X747857Y-625952D01*
X738333Y-616429D01*
X728809Y-597381D01*
X719286Y-559286D01*
X719286Y-511667D01*
X728809Y-473571D01*
X738333Y-454524D01*
X747857Y-445000D01*
X766905Y-435476D01*
X957381Y-435476D02*
X976428Y-435476D01*
X995476Y-445000D01*
X1005000Y-454524D01*
X1014524Y-473571D01*
X1024048Y-511667D01*
X1024048Y-559286D01*
X1014524Y-597381D01*
X1005000Y-616429D01*
X995476Y-625952D01*
X976428Y-635476D01*
X957381Y-635476D01*
X938333Y-625952D01*
X928809Y-616429D01*
X919286Y-597381D01*
X909762Y-559286D01*
X909762Y-511667D01*
X919286Y-473571D01*
X928809Y-454524D01*
X938333Y-445000D01*
X957381Y-435476D01*
X1109762Y-635476D02*
X1109762Y-502143D01*
X1109762Y-521190D02*
X1119286Y-511667D01*
X1138333Y-502143D01*
X1166905Y-502143D01*
X1185952Y-511667D01*
X1195476Y-530714D01*
X1195476Y-635476D01*
X1195476Y-530714D02*
X1205000Y-511667D01*
X1224048Y-502143D01*
X1252619Y-502143D01*
X1271667Y-511667D01*
X1281190Y-530714D01*
X1281190Y-635476D01*
X1376429Y-635476D02*
X1376429Y-502143D01*
X1376429Y-521190D02*
X1385952Y-511667D01*
X1405000Y-502143D01*
X1433571Y-502143D01*
X1452619Y-511667D01*
X1462143Y-530714D01*
X1462143Y-635476D01*
X1462143Y-530714D02*
X1471667Y-511667D01*
X1490714Y-502143D01*
X1519286Y-502143D01*
X1538333Y-511667D01*
X1547857Y-530714D01*
X1547857Y-635476D01*
X1938333Y-425952D02*
X1766905Y-683095D01*
X2195476Y-435476D02*
X2214524Y-435476D01*
X2233571Y-445000D01*
X2243095Y-454524D01*
X2252619Y-473571D01*
X2262143Y-511667D01*
X2262143Y-559286D01*
X2252619Y-597381D01*
X2243095Y-616429D01*
X2233571Y-625952D01*
X2214524Y-635476D01*
X2195476Y-635476D01*
X2176429Y-625952D01*
X2166905Y-616429D01*
X2157381Y-597381D01*
X2147857Y-559286D01*
X2147857Y-511667D01*
X2157381Y-473571D01*
X2166905Y-454524D01*
X2176429Y-445000D01*
X2195476Y-435476D01*
X2347857Y-616429D02*
X2357381Y-625952D01*
X2347857Y-635476D01*
X2338333Y-625952D01*
X2347857Y-616429D01*
X2347857Y-635476D01*
X2433571Y-454524D02*
X2443095Y-445000D01*
X2462143Y-435476D01*
X2509762Y-435476D01*
X2528810Y-445000D01*
X2538333Y-454524D01*
X2547857Y-473571D01*
X2547857Y-492619D01*
X2538333Y-521190D01*
X2424048Y-635476D01*
X2547857Y-635476D01*
X2643095Y-635476D02*
X2681190Y-635476D01*
X2700238Y-625952D01*
X2709762Y-616429D01*
X2728810Y-587857D01*
X2738333Y-549762D01*
X2738333Y-473571D01*
X2728810Y-454524D01*
X2719286Y-445000D01*
X2700238Y-435476D01*
X2662143Y-435476D01*
X2643095Y-445000D01*
X2633571Y-454524D01*
X2624048Y-473571D01*
X2624048Y-521190D01*
X2633571Y-540238D01*
X2643095Y-549762D01*
X2662143Y-559286D01*
X2700238Y-559286D01*
X2719286Y-549762D01*
X2728810Y-540238D01*
X2738333Y-521190D01*
X2919286Y-435476D02*
X2824048Y-435476D01*
X2814524Y-530714D01*
X2824048Y-521190D01*
X2843095Y-511667D01*
X2890714Y-511667D01*
X2909762Y-521190D01*
X2919286Y-530714D01*
X2928809Y-549762D01*
X2928809Y-597381D01*
X2919286Y-616429D01*
X2909762Y-625952D01*
X2890714Y-635476D01*
X2843095Y-635476D01*
X2824048Y-625952D01*
X2814524Y-616429D01*
X2995476Y-435476D02*
X3119286Y-435476D01*
X3052619Y-511667D01*
X3081190Y-511667D01*
X3100238Y-521190D01*
X3109762Y-530714D01*
X3119286Y-549762D01*
X3119286Y-597381D01*
X3109762Y-616429D01*
X3100238Y-625952D01*
X3081190Y-635476D01*
X3024048Y-635476D01*
X3005000Y-625952D01*
X2995476Y-616429D01*
X3195476Y-435476D02*
X3195476Y-473571D01*
X3271667Y-435476D02*
X3271667Y-473571D01*
X3566905Y-711667D02*
X3557381Y-702143D01*
X3538333Y-673571D01*
X3528809Y-654524D01*
X3519286Y-625952D01*
X3509762Y-578333D01*
X3509762Y-540238D01*
X3519286Y-492619D01*
X3528809Y-464048D01*
X3538333Y-445000D01*
X3557381Y-416428D01*
X3566905Y-406905D01*
X3624048Y-435476D02*
X3747857Y-435476D01*
X3681190Y-511667D01*
X3709762Y-511667D01*
X3728809Y-521190D01*
X3738333Y-530714D01*
X3747857Y-549762D01*
X3747857Y-597381D01*
X3738333Y-616429D01*
X3728809Y-625952D01*
X3709762Y-635476D01*
X3652619Y-635476D01*
X3633571Y-625952D01*
X3624048Y-616429D01*
X3985952Y-635476D02*
X3985952Y-435476D01*
X4071667Y-635476D02*
X4071667Y-530714D01*
X4062143Y-511667D01*
X4043095Y-502143D01*
X4014524Y-502143D01*
X3995476Y-511667D01*
X3985952Y-521190D01*
X4195476Y-635476D02*
X4176428Y-625952D01*
X4166905Y-616429D01*
X4157381Y-597381D01*
X4157381Y-540238D01*
X4166905Y-521190D01*
X4176428Y-511667D01*
X4195476Y-502143D01*
X4224048Y-502143D01*
X4243095Y-511667D01*
X4252619Y-521190D01*
X4262143Y-540238D01*
X4262143Y-597381D01*
X4252619Y-616429D01*
X4243095Y-625952D01*
X4224048Y-635476D01*
X4195476Y-635476D01*
X4376429Y-635476D02*
X4357381Y-625952D01*
X4347857Y-606905D01*
X4347857Y-435476D01*
X4528810Y-625952D02*
X4509762Y-635476D01*
X4471667Y-635476D01*
X4452619Y-625952D01*
X4443095Y-606905D01*
X4443095Y-530714D01*
X4452619Y-511667D01*
X4471667Y-502143D01*
X4509762Y-502143D01*
X4528810Y-511667D01*
X4538333Y-530714D01*
X4538333Y-549762D01*
X4443095Y-568810D01*
X4614524Y-625952D02*
X4633571Y-635476D01*
X4671667Y-635476D01*
X4690714Y-625952D01*
X4700238Y-606905D01*
X4700238Y-597381D01*
X4690714Y-578333D01*
X4671667Y-568810D01*
X4643095Y-568810D01*
X4624048Y-559286D01*
X4614524Y-540238D01*
X4614524Y-530714D01*
X4624048Y-511667D01*
X4643095Y-502143D01*
X4671667Y-502143D01*
X4690714Y-511667D01*
X4766905Y-711667D02*
X4776429Y-702143D01*
X4795476Y-673571D01*
X4805000Y-654524D01*
X4814524Y-625952D01*
X4824048Y-578333D01*
X4824048Y-540238D01*
X4814524Y-492619D01*
X4805000Y-464048D01*
X4795476Y-445000D01*
X4776429Y-416428D01*
X4766905Y-406905D01*
X5128810Y-711667D02*
X5119286Y-702143D01*
X5100238Y-673571D01*
X5090714Y-654524D01*
X5081190Y-625952D01*
X5071667Y-578333D01*
X5071667Y-540238D01*
X5081190Y-492619D01*
X5090714Y-464048D01*
X5100238Y-445000D01*
X5119286Y-416428D01*
X5128810Y-406905D01*
X5205000Y-502143D02*
X5205000Y-635476D01*
X5205000Y-521190D02*
X5214524Y-511667D01*
X5233571Y-502143D01*
X5262143Y-502143D01*
X5281190Y-511667D01*
X5290714Y-530714D01*
X5290714Y-635476D01*
X5414524Y-635476D02*
X5395476Y-625952D01*
X5385952Y-616429D01*
X5376429Y-597381D01*
X5376429Y-540238D01*
X5385952Y-521190D01*
X5395476Y-511667D01*
X5414524Y-502143D01*
X5443095Y-502143D01*
X5462143Y-511667D01*
X5471667Y-521190D01*
X5481190Y-540238D01*
X5481190Y-597381D01*
X5471667Y-616429D01*
X5462143Y-625952D01*
X5443095Y-635476D01*
X5414524Y-635476D01*
X5538333Y-502143D02*
X5614524Y-502143D01*
X5566905Y-435476D02*
X5566905Y-606905D01*
X5576429Y-625952D01*
X5595476Y-635476D01*
X5614524Y-635476D01*
X5833571Y-502143D02*
X5833571Y-702143D01*
X5833571Y-511667D02*
X5852619Y-502143D01*
X5890714Y-502143D01*
X5909762Y-511667D01*
X5919286Y-521190D01*
X5928809Y-540238D01*
X5928809Y-597381D01*
X5919286Y-616429D01*
X5909762Y-625952D01*
X5890714Y-635476D01*
X5852619Y-635476D01*
X5833571Y-625952D01*
X6043095Y-635476D02*
X6024048Y-625952D01*
X6014524Y-606905D01*
X6014524Y-435476D01*
X6205000Y-635476D02*
X6205000Y-530714D01*
X6195476Y-511667D01*
X6176428Y-502143D01*
X6138333Y-502143D01*
X6119286Y-511667D01*
X6205000Y-625952D02*
X6185952Y-635476D01*
X6138333Y-635476D01*
X6119286Y-625952D01*
X6109762Y-606905D01*
X6109762Y-587857D01*
X6119286Y-568810D01*
X6138333Y-559286D01*
X6185952Y-559286D01*
X6205000Y-549762D01*
X6271667Y-502143D02*
X6347857Y-502143D01*
X6300238Y-435476D02*
X6300238Y-606905D01*
X6309762Y-625952D01*
X6328809Y-635476D01*
X6347857Y-635476D01*
X6490714Y-625952D02*
X6471667Y-635476D01*
X6433571Y-635476D01*
X6414524Y-625952D01*
X6405000Y-606905D01*
X6405000Y-530714D01*
X6414524Y-511667D01*
X6433571Y-502143D01*
X6471667Y-502143D01*
X6490714Y-511667D01*
X6500238Y-530714D01*
X6500238Y-549762D01*
X6405000Y-568810D01*
X6671667Y-635476D02*
X6671667Y-435476D01*
X6671667Y-625952D02*
X6652619Y-635476D01*
X6614524Y-635476D01*
X6595476Y-625952D01*
X6585952Y-616429D01*
X6576428Y-597381D01*
X6576428Y-540238D01*
X6585952Y-521190D01*
X6595476Y-511667D01*
X6614524Y-502143D01*
X6652619Y-502143D01*
X6671667Y-511667D01*
X6747857Y-711667D02*
X6757381Y-702143D01*
X6776428Y-673571D01*
X6785952Y-654524D01*
X6795476Y-625952D01*
X6805000Y-578333D01*
X6805000Y-540238D01*
X6795476Y-492619D01*
X6785952Y-464048D01*
X6776428Y-445000D01*
X6757381Y-416428D01*
X6747857Y-406905D01*
M02*
