G04 #@! TF.GenerationSoftware,KiCad,Pcbnew,(6.0.6)*
G04 #@! TF.CreationDate,2024-09-14T08:36:39+08:00*
G04 #@! TF.ProjectId,PCB_5,5043425f-352e-46b6-9963-61645f706362,rev?*
G04 #@! TF.SameCoordinates,Original*
G04 #@! TF.FileFunction,Soldermask,Bot*
G04 #@! TF.FilePolarity,Negative*
%FSLAX46Y46*%
G04 Gerber Fmt 4.6, Leading zero omitted, Abs format (unit mm)*
G04 Created by KiCad (PCBNEW (6.0.6)) date 2024-09-14 08:36:39*
%MOMM*%
%LPD*%
G01*
G04 APERTURE LIST*
%ADD10R,1.700000X1.700000*%
%ADD11O,1.700000X1.700000*%
%ADD12C,2.000000*%
%ADD13R,1.800000X1.800000*%
%ADD14C,1.800000*%
%ADD15R,1.050000X1.500000*%
%ADD16O,1.050000X1.500000*%
%ADD17C,3.000000*%
%ADD18R,3.000000X3.000000*%
%ADD19O,1.600000X1.200000*%
%ADD20O,1.200000X1.200000*%
%ADD21C,7.500000*%
%ADD22C,2.340000*%
%ADD23C,1.700000*%
%ADD24R,1.600000X1.600000*%
%ADD25C,1.600000*%
%ADD26R,2.200000X2.200000*%
%ADD27O,2.200000X2.200000*%
%ADD28R,4.000000X4.000000*%
G04 APERTURE END LIST*
D10*
X37350000Y77890000D03*
D11*
X37350000Y75350000D03*
X37350000Y72810000D03*
D10*
X71598000Y76480000D03*
D11*
X69058000Y76480000D03*
X66518000Y76480000D03*
D12*
X230233500Y70258000D03*
X223733500Y70258000D03*
X223733500Y65758000D03*
X230233500Y65758000D03*
D13*
X98924000Y129159821D03*
D14*
X96384000Y129159821D03*
D15*
X197358000Y96266000D03*
D16*
X198628000Y96266000D03*
X199898000Y96266000D03*
D17*
X25072667Y36218000D03*
X37072667Y24018000D03*
X25072667Y24018000D03*
X31072667Y22018000D03*
X37072667Y36218000D03*
D12*
X223733500Y107712667D03*
X230233500Y107712667D03*
X230233500Y103212667D03*
X223733500Y103212667D03*
D10*
X174244000Y55103000D03*
D11*
X174244000Y52563000D03*
X174244000Y50023000D03*
D18*
X25992667Y14208000D03*
D17*
X31072667Y14208000D03*
X36152667Y14208000D03*
D19*
X192278000Y52578000D03*
D20*
X189738000Y55118000D03*
X187198000Y52578000D03*
D12*
X125607000Y106586000D03*
X119107000Y106586000D03*
X125607000Y102086000D03*
X119107000Y102086000D03*
D10*
X96374000Y136763821D03*
D11*
X98914000Y136763821D03*
D10*
X133261000Y113586000D03*
D11*
X135801000Y113586000D03*
D21*
X189154000Y131572000D03*
D22*
X199154000Y136572000D03*
X199154000Y131572000D03*
X199154000Y126572000D03*
D10*
X108903000Y113586000D03*
D11*
X111443000Y113586000D03*
D10*
X96724000Y113586000D03*
D11*
X99264000Y113586000D03*
D10*
X157946000Y92234000D03*
D11*
X155406000Y92234000D03*
X152866000Y92234000D03*
X150326000Y92234000D03*
D13*
X52832000Y59690000D03*
D14*
X55372000Y59690000D03*
D13*
X123292000Y129159821D03*
D14*
X120752000Y129159821D03*
D23*
X136576000Y85039000D03*
X132496000Y85039000D03*
X134536000Y85039000D03*
X132496000Y80039000D03*
X134536000Y80039000D03*
X136576000Y80039000D03*
D24*
X167426000Y84074000D03*
D25*
X169926000Y84074000D03*
D10*
X160528000Y25908000D03*
D11*
X160528000Y23368000D03*
X160528000Y20828000D03*
D12*
X283500000Y107712667D03*
X290000000Y107712667D03*
X290000000Y103212667D03*
X283500000Y103212667D03*
D10*
X173736000Y89694000D03*
D11*
X176276000Y89694000D03*
X178816000Y89694000D03*
X181356000Y89694000D03*
D10*
X108903000Y90392000D03*
D11*
X111443000Y90392000D03*
D13*
X41486666Y59690000D03*
D14*
X44026666Y59690000D03*
D24*
X31750000Y91577349D03*
D25*
X31750000Y96577349D03*
D26*
X44196000Y43196000D03*
D27*
X54356000Y43196000D03*
D10*
X16723500Y92710000D03*
D11*
X19263500Y92710000D03*
X21803500Y92710000D03*
X24343500Y92710000D03*
D12*
X264018500Y88985334D03*
X270518500Y88985334D03*
X270518500Y84485334D03*
X264018500Y84485334D03*
D10*
X84545000Y113586000D03*
D11*
X87085000Y113586000D03*
D17*
X61479334Y36218000D03*
X73479334Y24018000D03*
X61479334Y24018000D03*
X67479334Y22018000D03*
X73479334Y36218000D03*
D15*
X11599334Y49170000D03*
D16*
X12869334Y49170000D03*
X14139334Y49170000D03*
D13*
X111103000Y129159821D03*
D14*
X108563000Y129159821D03*
D10*
X170162000Y129047000D03*
D11*
X170162000Y131587000D03*
X170162000Y134127000D03*
D10*
X54950500Y106362000D03*
D11*
X57490500Y106362000D03*
X60030500Y106362000D03*
X62570500Y106362000D03*
D12*
X251037000Y107712667D03*
X244537000Y107712667D03*
X244537000Y103212667D03*
X251037000Y103212667D03*
D18*
X44196000Y14208000D03*
D17*
X49276000Y14208000D03*
X54356000Y14208000D03*
D24*
X189484000Y68824000D03*
D25*
X189484000Y61224000D03*
D23*
X87860000Y85039000D03*
X83780000Y85039000D03*
X85820000Y85039000D03*
X87860000Y80039000D03*
X83780000Y80039000D03*
X85820000Y80039000D03*
D17*
X43276000Y36218000D03*
X55276000Y24018000D03*
X43276000Y24018000D03*
X49276000Y22018000D03*
X55276000Y36218000D03*
D15*
X29802667Y49170000D03*
D16*
X31072667Y49170000D03*
X32342667Y49170000D03*
D10*
X120732000Y136763821D03*
D11*
X123272000Y136763821D03*
D10*
X121082000Y113586000D03*
D11*
X123622000Y113586000D03*
D10*
X219456000Y43673000D03*
D11*
X219456000Y41133000D03*
X219456000Y38593000D03*
X219456000Y36053000D03*
X219456000Y33513000D03*
X219456000Y30973000D03*
X219456000Y28433000D03*
X219456000Y25893000D03*
D23*
X100039000Y85039000D03*
X95959000Y85039000D03*
X97999000Y85039000D03*
X95959000Y80039000D03*
X100039000Y80039000D03*
X97999000Y80039000D03*
D15*
X48006000Y49170000D03*
D16*
X49276000Y49170000D03*
X50546000Y49170000D03*
D12*
X223733500Y88985334D03*
X230233500Y88985334D03*
X223733500Y84485334D03*
X230233500Y84485334D03*
D23*
X124537000Y85039000D03*
X122497000Y85039000D03*
X120457000Y85039000D03*
X124537000Y80039000D03*
X120457000Y80039000D03*
X122497000Y80039000D03*
X108418000Y85039000D03*
X112498000Y85039000D03*
X110458000Y85039000D03*
X110458000Y80039000D03*
X112498000Y80039000D03*
X108418000Y80039000D03*
D10*
X150346000Y84694000D03*
D11*
X152886000Y84694000D03*
X155426000Y84694000D03*
X157966000Y84694000D03*
D13*
X22860000Y75692000D03*
D14*
X22860000Y73152000D03*
D21*
X51080000Y75420000D03*
D22*
X41080000Y70420000D03*
X41080000Y75420000D03*
X41080000Y80420000D03*
D12*
X270518500Y70258000D03*
X264018500Y70258000D03*
X264018500Y65758000D03*
X270518500Y65758000D03*
X244537000Y88985334D03*
X251037000Y88985334D03*
X251037000Y84485334D03*
X244537000Y84485334D03*
D10*
X205754000Y129047000D03*
D11*
X205754000Y131587000D03*
X205754000Y134127000D03*
D12*
X290000000Y125440000D03*
X283500000Y125440000D03*
X283500000Y120940000D03*
X290000000Y120940000D03*
X283500000Y70258000D03*
X290000000Y70258000D03*
X290000000Y65758000D03*
X283500000Y65758000D03*
D10*
X30988000Y82042000D03*
D11*
X28448000Y82042000D03*
D10*
X108553000Y136763821D03*
D11*
X111093000Y136763821D03*
D10*
X282725000Y25923000D03*
D11*
X282725000Y28463000D03*
X282725000Y31003000D03*
X282725000Y33543000D03*
X282725000Y36083000D03*
X282725000Y38623000D03*
X282725000Y41163000D03*
X282725000Y43703000D03*
D12*
X101249000Y106586000D03*
X94749000Y106586000D03*
X101249000Y102086000D03*
X94749000Y102086000D03*
X137786000Y106586000D03*
X131286000Y106586000D03*
X137786000Y102086000D03*
X131286000Y102086000D03*
D21*
X153562000Y131572000D03*
D22*
X163562000Y136572000D03*
X163562000Y131572000D03*
X163562000Y126572000D03*
D12*
X244537000Y125440000D03*
X251037000Y125440000D03*
X251037000Y120940000D03*
X244537000Y120940000D03*
X82570000Y106586000D03*
X89070000Y106586000D03*
X82570000Y102086000D03*
X89070000Y102086000D03*
D10*
X32512000Y72644000D03*
D11*
X32512000Y70104000D03*
D10*
X141630000Y28779000D03*
D11*
X139090000Y28779000D03*
X136550000Y28779000D03*
X134010000Y28779000D03*
D12*
X230233500Y125440000D03*
X223733500Y125440000D03*
X230233500Y120940000D03*
X223733500Y120940000D03*
D13*
X35814000Y59690000D03*
D14*
X38354000Y59690000D03*
D10*
X66548000Y70104000D03*
D11*
X69088000Y70104000D03*
X71628000Y70104000D03*
D10*
X174498000Y66299000D03*
D11*
X174498000Y63759000D03*
D26*
X25992667Y43196000D03*
D27*
X36152667Y43196000D03*
D24*
X203708000Y48778000D03*
D25*
X203708000Y56378000D03*
D10*
X177910000Y188484000D03*
D11*
X180450000Y188484000D03*
X182990000Y188484000D03*
X185530000Y188484000D03*
X188070000Y188484000D03*
X190610000Y188484000D03*
X193150000Y188484000D03*
X195690000Y188484000D03*
X198230000Y188484000D03*
X200770000Y188484000D03*
X203310000Y188484000D03*
X205850000Y188484000D03*
X208390000Y188484000D03*
X210930000Y188484000D03*
X213470000Y188484000D03*
X216010000Y188484000D03*
D10*
X96724000Y90392000D03*
D11*
X99264000Y90392000D03*
D12*
X270518500Y107712667D03*
X264018500Y107712667D03*
X270518500Y103212667D03*
X264018500Y103212667D03*
D26*
X7789334Y43196000D03*
D27*
X17949334Y43196000D03*
D25*
X9398000Y77714000D03*
X9398000Y70114000D03*
D10*
X133261000Y90392000D03*
D11*
X135801000Y90392000D03*
D12*
X290000000Y88985334D03*
X283500000Y88985334D03*
X290000000Y84485334D03*
X283500000Y84485334D03*
D10*
X132911000Y136763821D03*
D11*
X135451000Y136763821D03*
D13*
X86745000Y129159821D03*
D14*
X84205000Y129159821D03*
D10*
X60960000Y59944000D03*
D11*
X63500000Y59944000D03*
X66040000Y59944000D03*
X68580000Y59944000D03*
X71120000Y59944000D03*
X73660000Y59944000D03*
D10*
X223011000Y136931000D03*
D11*
X225551000Y136931000D03*
X228091000Y136931000D03*
X230631000Y136931000D03*
X233171000Y136931000D03*
X235711000Y136931000D03*
X238251000Y136931000D03*
X240791000Y136931000D03*
D18*
X62399334Y14208000D03*
D17*
X67479334Y14208000D03*
X72559334Y14208000D03*
D10*
X84545000Y90392000D03*
D11*
X87085000Y90392000D03*
D18*
X7789334Y14208000D03*
D17*
X12869334Y14208000D03*
X17949334Y14208000D03*
D10*
X177910000Y193564000D03*
D11*
X180450000Y193564000D03*
X182990000Y193564000D03*
X185530000Y193564000D03*
X188070000Y193564000D03*
X190610000Y193564000D03*
X193150000Y193564000D03*
X195690000Y193564000D03*
X198230000Y193564000D03*
X200770000Y193564000D03*
X203310000Y193564000D03*
X205850000Y193564000D03*
X208390000Y193564000D03*
X210930000Y193564000D03*
X213470000Y193564000D03*
X216010000Y193564000D03*
D13*
X135471000Y129159821D03*
D14*
X132931000Y129159821D03*
D17*
X6869334Y36218000D03*
X18869334Y24018000D03*
X6869334Y24018000D03*
X12869334Y22018000D03*
X18869334Y36218000D03*
D10*
X141630000Y20905000D03*
D11*
X139090000Y20905000D03*
X136550000Y20905000D03*
X134010000Y20905000D03*
D10*
X121082000Y90392000D03*
D11*
X123622000Y90392000D03*
D10*
X62550500Y92202000D03*
D11*
X60010500Y92202000D03*
X57470500Y92202000D03*
X54930500Y92202000D03*
D10*
X196071000Y84694000D03*
D11*
X198611000Y84694000D03*
X201151000Y84694000D03*
D10*
X84195000Y136763821D03*
D11*
X86735000Y136763821D03*
D10*
X173846000Y84694000D03*
D11*
X176386000Y84694000D03*
X178926000Y84694000D03*
D13*
X47159332Y59690000D03*
D14*
X49699332Y59690000D03*
D12*
X244537000Y70258000D03*
X251037000Y70258000D03*
X251037000Y65758000D03*
X244537000Y65758000D03*
X106928000Y106586000D03*
X113428000Y106586000D03*
X106928000Y102086000D03*
X113428000Y102086000D03*
D26*
X62399334Y43196000D03*
D27*
X72559334Y43196000D03*
D15*
X66209334Y49170000D03*
D16*
X67479334Y49170000D03*
X68749334Y49170000D03*
D13*
X184907000Y84582000D03*
D14*
X187447000Y84582000D03*
D10*
X95504000Y64770000D03*
D11*
X98044000Y64770000D03*
X100584000Y64770000D03*
D12*
X270518500Y125440000D03*
X264018500Y125440000D03*
X270518500Y120940000D03*
X264018500Y120940000D03*
D10*
X11933000Y103124000D03*
D11*
X14473000Y103124000D03*
X17013000Y103124000D03*
X19553000Y103124000D03*
X22093000Y103124000D03*
X24633000Y103124000D03*
X27173000Y103124000D03*
D28*
X104094000Y58928000D03*
X156410000Y18034000D03*
X91994000Y58928000D03*
X156410000Y28702000D03*
X156410000Y23383000D03*
X98044000Y58928000D03*
M02*
