%TF.GenerationSoftware,KiCad,Pcbnew,(6.0.6)*%
%TF.CreationDate,2024-09-03T00:52:03+08:00*%
%TF.ProjectId,testModel,74657374-4d6f-4646-956c-2e6b69636164,rev?*%
%TF.SameCoordinates,Original*%
%TF.FileFunction,Legend,Top*%
%TF.FilePolarity,Positive*%
%FSLAX46Y46*%
G04 Gerber Fmt 4.6, Leading zero omitted, Abs format (unit mm)*
G04 Created by KiCad (PCBNEW (6.0.6)) date 2024-09-03 00:52:03*
%MOMM*%
%LPD*%
G01*
G04 APERTURE LIST*
%ADD10C,0.150000*%
%ADD11C,0.300000*%
G04 APERTURE END LIST*
D10*
X47500000Y-35000000D02*
X-47500000Y-35000000D01*
X-47500000Y-35000000D02*
X-47500000Y35000000D01*
X-47500000Y35000000D02*
X47500000Y35000000D01*
X47500000Y35000000D02*
X47500000Y-35000000D01*
D11*
%TO.C,G\u002A\u002A\u002A*%
X-1342571Y762000D02*
X-1487714Y834571D01*
X-1705428Y834571D01*
X-1923142Y762000D01*
X-2068285Y616857D01*
X-2140857Y471714D01*
X-2213428Y181428D01*
X-2213428Y-36285D01*
X-2140857Y-326571D01*
X-2068285Y-471714D01*
X-1923142Y-616857D01*
X-1705428Y-689428D01*
X-1560285Y-689428D01*
X-1342571Y-616857D01*
X-1269999Y-544285D01*
X-1269999Y-36285D01*
X-1560285Y-36285D01*
X-399142Y834571D02*
X-399142Y471714D01*
X-761999Y616857D02*
X-399142Y471714D01*
X-36285Y616857D01*
X-616857Y181428D02*
X-399142Y471714D01*
X-181428Y181428D01*
X762000Y834571D02*
X762000Y471714D01*
X399142Y616857D02*
X762000Y471714D01*
X1124857Y616857D01*
X544285Y181428D02*
X762000Y471714D01*
X979714Y181428D01*
X1923142Y834571D02*
X1923142Y471714D01*
X1560285Y616857D02*
X1923142Y471714D01*
X2286000Y616857D01*
X1705428Y181428D02*
X1923142Y471714D01*
X2140857Y181428D01*
G36*
X47977778Y35406060D02*
G01*
X47977778Y-35662626D01*
X-47977777Y-35662626D01*
X-47977777Y-30224878D01*
X-3335353Y-30224878D01*
X-3262274Y-31171536D01*
X-2988040Y-31872848D01*
X-2650724Y-32331842D01*
X-1915439Y-33061190D01*
X-1149685Y-33438938D01*
X-167557Y-33537778D01*
X368935Y-33512531D01*
X1246165Y-33383501D01*
X1877000Y-33071365D01*
X2485602Y-32492351D01*
X3017064Y-31830095D01*
X3267380Y-31208389D01*
X3334869Y-30367584D01*
X3335354Y-30248331D01*
X3294878Y-29426683D01*
X3107610Y-28847480D01*
X2674793Y-28281410D01*
X2339275Y-27935472D01*
X1697259Y-27345795D01*
X1155343Y-27049426D01*
X482257Y-26947888D01*
X0Y-26939394D01*
X-833984Y-26978207D01*
X-1415724Y-27160298D01*
X-1976492Y-27584143D01*
X-2339275Y-27935472D01*
X-2931364Y-28582162D01*
X-3227954Y-29128243D01*
X-3328039Y-29801250D01*
X-3335353Y-30224878D01*
X-47977777Y-30224878D01*
X-47977777Y3848485D01*
X-38356565Y3848485D01*
X-38356469Y-450310D01*
X-38355795Y-4265684D01*
X-38353965Y-7627349D01*
X-38350402Y-10565016D01*
X-38344527Y-13108395D01*
X-38335765Y-15287197D01*
X-38323535Y-17131134D01*
X-38307262Y-18669916D01*
X-38286367Y-19933254D01*
X-38260272Y-20950860D01*
X-38228400Y-21752443D01*
X-38190173Y-22367716D01*
X-38145014Y-22826389D01*
X-38092344Y-23158172D01*
X-38031587Y-23392778D01*
X-37962163Y-23559916D01*
X-37883497Y-23689299D01*
X-37819403Y-23777651D01*
X-37187604Y-24376580D01*
X-36416381Y-24807197D01*
X-36408292Y-24810071D01*
X-36159027Y-24855406D01*
X-35668747Y-24896094D01*
X-34917704Y-24932273D01*
X-33886152Y-24964080D01*
X-32554344Y-24991653D01*
X-30902532Y-25015130D01*
X-28910971Y-25034649D01*
X-26559912Y-25050346D01*
X-23829610Y-25062361D01*
X-20700317Y-25070830D01*
X-17152286Y-25075892D01*
X-13165771Y-25077683D01*
X-8721024Y-25076342D01*
X-3798299Y-25072007D01*
X384849Y-25066636D01*
X5392937Y-25059322D01*
X9913449Y-25052203D01*
X13971937Y-25044893D01*
X17593955Y-25037007D01*
X20805057Y-25028160D01*
X23630798Y-25017965D01*
X26096730Y-25006039D01*
X28228407Y-24991995D01*
X30051384Y-24975447D01*
X31591214Y-24956012D01*
X32873451Y-24933302D01*
X33923648Y-24906933D01*
X34767360Y-24876519D01*
X35430140Y-24841675D01*
X35937542Y-24802016D01*
X36315120Y-24757155D01*
X36588427Y-24706709D01*
X36783017Y-24650290D01*
X36924445Y-24587514D01*
X37038264Y-24517996D01*
X37044600Y-24513719D01*
X37272327Y-24364366D01*
X37474725Y-24222855D01*
X37653287Y-24059688D01*
X37809501Y-23845370D01*
X37944860Y-23550405D01*
X38060854Y-23145296D01*
X38158975Y-22600547D01*
X38240712Y-21886662D01*
X38307556Y-20974145D01*
X38361000Y-19833500D01*
X38402532Y-18435229D01*
X38433645Y-16749838D01*
X38455829Y-14747830D01*
X38470575Y-12399709D01*
X38479374Y-9675978D01*
X38483717Y-6547141D01*
X38485094Y-2983703D01*
X38484997Y1043834D01*
X38484849Y3981268D01*
X38485268Y8305893D01*
X38485516Y12147159D01*
X38484079Y15534837D01*
X38479443Y18498699D01*
X38470093Y21068515D01*
X38454515Y23274056D01*
X38431195Y25145093D01*
X38398619Y26711398D01*
X38355273Y28002740D01*
X38299641Y29048892D01*
X38230211Y29879623D01*
X38145468Y30524705D01*
X38043897Y31013909D01*
X37923985Y31377006D01*
X37784217Y31643767D01*
X37623079Y31843962D01*
X37439057Y32007363D01*
X37230637Y32163740D01*
X37044264Y32304619D01*
X36363123Y32840404D01*
X157824Y32836622D01*
X-5111210Y32835150D01*
X-9887872Y32831769D01*
X-14192914Y32826297D01*
X-18047092Y32818553D01*
X-21471161Y32808358D01*
X-24485875Y32795530D01*
X-27111990Y32779888D01*
X-29370260Y32761251D01*
X-31281439Y32739439D01*
X-32866283Y32714272D01*
X-34145546Y32685567D01*
X-35139983Y32653145D01*
X-35870350Y32616825D01*
X-36357399Y32576426D01*
X-36621888Y32531767D01*
X-36664156Y32515915D01*
X-37254890Y32081821D01*
X-37814738Y31479944D01*
X-37818701Y31474620D01*
X-38356565Y30750251D01*
X-38356565Y3848485D01*
X-47977777Y3848485D01*
X-47977777Y35406060D01*
X47977778Y35406060D01*
G37*
%TD*%
M02*
