%FSLAX45Y45*%
G04 Gerber Fmt 4.5, Leading zero omitted, Abs format (unit mm)*
G04 Created by KiCad (PCBNEW (6.0.6)) date 2024-09-14 00:01:01*
%MOMM*%
%LPD*%
G01*
G04 APERTURE LIST*
%TA.AperFunction,Profile*%
%ADD10C,0.100000*%
%TD*%
%ADD11C,0.200000*%
%ADD12C,0.080000*%
%ADD13C,0.100000*%
%ADD14C,0.120000*%
%ADD15C,0.150000*%
%ADD16C,0.300000*%
%ADD17C,0.400000*%
G04 APERTURE END LIST*
D10*
X0Y210000D02*
X0Y20790000D01*
X29490000Y0D02*
X210000Y0D01*
X29700000Y20790000D02*
X29700000Y210000D01*
X210000Y21000000D02*
X29490000Y21000000D01*
X210000Y21000000D02*
G75*
G03*
X0Y20790000I0J-210000D01*
G01*
X0Y210000D02*
G75*
G03*
X210000Y0I210000J0D01*
G01*
X29490000Y0D02*
G75*
G03*
X29700000Y210000I0J210000D01*
G01*
X29700000Y20790000D02*
G75*
G03*
X29490000Y21000000I-210000J0D01*
G01*
D11*
D12*
X19492600Y4078600D02*
X19572600Y3998600D01*
X19572600Y4078600D02*
X19492600Y3998600D01*
X20254600Y4078600D02*
X20334600Y3998600D01*
X20334600Y4078600D02*
X20254600Y3998600D01*
D13*
X3300700Y8613800D02*
G75*
G03*
X3300700Y8613800I-50000J0D01*
G01*
X3300700Y5202200D02*
G75*
G03*
X3300700Y5202200I-50000J0D01*
G01*
X3554700Y8613800D02*
G75*
G03*
X3554700Y8613800I-50000J0D01*
G01*
X3554700Y5202200D02*
G75*
G03*
X3554700Y5202200I-50000J0D01*
G01*
X4774400Y3707300D02*
G75*
G03*
X4774400Y3707300I-50000J0D01*
G01*
X4774400Y3453300D02*
G75*
G03*
X4774400Y3453300I-50000J0D01*
G01*
X5414550Y5202200D02*
G75*
G03*
X5414550Y5202200I-50000J0D01*
G01*
X5414717Y8613800D02*
G75*
G03*
X5414717Y8613800I-50000J0D01*
G01*
X5668550Y5202200D02*
G75*
G03*
X5668550Y5202200I-50000J0D01*
G01*
X5668717Y8613800D02*
G75*
G03*
X5668717Y8613800I-50000J0D01*
G01*
X6104378Y3707300D02*
G75*
G03*
X6104378Y3707300I-50000J0D01*
G01*
X6104378Y3453300D02*
G75*
G03*
X6104378Y3453300I-50000J0D01*
G01*
X7434355Y3707300D02*
G75*
G03*
X7434355Y3707300I-50000J0D01*
G01*
X7434355Y3453300D02*
G75*
G03*
X7434355Y3453300I-50000J0D01*
G01*
X7528400Y5202200D02*
G75*
G03*
X7528400Y5202200I-50000J0D01*
G01*
X7528733Y8613800D02*
G75*
G03*
X7528733Y8613800I-50000J0D01*
G01*
X7782400Y5202200D02*
G75*
G03*
X7782400Y5202200I-50000J0D01*
G01*
X7782733Y8613800D02*
G75*
G03*
X7782733Y8613800I-50000J0D01*
G01*
X8764333Y3707300D02*
G75*
G03*
X8764333Y3707300I-50000J0D01*
G01*
X8764333Y3453300D02*
G75*
G03*
X8764333Y3453300I-50000J0D01*
G01*
X9642250Y5202200D02*
G75*
G03*
X9642250Y5202200I-50000J0D01*
G01*
X9642750Y8613800D02*
G75*
G03*
X9642750Y8613800I-50000J0D01*
G01*
X9896250Y5202200D02*
G75*
G03*
X9896250Y5202200I-50000J0D01*
G01*
X9896750Y8613800D02*
G75*
G03*
X9896750Y8613800I-50000J0D01*
G01*
X10094311Y3707300D02*
G75*
G03*
X10094311Y3707300I-50000J0D01*
G01*
X10094311Y3453300D02*
G75*
G03*
X10094311Y3453300I-50000J0D01*
G01*
X11424288Y3707300D02*
G75*
G03*
X11424288Y3707300I-50000J0D01*
G01*
X11424288Y3453300D02*
G75*
G03*
X11424288Y3453300I-50000J0D01*
G01*
X11542300Y18770600D02*
G75*
G03*
X11542300Y18770600I-50000J0D01*
G01*
X11756100Y5202200D02*
G75*
G03*
X11756100Y5202200I-50000J0D01*
G01*
X11756766Y8613800D02*
G75*
G03*
X11756766Y8613800I-50000J0D01*
G01*
X11796300Y18770600D02*
G75*
G03*
X11796300Y18770600I-50000J0D01*
G01*
X12010100Y5202200D02*
G75*
G03*
X12010100Y5202200I-50000J0D01*
G01*
X12010766Y8613800D02*
G75*
G03*
X12010766Y8613800I-50000J0D01*
G01*
X12754266Y3707300D02*
G75*
G03*
X12754266Y3707300I-50000J0D01*
G01*
X12754266Y3453300D02*
G75*
G03*
X12754266Y3453300I-50000J0D01*
G01*
X13869950Y5202200D02*
G75*
G03*
X13869950Y5202200I-50000J0D01*
G01*
X13870783Y8613800D02*
G75*
G03*
X13870783Y8613800I-50000J0D01*
G01*
X14084244Y3707300D02*
G75*
G03*
X14084244Y3707300I-50000J0D01*
G01*
X14084244Y3453300D02*
G75*
G03*
X14084244Y3453300I-50000J0D01*
G01*
X14123950Y5202200D02*
G75*
G03*
X14123950Y5202200I-50000J0D01*
G01*
X14124783Y8613800D02*
G75*
G03*
X14124783Y8613800I-50000J0D01*
G01*
X15163000Y17242300D02*
G75*
G03*
X15163000Y17242300I-50000J0D01*
G01*
X15163000Y16988300D02*
G75*
G03*
X15163000Y16988300I-50000J0D01*
G01*
X15414222Y3707300D02*
G75*
G03*
X15414222Y3707300I-50000J0D01*
G01*
X15414222Y3453300D02*
G75*
G03*
X15414222Y3453300I-50000J0D01*
G01*
X15636100Y10566400D02*
G75*
G03*
X15636100Y10566400I-50000J0D01*
G01*
X15890100Y10566400D02*
G75*
G03*
X15890100Y10566400I-50000J0D01*
G01*
X15983800Y5202200D02*
G75*
G03*
X15983800Y5202200I-50000J0D01*
G01*
X15985800Y8613800D02*
G75*
G03*
X15985800Y8613800I-50000J0D01*
G01*
X16144100Y10566400D02*
G75*
G03*
X16144100Y10566400I-50000J0D01*
G01*
X16237800Y5202200D02*
G75*
G03*
X16237800Y5202200I-50000J0D01*
G01*
X16239800Y8613800D02*
G75*
G03*
X16239800Y8613800I-50000J0D01*
G01*
X16744200Y3707300D02*
G75*
G03*
X16744200Y3707300I-50000J0D01*
G01*
X16744200Y3453300D02*
G75*
G03*
X16744200Y3453300I-50000J0D01*
G01*
X16864800Y17242300D02*
G75*
G03*
X16864800Y17242300I-50000J0D01*
G01*
X16864800Y16988300D02*
G75*
G03*
X16864800Y16988300I-50000J0D01*
G01*
X19169800Y14409800D02*
G75*
G03*
X19169800Y14409800I-50000J0D01*
G01*
X19379400Y11607800D02*
G75*
G03*
X19379400Y11607800I-50000J0D01*
G01*
X19379400Y11353800D02*
G75*
G03*
X19379400Y11353800I-50000J0D01*
G01*
X19379400Y11099800D02*
G75*
G03*
X19379400Y11099800I-50000J0D01*
G01*
X19423800Y14409800D02*
G75*
G03*
X19423800Y14409800I-50000J0D01*
G01*
X19531800Y6978300D02*
G75*
G03*
X19531800Y6978300I-50000J0D01*
G01*
X19531800Y6724300D02*
G75*
G03*
X19531800Y6724300I-50000J0D01*
G01*
X19531800Y6470300D02*
G75*
G03*
X19531800Y6470300I-50000J0D01*
G01*
X19734500Y12944800D02*
G75*
G03*
X19734500Y12944800I-50000J0D01*
G01*
X19988500Y12944800D02*
G75*
G03*
X19988500Y12944800I-50000J0D01*
G01*
X20116000Y18163100D02*
G75*
G03*
X20116000Y18163100I-50000J0D01*
G01*
X20116000Y17909100D02*
G75*
G03*
X20116000Y17909100I-50000J0D01*
G01*
X20166300Y1282000D02*
G75*
G03*
X20166300Y1282000I-50000J0D01*
G01*
X20191700Y8636000D02*
G75*
G03*
X20191700Y8636000I-50000J0D01*
G01*
X20420300Y1282000D02*
G75*
G03*
X20420300Y1282000I-50000J0D01*
G01*
X20445700Y8636000D02*
G75*
G03*
X20445700Y8636000I-50000J0D01*
G01*
X20621686Y14409800D02*
G75*
G03*
X20621686Y14409800I-50000J0D01*
G01*
X20875686Y14409800D02*
G75*
G03*
X20875686Y14409800I-50000J0D01*
G01*
X21382371Y18163100D02*
G75*
G03*
X21382371Y18163100I-50000J0D01*
G01*
X21382371Y17909100D02*
G75*
G03*
X21382371Y17909100I-50000J0D01*
G01*
X21888057Y14409800D02*
G75*
G03*
X21888057Y14409800I-50000J0D01*
G01*
X22142057Y14409800D02*
G75*
G03*
X22142057Y14409800I-50000J0D01*
G01*
X22648743Y18163100D02*
G75*
G03*
X22648743Y18163100I-50000J0D01*
G01*
X22648743Y17909100D02*
G75*
G03*
X22648743Y17909100I-50000J0D01*
G01*
X22935400Y3682500D02*
G75*
G03*
X22935400Y3682500I-50000J0D01*
G01*
X22935400Y3428500D02*
G75*
G03*
X22935400Y3428500I-50000J0D01*
G01*
X23154428Y14409800D02*
G75*
G03*
X23154428Y14409800I-50000J0D01*
G01*
X23408428Y14409800D02*
G75*
G03*
X23408428Y14409800I-50000J0D01*
G01*
X23494200Y12436800D02*
G75*
G03*
X23494200Y12436800I-50000J0D01*
G01*
X23494200Y12182800D02*
G75*
G03*
X23494200Y12182800I-50000J0D01*
G01*
X23494200Y7819500D02*
G75*
G03*
X23494200Y7819500I-50000J0D01*
G01*
X23494200Y7565500D02*
G75*
G03*
X23494200Y7565500I-50000J0D01*
G01*
X23915114Y18163100D02*
G75*
G03*
X23915114Y18163100I-50000J0D01*
G01*
X23915114Y17909100D02*
G75*
G03*
X23915114Y17909100I-50000J0D01*
G01*
X24383200Y12944800D02*
G75*
G03*
X24383200Y12944800I-50000J0D01*
G01*
X24420800Y14409800D02*
G75*
G03*
X24420800Y14409800I-50000J0D01*
G01*
X24637200Y12944800D02*
G75*
G03*
X24637200Y12944800I-50000J0D01*
G01*
X24674800Y14409800D02*
G75*
G03*
X24674800Y14409800I-50000J0D01*
G01*
X25181486Y18163100D02*
G75*
G03*
X25181486Y18163100I-50000J0D01*
G01*
X25181486Y17909100D02*
G75*
G03*
X25181486Y17909100I-50000J0D01*
G01*
X25687171Y14409800D02*
G75*
G03*
X25687171Y14409800I-50000J0D01*
G01*
X25941171Y14409800D02*
G75*
G03*
X25941171Y14409800I-50000J0D01*
G01*
X26447857Y18163100D02*
G75*
G03*
X26447857Y18163100I-50000J0D01*
G01*
X26447857Y17909100D02*
G75*
G03*
X26447857Y17909100I-50000J0D01*
G01*
X26541700Y8626300D02*
G75*
G03*
X26541700Y8626300I-50000J0D01*
G01*
X26795700Y8626300D02*
G75*
G03*
X26795700Y8626300I-50000J0D01*
G01*
X26953543Y14409800D02*
G75*
G03*
X26953543Y14409800I-50000J0D01*
G01*
X27207543Y14409800D02*
G75*
G03*
X27207543Y14409800I-50000J0D01*
G01*
X27431200Y6978300D02*
G75*
G03*
X27431200Y6978300I-50000J0D01*
G01*
X27431200Y6724300D02*
G75*
G03*
X27431200Y6724300I-50000J0D01*
G01*
X27431200Y6470300D02*
G75*
G03*
X27431200Y6470300I-50000J0D01*
G01*
X27714228Y18163100D02*
G75*
G03*
X27714228Y18163100I-50000J0D01*
G01*
X27714228Y17909100D02*
G75*
G03*
X27714228Y17909100I-50000J0D01*
G01*
X28183800Y3378200D02*
G75*
G03*
X28183800Y3378200I-50000J0D01*
G01*
X28219914Y14409800D02*
G75*
G03*
X28219914Y14409800I-50000J0D01*
G01*
X28473914Y14409800D02*
G75*
G03*
X28473914Y14409800I-50000J0D01*
G01*
X28980600Y18163100D02*
G75*
G03*
X28980600Y18163100I-50000J0D01*
G01*
X28980600Y17909100D02*
G75*
G03*
X28980600Y17909100I-50000J0D01*
G01*
X29183800Y3378200D02*
G75*
G03*
X29183800Y3378200I-50000J0D01*
G01*
D14*
X1181100Y12340900D02*
X1181100Y12220900D01*
X1121100Y12280900D02*
X1241100Y12280900D01*
X1181100Y10816900D02*
X1181100Y10696900D01*
X1121100Y10756900D02*
X1241100Y10756900D01*
X2286000Y3946200D02*
X2286000Y3826200D01*
X2226000Y3886200D02*
X2346000Y3886200D01*
X2520767Y12340900D02*
X2520767Y12220900D01*
X2460767Y12280900D02*
X2580767Y12280900D01*
X2520767Y10816900D02*
X2520767Y10696900D01*
X2460767Y10756900D02*
X2580767Y10756900D01*
X2616200Y5721000D02*
X2616200Y5601000D01*
X2556200Y5661000D02*
X2676200Y5661000D01*
X3810000Y3946200D02*
X3810000Y3826200D01*
X3750000Y3886200D02*
X3870000Y3886200D01*
X3860433Y12340900D02*
X3860433Y12220900D01*
X3800433Y12280900D02*
X3920433Y12280900D01*
X3860433Y10816900D02*
X3860433Y10696900D01*
X3800433Y10756900D02*
X3920433Y10756900D01*
X4140200Y5721000D02*
X4140200Y5601000D01*
X4080200Y5661000D02*
X4200200Y5661000D01*
X4724400Y3157200D02*
X4724400Y3037200D01*
X4664400Y3097200D02*
X4784400Y3097200D01*
X4724400Y1633200D02*
X4724400Y1513200D01*
X4664400Y1573200D02*
X4784400Y1573200D01*
X4728633Y8213400D02*
X4728633Y8093400D01*
X4668633Y8153400D02*
X4788633Y8153400D01*
X4728633Y5721000D02*
X4728633Y5601000D01*
X4668633Y5661000D02*
X4788633Y5661000D01*
X5200100Y12340900D02*
X5200100Y12220900D01*
X5140100Y12280900D02*
X5260100Y12280900D01*
X5200100Y10816900D02*
X5200100Y10696900D01*
X5140100Y10756900D02*
X5260100Y10756900D01*
X6054378Y3157200D02*
X6054378Y3037200D01*
X5994378Y3097200D02*
X6114378Y3097200D01*
X6054378Y1633200D02*
X6054378Y1513200D01*
X5994378Y1573200D02*
X6114378Y1573200D01*
X6252633Y8213400D02*
X6252633Y8093400D01*
X6192633Y8153400D02*
X6312633Y8153400D01*
X6252633Y5721000D02*
X6252633Y5601000D01*
X6192633Y5661000D02*
X6312633Y5661000D01*
X6539766Y12340900D02*
X6539766Y12220900D01*
X6479766Y12280900D02*
X6599766Y12280900D01*
X6539766Y10816900D02*
X6539766Y10696900D01*
X6479766Y10756900D02*
X6599766Y10756900D01*
X6841067Y8213400D02*
X6841067Y8093400D01*
X6781067Y8153400D02*
X6901067Y8153400D01*
X6841067Y5721000D02*
X6841067Y5601000D01*
X6781067Y5661000D02*
X6901067Y5661000D01*
X7384355Y3157200D02*
X7384355Y3037200D01*
X7324355Y3097200D02*
X7444355Y3097200D01*
X7384355Y1633200D02*
X7384355Y1513200D01*
X7324355Y1573200D02*
X7444355Y1573200D01*
X7879433Y12340900D02*
X7879433Y12220900D01*
X7819433Y12280900D02*
X7939433Y12280900D01*
X7879433Y10816900D02*
X7879433Y10696900D01*
X7819433Y10756900D02*
X7939433Y10756900D01*
X8365067Y8213400D02*
X8365067Y8093400D01*
X8305067Y8153400D02*
X8425067Y8153400D01*
X8365067Y5721000D02*
X8365067Y5601000D01*
X8305067Y5661000D02*
X8425067Y5661000D01*
X8714333Y3157200D02*
X8714333Y3037200D01*
X8654333Y3097200D02*
X8774333Y3097200D01*
X8714333Y1633200D02*
X8714333Y1513200D01*
X8654333Y1573200D02*
X8774333Y1573200D01*
X8953500Y8213400D02*
X8953500Y8093400D01*
X8893500Y8153400D02*
X9013500Y8153400D01*
X8953500Y5721000D02*
X8953500Y5601000D01*
X8893500Y5661000D02*
X9013500Y5661000D01*
X9219100Y12340900D02*
X9219100Y12220900D01*
X9159100Y12280900D02*
X9279100Y12280900D01*
X9219100Y10816900D02*
X9219100Y10696900D01*
X9159100Y10756900D02*
X9279100Y10756900D01*
X10044311Y3157200D02*
X10044311Y3037200D01*
X9984311Y3097200D02*
X10104311Y3097200D01*
X10044311Y1633200D02*
X10044311Y1513200D01*
X9984311Y1573200D02*
X10104311Y1573200D01*
X10477500Y8213400D02*
X10477500Y8093400D01*
X10417500Y8153400D02*
X10537500Y8153400D01*
X10477500Y5721000D02*
X10477500Y5601000D01*
X10417500Y5661000D02*
X10537500Y5661000D01*
X10558766Y12340900D02*
X10558766Y12220900D01*
X10498766Y12280900D02*
X10618766Y12280900D01*
X10558766Y10816900D02*
X10558766Y10696900D01*
X10498766Y10756900D02*
X10618766Y10756900D01*
X11065933Y8213400D02*
X11065933Y8093400D01*
X11005933Y8153400D02*
X11125933Y8153400D01*
X11065933Y5721000D02*
X11065933Y5601000D01*
X11005933Y5661000D02*
X11125933Y5661000D01*
X11374288Y3157200D02*
X11374288Y3037200D01*
X11314288Y3097200D02*
X11434288Y3097200D01*
X11374288Y1633200D02*
X11374288Y1513200D01*
X11314288Y1573200D02*
X11434288Y1573200D01*
X11898433Y12340900D02*
X11898433Y12220900D01*
X11838433Y12280900D02*
X11958433Y12280900D01*
X11898433Y10816900D02*
X11898433Y10696900D01*
X11838433Y10756900D02*
X11958433Y10756900D01*
X12589933Y8213400D02*
X12589933Y8093400D01*
X12529933Y8153400D02*
X12649933Y8153400D01*
X12589933Y5721000D02*
X12589933Y5601000D01*
X12529933Y5661000D02*
X12649933Y5661000D01*
X12620600Y18830600D02*
X12620600Y18710600D01*
X12560600Y18770600D02*
X12680600Y18770600D01*
X12704266Y3157200D02*
X12704266Y3037200D01*
X12644266Y3097200D02*
X12764266Y3097200D01*
X12704266Y1633200D02*
X12704266Y1513200D01*
X12644266Y1573200D02*
X12764266Y1573200D01*
X13178366Y8213400D02*
X13178366Y8093400D01*
X13118366Y8153400D02*
X13238366Y8153400D01*
X13178366Y5721000D02*
X13178366Y5601000D01*
X13118366Y5661000D02*
X13238366Y5661000D01*
X13238100Y12340900D02*
X13238100Y12220900D01*
X13178100Y12280900D02*
X13298100Y12280900D01*
X13238100Y10816900D02*
X13238100Y10696900D01*
X13178100Y10756900D02*
X13298100Y10756900D01*
X14034244Y3157200D02*
X14034244Y3037200D01*
X13974244Y3097200D02*
X14094244Y3097200D01*
X14034244Y1633200D02*
X14034244Y1513200D01*
X13974244Y1573200D02*
X14094244Y1573200D01*
X14144600Y18830600D02*
X14144600Y18710600D01*
X14084600Y18770600D02*
X14204600Y18770600D01*
X14702366Y8213400D02*
X14702366Y8093400D01*
X14642366Y8153400D02*
X14762366Y8153400D01*
X14702366Y5721000D02*
X14702366Y5601000D01*
X14642366Y5661000D02*
X14762366Y5661000D01*
X15134733Y16514400D02*
X15134733Y16394400D01*
X15074733Y16454400D02*
X15194733Y16454400D01*
X15134733Y14990400D02*
X15134733Y14870400D01*
X15074733Y14930400D02*
X15194733Y14930400D01*
X15290800Y8213400D02*
X15290800Y8093400D01*
X15230800Y8153400D02*
X15350800Y8153400D01*
X15290800Y5721000D02*
X15290800Y5601000D01*
X15230800Y5661000D02*
X15350800Y5661000D01*
X15341600Y12730000D02*
X15341600Y12610000D01*
X15281600Y12670000D02*
X15401600Y12670000D01*
X15364222Y3157200D02*
X15364222Y3037200D01*
X15304222Y3097200D02*
X15424222Y3097200D01*
X15364222Y1633200D02*
X15364222Y1513200D01*
X15304222Y1573200D02*
X15424222Y1573200D01*
X15841600Y12730000D02*
X15841600Y12610000D01*
X15781600Y12670000D02*
X15901600Y12670000D01*
X16341600Y12730000D02*
X16341600Y12610000D01*
X16281600Y12670000D02*
X16401600Y12670000D01*
X16694200Y3157200D02*
X16694200Y3037200D01*
X16634200Y3097200D02*
X16754200Y3097200D01*
X16694200Y1633200D02*
X16694200Y1513200D01*
X16634200Y1573200D02*
X16754200Y1573200D01*
X16814800Y16514400D02*
X16814800Y16394400D01*
X16754800Y16454400D02*
X16874800Y16454400D01*
X16814800Y14990400D02*
X16814800Y14870400D01*
X16754800Y14930400D02*
X16874800Y14930400D01*
X16814800Y8213400D02*
X16814800Y8093400D01*
X16754800Y8153400D02*
X16874800Y8153400D01*
X16814800Y5721000D02*
X16814800Y5601000D01*
X16754800Y5661000D02*
X16874800Y5661000D01*
X19481800Y1863400D02*
X19481800Y1743400D01*
X19421800Y1803400D02*
X19541800Y1803400D01*
X20066000Y17086000D02*
X20066000Y16966000D01*
X20006000Y17026000D02*
X20126000Y17026000D01*
X20066000Y15562000D02*
X20066000Y15442000D01*
X20006000Y15502000D02*
X20126000Y15502000D01*
X20904200Y13004800D02*
X20904200Y12884800D01*
X20844200Y12944800D02*
X20964200Y12944800D01*
X21005800Y1863400D02*
X21005800Y1743400D01*
X20945800Y1803400D02*
X21065800Y1803400D01*
X21071458Y8686300D02*
X21071458Y8566300D01*
X21011458Y8626300D02*
X21131458Y8626300D01*
X21332371Y17086000D02*
X21332371Y16966000D01*
X21272371Y17026000D02*
X21392371Y17026000D01*
X21332371Y15562000D02*
X21332371Y15442000D01*
X21272371Y15502000D02*
X21392371Y15502000D01*
X21615400Y3395568D02*
X21615400Y3275568D01*
X21555400Y3335568D02*
X21675400Y3335568D01*
X21615400Y2645568D02*
X21615400Y2525568D01*
X21555400Y2585568D02*
X21675400Y2585568D01*
X22428200Y13004800D02*
X22428200Y12884800D01*
X22368200Y12944800D02*
X22488200Y12944800D01*
X22595458Y8686300D02*
X22595458Y8566300D01*
X22535458Y8626300D02*
X22655458Y8626300D01*
X22598743Y17086000D02*
X22598743Y16966000D01*
X22538743Y17026000D02*
X22658743Y17026000D01*
X22598743Y15562000D02*
X22598743Y15442000D01*
X22538743Y15502000D02*
X22658743Y15502000D01*
X22885400Y3107800D02*
X22885400Y2987800D01*
X22825400Y3047800D02*
X22945400Y3047800D01*
X22885400Y1583800D02*
X22885400Y1463800D01*
X22825400Y1523800D02*
X22945400Y1523800D01*
X23444200Y11791600D02*
X23444200Y11671600D01*
X23384200Y11731600D02*
X23504200Y11731600D01*
X23444200Y10267600D02*
X23444200Y10147600D01*
X23384200Y10207600D02*
X23504200Y10207600D01*
X23450900Y7159600D02*
X23450900Y7039600D01*
X23390900Y7099600D02*
X23510900Y7099600D01*
X23450900Y5635600D02*
X23450900Y5515600D01*
X23390900Y5575600D02*
X23510900Y5575600D01*
X23865114Y17086000D02*
X23865114Y16966000D01*
X23805114Y17026000D02*
X23925114Y17026000D01*
X23865114Y15562000D02*
X23865114Y15442000D01*
X23805114Y15502000D02*
X23925114Y15502000D01*
X24368150Y8686300D02*
X24368150Y8566300D01*
X24308150Y8626300D02*
X24428150Y8626300D01*
X25131486Y17086000D02*
X25131486Y16966000D01*
X25071486Y17026000D02*
X25191486Y17026000D01*
X25131486Y15562000D02*
X25131486Y15442000D01*
X25071486Y15502000D02*
X25191486Y15502000D01*
X25527000Y13004800D02*
X25527000Y12884800D01*
X25467000Y12944800D02*
X25587000Y12944800D01*
X25892150Y8686300D02*
X25892150Y8566300D01*
X25832150Y8626300D02*
X25952150Y8626300D01*
X25941400Y3255800D02*
X25941400Y3135800D01*
X25881400Y3195800D02*
X26001400Y3195800D01*
X26397857Y17086000D02*
X26397857Y16966000D01*
X26337857Y17026000D02*
X26457857Y17026000D01*
X26397857Y15562000D02*
X26397857Y15442000D01*
X26337857Y15502000D02*
X26457857Y15502000D01*
X26441400Y3255800D02*
X26441400Y3135800D01*
X26381400Y3195800D02*
X26501400Y3195800D01*
X26941400Y3255800D02*
X26941400Y3135800D01*
X26881400Y3195800D02*
X27001400Y3195800D01*
X27051000Y13004800D02*
X27051000Y12884800D01*
X26991000Y12944800D02*
X27111000Y12944800D01*
X27605200Y1965000D02*
X27605200Y1845000D01*
X27545200Y1905000D02*
X27665200Y1905000D01*
X27664228Y17086000D02*
X27664228Y16966000D01*
X27604228Y17026000D02*
X27724228Y17026000D01*
X27664228Y15562000D02*
X27664228Y15442000D01*
X27604228Y15502000D02*
X27724228Y15502000D01*
X28930600Y17086000D02*
X28930600Y16966000D01*
X28870600Y17026000D02*
X28990600Y17026000D01*
X28930600Y15562000D02*
X28930600Y15442000D01*
X28870600Y15502000D02*
X28990600Y15502000D01*
X29129200Y1965000D02*
X29129200Y1845000D01*
X29069200Y1905000D02*
X29189200Y1905000D01*
D15*
X1234134Y12672366D02*
X1234134Y12778433D01*
X1128067Y12778433D01*
X1128067Y12672366D01*
X1234134Y12672366D01*
X1234134Y10259367D02*
X1234134Y10365434D01*
X1128067Y10365434D01*
X1128067Y10259367D01*
X1234134Y10259367D01*
X2573800Y12672366D02*
X2573800Y12778433D01*
X2467733Y12778433D01*
X2467733Y12672366D01*
X2573800Y12672366D01*
X2573800Y10259367D02*
X2573800Y10365434D01*
X2467733Y10365434D01*
X2467733Y10259367D01*
X2573800Y10259367D01*
X2669234Y5992166D02*
X2669234Y6098233D01*
X2563167Y6098233D01*
X2563167Y5992166D01*
X2669234Y5992166D01*
X3913467Y12672366D02*
X3913467Y12778433D01*
X3807400Y12778433D01*
X3807400Y12672366D01*
X3913467Y12672366D01*
X3913467Y10259367D02*
X3913467Y10365434D01*
X3807400Y10365434D01*
X3807400Y10259367D01*
X3913467Y10259367D01*
X4193233Y5992166D02*
X4193233Y6098233D01*
X4087166Y6098233D01*
X4087166Y5992166D01*
X4193233Y5992166D01*
X4781667Y7732166D02*
X4781667Y7838233D01*
X4675600Y7838233D01*
X4675600Y7732166D01*
X4781667Y7732166D01*
X4781667Y5992166D02*
X4781667Y6098233D01*
X4675600Y6098233D01*
X4675600Y5992166D01*
X4781667Y5992166D01*
X5133034Y3042566D02*
X5133034Y3148633D01*
X5026967Y3148633D01*
X5026967Y3042566D01*
X5133034Y3042566D01*
X5133034Y1518566D02*
X5133034Y1624633D01*
X5026967Y1624633D01*
X5026967Y1518566D01*
X5133034Y1518566D01*
X5253133Y12672366D02*
X5253133Y12778433D01*
X5147066Y12778433D01*
X5147066Y12672366D01*
X5253133Y12672366D01*
X5253133Y10259367D02*
X5253133Y10365434D01*
X5147066Y10365434D01*
X5147066Y10259367D01*
X5253133Y10259367D01*
X6305667Y7732166D02*
X6305667Y7838233D01*
X6199600Y7838233D01*
X6199600Y7732166D01*
X6305667Y7732166D01*
X6305667Y5992166D02*
X6305667Y6098233D01*
X6199600Y6098233D01*
X6199600Y5992166D01*
X6305667Y5992166D01*
X6463011Y3042566D02*
X6463011Y3148633D01*
X6356944Y3148633D01*
X6356944Y3042566D01*
X6463011Y3042566D01*
X6463011Y1518566D02*
X6463011Y1624633D01*
X6356944Y1624633D01*
X6356944Y1518566D01*
X6463011Y1518566D01*
X6592800Y12672366D02*
X6592800Y12778433D01*
X6486733Y12778433D01*
X6486733Y12672366D01*
X6592800Y12672366D01*
X6592800Y10259367D02*
X6592800Y10365434D01*
X6486733Y10365434D01*
X6486733Y10259367D01*
X6592800Y10259367D01*
X6894100Y7732166D02*
X6894100Y7838233D01*
X6788033Y7838233D01*
X6788033Y7732166D01*
X6894100Y7732166D01*
X6894100Y5992166D02*
X6894100Y6098233D01*
X6788033Y6098233D01*
X6788033Y5992166D01*
X6894100Y5992166D01*
X7792989Y3042566D02*
X7792989Y3148633D01*
X7686922Y3148633D01*
X7686922Y3042566D01*
X7792989Y3042566D01*
X7792989Y1518566D02*
X7792989Y1624633D01*
X7686922Y1624633D01*
X7686922Y1518566D01*
X7792989Y1518566D01*
X7932466Y12672366D02*
X7932466Y12778433D01*
X7826399Y12778433D01*
X7826399Y12672366D01*
X7932466Y12672366D01*
X7932466Y10259367D02*
X7932466Y10365434D01*
X7826399Y10365434D01*
X7826399Y10259367D01*
X7932466Y10259367D01*
X8418100Y7732166D02*
X8418100Y7838233D01*
X8312033Y7838233D01*
X8312033Y7732166D01*
X8418100Y7732166D01*
X8418100Y5992166D02*
X8418100Y6098233D01*
X8312033Y6098233D01*
X8312033Y5992166D01*
X8418100Y5992166D01*
X9006533Y7732166D02*
X9006533Y7838233D01*
X8900466Y7838233D01*
X8900466Y7732166D01*
X9006533Y7732166D01*
X9006533Y5992166D02*
X9006533Y6098233D01*
X8900466Y6098233D01*
X8900466Y5992166D01*
X9006533Y5992166D01*
X9122967Y3042566D02*
X9122967Y3148633D01*
X9016900Y3148633D01*
X9016900Y3042566D01*
X9122967Y3042566D01*
X9122967Y1518566D02*
X9122967Y1624633D01*
X9016900Y1624633D01*
X9016900Y1518566D01*
X9122967Y1518566D01*
X9272133Y12672366D02*
X9272133Y12778433D01*
X9166066Y12778433D01*
X9166066Y12672366D01*
X9272133Y12672366D01*
X9272133Y10259367D02*
X9272133Y10365434D01*
X9166066Y10365434D01*
X9166066Y10259367D01*
X9272133Y10259367D01*
X10452944Y3042566D02*
X10452944Y3148633D01*
X10346877Y3148633D01*
X10346877Y3042566D01*
X10452944Y3042566D01*
X10452944Y1518566D02*
X10452944Y1624633D01*
X10346877Y1624633D01*
X10346877Y1518566D01*
X10452944Y1518566D01*
X10530533Y7732166D02*
X10530533Y7838233D01*
X10424466Y7838233D01*
X10424466Y7732166D01*
X10530533Y7732166D01*
X10530533Y5992166D02*
X10530533Y6098233D01*
X10424466Y6098233D01*
X10424466Y5992166D01*
X10530533Y5992166D01*
X10611800Y12672366D02*
X10611800Y12778433D01*
X10505733Y12778433D01*
X10505733Y12672366D01*
X10611800Y12672366D01*
X10611800Y10259367D02*
X10611800Y10365434D01*
X10505733Y10365434D01*
X10505733Y10259367D01*
X10611800Y10259367D01*
X11118967Y7732166D02*
X11118967Y7838233D01*
X11012900Y7838233D01*
X11012900Y7732166D01*
X11118967Y7732166D01*
X11118967Y5992166D02*
X11118967Y6098233D01*
X11012900Y6098233D01*
X11012900Y5992166D01*
X11118967Y5992166D01*
X11782922Y3042566D02*
X11782922Y3148633D01*
X11676855Y3148633D01*
X11676855Y3042566D01*
X11782922Y3042566D01*
X11782922Y1518566D02*
X11782922Y1624633D01*
X11676855Y1624633D01*
X11676855Y1518566D01*
X11782922Y1518566D01*
X11951466Y12672366D02*
X11951466Y12778433D01*
X11845399Y12778433D01*
X11845399Y12672366D01*
X11951466Y12672366D01*
X11951466Y10259367D02*
X11951466Y10365434D01*
X11845399Y10365434D01*
X11845399Y10259367D01*
X11951466Y10259367D01*
X12642967Y7732166D02*
X12642967Y7838233D01*
X12536900Y7838233D01*
X12536900Y7732166D01*
X12642967Y7732166D01*
X12651433Y5992166D02*
X12651433Y6098233D01*
X12545366Y6098233D01*
X12545366Y5992166D01*
X12651433Y5992166D01*
X12673633Y18336567D02*
X12673633Y18442634D01*
X12567566Y18442634D01*
X12567566Y18336567D01*
X12673633Y18336567D01*
X13112900Y3042566D02*
X13112900Y3148633D01*
X13006833Y3148633D01*
X13006833Y3042566D01*
X13112900Y3042566D01*
X13112900Y1518566D02*
X13112900Y1624633D01*
X13006833Y1624633D01*
X13006833Y1518566D01*
X13112900Y1518566D01*
X13231400Y7732166D02*
X13231400Y7838233D01*
X13125333Y7838233D01*
X13125333Y7732166D01*
X13231400Y7732166D01*
X13235633Y5992166D02*
X13235633Y6098233D01*
X13129566Y6098233D01*
X13129566Y5992166D01*
X13235633Y5992166D01*
X13291133Y12672366D02*
X13291133Y12778433D01*
X13185066Y12778433D01*
X13185066Y12672366D01*
X13291133Y12672366D01*
X13291133Y10259367D02*
X13291133Y10365434D01*
X13185066Y10365434D01*
X13185066Y10259367D01*
X13291133Y10259367D01*
X14197633Y18336567D02*
X14197633Y18442634D01*
X14091566Y18442634D01*
X14091566Y18336567D01*
X14197633Y18336567D01*
X14442877Y3042566D02*
X14442877Y3148633D01*
X14336810Y3148633D01*
X14336810Y3042566D01*
X14442877Y3042566D01*
X14442877Y1518566D02*
X14442877Y1624633D01*
X14336810Y1624633D01*
X14336810Y1518566D01*
X14442877Y1518566D01*
X14755400Y7732166D02*
X14755400Y7838233D01*
X14649333Y7838233D01*
X14649333Y7732166D01*
X14755400Y7732166D01*
X14759633Y5992166D02*
X14759633Y6098233D01*
X14653566Y6098233D01*
X14653566Y5992166D01*
X14759633Y5992166D01*
X14810433Y16401366D02*
X14810433Y16507433D01*
X14704366Y16507433D01*
X14704366Y16401366D01*
X14810433Y16401366D01*
X14810433Y14877366D02*
X14810433Y14983433D01*
X14704366Y14983433D01*
X14704366Y14877366D01*
X14810433Y14877366D01*
X15334333Y10030767D02*
X15334333Y10136834D01*
X15228266Y10136834D01*
X15228266Y10030767D01*
X15334333Y10030767D01*
X15343833Y7732166D02*
X15343833Y7838233D01*
X15237766Y7838233D01*
X15237766Y7732166D01*
X15343833Y7732166D01*
X15343833Y5992166D02*
X15343833Y6098233D01*
X15237766Y6098233D01*
X15237766Y5992166D01*
X15343833Y5992166D01*
X15772855Y3042566D02*
X15772855Y3148633D01*
X15666788Y3148633D01*
X15666788Y3042566D01*
X15772855Y3042566D01*
X15772855Y1518566D02*
X15772855Y1624633D01*
X15666788Y1624633D01*
X15666788Y1518566D01*
X15772855Y1518566D01*
X15894633Y10030767D02*
X15894633Y10136834D01*
X15788566Y10136834D01*
X15788566Y10030767D01*
X15894633Y10030767D01*
X16477333Y10030767D02*
X16477333Y10136834D01*
X16371266Y10136834D01*
X16371266Y10030767D01*
X16477333Y10030767D01*
X16486833Y16401366D02*
X16486833Y16507433D01*
X16380766Y16507433D01*
X16380766Y16401366D01*
X16486833Y16401366D01*
X16486833Y14877366D02*
X16486833Y14983433D01*
X16380766Y14983433D01*
X16380766Y14877366D01*
X16486833Y14877366D01*
X16867834Y7732166D02*
X16867834Y7838233D01*
X16761766Y7838233D01*
X16761766Y7732166D01*
X16867834Y7732166D01*
X16867834Y5992166D02*
X16867834Y6098233D01*
X16761766Y6098233D01*
X16761766Y5992166D01*
X16867834Y5992166D01*
X17102834Y3042566D02*
X17102834Y3148633D01*
X16996767Y3148633D01*
X16996767Y3042566D01*
X17102834Y3042566D01*
X17102834Y1518566D02*
X17102834Y1624633D01*
X16996767Y1624633D01*
X16996767Y1518566D01*
X17102834Y1518566D01*
X20119034Y17404767D02*
X20119034Y17510834D01*
X20012967Y17510834D01*
X20012967Y17404767D01*
X20119034Y17404767D01*
X20119034Y15017166D02*
X20119034Y15123233D01*
X20012967Y15123233D01*
X20012967Y15017166D01*
X20119034Y15017166D01*
X20957234Y12519966D02*
X20957234Y12626033D01*
X20851167Y12626033D01*
X20851167Y12519966D01*
X20957234Y12519966D01*
X21124492Y8201966D02*
X21124492Y8308033D01*
X21018425Y8308033D01*
X21018425Y8201966D01*
X21124492Y8201966D01*
X21385405Y17404767D02*
X21385405Y17510834D01*
X21279338Y17510834D01*
X21279338Y17404767D01*
X21385405Y17404767D01*
X21385405Y15017166D02*
X21385405Y15123233D01*
X21279338Y15123233D01*
X21279338Y15017166D01*
X21385405Y15017166D01*
X22481233Y12519966D02*
X22481233Y12626033D01*
X22375166Y12626033D01*
X22375166Y12519966D01*
X22481233Y12519966D01*
X22648492Y8201966D02*
X22648492Y8308033D01*
X22542425Y8308033D01*
X22542425Y8201966D01*
X22648492Y8201966D01*
X22651776Y17404767D02*
X22651776Y17510834D01*
X22545709Y17510834D01*
X22545709Y17404767D01*
X22651776Y17404767D01*
X22651776Y15017166D02*
X22651776Y15123233D01*
X22545709Y15123233D01*
X22545709Y15017166D01*
X22651776Y15017166D01*
X23471833Y1222367D02*
X23471833Y1328434D01*
X23365766Y1328434D01*
X23365766Y1222367D01*
X23471833Y1222367D01*
X23497233Y3975566D02*
X23497233Y4081633D01*
X23391166Y4081633D01*
X23391166Y3975566D01*
X23497233Y3975566D01*
X23875033Y11678566D02*
X23875033Y11784633D01*
X23768966Y11784633D01*
X23768966Y11678566D01*
X23875033Y11678566D01*
X23875033Y10154567D02*
X23875033Y10260634D01*
X23768966Y10260634D01*
X23768966Y10154567D01*
X23875033Y10154567D01*
X23878233Y7046566D02*
X23878233Y7152633D01*
X23772166Y7152633D01*
X23772166Y7046566D01*
X23878233Y7046566D01*
X23878233Y5522567D02*
X23878233Y5628633D01*
X23772166Y5628633D01*
X23772166Y5522567D01*
X23878233Y5522567D01*
X23918148Y17404767D02*
X23918148Y17510834D01*
X23812081Y17510834D01*
X23812081Y17404767D01*
X23918148Y17404767D01*
X23918148Y15017166D02*
X23918148Y15123233D01*
X23812081Y15123233D01*
X23812081Y15017166D01*
X23918148Y15017166D01*
X24421183Y8201966D02*
X24421183Y8308033D01*
X24315116Y8308033D01*
X24315116Y8201966D01*
X24421183Y8201966D01*
X25184519Y17404767D02*
X25184519Y17510834D01*
X25078452Y17510834D01*
X25078452Y17404767D01*
X25184519Y17404767D01*
X25184519Y15017166D02*
X25184519Y15123233D01*
X25078452Y15123233D01*
X25078452Y15017166D01*
X25184519Y15017166D01*
X25580033Y12519966D02*
X25580033Y12626033D01*
X25473966Y12626033D01*
X25473966Y12519966D01*
X25580033Y12519966D01*
X25945183Y8201966D02*
X25945183Y8308033D01*
X25839116Y8308033D01*
X25839116Y8201966D01*
X25945183Y8201966D01*
X26450890Y17404767D02*
X26450890Y17510834D01*
X26344823Y17510834D01*
X26344823Y17404767D01*
X26450890Y17404767D01*
X26450890Y15017166D02*
X26450890Y15123233D01*
X26344823Y15123233D01*
X26344823Y15017166D01*
X26450890Y15017166D01*
X27104033Y12519966D02*
X27104033Y12626033D01*
X26997966Y12626033D01*
X26997966Y12519966D01*
X27104033Y12519966D01*
X27658233Y1308967D02*
X27658233Y1415033D01*
X27552166Y1415033D01*
X27552166Y1308967D01*
X27658233Y1308967D01*
X27717262Y17404767D02*
X27717262Y17510834D01*
X27611195Y17510834D01*
X27611195Y17404767D01*
X27717262Y17404767D01*
X27717262Y15017166D02*
X27717262Y15123233D01*
X27611195Y15123233D01*
X27611195Y15017166D01*
X27717262Y15017166D01*
X28551833Y12367566D02*
X28551833Y12473633D01*
X28445766Y12473633D01*
X28445766Y12367566D01*
X28551833Y12367566D01*
X28551833Y10487967D02*
X28551833Y10594034D01*
X28445766Y10594034D01*
X28445766Y10487967D01*
X28551833Y10487967D01*
X28983633Y17404767D02*
X28983633Y17510834D01*
X28877566Y17510834D01*
X28877566Y17404767D01*
X28983633Y17404767D01*
X28983633Y15017166D02*
X28983633Y15123233D01*
X28877566Y15123233D01*
X28877566Y15017166D01*
X28983633Y15017166D01*
X29182233Y1308967D02*
X29182233Y1415033D01*
X29076166Y1415033D01*
X29076166Y1308967D01*
X29182233Y1308967D01*
D16*
X500000Y20350000D02*
X650000Y20500000D01*
X500000Y20650000D01*
X350000Y20500000D01*
X500000Y20350000D01*
X500000Y350000D02*
X650000Y500000D01*
X500000Y650000D01*
X350000Y500000D01*
X500000Y350000D01*
X14850000Y20350000D02*
X15000000Y20500000D01*
X14850000Y20650000D01*
X14700000Y20500000D01*
X14850000Y20350000D01*
X14850000Y350000D02*
X15000000Y500000D01*
X14850000Y650000D01*
X14700000Y500000D01*
X14850000Y350000D01*
X29200000Y20350000D02*
X29350000Y20500000D01*
X29200000Y20650000D01*
X29050000Y20500000D01*
X29200000Y20350000D01*
X29200000Y350000D02*
X29350000Y500000D01*
X29200000Y650000D01*
X29050000Y500000D01*
X29200000Y350000D01*
D17*
X1095400Y7800800D02*
X1495400Y7400800D01*
X1495400Y7800800D02*
X1095400Y7400800D01*
X1495400Y7600800D02*
G75*
G03*
X1495400Y7600800I-200000J0D01*
G01*
X1095400Y6300800D02*
X1495400Y5900800D01*
X1495400Y6300800D02*
X1095400Y5900800D01*
X1495400Y6100800D02*
G75*
G03*
X1495400Y6100800I-200000J0D01*
G01*
X1095400Y3613800D02*
X1495400Y3213800D01*
X1495400Y3613800D02*
X1095400Y3213800D01*
X1495400Y3413800D02*
G75*
G03*
X1495400Y3413800I-200000J0D01*
G01*
X1095400Y2113800D02*
X1495400Y1713800D01*
X1495400Y2113800D02*
X1095400Y1713800D01*
X1495400Y1913800D02*
G75*
G03*
X1495400Y1913800I-200000J0D01*
G01*
X10049600Y17510800D02*
X10449600Y17110800D01*
X10449600Y17510800D02*
X10049600Y17110800D01*
X10449600Y17310800D02*
G75*
G03*
X10449600Y17310800I-200000J0D01*
G01*
X10049600Y16010800D02*
X10449600Y15610800D01*
X10449600Y16010800D02*
X10049600Y15610800D01*
X10449600Y15810800D02*
G75*
G03*
X10449600Y15810800I-200000J0D01*
G01*
X18203000Y12447000D02*
X18603000Y12047000D01*
X18603000Y12447000D02*
X18203000Y12047000D01*
X18603000Y12247000D02*
G75*
G03*
X18603000Y12247000I-200000J0D01*
G01*
X18203000Y10947000D02*
X18603000Y10547000D01*
X18603000Y10947000D02*
X18203000Y10547000D01*
X18603000Y10747000D02*
G75*
G03*
X18603000Y10747000I-200000J0D01*
G01*
X18203000Y7800800D02*
X18603000Y7400800D01*
X18603000Y7800800D02*
X18203000Y7400800D01*
X18603000Y7600800D02*
G75*
G03*
X18603000Y7600800I-200000J0D01*
G01*
X18203000Y6300800D02*
X18603000Y5900800D01*
X18603000Y6300800D02*
X18203000Y5900800D01*
X18603000Y6100800D02*
G75*
G03*
X18603000Y6100800I-200000J0D01*
G01*
X18203000Y3613800D02*
X18603000Y3213800D01*
X18603000Y3613800D02*
X18203000Y3213800D01*
X18603000Y3413800D02*
G75*
G03*
X18603000Y3413800I-200000J0D01*
G01*
X18203000Y2113800D02*
X18603000Y1713800D01*
X18603000Y2113800D02*
X18203000Y1713800D01*
X18603000Y1913800D02*
G75*
G03*
X18603000Y1913800I-200000J0D01*
G01*
X18240400Y17510800D02*
X18640400Y17110800D01*
X18640400Y17510800D02*
X18240400Y17110800D01*
X18640400Y17310800D02*
G75*
G03*
X18640400Y17310800I-200000J0D01*
G01*
X18240400Y16010800D02*
X18640400Y15610800D01*
X18640400Y16010800D02*
X18240400Y15610800D01*
X18640400Y15810800D02*
G75*
G03*
X18640400Y15810800I-200000J0D01*
G01*
X24499000Y3613800D02*
X24899000Y3213800D01*
X24899000Y3613800D02*
X24499000Y3213800D01*
X24899000Y3413800D02*
G75*
G03*
X24899000Y3413800I-200000J0D01*
G01*
X24499000Y2113800D02*
X24899000Y1713800D01*
X24899000Y2113800D02*
X24499000Y1713800D01*
X24899000Y1913800D02*
G75*
G03*
X24899000Y1913800I-200000J0D01*
G01*
X28280000Y7800800D02*
X28680000Y7400800D01*
X28680000Y7800800D02*
X28280000Y7400800D01*
X28680000Y7600800D02*
G75*
G03*
X28680000Y7600800I-200000J0D01*
G01*
X28280000Y6300800D02*
X28680000Y5900800D01*
X28680000Y6300800D02*
X28280000Y5900800D01*
X28680000Y6100800D02*
G75*
G03*
X28680000Y6100800I-200000J0D01*
G01*
D11*
X252619Y-315476D02*
X252619Y-115476D01*
X300238Y-115476D01*
X328810Y-125000D01*
X347857Y-144048D01*
X357381Y-163095D01*
X366905Y-201190D01*
X366905Y-229762D01*
X357381Y-267857D01*
X347857Y-286905D01*
X328810Y-305952D01*
X300238Y-315476D01*
X252619Y-315476D01*
X452619Y-315476D02*
X452619Y-182143D01*
X452619Y-220238D02*
X462143Y-201190D01*
X471667Y-191667D01*
X490714Y-182143D01*
X509762Y-182143D01*
X576429Y-315476D02*
X576429Y-182143D01*
X576429Y-115476D02*
X566905Y-125000D01*
X576429Y-134524D01*
X585952Y-125000D01*
X576429Y-115476D01*
X576429Y-134524D01*
X700238Y-315476D02*
X681190Y-305952D01*
X671667Y-286905D01*
X671667Y-115476D01*
X805000Y-315476D02*
X785952Y-305952D01*
X776428Y-286905D01*
X776428Y-115476D01*
X1033571Y-315476D02*
X1033571Y-115476D01*
X1100238Y-258333D01*
X1166905Y-115476D01*
X1166905Y-315476D01*
X1347857Y-315476D02*
X1347857Y-210714D01*
X1338333Y-191667D01*
X1319286Y-182143D01*
X1281190Y-182143D01*
X1262143Y-191667D01*
X1347857Y-305952D02*
X1328810Y-315476D01*
X1281190Y-315476D01*
X1262143Y-305952D01*
X1252619Y-286905D01*
X1252619Y-267857D01*
X1262143Y-248809D01*
X1281190Y-239286D01*
X1328810Y-239286D01*
X1347857Y-229762D01*
X1443095Y-182143D02*
X1443095Y-382143D01*
X1443095Y-191667D02*
X1462143Y-182143D01*
X1500238Y-182143D01*
X1519286Y-191667D01*
X1528809Y-201190D01*
X1538333Y-220238D01*
X1538333Y-277381D01*
X1528809Y-296429D01*
X1519286Y-305952D01*
X1500238Y-315476D01*
X1462143Y-315476D01*
X1443095Y-305952D01*
X1624048Y-296429D02*
X1633571Y-305952D01*
X1624048Y-315476D01*
X1614524Y-305952D01*
X1624048Y-296429D01*
X1624048Y-315476D01*
X1624048Y-191667D02*
X1633571Y-201190D01*
X1624048Y-210714D01*
X1614524Y-201190D01*
X1624048Y-191667D01*
X1624048Y-210714D01*
D12*
X-85000Y-605000D02*
X-5000Y-685000D01*
X-5000Y-605000D02*
X-85000Y-685000D01*
D11*
X290714Y-535476D02*
X309762Y-535476D01*
X328810Y-545000D01*
X338333Y-554524D01*
X347857Y-573571D01*
X357381Y-611667D01*
X357381Y-659286D01*
X347857Y-697381D01*
X338333Y-716428D01*
X328810Y-725952D01*
X309762Y-735476D01*
X290714Y-735476D01*
X271667Y-725952D01*
X262143Y-716428D01*
X252619Y-697381D01*
X243095Y-659286D01*
X243095Y-611667D01*
X252619Y-573571D01*
X262143Y-554524D01*
X271667Y-545000D01*
X290714Y-535476D01*
X443095Y-716428D02*
X452619Y-725952D01*
X443095Y-735476D01*
X433571Y-725952D01*
X443095Y-716428D01*
X443095Y-735476D01*
X566905Y-621190D02*
X547857Y-611667D01*
X538333Y-602143D01*
X528810Y-583095D01*
X528810Y-573571D01*
X538333Y-554524D01*
X547857Y-545000D01*
X566905Y-535476D01*
X605000Y-535476D01*
X624048Y-545000D01*
X633571Y-554524D01*
X643095Y-573571D01*
X643095Y-583095D01*
X633571Y-602143D01*
X624048Y-611667D01*
X605000Y-621190D01*
X566905Y-621190D01*
X547857Y-630714D01*
X538333Y-640238D01*
X528810Y-659286D01*
X528810Y-697381D01*
X538333Y-716428D01*
X547857Y-725952D01*
X566905Y-735476D01*
X605000Y-735476D01*
X624048Y-725952D01*
X633571Y-716428D01*
X643095Y-697381D01*
X643095Y-659286D01*
X633571Y-640238D01*
X624048Y-630714D01*
X605000Y-621190D01*
X766905Y-535476D02*
X785952Y-535476D01*
X805000Y-545000D01*
X814524Y-554524D01*
X824048Y-573571D01*
X833571Y-611667D01*
X833571Y-659286D01*
X824048Y-697381D01*
X814524Y-716428D01*
X805000Y-725952D01*
X785952Y-735476D01*
X766905Y-735476D01*
X747857Y-725952D01*
X738333Y-716428D01*
X728809Y-697381D01*
X719286Y-659286D01*
X719286Y-611667D01*
X728809Y-573571D01*
X738333Y-554524D01*
X747857Y-545000D01*
X766905Y-535476D01*
X957381Y-535476D02*
X976428Y-535476D01*
X995476Y-545000D01*
X1005000Y-554524D01*
X1014524Y-573571D01*
X1024048Y-611667D01*
X1024048Y-659286D01*
X1014524Y-697381D01*
X1005000Y-716428D01*
X995476Y-725952D01*
X976428Y-735476D01*
X957381Y-735476D01*
X938333Y-725952D01*
X928809Y-716428D01*
X919286Y-697381D01*
X909762Y-659286D01*
X909762Y-611667D01*
X919286Y-573571D01*
X928809Y-554524D01*
X938333Y-545000D01*
X957381Y-535476D01*
X1109762Y-735476D02*
X1109762Y-602143D01*
X1109762Y-621190D02*
X1119286Y-611667D01*
X1138333Y-602143D01*
X1166905Y-602143D01*
X1185952Y-611667D01*
X1195476Y-630714D01*
X1195476Y-735476D01*
X1195476Y-630714D02*
X1205000Y-611667D01*
X1224048Y-602143D01*
X1252619Y-602143D01*
X1271667Y-611667D01*
X1281190Y-630714D01*
X1281190Y-735476D01*
X1376429Y-735476D02*
X1376429Y-602143D01*
X1376429Y-621190D02*
X1385952Y-611667D01*
X1405000Y-602143D01*
X1433571Y-602143D01*
X1452619Y-611667D01*
X1462143Y-630714D01*
X1462143Y-735476D01*
X1462143Y-630714D02*
X1471667Y-611667D01*
X1490714Y-602143D01*
X1519286Y-602143D01*
X1538333Y-611667D01*
X1547857Y-630714D01*
X1547857Y-735476D01*
X1938333Y-525952D02*
X1766905Y-783095D01*
X2195476Y-535476D02*
X2214524Y-535476D01*
X2233571Y-545000D01*
X2243095Y-554524D01*
X2252619Y-573571D01*
X2262143Y-611667D01*
X2262143Y-659286D01*
X2252619Y-697381D01*
X2243095Y-716428D01*
X2233571Y-725952D01*
X2214524Y-735476D01*
X2195476Y-735476D01*
X2176429Y-725952D01*
X2166905Y-716428D01*
X2157381Y-697381D01*
X2147857Y-659286D01*
X2147857Y-611667D01*
X2157381Y-573571D01*
X2166905Y-554524D01*
X2176429Y-545000D01*
X2195476Y-535476D01*
X2347857Y-716428D02*
X2357381Y-725952D01*
X2347857Y-735476D01*
X2338333Y-725952D01*
X2347857Y-716428D01*
X2347857Y-735476D01*
X2481190Y-535476D02*
X2500238Y-535476D01*
X2519286Y-545000D01*
X2528810Y-554524D01*
X2538333Y-573571D01*
X2547857Y-611667D01*
X2547857Y-659286D01*
X2538333Y-697381D01*
X2528810Y-716428D01*
X2519286Y-725952D01*
X2500238Y-735476D01*
X2481190Y-735476D01*
X2462143Y-725952D01*
X2452619Y-716428D01*
X2443095Y-697381D01*
X2433571Y-659286D01*
X2433571Y-611667D01*
X2443095Y-573571D01*
X2452619Y-554524D01*
X2462143Y-545000D01*
X2481190Y-535476D01*
X2614524Y-535476D02*
X2738333Y-535476D01*
X2671667Y-611667D01*
X2700238Y-611667D01*
X2719286Y-621190D01*
X2728810Y-630714D01*
X2738333Y-649762D01*
X2738333Y-697381D01*
X2728810Y-716428D01*
X2719286Y-725952D01*
X2700238Y-735476D01*
X2643095Y-735476D01*
X2624048Y-725952D01*
X2614524Y-716428D01*
X2928809Y-735476D02*
X2814524Y-735476D01*
X2871667Y-735476D02*
X2871667Y-535476D01*
X2852619Y-564048D01*
X2833571Y-583095D01*
X2814524Y-592619D01*
X3109762Y-535476D02*
X3014524Y-535476D01*
X3005000Y-630714D01*
X3014524Y-621190D01*
X3033571Y-611667D01*
X3081190Y-611667D01*
X3100238Y-621190D01*
X3109762Y-630714D01*
X3119286Y-649762D01*
X3119286Y-697381D01*
X3109762Y-716428D01*
X3100238Y-725952D01*
X3081190Y-735476D01*
X3033571Y-735476D01*
X3014524Y-725952D01*
X3005000Y-716428D01*
X3195476Y-535476D02*
X3195476Y-573571D01*
X3271667Y-535476D02*
X3271667Y-573571D01*
X3566905Y-811667D02*
X3557381Y-802143D01*
X3538333Y-773571D01*
X3528809Y-754524D01*
X3519286Y-725952D01*
X3509762Y-678333D01*
X3509762Y-640238D01*
X3519286Y-592619D01*
X3528809Y-564048D01*
X3538333Y-545000D01*
X3557381Y-516428D01*
X3566905Y-506905D01*
X3633571Y-554524D02*
X3643095Y-545000D01*
X3662143Y-535476D01*
X3709762Y-535476D01*
X3728809Y-545000D01*
X3738333Y-554524D01*
X3747857Y-573571D01*
X3747857Y-592619D01*
X3738333Y-621190D01*
X3624048Y-735476D01*
X3747857Y-735476D01*
X3985952Y-735476D02*
X3985952Y-535476D01*
X4071667Y-735476D02*
X4071667Y-630714D01*
X4062143Y-611667D01*
X4043095Y-602143D01*
X4014524Y-602143D01*
X3995476Y-611667D01*
X3985952Y-621190D01*
X4195476Y-735476D02*
X4176428Y-725952D01*
X4166905Y-716428D01*
X4157381Y-697381D01*
X4157381Y-640238D01*
X4166905Y-621190D01*
X4176428Y-611667D01*
X4195476Y-602143D01*
X4224048Y-602143D01*
X4243095Y-611667D01*
X4252619Y-621190D01*
X4262143Y-640238D01*
X4262143Y-697381D01*
X4252619Y-716428D01*
X4243095Y-725952D01*
X4224048Y-735476D01*
X4195476Y-735476D01*
X4376429Y-735476D02*
X4357381Y-725952D01*
X4347857Y-706905D01*
X4347857Y-535476D01*
X4528810Y-725952D02*
X4509762Y-735476D01*
X4471667Y-735476D01*
X4452619Y-725952D01*
X4443095Y-706905D01*
X4443095Y-630714D01*
X4452619Y-611667D01*
X4471667Y-602143D01*
X4509762Y-602143D01*
X4528810Y-611667D01*
X4538333Y-630714D01*
X4538333Y-649762D01*
X4443095Y-668810D01*
X4614524Y-725952D02*
X4633571Y-735476D01*
X4671667Y-735476D01*
X4690714Y-725952D01*
X4700238Y-706905D01*
X4700238Y-697381D01*
X4690714Y-678333D01*
X4671667Y-668810D01*
X4643095Y-668810D01*
X4624048Y-659286D01*
X4614524Y-640238D01*
X4614524Y-630714D01*
X4624048Y-611667D01*
X4643095Y-602143D01*
X4671667Y-602143D01*
X4690714Y-611667D01*
X4766905Y-811667D02*
X4776429Y-802143D01*
X4795476Y-773571D01*
X4805000Y-754524D01*
X4814524Y-725952D01*
X4824048Y-678333D01*
X4824048Y-640238D01*
X4814524Y-592619D01*
X4805000Y-564048D01*
X4795476Y-545000D01*
X4776429Y-516428D01*
X4766905Y-506905D01*
D13*
X-5000Y-909000D02*
G75*
G03*
X-5000Y-909000I-50000J0D01*
G01*
D11*
X357381Y-999476D02*
X243095Y-999476D01*
X300238Y-999476D02*
X300238Y-799476D01*
X281190Y-828048D01*
X262143Y-847095D01*
X243095Y-856619D01*
X443095Y-980428D02*
X452619Y-989952D01*
X443095Y-999476D01*
X433571Y-989952D01*
X443095Y-980428D01*
X443095Y-999476D01*
X576429Y-799476D02*
X595476Y-799476D01*
X614524Y-809000D01*
X624048Y-818524D01*
X633571Y-837571D01*
X643095Y-875667D01*
X643095Y-923286D01*
X633571Y-961381D01*
X624048Y-980428D01*
X614524Y-989952D01*
X595476Y-999476D01*
X576429Y-999476D01*
X557381Y-989952D01*
X547857Y-980428D01*
X538333Y-961381D01*
X528810Y-923286D01*
X528810Y-875667D01*
X538333Y-837571D01*
X547857Y-818524D01*
X557381Y-809000D01*
X576429Y-799476D01*
X766905Y-799476D02*
X785952Y-799476D01*
X805000Y-809000D01*
X814524Y-818524D01*
X824048Y-837571D01*
X833571Y-875667D01*
X833571Y-923286D01*
X824048Y-961381D01*
X814524Y-980428D01*
X805000Y-989952D01*
X785952Y-999476D01*
X766905Y-999476D01*
X747857Y-989952D01*
X738333Y-980428D01*
X728809Y-961381D01*
X719286Y-923286D01*
X719286Y-875667D01*
X728809Y-837571D01*
X738333Y-818524D01*
X747857Y-809000D01*
X766905Y-799476D01*
X957381Y-799476D02*
X976428Y-799476D01*
X995476Y-809000D01*
X1005000Y-818524D01*
X1014524Y-837571D01*
X1024048Y-875667D01*
X1024048Y-923286D01*
X1014524Y-961381D01*
X1005000Y-980428D01*
X995476Y-989952D01*
X976428Y-999476D01*
X957381Y-999476D01*
X938333Y-989952D01*
X928809Y-980428D01*
X919286Y-961381D01*
X909762Y-923286D01*
X909762Y-875667D01*
X919286Y-837571D01*
X928809Y-818524D01*
X938333Y-809000D01*
X957381Y-799476D01*
X1109762Y-999476D02*
X1109762Y-866143D01*
X1109762Y-885190D02*
X1119286Y-875667D01*
X1138333Y-866143D01*
X1166905Y-866143D01*
X1185952Y-875667D01*
X1195476Y-894714D01*
X1195476Y-999476D01*
X1195476Y-894714D02*
X1205000Y-875667D01*
X1224048Y-866143D01*
X1252619Y-866143D01*
X1271667Y-875667D01*
X1281190Y-894714D01*
X1281190Y-999476D01*
X1376429Y-999476D02*
X1376429Y-866143D01*
X1376429Y-885190D02*
X1385952Y-875667D01*
X1405000Y-866143D01*
X1433571Y-866143D01*
X1452619Y-875667D01*
X1462143Y-894714D01*
X1462143Y-999476D01*
X1462143Y-894714D02*
X1471667Y-875667D01*
X1490714Y-866143D01*
X1519286Y-866143D01*
X1538333Y-875667D01*
X1547857Y-894714D01*
X1547857Y-999476D01*
X1938333Y-789952D02*
X1766905Y-1047095D01*
X2195476Y-799476D02*
X2214524Y-799476D01*
X2233571Y-809000D01*
X2243095Y-818524D01*
X2252619Y-837571D01*
X2262143Y-875667D01*
X2262143Y-923286D01*
X2252619Y-961381D01*
X2243095Y-980428D01*
X2233571Y-989952D01*
X2214524Y-999476D01*
X2195476Y-999476D01*
X2176429Y-989952D01*
X2166905Y-980428D01*
X2157381Y-961381D01*
X2147857Y-923286D01*
X2147857Y-875667D01*
X2157381Y-837571D01*
X2166905Y-818524D01*
X2176429Y-809000D01*
X2195476Y-799476D01*
X2347857Y-980428D02*
X2357381Y-989952D01*
X2347857Y-999476D01*
X2338333Y-989952D01*
X2347857Y-980428D01*
X2347857Y-999476D01*
X2481190Y-799476D02*
X2500238Y-799476D01*
X2519286Y-809000D01*
X2528810Y-818524D01*
X2538333Y-837571D01*
X2547857Y-875667D01*
X2547857Y-923286D01*
X2538333Y-961381D01*
X2528810Y-980428D01*
X2519286Y-989952D01*
X2500238Y-999476D01*
X2481190Y-999476D01*
X2462143Y-989952D01*
X2452619Y-980428D01*
X2443095Y-961381D01*
X2433571Y-923286D01*
X2433571Y-875667D01*
X2443095Y-837571D01*
X2452619Y-818524D01*
X2462143Y-809000D01*
X2481190Y-799476D01*
X2614524Y-799476D02*
X2738333Y-799476D01*
X2671667Y-875667D01*
X2700238Y-875667D01*
X2719286Y-885190D01*
X2728810Y-894714D01*
X2738333Y-913762D01*
X2738333Y-961381D01*
X2728810Y-980428D01*
X2719286Y-989952D01*
X2700238Y-999476D01*
X2643095Y-999476D01*
X2624048Y-989952D01*
X2614524Y-980428D01*
X2833571Y-999476D02*
X2871667Y-999476D01*
X2890714Y-989952D01*
X2900238Y-980428D01*
X2919286Y-951857D01*
X2928809Y-913762D01*
X2928809Y-837571D01*
X2919286Y-818524D01*
X2909762Y-809000D01*
X2890714Y-799476D01*
X2852619Y-799476D01*
X2833571Y-809000D01*
X2824048Y-818524D01*
X2814524Y-837571D01*
X2814524Y-885190D01*
X2824048Y-904238D01*
X2833571Y-913762D01*
X2852619Y-923286D01*
X2890714Y-923286D01*
X2909762Y-913762D01*
X2919286Y-904238D01*
X2928809Y-885190D01*
X3100238Y-866143D02*
X3100238Y-999476D01*
X3052619Y-789952D02*
X3005000Y-932809D01*
X3128809Y-932809D01*
X3195476Y-799476D02*
X3195476Y-837571D01*
X3271667Y-799476D02*
X3271667Y-837571D01*
X3566905Y-1075667D02*
X3557381Y-1066143D01*
X3538333Y-1037571D01*
X3528809Y-1018524D01*
X3519286Y-989952D01*
X3509762Y-942333D01*
X3509762Y-904238D01*
X3519286Y-856619D01*
X3528809Y-828048D01*
X3538333Y-809000D01*
X3557381Y-780428D01*
X3566905Y-770905D01*
X3747857Y-999476D02*
X3633571Y-999476D01*
X3690714Y-999476D02*
X3690714Y-799476D01*
X3671667Y-828048D01*
X3652619Y-847095D01*
X3633571Y-856619D01*
X3938333Y-999476D02*
X3824048Y-999476D01*
X3881190Y-999476D02*
X3881190Y-799476D01*
X3862143Y-828048D01*
X3843095Y-847095D01*
X3824048Y-856619D01*
X4109762Y-799476D02*
X4071667Y-799476D01*
X4052619Y-809000D01*
X4043095Y-818524D01*
X4024048Y-847095D01*
X4014524Y-885190D01*
X4014524Y-961381D01*
X4024048Y-980428D01*
X4033571Y-989952D01*
X4052619Y-999476D01*
X4090714Y-999476D01*
X4109762Y-989952D01*
X4119286Y-980428D01*
X4128809Y-961381D01*
X4128809Y-913762D01*
X4119286Y-894714D01*
X4109762Y-885190D01*
X4090714Y-875667D01*
X4052619Y-875667D01*
X4033571Y-885190D01*
X4024048Y-894714D01*
X4014524Y-913762D01*
X4366905Y-999476D02*
X4366905Y-799476D01*
X4452619Y-999476D02*
X4452619Y-894714D01*
X4443095Y-875667D01*
X4424048Y-866143D01*
X4395476Y-866143D01*
X4376429Y-875667D01*
X4366905Y-885190D01*
X4576429Y-999476D02*
X4557381Y-989952D01*
X4547857Y-980428D01*
X4538333Y-961381D01*
X4538333Y-904238D01*
X4547857Y-885190D01*
X4557381Y-875667D01*
X4576429Y-866143D01*
X4605000Y-866143D01*
X4624048Y-875667D01*
X4633571Y-885190D01*
X4643095Y-904238D01*
X4643095Y-961381D01*
X4633571Y-980428D01*
X4624048Y-989952D01*
X4605000Y-999476D01*
X4576429Y-999476D01*
X4757381Y-999476D02*
X4738333Y-989952D01*
X4728810Y-970905D01*
X4728810Y-799476D01*
X4909762Y-989952D02*
X4890714Y-999476D01*
X4852619Y-999476D01*
X4833571Y-989952D01*
X4824048Y-970905D01*
X4824048Y-894714D01*
X4833571Y-875667D01*
X4852619Y-866143D01*
X4890714Y-866143D01*
X4909762Y-875667D01*
X4919286Y-894714D01*
X4919286Y-913762D01*
X4824048Y-932809D01*
X4995476Y-989952D02*
X5014524Y-999476D01*
X5052619Y-999476D01*
X5071667Y-989952D01*
X5081190Y-970905D01*
X5081190Y-961381D01*
X5071667Y-942333D01*
X5052619Y-932809D01*
X5024048Y-932809D01*
X5005000Y-923286D01*
X4995476Y-904238D01*
X4995476Y-894714D01*
X5005000Y-875667D01*
X5024048Y-866143D01*
X5052619Y-866143D01*
X5071667Y-875667D01*
X5147857Y-1075667D02*
X5157381Y-1066143D01*
X5176429Y-1037571D01*
X5185952Y-1018524D01*
X5195476Y-989952D01*
X5205000Y-942333D01*
X5205000Y-904238D01*
X5195476Y-856619D01*
X5185952Y-828048D01*
X5176429Y-809000D01*
X5157381Y-780428D01*
X5147857Y-770905D01*
D14*
X-65000Y-1113000D02*
X-65000Y-1233000D01*
X-125000Y-1173000D02*
X-5000Y-1173000D01*
D11*
X357381Y-1263476D02*
X243095Y-1263476D01*
X300238Y-1263476D02*
X300238Y-1063476D01*
X281190Y-1092048D01*
X262143Y-1111095D01*
X243095Y-1120619D01*
X443095Y-1244429D02*
X452619Y-1253952D01*
X443095Y-1263476D01*
X433571Y-1253952D01*
X443095Y-1244429D01*
X443095Y-1263476D01*
X528810Y-1082524D02*
X538333Y-1073000D01*
X557381Y-1063476D01*
X605000Y-1063476D01*
X624048Y-1073000D01*
X633571Y-1082524D01*
X643095Y-1101571D01*
X643095Y-1120619D01*
X633571Y-1149190D01*
X519286Y-1263476D01*
X643095Y-1263476D01*
X766905Y-1063476D02*
X785952Y-1063476D01*
X805000Y-1073000D01*
X814524Y-1082524D01*
X824048Y-1101571D01*
X833571Y-1139667D01*
X833571Y-1187286D01*
X824048Y-1225381D01*
X814524Y-1244429D01*
X805000Y-1253952D01*
X785952Y-1263476D01*
X766905Y-1263476D01*
X747857Y-1253952D01*
X738333Y-1244429D01*
X728809Y-1225381D01*
X719286Y-1187286D01*
X719286Y-1139667D01*
X728809Y-1101571D01*
X738333Y-1082524D01*
X747857Y-1073000D01*
X766905Y-1063476D01*
X957381Y-1063476D02*
X976428Y-1063476D01*
X995476Y-1073000D01*
X1005000Y-1082524D01*
X1014524Y-1101571D01*
X1024048Y-1139667D01*
X1024048Y-1187286D01*
X1014524Y-1225381D01*
X1005000Y-1244429D01*
X995476Y-1253952D01*
X976428Y-1263476D01*
X957381Y-1263476D01*
X938333Y-1253952D01*
X928809Y-1244429D01*
X919286Y-1225381D01*
X909762Y-1187286D01*
X909762Y-1139667D01*
X919286Y-1101571D01*
X928809Y-1082524D01*
X938333Y-1073000D01*
X957381Y-1063476D01*
X1109762Y-1263476D02*
X1109762Y-1130143D01*
X1109762Y-1149190D02*
X1119286Y-1139667D01*
X1138333Y-1130143D01*
X1166905Y-1130143D01*
X1185952Y-1139667D01*
X1195476Y-1158714D01*
X1195476Y-1263476D01*
X1195476Y-1158714D02*
X1205000Y-1139667D01*
X1224048Y-1130143D01*
X1252619Y-1130143D01*
X1271667Y-1139667D01*
X1281190Y-1158714D01*
X1281190Y-1263476D01*
X1376429Y-1263476D02*
X1376429Y-1130143D01*
X1376429Y-1149190D02*
X1385952Y-1139667D01*
X1405000Y-1130143D01*
X1433571Y-1130143D01*
X1452619Y-1139667D01*
X1462143Y-1158714D01*
X1462143Y-1263476D01*
X1462143Y-1158714D02*
X1471667Y-1139667D01*
X1490714Y-1130143D01*
X1519286Y-1130143D01*
X1538333Y-1139667D01*
X1547857Y-1158714D01*
X1547857Y-1263476D01*
X1938333Y-1053952D02*
X1766905Y-1311095D01*
X2195476Y-1063476D02*
X2214524Y-1063476D01*
X2233571Y-1073000D01*
X2243095Y-1082524D01*
X2252619Y-1101571D01*
X2262143Y-1139667D01*
X2262143Y-1187286D01*
X2252619Y-1225381D01*
X2243095Y-1244429D01*
X2233571Y-1253952D01*
X2214524Y-1263476D01*
X2195476Y-1263476D01*
X2176429Y-1253952D01*
X2166905Y-1244429D01*
X2157381Y-1225381D01*
X2147857Y-1187286D01*
X2147857Y-1139667D01*
X2157381Y-1101571D01*
X2166905Y-1082524D01*
X2176429Y-1073000D01*
X2195476Y-1063476D01*
X2347857Y-1244429D02*
X2357381Y-1253952D01*
X2347857Y-1263476D01*
X2338333Y-1253952D01*
X2347857Y-1244429D01*
X2347857Y-1263476D01*
X2481190Y-1063476D02*
X2500238Y-1063476D01*
X2519286Y-1073000D01*
X2528810Y-1082524D01*
X2538333Y-1101571D01*
X2547857Y-1139667D01*
X2547857Y-1187286D01*
X2538333Y-1225381D01*
X2528810Y-1244429D01*
X2519286Y-1253952D01*
X2500238Y-1263476D01*
X2481190Y-1263476D01*
X2462143Y-1253952D01*
X2452619Y-1244429D01*
X2443095Y-1225381D01*
X2433571Y-1187286D01*
X2433571Y-1139667D01*
X2443095Y-1101571D01*
X2452619Y-1082524D01*
X2462143Y-1073000D01*
X2481190Y-1063476D01*
X2719286Y-1130143D02*
X2719286Y-1263476D01*
X2671667Y-1053952D02*
X2624048Y-1196810D01*
X2747857Y-1196810D01*
X2805000Y-1063476D02*
X2938333Y-1063476D01*
X2852619Y-1263476D01*
X3005000Y-1082524D02*
X3014524Y-1073000D01*
X3033571Y-1063476D01*
X3081190Y-1063476D01*
X3100238Y-1073000D01*
X3109762Y-1082524D01*
X3119286Y-1101571D01*
X3119286Y-1120619D01*
X3109762Y-1149190D01*
X2995476Y-1263476D01*
X3119286Y-1263476D01*
X3195476Y-1063476D02*
X3195476Y-1101571D01*
X3271667Y-1063476D02*
X3271667Y-1101571D01*
X3566905Y-1339667D02*
X3557381Y-1330143D01*
X3538333Y-1301571D01*
X3528809Y-1282524D01*
X3519286Y-1253952D01*
X3509762Y-1206333D01*
X3509762Y-1168238D01*
X3519286Y-1120619D01*
X3528809Y-1092048D01*
X3538333Y-1073000D01*
X3557381Y-1044428D01*
X3566905Y-1034905D01*
X3747857Y-1263476D02*
X3633571Y-1263476D01*
X3690714Y-1263476D02*
X3690714Y-1063476D01*
X3671667Y-1092048D01*
X3652619Y-1111095D01*
X3633571Y-1120619D01*
X3938333Y-1263476D02*
X3824048Y-1263476D01*
X3881190Y-1263476D02*
X3881190Y-1063476D01*
X3862143Y-1092048D01*
X3843095Y-1111095D01*
X3824048Y-1120619D01*
X4109762Y-1063476D02*
X4071667Y-1063476D01*
X4052619Y-1073000D01*
X4043095Y-1082524D01*
X4024048Y-1111095D01*
X4014524Y-1149190D01*
X4014524Y-1225381D01*
X4024048Y-1244429D01*
X4033571Y-1253952D01*
X4052619Y-1263476D01*
X4090714Y-1263476D01*
X4109762Y-1253952D01*
X4119286Y-1244429D01*
X4128809Y-1225381D01*
X4128809Y-1177762D01*
X4119286Y-1158714D01*
X4109762Y-1149190D01*
X4090714Y-1139667D01*
X4052619Y-1139667D01*
X4033571Y-1149190D01*
X4024048Y-1158714D01*
X4014524Y-1177762D01*
X4366905Y-1263476D02*
X4366905Y-1063476D01*
X4452619Y-1263476D02*
X4452619Y-1158714D01*
X4443095Y-1139667D01*
X4424048Y-1130143D01*
X4395476Y-1130143D01*
X4376429Y-1139667D01*
X4366905Y-1149190D01*
X4576429Y-1263476D02*
X4557381Y-1253952D01*
X4547857Y-1244429D01*
X4538333Y-1225381D01*
X4538333Y-1168238D01*
X4547857Y-1149190D01*
X4557381Y-1139667D01*
X4576429Y-1130143D01*
X4605000Y-1130143D01*
X4624048Y-1139667D01*
X4633571Y-1149190D01*
X4643095Y-1168238D01*
X4643095Y-1225381D01*
X4633571Y-1244429D01*
X4624048Y-1253952D01*
X4605000Y-1263476D01*
X4576429Y-1263476D01*
X4757381Y-1263476D02*
X4738333Y-1253952D01*
X4728810Y-1234905D01*
X4728810Y-1063476D01*
X4909762Y-1253952D02*
X4890714Y-1263476D01*
X4852619Y-1263476D01*
X4833571Y-1253952D01*
X4824048Y-1234905D01*
X4824048Y-1158714D01*
X4833571Y-1139667D01*
X4852619Y-1130143D01*
X4890714Y-1130143D01*
X4909762Y-1139667D01*
X4919286Y-1158714D01*
X4919286Y-1177762D01*
X4824048Y-1196810D01*
X4995476Y-1253952D02*
X5014524Y-1263476D01*
X5052619Y-1263476D01*
X5071667Y-1253952D01*
X5081190Y-1234905D01*
X5081190Y-1225381D01*
X5071667Y-1206333D01*
X5052619Y-1196810D01*
X5024048Y-1196810D01*
X5005000Y-1187286D01*
X4995476Y-1168238D01*
X4995476Y-1158714D01*
X5005000Y-1139667D01*
X5024048Y-1130143D01*
X5052619Y-1130143D01*
X5071667Y-1139667D01*
X5147857Y-1339667D02*
X5157381Y-1330143D01*
X5176429Y-1301571D01*
X5185952Y-1282524D01*
X5195476Y-1253952D01*
X5205000Y-1206333D01*
X5205000Y-1168238D01*
X5195476Y-1120619D01*
X5185952Y-1092048D01*
X5176429Y-1073000D01*
X5157381Y-1044428D01*
X5147857Y-1034905D01*
D15*
X-26966Y-1490033D02*
X-26966Y-1383967D01*
X-133034Y-1383967D01*
X-133034Y-1490033D01*
X-26966Y-1490033D01*
D11*
X357381Y-1527476D02*
X243095Y-1527476D01*
X300238Y-1527476D02*
X300238Y-1327476D01*
X281190Y-1356048D01*
X262143Y-1375095D01*
X243095Y-1384619D01*
X443095Y-1508428D02*
X452619Y-1517952D01*
X443095Y-1527476D01*
X433571Y-1517952D01*
X443095Y-1508428D01*
X443095Y-1527476D01*
X633571Y-1327476D02*
X538333Y-1327476D01*
X528810Y-1422714D01*
X538333Y-1413190D01*
X557381Y-1403667D01*
X605000Y-1403667D01*
X624048Y-1413190D01*
X633571Y-1422714D01*
X643095Y-1441762D01*
X643095Y-1489381D01*
X633571Y-1508428D01*
X624048Y-1517952D01*
X605000Y-1527476D01*
X557381Y-1527476D01*
X538333Y-1517952D01*
X528810Y-1508428D01*
X766905Y-1327476D02*
X785952Y-1327476D01*
X805000Y-1337000D01*
X814524Y-1346524D01*
X824048Y-1365571D01*
X833571Y-1403667D01*
X833571Y-1451286D01*
X824048Y-1489381D01*
X814524Y-1508428D01*
X805000Y-1517952D01*
X785952Y-1527476D01*
X766905Y-1527476D01*
X747857Y-1517952D01*
X738333Y-1508428D01*
X728809Y-1489381D01*
X719286Y-1451286D01*
X719286Y-1403667D01*
X728809Y-1365571D01*
X738333Y-1346524D01*
X747857Y-1337000D01*
X766905Y-1327476D01*
X957381Y-1327476D02*
X976428Y-1327476D01*
X995476Y-1337000D01*
X1005000Y-1346524D01*
X1014524Y-1365571D01*
X1024048Y-1403667D01*
X1024048Y-1451286D01*
X1014524Y-1489381D01*
X1005000Y-1508428D01*
X995476Y-1517952D01*
X976428Y-1527476D01*
X957381Y-1527476D01*
X938333Y-1517952D01*
X928809Y-1508428D01*
X919286Y-1489381D01*
X909762Y-1451286D01*
X909762Y-1403667D01*
X919286Y-1365571D01*
X928809Y-1346524D01*
X938333Y-1337000D01*
X957381Y-1327476D01*
X1109762Y-1527476D02*
X1109762Y-1394143D01*
X1109762Y-1413190D02*
X1119286Y-1403667D01*
X1138333Y-1394143D01*
X1166905Y-1394143D01*
X1185952Y-1403667D01*
X1195476Y-1422714D01*
X1195476Y-1527476D01*
X1195476Y-1422714D02*
X1205000Y-1403667D01*
X1224048Y-1394143D01*
X1252619Y-1394143D01*
X1271667Y-1403667D01*
X1281190Y-1422714D01*
X1281190Y-1527476D01*
X1376429Y-1527476D02*
X1376429Y-1394143D01*
X1376429Y-1413190D02*
X1385952Y-1403667D01*
X1405000Y-1394143D01*
X1433571Y-1394143D01*
X1452619Y-1403667D01*
X1462143Y-1422714D01*
X1462143Y-1527476D01*
X1462143Y-1422714D02*
X1471667Y-1403667D01*
X1490714Y-1394143D01*
X1519286Y-1394143D01*
X1538333Y-1403667D01*
X1547857Y-1422714D01*
X1547857Y-1527476D01*
X1938333Y-1317952D02*
X1766905Y-1575095D01*
X2195476Y-1327476D02*
X2214524Y-1327476D01*
X2233571Y-1337000D01*
X2243095Y-1346524D01*
X2252619Y-1365571D01*
X2262143Y-1403667D01*
X2262143Y-1451286D01*
X2252619Y-1489381D01*
X2243095Y-1508428D01*
X2233571Y-1517952D01*
X2214524Y-1527476D01*
X2195476Y-1527476D01*
X2176429Y-1517952D01*
X2166905Y-1508428D01*
X2157381Y-1489381D01*
X2147857Y-1451286D01*
X2147857Y-1403667D01*
X2157381Y-1365571D01*
X2166905Y-1346524D01*
X2176429Y-1337000D01*
X2195476Y-1327476D01*
X2347857Y-1508428D02*
X2357381Y-1517952D01*
X2347857Y-1527476D01*
X2338333Y-1517952D01*
X2347857Y-1508428D01*
X2347857Y-1527476D01*
X2481190Y-1327476D02*
X2500238Y-1327476D01*
X2519286Y-1337000D01*
X2528810Y-1346524D01*
X2538333Y-1365571D01*
X2547857Y-1403667D01*
X2547857Y-1451286D01*
X2538333Y-1489381D01*
X2528810Y-1508428D01*
X2519286Y-1517952D01*
X2500238Y-1527476D01*
X2481190Y-1527476D01*
X2462143Y-1517952D01*
X2452619Y-1508428D01*
X2443095Y-1489381D01*
X2433571Y-1451286D01*
X2433571Y-1403667D01*
X2443095Y-1365571D01*
X2452619Y-1346524D01*
X2462143Y-1337000D01*
X2481190Y-1327476D01*
X2728810Y-1327476D02*
X2633571Y-1327476D01*
X2624048Y-1422714D01*
X2633571Y-1413190D01*
X2652619Y-1403667D01*
X2700238Y-1403667D01*
X2719286Y-1413190D01*
X2728810Y-1422714D01*
X2738333Y-1441762D01*
X2738333Y-1489381D01*
X2728810Y-1508428D01*
X2719286Y-1517952D01*
X2700238Y-1527476D01*
X2652619Y-1527476D01*
X2633571Y-1517952D01*
X2624048Y-1508428D01*
X2833571Y-1527476D02*
X2871667Y-1527476D01*
X2890714Y-1517952D01*
X2900238Y-1508428D01*
X2919286Y-1479857D01*
X2928809Y-1441762D01*
X2928809Y-1365571D01*
X2919286Y-1346524D01*
X2909762Y-1337000D01*
X2890714Y-1327476D01*
X2852619Y-1327476D01*
X2833571Y-1337000D01*
X2824048Y-1346524D01*
X2814524Y-1365571D01*
X2814524Y-1413190D01*
X2824048Y-1432238D01*
X2833571Y-1441762D01*
X2852619Y-1451286D01*
X2890714Y-1451286D01*
X2909762Y-1441762D01*
X2919286Y-1432238D01*
X2928809Y-1413190D01*
X3119286Y-1527476D02*
X3005000Y-1527476D01*
X3062143Y-1527476D02*
X3062143Y-1327476D01*
X3043095Y-1356048D01*
X3024048Y-1375095D01*
X3005000Y-1384619D01*
X3195476Y-1327476D02*
X3195476Y-1365571D01*
X3271667Y-1327476D02*
X3271667Y-1365571D01*
X3566905Y-1603667D02*
X3557381Y-1594143D01*
X3538333Y-1565571D01*
X3528809Y-1546524D01*
X3519286Y-1517952D01*
X3509762Y-1470333D01*
X3509762Y-1432238D01*
X3519286Y-1384619D01*
X3528809Y-1356048D01*
X3538333Y-1337000D01*
X3557381Y-1308429D01*
X3566905Y-1298905D01*
X3747857Y-1527476D02*
X3633571Y-1527476D01*
X3690714Y-1527476D02*
X3690714Y-1327476D01*
X3671667Y-1356048D01*
X3652619Y-1375095D01*
X3633571Y-1384619D01*
X3871667Y-1327476D02*
X3890714Y-1327476D01*
X3909762Y-1337000D01*
X3919286Y-1346524D01*
X3928809Y-1365571D01*
X3938333Y-1403667D01*
X3938333Y-1451286D01*
X3928809Y-1489381D01*
X3919286Y-1508428D01*
X3909762Y-1517952D01*
X3890714Y-1527476D01*
X3871667Y-1527476D01*
X3852619Y-1517952D01*
X3843095Y-1508428D01*
X3833571Y-1489381D01*
X3824048Y-1451286D01*
X3824048Y-1403667D01*
X3833571Y-1365571D01*
X3843095Y-1346524D01*
X3852619Y-1337000D01*
X3871667Y-1327476D01*
X4033571Y-1527476D02*
X4071667Y-1527476D01*
X4090714Y-1517952D01*
X4100238Y-1508428D01*
X4119286Y-1479857D01*
X4128809Y-1441762D01*
X4128809Y-1365571D01*
X4119286Y-1346524D01*
X4109762Y-1337000D01*
X4090714Y-1327476D01*
X4052619Y-1327476D01*
X4033571Y-1337000D01*
X4024048Y-1346524D01*
X4014524Y-1365571D01*
X4014524Y-1413190D01*
X4024048Y-1432238D01*
X4033571Y-1441762D01*
X4052619Y-1451286D01*
X4090714Y-1451286D01*
X4109762Y-1441762D01*
X4119286Y-1432238D01*
X4128809Y-1413190D01*
X4366905Y-1527476D02*
X4366905Y-1327476D01*
X4452619Y-1527476D02*
X4452619Y-1422714D01*
X4443095Y-1403667D01*
X4424048Y-1394143D01*
X4395476Y-1394143D01*
X4376429Y-1403667D01*
X4366905Y-1413190D01*
X4576429Y-1527476D02*
X4557381Y-1517952D01*
X4547857Y-1508428D01*
X4538333Y-1489381D01*
X4538333Y-1432238D01*
X4547857Y-1413190D01*
X4557381Y-1403667D01*
X4576429Y-1394143D01*
X4605000Y-1394143D01*
X4624048Y-1403667D01*
X4633571Y-1413190D01*
X4643095Y-1432238D01*
X4643095Y-1489381D01*
X4633571Y-1508428D01*
X4624048Y-1517952D01*
X4605000Y-1527476D01*
X4576429Y-1527476D01*
X4757381Y-1527476D02*
X4738333Y-1517952D01*
X4728810Y-1498905D01*
X4728810Y-1327476D01*
X4909762Y-1517952D02*
X4890714Y-1527476D01*
X4852619Y-1527476D01*
X4833571Y-1517952D01*
X4824048Y-1498905D01*
X4824048Y-1422714D01*
X4833571Y-1403667D01*
X4852619Y-1394143D01*
X4890714Y-1394143D01*
X4909762Y-1403667D01*
X4919286Y-1422714D01*
X4919286Y-1441762D01*
X4824048Y-1460809D01*
X4995476Y-1517952D02*
X5014524Y-1527476D01*
X5052619Y-1527476D01*
X5071667Y-1517952D01*
X5081190Y-1498905D01*
X5081190Y-1489381D01*
X5071667Y-1470333D01*
X5052619Y-1460809D01*
X5024048Y-1460809D01*
X5005000Y-1451286D01*
X4995476Y-1432238D01*
X4995476Y-1422714D01*
X5005000Y-1403667D01*
X5024048Y-1394143D01*
X5052619Y-1394143D01*
X5071667Y-1403667D01*
X5147857Y-1603667D02*
X5157381Y-1594143D01*
X5176429Y-1565571D01*
X5185952Y-1546524D01*
X5195476Y-1517952D01*
X5205000Y-1470333D01*
X5205000Y-1432238D01*
X5195476Y-1384619D01*
X5185952Y-1356048D01*
X5176429Y-1337000D01*
X5157381Y-1308429D01*
X5147857Y-1298905D01*
X-105000Y-1807000D02*
X-5000Y-1707000D01*
X-105000Y-1607000D01*
X-205000Y-1707000D01*
X-105000Y-1807000D01*
X233571Y-1597476D02*
X357381Y-1597476D01*
X290714Y-1673667D01*
X319286Y-1673667D01*
X338333Y-1683190D01*
X347857Y-1692714D01*
X357381Y-1711762D01*
X357381Y-1759381D01*
X347857Y-1778428D01*
X338333Y-1787952D01*
X319286Y-1797476D01*
X262143Y-1797476D01*
X243095Y-1787952D01*
X233571Y-1778428D01*
X443095Y-1778428D02*
X452619Y-1787952D01*
X443095Y-1797476D01*
X433571Y-1787952D01*
X443095Y-1778428D01*
X443095Y-1797476D01*
X576429Y-1597476D02*
X595476Y-1597476D01*
X614524Y-1607000D01*
X624048Y-1616524D01*
X633571Y-1635571D01*
X643095Y-1673667D01*
X643095Y-1721286D01*
X633571Y-1759381D01*
X624048Y-1778428D01*
X614524Y-1787952D01*
X595476Y-1797476D01*
X576429Y-1797476D01*
X557381Y-1787952D01*
X547857Y-1778428D01*
X538333Y-1759381D01*
X528810Y-1721286D01*
X528810Y-1673667D01*
X538333Y-1635571D01*
X547857Y-1616524D01*
X557381Y-1607000D01*
X576429Y-1597476D01*
X766905Y-1597476D02*
X785952Y-1597476D01*
X805000Y-1607000D01*
X814524Y-1616524D01*
X824048Y-1635571D01*
X833571Y-1673667D01*
X833571Y-1721286D01*
X824048Y-1759381D01*
X814524Y-1778428D01*
X805000Y-1787952D01*
X785952Y-1797476D01*
X766905Y-1797476D01*
X747857Y-1787952D01*
X738333Y-1778428D01*
X728809Y-1759381D01*
X719286Y-1721286D01*
X719286Y-1673667D01*
X728809Y-1635571D01*
X738333Y-1616524D01*
X747857Y-1607000D01*
X766905Y-1597476D01*
X957381Y-1597476D02*
X976428Y-1597476D01*
X995476Y-1607000D01*
X1005000Y-1616524D01*
X1014524Y-1635571D01*
X1024048Y-1673667D01*
X1024048Y-1721286D01*
X1014524Y-1759381D01*
X1005000Y-1778428D01*
X995476Y-1787952D01*
X976428Y-1797476D01*
X957381Y-1797476D01*
X938333Y-1787952D01*
X928809Y-1778428D01*
X919286Y-1759381D01*
X909762Y-1721286D01*
X909762Y-1673667D01*
X919286Y-1635571D01*
X928809Y-1616524D01*
X938333Y-1607000D01*
X957381Y-1597476D01*
X1109762Y-1797476D02*
X1109762Y-1664143D01*
X1109762Y-1683190D02*
X1119286Y-1673667D01*
X1138333Y-1664143D01*
X1166905Y-1664143D01*
X1185952Y-1673667D01*
X1195476Y-1692714D01*
X1195476Y-1797476D01*
X1195476Y-1692714D02*
X1205000Y-1673667D01*
X1224048Y-1664143D01*
X1252619Y-1664143D01*
X1271667Y-1673667D01*
X1281190Y-1692714D01*
X1281190Y-1797476D01*
X1376429Y-1797476D02*
X1376429Y-1664143D01*
X1376429Y-1683190D02*
X1385952Y-1673667D01*
X1405000Y-1664143D01*
X1433571Y-1664143D01*
X1452619Y-1673667D01*
X1462143Y-1692714D01*
X1462143Y-1797476D01*
X1462143Y-1692714D02*
X1471667Y-1673667D01*
X1490714Y-1664143D01*
X1519286Y-1664143D01*
X1538333Y-1673667D01*
X1547857Y-1692714D01*
X1547857Y-1797476D01*
X1938333Y-1587952D02*
X1766905Y-1845095D01*
X2195476Y-1597476D02*
X2214524Y-1597476D01*
X2233571Y-1607000D01*
X2243095Y-1616524D01*
X2252619Y-1635571D01*
X2262143Y-1673667D01*
X2262143Y-1721286D01*
X2252619Y-1759381D01*
X2243095Y-1778428D01*
X2233571Y-1787952D01*
X2214524Y-1797476D01*
X2195476Y-1797476D01*
X2176429Y-1787952D01*
X2166905Y-1778428D01*
X2157381Y-1759381D01*
X2147857Y-1721286D01*
X2147857Y-1673667D01*
X2157381Y-1635571D01*
X2166905Y-1616524D01*
X2176429Y-1607000D01*
X2195476Y-1597476D01*
X2347857Y-1778428D02*
X2357381Y-1787952D01*
X2347857Y-1797476D01*
X2338333Y-1787952D01*
X2347857Y-1778428D01*
X2347857Y-1797476D01*
X2547857Y-1797476D02*
X2433571Y-1797476D01*
X2490714Y-1797476D02*
X2490714Y-1597476D01*
X2471667Y-1626048D01*
X2452619Y-1645095D01*
X2433571Y-1654619D01*
X2738333Y-1797476D02*
X2624048Y-1797476D01*
X2681190Y-1797476D02*
X2681190Y-1597476D01*
X2662143Y-1626048D01*
X2643095Y-1645095D01*
X2624048Y-1654619D01*
X2852619Y-1683190D02*
X2833571Y-1673667D01*
X2824048Y-1664143D01*
X2814524Y-1645095D01*
X2814524Y-1635571D01*
X2824048Y-1616524D01*
X2833571Y-1607000D01*
X2852619Y-1597476D01*
X2890714Y-1597476D01*
X2909762Y-1607000D01*
X2919286Y-1616524D01*
X2928809Y-1635571D01*
X2928809Y-1645095D01*
X2919286Y-1664143D01*
X2909762Y-1673667D01*
X2890714Y-1683190D01*
X2852619Y-1683190D01*
X2833571Y-1692714D01*
X2824048Y-1702238D01*
X2814524Y-1721286D01*
X2814524Y-1759381D01*
X2824048Y-1778428D01*
X2833571Y-1787952D01*
X2852619Y-1797476D01*
X2890714Y-1797476D01*
X2909762Y-1787952D01*
X2919286Y-1778428D01*
X2928809Y-1759381D01*
X2928809Y-1721286D01*
X2919286Y-1702238D01*
X2909762Y-1692714D01*
X2890714Y-1683190D01*
X3119286Y-1797476D02*
X3005000Y-1797476D01*
X3062143Y-1797476D02*
X3062143Y-1597476D01*
X3043095Y-1626048D01*
X3024048Y-1645095D01*
X3005000Y-1654619D01*
X3195476Y-1597476D02*
X3195476Y-1635571D01*
X3271667Y-1597476D02*
X3271667Y-1635571D01*
X3566905Y-1873667D02*
X3557381Y-1864143D01*
X3538333Y-1835571D01*
X3528809Y-1816524D01*
X3519286Y-1787952D01*
X3509762Y-1740333D01*
X3509762Y-1702238D01*
X3519286Y-1654619D01*
X3528809Y-1626048D01*
X3538333Y-1607000D01*
X3557381Y-1578428D01*
X3566905Y-1568905D01*
X3728809Y-1597476D02*
X3690714Y-1597476D01*
X3671667Y-1607000D01*
X3662143Y-1616524D01*
X3643095Y-1645095D01*
X3633571Y-1683190D01*
X3633571Y-1759381D01*
X3643095Y-1778428D01*
X3652619Y-1787952D01*
X3671667Y-1797476D01*
X3709762Y-1797476D01*
X3728809Y-1787952D01*
X3738333Y-1778428D01*
X3747857Y-1759381D01*
X3747857Y-1711762D01*
X3738333Y-1692714D01*
X3728809Y-1683190D01*
X3709762Y-1673667D01*
X3671667Y-1673667D01*
X3652619Y-1683190D01*
X3643095Y-1692714D01*
X3633571Y-1711762D01*
X3985952Y-1797476D02*
X3985952Y-1597476D01*
X4071667Y-1797476D02*
X4071667Y-1692714D01*
X4062143Y-1673667D01*
X4043095Y-1664143D01*
X4014524Y-1664143D01*
X3995476Y-1673667D01*
X3985952Y-1683190D01*
X4195476Y-1797476D02*
X4176428Y-1787952D01*
X4166905Y-1778428D01*
X4157381Y-1759381D01*
X4157381Y-1702238D01*
X4166905Y-1683190D01*
X4176428Y-1673667D01*
X4195476Y-1664143D01*
X4224048Y-1664143D01*
X4243095Y-1673667D01*
X4252619Y-1683190D01*
X4262143Y-1702238D01*
X4262143Y-1759381D01*
X4252619Y-1778428D01*
X4243095Y-1787952D01*
X4224048Y-1797476D01*
X4195476Y-1797476D01*
X4376429Y-1797476D02*
X4357381Y-1787952D01*
X4347857Y-1768905D01*
X4347857Y-1597476D01*
X4528810Y-1787952D02*
X4509762Y-1797476D01*
X4471667Y-1797476D01*
X4452619Y-1787952D01*
X4443095Y-1768905D01*
X4443095Y-1692714D01*
X4452619Y-1673667D01*
X4471667Y-1664143D01*
X4509762Y-1664143D01*
X4528810Y-1673667D01*
X4538333Y-1692714D01*
X4538333Y-1711762D01*
X4443095Y-1730809D01*
X4614524Y-1787952D02*
X4633571Y-1797476D01*
X4671667Y-1797476D01*
X4690714Y-1787952D01*
X4700238Y-1768905D01*
X4700238Y-1759381D01*
X4690714Y-1740333D01*
X4671667Y-1730809D01*
X4643095Y-1730809D01*
X4624048Y-1721286D01*
X4614524Y-1702238D01*
X4614524Y-1692714D01*
X4624048Y-1673667D01*
X4643095Y-1664143D01*
X4671667Y-1664143D01*
X4690714Y-1673667D01*
X4766905Y-1873667D02*
X4776429Y-1864143D01*
X4795476Y-1835571D01*
X4805000Y-1816524D01*
X4814524Y-1787952D01*
X4824048Y-1740333D01*
X4824048Y-1702238D01*
X4814524Y-1654619D01*
X4805000Y-1626048D01*
X4795476Y-1607000D01*
X4776429Y-1578428D01*
X4766905Y-1568905D01*
X-205000Y-1927000D02*
X-5000Y-2127000D01*
X-5000Y-1927000D02*
X-205000Y-2127000D01*
X-5000Y-2027000D02*
G75*
G03*
X-5000Y-2027000I-100000J0D01*
G01*
X338333Y-1984143D02*
X338333Y-2117476D01*
X290714Y-1907952D02*
X243095Y-2050809D01*
X366905Y-2050809D01*
X443095Y-2098429D02*
X452619Y-2107952D01*
X443095Y-2117476D01*
X433571Y-2107952D01*
X443095Y-2098429D01*
X443095Y-2117476D01*
X576429Y-1917476D02*
X595476Y-1917476D01*
X614524Y-1927000D01*
X624048Y-1936524D01*
X633571Y-1955571D01*
X643095Y-1993667D01*
X643095Y-2041286D01*
X633571Y-2079381D01*
X624048Y-2098429D01*
X614524Y-2107952D01*
X595476Y-2117476D01*
X576429Y-2117476D01*
X557381Y-2107952D01*
X547857Y-2098429D01*
X538333Y-2079381D01*
X528810Y-2041286D01*
X528810Y-1993667D01*
X538333Y-1955571D01*
X547857Y-1936524D01*
X557381Y-1927000D01*
X576429Y-1917476D01*
X766905Y-1917476D02*
X785952Y-1917476D01*
X805000Y-1927000D01*
X814524Y-1936524D01*
X824048Y-1955571D01*
X833571Y-1993667D01*
X833571Y-2041286D01*
X824048Y-2079381D01*
X814524Y-2098429D01*
X805000Y-2107952D01*
X785952Y-2117476D01*
X766905Y-2117476D01*
X747857Y-2107952D01*
X738333Y-2098429D01*
X728809Y-2079381D01*
X719286Y-2041286D01*
X719286Y-1993667D01*
X728809Y-1955571D01*
X738333Y-1936524D01*
X747857Y-1927000D01*
X766905Y-1917476D01*
X957381Y-1917476D02*
X976428Y-1917476D01*
X995476Y-1927000D01*
X1005000Y-1936524D01*
X1014524Y-1955571D01*
X1024048Y-1993667D01*
X1024048Y-2041286D01*
X1014524Y-2079381D01*
X1005000Y-2098429D01*
X995476Y-2107952D01*
X976428Y-2117476D01*
X957381Y-2117476D01*
X938333Y-2107952D01*
X928809Y-2098429D01*
X919286Y-2079381D01*
X909762Y-2041286D01*
X909762Y-1993667D01*
X919286Y-1955571D01*
X928809Y-1936524D01*
X938333Y-1927000D01*
X957381Y-1917476D01*
X1109762Y-2117476D02*
X1109762Y-1984143D01*
X1109762Y-2003190D02*
X1119286Y-1993667D01*
X1138333Y-1984143D01*
X1166905Y-1984143D01*
X1185952Y-1993667D01*
X1195476Y-2012714D01*
X1195476Y-2117476D01*
X1195476Y-2012714D02*
X1205000Y-1993667D01*
X1224048Y-1984143D01*
X1252619Y-1984143D01*
X1271667Y-1993667D01*
X1281190Y-2012714D01*
X1281190Y-2117476D01*
X1376429Y-2117476D02*
X1376429Y-1984143D01*
X1376429Y-2003190D02*
X1385952Y-1993667D01*
X1405000Y-1984143D01*
X1433571Y-1984143D01*
X1452619Y-1993667D01*
X1462143Y-2012714D01*
X1462143Y-2117476D01*
X1462143Y-2012714D02*
X1471667Y-1993667D01*
X1490714Y-1984143D01*
X1519286Y-1984143D01*
X1538333Y-1993667D01*
X1547857Y-2012714D01*
X1547857Y-2117476D01*
X1938333Y-1907952D02*
X1766905Y-2165095D01*
X2195476Y-1917476D02*
X2214524Y-1917476D01*
X2233571Y-1927000D01*
X2243095Y-1936524D01*
X2252619Y-1955571D01*
X2262143Y-1993667D01*
X2262143Y-2041286D01*
X2252619Y-2079381D01*
X2243095Y-2098429D01*
X2233571Y-2107952D01*
X2214524Y-2117476D01*
X2195476Y-2117476D01*
X2176429Y-2107952D01*
X2166905Y-2098429D01*
X2157381Y-2079381D01*
X2147857Y-2041286D01*
X2147857Y-1993667D01*
X2157381Y-1955571D01*
X2166905Y-1936524D01*
X2176429Y-1927000D01*
X2195476Y-1917476D01*
X2347857Y-2098429D02*
X2357381Y-2107952D01*
X2347857Y-2117476D01*
X2338333Y-2107952D01*
X2347857Y-2098429D01*
X2347857Y-2117476D01*
X2547857Y-2117476D02*
X2433571Y-2117476D01*
X2490714Y-2117476D02*
X2490714Y-1917476D01*
X2471667Y-1946048D01*
X2452619Y-1965095D01*
X2433571Y-1974619D01*
X2728810Y-1917476D02*
X2633571Y-1917476D01*
X2624048Y-2012714D01*
X2633571Y-2003190D01*
X2652619Y-1993667D01*
X2700238Y-1993667D01*
X2719286Y-2003190D01*
X2728810Y-2012714D01*
X2738333Y-2031762D01*
X2738333Y-2079381D01*
X2728810Y-2098429D01*
X2719286Y-2107952D01*
X2700238Y-2117476D01*
X2652619Y-2117476D01*
X2633571Y-2107952D01*
X2624048Y-2098429D01*
X2805000Y-1917476D02*
X2938333Y-1917476D01*
X2852619Y-2117476D01*
X3109762Y-1917476D02*
X3014524Y-1917476D01*
X3005000Y-2012714D01*
X3014524Y-2003190D01*
X3033571Y-1993667D01*
X3081190Y-1993667D01*
X3100238Y-2003190D01*
X3109762Y-2012714D01*
X3119286Y-2031762D01*
X3119286Y-2079381D01*
X3109762Y-2098429D01*
X3100238Y-2107952D01*
X3081190Y-2117476D01*
X3033571Y-2117476D01*
X3014524Y-2107952D01*
X3005000Y-2098429D01*
X3195476Y-1917476D02*
X3195476Y-1955571D01*
X3271667Y-1917476D02*
X3271667Y-1955571D01*
X3566905Y-2193667D02*
X3557381Y-2184143D01*
X3538333Y-2155571D01*
X3528809Y-2136524D01*
X3519286Y-2107952D01*
X3509762Y-2060333D01*
X3509762Y-2022238D01*
X3519286Y-1974619D01*
X3528809Y-1946048D01*
X3538333Y-1927000D01*
X3557381Y-1898428D01*
X3566905Y-1888905D01*
X3747857Y-2117476D02*
X3633571Y-2117476D01*
X3690714Y-2117476D02*
X3690714Y-1917476D01*
X3671667Y-1946048D01*
X3652619Y-1965095D01*
X3633571Y-1974619D01*
X3862143Y-2003190D02*
X3843095Y-1993667D01*
X3833571Y-1984143D01*
X3824048Y-1965095D01*
X3824048Y-1955571D01*
X3833571Y-1936524D01*
X3843095Y-1927000D01*
X3862143Y-1917476D01*
X3900238Y-1917476D01*
X3919286Y-1927000D01*
X3928809Y-1936524D01*
X3938333Y-1955571D01*
X3938333Y-1965095D01*
X3928809Y-1984143D01*
X3919286Y-1993667D01*
X3900238Y-2003190D01*
X3862143Y-2003190D01*
X3843095Y-2012714D01*
X3833571Y-2022238D01*
X3824048Y-2041286D01*
X3824048Y-2079381D01*
X3833571Y-2098429D01*
X3843095Y-2107952D01*
X3862143Y-2117476D01*
X3900238Y-2117476D01*
X3919286Y-2107952D01*
X3928809Y-2098429D01*
X3938333Y-2079381D01*
X3938333Y-2041286D01*
X3928809Y-2022238D01*
X3919286Y-2012714D01*
X3900238Y-2003190D01*
X4176428Y-2117476D02*
X4176428Y-1917476D01*
X4262143Y-2117476D02*
X4262143Y-2012714D01*
X4252619Y-1993667D01*
X4233571Y-1984143D01*
X4205000Y-1984143D01*
X4185952Y-1993667D01*
X4176428Y-2003190D01*
X4385952Y-2117476D02*
X4366905Y-2107952D01*
X4357381Y-2098429D01*
X4347857Y-2079381D01*
X4347857Y-2022238D01*
X4357381Y-2003190D01*
X4366905Y-1993667D01*
X4385952Y-1984143D01*
X4414524Y-1984143D01*
X4433571Y-1993667D01*
X4443095Y-2003190D01*
X4452619Y-2022238D01*
X4452619Y-2079381D01*
X4443095Y-2098429D01*
X4433571Y-2107952D01*
X4414524Y-2117476D01*
X4385952Y-2117476D01*
X4566905Y-2117476D02*
X4547857Y-2107952D01*
X4538333Y-2088905D01*
X4538333Y-1917476D01*
X4719286Y-2107952D02*
X4700238Y-2117476D01*
X4662143Y-2117476D01*
X4643095Y-2107952D01*
X4633571Y-2088905D01*
X4633571Y-2012714D01*
X4643095Y-1993667D01*
X4662143Y-1984143D01*
X4700238Y-1984143D01*
X4719286Y-1993667D01*
X4728810Y-2012714D01*
X4728810Y-2031762D01*
X4633571Y-2050809D01*
X4805000Y-2107952D02*
X4824048Y-2117476D01*
X4862143Y-2117476D01*
X4881190Y-2107952D01*
X4890714Y-2088905D01*
X4890714Y-2079381D01*
X4881190Y-2060333D01*
X4862143Y-2050809D01*
X4833571Y-2050809D01*
X4814524Y-2041286D01*
X4805000Y-2022238D01*
X4805000Y-2012714D01*
X4814524Y-1993667D01*
X4833571Y-1984143D01*
X4862143Y-1984143D01*
X4881190Y-1993667D01*
X4957381Y-2193667D02*
X4966905Y-2184143D01*
X4985952Y-2155571D01*
X4995476Y-2136524D01*
X5005000Y-2107952D01*
X5014524Y-2060333D01*
X5014524Y-2022238D01*
X5005000Y-1974619D01*
X4995476Y-1946048D01*
X4985952Y-1927000D01*
X4966905Y-1898428D01*
X4957381Y-1888905D01*
M02*
