M48
; DRILL file {KiCad (6.0.6)} date Sat Sep 14 00:00:53 2024
; FORMAT={-:-/ absolute / metric / decimal}
; #@! TF.CreationDate,2024-09-14T00:00:53+08:00
; #@! TF.GenerationSoftware,Kicad,Pcbnew,(6.0.6)
; #@! TF.FileFunction,Plated,1,2,PTH
FMAT,2
METRIC
; #@! TA.AperFunction,Plated,PTH,ComponentDrill
T1C0.800
; #@! TA.AperFunction,Plated,PTH,ComponentDrill
T2C1.000
; #@! TA.AperFunction,Plated,PTH,ComponentDrill
T3C1.200
; #@! TA.AperFunction,Plated,PTH,ComponentDrill
T4C1.500
; #@! TA.AperFunction,Plated,PTH,ViaDrill
T5C3.000
; #@! TA.AperFunction,Plated,PTH,ComponentDrill
T6C4.000
%
G90
G05
T1
X195.326Y40.386
X202.946Y40.386
T2
X32.507Y86.138
X32.507Y52.022
X35.047Y86.138
X35.047Y52.022
X47.244Y37.073
X47.244Y34.533
X53.645Y52.022
X53.647Y86.138
X56.185Y52.022
X56.187Y86.138
X60.544Y37.073
X60.544Y34.533
X73.844Y37.073
X73.844Y34.533
X74.784Y52.022
X74.787Y86.138
X77.324Y52.022
X77.327Y86.138
X87.143Y37.073
X87.143Y34.533
X95.922Y52.022
X95.927Y86.138
X98.462Y52.022
X98.467Y86.138
X100.443Y37.073
X100.443Y34.533
X113.743Y37.073
X113.743Y34.533
X114.923Y187.706
X117.061Y52.022
X117.068Y86.138
X117.463Y187.706
X119.601Y52.022
X119.608Y86.138
X127.043Y37.073
X127.043Y34.533
X138.2Y52.022
X138.208Y86.138
X140.342Y37.073
X140.342Y34.533
X140.739Y52.022
X140.748Y86.138
X151.13Y172.423
X151.13Y169.883
X153.642Y37.073
X153.642Y34.533
X155.861Y105.664
X158.401Y105.664
X159.338Y52.022
X159.358Y86.138
X160.941Y105.664
X161.878Y52.022
X161.898Y86.138
X166.942Y37.073
X166.942Y34.533
X168.148Y172.423
X168.148Y169.883
X191.198Y144.098
X193.294Y116.078
X193.294Y113.538
X193.294Y110.998
X193.738Y144.098
X194.818Y69.783
X194.818Y67.243
X194.818Y64.703
X196.845Y129.448
X199.385Y129.448
X200.66Y181.631
X200.66Y179.091
X201.163Y12.82
X201.417Y86.36
X203.703Y12.82
X203.957Y86.36
X205.717Y144.098
X208.257Y144.098
X213.324Y181.631
X213.324Y179.091
X218.381Y144.098
X220.921Y144.098
X225.987Y181.631
X225.987Y179.091
X228.854Y36.825
X228.854Y34.285
X231.044Y144.098
X233.584Y144.098
X234.442Y124.368
X234.442Y121.828
X234.442Y78.195
X234.442Y75.655
X238.651Y181.631
X238.651Y179.091
X243.332Y129.448
X243.708Y144.098
X245.872Y129.448
X246.248Y144.098
X251.315Y181.631
X251.315Y179.091
X256.372Y144.098
X258.912Y144.098
X263.979Y181.631
X263.979Y179.091
X264.917Y86.263
X267.457Y86.263
X269.035Y144.098
X271.575Y144.098
X273.812Y69.783
X273.812Y67.243
X273.812Y64.703
X276.642Y181.631
X276.642Y179.091
X281.338Y33.782
X281.699Y144.098
X284.239Y144.098
X289.306Y181.631
X289.306Y179.091
X291.338Y33.782
T3
X11.811Y122.809
X11.811Y107.569
X22.86Y38.862
X25.208Y122.809
X25.208Y107.569
X26.162Y56.61
X38.1Y38.862
X38.604Y122.809
X38.604Y107.569
X41.402Y56.61
X47.244Y30.972
X47.244Y15.732
X47.286Y81.534
X47.286Y56.61
X52.001Y122.809
X52.001Y107.569
X60.544Y30.972
X60.544Y15.732
X62.526Y81.534
X62.526Y56.61
X65.398Y122.809
X65.398Y107.569
X68.411Y81.534
X68.411Y56.61
X73.844Y30.972
X73.844Y15.732
X78.794Y122.809
X78.794Y107.569
X83.651Y81.534
X83.651Y56.61
X87.143Y30.972
X87.143Y15.732
X89.535Y81.534
X89.535Y56.61
X92.191Y122.809
X92.191Y107.569
X100.443Y30.972
X100.443Y15.732
X104.775Y81.534
X104.775Y56.61
X105.588Y122.809
X105.588Y107.569
X110.659Y81.534
X110.659Y56.61
X113.743Y30.972
X113.743Y15.732
X118.984Y122.809
X118.984Y107.569
X125.899Y81.534
X125.899Y56.61
X126.206Y187.706
X127.043Y30.972
X127.043Y15.732
X131.784Y81.534
X131.784Y56.61
X132.381Y122.809
X132.381Y107.569
X140.342Y30.972
X140.342Y15.732
X141.446Y187.706
X147.024Y81.534
X147.024Y56.61
X151.347Y164.544
X151.347Y149.304
X152.908Y81.534
X152.908Y56.61
X153.416Y126.7
X153.642Y30.972
X153.642Y15.732
X158.416Y126.7
X163.416Y126.7
X166.942Y30.972
X166.942Y15.732
X168.148Y164.544
X168.148Y149.304
X168.148Y81.534
X168.148Y56.61
X194.818Y18.034
X200.66Y170.26
X200.66Y155.02
X209.042Y129.448
X210.058Y18.034
X210.715Y86.263
X213.324Y170.26
X213.324Y155.02
X216.154Y33.356
X216.154Y25.856
X224.282Y129.448
X225.955Y86.263
X225.987Y170.26
X225.987Y155.02
X228.854Y30.478
X228.854Y15.238
X234.442Y117.316
X234.442Y102.076
X234.509Y70.996
X234.509Y55.756
X238.651Y170.26
X238.651Y155.02
X243.681Y86.263
X251.315Y170.26
X251.315Y155.02
X255.27Y129.448
X258.921Y86.263
X259.414Y31.958
X263.979Y170.26
X263.979Y155.02
X264.414Y31.958
X269.414Y31.958
X270.51Y129.448
X276.052Y19.05
X276.642Y170.26
X276.642Y155.02
X289.306Y170.26
X289.306Y155.02
X291.292Y19.05
T4
X11.811Y127.254
X11.811Y103.124
X25.208Y127.254
X25.208Y103.124
X26.162Y60.452
X38.604Y127.254
X38.604Y103.124
X41.402Y60.452
X47.286Y77.852
X47.286Y60.452
X50.8Y30.956
X50.8Y15.716
X52.001Y127.254
X52.001Y103.124
X62.526Y77.852
X62.526Y60.452
X64.1Y30.956
X64.1Y15.716
X65.398Y127.254
X65.398Y103.124
X68.411Y77.852
X68.411Y60.452
X77.4Y30.956
X77.4Y15.716
X78.794Y127.254
X78.794Y103.124
X83.651Y77.852
X83.651Y60.452
X89.535Y77.852
X89.535Y60.452
X90.699Y30.956
X90.699Y15.716
X92.191Y127.254
X92.191Y103.124
X103.999Y30.956
X103.999Y15.716
X104.775Y77.852
X104.775Y60.452
X105.588Y127.254
X105.588Y103.124
X110.659Y77.852
X110.659Y60.452
X117.299Y30.956
X117.299Y15.716
X118.984Y127.254
X118.984Y103.124
X125.899Y77.852
X125.984Y60.452
X126.206Y183.896
X130.599Y30.956
X130.599Y15.716
X131.784Y77.852
X131.826Y60.452
X132.381Y127.254
X132.381Y103.124
X141.446Y183.896
X143.898Y30.956
X143.898Y15.716
X147.024Y77.852
X147.066Y60.452
X147.574Y164.544
X147.574Y149.304
X152.813Y100.838
X152.908Y77.852
X152.908Y60.452
X157.198Y30.956
X157.198Y15.716
X158.416Y100.838
X164.243Y100.838
X164.338Y164.544
X164.338Y149.304
X168.148Y77.852
X168.148Y60.452
X170.498Y30.956
X170.498Y15.716
X200.66Y174.578
X200.66Y150.702
X209.042Y125.73
X210.715Y82.55
X213.324Y174.578
X213.324Y150.702
X224.282Y125.73
X225.955Y82.55
X225.987Y174.578
X225.987Y150.702
X234.188Y12.754
X234.442Y40.286
X238.22Y117.316
X238.22Y102.076
X238.252Y70.996
X238.252Y55.756
X238.651Y174.578
X238.651Y150.702
X243.681Y82.55
X251.315Y174.578
X251.315Y150.702
X255.27Y125.73
X258.921Y82.55
X263.979Y174.578
X263.979Y150.702
X270.51Y125.73
X276.052Y13.62
X276.642Y174.578
X276.642Y150.702
X284.988Y124.206
X284.988Y105.41
X289.306Y174.578
X289.306Y150.702
X291.292Y13.62
T5
X5.0Y205.0
X5.0Y5.0
X148.5Y205.0
X148.5Y5.0
X292.0Y205.0
X292.0Y5.0
T6
X12.954Y76.008
X12.954Y61.008
X12.954Y34.138
X12.954Y19.138
X102.496Y173.108
X102.496Y158.108
X184.03Y122.47
X184.03Y107.47
X184.03Y76.008
X184.03Y61.008
X184.03Y34.138
X184.03Y19.138
X184.404Y173.108
X184.404Y158.108
X246.99Y34.138
X246.99Y19.138
X284.8Y76.008
X284.8Y61.008
T0
M30
